<svg width="335" height="60" viewBox="0 0 335 60" fill="none" xmlns="http://www.w3.org/2000/svg">
<g clip-path="url(#clip0_2267_168752)">
<rect width="335" height="60" fill="#202020"/>
<g clip-path="url(#clip1_2267_168752)">
<mask id="mask0_2267_168752" style="mask-type:luminance" maskUnits="userSpaceOnUse" x="18" y="22" width="73" height="77">
<path d="M74.0237 22.0002L18 37.0117L34.5644 98.831L90.5881 83.8195L74.0237 22.0002Z" fill="white"/>
</mask>
<g mask="url(#mask0_2267_168752)">
<path d="M59.4071 58.8222C58.9553 57.2607 58.4575 55.7142 57.9137 54.1827C57.0248 51.6404 55.9656 49.1611 54.7433 46.7615C53.2195 43.8241 51.1145 41.2283 48.5571 39.133C48.4009 38.9984 48.2167 38.9005 48.0179 38.8467C47.8192 38.7929 47.6109 38.7844 47.4086 38.822C47.2063 38.8595 47.0151 38.9421 46.8489 39.0636C46.6828 39.1852 46.5461 39.3426 46.4487 39.5243C45.3276 41.5079 44.2081 43.4923 43.0901 45.4774C42.9952 45.6324 42.9318 45.8047 42.9038 45.9845C42.8758 46.1643 42.8837 46.3479 42.9269 46.5247C42.9702 46.7015 43.0479 46.8681 43.1557 47.0146C43.2636 47.1612 43.3993 47.285 43.555 47.3787C44.8908 48.2408 46.1399 49.2312 47.2846 50.3357C49.1243 52.1304 50.7175 54.1626 52.0222 56.3787C53.0004 58.0347 53.859 59.7588 54.5914 61.5376C55.2535 63.1269 55.7857 64.7674 56.183 66.4428C56.5222 67.892 56.7656 69.3619 56.9116 70.8429C56.9396 71.0126 56.9327 71.1862 56.8913 71.3529C56.8499 71.5197 56.775 71.6762 56.671 71.8127C56.567 71.9493 56.4362 72.063 56.2867 72.1469C56.1372 72.2308 55.972 72.2831 55.8015 72.3006C55.631 72.3181 55.4586 72.3004 55.295 72.2486C55.1314 72.1969 54.9801 72.1121 54.8503 71.9996C54.7205 71.887 54.615 71.7491 54.5403 71.5942C54.4656 71.4394 54.4232 71.2709 54.4158 71.0991C54.2367 69.2847 53.8967 67.4897 53.3999 65.7354C52.9073 64.0278 52.2701 62.3652 51.4954 60.7659C50.7885 59.2664 49.9537 57.8308 49.0002 56.4752C48.8081 56.1511 48.502 55.9108 48.1422 55.8016C47.8912 55.7383 47.6269 55.7546 47.3858 55.8483C47.1447 55.942 46.9387 56.1085 46.7962 56.3248C46.6536 56.5411 46.5816 56.7965 46.5901 57.0558C46.5985 57.3151 46.687 57.5655 46.8434 57.7724C47.578 58.77 48.2342 59.8234 48.8059 60.9229C49.3217 61.9103 49.7774 62.928 50.1704 63.9705C50.4267 64.6487 50.6626 65.3329 50.8675 66.0285C50.9148 66.1345 50.9329 66.2512 50.9198 66.3665C50.9067 66.4818 50.8629 66.5914 50.7931 66.6839C50.7232 66.7763 50.6298 66.8482 50.5227 66.892C50.4156 66.9358 50.2986 66.9499 50.1841 66.9329C49.524 66.9615 48.8631 66.8906 48.2237 66.7223C47.5986 66.5347 47.0229 66.2099 46.5383 65.7715C46.0538 65.333 45.6726 64.7919 45.4224 64.1876C44.7677 62.678 44.1251 61.1631 43.4785 59.6498C43.1674 58.922 42.8539 58.1949 42.5501 57.4641C42.533 57.4147 42.5024 57.3711 42.4616 57.3384C42.4209 57.3056 42.3717 57.2852 42.3199 57.2794C39.9601 56.7918 37.5987 56.3082 35.2417 55.8068C34.5323 55.6744 33.8661 55.3684 33.3023 54.9162C32.7385 54.464 32.2945 53.8795 32.0096 53.2144C31.6176 52.3512 31.5104 51.3855 31.7038 50.4579C31.8972 49.5303 32.381 48.6893 33.0847 48.0574C34.9027 46.4389 36.7377 44.8444 38.5675 43.2418C38.6138 43.208 38.6496 43.1618 38.6708 43.1084C38.6919 43.055 38.6975 42.9967 38.6869 42.9403C38.4824 41.2227 38.287 39.5036 38.0892 37.7852C37.9989 36.9983 37.8822 36.2134 37.8238 35.4239C37.7649 34.5105 37.9874 33.6015 38.4612 32.82C38.935 32.0385 39.6371 31.4223 40.4726 31.0549C41.1227 30.7497 41.8386 30.6116 42.5559 30.6529C43.2731 30.6943 43.969 30.9138 44.5811 31.2917C46.6774 32.523 48.7559 33.7872 50.8385 35.0362C50.8898 35.073 50.9505 35.0944 51.0134 35.0979C51.0764 35.1014 51.139 35.0868 51.194 35.0559C53.4095 34.0336 55.6252 33.0102 57.8475 32.0021C58.9201 31.532 60.134 31.5008 61.2306 31.915C62.3272 32.3293 63.2198 33.1563 63.7182 34.2198C64.1603 35.1791 64.262 36.2606 64.0066 37.2848C63.4715 39.6166 62.9476 41.951 62.4163 44.2839C62.4033 44.3257 62.4024 44.3703 62.4138 44.4126C62.4251 44.4549 62.4482 44.4931 62.4803 44.5228C64.1228 46.3088 65.768 48.0921 67.3997 49.8881C68.199 50.7406 68.6366 51.8711 68.6198 53.0401C68.603 54.2092 68.1331 55.3251 67.3096 56.1515C67.1029 56.3552 66.9568 56.6125 66.8875 56.8947C66.8181 57.177 66.8283 57.4731 66.9168 57.7501C67.1176 58.4994 67.3183 59.2487 67.5065 60.0014C67.8929 61.5629 68.2277 63.1356 68.4966 64.7216C68.5273 64.8892 68.5237 65.0613 68.4859 65.2273C68.4482 65.3934 68.3771 65.55 68.277 65.6875C68.1769 65.8251 68.05 65.9407 67.9038 66.0274C67.7577 66.1141 67.5954 66.17 67.4269 66.1918C67.0983 66.2315 66.767 66.1404 66.5042 65.9382C66.2414 65.7359 66.0679 65.4385 66.0211 65.1098C65.8559 64.1441 65.6556 63.1854 65.449 62.2278C65.1142 60.6886 64.7215 59.1635 64.2853 57.6511C63.758 55.8232 63.2366 53.9933 62.6357 52.1876C62.5037 51.7903 62.3583 51.3971 62.2221 51.0009C62.1683 50.845 62.0844 50.7011 61.9751 50.5776C61.8659 50.4541 61.7335 50.3534 61.5856 50.2811C61.4376 50.2088 61.2769 50.1665 61.1127 50.1565C60.9485 50.1464 60.784 50.169 60.6286 50.2227C60.4731 50.2764 60.3298 50.3604 60.2068 50.4697C60.0838 50.579 59.9835 50.7116 59.9117 50.8599C59.8399 51.0081 59.7979 51.1692 59.7882 51.3338C59.7784 51.4984 59.8011 51.6635 59.855 51.8194C60.3409 53.1735 60.765 54.5471 61.1722 55.9268C61.6597 57.5781 62.1416 59.2309 62.562 60.9007C62.6469 61.2186 62.6042 61.5571 62.4431 61.8434C62.2819 62.1297 62.015 62.3411 61.6999 62.4321C61.3847 62.5231 61.0463 62.4865 60.7573 62.3302C60.4684 62.1739 60.2519 61.9103 60.1543 61.596C59.9241 60.7722 59.7116 59.9437 59.4879 59.1182L59.4071 58.8222Z" fill="#444444"/>
</g>
</g>
<g clip-path="url(#clip2_2267_168752)">
<mask id="mask1_2267_168752" style="mask-type:luminance" maskUnits="userSpaceOnUse" x="132" y="-15" width="73" height="77">
<path d="M188.024 -14.9998L132 0.0117188L148.564 61.831L204.588 46.8195L188.024 -14.9998Z" fill="white"/>
</mask>
<g mask="url(#mask1_2267_168752)">
<path d="M173.407 21.8222C172.955 20.2607 172.458 18.7142 171.914 17.1827C171.025 14.6404 169.966 12.1611 168.743 9.76153C167.22 6.82409 165.114 4.22832 162.557 2.13302C162.401 1.99838 162.217 1.90054 162.018 1.84671C161.819 1.79287 161.611 1.78442 161.409 1.82196C161.206 1.8595 161.015 1.94209 160.849 2.06364C160.683 2.18518 160.546 2.3426 160.449 2.52428C159.328 4.50789 158.208 6.49225 157.09 8.47738C156.995 8.63236 156.932 8.80472 156.904 8.98449C156.876 9.16427 156.884 9.34789 156.927 9.52471C156.97 9.70154 157.048 9.86806 157.156 10.0146C157.264 10.1612 157.399 10.285 157.555 10.3787C158.891 11.2408 160.14 12.2312 161.285 13.3357C163.124 15.1304 164.718 17.1626 166.022 19.3787C167 21.0347 167.859 22.7588 168.591 24.5376C169.253 26.1269 169.786 27.7674 170.183 29.4428C170.522 30.892 170.766 32.3619 170.912 33.8429C170.94 34.0126 170.933 34.1862 170.891 34.3529C170.85 34.5197 170.775 34.6762 170.671 34.8127C170.567 34.9493 170.436 35.063 170.287 35.1469C170.137 35.2308 169.972 35.2831 169.802 35.3006C169.631 35.3181 169.459 35.3004 169.295 35.2486C169.131 35.1969 168.98 35.1121 168.85 34.9996C168.721 34.887 168.615 34.7491 168.54 34.5942C168.466 34.4394 168.423 34.2709 168.416 34.0991C168.237 32.2847 167.897 30.4897 167.4 28.7354C166.907 27.0278 166.27 25.3652 165.495 23.7659C164.789 22.2664 163.954 20.8308 163 19.4752C162.808 19.1511 162.502 18.9108 162.142 18.8016C161.891 18.7383 161.627 18.7546 161.386 18.8483C161.145 18.942 160.939 19.1085 160.796 19.3248C160.654 19.5411 160.582 19.7965 160.59 20.0558C160.599 20.3151 160.687 20.5655 160.843 20.7724C161.578 21.77 162.234 22.8234 162.806 23.9229C163.322 24.9103 163.777 25.928 164.17 26.9705C164.427 27.6487 164.663 28.3329 164.867 29.0285C164.915 29.1345 164.933 29.2512 164.92 29.3665C164.907 29.4818 164.863 29.5914 164.793 29.6839C164.723 29.7763 164.63 29.8482 164.523 29.892C164.416 29.9358 164.299 29.9499 164.184 29.9329C163.524 29.9615 162.863 29.8906 162.224 29.7223C161.599 29.5347 161.023 29.2099 160.538 28.7715C160.054 28.333 159.673 27.7919 159.422 27.1876C158.768 25.678 158.125 24.1631 157.478 22.6498C157.167 21.922 156.854 21.1949 156.55 20.4641C156.533 20.4147 156.502 20.3711 156.462 20.3384C156.421 20.3056 156.372 20.2852 156.32 20.2794C153.96 19.7918 151.599 19.3082 149.242 18.8068C148.532 18.6744 147.866 18.3684 147.302 17.9162C146.739 17.464 146.295 16.8795 146.01 16.2144C145.618 15.3512 145.51 14.3855 145.704 13.4579C145.897 12.5303 146.381 11.6893 147.085 11.0574C148.903 9.43888 150.738 7.8444 152.568 6.24178C152.614 6.20801 152.65 6.16176 152.671 6.10839C152.692 6.05503 152.697 5.99673 152.687 5.94025C152.482 4.22266 152.287 2.50363 152.089 0.785231C151.999 -0.00173459 151.882 -0.786626 151.824 -1.5761C151.765 -2.4895 151.987 -3.39854 152.461 -4.18004C152.935 -4.96154 153.637 -5.57772 154.473 -5.94507C155.123 -6.25026 155.839 -6.3884 156.556 -6.34706C157.273 -6.30572 157.969 -6.08619 158.581 -5.70825C160.677 -4.47697 162.756 -3.21284 164.838 -1.96382C164.89 -1.92698 164.95 -1.90557 165.013 -1.90208C165.076 -1.8986 165.139 -1.91319 165.194 -1.94414C167.409 -2.96645 169.625 -3.98981 171.847 -4.99788C172.92 -5.46797 174.134 -5.49922 175.231 -5.08497C176.327 -4.67073 177.22 -3.84375 177.718 -2.7802C178.16 -1.82092 178.262 -0.739417 178.007 0.284751C177.472 2.61663 176.948 4.95104 176.416 7.28392C176.403 7.32568 176.402 7.37032 176.414 7.41261C176.425 7.4549 176.448 7.49311 176.48 7.52277C178.123 9.30883 179.768 11.0921 181.4 12.8881C182.199 13.7406 182.637 14.8711 182.62 16.0401C182.603 17.2092 182.133 18.3251 181.31 19.1515C181.103 19.3552 180.957 19.6125 180.887 19.8947C180.818 20.177 180.828 20.4731 180.917 20.7501C181.118 21.4994 181.318 22.2487 181.507 23.0014C181.893 24.5629 182.228 26.1356 182.497 27.7216C182.527 27.8892 182.524 28.0613 182.486 28.2273C182.448 28.3934 182.377 28.55 182.277 28.6875C182.177 28.8251 182.05 28.9407 181.904 29.0274C181.758 29.1141 181.595 29.17 181.427 29.1918C181.098 29.2315 180.767 29.1404 180.504 28.9382C180.241 28.7359 180.068 28.4385 180.021 28.1098C179.856 27.1441 179.656 26.1854 179.449 25.2278C179.114 23.6886 178.722 22.1635 178.285 20.6511C177.758 18.8232 177.237 16.9933 176.636 15.1876C176.504 14.7903 176.358 14.3971 176.222 14.0009C176.168 13.845 176.084 13.7011 175.975 13.5776C175.866 13.4541 175.734 13.3534 175.586 13.2811C175.438 13.2088 175.277 13.1665 175.113 13.1565C174.948 13.1464 174.784 13.169 174.629 13.2227C174.473 13.2764 174.33 13.3604 174.207 13.4697C174.084 13.579 173.984 13.7116 173.912 13.8599C173.84 14.0081 173.798 14.1692 173.788 14.3338C173.778 14.4984 173.801 14.6635 173.855 14.8194C174.341 16.1735 174.765 17.5471 175.172 18.9268C175.66 20.5781 176.142 22.2309 176.562 23.9007C176.647 24.2186 176.604 24.5571 176.443 24.8434C176.282 25.1297 176.015 25.3411 175.7 25.4321C175.385 25.5231 175.046 25.4865 174.757 25.3302C174.468 25.1739 174.252 24.9103 174.154 24.596C173.924 23.7722 173.712 22.9437 173.488 22.1182L173.407 21.8222Z" fill="#444444"/>
<path d="M177.225 27.5574C177.386 28.4777 177.584 29.4762 177.735 30.4829C177.987 32.1264 178.121 33.7858 178.137 35.4482C178.145 35.7346 178.055 36.015 177.883 36.2428C177.71 36.4706 177.464 36.6321 177.187 36.7006C176.909 36.769 176.617 36.7403 176.358 36.6191C176.099 36.4979 175.889 36.2916 175.762 36.0344C175.675 35.8554 175.632 35.6583 175.636 35.4594C175.631 33.8876 175.503 32.3184 175.254 30.7662C175.107 29.816 174.907 28.8755 174.758 27.9259C174.727 27.7624 174.729 27.5944 174.765 27.4319C174.8 27.2695 174.868 27.116 174.965 26.9809C175.061 26.8457 175.184 26.7318 175.326 26.6459C175.468 26.56 175.626 26.5039 175.791 26.4812C176.123 26.4344 176.46 26.5214 176.729 26.723C176.998 26.9246 177.176 27.2246 177.225 27.5574Z" fill="#444444"/>
</g>
</g>
<g clip-path="url(#clip3_2267_168752)">
<mask id="mask2_2267_168752" style="mask-type:luminance" maskUnits="userSpaceOnUse" x="250" y="21" width="73" height="77">
<path d="M306.024 21.0002L250 36.0117L266.564 97.831L322.588 82.8195L306.024 21.0002Z" fill="white"/>
</mask>
<g mask="url(#mask2_2267_168752)">
<path d="M291.407 57.8222C290.955 56.2607 290.458 54.7142 289.914 53.1827C289.025 50.6404 287.966 48.1611 286.743 45.7615C285.22 42.8241 283.114 40.2283 280.557 38.133C280.401 37.9984 280.217 37.9005 280.018 37.8467C279.819 37.7929 279.611 37.7844 279.409 37.822C279.206 37.8595 279.015 37.9421 278.849 38.0636C278.683 38.1852 278.546 38.3426 278.449 38.5243C277.328 40.5079 276.208 42.4923 275.09 44.4774C274.995 44.6324 274.932 44.8047 274.904 44.9845C274.876 45.1643 274.884 45.3479 274.927 45.5247C274.97 45.7015 275.048 45.8681 275.156 46.0146C275.264 46.1612 275.399 46.285 275.555 46.3787C276.891 47.2408 278.14 48.2312 279.285 49.3357C281.124 51.1304 282.718 53.1626 284.022 55.3787C285 57.0347 285.859 58.7588 286.591 60.5376C287.253 62.1269 287.786 63.7674 288.183 65.4428C288.522 66.892 288.766 68.3619 288.912 69.8429C288.94 70.0126 288.933 70.1862 288.891 70.3529C288.85 70.5197 288.775 70.6762 288.671 70.8127C288.567 70.9493 288.436 71.063 288.287 71.1469C288.137 71.2308 287.972 71.2831 287.802 71.3006C287.631 71.3181 287.459 71.3004 287.295 71.2486C287.131 71.1969 286.98 71.1121 286.85 70.9996C286.721 70.887 286.615 70.7491 286.54 70.5942C286.466 70.4394 286.423 70.2709 286.416 70.0991C286.237 68.2847 285.897 66.4897 285.4 64.7354C284.907 63.0278 284.27 61.3652 283.495 59.7659C282.789 58.2664 281.954 56.8308 281 55.4752C280.808 55.1511 280.502 54.9108 280.142 54.8016C279.891 54.7383 279.627 54.7546 279.386 54.8483C279.145 54.942 278.939 55.1085 278.796 55.3248C278.654 55.5411 278.582 55.7965 278.59 56.0558C278.599 56.3151 278.687 56.5655 278.843 56.7724C279.578 57.77 280.234 58.8234 280.806 59.9229C281.322 60.9103 281.777 61.928 282.17 62.9705C282.427 63.6487 282.663 64.3329 282.867 65.0285C282.915 65.1345 282.933 65.2512 282.92 65.3665C282.907 65.4818 282.863 65.5914 282.793 65.6839C282.723 65.7763 282.63 65.8482 282.523 65.892C282.416 65.9358 282.299 65.9499 282.184 65.9329C281.524 65.9615 280.863 65.8906 280.224 65.7223C279.599 65.5347 279.023 65.2099 278.538 64.7715C278.054 64.333 277.673 63.7919 277.422 63.1876C276.768 61.678 276.125 60.1631 275.478 58.6498C275.167 57.922 274.854 57.1949 274.55 56.4641C274.533 56.4147 274.502 56.3711 274.462 56.3384C274.421 56.3056 274.372 56.2852 274.32 56.2794C271.96 55.7918 269.599 55.3082 267.242 54.8068C266.532 54.6744 265.866 54.3684 265.302 53.9162C264.739 53.464 264.295 52.8795 264.01 52.2144C263.618 51.3512 263.51 50.3855 263.704 49.4579C263.897 48.5303 264.381 47.6893 265.085 47.0574C266.903 45.4389 268.738 43.8444 270.568 42.2418C270.614 42.208 270.65 42.1618 270.671 42.1084C270.692 42.055 270.697 41.9967 270.687 41.9403C270.482 40.2227 270.287 38.5036 270.089 36.7852C269.999 35.9983 269.882 35.2134 269.824 34.4239C269.765 33.5105 269.987 32.6015 270.461 31.82C270.935 31.0385 271.637 30.4223 272.473 30.0549C273.123 29.7497 273.839 29.6116 274.556 29.6529C275.273 29.6943 275.969 29.9138 276.581 30.2917C278.677 31.523 280.756 32.7872 282.838 34.0362C282.89 34.073 282.95 34.0944 283.013 34.0979C283.076 34.1014 283.139 34.0868 283.194 34.0559C285.409 33.0336 287.625 32.0102 289.847 31.0021C290.92 30.532 292.134 30.5008 293.231 30.915C294.327 31.3293 295.22 32.1563 295.718 33.2198C296.16 34.1791 296.262 35.2606 296.007 36.2848C295.472 38.6166 294.948 40.951 294.416 43.2839C294.403 43.3257 294.402 43.3703 294.414 43.4126C294.425 43.4549 294.448 43.4931 294.48 43.5228C296.123 45.3088 297.768 47.0921 299.4 48.8881C300.199 49.7406 300.637 50.8711 300.62 52.0401C300.603 53.2092 300.133 54.3251 299.31 55.1515C299.103 55.3552 298.957 55.6125 298.887 55.8947C298.818 56.177 298.828 56.4731 298.917 56.7501C299.118 57.4994 299.318 58.2487 299.507 59.0014C299.893 60.5629 300.228 62.1356 300.497 63.7216C300.527 63.8892 300.524 64.0613 300.486 64.2273C300.448 64.3934 300.377 64.55 300.277 64.6875C300.177 64.8251 300.05 64.9407 299.904 65.0274C299.758 65.1141 299.595 65.17 299.427 65.1918C299.098 65.2315 298.767 65.1404 298.504 64.9382C298.241 64.7359 298.068 64.4385 298.021 64.1098C297.856 63.1441 297.656 62.1854 297.449 61.2278C297.114 59.6886 296.722 58.1635 296.285 56.6511C295.758 54.8232 295.237 52.9933 294.636 51.1876C294.504 50.7903 294.358 50.3971 294.222 50.0009C294.168 49.845 294.084 49.7011 293.975 49.5776C293.866 49.4541 293.734 49.3534 293.586 49.2811C293.438 49.2088 293.277 49.1665 293.113 49.1565C292.948 49.1464 292.784 49.169 292.629 49.2227C292.473 49.2764 292.33 49.3604 292.207 49.4697C292.084 49.579 291.984 49.7116 291.912 49.8599C291.84 50.0081 291.798 50.1692 291.788 50.3338C291.778 50.4984 291.801 50.6635 291.855 50.8194C292.341 52.1735 292.765 53.5471 293.172 54.9268C293.66 56.5781 294.142 58.2309 294.562 59.9007C294.647 60.2186 294.604 60.5571 294.443 60.8434C294.282 61.1297 294.015 61.3411 293.7 61.4321C293.385 61.5231 293.046 61.4865 292.757 61.3302C292.468 61.1739 292.252 60.9103 292.154 60.596C291.924 59.7722 291.712 58.9437 291.488 58.1182L291.407 57.8222Z" fill="#444444"/>
</g>
</g>
</g>
<defs>
<clipPath id="clip0_2267_168752">
<rect width="335" height="60" fill="white"/>
</clipPath>
<clipPath id="clip1_2267_168752">
<rect width="58" height="64" fill="white" transform="translate(18 37.0117) rotate(-15)"/>
</clipPath>
<clipPath id="clip2_2267_168752">
<rect width="58" height="64" fill="white" transform="translate(132 0.0117188) rotate(-15)"/>
</clipPath>
<clipPath id="clip3_2267_168752">
<rect width="58" height="64" fill="white" transform="translate(250 36.0117) rotate(-15)"/>
</clipPath>
</defs>
</svg>
