<svg width="24" height="25" viewBox="0 0 24 25" fill="none" xmlns="http://www.w3.org/2000/svg">
<path d="M15.999 22.505C15.8664 22.505 15.7393 22.4523 15.6455 22.3585C15.5517 22.2648 15.499 22.1376 15.499 22.005C15.499 21.8724 15.5517 21.7453 15.6455 21.6515C15.7393 21.5577 15.8664 21.505 15.999 21.505H19.999C20.3968 21.505 20.7788 21.3469 21.0601 21.0656C21.3414 20.7842 21.499 20.4028 21.499 20.005V16.005C21.499 15.8724 21.5517 15.7453 21.6455 15.6515C21.7393 15.5577 21.8664 15.505 21.999 15.505C22.1316 15.505 22.2593 15.5577 22.353 15.6515C22.4468 15.7453 22.499 15.8724 22.499 16.005V20.005C22.499 20.668 22.2359 21.3037 21.7671 21.7726C21.2982 22.2414 20.6621 22.505 19.999 22.505H15.999ZM3.99902 22.505C3.33598 22.505 2.70029 22.2414 2.23145 21.7726C1.7626 21.3037 1.49902 20.668 1.49902 20.005V16.005C1.49902 15.8724 1.55174 15.7453 1.64551 15.6515C1.73928 15.5577 1.86642 15.505 1.99902 15.505C2.13163 15.505 2.25926 15.5577 2.35303 15.6515C2.4468 15.7453 2.49902 15.8724 2.49902 16.005V20.005C2.49902 20.4028 2.65717 20.7842 2.93848 21.0656C3.21978 21.3469 3.6012 21.505 3.99902 21.505H7.99902C8.13163 21.505 8.25926 21.5577 8.35303 21.6515C8.4468 21.7453 8.49902 21.8724 8.49902 22.005C8.49902 22.1376 8.4468 22.2648 8.35303 22.3585C8.25926 22.4523 8.13163 22.505 7.99902 22.505H3.99902ZM17.748 16.005V8.005C17.748 7.8724 17.8008 7.74526 17.8945 7.65149C17.9883 7.55772 18.1154 7.505 18.248 7.505C18.3807 7.505 18.5083 7.55772 18.6021 7.65149C18.6958 7.74526 18.748 7.8724 18.748 8.005V16.005C18.748 16.1376 18.6958 16.2648 18.6021 16.3585C18.5083 16.4523 18.3807 16.505 18.248 16.505C18.1154 16.505 17.9883 16.4523 17.8945 16.3585C17.8008 16.2648 17.748 16.1376 17.748 16.005ZM15.248 16.005V8.005C15.248 7.8724 15.3008 7.74526 15.3945 7.65149C15.4883 7.55772 15.6154 7.505 15.748 7.505C15.8807 7.505 16.0083 7.55772 16.1021 7.65149C16.1958 7.74526 16.248 7.8724 16.248 8.005V16.005C16.248 16.1376 16.1958 16.2648 16.1021 16.3585C16.0083 16.4523 15.8807 16.505 15.748 16.505C15.6154 16.505 15.4883 16.4523 15.3945 16.3585C15.3008 16.2648 15.248 16.1376 15.248 16.005ZM13.748 16.005V8.005C13.748 7.8724 13.8008 7.74526 13.8945 7.65149C13.9883 7.55772 14.1154 7.505 14.248 7.505C14.3807 7.505 14.5083 7.55772 14.6021 7.65149C14.6958 7.74526 14.748 7.8724 14.748 8.005V16.005C14.748 16.1376 14.6958 16.2648 14.6021 16.3585C14.5083 16.4523 14.3807 16.505 14.248 16.505C14.1154 16.505 13.9883 16.4523 13.8945 16.3585C13.8008 16.2648 13.748 16.1376 13.748 16.005ZM11.248 16.005V8.005C11.248 7.8724 11.3008 7.74526 11.3945 7.65149C11.4883 7.55772 11.6154 7.505 11.748 7.505C11.8807 7.505 12.0083 7.55772 12.1021 7.65149C12.1958 7.74526 12.248 7.8724 12.248 8.005V16.005C12.248 16.1376 12.1958 16.2648 12.1021 16.3585C12.0083 16.4523 11.8807 16.505 11.748 16.505C11.6154 16.505 11.4883 16.4523 11.3945 16.3585C11.3008 16.2648 11.248 16.1376 11.248 16.005ZM9.74805 16.005V8.005C9.74805 7.8724 9.80076 7.74526 9.89453 7.65149C9.9883 7.55772 10.1154 7.505 10.248 7.505C10.3807 7.505 10.5083 7.55772 10.6021 7.65149C10.6958 7.74526 10.748 7.8724 10.748 8.005V16.005C10.748 16.1376 10.6958 16.2648 10.6021 16.3585C10.5083 16.4523 10.3807 16.505 10.248 16.505C10.1154 16.505 9.9883 16.4523 9.89453 16.3585C9.80076 16.2648 9.74805 16.1376 9.74805 16.005ZM8.24805 16.005V8.005C8.24805 7.8724 8.30076 7.74526 8.39453 7.65149C8.4883 7.55772 8.61544 7.505 8.74805 7.505C8.88066 7.505 9.00828 7.55772 9.10205 7.65149C9.19582 7.74526 9.24805 7.8724 9.24805 8.005V16.005C9.24805 16.1376 9.19582 16.2648 9.10205 16.3585C9.00828 16.4523 8.88066 16.505 8.74805 16.505C8.61544 16.505 8.4883 16.4523 8.39453 16.3585C8.30076 16.2648 8.24805 16.1376 8.24805 16.005ZM5.24805 16.005V8.005C5.24805 7.8724 5.30076 7.74526 5.39453 7.65149C5.4883 7.55772 5.61544 7.505 5.74805 7.505C5.88066 7.505 6.00828 7.55772 6.10205 7.65149C6.19582 7.74526 6.24805 7.8724 6.24805 8.005V16.005C6.24805 16.1376 6.19582 16.2648 6.10205 16.3585C6.00828 16.4523 5.88066 16.505 5.74805 16.505C5.61544 16.505 5.4883 16.4523 5.39453 16.3585C5.30076 16.2648 5.24805 16.1376 5.24805 16.005ZM21.498 8.005V4.005C21.498 3.60718 21.3404 3.22576 21.0591 2.94446C20.7778 2.66315 20.3959 2.505 19.998 2.505H15.998C15.8654 2.505 15.7383 2.45229 15.6445 2.35852C15.5508 2.26475 15.498 2.13761 15.498 2.005C15.498 1.8724 15.5508 1.74526 15.6445 1.65149C15.7383 1.55772 15.8654 1.505 15.998 1.505H19.998C20.6611 1.505 21.2973 1.7681 21.7661 2.23694C22.235 2.70578 22.498 3.34196 22.498 4.005V8.005C22.498 8.13761 22.4458 8.26475 22.3521 8.35852C22.2583 8.45229 22.1307 8.505 21.998 8.505C21.8654 8.505 21.7383 8.45229 21.6445 8.35852C21.5508 8.26475 21.498 8.13761 21.498 8.005ZM1.49805 8.005V4.005C1.49805 3.34196 1.76163 2.70578 2.23047 2.23694C2.69931 1.7681 3.33501 1.505 3.99805 1.505H7.99805C8.13066 1.505 8.25828 1.55772 8.35205 1.65149C8.44582 1.74526 8.49805 1.8724 8.49805 2.005C8.49805 2.13761 8.44582 2.26475 8.35205 2.35852C8.25828 2.45229 8.13066 2.505 7.99805 2.505H3.99805C3.60022 2.505 3.2188 2.66315 2.9375 2.94446C2.6562 3.22576 2.49805 3.60718 2.49805 4.005V8.005C2.49805 8.13761 2.44582 8.26475 2.35205 8.35852C2.25828 8.45229 2.13066 8.505 1.99805 8.505C1.86544 8.505 1.7383 8.45229 1.64453 8.35852C1.55076 8.26475 1.49805 8.13761 1.49805 8.005Z" fill="white"/>
</svg>
