<svg width="24" height="24" viewBox="0 0 24 24" fill="none" xmlns="http://www.w3.org/2000/svg">
<path d="M13.772 14.138C13.76 13.518 13.729 12.8983 13.679 12.279C13.6019 11.2536 13.4559 10.2347 13.242 9.22895C12.9697 7.99351 12.4481 6.82668 11.709 5.79995C11.6645 5.73485 11.606 5.68056 11.5378 5.64106C11.4696 5.60156 11.3934 5.57787 11.3148 5.57173C11.2362 5.56558 11.1573 5.57715 11.0837 5.60557C11.0102 5.634 10.944 5.67855 10.89 5.73595C10.2793 6.35929 9.66832 6.98062 9.05698 7.59995C9.00642 7.64765 8.96583 7.70491 8.93758 7.76842C8.90932 7.83193 8.89395 7.90041 8.89237 7.9699C8.89079 8.03939 8.90303 8.1085 8.92836 8.17323C8.9537 8.23796 8.99164 8.29701 9.03998 8.34695C9.44877 8.79689 9.81282 9.28552 10.127 9.80595C10.6304 10.6504 11.0185 11.5585 11.281 12.506C11.4787 13.2135 11.6254 13.9344 11.72 14.663C11.8068 15.3145 11.8402 15.972 11.82 16.629C11.8024 17.1987 11.7469 17.7666 11.654 18.329C11.6462 18.3932 11.6255 18.4553 11.5932 18.5114C11.5608 18.5675 11.5175 18.6165 11.4657 18.6554C11.414 18.6944 11.3549 18.7225 11.2921 18.7381C11.2292 18.7536 11.1638 18.7563 11.0999 18.746C11.036 18.7357 10.9748 18.7126 10.92 18.6781C10.8652 18.6435 10.818 18.5983 10.7811 18.5451C10.7442 18.4918 10.7185 18.4317 10.7054 18.3683C10.6923 18.3048 10.6922 18.2394 10.705 18.176C10.8189 17.4893 10.8711 16.7939 10.861 16.098C10.8484 15.4191 10.7775 14.7426 10.649 14.076C10.5357 13.4529 10.3684 12.841 10.149 12.247C10.1106 12.1082 10.0213 11.9889 9.89898 11.913C9.81225 11.8648 9.71269 11.8447 9.61406 11.8555C9.51543 11.8664 9.4226 11.9076 9.34839 11.9734C9.27418 12.0393 9.22225 12.1266 9.19979 12.2232C9.17733 12.3199 9.18543 12.4211 9.22298 12.513C9.39586 12.9536 9.53428 13.4069 9.63698 13.869C9.72866 14.2843 9.79545 14.7047 9.83698 15.128C9.86498 15.403 9.88398 15.679 9.89098 15.956C9.89804 15.9997 9.8932 16.0445 9.87698 16.0857C9.86076 16.127 9.83375 16.1631 9.79878 16.1903C9.76381 16.2175 9.72217 16.2348 9.67822 16.2403C9.63427 16.2459 9.58964 16.2396 9.54898 16.222C9.30332 16.1669 9.06734 16.0752 8.84898 15.95C8.63617 15.8191 8.45525 15.6424 8.31944 15.4327C8.18363 15.223 8.09636 14.9857 8.06398 14.738C7.97098 14.117 7.88398 13.495 7.79398 12.872C7.75098 12.572 7.70698 12.272 7.66698 11.972C7.66554 11.952 7.65848 11.9329 7.64662 11.9168C7.63477 11.9007 7.6186 11.8883 7.59998 11.881C6.77498 11.468 5.94998 11.057 5.12698 10.639C4.87782 10.5193 4.66198 10.3401 4.49855 10.1172C4.33512 9.89431 4.22914 9.63456 4.18998 9.36095C4.12958 9.00319 4.18523 8.63549 4.34878 8.31163C4.51234 7.98776 4.77522 7.72471 5.09898 7.56095C5.93198 7.14695 6.76998 6.73995 7.60598 6.32995C7.62666 6.32208 7.64468 6.30851 7.65796 6.29081C7.67123 6.27311 7.67922 6.25201 7.68098 6.22995C7.77498 5.57595 7.87298 4.92295 7.97098 4.26995C8.01498 3.96995 8.04998 3.66995 8.10598 3.36995C8.17466 3.02732 8.34725 2.71418 8.60027 2.47316C8.85328 2.23213 9.17443 2.07493 9.51998 2.02295C9.79129 1.97385 10.0706 1.99322 10.3325 2.0793C10.5944 2.16539 10.8307 2.31547 11.02 2.51595C11.674 3.17695 12.32 3.84795 12.965 4.51595C12.98 4.53491 13.0001 4.54907 13.0231 4.55671C13.046 4.56435 13.0706 4.56513 13.094 4.55895C14.015 4.40095 14.936 4.24195 15.859 4.08995C16.3027 4.02252 16.7552 4.13118 17.1199 4.39274C17.4846 4.65431 17.7326 5.04806 17.811 5.48995C17.8783 5.88779 17.8077 6.29668 17.611 6.64895C17.182 7.45595 16.757 8.26495 16.329 9.07295C16.3188 9.08765 16.3134 9.10509 16.3134 9.12295C16.3134 9.14082 16.3188 9.15826 16.329 9.17295C16.759 9.99395 17.191 10.814 17.617 11.638C17.8276 12.0313 17.8771 12.491 17.755 12.9202C17.633 13.3493 17.349 13.7143 16.963 13.938C16.8672 13.9931 16.7884 14.0736 16.7355 14.1707C16.6826 14.2677 16.6575 14.3775 16.663 14.488C16.663 14.788 16.663 15.081 16.663 15.377C16.651 15.992 16.619 16.605 16.563 17.216C16.5588 17.2805 16.5417 17.3435 16.5126 17.4012C16.4835 17.459 16.443 17.5102 16.3936 17.5519C16.3442 17.5936 16.2868 17.6249 16.225 17.6439C16.1632 17.6629 16.0982 17.6692 16.0339 17.6625C15.9696 17.6558 15.9074 17.6361 15.8508 17.6047C15.7943 17.5733 15.7447 17.5308 15.705 17.4797C15.6654 17.4287 15.6364 17.3702 15.6199 17.3077C15.6034 17.2451 15.5997 17.1799 15.609 17.116C15.643 16.743 15.665 16.37 15.683 15.996C15.711 15.396 15.717 14.796 15.706 14.196C15.692 13.47 15.681 12.743 15.637 12.018C15.628 11.858 15.613 11.699 15.602 11.539C15.5997 11.4745 15.5844 11.4113 15.5571 11.3529C15.5298 11.2945 15.491 11.2422 15.4431 11.1992C15.3951 11.1561 15.339 11.1231 15.2781 11.1022C15.2171 11.0813 15.1526 11.0728 15.0883 11.0774C15.024 11.082 14.9613 11.0995 14.9039 11.1288C14.8465 11.1581 14.7956 11.1987 14.7542 11.2481C14.7129 11.2975 14.6819 11.3548 14.6631 11.4164C14.6443 11.4781 14.6382 11.5429 14.645 11.607C14.69 12.154 14.711 12.707 14.725 13.252C14.742 13.909 14.756 14.567 14.746 15.224C14.7485 15.3513 14.7003 15.4743 14.6121 15.5661C14.5239 15.6579 14.4028 15.7109 14.2755 15.7135C14.1482 15.716 14.0251 15.6678 13.9333 15.5796C13.8415 15.4913 13.7885 15.3703 13.786 15.243C13.786 14.917 13.786 14.59 13.786 14.263L13.772 14.138Z" fill="white"/>
<path d="M14.616 16.6309C14.584 16.9869 14.559 17.3749 14.516 17.7609C14.446 18.392 14.3311 19.0173 14.172 19.6319C14.1584 19.6951 14.1321 19.7549 14.0947 19.8077C14.0574 19.8605 14.0098 19.9051 13.9547 19.939C13.8996 19.9729 13.8383 19.9953 13.7743 20.0048C13.7104 20.0143 13.6452 20.0108 13.5826 19.9945C13.5201 19.9781 13.4615 19.9493 13.4104 19.9097C13.3593 19.8701 13.3167 19.8205 13.2852 19.7641C13.2538 19.7076 13.2341 19.6453 13.2273 19.581C13.2206 19.5167 13.2269 19.4517 13.246 19.3899C13.3994 18.8095 13.5074 18.2181 13.569 17.6209C13.609 17.2559 13.628 16.8889 13.669 16.5209C13.6735 16.4575 13.6909 16.3957 13.7201 16.3393C13.7493 16.2828 13.7897 16.2329 13.8388 16.1926C13.888 16.1523 13.9448 16.1224 14.0058 16.1047C14.0669 16.0871 14.1309 16.082 14.194 16.0899C14.3216 16.1059 14.4377 16.1718 14.5168 16.2732C14.5959 16.3747 14.6315 16.5033 14.616 16.6309V16.6309Z" fill="#444444"/>
<path d="M21.214 8.10791C21.7896 9.4726 22.0548 10.9481 21.9906 12.4278C21.9263 13.9075 21.5342 15.3545 20.8425 16.6642C20.1508 17.9738 19.1769 19.1135 17.991 20.0008C16.8051 20.8881 15.4369 21.501 13.9853 21.795C12.5337 22.0891 11.0348 22.057 9.59714 21.7011C8.15943 21.3452 6.81872 20.6744 5.67189 19.7371C4.52506 18.7999 3.60075 17.6196 2.96574 16.2815C2.33072 14.9434 2.00087 13.481 2 11.9999" stroke="white" stroke-linecap="round" stroke-linejoin="round"/>
</svg>
