<svg width="24" height="25" viewBox="0 0 24 25" fill="none" xmlns="http://www.w3.org/2000/svg">
<path d="M2.99805 19.5037C2.60022 19.5037 2.2188 19.3455 1.9375 19.0642C1.6562 18.7829 1.49805 18.4015 1.49805 18.0037V10.0037C1.49805 9.60587 1.6562 9.22445 1.9375 8.94314C2.2188 8.66184 2.60022 8.50369 2.99805 8.50369H14.2983C14.4309 8.50369 14.5581 8.55641 14.6519 8.65017C14.7456 8.74394 14.7983 8.87108 14.7983 9.00369C14.7983 9.1363 14.7456 9.26344 14.6519 9.35721C14.5581 9.45097 14.4309 9.50369 14.2983 9.50369H12.5762L10.144 13.7605C10.1003 13.8371 10.0376 13.9008 9.96143 13.9451C9.88521 13.9894 9.79858 14.0125 9.71045 14.0125C9.62296 14.0127 9.53697 13.9897 9.46143 13.9456C9.40436 13.9131 9.35425 13.8695 9.31396 13.8177C9.27368 13.7658 9.24393 13.7067 9.22656 13.6433C9.2092 13.58 9.20421 13.5137 9.2124 13.4485C9.2206 13.3834 9.24191 13.3205 9.27441 13.2635L11.4243 9.50369H2.99609C2.86349 9.50369 2.73635 9.55641 2.64258 9.65017C2.54881 9.74394 2.49609 9.87108 2.49609 10.0037V18.0037C2.49609 18.1363 2.54881 18.2634 2.64258 18.3572C2.73635 18.451 2.86349 18.5037 2.99609 18.5037L16.9961 18.5095L18.2671 16.3035C18.2983 16.2437 18.3414 16.1909 18.3936 16.1482C18.4458 16.1055 18.506 16.0737 18.5708 16.055C18.6356 16.0362 18.7036 16.0307 18.7705 16.0388C18.8375 16.047 18.9021 16.0686 18.9604 16.1023C19.0188 16.1361 19.0699 16.1812 19.1104 16.2351C19.1508 16.2891 19.1798 16.3508 19.1958 16.4163C19.2118 16.4818 19.2146 16.5499 19.2036 16.6165C19.1927 16.683 19.1685 16.7466 19.1323 16.8035L18.1494 18.5095H20.9951C21.1277 18.5095 21.2549 18.4568 21.3486 18.3631C21.4424 18.2693 21.4951 18.1422 21.4951 18.0095V13.2698C21.4951 13.1372 21.5478 13.0096 21.6416 12.9158C21.7354 12.822 21.8625 12.7698 21.9951 12.7698C22.1277 12.7698 22.2549 12.822 22.3486 12.9158C22.4424 13.0096 22.4951 13.1372 22.4951 13.2698V18.0095C22.4951 18.4074 22.3375 18.7888 22.0562 19.0701C21.7748 19.3514 21.3929 19.5095 20.9951 19.5095L2.99805 19.5037ZM4.79834 15.2605V15.0037C4.80534 14.0257 4.81839 12.3876 4.04639 11.6136L4.75244 10.9055C5.82244 11.9755 5.80834 13.8766 5.79834 15.0056V15.2556L4.79834 15.2605ZM20.5732 9.27469L19.7471 7.95242L18.9214 9.27469C18.8479 9.3796 18.7368 9.45226 18.6113 9.47781C18.4858 9.50337 18.3552 9.47973 18.2466 9.41189C18.138 9.34405 18.0599 9.23705 18.0278 9.11306C17.9957 8.98908 18.0122 8.85742 18.0742 8.74539L18.8462 7.51053H17.4971C17.3645 7.51053 17.2373 7.45781 17.1436 7.36404C17.0498 7.27027 16.9971 7.14313 16.9971 7.01053C16.9971 6.87792 17.0498 6.75078 17.1436 6.65701C17.2373 6.56324 17.3645 6.51053 17.4971 6.51053H18.8472L18.0742 5.27371C18.0346 5.21812 18.007 5.15491 17.9927 5.08816C17.9784 5.02142 17.9778 4.95246 17.9912 4.88553C18.0046 4.81859 18.0315 4.75514 18.0703 4.699C18.1091 4.64287 18.1589 4.59498 18.2168 4.55887C18.2747 4.52276 18.3397 4.49919 18.4072 4.48904C18.4747 4.47889 18.5434 4.4828 18.6094 4.50027C18.6754 4.51774 18.7369 4.54838 18.7905 4.5906C18.8442 4.63283 18.8889 4.68535 18.9214 4.74539L19.7471 6.06765L20.5732 4.74539C20.6446 4.63571 20.7561 4.55846 20.8838 4.53006C21.0115 4.50165 21.1452 4.52443 21.2563 4.59353C21.3675 4.66263 21.447 4.77257 21.478 4.89969C21.509 5.0268 21.4892 5.16121 21.4224 5.27371L20.6494 6.51053H21.9971C22.1297 6.51053 22.2573 6.56324 22.3511 6.65701C22.4448 6.75078 22.4971 6.87792 22.4971 7.01053C22.4971 7.14313 22.4448 7.27027 22.3511 7.36404C22.2573 7.45781 22.1297 7.51053 21.9971 7.51053H20.6494L21.4214 8.74539C21.491 8.85767 21.5132 8.99312 21.4834 9.12185C21.4536 9.25058 21.3741 9.36213 21.2622 9.4324C21.1832 9.48328 21.0911 9.51048 20.9971 9.51053C20.9121 9.50993 20.8289 9.48789 20.7549 9.44607C20.6809 9.40425 20.6186 9.34427 20.5742 9.27176L20.5732 9.27469Z" fill="white"/>
</svg>
