<svg width="25" height="24" viewBox="0 0 25 24" fill="none" xmlns="http://www.w3.org/2000/svg">
<path d="M22.4869 1.56283C21.1588 0.2347 19.2839 0.0263672 17.0573 0.0263672H6.91407C4.72656 0.0263672 2.85156 0.2347 1.52344 1.56283C0.195312 2.89095 0 4.75293 0 6.92741V16.9795C0 19.2061 0.195312 21.055 1.52344 22.3831C2.85156 23.7113 4.72656 23.9197 6.94011 23.9197H17.0573C19.2839 23.9197 21.1588 23.7113 22.4869 22.3831C23.8151 21.055 24.0104 19.2061 24.0104 16.9795V6.96647C24.0104 4.73991 23.8151 2.87793 22.4869 1.56283ZM21.914 6.60189V17.331C21.914 18.6853 21.7448 20.0654 20.9505 20.8597C20.1693 21.641 18.7631 21.8233 17.4219 21.8233H6.58855C5.2474 21.8233 3.84115 21.641 3.04688 20.8597C2.26563 20.0654 2.09636 18.6853 2.09636 17.331V6.64095C2.09636 5.27377 2.26563 3.86751 3.04688 3.08626C3.84115 2.29199 5.26041 2.12273 6.6276 2.12273H17.4219C18.7631 2.12273 20.1693 2.30502 20.9505 3.08626C21.7448 3.88054 21.914 5.26074 21.914 6.60189ZM5.97656 11.9534C5.97656 12.5915 6.43229 13.0212 7.09636 13.0212H10.9245V16.8623C10.9245 17.5134 11.3542 17.9691 11.9922 17.9691C12.6432 17.9691 13.099 17.5263 13.099 16.8623V13.0212H16.9401C17.5912 13.0212 18.0469 12.5915 18.0469 11.9534C18.0469 11.3024 17.5912 10.8467 16.9401 10.8467H13.099V7.01855C13.099 6.35449 12.6432 5.89877 11.9922 5.89877C11.3542 5.89877 10.9245 6.35449 10.9245 7.01855V10.8467H7.09636C6.41927 10.8467 5.97656 11.3024 5.97656 11.9534Z" fill="white"/>
</svg>
