<svg width="24" height="25" viewBox="0 0 24 25" fill="none" xmlns="http://www.w3.org/2000/svg">
<path d="M2.99805 19.6075C2.60022 19.6075 2.2188 19.4494 1.9375 19.1681C1.6562 18.8868 1.49805 18.5054 1.49805 18.1075V10.1075C1.49805 9.70972 1.6562 9.3283 1.9375 9.047C2.2188 8.76569 2.60022 8.60754 2.99805 8.60754H12.2461C12.2737 8.6051 12.3015 8.6051 12.3291 8.60754H14.2993C14.4319 8.60754 14.5591 8.66026 14.6528 8.75403C14.7466 8.8478 14.7993 8.97494 14.7993 9.10754C14.7993 9.24015 14.7466 9.36729 14.6528 9.46106C14.5591 9.55483 14.4319 9.60754 14.2993 9.60754H12.5762L10.1455 13.8605C10.1018 13.937 10.0386 14.0008 9.9624 14.045C9.88619 14.0893 9.79956 14.1124 9.71143 14.1124C9.62411 14.1134 9.53811 14.091 9.4624 14.0475C9.40534 14.015 9.35522 13.9714 9.31494 13.9196C9.27466 13.8677 9.2449 13.8086 9.22754 13.7452C9.21017 13.6819 9.20567 13.6156 9.21387 13.5504C9.22206 13.4853 9.24288 13.4224 9.27539 13.3654L11.4243 9.60754H2.99707C2.86446 9.60754 2.73732 9.66026 2.64355 9.75403C2.54979 9.8478 2.49707 9.97494 2.49707 10.1075V18.1075C2.49707 18.2402 2.54979 18.3673 2.64355 18.4611C2.73732 18.5548 2.86446 18.6075 2.99707 18.6075H16.9971L18.2671 16.4073C18.2983 16.3476 18.3414 16.2948 18.3936 16.2521C18.4458 16.2094 18.506 16.1776 18.5708 16.1588C18.6356 16.14 18.7036 16.1346 18.7705 16.1427C18.8375 16.1508 18.9021 16.1724 18.9604 16.2062C19.0188 16.2399 19.0699 16.285 19.1104 16.339C19.1508 16.3929 19.1798 16.4546 19.1958 16.5201C19.2118 16.5856 19.2146 16.6538 19.2036 16.7203C19.1927 16.7869 19.1685 16.8504 19.1323 16.9073L18.1504 18.6124H20.9951C21.1277 18.6124 21.2549 18.5597 21.3486 18.4659C21.4424 18.3722 21.4951 18.245 21.4951 18.1124V13.3785C21.4951 13.2459 21.5478 13.1188 21.6416 13.025C21.7354 12.9313 21.8625 12.8785 21.9951 12.8785C22.1277 12.8785 22.2549 12.9313 22.3486 13.025C22.4424 13.1188 22.4951 13.2459 22.4951 13.3785V18.1124C22.4951 18.5103 22.3375 18.8917 22.0562 19.173C21.7748 19.4543 21.3929 19.6124 20.9951 19.6124L2.99805 19.6075ZM4.79834 15.3624V15.1056C4.80534 14.1276 4.81839 12.4894 4.04639 11.7164L4.75244 11.0094C5.82244 12.0774 5.80834 13.9785 5.79834 15.1095V15.3595L4.79834 15.3624ZM19.498 9.11047V7.61047H17.998C17.8654 7.61047 17.7383 7.55776 17.6445 7.46399C17.5508 7.37022 17.498 7.24308 17.498 7.11047C17.498 6.97787 17.5508 6.85073 17.6445 6.75696C17.7383 6.66319 17.8654 6.61047 17.998 6.61047H19.498V5.11047C19.498 4.97787 19.5508 4.85073 19.6445 4.75696C19.7383 4.66319 19.8654 4.61047 19.998 4.61047C20.1307 4.61047 20.2583 4.66319 20.3521 4.75696C20.4458 4.85073 20.498 4.97787 20.498 5.11047V6.61047H21.998C22.1307 6.61047 22.2583 6.66319 22.3521 6.75696C22.4458 6.85073 22.498 6.97787 22.498 7.11047C22.498 7.24308 22.4458 7.37022 22.3521 7.46399C22.2583 7.55776 22.1307 7.61047 21.998 7.61047H20.498V9.11047C20.498 9.24308 20.4458 9.37022 20.3521 9.46399C20.2583 9.55776 20.1307 9.61047 19.998 9.61047C19.8654 9.61047 19.7383 9.55776 19.6445 9.46399C19.5508 9.37022 19.498 9.24308 19.498 9.11047Z" fill="white"/>
</svg>
