<svg width="24" height="25" viewBox="0 0 24 25" fill="none" xmlns="http://www.w3.org/2000/svg">
<path d="M1.49805 12.0051C1.49805 9.92836 2.11431 7.89829 3.26807 6.17157C4.42182 4.44485 6.06136 3.0991 7.97998 2.30438C9.8986 1.50966 12.0101 1.30158 14.0469 1.70673C16.0837 2.11187 17.9544 3.11181 19.4229 4.58026C20.8913 6.04871 21.8912 7.91993 22.2964 9.95673C22.7015 11.9935 22.4939 14.1045 21.6992 16.0231C20.9045 17.9418 19.5583 19.5818 17.8315 20.7355C16.1048 21.8893 14.0748 22.5051 11.998 22.5051C9.21425 22.5019 6.54559 21.3944 4.57715 19.426C2.6087 17.4575 1.50122 14.7889 1.49805 12.0051ZM2.49805 12.0051C2.49805 13.884 3.05525 15.7206 4.09912 17.2829C5.14299 18.8452 6.62689 20.0629 8.36279 20.7819C10.0987 21.501 12.0087 21.689 13.8516 21.3224C15.6944 20.9559 17.3872 20.0509 18.7158 18.7224C20.0444 17.3938 20.9494 15.7009 21.3159 13.8581C21.6825 12.0153 21.4939 10.1052 20.7749 8.36932C20.0559 6.63343 18.8386 5.15001 17.2764 4.10614C15.7141 3.06227 13.877 2.50507 11.998 2.50507C9.47964 2.50851 7.06585 3.51032 5.28516 5.2912C3.50446 7.07208 2.50269 9.48666 2.49951 12.0051H2.49805ZM11.498 16.0051V12.5051H7.99805C7.86544 12.5051 7.7383 12.4523 7.64453 12.3586C7.55076 12.2648 7.49805 12.1377 7.49805 12.0051C7.49805 11.8725 7.55076 11.7453 7.64453 11.6516C7.7383 11.5578 7.86544 11.5051 7.99805 11.5051H11.498V8.00507C11.498 7.87246 11.5508 7.74532 11.6445 7.65155C11.7383 7.55778 11.8654 7.50507 11.998 7.50507C12.1307 7.50507 12.2583 7.55778 12.3521 7.65155C12.4458 7.74532 12.498 7.87246 12.498 8.00507V11.5051H15.998C16.1307 11.5051 16.2583 11.5578 16.3521 11.6516C16.4458 11.7453 16.498 11.8725 16.498 12.0051C16.498 12.1377 16.4458 12.2648 16.3521 12.3586C16.2583 12.4523 16.1307 12.5051 15.998 12.5051H12.498V16.0051C12.498 16.1377 12.4458 16.2648 12.3521 16.3586C12.2583 16.4523 12.1307 16.5051 11.998 16.5051C11.8654 16.5051 11.7383 16.4523 11.6445 16.3586C11.5508 16.2648 11.498 16.1377 11.498 16.0051Z" fill="white"/>
</svg>
