<svg width="24" height="25" viewBox="0 0 24 25" fill="none" xmlns="http://www.w3.org/2000/svg">
<path d="M11.4995 22.006V20.2838H9.80664C9.67403 20.2838 9.54689 20.2311 9.45312 20.1373C9.35936 20.0436 9.30664 19.9164 9.30664 19.7838C9.30664 19.6512 9.35936 19.5241 9.45312 19.4303C9.54689 19.3365 9.67403 19.2838 9.80664 19.2838H11.4995V17.5607C11.4995 17.4281 11.5522 17.3009 11.646 17.2072C11.7398 17.1134 11.8669 17.0607 11.9995 17.0607C12.1321 17.0607 12.2597 17.1134 12.3535 17.2072C12.4473 17.3009 12.4995 17.4281 12.4995 17.5607V19.2838H14.1948C14.3274 19.2838 14.4546 19.3365 14.5483 19.4303C14.6421 19.5241 14.6948 19.6512 14.6948 19.7838C14.6948 19.9164 14.6421 20.0436 14.5483 20.1373C14.4546 20.2311 14.3274 20.2838 14.1948 20.2838H12.4995V22.006C12.4995 22.1386 12.4473 22.2657 12.3535 22.3595C12.2597 22.4533 12.1321 22.506 11.9995 22.506C11.8669 22.506 11.7398 22.4533 11.646 22.3595C11.5522 22.2657 11.4995 22.1386 11.4995 22.006ZM18.2876 20.2867C18.1552 20.2831 18.0296 20.2272 17.9385 20.131C17.8474 20.0348 17.7983 19.9065 17.8018 19.774C17.815 19.6449 17.8737 19.5247 17.9678 19.4352C18.0619 19.3457 18.1853 19.2925 18.3149 19.2858C18.6209 19.2925 18.9171 19.1784 19.1392 18.9679C19.3613 18.7574 19.4913 18.4676 19.501 18.1617C19.4842 17.5587 19.3481 16.9652 19.1016 16.4147C18.855 15.8641 18.5027 15.3673 18.064 14.9532C17.6253 14.5392 17.1093 14.216 16.5454 14.0016C15.9816 13.7872 15.3808 13.6858 14.7778 13.7037H9.23779C8.63247 13.6867 8.02959 13.7895 7.46387 14.0055C6.89814 14.2215 6.38084 14.5469 5.94092 14.963C5.501 15.3792 5.14698 15.8779 4.8999 16.4308C4.65283 16.9837 4.51755 17.5794 4.50098 18.1847C4.52138 18.4851 4.65541 18.7668 4.87646 18.9713C5.09752 19.1758 5.38882 19.2878 5.68994 19.2848C5.7556 19.2833 5.8206 19.2947 5.88184 19.3185C5.94308 19.3422 5.99938 19.3776 6.04688 19.423C6.09437 19.4683 6.13217 19.523 6.15869 19.5831C6.18521 19.6432 6.19966 19.7079 6.20117 19.7736C6.20268 19.8392 6.19121 19.9042 6.16748 19.9655C6.14375 20.0267 6.10835 20.083 6.06299 20.1305C6.01763 20.178 5.96341 20.2158 5.90332 20.2423C5.84324 20.2688 5.77855 20.2833 5.71289 20.2848C5.14216 20.2961 4.58968 20.0822 4.17578 19.6891C3.76188 19.296 3.52 18.7552 3.50195 18.1847C3.54464 16.698 4.17244 15.2885 5.24902 14.2623C6.32561 13.2361 7.76393 12.6762 9.25098 12.7047H14.7637C16.2464 12.674 17.6812 13.2305 18.7559 14.2526C19.8305 15.2746 20.4582 16.6794 20.502 18.1617C20.492 18.7274 20.2608 19.2669 19.8579 19.6642C19.4551 20.0614 18.9124 20.2847 18.3467 20.2867H18.2876ZM7.50098 7.20667V6.00696C7.50098 4.81348 7.97493 3.66874 8.81885 2.82483C9.66276 1.98092 10.8075 1.50696 12.001 1.50696C13.1945 1.50696 14.3387 1.98092 15.1826 2.82483C16.0265 3.66874 16.501 4.81348 16.501 6.00696V7.20667C16.501 8.40014 16.0265 9.54488 15.1826 10.3888C14.3387 11.2327 13.1945 11.7067 12.001 11.7067C10.8075 11.7067 9.66276 11.2327 8.81885 10.3888C7.97493 9.54488 7.50098 8.40014 7.50098 7.20667V7.20667ZM8.50098 6.00696V7.20667C8.50098 8.13492 8.8695 9.02539 9.52588 9.68176C10.1823 10.3381 11.0727 10.7067 12.001 10.7067C12.9292 10.7067 13.8192 10.3381 14.4756 9.68176C15.132 9.02539 15.501 8.13492 15.501 7.20667V6.00696C15.501 5.0787 15.132 4.18824 14.4756 3.53186C13.8192 2.87548 12.9292 2.50696 12.001 2.50696C11.0727 2.50696 10.1823 2.87548 9.52588 3.53186C8.8695 4.18824 8.50098 5.0787 8.50098 6.00696Z" fill="white"/>
</svg>
