<svg width="24" height="25" viewBox="0 0 24 25" fill="none" xmlns="http://www.w3.org/2000/svg">
<path d="M1.49805 12.0051C1.49805 9.92836 2.11431 7.89829 3.26807 6.17157C4.42182 4.44485 6.06136 3.0991 7.97998 2.30438C9.8986 1.50966 12.0101 1.30158 14.0469 1.70673C16.0837 2.11187 17.9544 3.11181 19.4229 4.58026C20.8913 6.04871 21.8912 7.91993 22.2964 9.95673C22.7015 11.9935 22.4939 14.1045 21.6992 16.0231C20.9045 17.9418 19.5583 19.5818 17.8315 20.7355C16.1048 21.8893 14.0748 22.5051 11.998 22.5051C9.21425 22.5019 6.54559 21.3944 4.57715 19.426C2.6087 17.4575 1.50122 14.7889 1.49805 12.0051ZM2.49805 12.0051C2.49805 13.884 3.05525 15.7206 4.09912 17.2829C5.14299 18.8452 6.62689 20.0629 8.36279 20.7819C10.0987 21.501 12.0087 21.689 13.8516 21.3224C15.6944 20.9559 17.3872 20.0509 18.7158 18.7224C20.0444 17.3938 20.9494 15.7009 21.3159 13.8581C21.6825 12.0153 21.4939 10.1052 20.7749 8.36932C20.0559 6.63343 18.8386 5.15001 17.2764 4.10614C15.7141 3.06227 13.877 2.50507 11.998 2.50507C9.47964 2.50851 7.06585 3.51032 5.28516 5.2912C3.50446 7.07208 2.50269 9.48666 2.49951 12.0051H2.49805ZM6.49805 17.0051C6.40008 17.0053 6.30452 16.9768 6.22266 16.923C6.14079 16.8692 6.07627 16.7923 6.0376 16.7023C5.99893 16.6123 5.98755 16.5131 6.00488 16.4167C6.02222 16.3203 6.06766 16.2308 6.13525 16.1599C7.00225 15.2459 7.83549 14.2769 8.60449 13.2819C10.0504 11.4063 11.333 9.41051 12.4385 7.3161C12.6264 6.9308 12.9165 6.60463 13.2773 6.37323C13.6382 6.14183 14.0558 6.01409 14.4844 6.00409H16.498C16.5734 6.00395 16.6479 6.02075 16.7158 6.05341C16.7837 6.08606 16.8437 6.13362 16.8906 6.19257C16.9376 6.25151 16.9702 6.32025 16.9868 6.39374C17.0034 6.46723 17.0034 6.54349 16.9863 6.61688L14.6792 16.6169C14.6538 16.7273 14.5916 16.8257 14.5029 16.8962C14.4143 16.9667 14.3047 17.0052 14.1914 17.0051H6.49805ZM13.3311 7.76679C12.1964 9.91711 10.88 11.9663 9.39551 13.8918C8.83684 14.6138 8.25054 15.3184 7.63721 16.0051H13.7935L15.8701 7.00507H14.4971C14.2514 7.01303 14.0131 7.08855 13.8076 7.22333C13.6021 7.35811 13.4377 7.54661 13.3325 7.76874L13.3311 7.76679Z" fill="white"/>
</svg>
