<svg width="24" height="25" viewBox="0 0 24 25" fill="none" xmlns="http://www.w3.org/2000/svg">
<path d="M5.00195 22.5045C4.33891 22.5045 3.70273 22.2409 3.23389 21.7721C2.76505 21.3033 2.50195 20.6676 2.50195 20.0045V8.00452C2.50195 7.34148 2.76505 6.70529 3.23389 6.23645C3.70273 5.76761 4.33891 5.50452 5.00195 5.50452H7.52783C7.63977 4.50604 8.08321 3.57401 8.7876 2.85754C8.8073 2.83399 8.82899 2.8123 8.85254 2.7926C9.69272 1.96618 10.8244 1.50305 12.0029 1.50305C13.1814 1.50305 14.3126 1.96618 15.1528 2.7926C15.1641 2.80196 15.1745 2.81176 15.1846 2.82239C15.1945 2.83213 15.2042 2.84273 15.2129 2.85364C15.9189 3.57077 16.3631 4.50433 16.4746 5.50452H19.0029C19.666 5.50452 20.3017 5.76761 20.7705 6.23645C21.2393 6.70529 21.5029 7.34148 21.5029 8.00452V20.0045C21.5029 20.6676 21.2393 21.3033 20.7705 21.7721C20.3017 22.2409 19.666 22.5045 19.0029 22.5045H5.00195ZM3.50195 8.00452V20.0045C3.50195 20.4023 3.65961 20.7838 3.94092 21.0651C4.22222 21.3464 4.60413 21.5045 5.00195 21.5045H19.002C19.3998 21.5045 19.7812 21.3464 20.0625 21.0651C20.3438 20.7838 20.502 20.4023 20.502 20.0045V8.00452C20.502 7.60669 20.3438 7.22527 20.0625 6.94397C19.7812 6.66267 19.3998 6.50452 19.002 6.50452H16.4736C16.3514 7.60521 15.8276 8.62186 15.0024 9.36047C14.1773 10.0991 13.1089 10.5074 12.0015 10.5074C10.894 10.5074 9.82519 10.0991 9 9.36047C8.17481 8.62186 7.65106 7.60521 7.52881 6.50452H5.00293C4.6051 6.50452 4.2232 6.66267 3.94189 6.94397C3.66059 7.22527 3.50293 7.60669 3.50293 8.00452H3.50195ZM12.002 9.50452C12.6519 9.50452 13.2889 9.32329 13.8418 8.98157C14.3947 8.63985 14.8416 8.15083 15.1323 7.56946C15.423 6.98809 15.5462 6.33743 15.4878 5.69006C15.4294 5.0427 15.1918 4.42441 14.8018 3.90442L14.4736 4.23254C14.3786 4.31985 14.2535 4.36714 14.1245 4.36438C13.9955 4.36162 13.8729 4.30871 13.7817 4.21741C13.6906 4.12611 13.6378 4.00314 13.6353 3.87415C13.6327 3.74515 13.6801 3.62038 13.7676 3.52551L14.0938 3.19836C13.6247 2.84649 13.0742 2.61868 12.4937 2.53625V2.99963C12.4937 3.13224 12.4409 3.25938 12.3472 3.35315C12.2534 3.44692 12.1263 3.49963 11.9937 3.49963C11.861 3.49963 11.7339 3.44692 11.6401 3.35315C11.5464 3.25938 11.4937 3.13224 11.4937 2.99963V2.53625C10.9149 2.61961 10.3666 2.84738 9.89893 3.19836L10.2256 3.52551C10.3193 3.61928 10.3721 3.74645 10.3721 3.87903C10.3721 4.01161 10.3193 4.13878 10.2256 4.23254C10.1318 4.32628 10.0047 4.37903 9.87207 4.37903C9.73949 4.37903 9.61232 4.32628 9.51855 4.23254L9.19092 3.90442C8.74382 4.49807 8.49832 5.21938 8.49072 5.96252C8.49072 5.97552 8.49072 5.98761 8.49072 6.00061C8.49072 6.01361 8.49072 6.02521 8.49072 6.03821C8.50126 6.96163 8.8757 7.84384 9.53271 8.4928C10.1897 9.14176 11.076 9.50537 11.9995 9.50452H12.002ZM12.0869 18.4645C12.029 18.3451 12.0206 18.2075 12.064 18.0822C12.1074 17.9568 12.199 17.854 12.3184 17.796C12.4377 17.7381 12.5748 17.7297 12.7002 17.7731C12.8256 17.8165 12.9289 17.9081 12.9868 18.0275C13.0855 18.2313 13.2504 18.3954 13.4546 18.4933C13.6588 18.5911 13.8902 18.6168 14.1108 18.566C14.3315 18.5153 14.5285 18.3912 14.6694 18.214C14.8104 18.0367 14.887 17.8169 14.8867 17.5905V17.3214C14.5808 17.4982 14.2337 17.591 13.8804 17.59C13.5271 17.589 13.1804 17.4941 12.8755 17.3156C12.5706 17.137 12.3183 16.881 12.1445 16.5734C11.9708 16.2657 11.8817 15.9174 11.8862 15.5641C11.8908 15.2108 11.9888 14.8652 12.1704 14.5621C12.352 14.259 12.6106 14.0092 12.9199 13.8385C13.2293 13.6678 13.5784 13.5824 13.9316 13.5905C14.2849 13.5985 14.6294 13.6998 14.9307 13.8844C14.9773 13.7794 15.0587 13.6938 15.1611 13.6417C15.2635 13.5896 15.3809 13.5741 15.4932 13.5983C15.6055 13.6224 15.7059 13.6849 15.7778 13.7745C15.8497 13.8641 15.8884 13.9756 15.8877 14.0905V17.5905C15.8882 18.0433 15.735 18.483 15.4531 18.8375C15.1712 19.192 14.7773 19.4401 14.3359 19.5416C13.8946 19.6431 13.4319 19.5918 13.0234 19.3961C12.615 19.2004 12.2853 18.8721 12.0879 18.4645H12.0869ZM12.8867 15.5895C12.8867 15.7873 12.9453 15.9807 13.0552 16.1451C13.1651 16.3096 13.3212 16.4376 13.5039 16.5133C13.6866 16.589 13.8881 16.609 14.082 16.5704C14.276 16.5318 14.4539 16.4364 14.5938 16.2965C14.7336 16.1567 14.8291 15.9783 14.8677 15.7843C14.9063 15.5903 14.8862 15.3894 14.8105 15.2067C14.7349 15.0239 14.6068 14.8678 14.4424 14.7579C14.2779 14.6481 14.0845 14.5895 13.8867 14.5895C13.7546 14.5887 13.6237 14.6141 13.5015 14.6642C13.3792 14.7143 13.2683 14.7882 13.1748 14.8815C13.0813 14.9747 13.007 15.0856 12.9565 15.2076C12.9061 15.3297 12.8805 15.4603 12.8809 15.5924L12.8867 15.5895ZM10.1445 17.2672L9.12549 16.2325V16.9176C9.12549 17.0502 9.07326 17.1773 8.97949 17.2711C8.88572 17.3649 8.7581 17.4176 8.62549 17.4176C8.49288 17.4176 8.36574 17.3649 8.27197 17.2711C8.1782 17.1773 8.12549 17.0502 8.12549 16.9176V12.9176C8.12549 12.785 8.1782 12.6579 8.27197 12.5641C8.36574 12.4703 8.49288 12.4176 8.62549 12.4176C8.7581 12.4176 8.88572 12.4703 8.97949 12.5641C9.07326 12.6579 9.12549 12.785 9.12549 12.9176V14.7233L10.1538 13.7306C10.2493 13.6386 10.3772 13.588 10.5098 13.5905C10.6424 13.5929 10.7688 13.6478 10.8608 13.7433C10.9529 13.8388 11.0029 13.9671 11.0005 14.0997C10.9981 14.2323 10.9431 14.3583 10.8477 14.4503L9.78369 15.4777L10.8569 16.5665C10.9269 16.6367 10.9741 16.7261 10.9932 16.8234C11.0122 16.9206 11.0021 17.021 10.9639 17.1124C10.9256 17.2038 10.861 17.2819 10.7783 17.3365C10.6957 17.3912 10.5986 17.4201 10.4995 17.4196C10.4324 17.4202 10.3662 17.4071 10.3042 17.3815C10.2422 17.3559 10.1858 17.3184 10.1387 17.2706L10.1445 17.2672ZM11.6538 6.35657C11.6072 6.31012 11.5701 6.25471 11.5449 6.19397C11.5197 6.13322 11.5068 6.06833 11.5068 6.00256C11.5068 5.9368 11.5197 5.87141 11.5449 5.81067C11.5701 5.74992 11.6072 5.69501 11.6538 5.64856L12.6538 4.64856C12.7476 4.55467 12.8746 4.50168 13.0073 4.50159C13.14 4.50149 13.2674 4.55432 13.3613 4.64807C13.4552 4.74183 13.5077 4.86891 13.5078 5.00159C13.5079 5.13427 13.4556 5.2617 13.3618 5.35559L12.3618 6.35559C12.3153 6.40229 12.2597 6.43925 12.1987 6.46448C12.1378 6.48971 12.0728 6.50268 12.0068 6.50256C11.9405 6.50374 11.8746 6.49147 11.813 6.46692C11.7514 6.44237 11.6953 6.40596 11.6479 6.3595L11.6538 6.35657Z" fill="white"/>
</svg>
