<svg width="24" height="25" viewBox="0 0 24 25" fill="none" xmlns="http://www.w3.org/2000/svg">
<path d="M18.9136 22.505H18.6489C17.9852 22.5023 17.3485 22.2406 16.875 21.7755C16.4015 21.3104 16.1284 20.6784 16.1138 20.0148V14.7047C16.1213 14.3056 16.2846 13.9254 16.5688 13.6451C16.8531 13.3649 17.2356 13.2067 17.6348 13.2047H17.8467C18.2435 13.207 18.6236 13.3642 18.9062 13.6427C19.1889 13.9212 19.3518 14.2992 19.3599 14.6959V19.028C19.3599 19.1606 19.3071 19.2877 19.2134 19.3815C19.1196 19.4752 18.9925 19.528 18.8599 19.528C18.7273 19.528 18.6001 19.4752 18.5063 19.3815C18.4126 19.2877 18.3599 19.1606 18.3599 19.028V14.7047C18.3519 14.5693 18.2926 14.4422 18.1938 14.3492C18.0951 14.2563 17.9642 14.2045 17.8286 14.2047H17.6436C17.5055 14.2028 17.3727 14.2558 17.2734 14.3517C17.1742 14.4476 17.1167 14.5789 17.1138 14.7169V20.007C17.1183 20.2087 17.1626 20.4078 17.2441 20.5924C17.3256 20.777 17.4429 20.9438 17.5889 21.0831C17.7349 21.2225 17.9065 21.3312 18.0947 21.4039C18.283 21.4767 18.4838 21.5119 18.6855 21.507H18.9219C19.3282 21.5046 19.7182 21.3466 20.0117 21.0656C20.3052 20.7845 20.4796 20.4016 20.4995 19.9957V16.0631C20.4995 15.9305 20.5522 15.8034 20.646 15.7096C20.7398 15.6158 20.8669 15.5631 20.9995 15.5631C21.1321 15.5631 21.2597 15.6158 21.3535 15.7096C21.4473 15.8034 21.4995 15.9305 21.4995 16.0631V20.007C21.4862 20.6731 21.2128 21.3074 20.7378 21.7745C20.2628 22.2417 19.6238 22.5047 18.9575 22.507L18.9136 22.505ZM5.00195 22.505C4.33891 22.505 3.70273 22.2414 3.23389 21.7726C2.76505 21.3037 2.50195 20.668 2.50195 20.005V4.005C2.50195 3.34196 2.76505 2.70578 3.23389 2.23694C3.70273 1.7681 4.33891 1.505 5.00195 1.505H15.5737C16.2368 1.505 16.8725 1.7681 17.3413 2.23694C17.8101 2.70578 18.0737 3.34196 18.0737 4.005V10.297C18.0737 10.4296 18.021 10.5567 17.9272 10.6505C17.8335 10.7443 17.7063 10.797 17.5737 10.797C17.4411 10.797 17.314 10.7443 17.2202 10.6505C17.1264 10.5567 17.0737 10.4296 17.0737 10.297V4.005C17.0737 3.60718 16.9156 3.22576 16.6343 2.94446C16.353 2.66315 15.9716 2.505 15.5737 2.505H5.00195C4.60413 2.505 4.22222 2.66315 3.94092 2.94446C3.65961 3.22576 3.50195 3.60718 3.50195 4.005V20.005C3.50195 20.4028 3.65961 20.7842 3.94092 21.0656C4.22222 21.3469 4.60413 21.505 5.00195 21.505H13.9268C14.0594 21.505 14.1865 21.5577 14.2803 21.6515C14.374 21.7453 14.4268 21.8724 14.4268 22.005C14.4268 22.1376 14.374 22.2648 14.2803 22.3585C14.1865 22.4523 14.0594 22.505 13.9268 22.505H5.00195ZM6.30176 15.2218C6.16915 15.2218 6.04201 15.1691 5.94824 15.0753C5.85447 14.9815 5.80176 14.8544 5.80176 14.7218C5.80176 14.5892 5.85447 14.4621 5.94824 14.3683C6.04201 14.2745 6.16915 14.2218 6.30176 14.2218H10.3018C10.4344 14.2218 10.5615 14.2745 10.6553 14.3683C10.749 14.4621 10.8018 14.5892 10.8018 14.7218C10.8018 14.8544 10.749 14.9815 10.6553 15.0753C10.5615 15.1691 10.4344 15.2218 10.3018 15.2218H6.30176ZM6.30176 12.2218C6.16915 12.2218 6.04201 12.1691 5.94824 12.0753C5.85447 11.9815 5.80176 11.8544 5.80176 11.7218C5.80176 11.5892 5.85447 11.4621 5.94824 11.3683C6.04201 11.2745 6.16915 11.2218 6.30176 11.2218H14.3018C14.4344 11.2218 14.5615 11.2745 14.6553 11.3683C14.749 11.4621 14.8018 11.5892 14.8018 11.7218C14.8018 11.8544 14.749 11.9815 14.6553 12.0753C14.5615 12.1691 14.4344 12.2218 14.3018 12.2218H6.30176ZM6.30176 9.2218C6.16915 9.2218 6.04201 9.16909 5.94824 9.07532C5.85447 8.98155 5.80176 8.85441 5.80176 8.7218C5.80176 8.58919 5.85447 8.46205 5.94824 8.36829C6.04201 8.27452 6.16915 8.2218 6.30176 8.2218H14.3018C14.4344 8.2218 14.5615 8.27452 14.6553 8.36829C14.749 8.46205 14.8018 8.58919 14.8018 8.7218C14.8018 8.85441 14.749 8.98155 14.6553 9.07532C14.5615 9.16909 14.4344 9.2218 14.3018 9.2218H6.30176ZM6.30176 6.2218C6.16915 6.2218 6.04201 6.16909 5.94824 6.07532C5.85447 5.98155 5.80176 5.85441 5.80176 5.7218C5.80176 5.58919 5.85447 5.46205 5.94824 5.36829C6.04201 5.27452 6.16915 5.2218 6.30176 5.2218H14.3018C14.4344 5.2218 14.5615 5.27452 14.6553 5.36829C14.749 5.46205 14.8018 5.58919 14.8018 5.7218C14.8018 5.85441 14.749 5.98155 14.6553 6.07532C14.5615 6.16909 14.4344 6.2218 14.3018 6.2218H6.30176Z" fill="white"/>
</svg>
