<svg width="24" height="25" viewBox="0 0 24 25" fill="none" xmlns="http://www.w3.org/2000/svg">
<path d="M11.6473 22.3595L1.66924 12.3815C1.57268 12.2962 1.51257 12.1768 1.50176 12.0485C1.49096 11.9201 1.53019 11.7927 1.61114 11.6925L1.63994 11.6593L11.6399 1.6593C11.7337 1.56542 11.8608 1.51291 11.9935 1.51282C12.1261 1.51272 12.2536 1.56506 12.3475 1.65881C12.4414 1.75257 12.4943 1.87965 12.4944 2.01233C12.4945 2.14501 12.4417 2.27245 12.348 2.36633L3.20196 11.5133H21.9939C22.1266 11.5133 22.2537 11.566 22.3475 11.6598C22.4412 11.7536 22.4939 11.8807 22.4939 12.0133C22.4939 12.1459 22.4412 12.2731 22.3475 12.3668C22.2537 12.4606 22.1266 12.5133 21.9939 12.5133H3.20098L12.348 21.6593C12.3944 21.7058 12.4312 21.7612 12.4564 21.8219C12.4815 21.8826 12.4944 21.9476 12.4944 22.0133C12.4944 22.079 12.4815 22.1445 12.4564 22.2052C12.4312 22.2659 12.3944 22.3208 12.348 22.3673C12.3015 22.4138 12.2466 22.4505 12.1858 22.4757C12.1251 22.5009 12.0597 22.5143 11.9939 22.5143C11.9282 22.5143 11.8633 22.5009 11.8025 22.4757C11.7418 22.4505 11.6864 22.4138 11.6399 22.3673L11.6473 22.3595Z" fill="white"/>
</svg>
