<svg width="24" height="25" viewBox="0 0 24 25" fill="none" xmlns="http://www.w3.org/2000/svg">
<path d="M12.9688 19.67C12.9705 19.309 13.079 18.9562 13.2808 18.6569C13.4826 18.3575 13.7685 18.125 14.1025 17.9879C14.4365 17.8508 14.8038 17.8155 15.1577 17.8868C15.5116 17.9581 15.8364 18.1326 16.0913 18.3883C16.3462 18.644 16.5197 18.9697 16.5899 19.3239C16.66 19.678 16.6235 20.045 16.4854 20.3785C16.3472 20.7121 16.1135 20.997 15.8135 21.1979C15.5135 21.3987 15.1608 21.5064 14.7998 21.507C14.3137 21.5054 13.8481 21.3113 13.5049 20.9669C13.1617 20.6226 12.9688 20.1562 12.9688 19.67V19.67ZM13.9688 19.67C13.9711 19.8332 14.0214 19.992 14.1138 20.1266C14.2061 20.2611 14.3364 20.3655 14.4878 20.4264C14.6392 20.4873 14.8055 20.5016 14.9653 20.4684C15.1251 20.4352 15.2711 20.3555 15.3857 20.2394C15.5004 20.1232 15.5783 19.9758 15.6094 19.8156C15.6405 19.6553 15.6234 19.4896 15.5606 19.339C15.4977 19.1884 15.3921 19.0599 15.2564 18.9694C15.1206 18.8788 14.9611 18.8299 14.7979 18.8297C14.6883 18.8305 14.5799 18.853 14.479 18.8956C14.3781 18.9383 14.2869 19.0002 14.21 19.0782C14.1331 19.1562 14.072 19.2487 14.0308 19.3502C13.9896 19.4517 13.9689 19.5605 13.9697 19.67H13.9688ZM3.8838 19.67C3.88558 19.309 3.99396 18.9562 4.19581 18.6569C4.39766 18.3575 4.68401 18.125 5.01807 17.9879C5.35213 17.8509 5.7193 17.8155 6.07325 17.8868C6.4272 17.9582 6.75201 18.133 7.00684 18.3888C7.26167 18.6446 7.43486 18.9701 7.50489 19.3243C7.57492 19.6786 7.53871 20.0455 7.4004 20.379C7.26209 20.7126 7.02819 20.9977 6.72804 21.1984C6.42788 21.3991 6.07495 21.5066 5.71388 21.507C5.22815 21.5048 4.76304 21.3102 4.42042 20.9659C4.0778 20.6216 3.88548 20.1558 3.88575 19.67H3.8838ZM4.8838 19.67C4.88616 19.8332 4.93645 19.992 5.02882 20.1266C5.12118 20.2611 5.25141 20.3655 5.40284 20.4264C5.55427 20.4873 5.7201 20.5016 5.87989 20.4684C6.03968 20.4352 6.18615 20.3555 6.30079 20.2394C6.41543 20.1232 6.49332 19.9758 6.52442 19.8156C6.55552 19.6553 6.53845 19.4896 6.47559 19.339C6.41274 19.1884 6.30716 19.0599 6.17139 18.9694C6.03563 18.8788 5.8761 18.8299 5.7129 18.8297C5.49275 18.8329 5.28241 18.9233 5.12843 19.0807C4.97444 19.238 4.88903 19.4499 4.89063 19.67H4.8838ZM4.3838 16.443C4.25119 16.443 4.12405 16.3903 4.03028 16.2965C3.93651 16.2027 3.8838 16.0756 3.8838 15.943C3.8838 15.8104 3.93651 15.6832 4.03028 15.5895C4.12405 15.4957 4.25119 15.443 4.3838 15.443H16.3316C16.4642 15.443 16.5913 15.4957 16.6851 15.5895C16.7788 15.6832 16.8316 15.8104 16.8316 15.943C16.8316 16.0756 16.7788 16.2027 16.6851 16.2965C16.5913 16.3903 16.4642 16.443 16.3316 16.443H4.3838ZM15.2437 14.2067H4.49757C3.95624 14.2076 3.43213 14.0181 3.0171 13.6705C2.60207 13.323 2.32267 12.8398 2.22852 12.3068L1.53565 8.45374C1.4238 7.79669 1.57755 7.12205 1.9629 6.57825C2.34825 6.03444 2.93385 5.66607 3.59083 5.55383C3.74076 5.53106 3.8923 5.51921 4.04395 5.51868H14.5967C14.7293 5.51868 14.8564 5.57139 14.9502 5.66516C15.044 5.75893 15.0967 5.88607 15.0967 6.01868C15.0967 6.15129 15.044 6.27891 14.9502 6.37268C14.8564 6.46645 14.7293 6.51868 14.5967 6.51868H4.03468C3.9423 6.5192 3.85019 6.52622 3.7588 6.53967C3.36347 6.60672 3.01065 6.82809 2.77833 7.15491C2.54601 7.48173 2.45294 7.88743 2.51954 8.28284L3.2129 12.13C3.26589 12.433 3.42446 12.7074 3.66065 12.9044C3.89684 13.1014 4.19538 13.2079 4.50294 13.2057H15.2559C15.5468 13.2063 15.8296 13.1111 16.0606 12.9342C16.2915 12.7573 16.4575 12.5092 16.5327 12.2281L18.5786 4.22815C18.6932 3.73844 18.9697 3.30145 19.3633 2.9884C19.7569 2.67535 20.2446 2.50446 20.7476 2.50305H21.9976C22.1302 2.50305 22.2573 2.55577 22.3511 2.64954C22.4449 2.7433 22.4976 2.87044 22.4976 3.00305C22.4976 3.13566 22.4449 3.2628 22.3511 3.35657C22.2573 3.45034 22.1302 3.50305 21.9976 3.50305H20.7495C20.4706 3.50408 20.2003 3.59946 19.9824 3.77356C19.7646 3.94766 19.6123 4.19025 19.5498 4.46204L17.4995 12.4757C17.3681 12.9707 17.0772 13.4085 16.6714 13.7208C16.2656 14.0331 15.768 14.2025 15.2559 14.2028L15.2437 14.2067Z" fill="white"/>
</svg>
