<svg width="24" height="25" viewBox="0 0 24 25" fill="none" xmlns="http://www.w3.org/2000/svg">
<path d="M9.44521 20.0358V19.4918H4.29726C3.9305 19.4825 3.57515 19.3614 3.27919 19.1447C2.98322 18.9279 2.76053 18.6258 2.64101 18.2789C2.48632 17.8778 2.45479 17.4395 2.5497 17.0201C2.6446 16.6008 2.86187 16.2194 3.17421 15.924C3.93699 15.2906 4.59019 14.5359 5.10731 13.6901C5.39105 13.1466 5.53769 12.5419 5.53505 11.9288V8.58069C5.53505 4.68069 8.39312 1.50696 11.9071 1.50696C15.4211 1.50696 18.2772 4.67769 18.2772 8.58069V11.943C18.278 12.5468 18.4229 13.1415 18.7001 13.6779C19.3201 14.5188 20.0262 15.2928 20.807 15.9869C21.1135 16.2529 21.3315 16.606 21.432 16.9991C21.5325 17.3923 21.5108 17.8067 21.3695 18.1871C21.2282 18.5675 20.9743 18.8958 20.6415 19.1281C20.3087 19.3603 19.913 19.4855 19.5072 19.4869H14.3729V20.0309C14.3795 20.3586 14.3209 20.6842 14.2001 20.9889C14.0793 21.2936 13.8987 21.5712 13.6693 21.8053C13.4399 22.0394 13.1663 22.2252 12.8642 22.3522C12.562 22.4791 12.2373 22.5446 11.9096 22.5446C11.5818 22.5446 11.2576 22.4791 10.9555 22.3522C10.6533 22.2252 10.3792 22.0394 10.1498 21.8053C9.92038 21.5712 9.73987 21.2936 9.61903 20.9889C9.4982 20.6842 9.43958 20.3586 9.44618 20.0309L9.44521 20.0358ZM10.4452 20.0358C10.4452 20.4242 10.5993 20.7968 10.8739 21.0714C11.1486 21.3461 11.5212 21.5006 11.9096 21.5006C12.298 21.5006 12.6706 21.3461 12.9452 21.0714C13.2199 20.7968 13.3744 20.4242 13.3744 20.0358V19.505H10.4452V20.0358ZM6.53505 8.58069V11.9269C6.53667 12.714 6.34462 13.4892 5.97597 14.1847C5.40491 15.1289 4.68074 15.9713 3.83241 16.6769C3.67273 16.8377 3.56326 17.0417 3.51796 17.2638C3.47266 17.4859 3.49312 17.7163 3.57704 17.9269C3.62656 18.0839 3.72262 18.2221 3.85243 18.3234C3.98225 18.4246 4.13976 18.484 4.30409 18.4938H19.4882C19.7502 18.4894 20.0004 18.3849 20.1879 18.2018C20.3753 18.0186 20.4856 17.7708 20.496 17.5089C20.4982 17.3633 20.4683 17.2192 20.4081 17.0865C20.3479 16.9539 20.2594 16.836 20.1483 16.7418C19.3056 15.9929 18.5441 15.1576 17.8764 14.2491C17.8624 14.2291 17.8381 14.195 17.8251 14.173C17.4632 13.4858 17.2749 12.7206 17.2763 11.944V8.58167C17.2763 5.23066 14.8662 2.50696 11.9052 2.50696C8.94417 2.50696 6.53505 5.22969 6.53505 8.58069Z" fill="white"/>
</svg>
