<svg width="24" height="25" viewBox="0 0 24 25" fill="none" xmlns="http://www.w3.org/2000/svg">
<path d="M16.8608 22.505H8.3178C6.65964 22.5972 5.01081 22.1989 3.57757 21.36C2.88273 20.863 2.32677 20.1964 1.96282 19.4235C1.59887 18.6506 1.43897 17.7972 1.49847 16.9449V14.42C1.49847 14.0222 1.65662 13.6403 1.93792 13.359C2.21923 13.0777 2.60064 12.92 2.99847 12.92H7.86566V3.005C7.86566 2.60718 8.0238 2.22576 8.30511 1.94446C8.58641 1.66315 8.96783 1.505 9.36566 1.505H20.9887C21.3865 1.505 21.7679 1.66315 22.0492 1.94446C22.3306 2.22576 22.4887 2.60718 22.4887 3.005V16.7047C22.4977 16.8747 22.4977 17.0669 22.4887 17.2599C22.4911 17.9463 22.3581 18.6264 22.0971 19.2614C21.8361 19.8963 21.4522 20.4733 20.9677 20.9596C20.4832 21.4459 19.9078 21.8319 19.2739 22.0953C18.64 22.3588 17.9603 22.4945 17.2739 22.4948H17.2626C17.1936 22.4948 17.1249 22.4948 17.0629 22.4948C17.0009 22.4948 16.9278 22.505 16.8608 22.505ZM8.86663 3.01086V12.92H11.5258C11.9236 12.92 12.3051 13.0777 12.5864 13.359C12.8677 13.6403 13.0258 14.0222 13.0258 14.42V16.9449C12.9512 17.5793 13.0063 18.2222 13.1874 18.8346C13.3686 19.447 13.6719 20.0163 14.0795 20.5079C14.8451 21.1917 15.8469 21.5504 16.8725 21.5079H17.2729C18.3886 21.5087 19.4589 21.0672 20.2494 20.2799C21.04 19.4926 21.486 18.4235 21.4897 17.3077C21.4987 17.0667 21.4987 16.9077 21.4897 16.7457V3.005C21.4897 2.8724 21.437 2.74526 21.3432 2.65149C21.2494 2.55772 21.1223 2.505 20.9897 2.505H9.36273C9.23081 2.50606 9.10456 2.5593 9.01165 2.65295C8.91875 2.74661 8.86663 2.87309 8.86663 3.005V3.01086ZM2.49749 14.42V16.943C2.43907 17.632 2.55992 18.3245 2.84759 18.9532C3.13526 19.582 3.58008 20.1256 4.13958 20.5319C5.38681 21.2536 6.81944 21.5916 8.25775 21.5031H13.6977C13.5837 21.4118 13.4744 21.3147 13.3705 21.212C12.8645 20.6289 12.4841 19.9478 12.2529 19.2111C12.0216 18.4744 11.9448 17.6976 12.0268 16.9298V14.4191C12.0268 14.2865 11.9741 14.1593 11.8803 14.0656C11.7865 13.9718 11.6594 13.9191 11.5268 13.9191H2.99993C2.8675 13.9188 2.74034 13.9707 2.64642 14.0641C2.55249 14.1575 2.499 14.2847 2.49847 14.4171L2.49749 14.42ZM4.49749 16.6998C4.36488 16.6998 4.23774 16.6471 4.14398 16.5533C4.05021 16.4596 3.99749 16.3324 3.99749 16.1998C3.99749 16.0672 4.05021 15.9401 4.14398 15.8463C4.23774 15.7525 4.36488 15.6998 4.49749 15.6998H9.49749C9.6301 15.6998 9.75773 15.7525 9.8515 15.8463C9.94526 15.9401 9.99749 16.0672 9.99749 16.1998C9.99749 16.3324 9.94526 16.4596 9.8515 16.5533C9.75773 16.6471 9.6301 16.6998 9.49749 16.6998H4.49749ZM13.9975 11.5997C13.8649 11.5997 13.7377 11.547 13.644 11.4532C13.5502 11.3595 13.4975 11.2323 13.4975 11.0997C13.4975 10.9671 13.5502 10.84 13.644 10.7462C13.7377 10.6524 13.8649 10.5997 13.9975 10.5997H18.9975C19.1301 10.5997 19.2577 10.6524 19.3515 10.7462C19.4453 10.84 19.4975 10.9671 19.4975 11.0997C19.4975 11.2323 19.4453 11.3595 19.3515 11.4532C19.2577 11.547 19.1301 11.5997 18.9975 11.5997H13.9975ZM11.9975 8.59973C11.8649 8.59973 11.7377 8.54702 11.644 8.45325C11.5502 8.35948 11.4975 8.23234 11.4975 8.09973C11.4975 7.96712 11.5502 7.83998 11.644 7.74622C11.7377 7.65245 11.8649 7.59973 11.9975 7.59973H18.9975C19.1301 7.59973 19.2577 7.65245 19.3515 7.74622C19.4453 7.83998 19.4975 7.96712 19.4975 8.09973C19.4975 8.23234 19.4453 8.35948 19.3515 8.45325C19.2577 8.54702 19.1301 8.59973 18.9975 8.59973H11.9975ZM11.9975 5.59973C11.8649 5.59973 11.7377 5.54702 11.644 5.45325C11.5502 5.35948 11.4975 5.23234 11.4975 5.09973C11.4975 4.96712 11.5502 4.83998 11.644 4.74622C11.7377 4.65245 11.8649 4.59973 11.9975 4.59973H18.9975C19.1301 4.59973 19.2577 4.65245 19.3515 4.74622C19.4453 4.83998 19.4975 4.96712 19.4975 5.09973C19.4975 5.23234 19.4453 5.35948 19.3515 5.45325C19.2577 5.54702 19.1301 5.59973 18.9975 5.59973H11.9975Z" fill="white"/>
</svg>
