<svg width="24" height="25" viewBox="0 0 24 25" fill="none" xmlns="http://www.w3.org/2000/svg">
<path d="M6.00195 22.505C5.33891 22.505 4.70273 22.2414 4.23389 21.7726C3.76505 21.3037 3.50195 20.668 3.50195 20.005V4.005C3.50195 3.34196 3.76505 2.70578 4.23389 2.23694C4.70273 1.7681 5.33891 1.505 6.00195 1.505H18.002C18.665 1.505 19.3007 1.7681 19.7695 2.23694C20.2384 2.70578 20.502 3.34196 20.502 4.005V20.005C20.502 20.668 20.2384 21.3037 19.7695 21.7726C19.3007 22.2414 18.665 22.505 18.002 22.505H6.00195ZM4.50195 4.005V20.005C4.50195 20.4028 4.65961 20.7842 4.94092 21.0656C5.22222 21.3469 5.60413 21.505 6.00195 21.505H18.002C18.3998 21.505 18.7812 21.3469 19.0625 21.0656C19.3438 20.7842 19.502 20.4028 19.502 20.005V4.005C19.502 3.60718 19.3438 3.22576 19.0625 2.94446C18.7812 2.66315 18.3998 2.505 18.002 2.505H6.00195C5.8048 2.50474 5.60947 2.54302 5.42725 2.61829C5.24503 2.69355 5.07944 2.80417 4.93994 2.94348C4.80044 3.0828 4.68976 3.24818 4.61426 3.4303C4.53875 3.61242 4.49951 3.80785 4.49951 4.005H4.50195ZM9.50195 20.005C9.36934 20.005 9.24172 19.9523 9.14795 19.8585C9.05418 19.7648 9.00195 19.6376 9.00195 19.505C9.00195 19.3724 9.05418 19.2453 9.14795 19.1515C9.24172 19.0577 9.36934 19.005 9.50195 19.005H14.502C14.6346 19.005 14.7617 19.0577 14.8555 19.1515C14.9492 19.2453 15.002 19.3724 15.002 19.505C15.002 19.6376 14.9492 19.7648 14.8555 19.8585C14.7617 19.9523 14.6346 20.005 14.502 20.005H9.50195ZM10.502 18.005C10.3693 18.005 10.2417 17.9523 10.1479 17.8585C10.0542 17.7648 10.002 17.6376 10.002 17.505C10.002 17.3724 10.0542 17.2453 10.1479 17.1515C10.2417 17.0577 10.3693 17.005 10.502 17.005H13.502C13.6346 17.005 13.7617 17.0577 13.8555 17.1515C13.9492 17.2453 14.002 17.3724 14.002 17.505C14.002 17.6376 13.9492 17.7648 13.8555 17.8585C13.7617 17.9523 13.6346 18.005 13.502 18.005H10.502ZM11.502 13.005V12.5397C11.0574 12.7333 10.5883 12.865 10.1079 12.9308C10.0851 12.9341 10.0617 12.9357 10.0386 12.9357C9.97291 12.9401 9.90707 12.9318 9.84473 12.9108C9.78238 12.8897 9.72483 12.8564 9.67529 12.8131C9.62575 12.7698 9.58534 12.7173 9.55615 12.6583C9.52696 12.5993 9.50977 12.535 9.50537 12.4694C9.50097 12.4037 9.50921 12.3379 9.53027 12.2755C9.55134 12.2132 9.58461 12.1556 9.62793 12.1061C9.67125 12.0565 9.72374 12.0161 9.78271 11.9869C9.84169 11.9577 9.90602 11.9401 9.97168 11.9357C10.3405 11.8846 10.7014 11.7862 11.0449 11.6427C10.2587 10.9522 9.73204 10.0139 9.55273 8.98303C9.50384 8.2929 9.65424 7.60294 9.98584 6.99573C10.0511 6.88244 10.1578 6.79963 10.2837 6.76428C10.4096 6.72894 10.5445 6.744 10.6592 6.80676C10.7739 6.86953 10.8594 6.97467 10.8975 7.09973C10.9355 7.2248 10.9231 7.3597 10.8628 7.47571C10.6277 7.90121 10.5173 8.38435 10.5439 8.86975C10.6708 9.5627 11.0044 10.2011 11.501 10.7008V6.94885C11.501 6.81624 11.5532 6.68911 11.647 6.59534C11.7407 6.50157 11.8684 6.44885 12.001 6.44885C12.1336 6.44885 12.2607 6.50157 12.3545 6.59534C12.4483 6.68911 12.501 6.81624 12.501 6.94885V10.6979C13.0069 10.1822 13.3436 9.52494 13.4668 8.81311C13.4803 8.34731 13.3679 7.88649 13.1416 7.47913C13.1064 7.42148 13.0835 7.35702 13.0737 7.29016C13.064 7.2233 13.0676 7.15528 13.085 7.08997C13.1023 7.02466 13.1327 6.96352 13.1743 6.91028C13.2159 6.85704 13.268 6.81251 13.3271 6.77991C13.3863 6.74731 13.4513 6.72705 13.5186 6.72034C13.5858 6.71363 13.6538 6.72058 13.7183 6.74084C13.7827 6.76111 13.8423 6.79453 13.8936 6.8385C13.9449 6.88247 13.9867 6.93611 14.0166 6.9967C14.3427 7.58517 14.4952 8.25424 14.4565 8.9259C14.284 9.97686 13.7542 10.936 12.9565 11.6417C13.3003 11.7861 13.6615 11.8857 14.0308 11.9371C14.0964 11.9415 14.1607 11.9587 14.2197 11.9879C14.2787 12.0171 14.3312 12.0575 14.3745 12.1071C14.4178 12.1566 14.4511 12.2141 14.4722 12.2765C14.4932 12.3388 14.5015 12.4047 14.4971 12.4703C14.4927 12.536 14.4755 12.6003 14.4463 12.6593C14.4171 12.7183 14.3767 12.7708 14.3271 12.8141C14.2776 12.8574 14.2201 12.8907 14.1577 12.9117C14.0954 12.9328 14.0295 12.9415 13.9639 12.9371C13.9408 12.9371 13.9174 12.9351 13.8945 12.9318C13.412 12.8661 12.9409 12.7337 12.4946 12.5387V13.006C12.4946 13.1386 12.4419 13.2657 12.3481 13.3595C12.2544 13.4533 12.1272 13.506 11.9946 13.506C11.862 13.506 11.7349 13.4533 11.6411 13.3595C11.5473 13.2657 11.4946 13.1386 11.4946 13.006L11.502 13.005ZM14.6577 11.7867C14.6102 11.7414 14.5724 11.6872 14.5459 11.6271C14.5194 11.567 14.5049 11.5023 14.5034 11.4366C14.5019 11.371 14.5134 11.306 14.5371 11.2448C14.5609 11.1835 14.5962 11.1272 14.6416 11.0797C15.1438 10.5523 15.4459 9.86587 15.4956 9.13928C15.5453 8.4127 15.3393 7.6916 14.9136 7.10071C14.8752 7.04739 14.848 6.98739 14.833 6.92346C14.818 6.85953 14.8156 6.79296 14.8262 6.72815C14.8368 6.66333 14.8599 6.60136 14.8945 6.54553C14.9291 6.4897 14.9745 6.4413 15.0278 6.40295C15.0811 6.36461 15.1416 6.33692 15.2056 6.3219C15.2695 6.30688 15.3356 6.30497 15.4004 6.31555C15.4652 6.32614 15.5272 6.34933 15.583 6.38391C15.6388 6.41849 15.6872 6.46341 15.7256 6.51672C16.2872 7.29679 16.5587 8.2487 16.4932 9.20764C16.4276 10.1666 16.0292 11.0723 15.3667 11.7687C15.2745 11.864 15.1487 11.9196 15.0161 11.923C14.8835 11.9263 14.7547 11.8773 14.6577 11.7867ZM8.64062 11.7687C7.98673 11.0798 7.58994 10.1869 7.51709 9.23987C7.44424 8.29285 7.69988 7.34977 8.24072 6.56897C8.31671 6.46023 8.43286 6.38608 8.56348 6.36292C8.6941 6.33975 8.82827 6.36945 8.93701 6.44543C9.04575 6.52142 9.11991 6.63757 9.14307 6.76819C9.16623 6.89881 9.13653 7.03298 9.06055 7.14172C8.65063 7.73272 8.45708 8.44702 8.51172 9.16418C8.56635 9.88135 8.86613 10.5576 9.36084 11.0797C9.45221 11.1759 9.50142 11.3045 9.49805 11.4371C9.49467 11.5697 9.43891 11.6954 9.34277 11.7867C9.24663 11.8781 9.11794 11.9278 8.98535 11.9244C8.85276 11.9211 8.72711 11.8648 8.63574 11.7687H8.64062ZM12.5239 6.0929C12.3389 6.08701 12.159 6.03126 12.0029 5.93176C11.8333 6.03812 11.6367 6.0947 11.4365 6.09485H11.3936C11.1108 6.0829 10.8445 5.95942 10.6528 5.7511C10.4612 5.54278 10.3599 5.26682 10.3716 4.98401C10.3743 4.91835 10.3903 4.85367 10.418 4.79407C10.4456 4.73446 10.4848 4.68083 10.5332 4.63635C10.5816 4.59187 10.638 4.55737 10.6997 4.53479C10.7614 4.51221 10.8269 4.50225 10.8926 4.505C10.9582 4.50776 11.0229 4.52323 11.0825 4.5509C11.1421 4.57858 11.1958 4.61776 11.2402 4.66614C11.2847 4.71452 11.3192 4.77141 11.3418 4.83313C11.3644 4.89485 11.3743 4.96034 11.3716 5.026C11.3728 5.04323 11.3802 5.05933 11.3921 5.0719C11.4039 5.08447 11.4194 5.09259 11.4365 5.09485L11.5068 5.02502V5.00598C11.5045 4.8772 11.5518 4.75248 11.6392 4.65784C11.7265 4.5632 11.847 4.50565 11.9756 4.49768C12.0092 4.49897 12.0427 4.50319 12.0757 4.50989C12.1986 4.52716 12.3107 4.5898 12.3901 4.68518C12.4696 4.78056 12.511 4.90196 12.5059 5.026C12.5053 5.04386 12.5115 5.06113 12.5229 5.07483L12.6406 5.02405C12.6335 4.89238 12.6789 4.76319 12.7666 4.66467C12.8543 4.56616 12.9773 4.50593 13.1089 4.49768C13.2405 4.49631 13.3679 4.54451 13.4658 4.63245C13.5638 4.72039 13.6249 4.84177 13.6377 4.97278C13.6397 5.00909 13.6397 5.04536 13.6377 5.08167C13.6239 5.35433 13.5061 5.61149 13.3086 5.79993C13.111 5.98836 12.8487 6.09392 12.5757 6.09485L12.5239 6.0929Z" fill="white"/>
</svg>
