<svg width="24" height="25" viewBox="0 0 24 25" fill="none" xmlns="http://www.w3.org/2000/svg">
<path d="M15.9992 9.5054C15.8667 9.50511 15.7397 9.45223 15.6462 9.3584L8.99923 2.7124L2.35317 9.3584C2.25887 9.44948 2.13258 9.49986 2.00148 9.49872C1.87039 9.49758 1.74501 9.445 1.6523 9.35229C1.5596 9.25959 1.50702 9.13418 1.50588 9.00308C1.50474 8.87198 1.55512 8.7457 1.6462 8.6514L8.6462 1.6514C8.73996 1.55766 8.86713 1.505 8.99971 1.505C9.1323 1.505 9.2594 1.55766 9.35317 1.6514L16.3532 8.6514C16.4233 8.72133 16.4711 8.81048 16.4904 8.90759C16.5098 9.0047 16.4999 9.10537 16.462 9.19684C16.4241 9.28831 16.3598 9.36649 16.2774 9.42142C16.195 9.47635 16.0982 9.50558 15.9992 9.5054Z" fill="white"/>
<path d="M15.4992 22.5054H2.49921C2.3666 22.5054 2.2394 22.4527 2.14563 22.3589C2.05186 22.2652 1.99921 22.138 1.99921 22.0054V8.5054C1.99921 8.37279 2.05186 8.24559 2.14563 8.15182C2.2394 8.05806 2.3666 8.0054 2.49921 8.0054C2.63181 8.0054 2.75895 8.05806 2.85272 8.15182C2.94649 8.24559 2.99921 8.37279 2.99921 8.5054V21.5054H14.9992V8.5054C14.9992 8.37279 15.0519 8.24559 15.1456 8.15182C15.2394 8.05806 15.3666 8.0054 15.4992 8.0054C15.6318 8.0054 15.759 8.05806 15.8527 8.15182C15.9465 8.24559 15.9992 8.37279 15.9992 8.5054V22.0054C15.9992 22.138 15.9465 22.2652 15.8527 22.3589C15.759 22.4527 15.6318 22.5054 15.4992 22.5054Z" fill="white"/>
<path d="M21.9992 22.5054H15.4222C15.2896 22.5054 15.1624 22.4527 15.0686 22.3589C14.9748 22.2652 14.9222 22.138 14.9222 22.0054C14.9222 21.8728 14.9748 21.7456 15.0686 21.6518C15.1624 21.5581 15.2896 21.5054 15.4222 21.5054H21.4992V5.0054H11.6161C11.4835 5.0054 11.3564 4.95272 11.2626 4.85895C11.1689 4.76518 11.1161 4.63801 11.1161 4.5054C11.1161 4.37279 11.1689 4.24559 11.2626 4.15182C11.3564 4.05806 11.4835 4.0054 11.6161 4.0054H21.9992C22.1318 4.0054 22.259 4.05806 22.3527 4.15182C22.4465 4.24559 22.4992 4.37279 22.4992 4.5054V22.0054C22.4992 22.138 22.4465 22.2652 22.3527 22.3589C22.259 22.4527 22.1318 22.5054 21.9992 22.5054Z" fill="white"/>
<path d="M7.49921 14.0054H5.49921C5.3666 14.0054 5.2394 13.9527 5.14563 13.8589C5.05186 13.7652 4.99921 13.638 4.99921 13.5054V10.5054C4.99921 10.3728 5.05186 10.2456 5.14563 10.1518C5.2394 10.0581 5.3666 10.0054 5.49921 10.0054H7.49921C7.63181 10.0054 7.75895 10.0581 7.85272 10.1518C7.94649 10.2456 7.99921 10.3728 7.99921 10.5054V13.5054C7.99921 13.638 7.94649 13.7652 7.85272 13.8589C7.75895 13.9527 7.63181 14.0054 7.49921 14.0054ZM5.99921 13.0054H6.99921V11.0054H5.99921V13.0054Z" fill="white"/>
<path d="M12.4992 14.0054H10.4992C10.3666 14.0054 10.2394 13.9527 10.1456 13.8589C10.0519 13.7652 9.99921 13.638 9.99921 13.5054V10.5054C9.99921 10.3728 10.0519 10.2456 10.1456 10.1518C10.2394 10.0581 10.3666 10.0054 10.4992 10.0054H12.4992C12.6318 10.0054 12.759 10.0581 12.8527 10.1518C12.9465 10.2456 12.9992 10.3728 12.9992 10.5054V13.5054C12.9992 13.638 12.9465 13.7652 12.8527 13.8589C12.759 13.9527 12.6318 14.0054 12.4992 14.0054ZM10.9992 13.0054H11.9992V11.0054H10.9992V13.0054Z" fill="white"/>
<path d="M10.4992 22.5054H7.49921C7.3666 22.5054 7.2394 22.4527 7.14563 22.3589C7.05186 22.2652 6.99921 22.138 6.99921 22.0054V17.0054C6.99921 16.8728 7.05186 16.7456 7.14563 16.6518C7.2394 16.5581 7.3666 16.5054 7.49921 16.5054H10.4992C10.6318 16.5054 10.759 16.5581 10.8527 16.6518C10.9465 16.7456 10.9992 16.8728 10.9992 17.0054V22.0054C10.9992 22.138 10.9465 22.2652 10.8527 22.3589C10.759 22.4527 10.6318 22.5054 10.4992 22.5054ZM7.99921 21.5054H9.99921V17.5054H7.99921V21.5054Z" fill="white"/>
<path d="M21.9992 22.5054H18.9992C18.8666 22.5054 18.7394 22.4527 18.6456 22.3589C18.5519 22.2652 18.4992 22.138 18.4992 22.0054V17.0054C18.4992 16.8728 18.5519 16.7456 18.6456 16.6518C18.7394 16.5581 18.8666 16.5054 18.9992 16.5054H21.9992C22.1318 16.5054 22.259 16.5581 22.3527 16.6518C22.4465 16.7456 22.4992 16.8728 22.4992 17.0054V22.0054C22.4992 22.138 22.4465 22.2652 22.3527 22.3589C22.259 22.4527 22.1318 22.5054 21.9992 22.5054ZM19.4992 21.5054H21.4992V17.5054H19.4992V21.5054Z" fill="white"/>
<path d="M20.2492 6.0054H17.7492V7.0054H20.2492V6.0054Z" fill="white"/>
<path d="M20.2492 8.0054H17.7492V9.0054H20.2492V8.0054Z" fill="white"/>
<path d="M20.2492 10.0054H17.7492V11.0054H20.2492V10.0054Z" fill="white"/>
<path d="M20.2492 12.0054H17.7492V13.0054H20.2492V12.0054Z" fill="white"/>
<path d="M20.2492 14.0054H17.7492V15.0054H20.2492V14.0054Z" fill="white"/>
</svg>
