<svg width="24" height="25" viewBox="0 0 24 25" fill="none" xmlns="http://www.w3.org/2000/svg">
<path d="M6.00195 22.505C5.33891 22.505 4.70273 22.2414 4.23389 21.7726C3.76505 21.3037 3.50195 20.668 3.50195 20.005V7.005C3.50195 6.34196 3.76505 5.70578 4.23389 5.23694C4.70273 4.7681 5.33891 4.505 6.00195 4.505H7.50195V2.005C7.50195 1.8724 7.55418 1.74526 7.64795 1.65149C7.74172 1.55772 7.86934 1.505 8.00195 1.505C8.13456 1.505 8.2617 1.55772 8.35547 1.65149C8.44924 1.74526 8.50195 1.8724 8.50195 2.005V4.505H15.502V2.005C15.502 1.8724 15.5542 1.74526 15.6479 1.65149C15.7417 1.55772 15.8693 1.505 16.002 1.505C16.1346 1.505 16.2617 1.55772 16.3555 1.65149C16.4492 1.74526 16.502 1.8724 16.502 2.005V4.505H18.002C18.665 4.505 19.3007 4.7681 19.7695 5.23694C20.2384 5.70578 20.502 6.34196 20.502 7.005V20.005C20.502 20.668 20.2384 21.3037 19.7695 21.7726C19.3007 22.2414 18.665 22.505 18.002 22.505H6.00195ZM4.50195 20.005C4.50195 20.4028 4.65961 20.7842 4.94092 21.0656C5.22222 21.3469 5.60413 21.505 6.00195 21.505H18.002C18.3998 21.505 18.7812 21.3469 19.0625 21.0656C19.3438 20.7842 19.502 20.4028 19.502 20.005V11.88H4.50195V20.005ZM4.50195 7.005V10.881H19.502V7.005C19.502 6.60718 19.3438 6.22576 19.0625 5.94446C18.7812 5.66315 18.3998 5.505 18.002 5.505H16.502V8.005C16.502 8.13761 16.4492 8.26475 16.3555 8.35852C16.2617 8.45229 16.1346 8.505 16.002 8.505C15.8693 8.505 15.7417 8.45229 15.6479 8.35852C15.5542 8.26475 15.502 8.13761 15.502 8.005V5.505H8.50195V8.005C8.50195 8.13761 8.44924 8.26475 8.35547 8.35852C8.2617 8.45229 8.13456 8.505 8.00195 8.505C7.86934 8.505 7.74172 8.45229 7.64795 8.35852C7.55418 8.26475 7.50195 8.13761 7.50195 8.005V5.505H6.00195C5.8048 5.50474 5.60947 5.54302 5.42725 5.61829C5.24503 5.69355 5.07944 5.80417 4.93994 5.94348C4.80044 6.0828 4.68976 6.24818 4.61426 6.4303C4.53875 6.61242 4.49951 6.80785 4.49951 7.005H4.50195ZM11.8115 18.963C11.7504 18.9396 11.696 18.9024 11.6519 18.8541C11.6033 18.8099 11.5645 18.7558 11.5386 18.6954C11.5127 18.6351 11.5005 18.5697 11.502 18.504C11.5011 18.4382 11.5137 18.3727 11.5396 18.3121C11.5654 18.2515 11.6038 18.197 11.6519 18.152C11.7453 18.0604 11.8711 18.0089 12.002 18.0089C12.1328 18.0089 12.2581 18.0604 12.3516 18.152C12.3997 18.197 12.438 18.2515 12.4639 18.3121C12.4897 18.3727 12.5028 18.4382 12.502 18.504C12.4991 18.6358 12.4452 18.761 12.3521 18.8541C12.2589 18.9473 12.1337 19.0012 12.002 19.004C11.9357 19.0071 11.8693 18.9937 11.8096 18.965L11.8115 18.963ZM7.81152 18.963C7.74976 18.9398 7.69466 18.9026 7.6499 18.8541C7.60131 18.8099 7.5625 18.7558 7.53662 18.6954C7.51074 18.6351 7.49801 18.5697 7.49951 18.504C7.49868 18.4382 7.51177 18.3727 7.5376 18.3121C7.56342 18.2515 7.60181 18.197 7.6499 18.152C7.74593 18.061 7.87312 18.0104 8.00537 18.0104C8.13762 18.0104 8.26482 18.061 8.36084 18.152C8.45015 18.2466 8.5 18.3719 8.5 18.5021C8.5 18.6322 8.45015 18.757 8.36084 18.8517C8.31278 18.9 8.25484 18.9375 8.19092 18.9611C8.13183 18.9898 8.06663 19.0036 8.00098 19.0011C7.93563 19.0052 7.86988 18.9926 7.81055 18.965L7.81152 18.963ZM15.8115 15.963C15.7496 15.9418 15.6949 15.9042 15.6528 15.8541C15.602 15.811 15.5634 15.755 15.5415 15.692C15.5137 15.6333 15.5004 15.569 15.502 15.504C15.501 15.4384 15.5137 15.3734 15.5396 15.3131C15.5654 15.2528 15.6037 15.1985 15.6519 15.1539C15.7474 15.0624 15.8745 15.0114 16.0068 15.0114C16.1391 15.0114 16.2663 15.0624 16.3618 15.1539C16.407 15.2002 16.4428 15.255 16.4668 15.3151C16.4908 15.3751 16.5028 15.4394 16.502 15.504C16.5044 15.569 16.4906 15.6336 16.4619 15.692C16.4413 15.7529 16.407 15.8084 16.3618 15.8541C16.3137 15.9023 16.2558 15.9394 16.1919 15.963C16.1328 15.9917 16.0676 16.0055 16.002 16.0031C15.9356 16.0054 15.8691 15.9923 15.8086 15.965L15.8115 15.963ZM11.8115 15.963C11.7505 15.9394 11.6961 15.9023 11.6519 15.8541C11.6033 15.8099 11.5649 15.7553 11.5391 15.6949C11.5132 15.6346 11.5005 15.5697 11.502 15.504C11.501 15.4384 11.5137 15.3734 11.5396 15.3131C11.5654 15.2528 11.6037 15.1985 11.6519 15.1539C11.7475 15.0623 11.8749 15.0114 12.0073 15.0114C12.1398 15.0114 12.2671 15.0623 12.3628 15.1539C12.4533 15.2479 12.5037 15.3736 12.5029 15.504C12.5045 15.6346 12.454 15.7606 12.3628 15.8541C12.3146 15.9022 12.2567 15.9393 12.1929 15.963C12.1338 15.9917 12.0686 16.0055 12.0029 16.0031C11.9365 16.0057 11.87 15.9926 11.8096 15.965L11.8115 15.963ZM7.81152 15.963C7.74986 15.9396 7.69481 15.9024 7.6499 15.8541C7.6022 15.8092 7.56389 15.7547 7.53809 15.6945C7.51228 15.6342 7.49914 15.5695 7.49951 15.504C7.49859 15.4384 7.51176 15.3734 7.5376 15.3131C7.56344 15.2528 7.60177 15.1985 7.6499 15.1539C7.74337 15.0623 7.86864 15.0109 7.99951 15.0109C8.13039 15.0109 8.25614 15.0623 8.34961 15.1539C8.39805 15.1983 8.43654 15.2523 8.4624 15.3126C8.48827 15.373 8.50082 15.4384 8.49951 15.504C8.50128 15.5697 8.48879 15.635 8.46289 15.6954C8.437 15.7559 8.39841 15.8101 8.34961 15.8541C8.30709 15.9042 8.25214 15.9418 8.18994 15.963C8.13085 15.9917 8.06517 16.0055 7.99951 16.0031C7.93433 16.0063 7.8694 15.9932 7.81055 15.965L7.81152 15.963Z" fill="white"/>
</svg>
