<svg width="24" height="25" viewBox="0 0 24 25" fill="none" xmlns="http://www.w3.org/2000/svg">
<path d="M1.49805 12.0051C1.49805 9.92836 2.11431 7.89829 3.26807 6.17157C4.42182 4.44485 6.06136 3.0991 7.97998 2.30438C9.8986 1.50966 12.0101 1.30158 14.0469 1.70673C16.0837 2.11187 17.9544 3.11181 19.4229 4.58026C20.8913 6.04871 21.8912 7.91993 22.2964 9.95673C22.7015 11.9935 22.4939 14.1045 21.6992 16.0231C20.9045 17.9418 19.5583 19.5818 17.8315 20.7355C16.1048 21.8893 14.0748 22.5051 11.998 22.5051C9.21425 22.5019 6.54559 21.3944 4.57715 19.426C2.6087 17.4575 1.50122 14.7889 1.49805 12.0051ZM2.49805 12.0051C2.49805 13.884 3.05525 15.7206 4.09912 17.2829C5.14299 18.8452 6.62689 20.0629 8.36279 20.7819C10.0987 21.501 12.0087 21.689 13.8516 21.3224C15.6944 20.9559 17.3872 20.0509 18.7158 18.7224C20.0444 17.3938 20.9494 15.7009 21.3159 13.8581C21.6825 12.0153 21.4939 10.1052 20.7749 8.36932C20.0559 6.63343 18.8386 5.15001 17.2764 4.10614C15.7141 3.06227 13.877 2.50507 11.998 2.50507C9.47964 2.50851 7.06585 3.51032 5.28516 5.2912C3.50446 7.07208 2.50269 9.48666 2.49951 12.0051H2.49805ZM15.6304 17.842L12.9175 14.8849C12.8749 14.8367 12.8225 14.7979 12.7642 14.7707C12.7058 14.7435 12.6425 14.7283 12.5781 14.7267H8.67334C8.36319 14.7206 8.06248 14.6192 7.81201 14.4362C7.56155 14.2532 7.37356 13.9974 7.27344 13.7038L6.54346 11.7101C6.53341 11.6878 6.52466 11.6644 6.51807 11.6408L5.60107 9.14081C5.5351 8.95766 5.50166 8.76468 5.50146 8.57001V6.50507C5.50146 6.37246 5.55418 6.24532 5.64795 6.15155C5.74172 6.05778 5.86886 6.00507 6.00146 6.00507C6.13407 6.00507 6.26121 6.05778 6.35498 6.15155C6.44875 6.24532 6.50146 6.37246 6.50146 6.50507V8.56805C6.50225 8.64721 6.51644 8.72559 6.54346 8.79999L7.35107 11.006H11.5024C11.7067 11.0122 11.9076 11.0585 12.0938 11.1428C12.2799 11.227 12.4475 11.3474 12.5869 11.4968C12.7264 11.6462 12.835 11.8218 12.9062 12.0134C12.9775 12.2049 13.0103 12.4088 13.0024 12.613C12.9975 12.7423 12.9424 12.8646 12.8491 12.9543C12.7559 13.044 12.6318 13.094 12.5024 13.0939H12.4814C12.4158 13.0912 12.3511 13.0757 12.2915 13.048C12.2319 13.0204 12.1783 12.9812 12.1338 12.9328C12.0893 12.8844 12.0548 12.8276 12.0322 12.7658C12.0097 12.7041 11.9996 12.6386 12.0024 12.5729C12.0076 12.4287 11.9556 12.2885 11.8579 12.1823C11.7602 12.0762 11.6246 12.0128 11.4805 12.006H7.71729L8.21729 13.3742C8.24916 13.4748 8.31131 13.5626 8.39551 13.6262C8.47971 13.6898 8.58203 13.726 8.6875 13.7292H12.5874C12.7901 13.7312 12.9897 13.7754 13.1743 13.8591C13.3589 13.9428 13.5241 14.0639 13.6592 14.215L16.1045 16.8801L17.7603 15.9802C17.818 15.9442 17.8824 15.92 17.9497 15.9099C18.017 15.8997 18.0856 15.9033 18.1514 15.9206C18.2172 15.9379 18.2789 15.9685 18.3325 16.0104C18.3861 16.0523 18.4307 16.105 18.4634 16.1647C18.496 16.2244 18.5161 16.2899 18.5225 16.3576C18.5288 16.4253 18.521 16.4936 18.5 16.5583C18.479 16.623 18.4453 16.6829 18.4004 16.7341C18.3555 16.7852 18.3007 16.8269 18.2393 16.8561L16.2393 17.9479C16.1654 17.9886 16.0823 18.0099 15.998 18.0099C15.9288 18.009 15.8609 17.9938 15.7979 17.965C15.7348 17.9363 15.6784 17.8946 15.6323 17.843L15.6304 17.842Z" fill="white"/>
</svg>
