<svg width="24" height="25" viewBox="0 0 24 25" fill="none" xmlns="http://www.w3.org/2000/svg">
<path d="M4.00195 19.505C3.33891 19.505 2.70273 19.2414 2.23389 18.7726C1.76505 18.3037 1.50195 17.668 1.50195 17.005V7.005C1.50195 6.34196 1.76505 5.70578 2.23389 5.23694C2.70273 4.7681 3.33891 4.505 4.00195 4.505H20.002C20.665 4.505 21.3007 4.7681 21.7695 5.23694C22.2384 5.70578 22.502 6.34196 22.502 7.005V17.005C22.502 17.668 22.2384 18.3037 21.7695 18.7726C21.3007 19.2414 20.665 19.505 20.002 19.505H4.00195ZM2.50195 17.005C2.50195 17.4028 2.65961 17.7842 2.94092 18.0656C3.22222 18.3469 3.60413 18.505 4.00195 18.505H20.002C20.3998 18.505 20.7812 18.3469 21.0625 18.0656C21.3438 17.7842 21.502 17.4028 21.502 17.005V12.3151H2.50195V17.005ZM21.502 11.3151V9.31506H2.50195V11.3151H21.502ZM21.502 8.31506V7.005C21.502 6.60718 21.3438 6.22576 21.0625 5.94446C20.7812 5.66315 20.3998 5.505 20.002 5.505H4.00195C3.60413 5.505 3.22222 5.66315 2.94092 5.94446C2.65961 6.22576 2.50195 6.60718 2.50195 7.005V8.31506H21.502Z" fill="white"/>
</svg>
