<svg width="40" height="40" viewBox="0 0 40 40" fill="none" xmlns="http://www.w3.org/2000/svg">
<g clip-path="url(#clip0_204_65141)">
<path d="M30.6681 28.921H34.9341V31.969C34.9202 32.5211 34.6878 33.045 34.2878 33.4258C33.8879 33.8066 33.3532 34.0131 32.8011 34C32.249 34.0131 31.7143 33.8066 31.3144 33.4258C30.9144 33.045 30.682 32.5211 30.6681 31.969V28.921V28.921Z" stroke="white" stroke-width="2" stroke-linejoin="round"/>
<path d="M5.06799 28.921H9.33399V31.969C9.32011 32.5211 9.08767 33.045 8.68774 33.4258C8.2878 33.8066 7.75307 34.0131 7.20099 34V34C6.64892 34.0131 6.11419 33.8066 5.71425 33.4258C5.31432 33.045 5.08188 32.5211 5.06799 31.969V28.921Z" stroke="white" stroke-width="2" stroke-linejoin="round"/>
<path d="M7.35404 15.751H32.648L34.835 18.1C35.5857 18.9095 36.0023 19.973 36.001 21.077V26.585C36.0033 26.8674 35.9499 27.1474 35.8439 27.4091C35.7379 27.6708 35.5814 27.9091 35.3834 28.1103C35.1853 28.3115 34.9495 28.4718 34.6895 28.5819C34.4295 28.692 34.1504 28.7498 33.868 28.752H6.13404C5.8517 28.7498 5.57256 28.692 5.31256 28.5819C5.05256 28.4718 4.81679 28.3115 4.61872 28.1103C4.42065 27.9091 4.26416 27.6708 4.15818 27.4091C4.0522 27.1474 3.9988 26.8674 4.00104 26.585V21.053C4.00003 19.9415 4.42231 18.8713 5.18204 18.06L7.35404 15.751Z" stroke="white" stroke-width="2" stroke-linejoin="round"/>
<path d="M13.4941 6H26.508C27.4071 6.00406 28.282 6.29167 29.0081 6.82188C29.7342 7.35208 30.2745 8.09785 30.5521 8.953L32.801 15.753H7.20105L9.45005 8.953C9.72763 8.09785 10.2679 7.35208 10.994 6.82188C11.7201 6.29167 12.595 6.00406 13.4941 6V6Z" stroke="white" stroke-width="2" stroke-linejoin="round"/>
<path d="M16.801 24.418H23.201C23.7712 24.4228 24.3161 24.6537 24.7161 25.06C25.116 25.4664 25.3383 26.0149 25.334 26.585V28.752H14.668V26.585C14.6638 26.0149 14.886 25.4664 15.286 25.06C15.686 24.6537 16.2309 24.4228 16.801 24.418Z" stroke="white" stroke-width="2" stroke-linejoin="round"/>
<path d="M30.1341 20.085H31.2011C31.4129 20.0866 31.6223 20.1298 31.8173 20.2124C32.0124 20.2949 32.1892 20.4151 32.3378 20.566C32.4864 20.7169 32.6038 20.8956 32.6833 21.0919C32.7628 21.2882 32.8028 21.4982 32.8011 21.71V21.71C32.8043 22.1376 32.6375 22.549 32.3375 22.8537C32.0375 23.1585 31.6287 23.3316 31.2011 23.335H30.1341C29.7065 23.3316 29.2977 23.1585 28.9977 22.8537C28.6977 22.549 28.5309 22.1376 28.5341 21.71C28.5309 21.2824 28.6977 20.871 28.9977 20.5663C29.2977 20.2615 29.7065 20.0884 30.1341 20.085V20.085Z" stroke="white" stroke-width="2" stroke-linejoin="round"/>
<path d="M8.8011 20.085H9.8681C10.2957 20.0884 10.7045 20.2615 11.0045 20.5663C11.3046 20.871 11.4713 21.2824 11.4681 21.71V21.71C11.4713 22.1376 11.3046 22.549 11.0045 22.8537C10.7045 23.1585 10.2957 23.3316 9.8681 23.335H8.8011C8.37348 23.3316 7.96472 23.1585 7.66469 22.8537C7.36466 22.549 7.19791 22.1376 7.2011 21.71V21.71C7.19939 21.4982 7.23942 21.2882 7.31892 21.0919C7.39841 20.8956 7.5158 20.7169 7.66439 20.566C7.81298 20.4151 7.98985 20.2949 8.18489 20.2124C8.37993 20.1298 8.58933 20.0866 8.8011 20.085V20.085Z" stroke="white" stroke-width="2" stroke-linejoin="round"/>
<path d="M32.8011 15.751H34.9341C35.0752 15.75 35.2148 15.7211 35.3448 15.6661C35.4749 15.6111 35.5928 15.5311 35.6919 15.4305C35.791 15.3299 35.8693 15.2108 35.9223 15.08C35.9754 14.9492 36.0021 14.8092 36.0011 14.668V13.584C36.0023 13.4427 35.9756 13.3026 35.9226 13.1717C35.8696 13.0408 35.7913 12.9215 35.6922 12.8209C35.5931 12.7202 35.4752 12.64 35.3451 12.585C35.215 12.5299 35.0753 12.501 34.9341 12.5H32.2681" stroke="white" stroke-width="2" stroke-linecap="round"/>
<path d="M7.20101 15.751H5.06801C4.92684 15.75 4.78726 15.7211 4.65723 15.6661C4.52721 15.6111 4.40929 15.5311 4.31021 15.4305C4.21113 15.3299 4.13283 15.2108 4.07977 15.08C4.02672 14.9492 3.99996 14.8092 4.00101 14.668V13.584C3.99983 13.4427 4.02649 13.3026 4.07949 13.1717C4.13248 13.0408 4.21076 12.9215 4.30985 12.8209C4.40895 12.7202 4.52691 12.64 4.657 12.585C4.78709 12.5299 4.92676 12.501 5.06801 12.5H7.73401" stroke="white" stroke-width="2" stroke-linecap="round"/>
</g>
<defs>
<clipPath id="clip0_204_65141">
<rect width="40" height="40" fill="white"/>
</clipPath>
</defs>
</svg>
