<svg width="24" height="25" viewBox="0 0 24 25" fill="none" xmlns="http://www.w3.org/2000/svg">
<path d="M4.83984 20.4708C4.7466 20.4342 4.66639 20.3705 4.60986 20.2877C4.55334 20.205 4.52321 20.1072 4.52295 20.007V16.507H4.00195C3.33891 16.507 2.70273 16.2434 2.23389 15.7745C1.76505 15.3057 1.50195 14.67 1.50195 14.007V6.00696C1.50195 5.34392 1.76505 4.70822 2.23389 4.23938C2.70273 3.77054 3.33891 3.50696 4.00195 3.50696H20.002C20.665 3.50696 21.3007 3.77054 21.7695 4.23938C22.2384 4.70822 22.502 5.34392 22.502 6.00696V14.007C22.502 14.67 22.2384 15.3057 21.7695 15.7745C21.3007 16.2434 20.665 16.507 20.002 16.507H8.99072L5.38477 20.3468C5.31705 20.421 5.2279 20.4727 5.12988 20.4948C5.03186 20.5168 4.92985 20.508 4.83691 20.4698L4.83984 20.4708ZM2.50195 6.00696V14.007C2.50195 14.4048 2.65961 14.7862 2.94092 15.0675C3.22222 15.3488 3.60413 15.507 4.00195 15.507H5.02295C5.15556 15.507 5.2827 15.5597 5.37646 15.6534C5.47023 15.7472 5.52295 15.8743 5.52295 16.007V18.7418L8.41064 15.6637C8.45732 15.6139 8.51357 15.5747 8.57617 15.5475C8.63877 15.5203 8.70666 15.5061 8.7749 15.506H20.0005C20.3983 15.506 20.7802 15.3478 21.0615 15.0665C21.3428 14.7852 21.5005 14.4038 21.5005 14.006V6.00598C21.5005 5.60816 21.3428 5.22674 21.0615 4.94543C20.7802 4.66413 20.3983 4.50598 20.0005 4.50598H4.00049C3.60301 4.50625 3.22198 4.66437 2.94092 4.94543C2.65986 5.22649 2.50222 5.60753 2.50195 6.005V6.00696ZM13.002 10.899C12.8693 10.899 12.7417 10.8463 12.6479 10.7526C12.5542 10.6588 12.502 10.5317 12.502 10.399C12.502 10.2664 12.5542 10.1393 12.6479 10.0455C12.7417 9.95176 12.8693 9.89905 13.002 9.89905H19.002C19.1346 9.89905 19.2617 9.95176 19.3555 10.0455C19.4492 10.1393 19.502 10.2664 19.502 10.399C19.502 10.5317 19.4492 10.6588 19.3555 10.7526C19.2617 10.8463 19.1346 10.899 19.002 10.899H13.002ZM11.002 7.73206C10.8693 7.73206 10.7417 7.67934 10.6479 7.58557C10.5542 7.4918 10.502 7.36466 10.502 7.23206C10.502 7.09945 10.5542 6.97231 10.6479 6.87854C10.7417 6.78477 10.8693 6.73206 11.002 6.73206H19.002C19.1346 6.73206 19.2617 6.78477 19.3555 6.87854C19.4492 6.97231 19.502 7.09945 19.502 7.23206C19.502 7.36466 19.4492 7.4918 19.3555 7.58557C19.2617 7.67934 19.1346 7.73206 19.002 7.73206H11.002Z" fill="white"/>
</svg>
