<svg width="24" height="25" viewBox="0 0 24 25" fill="none" xmlns="http://www.w3.org/2000/svg">
<path d="M4 19.505C3.33696 19.505 2.70126 19.2414 2.23242 18.7726C1.76358 18.3037 1.5 17.668 1.5 17.005V7.005C1.5 6.34196 1.76358 5.70578 2.23242 5.23694C2.70126 4.7681 3.33696 4.505 4 4.505H13.7661C14.3734 4.50612 14.9595 4.72829 15.415 5.13L21.9883 10.8678C22.0393 10.9148 22.0884 10.9599 22.1284 11.0089C22.2586 11.1571 22.358 11.3294 22.4214 11.5162C22.4848 11.703 22.5106 11.9005 22.4976 12.0973C22.4846 12.2941 22.4331 12.4864 22.3457 12.6632C22.2583 12.84 22.1368 12.9982 21.9883 13.1281L15.4131 18.88C14.9583 19.2798 14.3745 19.502 13.769 19.506L4 19.505ZM2.5 7.005V17.005C2.5 17.4028 2.65815 17.7842 2.93945 18.0656C3.22076 18.3469 3.60218 18.505 4 18.505H13.7661C14.13 18.504 14.4815 18.3707 14.7544 18.13L21.3301 12.3781C21.3797 12.3349 21.4204 12.2821 21.4497 12.2233C21.479 12.1644 21.4964 12.1009 21.501 12.0353C21.5055 11.9697 21.4975 11.9037 21.4766 11.8414C21.4556 11.7791 21.4226 11.7215 21.3794 11.672L14.7563 5.88196C14.4832 5.64007 14.131 5.50608 13.7661 5.505H4C3.80302 5.505 3.60826 5.54388 3.42627 5.61926C3.24428 5.69464 3.07874 5.80517 2.93945 5.94446C2.80017 6.08375 2.68964 6.2488 2.61426 6.43079C2.53888 6.61277 2.5 6.80802 2.5 7.005V7.005ZM10.6484 14.359L9.00146 12.712L7.354 14.359C7.30756 14.4056 7.25264 14.4422 7.19189 14.4674C7.13115 14.4926 7.06577 14.506 7 14.506C6.93423 14.506 6.86934 14.4926 6.80859 14.4674C6.74785 14.4422 6.69244 14.4056 6.646 14.359C6.59943 14.3126 6.5628 14.2572 6.5376 14.1964C6.51239 14.1357 6.49951 14.0708 6.49951 14.005C6.49951 13.9392 6.51239 13.8739 6.5376 13.8131C6.5628 13.7524 6.59943 13.6974 6.646 13.651L8.29346 12.006L6.646 10.359C6.55211 10.2651 6.49951 10.1378 6.49951 10.005C6.49951 9.87223 6.55211 9.74489 6.646 9.651C6.73988 9.55711 6.86722 9.50452 7 9.50452C7.13278 9.50452 7.26012 9.55711 7.354 9.651L9.00146 11.298L10.6484 9.651C10.7429 9.56005 10.8689 9.50954 11 9.51086C11.1311 9.51219 11.2565 9.565 11.3491 9.65784C11.4417 9.75068 11.4942 9.87634 11.4951 10.0074C11.4961 10.1386 11.4452 10.2648 11.354 10.359L9.70703 12.006L11.354 13.651C11.4006 13.6974 11.4377 13.7524 11.4629 13.8131C11.4881 13.8739 11.501 13.9392 11.501 14.005C11.501 14.0708 11.4881 14.1357 11.4629 14.1964C11.4377 14.2572 11.4006 14.3126 11.354 14.359C11.2603 14.4524 11.1338 14.505 11.0015 14.505C10.8691 14.505 10.7422 14.4524 10.6484 14.359V14.359Z" fill="white"/>
</svg>
