<svg width="24" height="25" viewBox="0 0 24 25" fill="none" xmlns="http://www.w3.org/2000/svg">
<path d="M1.49805 12.0051C1.49805 9.92836 2.11431 7.89829 3.26807 6.17157C4.42182 4.44485 6.06136 3.0991 7.97998 2.30438C9.8986 1.50966 12.0101 1.30158 14.0469 1.70673C16.0837 2.11187 17.9544 3.11181 19.4229 4.58026C20.8913 6.04871 21.8912 7.91993 22.2964 9.95673C22.7015 11.9935 22.4939 14.1045 21.6992 16.0231C20.9045 17.9418 19.5583 19.5818 17.8315 20.7355C16.1048 21.8893 14.0748 22.5051 11.998 22.5051C9.21425 22.5019 6.54559 21.3944 4.57715 19.426C2.6087 17.4575 1.50122 14.7889 1.49805 12.0051ZM2.49805 12.0051C2.49805 13.884 3.05525 15.7206 4.09912 17.2829C5.14299 18.8452 6.62689 20.0629 8.36279 20.7819C10.0987 21.501 12.0087 21.689 13.8516 21.3224C15.6944 20.9559 17.3872 20.0509 18.7158 18.7224C20.0444 17.3938 20.9494 15.7009 21.3159 13.8581C21.6825 12.0153 21.4939 10.1052 20.7749 8.36932C20.0559 6.63343 18.8386 5.15001 17.2764 4.10614C15.7141 3.06227 13.877 2.50507 11.998 2.50507C9.47964 2.50851 7.06585 3.51032 5.28516 5.2912C3.50446 7.07208 2.50269 9.48666 2.49951 12.0051H2.49805ZM7.83105 14.7819C7.75774 14.6715 7.73156 14.5364 7.75781 14.4064C7.78407 14.2765 7.86074 14.1624 7.97119 14.0891L11.4995 11.738V7.00507C11.4995 6.87246 11.5517 6.74532 11.6455 6.65155C11.7393 6.55778 11.8669 6.50507 11.9995 6.50507C12.1321 6.50507 12.2593 6.55778 12.353 6.65155C12.4468 6.74532 12.4995 6.87246 12.4995 7.00507V12.0051C12.4993 12.0874 12.4786 12.1682 12.4399 12.2409C12.4012 12.3136 12.3455 12.3759 12.2773 12.4221L8.52637 14.9221C8.47163 14.9585 8.41023 14.9836 8.3457 14.9963C8.28118 15.009 8.21486 15.0088 8.15039 14.9958C8.08592 14.9828 8.02429 14.9573 7.96973 14.9206C7.91517 14.8839 7.86884 14.8367 7.83252 14.7819H7.83105Z" fill="white"/>
</svg>
