<svg width="24" height="25" viewBox="0 0 24 25" fill="none" xmlns="http://www.w3.org/2000/svg">
<g opacity="0.15">
<path opacity="0.15" d="M12 22.0426C17.5228 22.0426 22 17.5655 22 12.0426C22 6.51975 17.5228 2.0426 12 2.0426C6.47715 2.0426 2 6.51975 2 12.0426C2 17.5655 6.47715 22.0426 12 22.0426Z" fill="#E54660"/>
</g>
<path d="M15.889 8.4466C16.0765 8.63413 16.1818 8.88843 16.1818 9.15359C16.1818 9.41876 16.0765 9.67307 15.889 9.8606L9.52499 16.2246C9.33747 16.4121 9.08316 16.5174 8.81799 16.5174C8.55283 16.5174 8.29852 16.4121 8.11099 16.2246C7.92352 16.0371 7.81821 15.7828 7.81821 15.5176C7.81821 15.2524 7.92352 14.9981 8.11099 14.8106L14.475 8.4466C14.6625 8.25913 14.9168 8.15381 15.182 8.15381C15.4472 8.15381 15.7015 8.25913 15.889 8.4466Z" fill="#E54660"/>
<path d="M15.889 16.2246C15.7015 16.4121 15.4472 16.5174 15.182 16.5174C14.9168 16.5174 14.6625 16.4121 14.475 16.2246L8.11099 9.8606C7.92352 9.67307 7.81821 9.41876 7.81821 9.15359C7.81821 8.88843 7.92352 8.63413 8.11099 8.4466C8.29852 8.25913 8.55283 8.15381 8.81799 8.15381C9.08316 8.15381 9.33747 8.25913 9.52499 8.4466L15.889 14.8106C16.0765 14.9981 16.1818 15.2524 16.1818 15.5176C16.1818 15.7828 16.0765 16.0371 15.889 16.2246Z" fill="#E54660"/>
</svg>
