<svg width="24" height="24" viewBox="0 0 24 24" fill="none" xmlns="http://www.w3.org/2000/svg">
<path d="M16 16.7214V19C16 20.1046 15.1046 21 14 21H6C4.89543 21 4 20.1046 4 19V8C4 6.89543 4.89543 6 6 6H14C15.1046 6 16 6.89543 16 8V13.6474" stroke="white" stroke-linecap="round" stroke-linejoin="round"/>
<path d="M16 18H17C18.1046 18 19 17.1046 19 16V14M7 6V5C7 3.89543 7.89543 3 9 3H17C18.1046 3 19 3.89543 19 5V10.7743" stroke="white" stroke-linecap="round" stroke-linejoin="round"/>
<path d="M7 11H13M9.04219 13H13M7 9H13M7 18H9" stroke="white" stroke-linecap="round" stroke-linejoin="round"/>
<path d="M18.9444 10.9445L20.4444 12.4445M13 18L13.5 16L19.7938 10.1557C20.188 9.78971 20.8011 9.80106 21.1814 10.1814L21.2662 10.2662C21.667 10.667 21.6549 11.3204 21.2396 11.7061L15 17.5L13 18Z" stroke="white" stroke-linecap="round" stroke-linejoin="round"/>
</svg>
