<svg width="24" height="25" viewBox="0 0 24 25" fill="none" xmlns="http://www.w3.org/2000/svg">
<path d="M8.875 22.505C8.29909 22.504 7.74147 22.3043 7.29541 21.9401C6.84935 21.5758 6.54237 21.0691 6.42627 20.505H6C5.33696 20.505 4.70126 20.2414 4.23242 19.7726C3.76358 19.3037 3.5 18.668 3.5 18.005V4.005C3.5 3.34196 3.76358 2.70578 4.23242 2.23694C4.70126 1.7681 5.33696 1.505 6 1.505H15.7515C17.527 2.74419 19.0891 4.26405 20.3765 6.005V20.005C20.3765 20.668 20.1129 21.3037 19.644 21.7726C19.1752 22.2414 18.5395 22.505 17.8765 22.505H8.875ZM8.875 21.505H17.875C18.2728 21.505 18.6547 21.3469 18.936 21.0656C19.2173 20.7842 19.375 20.4028 19.375 20.005V6.005C19.375 5.67266 19.265 5.34984 19.0615 5.08704C18.8581 4.82423 18.5732 4.63616 18.2515 4.55286V16.005C18.2515 16.013 18.2515 16.0219 18.2515 16.0299C18.2444 16.1617 18.1853 16.2856 18.0874 16.3741L14.1172 20.3439C14.0621 20.4031 13.9933 20.4479 13.917 20.4747V20.4747L13.8975 20.4811H13.8892H13.873H13.8633H13.8491H13.8374H13.8242H7.46143C7.56077 20.778 7.75033 21.0362 8.00391 21.2198C8.25748 21.4035 8.56192 21.5032 8.875 21.505V21.505ZM4.50146 4.005V18.005C4.50146 18.4028 4.65913 18.7842 4.94043 19.0656C5.22173 19.3469 5.60364 19.505 6.00146 19.505H13.2515V16.005C13.2515 15.8724 13.3037 15.7453 13.3975 15.6515C13.4912 15.5577 13.6189 15.505 13.7515 15.505H17.2515V4.005C17.2515 3.60718 17.0933 3.22576 16.812 2.94446C16.5307 2.66315 16.1493 2.505 15.7515 2.505H6C5.60235 2.50527 5.22152 2.66318 4.94043 2.94446C4.65934 3.22573 4.50146 3.60735 4.50146 4.005V4.005ZM14.2515 18.798L16.5444 16.505H14.2515V18.798ZM10.3774 12.5538C10.2448 12.5538 10.1172 12.5011 10.0234 12.4073C9.92967 12.3136 9.87744 12.1864 9.87744 12.0538C9.87744 11.9212 9.92967 11.7941 10.0234 11.7003C10.1172 11.6065 10.2448 11.5538 10.3774 11.5538H14.3774C14.51 11.5538 14.6372 11.6065 14.731 11.7003C14.8247 11.7941 14.8774 11.9212 14.8774 12.0538C14.8774 12.1864 14.8247 12.3136 14.731 12.4073C14.6372 12.5011 14.51 12.5538 14.3774 12.5538H10.3774ZM7.37744 9.55383C7.24483 9.55383 7.11721 9.50112 7.02344 9.40735C6.92967 9.31358 6.87744 9.18644 6.87744 9.05383C6.87744 8.92122 6.92967 8.79409 7.02344 8.70032C7.11721 8.60655 7.24483 8.55383 7.37744 8.55383H14.3774C14.51 8.55383 14.6372 8.60655 14.731 8.70032C14.8247 8.79409 14.8774 8.92122 14.8774 9.05383C14.8774 9.18644 14.8247 9.31358 14.731 9.40735C14.6372 9.50112 14.51 9.55383 14.3774 9.55383H7.37744ZM7.37744 6.45374C7.24483 6.45374 7.11721 6.40102 7.02344 6.30725C6.92967 6.21348 6.87744 6.08634 6.87744 5.95374C6.87744 5.82113 6.92967 5.69399 7.02344 5.60022C7.11721 5.50645 7.24483 5.45374 7.37744 5.45374H14.3774C14.51 5.45374 14.6372 5.50645 14.731 5.60022C14.8247 5.69399 14.8774 5.82113 14.8774 5.95374C14.8774 6.08634 14.8247 6.21348 14.731 6.30725C14.6372 6.40102 14.51 6.45374 14.3774 6.45374H7.37744Z" fill="white"/>
</svg>
