<svg width="24" height="25" viewBox="0 0 24 25" fill="none" xmlns="http://www.w3.org/2000/svg">
<path d="M16.2705 17.1134C14.6694 17.7587 12.9051 17.8807 11.2305 17.4616C10.5524 17.2526 9.89707 16.9757 9.27444 16.6354C8.33945 16.0873 7.29546 15.7512 6.21633 15.6505C5.2823 15.5874 4.34516 15.708 3.45754 16.0055C3.26937 16.0658 3.07092 16.088 2.87404 16.0714C2.67717 16.0549 2.48551 15.9997 2.31008 15.9088C2.13465 15.818 1.97871 15.6934 1.85158 15.5421C1.72446 15.3909 1.62871 15.2159 1.56936 15.0275C1.52183 14.8822 1.49757 14.7301 1.49807 14.5773V7.5773C1.4965 7.28325 1.58241 6.99524 1.74416 6.74967C1.90592 6.5041 2.13647 6.31208 2.40725 6.19742C3.62819 5.67443 4.95449 5.44412 6.28029 5.52457C7.49427 5.6325 8.66954 6.00573 9.72317 6.61832C10.285 6.92545 10.8756 7.17695 11.4863 7.3693C13.4745 7.8066 15.5546 7.46807 17.3013 6.42252C17.529 6.30235 17.7836 6.24282 18.041 6.24967C18.2984 6.25651 18.55 6.32948 18.771 6.46158C18.992 6.59369 19.1753 6.7806 19.3032 7.00406C19.4312 7.22752 19.4995 7.47998 19.5015 7.73746V11.1022C20.3577 11.2598 21.1295 11.7172 21.6792 12.3922C22.2289 13.0673 22.5206 13.9159 22.5015 14.7863C22.5287 15.7434 22.1755 16.6723 21.5196 17.3698C20.8636 18.0673 19.9584 18.4768 19.0015 18.5085C18.4691 18.5043 17.9448 18.3761 17.4707 18.1339C16.9966 17.8918 16.5859 17.5423 16.2705 17.1134V17.1134ZM18.9995 17.5085C19.5473 17.5548 20.0959 17.4346 20.5742 17.1637C21.0526 16.8929 21.4381 16.4839 21.6802 15.9904C21.9223 15.4968 22.0098 14.9417 21.9312 14.3976C21.8525 13.8535 21.6117 13.3459 21.2398 12.9411C20.8678 12.5363 20.3822 12.2534 19.8467 12.1291C19.3112 12.0047 18.7505 12.0448 18.2383 12.2443C17.7261 12.4438 17.2864 12.7935 16.9761 13.2472C16.6658 13.701 16.4997 14.2375 16.4995 14.7873C16.4978 15.2918 16.6284 15.788 16.8784 16.2262C16.8834 16.2342 16.8881 16.2436 16.8931 16.2516C17.1035 16.6269 17.4088 16.9404 17.7783 17.1608C18.1479 17.3812 18.5693 17.5007 18.9995 17.5075V17.5085ZM6.28615 14.6515C7.49924 14.7607 8.67364 15.1339 9.72707 15.7453C10.2883 16.0537 10.8791 16.3052 11.4903 16.4962C12.912 16.851 14.4087 16.7594 15.7764 16.2336C15.5938 15.7734 15.5005 15.2824 15.5015 14.7873C15.4824 13.9169 15.7735 13.0683 16.3233 12.3932C16.873 11.7182 17.6453 11.2607 18.5015 11.1032V7.7443C18.5 7.65883 18.4762 7.57547 18.4331 7.50162C18.3901 7.42777 18.329 7.36585 18.2554 7.32242C18.1818 7.27899 18.0982 7.25553 18.0127 7.25357C17.9273 7.25162 17.8426 7.27117 17.7671 7.31119C15.795 8.47756 13.4508 8.84299 11.2173 8.33219C10.5438 8.12385 9.89298 7.8487 9.27444 7.51041C8.34002 6.9623 7.29678 6.62559 6.21828 6.52359C5.04914 6.45597 3.88024 6.661 2.80422 7.1232C2.71439 7.16084 2.63794 7.2244 2.58449 7.30582C2.53104 7.38724 2.50322 7.48284 2.50442 7.58023V14.5802C2.50357 14.6715 2.52787 14.7614 2.57522 14.8395C2.62256 14.9176 2.69113 14.9811 2.77248 15.0226C2.83048 15.0535 2.89402 15.0721 2.95949 15.0778C3.02497 15.0835 3.09089 15.0758 3.15334 15.0553C3.99186 14.7769 4.86989 14.6354 5.75344 14.6364C5.93044 14.6344 6.10811 14.6395 6.28811 14.6505L6.28615 14.6515ZM18.4995 15.3244V14.2502C18.4995 14.1175 18.5518 13.9904 18.6455 13.8966C18.7393 13.8029 18.8669 13.7502 18.9995 13.7502C19.1321 13.7502 19.2593 13.8029 19.353 13.8966C19.4468 13.9904 19.4995 14.1175 19.4995 14.2502V15.3244C19.4995 15.457 19.4468 15.5841 19.353 15.6779C19.2593 15.7717 19.1321 15.8244 18.9995 15.8244C18.8669 15.8244 18.7393 15.7717 18.6455 15.6779C18.5518 15.5841 18.4995 15.457 18.4995 15.3244ZM6.99953 9.66617C6.34994 9.5361 5.68428 9.50528 5.02541 9.57437C4.95908 9.58344 4.8913 9.57918 4.82668 9.56168C4.76206 9.54418 4.70164 9.51363 4.64895 9.47232C4.59626 9.43102 4.55247 9.37953 4.52004 9.32096C4.48761 9.26238 4.4675 9.19808 4.46047 9.1315C4.45344 9.06492 4.45955 8.99781 4.47902 8.93375C4.4985 8.86969 4.53085 8.80986 4.57375 8.75846C4.61665 8.70706 4.66948 8.66505 4.72902 8.63443C4.78856 8.60382 4.85367 8.58522 4.92043 8.58023C5.68076 8.49886 6.44891 8.53488 7.19826 8.68717C7.31978 8.71184 7.42794 8.78118 7.50149 8.88101C7.57503 8.98085 7.60867 9.10433 7.59621 9.22769C7.58375 9.35106 7.52612 9.46539 7.4341 9.5485C7.34208 9.6316 7.22216 9.67753 7.09817 9.6774C7.06415 9.6785 7.03007 9.67457 6.99709 9.66617H6.99953Z" fill="white"/>
</svg>
