<svg width="24" height="25" viewBox="0 0 24 25" fill="none" xmlns="http://www.w3.org/2000/svg">
<path d="M13.4885 22.4038H13.4978H13.4885ZM13.4197 22.4038C13.2994 22.403 13.1834 22.3586 13.093 22.2793C13.0027 22.2 12.9439 22.0908 12.9275 21.9717C12.9133 21.8424 12.9501 21.713 13.03 21.6103C13.11 21.5077 13.2269 21.4398 13.3557 21.4219C13.4846 21.4039 13.6151 21.4373 13.72 21.5142C13.8249 21.591 13.896 21.7057 13.9177 21.834C13.9275 21.8997 13.9239 21.9664 13.9075 22.0308C13.8911 22.0951 13.8621 22.1555 13.822 22.2085C13.782 22.2615 13.7315 22.306 13.6741 22.3394C13.6167 22.3727 13.5534 22.3943 13.4876 22.4028L13.4197 22.4038ZM10.3596 22.373C10.2387 22.349 10.1319 22.2788 10.0613 22.1777C9.99065 22.0767 9.96179 21.9524 9.98073 21.8306C9.99966 21.7087 10.0649 21.5988 10.1629 21.5239C10.2608 21.4491 10.3836 21.4154 10.5061 21.4292C10.6286 21.443 10.7412 21.5034 10.8201 21.5981C10.899 21.6929 10.9386 21.8145 10.9299 21.9375C10.9213 22.0605 10.8655 22.1755 10.7742 22.2583C10.6829 22.3411 10.563 22.3853 10.4397 22.3818C10.4128 22.3849 10.3856 22.3827 10.3596 22.375V22.373ZM15.8284 21.2539C15.7866 21.1645 15.7726 21.0649 15.7874 20.9673C15.8021 20.8697 15.8455 20.7786 15.9119 20.7056C15.9783 20.6326 16.0647 20.5806 16.1604 20.5566C16.2562 20.5327 16.357 20.5381 16.45 20.5713C16.5429 20.6045 16.6235 20.6645 16.6824 20.7437C16.7413 20.8228 16.7759 20.9176 16.781 21.0161C16.7861 21.1147 16.7616 21.2125 16.7112 21.2974C16.6608 21.3822 16.5868 21.45 16.4978 21.4927C16.4341 21.5284 16.3618 21.5463 16.2888 21.5439C16.1922 21.5457 16.0969 21.5194 16.0149 21.4683C15.9329 21.4171 15.8674 21.3434 15.8264 21.2559L15.8284 21.2539ZM7.36842 21.4238C7.30971 21.3956 7.2575 21.3562 7.21413 21.3076C7.17075 21.259 7.13736 21.2022 7.11598 21.1406C7.09461 21.0791 7.08572 21.0137 7.08961 20.9487C7.09351 20.8837 7.10987 20.8202 7.13844 20.7617C7.17797 20.6819 7.23827 20.6142 7.31276 20.5654C7.38725 20.5167 7.47335 20.4887 7.56227 20.4844C7.6512 20.48 7.73975 20.4997 7.81862 20.541C7.89749 20.5823 7.96391 20.6437 8.011 20.7192C8.05809 20.7948 8.08434 20.8817 8.08668 20.9707C8.08903 21.0597 8.06724 21.1477 8.02418 21.2256C7.98113 21.3035 7.91816 21.3687 7.84157 21.4141C7.76498 21.4595 7.67767 21.4835 7.58864 21.4839C7.51142 21.4847 7.4352 21.4646 7.36842 21.4258V21.4238ZM18.3875 19.7139C18.3434 19.6647 18.3096 19.6073 18.2879 19.5449C18.2661 19.4826 18.2571 19.4165 18.261 19.3506C18.2649 19.2847 18.2818 19.22 18.3108 19.1606C18.3398 19.1013 18.3799 19.0485 18.4295 19.0049C18.4765 18.9539 18.5338 18.9134 18.5974 18.8857C18.6611 18.8581 18.7297 18.8439 18.7991 18.8442C18.8685 18.8446 18.9374 18.8594 19.0007 18.8877C19.0641 18.916 19.1207 18.9569 19.1673 19.0083C19.2139 19.0597 19.2493 19.1202 19.2713 19.186C19.2932 19.2519 19.3012 19.3215 19.2947 19.3906C19.2882 19.4597 19.2674 19.5268 19.2337 19.5874C19.1999 19.648 19.1537 19.7008 19.0984 19.7427C19.0067 19.8286 18.8852 19.8757 18.7595 19.873C18.6201 19.8701 18.4869 19.8137 18.3875 19.7158V19.7139ZM4.78786 19.6318C4.73972 19.5877 4.70074 19.5345 4.6736 19.4751C4.64646 19.4157 4.63152 19.3514 4.62965 19.2861C4.62779 19.2209 4.63915 19.1556 4.66286 19.0947C4.68656 19.0339 4.7223 18.9784 4.76784 18.9316C4.81297 18.8836 4.86689 18.8449 4.92702 18.8179C4.98714 18.7908 5.05204 18.7763 5.11793 18.7744C5.18383 18.7726 5.24925 18.7835 5.31081 18.8071C5.37236 18.8307 5.42905 18.8662 5.47682 18.9116C5.54878 18.981 5.59821 19.0707 5.61891 19.1685C5.63961 19.2662 5.63021 19.3679 5.59254 19.4604C5.55487 19.553 5.49057 19.632 5.40749 19.6875C5.3244 19.743 5.22666 19.7726 5.12672 19.772C5.06413 19.773 5.00204 19.761 4.94411 19.7373C4.88618 19.7136 4.8337 19.6784 4.78981 19.6338L4.78786 19.6318ZM11.0798 19.5068C10.0913 19.3985 9.13368 19.0956 8.26295 18.6152C7.39223 18.1349 6.62542 17.4865 6.00661 16.708C5.38779 15.9296 4.92958 15.0362 4.65797 14.0796C4.38637 13.123 4.30665 12.1222 4.42409 11.1348C4.54153 10.1473 4.85366 9.19242 5.34206 8.32617C5.83045 7.45992 6.48566 6.69949 7.26979 6.08789C8.05392 5.47629 8.95131 5.02593 9.91041 4.76318C10.8695 4.50043 11.8713 4.43008 12.8577 4.55664C12.9785 4.57113 13.0901 4.62947 13.1712 4.72021C13.2522 4.81096 13.2973 4.92811 13.2981 5.0498C13.299 5.17149 13.2553 5.28947 13.1756 5.38135C13.0958 5.47322 12.9851 5.53264 12.8645 5.54883C11.9365 5.66589 11.0602 6.04095 10.3347 6.63135C9.60921 7.22174 9.06374 8.0038 8.76051 8.88867C8.45729 9.77354 8.40848 10.7259 8.6194 11.6372C8.83032 12.5485 9.29221 13.3823 9.95338 14.0439C10.6146 14.7056 11.4485 15.1683 12.3596 15.3799C13.2708 15.5915 14.2226 15.5433 15.1077 15.2407C15.9928 14.9381 16.7756 14.3931 17.3665 13.668C17.9574 12.9429 18.3327 12.0666 18.4505 11.1387C18.4659 11.0173 18.5253 10.9057 18.6174 10.8252C18.7096 10.7447 18.8281 10.7007 18.9505 10.7017C19.0738 10.7009 19.1931 10.7459 19.2854 10.8276C19.3777 10.9094 19.4364 11.0225 19.4505 11.145C19.5193 11.7347 19.5193 12.3303 19.4505 12.9199C19.2304 14.7484 18.349 16.4329 16.9724 17.6562C15.5958 18.8796 13.8194 19.5574 11.9778 19.561C11.6783 19.5626 11.3791 19.5449 11.0818 19.5088L11.0798 19.5068ZM7.92946 6.90674C6.91564 7.70605 6.16162 8.78786 5.76247 10.0156C5.36331 11.2434 5.33732 12.562 5.68727 13.8047C6.03722 15.0474 6.74759 16.1585 7.72877 16.9976C8.70996 17.8366 9.91754 18.3662 11.1995 18.519C12.6369 18.6858 14.0895 18.372 15.3298 17.6265C16.5701 16.8809 17.5283 15.7456 18.0554 14.3979C17.4935 15.0579 16.7955 15.5879 16.009 15.9521C15.2226 16.3164 14.3665 16.5061 13.4998 16.5078H13.4944C12.2666 16.5021 11.0704 16.1195 10.0672 15.4116C9.06393 14.7038 8.30246 13.7046 7.88551 12.5498C7.46856 11.395 7.41645 10.1401 7.7361 8.95459C8.05575 7.76912 8.73162 6.71057 9.67262 5.92187C9.04412 6.15862 8.45527 6.48969 7.92653 6.90381L7.92946 6.90674ZM20.3875 17.4746C20.3227 17.4465 20.2646 17.4052 20.2171 17.353C20.1695 17.3008 20.1336 17.239 20.1116 17.1719C20.0896 17.1048 20.0822 17.0336 20.0896 16.9634C20.097 16.8931 20.1195 16.8257 20.155 16.7646C20.1906 16.7036 20.2382 16.6505 20.2957 16.6094C20.3531 16.5683 20.4188 16.5398 20.4881 16.5259C20.5573 16.5119 20.6287 16.5132 20.6975 16.5288C20.7664 16.5445 20.8311 16.5742 20.8875 16.6167C20.9449 16.6498 20.9952 16.6939 21.0354 16.7466C21.0756 16.7993 21.1051 16.8597 21.1218 16.9238C21.1386 16.9879 21.1424 17.0545 21.1331 17.1201C21.1238 17.1857 21.1015 17.2487 21.0676 17.3057V17.2969C21.0245 17.3729 20.962 17.4361 20.8865 17.48C20.8109 17.5239 20.7248 17.547 20.6375 17.5469C20.549 17.5485 20.4621 17.5228 20.3884 17.4736L20.3875 17.4746ZM2.85866 17.1748C2.80801 17.0895 2.78381 16.9912 2.78932 16.8921C2.79483 16.793 2.82962 16.6974 2.88942 16.6182C2.94922 16.539 3.03147 16.4797 3.12526 16.4473C3.21905 16.4148 3.32032 16.4107 3.41627 16.436C3.51223 16.4614 3.59828 16.5148 3.66383 16.5894C3.72939 16.6639 3.77153 16.7561 3.78444 16.8545C3.79735 16.9529 3.78071 17.0532 3.73659 17.1421C3.69247 17.231 3.62257 17.3048 3.53639 17.354C3.46228 17.4008 3.37648 17.4247 3.28883 17.4228C3.202 17.4233 3.11661 17.4006 3.04127 17.3574C2.96594 17.3142 2.90314 17.2519 2.85963 17.1768L2.85866 17.1748ZM21.6287 14.7529C21.5643 14.7391 21.5033 14.7123 21.4495 14.6743C21.3957 14.6363 21.3503 14.5878 21.3157 14.5317C21.2811 14.4757 21.2581 14.4133 21.2483 14.3481C21.2385 14.283 21.242 14.2166 21.2586 14.1528C21.2973 14.0334 21.3796 13.9327 21.489 13.8711C21.5984 13.8095 21.7267 13.7915 21.8489 13.8203C21.9711 13.8492 22.0784 13.9228 22.1487 14.0269C22.219 14.1309 22.2476 14.2577 22.2288 14.3818C22.2041 14.4913 22.143 14.5894 22.0559 14.6602C21.9689 14.7309 21.861 14.7702 21.7488 14.772C21.7076 14.771 21.6666 14.7652 21.6267 14.7549L21.6287 14.7529ZM1.73756 14.2339C1.72335 14.1702 1.72214 14.1043 1.73366 14.04C1.74518 13.9758 1.76948 13.9142 1.80495 13.8594C1.84041 13.8046 1.88631 13.7576 1.9402 13.7207C1.99409 13.6838 2.05447 13.6582 2.11842 13.645C2.18272 13.6303 2.24968 13.6281 2.31471 13.6392C2.37974 13.6502 2.44156 13.6742 2.49733 13.7095C2.5531 13.7447 2.60147 13.7908 2.63942 13.8447C2.67737 13.8987 2.70423 13.9595 2.71852 14.0239C2.73262 14.0875 2.73388 14.1532 2.72243 14.2173C2.71097 14.2814 2.68735 14.3427 2.65211 14.3975C2.61688 14.4522 2.57095 14.4991 2.51735 14.5361C2.46375 14.5731 2.40332 14.5993 2.33961 14.6128C2.30361 14.6241 2.26647 14.6309 2.22877 14.6328C2.1139 14.6333 2.00228 14.5941 1.91286 14.522C1.82344 14.4499 1.76146 14.3492 1.73756 14.2368V14.2339ZM21.9675 11.7949C21.8349 11.7988 21.7061 11.7497 21.6096 11.6587C21.5131 11.5676 21.4567 11.4417 21.4529 11.3091C21.4491 11.1765 21.4981 11.0481 21.5891 10.9517C21.6802 10.8552 21.8061 10.7988 21.9387 10.7949C22.0042 10.7885 22.0699 10.7954 22.1326 10.8154C22.1952 10.8354 22.2534 10.868 22.303 10.9111C22.3526 10.9543 22.3927 11.0071 22.4212 11.0664C22.4496 11.1257 22.4658 11.1901 22.4685 11.2559C22.4741 11.3217 22.4667 11.3877 22.4465 11.4507C22.4264 11.5136 22.3937 11.5722 22.3508 11.6226C22.308 11.6729 22.2555 11.7142 22.1965 11.7441C22.1376 11.7741 22.0735 11.792 22.0076 11.7969L21.9675 11.7949ZM1.99782 11.644C1.93216 11.6387 1.86794 11.6199 1.80934 11.5898C1.75074 11.5597 1.69864 11.5185 1.65602 11.4683C1.6134 11.418 1.58096 11.3601 1.56081 11.2974C1.54065 11.2346 1.53345 11.1687 1.53883 11.103C1.54422 11.0374 1.56244 10.9732 1.59254 10.9145C1.62265 10.8559 1.66389 10.8039 1.71413 10.7612C1.76436 10.7186 1.8223 10.6862 1.88502 10.666C1.94775 10.6459 2.01419 10.6387 2.07985 10.644C2.21238 10.6592 2.33374 10.7247 2.4192 10.8271C2.50467 10.9296 2.54766 11.0608 2.53883 11.1938C2.5249 11.317 2.46592 11.4308 2.37379 11.5137C2.28167 11.5966 2.16277 11.6431 2.03883 11.644H1.99782ZM20.8577 8.55273C20.8335 8.49232 20.8214 8.42785 20.8225 8.36279C20.8236 8.29773 20.8379 8.2334 20.864 8.17383C20.8902 8.11425 20.9277 8.06045 20.9749 8.01562C21.022 7.9708 21.0776 7.9357 21.1384 7.9126C21.2005 7.88381 21.2683 7.8684 21.3367 7.8667C21.4051 7.86499 21.4729 7.87717 21.5364 7.90283C21.5998 7.92849 21.6573 7.96684 21.7053 8.01562C21.7533 8.06441 21.7906 8.12266 21.8152 8.18652C21.8398 8.25038 21.8512 8.31882 21.8484 8.38721C21.8456 8.45559 21.8289 8.52237 21.7991 8.58398C21.7693 8.6456 21.7269 8.70044 21.6751 8.74512C21.6232 8.78979 21.5632 8.82339 21.4978 8.84375C21.4398 8.86357 21.3789 8.87429 21.3176 8.875C21.2175 8.8756 21.1196 8.8449 21.0374 8.7876C20.9552 8.7303 20.8927 8.6489 20.8587 8.55469L20.8577 8.55273ZM2.53786 8.70361C2.41583 8.65293 2.31862 8.55606 2.26784 8.43408C2.21706 8.3121 2.21685 8.17503 2.26686 8.05273C2.29059 7.99127 2.32629 7.93531 2.37233 7.88818C2.41836 7.84105 2.47355 7.80397 2.53444 7.77881C2.59533 7.75365 2.66046 7.74081 2.72633 7.7417C2.79221 7.74258 2.85755 7.7569 2.91774 7.78369C3.04072 7.83286 3.13887 7.9291 3.19118 8.05078C3.24348 8.17246 3.24548 8.30954 3.19655 8.43262C3.15707 8.52456 3.0916 8.60311 3.00807 8.6582C2.92454 8.7133 2.82688 8.74258 2.72682 8.74267C2.66199 8.74426 2.59768 8.73085 2.53883 8.70361H2.53786ZM19.4378 6.0918C19.3573 5.98769 19.3203 5.85633 19.3352 5.72558C19.3502 5.59484 19.4159 5.47485 19.5178 5.3916C19.5951 5.32969 19.6887 5.29212 19.7874 5.28369C19.8861 5.27526 19.9853 5.29635 20.072 5.34424C20.1587 5.39213 20.2293 5.46471 20.2747 5.55273C20.3201 5.64076 20.3382 5.74046 20.3269 5.83887C20.3157 5.93727 20.2753 6.02995 20.2112 6.10547C20.1471 6.18098 20.0623 6.23609 19.9671 6.26318C19.8718 6.29028 19.7703 6.28829 19.676 6.25781C19.5818 6.22733 19.4991 6.16955 19.4378 6.0918ZM3.93776 6.06494C3.84026 5.97806 3.77999 5.85675 3.76979 5.72656C3.75959 5.59637 3.80029 5.46721 3.88307 5.36621C3.96586 5.26521 4.08447 5.20012 4.21413 5.18457C4.34379 5.16902 4.47406 5.20416 4.57838 5.28271C4.68006 5.36941 4.74342 5.49283 4.75465 5.62598C4.76589 5.75912 4.72415 5.89114 4.63844 5.99365C4.59281 6.05059 4.53505 6.09641 4.46901 6.12744C4.40297 6.15847 4.33054 6.17407 4.25758 6.17285C4.14301 6.17039 4.032 6.13349 3.93874 6.06689L3.93776 6.06494ZM17.3587 4.16504C17.2514 4.08723 17.1783 3.97107 17.1541 3.84082C17.1299 3.71056 17.1566 3.57596 17.2288 3.46484C17.3042 3.35491 17.42 3.27926 17.551 3.25488C17.6821 3.2305 17.8176 3.25951 17.9275 3.33496C18.0374 3.41041 18.1131 3.52614 18.1375 3.65722C18.1618 3.78831 18.1328 3.92376 18.0574 4.03369C18.0111 4.09872 17.9501 4.15194 17.8792 4.18847C17.8082 4.22501 17.7295 4.24376 17.6497 4.24365C17.5474 4.2468 17.4465 4.22002 17.3596 4.16601L17.3587 4.16504ZM6.05885 3.9458C6.02167 3.89156 5.99529 3.83055 5.98219 3.76611C5.96909 3.70167 5.96913 3.63525 5.98219 3.5708C5.99525 3.50635 6.02122 3.44488 6.05836 3.39062C6.09551 3.33636 6.14314 3.29037 6.1985 3.25488C6.30847 3.19462 6.43712 3.1779 6.55885 3.20801C6.68058 3.23811 6.78652 3.31291 6.85573 3.41748C6.92494 3.52205 6.95225 3.64864 6.93239 3.77246C6.91253 3.89627 6.84723 4.00826 6.74879 4.08594C6.67097 4.14388 6.57677 4.17555 6.47975 4.17676C6.39558 4.17801 6.31234 4.15719 6.23854 4.1167C6.16474 4.0762 6.10301 4.01747 6.05885 3.9458V3.9458ZM14.8089 2.9248C14.746 2.90631 14.6872 2.87539 14.6365 2.83398C14.5857 2.79258 14.5437 2.74143 14.513 2.68359C14.4822 2.62575 14.4632 2.5623 14.4573 2.49707C14.4514 2.43184 14.4589 2.36613 14.4788 2.30371C14.4963 2.24037 14.5265 2.18116 14.5676 2.12988C14.6087 2.07861 14.6595 2.03625 14.7175 2.00537C14.7756 1.97449 14.8396 1.95614 14.905 1.95068C14.9705 1.94522 15.0361 1.95279 15.0984 1.97363C15.1611 1.99226 15.2196 2.02311 15.2703 2.06445C15.3209 2.1058 15.363 2.15717 15.3938 2.21484C15.4246 2.27251 15.4433 2.33531 15.4495 2.40039C15.4557 2.46547 15.4488 2.53131 15.4295 2.59375C15.4006 2.69571 15.3392 2.78534 15.2542 2.84863C15.1692 2.91192 15.0657 2.94543 14.9597 2.94385C14.9086 2.94739 14.8575 2.94089 14.8089 2.9248V2.9248ZM8.69752 2.55469C8.66045 2.42607 8.67572 2.28808 8.73952 2.17041C8.80331 2.05273 8.91082 1.9649 9.03883 1.92578C9.10287 1.90364 9.17047 1.89501 9.23805 1.8999C9.30563 1.90479 9.37172 1.92297 9.4319 1.9541C9.49208 1.98523 9.54511 2.02823 9.58815 2.08056C9.63119 2.1329 9.66297 2.19373 9.6819 2.25879C9.70083 2.32385 9.70675 2.39173 9.6985 2.45898C9.69025 2.52624 9.66814 2.59134 9.63405 2.6499C9.59996 2.70846 9.55418 2.75942 9.49977 2.7998C9.44536 2.84018 9.38356 2.8691 9.31764 2.88476C9.27311 2.90202 9.22509 2.90888 9.17751 2.90478C9.07111 2.9033 8.96807 2.86884 8.88209 2.80615C8.79612 2.74346 8.73146 2.65553 8.69752 2.55469V2.55469ZM11.4978 2.00488C11.4978 1.90599 11.5269 1.80927 11.5818 1.72705C11.6367 1.64482 11.715 1.58081 11.8064 1.54297C11.8978 1.50512 11.998 1.49535 12.095 1.51465C12.192 1.53394 12.2814 1.58144 12.3513 1.65137C12.4213 1.72129 12.4688 1.81023 12.4881 1.90722C12.5073 2.00422 12.4976 2.10492 12.4597 2.19629C12.4219 2.28765 12.3579 2.36547 12.2756 2.42041C12.1934 2.47535 12.0967 2.50488 11.9978 2.50488C11.9322 2.50475 11.867 2.49156 11.8064 2.46631C11.7458 2.44106 11.6906 2.40394 11.6443 2.35742C11.598 2.3109 11.5614 2.25602 11.5364 2.19531C11.5114 2.1346 11.4987 2.06957 11.4988 2.0039L11.4978 2.00488Z" fill="white"/>
</svg>
