<svg width="17" height="17" viewBox="0 0 17 17" fill="none" xmlns="http://www.w3.org/2000/svg">
<path d="M15.4983 4.78357H2.49829C2.36568 4.78357 2.23851 4.73089 2.14474 4.63712C2.05097 4.54335 1.99829 4.41618 1.99829 4.28357C1.99829 4.15096 2.05097 4.02378 2.14474 3.93002C2.23851 3.83625 2.36568 3.78357 2.49829 3.78357H15.4983C15.6309 3.78357 15.7581 3.83625 15.8518 3.93002C15.9456 4.02378 15.9983 4.15096 15.9983 4.28357C15.9983 4.41618 15.9456 4.54335 15.8518 4.63712C15.7581 4.73089 15.6309 4.78357 15.4983 4.78357Z" fill="#E54660"/>
<path d="M5.86728 15.0435C5.41263 15.0429 4.97505 14.8703 4.64245 14.5603C4.30985 14.2504 4.10686 13.826 4.07428 13.3725L3.44228 4.83053C3.43738 4.76499 3.44543 4.69912 3.466 4.6367C3.48657 4.57428 3.51925 4.51652 3.56216 4.46674C3.60507 4.41696 3.65737 4.37613 3.71607 4.34658C3.77478 4.31702 3.83874 4.29934 3.90428 4.29452C4.03648 4.28489 4.1671 4.32814 4.26742 4.41477C4.36774 4.50141 4.42955 4.62433 4.43928 4.75653L5.07128 13.2995C5.08548 13.5018 5.17599 13.6912 5.32451 13.8293C5.47303 13.9675 5.66846 14.044 5.87128 14.0435H12.1233C12.3259 14.044 12.5212 13.9676 12.6697 13.8297C12.8182 13.6918 12.9088 13.5027 12.9233 13.3005L13.5563 4.75653C13.56 4.6906 13.577 4.6261 13.6062 4.56688C13.6354 4.50766 13.6762 4.45492 13.7263 4.41181C13.7763 4.3687 13.8345 4.3361 13.8973 4.31595C13.9602 4.2958 14.0265 4.28851 14.0923 4.29452C14.2245 4.30449 14.3473 4.36656 14.4338 4.46707C14.5202 4.56759 14.5632 4.69832 14.5533 4.83053L13.9203 13.3735C13.8874 13.827 13.6842 14.2512 13.3514 14.561C13.0186 14.8708 12.5809 15.0432 12.1263 15.0435H5.87028H5.86728Z" fill="#E54660"/>
<path d="M8.99829 12.8986C8.86568 12.8986 8.73851 12.8459 8.64474 12.7521C8.55097 12.6584 8.49829 12.5312 8.49829 12.3986V6.54858C8.49829 6.41598 8.55097 6.2888 8.64474 6.19503C8.73851 6.10126 8.86568 6.04858 8.99829 6.04858C9.1309 6.04858 9.25808 6.10126 9.35184 6.19503C9.44561 6.2888 9.49829 6.41598 9.49829 6.54858V12.3986C9.49829 12.5312 9.44561 12.6584 9.35184 12.7521C9.25808 12.8459 9.1309 12.8986 8.99829 12.8986Z" fill="#E54660"/>
<path d="M10.9473 12.2276C10.8147 12.2276 10.6875 12.1749 10.5937 12.0811C10.5 11.9874 10.4473 11.8602 10.4473 11.7276V7.17658C10.4473 7.04397 10.5 6.91679 10.5937 6.82302C10.6875 6.72925 10.8147 6.67657 10.9473 6.67657C11.0799 6.67657 11.2071 6.72925 11.3008 6.82302C11.3946 6.91679 11.4473 7.04397 11.4473 7.17658V11.7276C11.4473 11.8602 11.3946 11.9874 11.3008 12.0811C11.2071 12.1749 11.0799 12.2276 10.9473 12.2276Z" fill="#E54660"/>
<path d="M7.04729 12.2276C6.91468 12.2276 6.7875 12.1749 6.69373 12.0811C6.59997 11.9874 6.54729 11.8602 6.54729 11.7276V7.17658C6.54729 7.04397 6.59997 6.91679 6.69373 6.82302C6.7875 6.72925 6.91468 6.67657 7.04729 6.67657C7.1799 6.67657 7.30707 6.72925 7.40084 6.82302C7.49461 6.91679 7.54729 7.04397 7.54729 7.17658V11.7276C7.54729 11.8602 7.49461 11.9874 7.40084 12.0811C7.30707 12.1749 7.1799 12.2276 7.04729 12.2276Z" fill="#E54660"/>
<path d="M11.5983 4.64456H6.39828C6.26568 4.64456 6.1385 4.59188 6.04473 4.49811C5.95096 4.40434 5.89828 4.27717 5.89828 4.14456V3.54456C5.89828 2.88151 6.16168 2.24563 6.63052 1.77679C7.09936 1.30795 7.73524 1.04456 8.39828 1.04456H9.59829C10.2613 1.04456 10.8972 1.30795 11.3661 1.77679C11.8349 2.24563 12.0983 2.88151 12.0983 3.54456V4.14456C12.0983 4.27717 12.0456 4.40434 11.9518 4.49811C11.8581 4.59188 11.7309 4.64456 11.5983 4.64456ZM6.89828 3.64456H11.0983V3.54456C11.0983 3.14673 10.9403 2.7652 10.659 2.4839C10.3776 2.20259 9.99611 2.04456 9.59829 2.04456H8.39828C8.00046 2.04456 7.61894 2.20259 7.33763 2.4839C7.05633 2.7652 6.89828 3.14673 6.89828 3.54456V3.64456Z" fill="#E54660"/>
</svg>
