<svg width="24" height="25" viewBox="0 0 24 25" fill="none" xmlns="http://www.w3.org/2000/svg">
<path d="M16.8472 22.505H7.14111C6.50905 22.5032 5.90089 22.2626 5.43848 21.8317C4.97606 21.4008 4.69383 20.8111 4.64746 20.1808L3.69141 6.71497H2C1.86739 6.71497 1.74025 6.66225 1.64648 6.56848C1.55272 6.47471 1.5 6.34757 1.5 6.21497C1.5 6.08236 1.55272 5.95522 1.64648 5.86145C1.74025 5.76768 1.86739 5.71497 2 5.71497H4.12207C4.14104 5.71348 4.16023 5.71348 4.1792 5.71497H7.5V4.005C7.5 3.34196 7.76358 2.70578 8.23242 2.23694C8.70126 1.7681 9.33696 1.505 10 1.505H14C14.663 1.505 15.2992 1.7681 15.7681 2.23694C16.2369 2.70578 16.5 3.34196 16.5 4.005V5.71594H19.8164C19.835 5.71448 19.8534 5.71448 19.8721 5.71594H21.999C22.1316 5.71594 22.2593 5.76866 22.353 5.86243C22.4468 5.95619 22.499 6.08333 22.499 6.21594C22.499 6.34855 22.4468 6.47569 22.353 6.56946C22.2593 6.66323 22.1316 6.71594 21.999 6.71594H20.2993L19.3433 20.1818C19.2964 20.813 19.0129 21.4032 18.5493 21.8341C18.0857 22.2651 17.4762 22.5052 16.8433 22.506L16.8472 22.505ZM5.64746 20.11C5.67402 20.4898 5.84324 20.8453 6.12158 21.1051C6.39993 21.3649 6.76672 21.5096 7.14746 21.5099H16.8584C17.2391 21.5096 17.6054 21.3649 17.8838 21.1051C18.1621 20.8453 18.3318 20.4898 18.3584 20.11L19.311 6.71008H4.69043L5.64746 20.11ZM8.50439 4.005V5.505H15.5044V4.005C15.5044 3.60718 15.3462 3.22576 15.0649 2.94446C14.7836 2.66315 14.4022 2.505 14.0044 2.505H10.0044C9.80724 2.50474 9.61191 2.54302 9.42969 2.61829C9.24747 2.69355 9.08188 2.80417 8.94238 2.94348C8.80288 3.0828 8.69221 3.24818 8.6167 3.4303C8.54119 3.61242 8.50244 3.80785 8.50244 4.005H8.50439ZM11.5044 18.7047V9.70471C11.5044 9.5721 11.5571 9.44496 11.6509 9.3512C11.7446 9.25743 11.8718 9.20471 12.0044 9.20471C12.137 9.20471 12.2641 9.25743 12.3579 9.3512C12.4517 9.44496 12.5044 9.5721 12.5044 9.70471V18.7047C12.5044 18.8373 12.4517 18.9645 12.3579 19.0582C12.2641 19.152 12.137 19.2047 12.0044 19.2047C11.8718 19.2047 11.7446 19.152 11.6509 19.0582C11.5571 18.9645 11.5044 18.8373 11.5044 18.7047ZM14.5044 17.6749V10.6749C14.5044 10.5423 14.5571 10.4152 14.6509 10.3214C14.7446 10.2276 14.8718 10.1749 15.0044 10.1749C15.137 10.1749 15.2641 10.2276 15.3579 10.3214C15.4517 10.4152 15.5044 10.5423 15.5044 10.6749V17.6749C15.5044 17.8075 15.4517 17.9347 15.3579 18.0284C15.2641 18.1222 15.137 18.1749 15.0044 18.1749C14.8718 18.1749 14.7446 18.1222 14.6509 18.0284C14.5571 17.9347 14.5044 17.8075 14.5044 17.6749ZM8.50439 17.6749V10.6749C8.50439 10.5423 8.55711 10.4152 8.65088 10.3214C8.74465 10.2276 8.87179 10.1749 9.00439 10.1749C9.137 10.1749 9.26414 10.2276 9.35791 10.3214C9.45168 10.4152 9.50439 10.5423 9.50439 10.6749V17.6749C9.50439 17.8075 9.45168 17.9347 9.35791 18.0284C9.26414 18.1222 9.137 18.1749 9.00439 18.1749C8.87179 18.1749 8.74465 18.1222 8.65088 18.0284C8.55711 17.9347 8.50439 17.8075 8.50439 17.6749Z" fill="white"/>
</svg>
