<svg width="24" height="25" viewBox="0 0 24 25" fill="none" xmlns="http://www.w3.org/2000/svg">
<path d="M6.00195 22.505C5.33891 22.505 4.70273 22.2414 4.23389 21.7726C3.76505 21.3037 3.50195 20.668 3.50195 20.005V7.005C3.50195 6.34196 3.76505 5.70578 4.23389 5.23694C4.70273 4.7681 5.33891 4.505 6.00195 4.505H7.50195V2.005C7.50195 1.8724 7.55418 1.74526 7.64795 1.65149C7.74172 1.55772 7.86934 1.505 8.00195 1.505C8.13456 1.505 8.2617 1.55772 8.35547 1.65149C8.44924 1.74526 8.50195 1.8724 8.50195 2.005V4.505H15.502V2.005C15.502 1.8724 15.5542 1.74526 15.6479 1.65149C15.7417 1.55772 15.8693 1.505 16.002 1.505C16.1346 1.505 16.2617 1.55772 16.3555 1.65149C16.4492 1.74526 16.502 1.8724 16.502 2.005V4.505H18.002C18.665 4.505 19.3007 4.7681 19.7695 5.23694C20.2384 5.70578 20.502 6.34196 20.502 7.005V20.005C20.502 20.668 20.2384 21.3037 19.7695 21.7726C19.3007 22.2414 18.665 22.505 18.002 22.505H6.00195ZM4.50195 20.005C4.50195 20.4028 4.65961 20.7842 4.94092 21.0656C5.22222 21.3469 5.60413 21.505 6.00195 21.505H18.002C18.3998 21.505 18.7812 21.3469 19.0625 21.0656C19.3438 20.7842 19.502 20.4028 19.502 20.005V11.88H4.50195V20.005ZM4.50195 7.005V10.881H19.502V7.005C19.502 6.60718 19.3438 6.22576 19.0625 5.94446C18.7812 5.66315 18.3998 5.505 18.002 5.505H16.502V8.005C16.502 8.13761 16.4492 8.26475 16.3555 8.35852C16.2617 8.45229 16.1346 8.505 16.002 8.505C15.8693 8.505 15.7417 8.45229 15.6479 8.35852C15.5542 8.26475 15.502 8.13761 15.502 8.005V5.505H8.50195V8.005C8.50195 8.13761 8.44924 8.26475 8.35547 8.35852C8.2617 8.45229 8.13456 8.505 8.00195 8.505C7.86934 8.505 7.74172 8.45229 7.64795 8.35852C7.55418 8.26475 7.50195 8.13761 7.50195 8.005V5.505H6.00195C5.8048 5.50474 5.60947 5.54302 5.42725 5.61829C5.24503 5.69355 5.07944 5.80417 4.93994 5.94348C4.80044 6.0828 4.68976 6.24818 4.61426 6.4303C4.53875 6.61242 4.49951 6.80785 4.49951 7.005H4.50195ZM13.6499 18.858C13.5562 18.7643 13.5034 18.6371 13.5034 18.5045C13.5034 18.3719 13.5562 18.2448 13.6499 18.151L14.7959 17.005H11.0039C10.8713 17.005 10.7442 16.9523 10.6504 16.8585C10.5566 16.7648 10.5039 16.6376 10.5039 16.505C10.5039 16.3724 10.5566 16.2453 10.6504 16.1515C10.7442 16.0577 10.8713 16.005 11.0039 16.005H14.7979L13.6509 14.858C13.5598 14.7637 13.5091 14.6371 13.5103 14.506C13.5114 14.3749 13.564 14.2496 13.6567 14.1569C13.7494 14.0642 13.8748 14.0115 14.0059 14.0104C14.137 14.0092 14.2636 14.0599 14.3579 14.151L16.3579 16.151C16.3697 16.1623 16.3804 16.1744 16.3906 16.1871L16.4009 16.1998L16.4058 16.2067L16.4126 16.2159L16.4209 16.2267V16.235L16.4297 16.2477V16.255L16.439 16.2701L16.4468 16.2877L16.4546 16.3068C16.4546 16.3128 16.4599 16.3198 16.4629 16.3268L16.4697 16.3478L16.4746 16.3688C16.4746 16.3758 16.4746 16.3828 16.4746 16.3898C16.4746 16.3968 16.4746 16.3898 16.4746 16.3898C16.4746 16.3898 16.4746 16.4028 16.4746 16.4088C16.4746 16.4148 16.4746 16.4091 16.4746 16.4161C16.4746 16.4231 16.4746 16.4267 16.4746 16.4327C16.4746 16.4387 16.4746 16.4409 16.4746 16.4449C16.4746 16.4489 16.4746 16.4527 16.4746 16.4567C16.4746 16.4607 16.4746 16.4741 16.4746 16.4821C16.4746 16.4901 16.4746 16.498 16.4746 16.506C16.4746 16.514 16.4746 16.5181 16.4746 16.5231C16.4746 16.5281 16.4746 16.5229 16.4746 16.5299C16.4627 16.6555 16.4037 16.7721 16.3096 16.8561L14.3306 18.8351C14.2841 18.8817 14.2292 18.9183 14.1685 18.9435C14.1077 18.9687 14.0423 18.982 13.9766 18.9821C13.8558 18.9825 13.7393 18.9391 13.6479 18.86L13.6499 18.858ZM7.81299 16.963C7.751 16.9398 7.69536 16.9022 7.65088 16.8531C7.60095 16.8107 7.56369 16.7552 7.54297 16.693C7.51354 16.6341 7.49912 16.5689 7.50098 16.5031C7.5003 16.4375 7.51324 16.3724 7.53906 16.3121C7.56489 16.2519 7.60294 16.1977 7.65088 16.153C7.6941 16.103 7.75021 16.0657 7.81299 16.045C7.88844 16.0123 7.97083 15.9987 8.05273 16.006C8.13464 16.0133 8.21326 16.041 8.28174 16.0865C8.35022 16.1321 8.40639 16.194 8.44482 16.2667C8.48326 16.3394 8.5029 16.4208 8.50195 16.5031C8.50443 16.5687 8.49065 16.6339 8.46191 16.693C8.44046 16.7529 8.40625 16.8076 8.36182 16.8531C8.31447 16.9007 8.25824 16.9382 8.19629 16.964C8.13434 16.9897 8.06806 17.003 8.00098 17.0031C7.93562 17.0046 7.8703 16.9915 7.81055 16.965L7.81299 16.963Z" fill="white"/>
</svg>
