<svg width="24" height="25" viewBox="0 0 24 25" fill="none" xmlns="http://www.w3.org/2000/svg">
<path d="M6.64795 22.3605C6.60139 22.314 6.56427 22.2586 6.53906 22.1979C6.51386 22.1371 6.50098 22.0722 6.50098 22.0065C6.50098 21.9407 6.51386 21.8753 6.53906 21.8146C6.56427 21.7538 6.60139 21.6989 6.64795 21.6525L8.79395 19.5065H4.00195C3.33891 19.5065 2.70273 19.2429 2.23389 18.774C1.76505 18.3052 1.50195 17.6695 1.50195 17.0065V9.00647C1.50195 8.34343 1.76505 7.70725 2.23389 7.2384C2.70273 6.76956 3.33891 6.50647 4.00195 6.50647C4.13456 6.50647 4.2617 6.55919 4.35547 6.65296C4.44924 6.74672 4.50195 6.87386 4.50195 7.00647C4.50195 7.13908 4.44924 7.26622 4.35547 7.35999C4.2617 7.45375 4.13456 7.50647 4.00195 7.50647C3.60413 7.50647 3.22222 7.66462 2.94092 7.94592C2.65961 8.22723 2.50195 8.60865 2.50195 9.00647V17.0065C2.50195 17.4043 2.65961 17.7857 2.94092 18.067C3.22222 18.3483 3.60413 18.5065 4.00195 18.5065H8.7959L6.64893 16.3585C6.55504 16.2646 6.50195 16.1373 6.50195 16.0045C6.50195 15.8717 6.55504 15.7444 6.64893 15.6505C6.74281 15.5566 6.87015 15.5035 7.00293 15.5035C7.13571 15.5035 7.26305 15.5566 7.35693 15.6505L10.2119 18.5055H20.0029C20.4008 18.5055 20.7822 18.3473 21.0635 18.066C21.3448 17.7847 21.5029 17.4033 21.5029 17.0055V9.00549C21.5029 8.60767 21.3448 8.22625 21.0635 7.94495C20.7822 7.66364 20.4008 7.50549 20.0029 7.50549C19.8703 7.50549 19.7432 7.45278 19.6494 7.35901C19.5556 7.26524 19.5029 7.1381 19.5029 7.00549C19.5029 6.87289 19.5556 6.74575 19.6494 6.65198C19.7432 6.55821 19.8703 6.50549 20.0029 6.50549C20.666 6.50549 21.3017 6.76859 21.7705 7.23743C22.2393 7.70627 22.5029 8.34245 22.5029 9.00549V17.0055C22.5029 17.6685 22.2393 18.3042 21.7705 18.7731C21.3017 19.2419 20.666 19.5055 20.0029 19.5055H10.21L7.35693 22.3595C7.31049 22.4061 7.25508 22.4427 7.19434 22.4679C7.13359 22.4931 7.0687 22.5065 7.00293 22.5065C6.93716 22.5065 6.87178 22.4931 6.81104 22.4679C6.75029 22.4427 6.69537 22.4061 6.64893 22.3595L6.64795 22.3605ZM11.5649 15.3243C11.3749 15.0943 6.90088 9.62434 6.90088 6.82434C6.86525 6.13878 6.96959 5.45315 7.20752 4.80921C7.44545 4.16526 7.81184 3.57643 8.28467 3.07874C8.7575 2.58104 9.32661 2.18478 9.95752 1.91419C10.5884 1.64359 11.2681 1.50453 11.9546 1.50501C12.6411 1.50548 13.3201 1.64565 13.9507 1.91712C14.5812 2.18858 15.1499 2.58576 15.6221 3.08411C16.0942 3.58246 16.4597 4.17177 16.6968 4.81604C16.9338 5.46031 17.0376 6.14566 17.001 6.83118C16.992 9.63918 12.5279 15.0972 12.3369 15.3312C12.29 15.3881 12.2308 15.4344 12.1641 15.4659C12.0973 15.4974 12.0245 15.5138 11.9507 15.5138C11.8769 15.5138 11.804 15.4974 11.7373 15.4659C11.6706 15.4344 11.6118 15.3881 11.5649 15.3312V15.3243ZM7.90088 6.80628C7.90088 8.66728 10.5417 12.4132 11.9507 14.2062C13.3597 12.4062 15.9995 8.66448 15.9995 6.81848V6.80335C16.032 6.25146 15.9516 5.6989 15.7627 5.17932C15.5738 4.65975 15.2806 4.18409 14.9014 3.78186C14.5221 3.37963 14.0647 3.05901 13.5571 2.83997C13.0495 2.62093 12.5025 2.50794 11.9497 2.50794C11.3969 2.50794 10.8499 2.62093 10.3423 2.83997C9.83469 3.05901 9.37731 3.37963 8.99805 3.78186C8.61878 4.18409 8.32558 4.65975 8.13672 5.17932C7.94786 5.6989 7.86744 6.25146 7.8999 6.80335L7.90088 6.80628ZM9.80078 6.97034C9.80078 6.54412 9.92727 6.12746 10.1641 5.77307C10.4009 5.41868 10.7371 5.14272 11.1309 4.97962C11.5246 4.81651 11.9579 4.77342 12.376 4.85657C12.794 4.93972 13.1781 5.14503 13.4795 5.44641C13.7809 5.74779 13.9862 6.1319 14.0693 6.54993C14.1525 6.96796 14.1099 7.40127 13.9468 7.79505C13.7837 8.18882 13.5072 8.52554 13.1528 8.76233C12.7984 8.99912 12.3818 9.12561 11.9556 9.12561C11.6722 9.12587 11.3917 9.07026 11.1299 8.96204C10.868 8.85382 10.6302 8.69497 10.4297 8.49475C10.2292 8.29454 10.07 8.05676 9.96143 7.79505C9.85284 7.53333 9.79701 7.25271 9.79688 6.96936L9.80078 6.97034ZM10.8008 6.97034C10.8006 7.19882 10.8683 7.42236 10.9951 7.61243C11.1219 7.8025 11.3022 7.95064 11.5132 8.03821C11.7242 8.12578 11.9566 8.14858 12.1807 8.10413C12.4048 8.05967 12.6103 7.95019 12.772 7.7887C12.9336 7.62721 13.0437 7.42098 13.0884 7.1969C13.133 6.97283 13.1103 6.74053 13.0229 6.52942C12.9356 6.31831 12.7876 6.13831 12.5977 6.01135C12.4077 5.8844 12.184 5.81653 11.9556 5.81653C11.8037 5.816 11.6532 5.84528 11.5127 5.90296C11.3722 5.96063 11.2444 6.04539 11.1367 6.15247C11.029 6.25955 10.9433 6.38681 10.8848 6.52698C10.8262 6.66715 10.7963 6.81747 10.7959 6.96936L10.8008 6.97034Z" fill="white"/>
</svg>
