<svg width="24" height="25" viewBox="0 0 24 25" fill="none" xmlns="http://www.w3.org/2000/svg">
<path d="M8 22.505C7.33696 22.505 6.70102 22.2414 6.23218 21.7726C5.76334 21.3037 5.5 20.668 5.5 20.005V4.005C5.5 3.34196 5.76334 2.70602 6.23218 2.23718C6.70102 1.76834 7.33696 1.505 8 1.505H16C16.663 1.505 17.299 1.76834 17.7678 2.23718C18.2367 2.70602 18.5 3.34196 18.5 4.005V20.005C18.5 20.668 18.2367 21.3037 17.7678 21.7726C17.299 22.2414 16.663 22.505 16 22.505H8ZM6.5 4.005V20.005C6.5 20.4028 6.65815 20.7842 6.93945 21.0656C7.22076 21.3469 7.60218 21.505 8 21.505H16C16.3978 21.505 16.7795 21.3469 17.0608 21.0656C17.3421 20.7842 17.5 20.4028 17.5 20.005V4.005C17.5 3.60718 17.3421 3.22552 17.0608 2.94421C16.7795 2.66291 16.3978 2.505 16 2.505H8C7.60218 2.505 7.22076 2.66291 6.93945 2.94421C6.65815 3.22552 6.5 3.60718 6.5 4.005V4.005ZM11 19.8129C11 19.5476 11.1054 19.2934 11.293 19.1058C11.4805 18.9183 11.7348 18.8129 12 18.8129C12.2652 18.8129 12.5195 18.9183 12.707 19.1058C12.8946 19.2934 13 19.5476 13 19.8129C13 20.0781 12.8946 20.3324 12.707 20.5199C12.5195 20.7074 12.2652 20.8129 12 20.8129C11.7351 20.8129 11.4812 20.7077 11.2937 20.5206C11.1062 20.3335 11.0005 20.0797 11 19.8148V19.8129ZM10 4.55994C9.86739 4.55994 9.74025 4.50722 9.64648 4.41345C9.55272 4.31968 9.5 4.19254 9.5 4.05994C9.5 3.92733 9.55272 3.80019 9.64648 3.70642C9.74025 3.61265 9.86739 3.55994 10 3.55994H14C14.1326 3.55994 14.2597 3.61265 14.3535 3.70642C14.4473 3.80019 14.5 3.92733 14.5 4.05994C14.5 4.19254 14.4473 4.31968 14.3535 4.41345C14.2597 4.50722 14.1326 4.55994 14 4.55994H10Z" fill="white"/>
</svg>
