<svg width="20" height="21" viewBox="0 0 20 21" fill="none" xmlns="http://www.w3.org/2000/svg">
<path d="M7.81223 14.8318H5.19923V12.2168C5.19862 12.0135 5.23866 11.812 5.31696 11.6243C5.39527 11.4366 5.51026 11.2665 5.65522 11.1238L6.06223 10.7148L6.77024 11.4198L6.36124 11.8308C6.30982 11.8811 6.26898 11.9411 6.24116 12.0074C6.21333 12.0737 6.19906 12.1449 6.19923 12.2168V13.8318H7.81425C7.95865 13.8313 8.09699 13.7738 8.19923 13.6718L8.61222 13.2618L9.31824 13.9688L8.90623 14.3788C8.61588 14.6687 8.22248 14.8316 7.81223 14.8318Z" fill="white"/>
<path d="M8.91116 14.1694C8.77867 14.1691 8.65171 14.1162 8.55817 14.0224L6.01019 11.4754C5.96363 11.429 5.92667 11.3738 5.90146 11.313C5.87625 11.2523 5.86328 11.1872 5.86328 11.1214C5.86328 11.0556 5.87625 10.9905 5.90146 10.9298C5.92667 10.869 5.96363 10.8139 6.01019 10.7674L11.7512 5.02641C12.0613 4.71802 12.4808 4.54492 12.9182 4.54492C13.3555 4.54492 13.7751 4.71802 14.0852 5.02641L15.0062 5.94741C15.3101 6.25852 15.4807 6.67594 15.4817 7.11089C15.4826 7.54584 15.3138 7.96399 15.0112 8.27641L15.0062 8.28141L9.26517 14.0224C9.21873 14.069 9.16356 14.106 9.10281 14.1312C9.04207 14.1564 8.97694 14.1694 8.91116 14.1694ZM7.07117 11.1214L8.91116 12.9624L14.2962 7.57741C14.4165 7.4535 14.4837 7.2876 14.4837 7.11491C14.4837 6.94221 14.4165 6.77631 14.2962 6.6524L13.3772 5.73341C13.2551 5.61152 13.0897 5.54306 12.9172 5.54306C12.7447 5.54306 12.5792 5.61152 12.4572 5.73341L7.07117 11.1214Z" fill="white"/>
<path d="M11.3595 6.12102L10.6523 6.82812L13.2008 9.37654L13.9079 8.66943L11.3595 6.12102Z" fill="white"/>
<path d="M10 19.0371C7.61386 19.0345 5.3262 18.0854 3.63895 16.3981C1.95169 14.7109 1.00265 12.4232 1 10.0371C1.00265 7.65097 1.95169 5.36333 3.63895 3.67607C5.3262 1.98882 7.61386 1.03976 10 1.03711C12.3861 1.03976 14.6738 1.98882 16.361 3.67607C18.0483 5.36333 18.9974 7.65097 19 10.0371C18.9974 12.4232 18.0483 14.7109 16.361 16.3981C14.6738 18.0854 12.3861 19.0345 10 19.0371ZM10 2.03711C7.879 2.03949 5.84554 2.88311 4.34576 4.38289C2.84599 5.88266 2.00238 7.91611 2 10.0371C2.00238 12.1581 2.84599 14.1916 4.34576 15.6913C5.84554 17.1911 7.879 18.0347 10 18.0371C12.121 18.0347 14.1544 17.1911 15.6542 15.6913C17.154 14.1916 17.9976 12.1581 18 10.0371C17.9976 7.91611 17.154 5.88266 15.6542 4.38289C14.1544 2.88311 12.121 2.03949 10 2.03711Z" fill="white"/>
</svg>
