<svg width="20" height="21" viewBox="0 0 20 21" fill="none" xmlns="http://www.w3.org/2000/svg">
<path d="M7.81223 14.8315H5.19923V12.2165C5.19862 12.0131 5.23866 11.8117 5.31696 11.624C5.39527 11.4363 5.51026 11.2661 5.65522 11.1235L6.06223 10.7145L6.77024 11.4195L6.36124 11.8305C6.30982 11.8807 6.26898 11.9408 6.24116 12.0071C6.21333 12.0734 6.19906 12.1446 6.19923 12.2165V13.8315H7.81425C7.95865 13.8309 8.09699 13.7735 8.19923 13.6715L8.61222 13.2615L9.31824 13.9685L8.90623 14.3785C8.61588 14.6683 8.22248 14.8312 7.81223 14.8315Z" fill="white"/>
<path d="M8.91116 14.169C8.77867 14.1688 8.65171 14.1159 8.55817 14.022L6.01019 11.475C5.96363 11.4286 5.92667 11.3734 5.90146 11.3127C5.87625 11.2519 5.86328 11.1868 5.86328 11.121C5.86328 11.0553 5.87625 10.9902 5.90146 10.9294C5.92667 10.8687 5.96363 10.8135 6.01019 10.767L11.7512 5.02604C12.0613 4.71766 12.4808 4.54456 12.9182 4.54456C13.3555 4.54456 13.7751 4.71766 14.0852 5.02604L15.0062 5.94704C15.3101 6.25815 15.4807 6.67558 15.4817 7.11053C15.4826 7.54548 15.3138 7.96363 15.0112 8.27604L15.0062 8.28104L9.26517 14.022C9.21873 14.0686 9.16356 14.1056 9.10281 14.1308C9.04207 14.156 8.97694 14.169 8.91116 14.169ZM7.07117 11.121L8.91116 12.962L14.2962 7.57704C14.4165 7.45313 14.4837 7.28723 14.4837 7.11454C14.4837 6.94185 14.4165 6.77595 14.2962 6.65204L13.3772 5.73304C13.2551 5.61115 13.0897 5.54269 12.9172 5.54269C12.7447 5.54269 12.5792 5.61115 12.4572 5.73304L7.07117 11.121Z" fill="white"/>
<path d="M11.3595 6.12071L10.6523 6.82782L13.2008 9.37623L13.9079 8.66913L11.3595 6.12071Z" fill="white"/>
<path d="M10 19.0367C7.61386 19.0341 5.3262 18.085 3.63895 16.3978C1.95169 14.7105 1.00265 12.4229 1 10.0367C1.00265 7.65061 1.95169 5.36296 3.63895 3.6757C5.3262 1.98845 7.61386 1.03939 10 1.03674C12.3861 1.03939 14.6738 1.98845 16.361 3.6757C18.0483 5.36296 18.9974 7.65061 19 10.0367C18.9974 12.4229 18.0483 14.7105 16.361 16.3978C14.6738 18.085 12.3861 19.0341 10 19.0367ZM10 2.03674C7.879 2.03913 5.84554 2.88275 4.34576 4.38252C2.84599 5.8823 2.00238 7.91574 2 10.0367C2.00238 12.1577 2.84599 14.1912 4.34576 15.691C5.84554 17.1907 7.879 18.0344 10 18.0367C12.121 18.0344 14.1544 17.1907 15.6542 15.691C17.154 14.1912 17.9976 12.1577 18 10.0367C17.9976 7.91574 17.154 5.8823 15.6542 4.38252C14.1544 2.88275 12.121 2.03913 10 2.03674Z" fill="white"/>
</svg>
