<svg width="24" height="25" viewBox="0 0 24 25" fill="none" xmlns="http://www.w3.org/2000/svg">
<path d="M5.18391 19.9873C5.15208 19.9654 5.12297 19.9397 5.097 19.9111C3.63002 18.6306 2.5481 16.9675 1.972 15.1074C1.3959 13.2473 1.3484 11.2639 1.83479 9.37838C2.32118 7.49287 3.32241 5.77942 4.7264 4.43014C6.13038 3.08086 7.88164 2.14887 9.78499 1.73776C11.6883 1.32665 13.6685 1.45297 15.5042 2.10251C17.3399 2.75204 18.9593 3.8993 20.1805 5.41598C21.4017 6.93267 22.1768 8.75886 22.4198 10.6909C22.6627 12.6229 22.3637 14.5846 21.556 16.3564C21.5452 16.3881 21.5311 16.4184 21.514 16.4472C20.8303 17.9136 19.8172 19.2022 18.5531 20.2119C17.2889 21.2216 15.8081 21.9249 14.2269 22.2675C12.6457 22.6102 11.007 22.5828 9.43831 22.187C7.86959 21.7912 6.41328 21.0381 5.18391 19.9863V19.9873ZM11.9989 21.5073C13.7839 21.5058 15.5329 21.0021 17.0452 20.0537C18.5575 19.1053 19.7724 17.7508 20.5511 16.1445L18.5433 8.61227L16.9891 15.6123C16.9685 15.7278 16.906 15.8316 16.8138 15.9043C16.7216 15.9769 16.6062 16.0133 16.4891 16.0063C16.373 16.0023 16.2617 15.9586 16.1741 15.8823C16.0866 15.806 16.028 15.7018 16.0081 15.5874L15.408 11.9585L14.991 13.6274C14.9659 13.7263 14.9114 13.815 14.8343 13.8818C14.7572 13.9486 14.6613 13.9905 14.5599 14.0014C14.4584 14.0123 14.3559 13.9918 14.2664 13.9428C14.1769 13.8939 14.1045 13.8188 14.0589 13.7275L13.1971 12.0044H10.8153L9.05989 15.5171L11.72 21.5005C11.808 21.5045 11.9039 21.5044 11.9989 21.5044V21.5073ZM10.5731 21.4004L8.04329 15.7104C8.01533 15.6474 8.00072 15.5791 8.00032 15.5102C8.00092 15.5876 7.98285 15.6642 7.94807 15.7334L6.09212 19.4433C7.38804 20.4785 8.93332 21.1547 10.5731 21.4043V21.4004ZM5.31819 18.7534L6.94124 15.5073L5.19222 12.0073H2.50032C2.49987 13.2622 2.74849 14.5047 3.23225 15.6626C3.71601 16.8205 4.42513 17.8708 5.31819 18.7524V18.7534ZM7.9471 15.2822C7.98187 15.3513 7.99945 15.4279 7.99886 15.5053C7.9993 15.4279 8.01765 15.3515 8.05208 15.2822L9.69026 12.0063H6.30891L7.9471 15.2822ZM18.9823 6.38229L21.158 14.5415C21.506 13.2762 21.5883 11.9523 21.3992 10.6538C21.2102 9.35523 20.7541 8.11011 20.0599 6.99655C19.3657 5.88299 18.4483 4.92495 17.3656 4.18356C16.2828 3.44217 15.0581 2.93353 13.7689 2.68893C12.4796 2.44433 11.1539 2.46935 9.87483 2.76266C8.5958 3.05597 7.39107 3.61112 6.33723 4.39303C5.2834 5.17494 4.40329 6.16655 3.75179 7.30563C3.10029 8.44471 2.69173 9.70641 2.55208 11.0112H3.19124L4.05306 9.28805C4.09912 9.21055 4.16463 9.1466 4.243 9.10202C4.32136 9.05743 4.41016 9.03415 4.50032 9.03415C4.59048 9.03415 4.67879 9.05743 4.75716 9.10202C4.83552 9.1466 4.90103 9.21055 4.9471 9.28805L5.80891 11.0112H10.1912L11.0521 9.28805C11.0981 9.21032 11.1636 9.14627 11.242 9.10153C11.3205 9.05679 11.4095 9.03317 11.4998 9.03317C11.5902 9.03317 11.6787 9.05679 11.7572 9.10153C11.8356 9.14627 11.9011 9.21032 11.9471 9.28805L12.8079 11.0112H13.4989C13.5918 11.011 13.6834 11.0367 13.7625 11.0854C13.8417 11.1342 13.9055 11.204 13.9471 11.2871L14.347 12.0781L15.0179 9.3901C15.0498 9.28062 15.1166 9.18453 15.2078 9.11618C15.2991 9.04782 15.4102 9.01099 15.5242 9.0112C15.6393 9.01591 15.7491 9.06035 15.8353 9.13668C15.9215 9.21302 15.9783 9.31652 15.9969 9.43014L16.5741 12.8901L18.0159 6.40231C18.0401 6.293 18.1004 6.19506 18.1868 6.12399C18.2733 6.05292 18.3811 6.01273 18.493 6.01022C18.5151 6.00606 18.5374 6.00419 18.5599 6.00436C18.6606 6.01424 18.7559 6.05557 18.8319 6.12252C18.9078 6.18948 18.9608 6.27869 18.9832 6.37741L18.9823 6.38229ZM11.3079 11.0112H11.6912L11.5013 10.6284L11.3079 11.0112ZM4.30794 11.0112H4.69026L4.49788 10.6284L4.30794 11.0112Z" fill="white"/>
</svg>
