<svg width="24" height="25" viewBox="0 0 24 25" fill="none" xmlns="http://www.w3.org/2000/svg">
<path d="M4.00195 21.5037C3.33891 21.5037 2.70273 21.2401 2.23389 20.7713C1.76505 20.3024 1.50195 19.6667 1.50195 19.0037V9.00369C1.50195 8.34065 1.76505 7.70446 2.23389 7.23562C2.70273 6.76678 3.33891 6.50369 4.00195 6.50369H8.84082C8.97343 6.50369 9.10057 6.55641 9.19434 6.65017C9.2881 6.74394 9.34082 6.87108 9.34082 7.00369C9.34082 7.1363 9.2881 7.26344 9.19434 7.3572C9.10057 7.45097 8.97343 7.50369 8.84082 7.50369H4.00195C3.60413 7.50369 3.22222 7.66184 2.94092 7.94314C2.65961 8.22445 2.50195 8.60586 2.50195 9.00369V19.0037C2.50195 19.4015 2.65961 19.7829 2.94092 20.0642C3.22222 20.3455 3.60413 20.5037 4.00195 20.5037H20.002C20.3998 20.5037 20.7812 20.3455 21.0625 20.0642C21.3438 19.7829 21.502 19.4015 21.502 19.0037V15.0037C21.502 14.8711 21.5542 14.7439 21.6479 14.6502C21.7417 14.5564 21.8693 14.5037 22.002 14.5037C22.1346 14.5037 22.2617 14.5564 22.3555 14.6502C22.4492 14.7439 22.502 14.8711 22.502 15.0037V19.0037C22.502 19.6667 22.2384 20.3024 21.7695 20.7713C21.3007 21.2401 20.665 21.5037 20.002 21.5037H4.00195ZM19.1479 18.8577L17.0039 16.7136C16.9102 16.6198 16.8573 16.4923 16.8574 16.3596C16.8575 16.227 16.9105 16.0999 17.0044 16.0061C17.0983 15.9124 17.2252 15.8596 17.3579 15.8596C17.4906 15.8597 17.6182 15.9127 17.7119 16.0066L19.8535 18.1507C19.9001 18.1971 19.9372 18.252 19.9624 18.3128C19.9876 18.3735 20.0005 18.4389 20.0005 18.5047C20.0005 18.5704 19.9876 18.6353 19.9624 18.6961C19.9372 18.7568 19.9001 18.8122 19.8535 18.8587C19.8077 18.9056 19.7533 18.9428 19.6929 18.968C19.6324 18.9933 19.5675 19.006 19.502 19.0056C19.3694 19.0061 19.2421 18.954 19.1479 18.8606V18.8577ZM4.14795 18.8577C4.10139 18.8112 4.06427 18.7558 4.03906 18.6951C4.01386 18.6343 4.00098 18.5695 4.00098 18.5037C4.00098 18.4379 4.01386 18.3725 4.03906 18.3118C4.06427 18.251 4.10139 18.1961 4.14795 18.1497L8.29395 14.0037L4.14795 9.85769C4.05406 9.76381 4.00098 9.63646 4.00098 9.50369C4.00098 9.37091 4.05406 9.24357 4.14795 9.14968C4.24184 9.0558 4.36918 9.0032 4.50195 9.0032C4.63473 9.0032 4.76207 9.0558 4.85596 9.14968L9.33496 13.6306L9.35596 13.6497C9.36333 13.6567 9.37034 13.664 9.37695 13.6717L10.9399 15.2346C11.2005 15.4953 11.5476 15.6508 11.9155 15.6717C12.0481 15.6755 12.1741 15.7319 12.2651 15.8284C12.3562 15.9249 12.4052 16.0537 12.4014 16.1863C12.3975 16.3189 12.3411 16.4444 12.2446 16.5354C12.1481 16.6265 12.0193 16.6755 11.8867 16.6717H11.8579C11.2451 16.6364 10.6667 16.3769 10.2329 15.9427L9.00391 14.7127L4.85791 18.8587C4.81194 18.9053 4.75673 18.9423 4.69629 18.9676C4.63585 18.9928 4.57136 19.0057 4.50586 19.0056C4.43939 19.0066 4.37317 18.9939 4.31152 18.969C4.24988 18.9441 4.19368 18.9074 4.14648 18.8606L4.14795 18.8577ZM10.5127 8.95779C10.4906 8.6582 10.4906 8.35699 10.5127 8.0574C10.6298 6.4705 11.3727 4.99515 12.5776 3.95584C13.7825 2.91652 15.3506 2.39838 16.9375 2.51541C18.4735 2.6719 19.8958 3.3965 20.9253 4.54715C21.9548 5.6978 22.5176 7.19173 22.5029 8.73562V9.75174C22.5029 10.2452 22.3406 10.7249 22.041 11.117C21.7415 11.5091 21.3213 11.7914 20.8452 11.9212C20.3692 12.0509 19.8633 12.0206 19.4062 11.8347C18.9492 11.6488 18.5663 11.3176 18.3159 10.8924C17.9184 11.1948 17.4506 11.3921 16.9565 11.4656C16.8045 11.4902 16.6506 11.5023 16.4966 11.5017C16.024 11.5005 15.5589 11.3874 15.1382 11.1721C14.7175 10.9569 14.3536 10.6455 14.0762 10.263C13.7987 9.88046 13.6155 9.43768 13.5415 8.97097C13.4675 8.50427 13.5048 8.02697 13.6504 7.57742C13.796 7.12787 14.0454 6.71882 14.3789 6.38406C14.7124 6.0493 15.1203 5.79841 15.5693 5.65115C16.0183 5.50389 16.4959 5.46467 16.9629 5.53689C17.4299 5.60911 17.8733 5.79066 18.2568 6.06668C18.3326 6.02408 18.418 6.00175 18.5049 6.00174C18.6375 6.00174 18.7646 6.05445 18.8584 6.14822C18.9522 6.24199 19.0049 6.36913 19.0049 6.50174V6.99148C19.0054 6.99714 19.0054 7.00292 19.0049 7.00857V9.75174C18.9981 9.92009 19.0252 10.0879 19.085 10.2454C19.1447 10.4029 19.2358 10.5467 19.3525 10.6682C19.4693 10.7897 19.6096 10.8864 19.7646 10.9524C19.9197 11.0185 20.0864 11.0525 20.2549 11.0525C20.4234 11.0525 20.5901 11.0185 20.7451 10.9524C20.9001 10.8864 21.04 10.7897 21.1567 10.6682C21.2735 10.5467 21.3645 10.4029 21.4243 10.2454C21.4841 10.0879 21.5116 9.92009 21.5049 9.75174V8.72879C21.519 7.43626 21.0498 6.18468 20.1895 5.22C19.3291 4.25531 18.1392 3.64673 16.8535 3.51345C15.5338 3.42225 14.2317 3.85685 13.231 4.72195C12.2302 5.58705 11.6123 6.81263 11.5117 8.13162C11.4917 8.37654 11.4917 8.62253 11.5117 8.86746C11.6459 10.1355 12.2432 11.3096 13.189 12.1648C14.1348 13.02 15.3626 13.4965 16.6377 13.5027H19.5039C19.6365 13.5027 19.7637 13.5554 19.8574 13.6492C19.9512 13.743 20.0039 13.8701 20.0039 14.0027C20.0039 14.1353 19.9512 14.2625 19.8574 14.3562C19.7637 14.45 19.6365 14.5027 19.5039 14.5027H16.6318C15.1086 14.4939 13.6418 13.9237 12.5127 12.9011C11.3836 11.8786 10.6712 10.4757 10.5117 8.96072L10.5127 8.95779ZM14.8896 7.31961C14.5935 7.73543 14.4675 8.24851 14.5376 8.75418C14.6077 9.25985 14.8685 9.71974 15.2666 10.0393C15.6647 10.3589 16.1698 10.5143 16.6787 10.4734C17.1876 10.4325 17.6619 10.1986 18.0039 9.81961C18.0039 9.79661 18.0039 9.77376 18.0039 9.75076V7.17654C17.8063 6.95219 17.5607 6.77502 17.2856 6.65799C17.0106 6.54096 16.7127 6.48703 16.4141 6.50027C16.1154 6.51351 15.8237 6.59373 15.5601 6.73465C15.2964 6.87556 15.0676 7.07377 14.8906 7.31472L14.8896 7.31961Z" fill="white"/>
</svg>
