<svg width="16" height="17" viewBox="0 0 16 17" fill="none" xmlns="http://www.w3.org/2000/svg">
<path d="M9.19357 1.24309C9.10514 1.08548 8.98654 0.946836 8.84454 0.835093C8.70254 0.72335 8.53991 0.640692 8.36597 0.591845C8.19203 0.542998 8.01019 0.528919 7.83081 0.55041C7.65143 0.5719 7.47804 0.628539 7.32055 0.717093C7.10017 0.840559 6.91822 1.0226 6.79482 1.24309L0.19823 13.3951C0.00614463 13.7202 -0.0491095 14.1082 0.044593 14.4741C0.138296 14.8399 0.373291 15.1535 0.697972 15.3461C0.909888 15.4724 1.15101 15.5413 1.39762 15.5461H14.5988C14.7859 15.5431 14.9706 15.5032 15.1423 15.4286C15.314 15.3541 15.4692 15.2464 15.5992 15.1117C15.7292 14.977 15.8313 14.8179 15.8998 14.6437C15.9682 14.4694 16.0016 14.2833 15.9981 14.0961C15.9933 13.8494 15.9244 13.6081 15.7982 13.3961L9.19357 1.24309Z" fill="#E54660"/>
<path d="M7.99558 4.54456C8.26066 4.54456 8.51489 4.64992 8.70233 4.83745C8.88977 5.02499 8.99506 5.27934 8.99506 5.54456V9.54456C8.99506 9.80977 8.88977 10.0641 8.70233 10.2517C8.51489 10.4392 8.26066 10.5446 7.99558 10.5446C7.7305 10.5446 7.47629 10.4392 7.28885 10.2517C7.10141 10.0641 6.99609 9.80977 6.99609 9.54456V5.54456C6.99609 5.27934 7.10141 5.02499 7.28885 4.83745C7.47629 4.64992 7.7305 4.54456 7.99558 4.54456Z" fill="white"/>
<path d="M7.99558 11.8746C8.26066 11.8746 8.51489 11.98 8.70233 12.1675C8.88977 12.3551 8.99506 12.6094 8.99506 12.8746C8.99506 13.1399 8.88977 13.3942 8.70233 13.5817C8.51489 13.7693 8.26066 13.8746 7.99558 13.8746C7.7305 13.8746 7.47629 13.7693 7.28885 13.5817C7.10141 13.3942 6.99609 13.1399 6.99609 12.8746C6.99609 12.6094 7.10141 12.3551 7.28885 12.1675C7.47629 11.98 7.7305 11.8746 7.99558 11.8746Z" fill="white"/>
</svg>
