<svg width="24" height="25" viewBox="0 0 24 25" fill="none" xmlns="http://www.w3.org/2000/svg">
<path d="M11.9994 17.042C11.7342 17.042 11.4799 16.9366 11.2924 16.749L3.29243 8.74903C3.11027 8.56043 3.00948 8.30783 3.01176 8.04563C3.01403 7.78344 3.1192 7.53262 3.30461 7.34721C3.49002 7.16181 3.74083 7.05664 4.00303 7.05436C4.26523 7.05208 4.51783 7.15287 4.70643 7.33503L11.9994 14.628L19.2924 7.33503C19.481 7.15287 19.7336 7.05208 19.9958 7.05436C20.258 7.05664 20.5088 7.16181 20.6942 7.34721C20.8797 7.53262 20.9848 7.78344 20.9871 8.04563C20.9894 8.30783 20.8886 8.56043 20.7064 8.74903L12.7064 16.749C12.5189 16.9366 12.2646 17.042 11.9994 17.042Z" fill="#D6D6D6"/>
</svg>
