<svg width="24" height="25" viewBox="0 0 24 25" fill="none" xmlns="http://www.w3.org/2000/svg">
<path d="M15.998 22.505C15.8654 22.505 15.7383 22.4523 15.6445 22.3585C15.5508 22.2648 15.498 22.1376 15.498 22.005C15.498 21.8724 15.5508 21.7453 15.6445 21.6515C15.7383 21.5577 15.8654 21.505 15.998 21.505H19.998C20.3959 21.505 20.7778 21.3469 21.0591 21.0656C21.3404 20.7842 21.498 20.4028 21.498 20.005V16.005C21.498 15.8724 21.5508 15.7453 21.6445 15.6515C21.7383 15.5577 21.8654 15.505 21.998 15.505C22.1307 15.505 22.2583 15.5577 22.3521 15.6515C22.4458 15.7453 22.498 15.8724 22.498 16.005V20.005C22.498 20.668 22.235 21.3037 21.7661 21.7726C21.2973 22.2414 20.6611 22.505 19.998 22.505H15.998ZM3.99805 22.505C3.33541 22.5037 2.70049 22.2397 2.23193 21.7711C1.76338 21.3026 1.49937 20.6676 1.49805 20.005V16.005C1.49805 15.8724 1.55076 15.7453 1.64453 15.6515C1.7383 15.5577 1.86544 15.505 1.99805 15.505C2.13066 15.505 2.25828 15.5577 2.35205 15.6515C2.44582 15.7453 2.49805 15.8724 2.49805 16.005V20.005C2.49805 20.4028 2.6562 20.7842 2.9375 21.0656C3.2188 21.3469 3.60022 21.505 3.99805 21.505H7.99805C8.13066 21.505 8.25828 21.5577 8.35205 21.6515C8.44582 21.7453 8.49805 21.8724 8.49805 22.005C8.49805 22.1376 8.44582 22.2648 8.35205 22.3585C8.25828 22.4523 8.13066 22.505 7.99805 22.505H3.99805ZM7.60449 16.3121C7.56022 16.2609 7.52684 16.2009 7.50635 16.1364C7.48585 16.0718 7.47827 16.0036 7.48486 15.9362C7.49146 15.8688 7.51182 15.8036 7.54443 15.7443C7.57705 15.6849 7.62144 15.6326 7.6748 15.5909C7.72817 15.5492 7.7895 15.5189 7.85498 15.5016C7.92046 15.4843 7.98866 15.4805 8.05566 15.4904C8.12266 15.5003 8.18695 15.5237 8.24463 15.5592C8.30231 15.5947 8.35208 15.6416 8.39111 15.6969C8.81004 16.2581 9.35445 16.7136 9.98047 17.0275C10.6065 17.3413 11.2968 17.505 11.9971 17.505C12.6974 17.505 13.3881 17.3413 14.0142 17.0275C14.6402 16.7136 15.1846 16.2581 15.6035 15.6969C15.6439 15.6451 15.6938 15.6019 15.751 15.5695C15.8081 15.537 15.8708 15.516 15.936 15.5079C16.0012 15.4999 16.0675 15.5046 16.1309 15.5221C16.1942 15.5396 16.2534 15.5696 16.3052 15.61C16.357 15.6504 16.4002 15.7003 16.4326 15.7574C16.465 15.8146 16.4861 15.8778 16.4941 15.943C16.5022 16.0082 16.4975 16.074 16.48 16.1373C16.4625 16.2006 16.4325 16.2603 16.3921 16.3121C15.8796 16.9929 15.2162 17.545 14.4536 17.9254C13.6911 18.3058 12.8502 18.504 11.998 18.504C11.1459 18.504 10.3055 18.3058 9.54297 17.9254C8.78043 17.545 8.11703 16.9929 7.60449 16.3121V16.3121ZM10.644 13.3571C10.5975 13.3106 10.5609 13.2552 10.5356 13.1945C10.5104 13.1337 10.4976 13.0688 10.4976 13.0031C10.4976 12.9373 10.5104 12.8719 10.5356 12.8112C10.5609 12.7504 10.5975 12.6955 10.644 12.649L11.498 11.796V7.005C11.498 6.8724 11.5508 6.74526 11.6445 6.65149C11.7383 6.55772 11.8654 6.505 11.998 6.505C12.1307 6.505 12.2583 6.55772 12.3521 6.65149C12.4458 6.74526 12.498 6.8724 12.498 7.005V12.005C12.4982 12.0707 12.4855 12.1357 12.4604 12.1964C12.4354 12.2572 12.3985 12.3125 12.3521 12.359L11.3521 13.359C11.3056 13.4056 11.2507 13.4422 11.1899 13.4674C11.1292 13.4926 11.0638 13.506 10.998 13.506C10.9323 13.506 10.8674 13.4926 10.8066 13.4674C10.7459 13.4422 10.6905 13.4056 10.644 13.359V13.3571ZM16.498 9.00305V7.00305C16.498 6.87044 16.5508 6.7433 16.6445 6.64954C16.7383 6.55577 16.8654 6.50305 16.998 6.50305C17.1307 6.50305 17.2583 6.55577 17.3521 6.64954C17.4458 6.7433 17.498 6.87044 17.498 7.00305V9.00305C17.498 9.13566 17.4458 9.2628 17.3521 9.35657C17.2583 9.45034 17.1307 9.50305 16.998 9.50305C16.8654 9.50305 16.7383 9.45034 16.6445 9.35657C16.5508 9.2628 16.498 9.13566 16.498 9.00305ZM6.49805 9.00305V7.00305C6.49805 6.87044 6.55076 6.7433 6.64453 6.64954C6.7383 6.55577 6.86544 6.50305 6.99805 6.50305C7.13066 6.50305 7.25828 6.55577 7.35205 6.64954C7.44582 6.7433 7.49805 6.87044 7.49805 7.00305V9.00305C7.49805 9.13566 7.44582 9.2628 7.35205 9.35657C7.25828 9.45034 7.13066 9.50305 6.99805 9.50305C6.86544 9.50305 6.7383 9.45034 6.64453 9.35657C6.55076 9.2628 6.49805 9.13566 6.49805 9.00305ZM21.498 8.00305V4.00305C21.498 3.60523 21.3404 3.22332 21.0591 2.94202C20.7778 2.66071 20.3959 2.50305 19.998 2.50305H15.998C15.8654 2.50305 15.7383 2.45034 15.6445 2.35657C15.5508 2.2628 15.498 2.13566 15.498 2.00305C15.498 1.87044 15.5508 1.7433 15.6445 1.64954C15.7383 1.55577 15.8654 1.50305 15.998 1.50305H19.998C20.6611 1.50305 21.2973 1.76614 21.7661 2.23499C22.235 2.70383 22.498 3.34001 22.498 4.00305V8.00305C22.498 8.13566 22.4458 8.2628 22.3521 8.35657C22.2583 8.45034 22.1307 8.50305 21.998 8.50305C21.8654 8.50305 21.7383 8.45034 21.6445 8.35657C21.5508 8.2628 21.498 8.13566 21.498 8.00305ZM1.49805 8.00305V4.00305C1.49805 3.34001 1.76163 2.70383 2.23047 2.23499C2.69931 1.76614 3.33501 1.50305 3.99805 1.50305H7.99805C8.13066 1.50305 8.25828 1.55577 8.35205 1.64954C8.44582 1.7433 8.49805 1.87044 8.49805 2.00305C8.49805 2.13566 8.44582 2.2628 8.35205 2.35657C8.25828 2.45034 8.13066 2.50305 7.99805 2.50305H3.99805C3.60022 2.50305 3.2188 2.66071 2.9375 2.94202C2.6562 3.22332 2.49805 3.60523 2.49805 4.00305V8.00305C2.49805 8.13566 2.44582 8.2628 2.35205 8.35657C2.25828 8.45034 2.13066 8.50305 1.99805 8.50305C1.86544 8.50305 1.7383 8.45034 1.64453 8.35657C1.55076 8.2628 1.49805 8.13566 1.49805 8.00305Z" fill="white"/>
</svg>
