<svg width="24" height="25" viewBox="0 0 24 25" fill="none" xmlns="http://www.w3.org/2000/svg">
<path d="M3.7124 18.4611C2.80581 17.2988 2.15535 15.9576 1.8042 14.526C1.77251 14.3971 1.79357 14.2606 1.8623 14.1471C1.93104 14.0335 2.042 13.9522 2.1709 13.9205C2.29979 13.8888 2.43576 13.9094 2.54932 13.9781C2.66287 14.0469 2.74467 14.1578 2.77637 14.2867C3.09246 15.582 3.68058 16.7952 4.50146 17.8458C6.0498 19.8321 8.32279 21.1232 10.8218 21.4357C13.3208 21.7482 15.8413 21.0566 17.8311 19.5128C17.9357 19.4313 18.0685 19.3949 18.2002 19.4113C18.3318 19.4276 18.4516 19.4951 18.5332 19.5997C18.6148 19.7044 18.6516 19.8372 18.6353 19.9689C18.6189 20.1005 18.5509 20.2203 18.4463 20.3019C16.2477 22.0099 13.4609 22.7755 10.6982 22.4303C7.9356 22.0851 5.42315 20.6576 3.7124 18.4611V18.4611ZM15.8394 16.5089H7.33105C7.09734 16.51 6.86706 16.4566 6.65771 16.3527C6.44837 16.2488 6.26595 16.0971 6.12549 15.9103C5.98503 15.7235 5.89034 15.5065 5.84863 15.2765C5.80692 15.0465 5.81934 14.8103 5.88525 14.5861L7.59521 8.59778C7.60421 8.56778 7.61402 8.53693 7.62402 8.50793H3.99902C3.86642 8.50793 3.73928 8.45522 3.64551 8.36145C3.55174 8.26768 3.49902 8.14054 3.49902 8.00793C3.49902 7.87533 3.55174 7.74819 3.64551 7.65442C3.73928 7.56065 3.86642 7.50793 3.99902 7.50793H20.666C20.8102 7.50125 20.9546 7.52166 21.0913 7.56799C21.4723 7.68024 21.7929 7.93874 21.9834 8.28723C22.1739 8.63572 22.2187 9.04564 22.1074 9.42688L21.2734 12.3488C21.6704 12.6876 21.9865 13.1112 22.1987 13.588C22.4109 14.0648 22.5139 14.5829 22.5 15.1046C22.4861 15.6263 22.3556 16.1384 22.1182 16.6031C21.8808 17.0679 21.5424 17.4735 21.1279 17.7906C20.7134 18.1078 20.2329 18.3281 19.7222 18.4357C19.2115 18.5432 18.6835 18.5357 18.1763 18.4127C17.6691 18.2897 17.1957 18.0548 16.791 17.7252C16.3863 17.3957 16.0606 16.9797 15.8374 16.5079L15.8394 16.5089ZM19.0005 17.5089C19.5304 17.509 20.0466 17.3404 20.4746 17.028C20.9026 16.7155 21.2204 16.2754 21.3818 15.7706C21.5433 15.2659 21.5398 14.7227 21.3726 14.2198C21.2053 13.717 20.8828 13.2803 20.4512 12.9728C20.4273 12.9593 20.4047 12.9441 20.3833 12.9269C19.9487 12.6382 19.435 12.4928 18.9136 12.5109C18.3922 12.5289 17.8891 12.7094 17.4756 13.0275C17.0621 13.3455 16.7587 13.785 16.6074 14.2843C16.4562 14.7836 16.4648 15.3181 16.6323 15.8121C16.6406 15.8313 16.6476 15.8506 16.6533 15.8707C16.8306 16.3501 17.1504 16.7638 17.5698 17.0558C17.9893 17.3478 18.4879 17.5043 18.999 17.504L19.0005 17.5089ZM8.55811 8.87512L6.84814 14.8639C6.82914 14.9271 6.82281 14.9935 6.82959 15.0592C6.83637 15.1249 6.85618 15.1887 6.8877 15.2467C6.91921 15.3047 6.96178 15.3557 7.01318 15.3971C7.06459 15.4385 7.12411 15.4695 7.1875 15.4879C7.23508 15.501 7.28416 15.5077 7.3335 15.5079H15.5381C15.4493 14.8916 15.5269 14.2627 15.7622 13.6862C15.9975 13.1096 16.3822 12.6063 16.877 12.2281C17.3717 11.85 17.9586 11.6106 18.5767 11.5348C19.1948 11.459 19.8216 11.5495 20.3931 11.797L21.1504 9.151C21.1692 9.08784 21.1753 9.02174 21.1685 8.95618C21.1616 8.89062 21.1419 8.82658 21.1104 8.76868C21.0788 8.71078 21.0362 8.66013 20.9849 8.61877C20.9335 8.57742 20.8743 8.54642 20.811 8.52795C20.764 8.51395 20.7203 8.48993 20.6753 8.50793H9.04443C8.93456 8.50848 8.8275 8.54434 8.73975 8.61047C8.65199 8.6766 8.58794 8.76965 8.55713 8.87512H8.55811ZM18.5981 16.421C18.5348 16.4032 18.4755 16.373 18.4238 16.3322C18.3722 16.2913 18.3294 16.2407 18.2974 16.1832C18.2653 16.1257 18.2448 16.0621 18.2373 15.9967C18.2298 15.9313 18.2353 15.8652 18.2534 15.8019L18.7861 13.9391C18.8256 13.8151 18.9117 13.7115 19.0264 13.65C19.141 13.5886 19.2753 13.5742 19.4004 13.61C19.5254 13.6458 19.6315 13.7286 19.6963 13.8414C19.7611 13.9542 19.7792 14.0879 19.7471 14.214L19.2163 16.0768C19.1861 16.181 19.1229 16.2729 19.0361 16.338C18.9494 16.4031 18.8438 16.4383 18.7354 16.4381C18.6885 16.4388 18.6415 16.433 18.5962 16.421H18.5981ZM1.99805 12.5079C1.86544 12.5079 1.7383 12.4552 1.64453 12.3615C1.55076 12.2677 1.49805 12.1405 1.49805 12.0079C1.49805 11.8753 1.55076 11.7482 1.64453 11.6544C1.7383 11.5607 1.86544 11.5079 1.99805 11.5079H5.29834C5.43095 11.5079 5.55809 11.5607 5.65186 11.6544C5.74562 11.7482 5.79834 11.8753 5.79834 12.0079C5.79834 12.1405 5.74562 12.2677 5.65186 12.3615C5.55809 12.4552 5.43095 12.5079 5.29834 12.5079H1.99805ZM9.47314 11.92C9.40986 11.9021 9.35088 11.8715 9.29932 11.8307C9.24776 11.7898 9.20481 11.7393 9.17285 11.6818C9.14089 11.6243 9.12075 11.5611 9.11328 11.4957C9.10581 11.4304 9.11124 11.3641 9.12939 11.3009L9.66211 9.43811C9.70049 9.31275 9.78662 9.20716 9.90186 9.14465C10.0171 9.08214 10.1523 9.06745 10.2783 9.10364C10.4043 9.13983 10.5112 9.22437 10.5757 9.3385C10.6402 9.45263 10.657 9.58737 10.623 9.71399L10.0913 11.5768C10.0612 11.6808 9.99819 11.7724 9.91162 11.8375C9.82506 11.9026 9.71964 11.938 9.61133 11.9381C9.56506 11.9383 9.51878 11.9321 9.47412 11.92H9.47314ZM12.7271 11.8971C12.6671 11.8758 12.6128 11.8415 12.5674 11.797C12.5194 11.75 12.4813 11.6935 12.4556 11.6315C12.4298 11.5694 12.417 11.5033 12.4175 11.4362C12.4168 11.3706 12.4297 11.3055 12.4556 11.2452C12.4814 11.185 12.5194 11.1308 12.5674 11.0861C12.6126 11.0389 12.6669 11.0014 12.7271 10.9757C12.7872 10.9501 12.8521 10.9366 12.9175 10.9366C12.9829 10.9366 13.0473 10.9501 13.1074 10.9757C13.1676 11.0014 13.2218 11.0389 13.2671 11.0861C13.3148 11.1309 13.3529 11.185 13.3784 11.2452C13.4039 11.3055 13.4161 11.3707 13.415 11.4362C13.4158 11.5032 13.4034 11.5695 13.3779 11.6315C13.3525 11.6935 13.3147 11.7498 13.2671 11.797C13.2216 11.8414 13.1673 11.8756 13.1074 11.8971C13.048 11.9247 12.983 11.9384 12.9175 11.9371C12.8526 11.9385 12.7882 11.9248 12.7295 11.8971H12.7271ZM11.5571 11.797C11.4661 11.699 11.4163 11.57 11.4175 11.4362C11.4167 11.3057 11.4666 11.18 11.5571 11.0861C11.6524 10.9943 11.7794 10.943 11.9116 10.943C12.0438 10.943 12.1709 10.9943 12.2661 11.0861C12.3143 11.1306 12.3529 11.1845 12.3789 11.2448C12.4049 11.305 12.4182 11.3705 12.4175 11.4362C12.4179 11.5034 12.4044 11.5699 12.3784 11.632C12.3525 11.694 12.3143 11.7501 12.2661 11.797C12.2192 11.8396 12.1653 11.8736 12.1064 11.8971C12.0468 11.9243 11.9815 11.9379 11.916 11.9371C11.784 11.9351 11.6573 11.8852 11.5591 11.797H11.5571ZM10.7261 11.8971C10.6648 11.8736 10.608 11.8396 10.5581 11.797C10.4671 11.699 10.4173 11.57 10.4185 11.4362C10.4168 11.3706 10.4305 11.3051 10.4585 11.2457C10.4811 11.1864 10.5147 11.1324 10.5581 11.0861C10.608 11.0409 10.6647 11.0034 10.7261 10.9757C10.8174 10.941 10.9169 10.9333 11.0127 10.9528C11.1084 10.9722 11.1965 11.0185 11.2671 11.0861C11.3153 11.1306 11.3539 11.1845 11.3799 11.2448C11.4059 11.305 11.4191 11.3705 11.4185 11.4362C11.4189 11.5034 11.4053 11.5699 11.3794 11.632C11.3534 11.694 11.3152 11.7501 11.2671 11.797C11.1732 11.8875 11.0479 11.9379 10.9175 11.9371C10.8522 11.9386 10.7871 11.9249 10.728 11.8971H10.7261ZM17.6211 10.5089C17.4885 10.5089 17.3613 10.4562 17.2676 10.3624C17.1738 10.2687 17.1211 10.1415 17.1211 10.0089C17.1211 9.8763 17.1738 9.74916 17.2676 9.6554C17.3613 9.56163 17.4885 9.50891 17.6211 9.50891H19.3755C19.5081 9.50891 19.6352 9.56163 19.729 9.6554C19.8228 9.74916 19.8755 9.8763 19.8755 10.0089C19.8755 10.1415 19.8228 10.2687 19.729 10.3624C19.6352 10.4562 19.5081 10.5089 19.3755 10.5089H17.6211ZM2.79834 10.5089C2.66573 10.5089 2.53859 10.4562 2.44482 10.3624C2.35106 10.2687 2.29834 10.1415 2.29834 10.0089C2.29834 9.8763 2.35106 9.74916 2.44482 9.6554C2.53859 9.56163 2.66573 9.50891 2.79834 9.50891H5.99805C6.13066 9.50891 6.25828 9.56163 6.35205 9.6554C6.44582 9.74916 6.49805 9.8763 6.49805 10.0089C6.49805 10.1415 6.44582 10.2687 6.35205 10.3624C6.25828 10.4562 6.13066 10.5089 5.99805 10.5089H2.79834ZM19.5981 6.30872C19.0598 5.58704 18.4199 4.94717 17.6982 4.40881C16.7004 3.65964 15.5646 3.11479 14.356 2.80481C13.1473 2.49483 11.8895 2.42572 10.6543 2.60217C9.41909 2.77863 8.23071 3.19713 7.15723 3.83313C6.08374 4.46913 5.14656 5.31013 4.39844 6.30872C4.35186 6.37081 4.29111 6.42146 4.22168 6.45618C4.15225 6.49089 4.07567 6.50891 3.99805 6.50891C3.88993 6.50848 3.78499 6.47334 3.69824 6.40881C3.59216 6.32925 3.52217 6.21099 3.50342 6.07971C3.48466 5.94844 3.51858 5.81519 3.59814 5.70911C4.57619 4.40505 5.84475 3.3463 7.30273 2.61731C8.76072 1.88832 10.368 1.50891 11.998 1.50891C13.6281 1.50891 15.2359 1.88832 16.6938 2.61731C18.1518 3.3463 19.4204 4.40505 20.3984 5.70911C20.4378 5.76164 20.4661 5.82128 20.4824 5.88489C20.4987 5.94849 20.5024 6.01471 20.4932 6.07971C20.4839 6.14471 20.4622 6.20729 20.4287 6.26379C20.3953 6.32029 20.3509 6.36942 20.2983 6.40881C20.2458 6.44821 20.1862 6.47699 20.1226 6.49329C20.059 6.50958 19.9927 6.51331 19.9277 6.50403C19.8627 6.49474 19.8002 6.47254 19.7437 6.43909C19.6872 6.40563 19.6375 6.36124 19.5981 6.30872Z" fill="white"/>
</svg>
