<svg width="24" height="25" viewBox="0 0 24 25" fill="none" xmlns="http://www.w3.org/2000/svg">
<path d="M19.0762 22.5044H4.86328C4.24775 22.5026 3.65709 22.2616 3.21582 21.8325C2.77455 21.4034 2.51698 20.8193 2.49805 20.2041C2.54046 18.5749 3.21665 17.0266 4.38232 15.8877C5.54799 14.7487 7.11148 14.1091 8.74121 14.1045C8.79621 14.1045 8.84837 14.1045 8.90137 14.1045H15.1084C16.7602 14.0695 18.359 14.6884 19.5562 15.8271C20.7533 16.9658 21.4519 18.5316 21.4995 20.1831C21.485 20.8019 21.2297 21.391 20.7881 21.8247C20.3465 22.2584 19.7532 22.5028 19.1343 22.5063L19.0762 22.5044ZM3.49951 20.2041C3.51888 20.56 3.67535 20.8947 3.93652 21.1372C4.1977 21.3797 4.54307 21.5114 4.89941 21.5044H19.0884C19.4492 21.51 19.798 21.375 20.061 21.1279C20.324 20.8808 20.4802 20.5406 20.4971 20.1801C20.4534 18.7951 19.8634 17.4837 18.856 16.5322C17.8485 15.5807 16.5054 15.0669 15.1201 15.1025H8.75342C7.38646 15.1035 6.07335 15.6365 5.09277 16.5888C4.1122 17.5412 3.5413 18.8377 3.50049 20.2041H3.49951ZM11.9995 13.5044C11.6695 13.5294 11.3392 13.5434 11.0122 13.5434C9.76958 13.5434 8.53419 13.3533 7.34912 12.9795C6.60209 12.7109 5.88918 12.3553 5.2251 11.9204C5.11858 11.8504 5.04322 11.7421 5.01367 11.6181C4.98412 11.4942 5.00291 11.3639 5.06641 11.2534C5.42745 10.6229 5.75227 9.97228 6.04004 9.30515C6.43725 8.37548 6.75845 7.41489 6.99951 6.43308C7.00737 5.80417 7.13463 5.18246 7.37451 4.60105V4.60105C7.37951 4.58605 7.38509 4.57305 7.39209 4.55905C7.70067 3.82771 8.1792 3.18071 8.7876 2.67087C9.396 2.16103 10.1171 1.80331 10.8911 1.62741C11.6652 1.45152 12.4698 1.46231 13.2388 1.65915C14.0078 1.85599 14.7191 2.23309 15.3135 2.75925C15.3326 2.77396 15.3503 2.78985 15.3672 2.8071C15.8728 3.26703 16.2785 3.82595 16.5591 4.44919C16.8397 5.07243 16.9889 5.74673 16.998 6.43015C17.4136 8.11982 18.0654 9.74277 18.9341 11.2505C18.9975 11.3611 19.0166 11.4917 18.9868 11.6157C18.9571 11.7397 18.8811 11.8476 18.7744 11.9175C18.1174 12.348 17.4126 12.7008 16.6743 12.9692C15.4773 13.3472 14.2294 13.5401 12.9741 13.5405C12.6491 13.5475 12.3255 13.5334 12.0005 13.5044H11.9995ZM12.0054 12.5044C13.065 12.5025 14.0805 12.08 14.8291 11.3301C15.5777 10.5801 15.998 9.56402 15.998 8.50437V6.50437C15.998 6.42837 15.9982 6.35232 15.9922 6.27732C15.7157 6.38578 15.4216 6.44147 15.1245 6.44138C14.7645 6.4416 14.4086 6.36084 14.084 6.20505C13.7594 6.04926 13.4745 5.82252 13.2495 5.54148C12.5302 5.92156 11.7286 6.12022 10.915 6.12107C10.3351 6.12269 9.75972 6.0213 9.21533 5.82126L8.14746 5.42136C8.05105 5.76514 8.00133 6.12047 7.99951 6.47751C8.00048 6.49583 8.00048 6.51388 7.99951 6.5322V8.50241C7.99951 9.56138 8.41922 10.5768 9.16699 11.3266C9.91476 12.0765 10.9293 12.4995 11.9883 12.5024H12.0063L12.0054 12.5044ZM6.95947 9.70407C6.72347 10.2551 6.45946 10.8044 6.16846 11.3344C6.64648 11.6122 7.14849 11.8462 7.66846 12.0342C8.03007 12.1474 8.39682 12.2424 8.76807 12.3183C7.88617 11.5724 7.28974 10.544 7.08008 9.40817C7.04141 9.50751 7.00178 9.60607 6.96045 9.70407H6.95947ZM15.2295 12.3213C15.6082 12.2438 15.9823 12.147 16.3511 12.0312C16.864 11.8434 17.3588 11.6089 17.8291 11.331C17.4906 10.7063 17.1865 10.0639 16.9175 9.40622C16.7085 10.5432 16.112 11.5726 15.2295 12.3193V12.3213ZM15.7612 5.29148L15.8032 5.27048C15.6426 4.78008 15.3885 4.32503 15.0552 3.93112L14.8882 4.15427C14.6558 4.46382 14.3874 4.74441 14.0884 4.99021C14.2958 5.21664 14.5717 5.36879 14.874 5.42282C15.1763 5.47685 15.4882 5.42959 15.7612 5.28903V5.29148ZM9.56152 4.88523C10.1397 5.09669 10.7589 5.17047 11.3706 5.10105C11.9823 5.03162 12.5694 4.82098 13.0854 4.48532L13.1123 4.4653L13.1484 4.44431C13.5091 4.20079 13.8265 3.89857 14.0874 3.55027L14.3154 3.25046C13.8618 2.9281 13.346 2.70389 12.8008 2.59226C12.2556 2.48062 11.6927 2.48391 11.1489 2.60202C10.6051 2.72014 10.0923 2.95056 9.64258 3.27829C9.19284 3.60603 8.81612 4.02386 8.53711 4.50534L9.56152 4.88523Z" fill="white"/>
</svg>
