<svg width="24" height="25" viewBox="0 0 24 25" fill="none" xmlns="http://www.w3.org/2000/svg">
<path d="M8.9292 22.3048C8.89017 22.2519 8.86194 22.1919 8.84619 22.1281C8.83044 22.0642 8.82746 21.9978 8.8374 21.9327C8.84734 21.8677 8.87019 21.8054 8.9043 21.7491C8.93841 21.6929 8.98307 21.644 9.03613 21.6051L13.5122 18.296C13.564 18.2497 13.6248 18.2145 13.6909 18.193C13.757 18.1715 13.8268 18.1644 13.896 18.1715C13.9651 18.1786 14.0324 18.1996 14.0928 18.234C14.1532 18.2684 14.2057 18.3149 14.2471 18.3707C14.2885 18.4266 14.3177 18.4904 14.333 18.5582C14.3483 18.626 14.3493 18.6966 14.3359 18.7648C14.3226 18.833 14.2951 18.8977 14.2554 18.9547C14.2156 19.0117 14.1649 19.0597 14.1055 19.0958L9.62939 22.4059C9.57644 22.4449 9.51602 22.4731 9.45215 22.4889C9.38828 22.5046 9.32186 22.5076 9.25684 22.4977C9.19181 22.4877 9.12949 22.4649 9.07324 22.4308C9.01699 22.3967 8.96808 22.352 8.9292 22.299V22.3048ZM9.88818 18.5201C9.57877 18.4277 9.30696 18.2381 9.11279 17.9801C8.91863 17.7221 8.81222 17.409 8.80908 17.0861V12.2858C8.80947 12.0893 8.77116 11.8949 8.6958 11.7135C8.62044 11.5321 8.50957 11.3675 8.37012 11.2291L3.93945 6.81799C3.65944 6.5347 3.50271 6.15186 3.50439 5.75354C3.50608 5.35522 3.66584 4.9739 3.94824 4.69299C4.23694 4.42071 4.61735 4.26672 5.01416 4.26184H18.9961C19.3019 4.26256 19.6003 4.35685 19.8511 4.53186C20.1019 4.70687 20.2932 4.95406 20.3994 5.24084C20.5056 5.52763 20.5217 5.84023 20.4453 6.13635C20.369 6.43248 20.2038 6.69837 19.9722 6.89807L14.8804 11.2428C14.7157 11.3825 14.583 11.5566 14.4922 11.7526C14.4014 11.9485 14.3542 12.162 14.354 12.3781V15.1637C14.3385 15.4259 14.2615 15.6811 14.1289 15.9078C13.9963 16.1346 13.8122 16.3267 13.5913 16.4689L11.1021 18.3619C10.8592 18.504 10.5836 18.5804 10.3022 18.5831C10.1624 18.5814 10.0235 18.5587 9.89014 18.5167L9.88818 18.5201ZM4.65137 5.40393C4.55763 5.49769 4.50488 5.62486 4.50488 5.75745C4.50488 5.89003 4.55763 6.0172 4.65137 6.11096L9.07812 10.5157C9.311 10.7471 9.49609 11.0222 9.62207 11.3253C9.74805 11.6284 9.81231 11.9536 9.81201 12.2819V17.0817C9.81354 17.19 9.85004 17.2951 9.91553 17.3815C9.98102 17.4678 10.0723 17.5314 10.1763 17.5621C10.24 17.5819 10.3072 17.5881 10.3735 17.5812C10.4399 17.5743 10.5037 17.5545 10.562 17.5221L13.0244 15.6437C13.1177 15.59 13.1964 15.5147 13.2544 15.424C13.3124 15.3332 13.3479 15.2299 13.3574 15.1227V12.3751C13.3566 12.0139 13.4343 11.6564 13.5854 11.3282C13.7366 11.0001 13.9574 10.7089 14.2324 10.4747L19.3232 6.13098C19.375 6.08579 19.4169 6.03049 19.4463 5.96838C19.4757 5.90627 19.492 5.83883 19.4941 5.77014C19.4963 5.70145 19.4844 5.6328 19.459 5.56897C19.4335 5.50514 19.395 5.4474 19.3462 5.39905C19.3 5.35293 19.245 5.31619 19.1846 5.29163C19.1241 5.26707 19.0594 5.25513 18.9941 5.25598H5.00244C4.93698 5.25632 4.87227 5.26946 4.81201 5.29504C4.75176 5.32062 4.69708 5.35805 4.65137 5.40491V5.40393ZM4 2.51086C3.86739 2.51086 3.74025 2.45815 3.64648 2.36438C3.55272 2.27061 3.5 2.14347 3.5 2.01086C3.5 1.87826 3.55272 1.75112 3.64648 1.65735C3.74025 1.56358 3.86739 1.51086 4 1.51086H20C20.1326 1.51086 20.2602 1.56358 20.354 1.65735C20.4478 1.75112 20.5 1.87826 20.5 2.01086C20.5 2.14347 20.4478 2.27061 20.354 2.36438C20.2602 2.45815 20.1326 2.51086 20 2.51086H4Z" fill="white"/>
</svg>
