<svg width="24" height="25" viewBox="0 0 24 25" fill="none" xmlns="http://www.w3.org/2000/svg">
<path d="M15.4438 22.4112C15.3904 22.3727 15.3451 22.3242 15.3105 22.2681C15.276 22.212 15.2526 22.1495 15.2422 22.0845C15.2318 22.0194 15.2346 21.9532 15.25 21.8892C15.2654 21.8251 15.2928 21.7647 15.3315 21.7115C16.0225 20.7595 16.4284 19.6306 16.501 18.4566V10.7823C16.4999 9.52297 15.9992 8.31586 15.1089 7.42532C14.2185 6.53478 13.0112 6.03358 11.752 6.03225V6.03225C10.8975 6.03111 10.0585 6.26161 9.32471 6.69924C9.21105 6.76208 9.0775 6.77812 8.95215 6.74417C8.82679 6.71021 8.71972 6.62922 8.65332 6.5176C8.58692 6.40599 8.56621 6.27287 8.59619 6.14651C8.62617 6.02014 8.7045 5.91025 8.81396 5.84036C9.70238 5.31058 10.7176 5.03096 11.752 5.03128H11.7568C13.281 5.03339 14.7423 5.63987 15.8198 6.7178C16.8974 7.79573 17.5033 9.25711 17.5049 10.7813V18.4815C17.4246 19.8549 16.9535 21.1769 16.147 22.2915C16.1085 22.345 16.0595 22.3903 16.0034 22.4248C15.9473 22.4594 15.8849 22.4823 15.8198 22.4927C15.7548 22.5031 15.6886 22.5007 15.6245 22.4854C15.5605 22.47 15.5 22.4421 15.4468 22.4033L15.4438 22.4112ZM2.74365 18.4112C2.70546 18.2841 2.7194 18.1471 2.78223 18.0303C2.84505 17.9135 2.95157 17.8263 3.07861 17.7881C3.20565 17.7499 3.34264 17.7639 3.45947 17.8267C3.57631 17.8895 3.66347 17.9965 3.70166 18.1236C4.02921 19.2163 4.73919 20.1547 5.70166 20.7671C6.66413 21.3796 7.81471 21.6252 8.94336 21.459C10.072 21.2929 11.1035 20.7262 11.8486 19.8623C12.5938 18.9985 13.0032 17.8952 13.002 16.7544V10.8145C13.002 10.483 12.8702 10.1651 12.6357 9.93069C12.4013 9.69627 12.0835 9.56448 11.752 9.56448C11.4204 9.56448 11.1021 9.69627 10.8677 9.93069C10.6333 10.1651 10.502 10.483 10.502 10.8145V16.7266C10.502 17.3233 10.2647 17.8955 9.84277 18.3174C9.42082 18.7394 8.84869 18.9766 8.25195 18.9766C7.65522 18.9766 7.0826 18.7394 6.66064 18.3174C6.23869 17.8955 6.00195 17.3233 6.00195 16.7266V10.7852C6.00102 10.167 6.09993 9.55293 6.29492 8.96633C6.33696 8.84049 6.42719 8.73653 6.5459 8.67727C6.66461 8.61801 6.80189 8.60838 6.92773 8.65042C7.05358 8.69245 7.15754 8.78268 7.2168 8.90139C7.27606 9.0201 7.28569 9.15738 7.24365 9.28323C7.08232 9.76686 7.00059 10.2734 7.00098 10.7832V16.7241C7.00098 17.0557 7.13228 17.374 7.3667 17.6084C7.60112 17.8428 7.91946 17.9741 8.25098 17.9741C8.5825 17.9741 8.90035 17.8428 9.13477 17.6084C9.36919 17.374 9.50098 17.0557 9.50098 16.7241V10.8125C9.50098 10.2158 9.73771 9.64317 10.1597 9.22122C10.5816 8.79926 11.1542 8.56253 11.751 8.56253C12.3477 8.56253 12.9198 8.79926 13.3418 9.22122C13.7638 9.64317 14.001 10.2158 14.001 10.8125V16.7525C14.0001 18.132 13.503 19.465 12.6011 20.5088C11.6991 21.5526 10.4522 22.2376 9.0874 22.4385C7.7226 22.6394 6.33099 22.3427 5.1665 21.6031C4.00202 20.8634 3.14201 19.7299 2.74365 18.4092V18.4112ZM20.5 19.5054V14.0274C20.5 13.8948 20.5522 13.7676 20.646 13.6739C20.7398 13.5801 20.8674 13.5274 21 13.5274C21.1326 13.5274 21.2597 13.5801 21.3535 13.6739C21.4473 13.7676 21.5 13.8948 21.5 14.0274V19.5054C21.5 19.638 21.4473 19.7651 21.3535 19.8589C21.2597 19.9527 21.1326 20.0054 21 20.0054C20.8674 20.0054 20.7398 19.9527 20.646 19.8589C20.5522 19.7651 20.5 19.638 20.5 19.5054ZM2.5 14.4492V10.8032C2.50291 8.33763 3.48359 5.97395 5.22705 4.23049C6.97051 2.48704 9.33418 1.50635 11.7998 1.50344H12C14.4907 1.48075 16.8889 2.44576 18.6694 4.18753C20.45 5.92929 21.4678 8.30581 21.5 10.7964C21.5016 10.9289 21.4503 11.0565 21.3579 11.1514C21.2655 11.2463 21.1393 11.3004 21.0068 11.3023C20.9403 11.3062 20.8735 11.2963 20.811 11.273C20.7486 11.2496 20.6917 11.2136 20.644 11.167C20.5964 11.1204 20.5594 11.0644 20.5347 11.0025C20.51 10.9405 20.4985 10.8738 20.501 10.8072C20.4746 8.58034 19.565 6.45536 17.9722 4.89895C16.3794 3.34254 14.2337 2.48227 12.0068 2.50735H11.7998C9.59924 2.50973 7.48963 3.38491 5.93359 4.94094C4.37756 6.49698 3.50238 8.60659 3.5 10.8072V14.4522C3.5 14.5848 3.44728 14.7119 3.35352 14.8057C3.25975 14.8995 3.13261 14.9522 3 14.9522C2.86739 14.9522 2.73976 14.8995 2.646 14.8057C2.55223 14.7119 2.5 14.5848 2.5 14.4522V14.4492Z" fill="white"/>
</svg>
