<svg width="24" height="25" viewBox="0 0 24 25" fill="none" xmlns="http://www.w3.org/2000/svg">
<path d="M9.0899 22.4321C8.98949 22.3712 8.91339 22.2772 8.87554 22.166C8.83769 22.0548 8.84048 21.9337 8.88287 21.8242L11.4698 15.1875C11.4933 15.1297 11.5057 15.0678 11.5059 15.0054C11.5059 14.8727 11.4532 14.7456 11.3594 14.6518C11.2657 14.5581 11.1385 14.5054 11.0059 14.5054H6.2188C5.83528 14.506 5.46605 14.3593 5.18707 14.0962C4.90808 13.833 4.74054 13.4732 4.7188 13.0903C4.70661 12.8938 4.73367 12.6967 4.79839 12.5107C4.86312 12.3248 4.96417 12.1538 5.09576 12.0073L6.50396 10.4223C6.54756 10.3732 6.60013 10.3329 6.65923 10.3042C6.71833 10.2754 6.78259 10.2588 6.8482 10.2549C6.9138 10.2509 6.97944 10.2598 7.04156 10.2812C7.10368 10.3027 7.16132 10.3363 7.2105 10.3799C7.25968 10.4235 7.29943 10.476 7.32818 10.5351C7.35693 10.5942 7.37404 10.6585 7.37798 10.7241C7.38193 10.7897 7.37259 10.8553 7.35113 10.9175C7.32967 10.9796 7.29658 11.0372 7.25298 11.0864L5.8438 12.6733C5.80037 12.7219 5.76707 12.7787 5.74566 12.8403C5.72425 12.9019 5.71539 12.9671 5.71929 13.0322C5.7232 13.0973 5.7395 13.1606 5.76812 13.2192C5.79674 13.2778 5.83686 13.3304 5.8858 13.3735C5.97647 13.4565 6.09493 13.5024 6.21783 13.5024H11.0049C11.2488 13.5022 11.4888 13.5612 11.7046 13.6748C11.9205 13.7884 12.1053 13.9531 12.2432 14.1543C12.3811 14.3554 12.468 14.5868 12.4961 14.8291C12.5243 15.0713 12.493 15.317 12.4048 15.5444L10.8316 19.5781L13.8047 16.2285C13.8941 16.1344 14.0164 16.0787 14.146 16.0732C14.2757 16.0677 14.4026 16.1125 14.4996 16.1987C14.5965 16.2849 14.6563 16.4058 14.6661 16.5351C14.6758 16.6645 14.6348 16.7923 14.5518 16.8921L9.72466 22.3325C9.64679 22.4197 9.54099 22.4765 9.42535 22.4936C9.3097 22.5108 9.19171 22.4871 9.09185 22.4262L9.0899 22.4321ZM21.69 20.3974L8.06499 9.49705L8.02789 9.46824L1.69097 4.39939C1.58754 4.31638 1.52133 4.19578 1.50689 4.06394C1.49245 3.93211 1.53081 3.7997 1.61382 3.69627C1.69684 3.59283 1.81743 3.52663 1.94927 3.51219C2.08111 3.49775 2.21351 3.53611 2.31695 3.61912L8.30376 8.40818L14.2779 1.67625C14.3561 1.58857 14.4624 1.5311 14.5787 1.51414C14.6949 1.49718 14.8137 1.52179 14.9136 1.58348C15.0136 1.64516 15.0886 1.74004 15.1255 1.85154C15.1625 1.96304 15.1591 2.08413 15.1158 2.19334L12.4839 8.82322C12.4601 8.88267 12.4477 8.94617 12.4478 9.01023C12.4478 9.14284 12.5005 9.26998 12.5943 9.36375C12.6881 9.45752 12.8152 9.51023 12.9478 9.51023H17.7857C18.0751 9.51063 18.3585 9.59476 18.6011 9.75242C18.8438 9.91008 19.0354 10.1346 19.1534 10.3989C19.2713 10.6632 19.3103 10.9558 19.2657 11.2417C19.221 11.5276 19.0948 11.7945 18.9019 12.0102L16.3687 14.8652L22.3169 19.6235C22.3683 19.6645 22.4107 19.7149 22.4424 19.7724C22.4742 19.8299 22.4947 19.8932 22.502 19.9585C22.5093 20.0238 22.5036 20.0897 22.4854 20.1528C22.4672 20.2159 22.4365 20.2748 22.3956 20.3262C22.3546 20.3775 22.3041 20.4204 22.2466 20.4521C22.1891 20.4839 22.1259 20.5039 22.0606 20.5112C21.9953 20.5185 21.9294 20.5133 21.8663 20.4951C21.8031 20.4769 21.7443 20.4462 21.6929 20.4053L21.69 20.3974ZM15.5826 14.2314L18.1509 11.3384C18.2144 11.2665 18.2555 11.1777 18.2701 11.083C18.2846 10.9882 18.272 10.8913 18.233 10.8037C18.194 10.7161 18.1305 10.6419 18.0503 10.5893C17.9702 10.5367 17.8767 10.5082 17.7808 10.5073H12.9449C12.5471 10.5073 12.1656 10.3492 11.8843 10.0679C11.603 9.78655 11.4449 9.40513 11.4449 9.0073C11.4447 8.81716 11.481 8.62858 11.5518 8.45213L13.1338 4.46726L9.08404 9.03123L15.5826 14.2314Z" fill="white"/>
</svg>
