<svg width="24" height="25" viewBox="0 0 24 25" fill="none" xmlns="http://www.w3.org/2000/svg">
<path d="M9.35371 22.5046C9.27231 22.5046 9.19213 22.4848 9.12013 22.4468C9.04814 22.4088 8.98649 22.3539 8.94057 22.2867C8.89464 22.2194 8.8658 22.1421 8.85658 22.0612C8.84737 21.9803 8.85808 21.8984 8.88771 21.8225L11.4747 15.1846C11.4977 15.127 11.5096 15.0656 11.5097 15.0036C11.5097 14.871 11.457 14.7438 11.3632 14.6501C11.2695 14.5563 11.1423 14.5036 11.0097 14.5036H6.22371C5.93389 14.5041 5.65012 14.4207 5.40669 14.2635C5.16327 14.1062 4.97058 13.8818 4.852 13.6173C4.73343 13.3529 4.69399 13.0597 4.73848 12.7734C4.78296 12.487 4.90946 12.2196 5.10268 12.0036L14.2727 1.66959C14.3507 1.58154 14.4573 1.52376 14.5736 1.50651C14.69 1.48925 14.8087 1.51361 14.9089 1.57523C15.0091 1.63686 15.0844 1.73179 15.1215 1.84342C15.1586 1.95505 15.1551 2.07624 15.1117 2.18558L12.4787 8.81656C12.4485 8.89245 12.4373 8.97462 12.4462 9.05582C12.455 9.13703 12.4837 9.2148 12.5296 9.28238C12.5754 9.34997 12.6372 9.40531 12.7094 9.44352C12.7816 9.48172 12.862 9.5017 12.9437 9.50162H17.7817C18.071 9.50221 18.354 9.58644 18.5965 9.74418C18.839 9.90191 19.0307 10.1263 19.1486 10.3905C19.2664 10.6548 19.3053 10.9475 19.2606 11.2333C19.2159 11.5191 19.0896 11.786 18.8967 12.0016L9.7267 22.3376C9.67979 22.3901 9.62234 22.4322 9.55806 22.461C9.49378 22.4898 9.42414 22.5046 9.35371 22.5046V22.5046ZM11.0117 13.5046C11.2558 13.5042 11.4963 13.5635 11.7124 13.6772C11.9284 13.7908 12.1134 13.9555 12.2514 14.1569C12.3893 14.3583 12.476 14.5904 12.504 14.8329C12.5319 15.0754 12.5002 15.3211 12.4117 15.5486L10.8397 19.5816L18.1557 11.3356C18.2419 11.2367 18.2858 11.1079 18.278 10.977C18.2701 10.846 18.2112 10.7234 18.1137 10.6355C18.071 10.5921 18.0194 10.5584 17.9624 10.5367C17.9055 10.5149 17.8445 10.5057 17.7837 10.5096H12.9497C12.5519 10.5096 12.1704 10.3515 11.8891 10.0702C11.6077 9.78892 11.4497 9.40738 11.4497 9.00956C11.4493 8.81939 11.4856 8.63099 11.5567 8.45463L13.1387 4.47062L5.85573 12.6775C5.79173 12.7496 5.74988 12.8387 5.73531 12.934C5.72073 13.0293 5.734 13.1267 5.77351 13.2146C5.81303 13.3025 5.87709 13.3771 5.95802 13.4295C6.03896 13.4818 6.13331 13.5096 6.22969 13.5096H11.0167L11.0117 13.5046Z" fill="white"/>
</svg>
