<svg width="24" height="25" viewBox="0 0 24 25" fill="none" xmlns="http://www.w3.org/2000/svg">
<path d="M2 18.5052C1.86739 18.5052 1.73976 18.4524 1.646 18.3587C1.55223 18.2649 1.5 18.1378 1.5 18.0052C1.5 17.8726 1.55223 17.7454 1.646 17.6516C1.73976 17.5579 1.86739 17.5052 2 17.5052H22C22.1326 17.5052 22.2597 17.5579 22.3535 17.6516C22.4473 17.7454 22.5 17.8726 22.5 18.0052C22.5 18.1378 22.4473 18.2649 22.3535 18.3587C22.2597 18.4524 22.1326 18.5052 22 18.5052H2ZM6.25 13.5491L1.7749 11.2913C1.68724 11.2468 1.61435 11.1771 1.56592 11.0916C1.51748 11.006 1.4955 10.9079 1.50244 10.8098C1.50938 10.7118 1.54499 10.6182 1.60498 10.5403C1.66498 10.4624 1.74679 10.4036 1.83984 10.3719L4.81055 9.37186C4.91374 9.33533 5.02669 9.33533 5.12988 9.37186L8.29199 10.4348L10.4019 9.51883L6.69287 7.27323C6.61679 7.2264 6.55453 7.16 6.51221 7.08133C6.46989 7.00266 6.4488 6.91427 6.45166 6.82498C6.45536 6.73591 6.4829 6.6494 6.53125 6.57449C6.5796 6.49959 6.64691 6.43924 6.72656 6.3992L7.97266 5.76785C8.26471 5.62101 8.58314 5.53323 8.90918 5.50955C9.23521 5.48587 9.56235 5.52706 9.87256 5.63016L14.6416 7.74295L17.959 6.5491C18.5481 6.39083 19.1745 6.45321 19.7207 6.72489L21.9546 7.85721C22.1308 7.94586 22.277 8.08464 22.3745 8.25614C22.4721 8.42764 22.5168 8.62427 22.5029 8.82108C22.489 9.01789 22.4171 9.206 22.2964 9.36209C22.1757 9.51818 22.0117 9.63502 21.8247 9.69803L9.66357 13.7981C9.10698 13.9835 8.5197 14.057 7.93457 14.0149C7.34944 13.9729 6.77829 13.816 6.25391 13.553L6.25 13.5491ZM3.29297 10.9373L6.70068 12.656C7.10644 12.8598 7.54858 12.9815 8.00146 13.0139C8.45435 13.0464 8.90919 12.9889 9.33984 12.845L21.501 8.75125L21.6606 9.22489L21.5049 8.7493L19.2646 7.61698C18.9497 7.45647 18.5869 7.41682 18.2446 7.50516L14.7866 8.7493C14.6655 8.79239 14.5324 8.78756 14.4146 8.73612L9.50586 6.55789C9.14536 6.45144 8.75776 6.48733 8.42285 6.65799L7.98096 6.88309L11.7466 9.16483C11.8247 9.21245 11.8886 9.28086 11.9307 9.36209C11.9727 9.44332 11.9915 9.5345 11.9854 9.62576C11.9792 9.71703 11.9481 9.80486 11.8955 9.87967C11.8429 9.95448 11.7708 10.0134 11.687 10.0501L8.51172 11.4261C8.39863 11.4749 8.27157 11.4803 8.15479 11.4412L4.96875 10.3709L3.29297 10.9373Z" fill="white"/>
</svg>
