<svg width="24" height="25" viewBox="0 0 24 25" fill="none" xmlns="http://www.w3.org/2000/svg">
<path d="M11.6475 22.3595C11.6009 22.3131 11.5638 22.2577 11.5386 22.1969C11.5134 22.1362 11.5005 22.0713 11.5005 22.0055C11.5005 21.9397 11.5134 21.8744 11.5386 21.8136C11.5638 21.7529 11.6009 21.698 11.6475 21.6515L20.7964 12.5055H1.99609C1.86349 12.5055 1.73635 12.4528 1.64258 12.359C1.54881 12.2653 1.49609 12.1381 1.49609 12.0055C1.49609 11.8729 1.54881 11.7458 1.64258 11.652C1.73635 11.5582 1.86349 11.5055 1.99609 11.5055H20.79L11.6431 2.35854C11.552 2.26424 11.5018 2.13808 11.5029 2.00698C11.5041 1.87588 11.5567 1.75007 11.6494 1.65737C11.7421 1.56466 11.8674 1.51202 11.9985 1.51088C12.1296 1.50974 12.2558 1.56043 12.3501 1.65151L22.3501 11.6515C22.3968 11.6981 22.4338 11.7532 22.459 11.8141C22.4842 11.875 22.4972 11.9405 22.4971 12.0065V12.0065C22.4971 12.0115 22.4971 12.0176 22.4971 12.0226V12.0304C22.4938 12.096 22.4778 12.1605 22.4497 12.2199C22.4216 12.2792 22.3817 12.3325 22.333 12.3766L12.3511 22.3585C12.2573 22.4523 12.1301 22.505 11.9976 22.505C11.865 22.505 11.7378 22.4523 11.644 22.3585L11.6475 22.3595Z" fill="white"/>
</svg>
