<svg width="24" height="25" viewBox="0 0 24 25" fill="none" xmlns="http://www.w3.org/2000/svg">
<path d="M7.56307 20.5107H7.54793C7.07542 20.4948 6.62841 20.2924 6.30477 19.9477C5.98112 19.6031 5.80713 19.1444 5.82088 18.6718C5.79202 17.4954 6.22891 16.3552 7.0367 15.4995C7.84449 14.6437 8.95774 14.1414 10.1339 14.1025H14.1939C15.3776 14.1399 16.4979 14.645 17.3097 15.5073C18.1214 16.3696 18.5582 17.5188 18.524 18.7026C18.5316 19.1701 18.3546 19.6221 18.0318 19.9604C17.709 20.2987 17.2663 20.4963 16.7989 20.5107H7.56307ZM6.82283 18.6718C6.81635 18.7763 6.83061 18.8806 6.86483 18.9795C6.89904 19.0784 6.95241 19.1699 7.02205 19.248C7.0917 19.3261 7.17624 19.3893 7.27059 19.4345C7.36493 19.4798 7.46735 19.5062 7.57186 19.5117H16.7828C16.9878 19.5011 17.1806 19.4101 17.3194 19.2588C17.4582 19.1074 17.5321 18.9078 17.525 18.7026C17.5585 17.7816 17.2247 16.885 16.5972 16.2099C15.9698 15.5348 15.0998 15.1364 14.1788 15.1025H10.1519C9.239 15.1372 8.37673 15.5311 7.75301 16.1987C7.12928 16.8663 6.79455 17.7533 6.82186 18.6665L6.82283 18.6718ZM20.38 17.0717C20.2474 17.0717 20.1202 17.019 20.0264 16.9253C19.9327 16.8315 19.88 16.7044 19.88 16.5717C19.88 16.4391 19.9327 16.312 20.0264 16.2182C20.1202 16.1245 20.2474 16.0717 20.38 16.0717H20.9508C21.1025 16.0632 21.2451 15.9954 21.3477 15.8833C21.4503 15.7711 21.505 15.6235 21.5001 15.4716C21.5143 15.0955 21.4542 14.7201 21.3233 14.3672C21.1924 14.0142 20.9929 13.6909 20.7369 13.415C20.4809 13.1391 20.1733 12.9161 19.8311 12.7592C19.489 12.6024 19.1189 12.5144 18.7428 12.5005H17.7247C17.5921 12.5005 17.4649 12.4477 17.3712 12.354C17.2774 12.2602 17.2247 12.1331 17.2247 12.0005C17.2247 11.8678 17.2774 11.7407 17.3712 11.6469C17.4649 11.5532 17.5921 11.5005 17.7247 11.5005H18.7589C19.7813 11.5326 20.7492 11.969 21.4503 12.7138C22.1514 13.4586 22.5287 14.4511 22.4991 15.4736C22.5056 15.8889 22.348 16.29 22.0611 16.5903C21.7743 16.8906 21.381 17.066 20.9659 17.0786L20.38 17.0717ZM3.04988 17.0717C2.84075 17.066 2.63496 17.0189 2.44393 16.9336C2.2529 16.8483 2.08044 16.7266 1.9366 16.5747C1.79276 16.4228 1.6803 16.2437 1.60555 16.0483C1.5308 15.8529 1.49533 15.6446 1.50106 15.4355C1.4773 14.4204 1.85501 13.4368 2.55233 12.6987C3.24964 11.9606 4.20983 11.5276 5.22469 11.4936H6.27498C6.40759 11.4936 6.53473 11.5463 6.6285 11.6401C6.72227 11.7339 6.77498 11.861 6.77498 11.9936C6.77498 12.1262 6.72227 12.2534 6.6285 12.3471C6.53473 12.4409 6.40759 12.4936 6.27498 12.4936H5.2408C4.4887 12.5236 3.77899 12.8493 3.2657 13.3999C2.75242 13.9504 2.47734 14.6812 2.50008 15.4336C2.49453 15.5126 2.50474 15.5919 2.53035 15.667C2.55596 15.742 2.59626 15.8114 2.64901 15.8706C2.70175 15.9297 2.76589 15.9777 2.83748 16.0117C2.90908 16.0457 2.9868 16.0653 3.066 16.0688H3.61971C3.75232 16.0688 3.87946 16.1215 3.97322 16.2153C4.06699 16.3091 4.11971 16.4362 4.11971 16.5688C4.11971 16.7014 4.06699 16.8286 3.97322 16.9223C3.87946 17.0161 3.75232 17.0688 3.61971 17.0688L3.04988 17.0717ZM8.51277 8.98141V8.55954C8.51277 7.58898 8.89826 6.65842 9.58455 5.97213C10.2708 5.28584 11.2019 4.89987 12.1724 4.89987C13.143 4.89987 14.0736 5.28584 14.7598 5.97213C15.4461 6.65842 15.8321 7.58898 15.8321 8.55954V8.98141C15.8321 9.95197 15.4461 10.883 14.7598 11.5693C14.0736 12.2556 13.143 12.6411 12.1724 12.6411C11.2019 12.6411 10.2708 12.2556 9.58455 11.5693C8.89826 10.883 8.51277 9.95197 8.51277 8.98141V8.98141ZM9.51278 8.55954V8.98141C9.51278 9.68689 9.79323 10.3634 10.2921 10.8623C10.7909 11.3611 11.4675 11.6416 12.1729 11.6416C12.8784 11.6416 13.5549 11.3611 14.0538 10.8623C14.5526 10.3634 14.8331 9.68689 14.8331 8.98141V8.55954C14.8331 7.85406 14.5526 7.17752 14.0538 6.67868C13.5549 6.17983 12.8784 5.89938 12.1729 5.89938C11.4675 5.89938 10.7909 6.17983 10.2921 6.67868C9.79323 7.17752 9.51278 7.85406 9.51278 8.55954V8.55954ZM17.8277 9.0234C17.7453 8.92053 17.7069 8.78926 17.7208 8.65817C17.7346 8.52707 17.7998 8.40706 17.9019 8.3237C18.1929 8.08788 18.4161 7.77905 18.5484 7.42868C18.6807 7.0783 18.7173 6.69883 18.6549 6.32956C18.5882 5.7908 18.312 5.30018 17.8863 4.96334C17.4606 4.62651 16.9196 4.47072 16.38 4.52975C16.2516 4.53921 16.1243 4.49884 16.025 4.41696C15.9257 4.33507 15.862 4.21763 15.8468 4.08981C15.8316 3.96198 15.8661 3.83333 15.9434 3.73043C16.0208 3.62754 16.1348 3.55849 16.2618 3.53756C17.0596 3.44386 17.8622 3.66858 18.4952 4.16305C19.1282 4.65753 19.5404 5.38195 19.6427 6.17868C19.7319 6.7198 19.6764 7.27462 19.481 7.78707C19.2857 8.29953 18.9577 8.75127 18.5308 9.09567C18.4282 9.17833 18.2972 9.21706 18.1661 9.20358C18.035 9.1901 17.9143 9.12522 17.8306 9.0234H17.8277ZM5.46981 9.09567C5.04138 8.74819 4.71316 8.29332 4.51815 7.77731C4.32313 7.2613 4.26843 6.70264 4.35994 6.15866C4.46844 5.36663 4.88306 4.64863 5.51473 4.15866C6.1464 3.66869 6.94473 3.44567 7.73885 3.53756C7.86586 3.55849 7.97986 3.62754 8.05721 3.73043C8.13455 3.83333 8.16909 3.96198 8.15389 4.08981C8.13868 4.21763 8.07499 4.33507 7.97567 4.41696C7.87634 4.49884 7.74906 4.53921 7.62069 4.52975C7.08525 4.4709 6.54842 4.6237 6.1241 4.95553C5.69979 5.28736 5.42163 5.7718 5.34969 6.30563C5.28409 6.6777 5.3194 7.06046 5.45125 7.41452C5.5831 7.76857 5.8067 8.08125 6.09969 8.31979C6.15416 8.35987 6.20015 8.41043 6.23445 8.46872C6.26876 8.527 6.29079 8.59158 6.2994 8.65866C6.308 8.72573 6.30274 8.7938 6.28426 8.85885C6.26578 8.92391 6.23456 8.98454 6.19197 9.03707C6.14939 9.08961 6.09652 9.13297 6.0367 9.16452C5.97688 9.19606 5.91124 9.2152 5.84383 9.22067C5.77642 9.22613 5.70873 9.21775 5.64461 9.19625C5.58049 9.17476 5.52127 9.14066 5.47078 9.09567H5.46981Z" fill="white"/>
</svg>
