<svg width="24" height="25" viewBox="0 0 24 25" fill="none" xmlns="http://www.w3.org/2000/svg">
<path d="M2.44341 16.3585C2.43236 16.3375 2.42237 16.3158 2.41412 16.2936C1.28936 13.7494 1.22027 10.8628 2.22173 8.26768C3.2232 5.67252 5.21367 3.58083 7.75591 2.45176C10.2982 1.32269 13.1844 1.24864 15.7813 2.24571C18.3782 3.24277 20.4731 5.2293 21.6065 7.76963C22.7399 10.31 22.8189 13.196 21.8262 15.7945C20.8336 18.3931 18.8505 20.4918 16.3121 21.6295C13.7737 22.7672 10.8874 22.8512 8.28716 21.8629C5.68694 20.8746 3.58539 18.895 2.44341 16.3585V16.3585ZM11.9981 21.5074C13.521 21.507 15.0215 21.1403 16.3731 20.4386C17.7247 19.7369 18.8877 18.7205 19.7642 17.4752L15.3545 13.0675C15.2591 12.9765 15.1324 12.9259 15.0005 12.9259C14.8687 12.9259 14.7419 12.9765 14.6465 13.0675L14.0601 13.6534C13.778 13.9335 13.3971 14.0904 12.9996 14.0904C12.6021 14.0904 12.2206 13.9335 11.9385 13.6534L9.35357 11.0665C9.30712 11.0199 9.25172 10.9828 9.19097 10.9576C9.13023 10.9324 9.06533 10.9195 8.99957 10.9195C8.9338 10.9195 8.86842 10.9324 8.80767 10.9576C8.74693 10.9828 8.69201 11.0199 8.64556 11.0665L3.48638 16.2232C4.27352 17.8082 5.48706 19.1424 6.99078 20.0753C8.4945 21.0082 10.2285 21.5032 11.9981 21.5045V21.5074ZM16.0601 12.3605L20.3091 16.6095C21.0794 15.2192 21.489 13.6578 21.4996 12.0685C21.5102 10.4791 21.1219 8.9127 20.3702 7.51231C19.6185 6.11192 18.5273 4.92235 17.1968 4.05283C15.8664 3.18332 14.3393 2.66159 12.7549 2.53526C11.1706 2.40892 9.57989 2.682 8.12847 3.32969C6.67705 3.97738 5.41094 4.97871 4.44683 6.24229C3.48273 7.50587 2.85131 8.99117 2.60992 10.5621C2.36853 12.1331 2.52522 13.7397 3.06548 15.2345L7.94048 10.3595C8.22174 10.0786 8.60304 9.92051 9.00054 9.92051C9.39804 9.92051 9.77886 10.0786 10.0601 10.3595L12.6475 12.9454C12.7413 13.0391 12.8684 13.0919 13.001 13.0919C13.1336 13.0919 13.2608 13.0391 13.3545 12.9454L13.9405 12.3595C14.2218 12.0783 14.6033 11.92 15.001 11.92C15.3988 11.92 15.7803 12.0783 16.0616 12.3595L16.0601 12.3605ZM12.4454 7.73155C12.4454 7.33598 12.5625 6.94912 12.7823 6.62022C13.002 6.29132 13.3143 6.03478 13.6797 5.8834C14.0452 5.73203 14.4475 5.69246 14.8355 5.76963C15.2235 5.8468 15.5797 6.03729 15.8594 6.31699C16.1391 6.5967 16.3296 6.95345 16.4068 7.34141C16.484 7.72937 16.4444 8.13123 16.293 8.49668C16.1416 8.86213 15.8856 9.17438 15.5567 9.39414C15.2278 9.61391 14.8409 9.73155 14.4454 9.73155C14.1826 9.73155 13.9225 9.67977 13.6797 9.5792C13.437 9.47863 13.2165 9.33094 13.0308 9.14512C12.8451 8.9593 12.6977 8.73896 12.5972 8.49619C12.4968 8.25343 12.4452 7.9933 12.4454 7.73057V7.73155ZM13.4454 7.73155C13.4454 7.92933 13.5039 8.12276 13.6138 8.28721C13.7237 8.45166 13.8798 8.57969 14.0626 8.65537C14.2453 8.73106 14.4462 8.7506 14.6402 8.71201C14.8342 8.67343 15.0125 8.57843 15.1524 8.43858C15.2923 8.29872 15.3877 8.12035 15.4263 7.92637C15.4649 7.73239 15.4449 7.53146 15.3692 7.34873C15.2935 7.16601 15.1655 7.00988 15.001 6.9C14.8366 6.79012 14.6431 6.73155 14.4454 6.73155C14.314 6.73141 14.1839 6.7571 14.0626 6.80723C13.9412 6.85736 13.8308 6.93077 13.7378 7.02354C13.6449 7.1163 13.5714 7.22648 13.5211 7.34776C13.4707 7.46903 13.4445 7.59925 13.4444 7.73057L13.4454 7.73155Z" fill="white"/>
</svg>
