<svg width="24" height="25" viewBox="0 0 24 25" fill="none" xmlns="http://www.w3.org/2000/svg">
<path d="M10.2573 20.7632C10.2569 20.4439 10.3448 20.1309 10.5112 19.8584C10.7285 19.2839 10.7762 18.659 10.6489 18.0581C10.5217 17.4572 10.225 16.9054 9.79346 16.4683C9.18825 15.8615 8.3682 15.5173 7.51123 15.5098C6.65426 15.5023 5.82909 15.8321 5.21338 16.4283C4.60629 17.0211 4.25881 17.8303 4.24756 18.6787C4.23631 19.5272 4.56216 20.3454 5.15332 20.9541L5.16309 20.9654L5.18213 20.9834C5.45581 21.2606 5.82828 21.4182 6.21777 21.4219C6.60727 21.4257 6.98227 21.2753 7.26123 21.0034C7.39787 20.8706 7.5072 20.7117 7.58252 20.5366C7.65784 20.3616 7.69769 20.1735 7.7002 19.9829C7.7027 19.7924 7.66785 19.6033 7.59717 19.4263C7.52648 19.2493 7.42118 19.0876 7.28809 18.9512C7.19519 18.8566 7.14355 18.7293 7.14355 18.5967C7.14355 18.4641 7.19519 18.3368 7.28809 18.2422C7.33398 18.1961 7.38867 18.1597 7.44873 18.1348C7.50879 18.1098 7.57315 18.0972 7.63818 18.0972C7.70322 18.0972 7.76757 18.1098 7.82764 18.1348C7.8877 18.1597 7.94238 18.1961 7.98828 18.2422C8.21581 18.4722 8.39542 18.7452 8.51709 19.045C8.63876 19.3447 8.70015 19.6653 8.69727 19.9888C8.69438 20.3123 8.62748 20.6322 8.50049 20.9297C8.3735 21.2272 8.18862 21.4963 7.95703 21.7222C7.51518 22.1507 6.93011 22.4002 6.31494 22.4214C5.69977 22.4427 5.09878 22.2345 4.62842 21.8374C4.4659 22.0446 4.25877 22.2125 4.02246 22.3286C3.78615 22.4448 3.52649 22.5062 3.26318 22.5083H3.24805C2.78639 22.507 2.34417 22.3239 2.0166 21.9986C1.68904 21.6732 1.50252 21.2322 1.49805 20.7705C1.49805 20.6379 1.55076 20.5108 1.64453 20.417C1.7383 20.3233 1.86544 20.2705 1.99805 20.2705C2.13066 20.2705 2.25828 20.3233 2.35205 20.417C2.44582 20.5108 2.49805 20.6379 2.49805 20.7705C2.49937 20.9688 2.57952 21.1586 2.72021 21.2984C2.86091 21.4381 3.05071 21.5161 3.24902 21.5161H3.25439C3.40307 21.5151 3.54802 21.47 3.6709 21.3863C3.79378 21.3026 3.88896 21.1844 3.94434 21.0464C3.40559 20.2321 3.16721 19.2556 3.27051 18.2847C3.3738 17.3138 3.81224 16.4093 4.51025 15.7266C5.31487 14.9461 6.39471 14.5137 7.51562 14.5235C8.63654 14.5332 9.70809 14.984 10.499 15.7783C10.9221 16.2071 11.2485 16.7219 11.4556 17.2876C11.6626 17.8533 11.7456 18.4566 11.6992 19.0572C11.8941 19.0239 12.0932 19.0239 12.2881 19.0572C12.2412 18.4565 12.3242 17.8529 12.5312 17.2871C12.7383 16.7214 13.0648 16.2069 13.4883 15.7783C14.279 14.9844 15.3507 14.5337 16.4712 14.524C17.5917 14.5142 18.6707 14.9465 19.4751 15.7266C20.176 16.4091 20.6168 17.3144 20.7212 18.2871C20.8256 19.2599 20.5875 20.2385 20.0474 21.0542C20.1037 21.1898 20.1985 21.3057 20.3203 21.3877C20.4421 21.4697 20.5856 21.514 20.7324 21.5152C20.9302 21.5117 21.1189 21.4323 21.2598 21.2935C21.4007 21.1546 21.4829 20.9673 21.4893 20.7696C21.4893 20.637 21.542 20.5093 21.6357 20.4156C21.7295 20.3218 21.8566 20.2696 21.9893 20.2696H21.9941C22.1267 20.2696 22.2539 20.3218 22.3477 20.4156C22.4414 20.5093 22.4941 20.637 22.4941 20.7696C22.4899 21.2313 22.3042 21.6727 21.9766 21.9981C21.6489 22.3234 21.2059 22.5063 20.7441 22.5074H20.7305C20.4672 22.5051 20.2075 22.4433 19.9712 22.3272C19.7349 22.211 19.5279 22.0435 19.3652 21.8365C18.8949 22.2335 18.2939 22.4417 17.6787 22.4204C17.0635 22.3992 16.478 22.1498 16.0361 21.7212C15.5709 21.2678 15.3048 20.6482 15.2964 19.9986C15.2879 19.349 15.5379 18.7227 15.9912 18.2574L16.7153 18.9483C16.5808 19.0842 16.4742 19.2456 16.4023 19.4229C16.3305 19.6001 16.2945 19.7897 16.2964 19.981C16.2982 20.1722 16.3383 20.3613 16.4136 20.5371C16.4889 20.713 16.5982 20.8721 16.7354 21.0054C17.0155 21.2757 17.3905 21.4252 17.7798 21.4214C18.1691 21.4177 18.5415 21.261 18.8164 20.9854L18.8403 20.9624C19.1347 20.6615 19.3664 20.3053 19.5229 19.9146C19.6795 19.5238 19.7576 19.106 19.7524 18.6851C19.7472 18.2642 19.6588 17.8487 19.4927 17.4619C19.3265 17.0752 19.0859 16.7247 18.7842 16.4312C18.1689 15.8349 17.3435 15.5052 16.4868 15.5127C15.6301 15.5202 14.8108 15.8643 14.2061 16.4712C13.7743 16.908 13.4769 17.4594 13.3491 18.0601C13.2213 18.6608 13.2687 19.2857 13.4854 19.8604C13.6252 20.0902 13.7099 20.3492 13.7329 20.6172C13.7559 20.8852 13.7168 21.155 13.6182 21.4053C13.5196 21.6556 13.3642 21.8798 13.1646 22.0601C12.9649 22.2404 12.7263 22.3717 12.4673 22.4444C12.2083 22.517 11.9357 22.5291 11.6714 22.479C11.4071 22.4289 11.1583 22.3182 10.9438 22.1558C10.7294 21.9933 10.5553 21.7834 10.4355 21.5425C10.3158 21.3016 10.2536 21.0361 10.2534 20.7671L10.2573 20.7632ZM12.0005 20.0196C11.8533 20.0196 11.7093 20.0628 11.5869 20.1446C11.4646 20.2263 11.3693 20.3426 11.313 20.4785C11.2567 20.6145 11.2418 20.7644 11.2705 20.9087C11.2992 21.053 11.3701 21.1855 11.4741 21.2896C11.5782 21.3936 11.7107 21.4645 11.855 21.4932C11.9993 21.5219 12.1492 21.507 12.2852 21.4507C12.4211 21.3944 12.5369 21.2991 12.6187 21.1768C12.7004 21.0544 12.7441 20.9104 12.7441 20.7632C12.7441 20.5659 12.6659 20.3769 12.5264 20.2373C12.3868 20.0978 12.1978 20.0196 12.0005 20.0196V20.0196ZM11.3335 15.3975L9.18945 12.3526C9.08157 12.2069 9.01507 12.0345 8.99756 11.854C8.98005 11.6736 9.01198 11.4914 9.08984 11.3277C9.16771 11.1639 9.28843 11.0247 9.43945 10.9243C9.59048 10.824 9.76615 10.7666 9.94727 10.7583H14.0215C14.2272 10.7663 14.4257 10.8362 14.5913 10.9585C14.6984 11.0366 14.7888 11.1348 14.8574 11.2481C14.9261 11.3614 14.9716 11.4872 14.9912 11.6182C15.0121 11.7499 15.0065 11.8846 14.9751 12.0142C14.9437 12.1438 14.8869 12.266 14.8081 12.3736L12.6675 15.4092C12.6116 15.4938 12.5391 15.5669 12.4551 15.6236C12.3669 15.6829 12.2682 15.7241 12.1641 15.7451C12.0599 15.7662 11.9524 15.7666 11.8481 15.7461C11.7439 15.7257 11.6447 15.6848 11.5562 15.626C11.4676 15.5672 11.3913 15.4915 11.332 15.4033L11.3335 15.3975ZM12.1582 14.8316L12.1533 14.8242L12.1582 14.8316ZM12.0024 14.6133L13.9951 11.7823L9.9751 11.7574L12.0024 14.6133ZM9.50244 10.2564C9.36983 10.2564 9.24269 10.2037 9.14893 10.1099C9.05516 10.0161 9.00244 9.88898 9.00244 9.75638C9.00244 9.62377 9.05516 9.49663 9.14893 9.40286C9.24269 9.30909 9.36983 9.25638 9.50244 9.25638H14.5024C14.635 9.25638 14.7622 9.30909 14.856 9.40286C14.9497 9.49663 15.0024 9.62377 15.0024 9.75638C15.0024 9.88898 14.9497 10.0161 14.856 10.1099C14.7622 10.2037 14.635 10.2564 14.5024 10.2564H9.50244ZM11.3833 8.46438C10.9341 8.46353 10.4945 8.33419 10.1162 8.09183C9.73796 7.84946 9.43655 7.504 9.24805 7.09622L9.18604 6.96438C9.04291 6.65538 8.96924 6.31908 8.96924 5.97854C8.96924 5.638 9.04291 5.30122 9.18604 4.99222L9.84131 3.75735C9.87771 3.6883 9.92961 3.62885 9.99316 3.58352C10.0567 3.5382 10.1299 3.50804 10.207 3.49612C10.2843 3.48537 10.3633 3.49286 10.4375 3.51712C10.5117 3.54138 10.5793 3.58191 10.6353 3.63626L11.1094 4.10843L12.0742 1.80813C12.1115 1.72235 12.1724 1.64877 12.2495 1.59573C12.3266 1.5427 12.4168 1.51254 12.5103 1.50833C12.6041 1.50119 12.6981 1.52202 12.7803 1.5679C12.8624 1.61378 12.929 1.68251 12.9722 1.76614L14.6885 4.89017C14.8926 5.21833 15.0113 5.59229 15.0342 5.97806C15.0571 6.36383 14.9832 6.74917 14.8193 7.09915C14.6307 7.50686 14.3294 7.8524 13.9512 8.09476C13.5729 8.33711 13.1333 8.46634 12.6841 8.46731L11.3833 8.46438ZM10.0835 5.43558C10.0071 5.61101 9.96846 5.8004 9.9707 5.99173C9.97294 6.18306 10.0157 6.37184 10.0962 6.54544L10.1582 6.67728C10.2669 6.91156 10.4402 7.10982 10.6577 7.24905C10.8752 7.38828 11.128 7.46283 11.3862 7.46341H12.686C12.9273 7.4634 13.1642 7.3989 13.3721 7.2764C13.5799 7.1539 13.7513 6.97769 13.8682 6.76663C13.985 6.55557 14.0431 6.31737 14.0366 6.0762C14.0301 5.83503 13.9591 5.60001 13.8311 5.39554L12.5981 3.15335L11.7471 5.17532C11.7157 5.25115 11.6664 5.318 11.603 5.37015C11.5397 5.42229 11.4642 5.45794 11.3838 5.47415C11.3033 5.49036 11.2202 5.48696 11.1416 5.46341C11.063 5.43986 10.9914 5.39715 10.9331 5.33938L10.4121 4.82034L10.0835 5.43558Z" fill="white"/>
</svg>
