<svg width="24" height="25" viewBox="0 0 24 25" fill="none" xmlns="http://www.w3.org/2000/svg">
<path d="M19.0762 22.5061H13.3984C13.2658 22.5061 13.1387 22.4534 13.0449 22.3597C12.9512 22.2659 12.8984 22.1388 12.8984 22.0061C12.8984 21.8735 12.9512 21.7464 13.0449 21.6526C13.1387 21.5589 13.2658 21.5061 13.3984 21.5061H19.0884C19.4493 21.511 19.7982 21.3751 20.061 21.1277C20.3239 20.8803 20.48 20.5406 20.4971 20.18C20.4537 18.795 19.864 17.4837 18.8564 16.5325C17.8488 15.5813 16.5053 15.0679 15.1201 15.1043H13.3975C13.2649 15.1043 13.1377 15.0516 13.0439 14.9578C12.9502 14.864 12.8975 14.7369 12.8975 14.6043C12.8975 14.4717 12.9502 14.3441 13.0439 14.2503C13.1377 14.1565 13.2649 14.1043 13.3975 14.1043H15.1074C16.7602 14.0659 18.3607 14.6836 19.5586 15.823C20.7565 16.9625 21.4538 18.5302 21.498 20.1829C21.4837 20.802 21.2292 21.3914 20.7876 21.8255C20.346 22.2596 19.7525 22.5044 19.1333 22.5081L19.0762 22.5061ZM2.49805 20.2059C2.54071 18.5768 3.21671 17.0284 4.38232 15.8894C5.54794 14.7505 7.11156 14.1111 8.74121 14.1062C8.79621 14.1062 8.84837 14.1062 8.90137 14.1062H10.5601C10.6927 14.1062 10.8203 14.159 10.9141 14.2527C11.0078 14.3465 11.0601 14.4736 11.0601 14.6062C11.0601 14.7389 11.0078 14.866 10.9141 14.9598C10.8203 15.0535 10.6927 15.1062 10.5601 15.1062H8.88818C7.49766 15.0694 6.14947 15.5857 5.13916 16.5418C4.12885 17.4979 3.53928 18.8154 3.49951 20.2059C3.52179 20.5607 3.67941 20.8936 3.93994 21.1355C4.20047 21.3775 4.54391 21.5102 4.89941 21.5061H10.5625C10.6951 21.5061 10.8222 21.5589 10.916 21.6526C11.0098 21.7464 11.0625 21.8735 11.0625 22.0061C11.0625 22.1388 11.0098 22.2659 10.916 22.3597C10.8222 22.4534 10.6951 22.5061 10.5625 22.5061H4.91016H4.85449C4.24047 22.5025 3.65169 22.2609 3.2124 21.8318C2.77312 21.4028 2.51764 20.8196 2.49951 20.2059H2.49805ZM10.5933 13.2713C9.51067 13.227 8.43858 13.0409 7.4043 12.7181C6.65679 12.4498 5.94353 12.0943 5.2793 11.659C5.17261 11.5892 5.09664 11.4812 5.06689 11.3572C5.03715 11.2332 5.05574 11.1026 5.11914 10.992C5.48141 10.3625 5.80675 9.7126 6.09326 9.04521C6.48882 8.11765 6.80949 7.15967 7.05225 6.18095C7.06573 5.16148 7.38982 4.17048 7.98145 3.34013C8.57307 2.50978 9.40411 1.87964 10.3633 1.53398C10.4256 1.50947 10.4921 1.49759 10.5591 1.49931C10.626 1.50103 10.692 1.51656 10.7529 1.54423C10.8139 1.57191 10.8687 1.61119 10.9141 1.66044C10.9594 1.70969 10.9945 1.76781 11.0171 1.83085C11.0397 1.89389 11.0492 1.96078 11.0454 2.02763C11.0416 2.09448 11.0247 2.15992 10.9951 2.22001C10.9656 2.2801 10.9242 2.33342 10.8735 2.37724C10.8229 2.42106 10.7639 2.45427 10.7002 2.47489C9.81047 2.79502 9.06306 3.42015 8.59033 4.23905L9.61719 4.61991C10.1955 4.83045 10.8148 4.90417 11.4263 4.83476C12.0378 4.76535 12.6247 4.5548 13.1411 4.22001L13.1685 4.20097L13.2075 4.17704C13.5673 3.93472 13.8835 3.63377 14.144 3.28691L14.3584 3.00126C14.0324 2.77546 13.6745 2.59984 13.2964 2.48027C13.2337 2.46057 13.1753 2.42869 13.125 2.38652C13.0747 2.34435 13.0333 2.29239 13.0029 2.23417C12.9726 2.17595 12.954 2.11257 12.9482 2.04716C12.9425 1.98175 12.9495 1.91546 12.9692 1.85282C12.9889 1.79018 13.0208 1.73226 13.063 1.68193C13.1052 1.63159 13.1566 1.59022 13.2148 1.55986C13.2731 1.52949 13.3369 1.51094 13.4023 1.50517C13.4678 1.4994 13.5336 1.50647 13.5962 1.52616C14.2082 1.71983 14.7771 2.03063 15.2705 2.4412C15.3015 2.45591 15.3309 2.4734 15.3584 2.49394C15.4073 2.53021 15.4491 2.57562 15.4814 2.62724C16.1903 3.29009 16.6872 4.14752 16.9102 5.09208C16.9241 5.13148 16.9336 5.17253 16.9375 5.21415C17.0076 5.55096 17.0428 5.89404 17.0425 6.23808V8.23808C17.0445 9.29274 16.7123 10.3208 16.0938 11.1751C15.4752 12.0293 14.6017 12.6657 13.5991 12.993C13.5486 13.0083 13.4962 13.0161 13.4434 13.0159C13.325 13.0152 13.2104 12.9724 13.1206 12.8953C13.0308 12.8182 12.9714 12.7119 12.9526 12.595C12.9339 12.4781 12.9573 12.3584 13.0186 12.2571C13.0798 12.1558 13.1749 12.0799 13.2871 12.0423C14.0889 11.7812 14.7874 11.2729 15.2822 10.5901C15.777 9.9074 16.043 9.08515 16.0415 8.24198V6.24198C16.0415 6.16698 16.0412 6.09286 16.0352 6.01786C15.5602 6.20027 15.0397 6.22786 14.5483 6.09599C14.057 5.96411 13.6201 5.67967 13.3003 5.28398C12.5808 5.66233 11.7802 5.86049 10.9673 5.86112C10.3873 5.86252 9.81154 5.76065 9.26709 5.56083L8.19824 5.16093C8.10245 5.50111 8.05241 5.85245 8.04932 6.20585C8.05101 6.22982 8.05101 6.25415 8.04932 6.27812V8.24003C8.06478 9.11035 8.33212 9.95767 8.81934 10.679C9.30655 11.4003 9.99285 11.9647 10.7944 12.304C10.814 12.3115 10.8326 12.32 10.8511 12.3299L10.8604 12.3352H10.8691C10.9392 12.377 10.9982 12.435 11.0405 12.5047C11.0829 12.5744 11.1075 12.6537 11.1123 12.7351C11.1123 12.7351 11.1123 12.7438 11.1123 12.7488C11.1123 12.7538 11.1123 12.758 11.1123 12.763C11.1123 12.77 11.1123 12.777 11.1123 12.784C11.1072 12.9066 11.0571 13.023 10.9717 13.1111C10.8863 13.1993 10.7718 13.253 10.6494 13.262H10.6143L10.5933 13.2713ZM7.01123 9.43827C6.77423 9.99127 6.51121 10.5382 6.22021 11.0682C6.69768 11.347 7.19979 11.5811 7.72021 11.7679C8.01555 11.8599 8.31545 11.9401 8.62012 12.0081C7.84857 11.2205 7.33165 10.2192 7.13623 9.13407C7.09723 9.24107 7.05521 9.3412 7.01221 9.4412L7.01123 9.43827ZM15.8115 5.02421L15.8452 5.00614C15.6859 4.51811 15.432 4.06612 15.0981 3.67607L14.9404 3.887C14.7082 4.19756 14.4393 4.4791 14.1401 4.72587C14.3474 4.95348 14.6243 5.10682 14.9272 5.16142C15.2302 5.21601 15.5427 5.16906 15.8164 5.02812L15.8115 5.02421Z" fill="white"/>
</svg>
