<svg width="24" height="25" viewBox="0 0 24 25" fill="none" xmlns="http://www.w3.org/2000/svg">
<path d="M22.758 6.11409H17.096C17.6164 6.04049 18.1118 5.84436 18.5416 5.54186C18.9713 5.23935 19.3231 4.8391 19.568 4.37407C19.7104 3.9289 19.7494 3.45712 19.682 2.99461C19.6146 2.53211 19.4425 2.0911 19.179 1.70509C18.9372 1.26481 18.5996 0.884454 18.1911 0.592118C17.7827 0.299782 17.3137 0.102939 16.819 0.0160988C14.819 -0.177901 12.935 2.33309 12.2 3.98509C11.465 2.33309 9.56799 -0.169901 7.58199 0.0160988C7.08723 0.102896 6.61826 0.299608 6.20964 0.591752C5.80102 0.883895 5.46316 1.26401 5.22099 1.70409C4.95758 2.09015 4.78564 2.53119 4.71824 2.99367C4.65083 3.45615 4.68973 3.9279 4.83199 4.37309C5.07684 4.83813 5.42863 5.23834 5.85839 5.54085C6.28816 5.84335 6.78361 6.03949 7.30399 6.11308H1.24399C0.928501 6.10166 0.621222 6.21503 0.388741 6.42861C0.156259 6.64218 0.0172986 6.93875 0.00198364 7.25408V10.6471C0.0175531 10.9622 0.156623 11.2585 0.389076 11.4719C0.62153 11.6853 0.928666 11.7985 1.24399 11.7871H1.79099V22.8641C1.80756 23.1817 1.94899 23.4798 2.18445 23.6935C2.41991 23.9073 2.73031 24.0192 3.04799 24.0051H21.348C21.5055 24.0128 21.6629 23.9893 21.8113 23.9361C21.9597 23.8829 22.0962 23.801 22.2129 23.6951C22.3296 23.5891 22.4243 23.4612 22.4916 23.3186C22.5589 23.176 22.5974 23.0216 22.605 22.8641V11.7881H22.755C23.0705 11.7998 23.3779 11.6867 23.6105 11.4733C23.8432 11.2599 23.9824 10.9634 23.998 10.6481V7.2571C23.9832 6.94178 23.8447 6.64499 23.6126 6.43105C23.3805 6.2171 23.0735 6.10322 22.758 6.11409V6.11409ZM13.031 4.38707C13.806 2.62107 15.486 0.806075 16.731 0.935075C17.0824 1.01005 17.4132 1.16086 17.7002 1.37694C17.9873 1.59302 18.2237 1.86915 18.393 2.18608C18.5814 2.45028 18.7078 2.75349 18.763 3.07323C18.8183 3.39296 18.8008 3.72103 18.712 4.0331C18.286 5.1081 16.274 5.41908 13.944 5.78108C13.5446 5.86812 13.1348 5.89776 12.727 5.8691C12.665 5.7471 12.642 5.27407 13.031 4.38707V4.38707ZM5.68999 4.0331C5.60145 3.721 5.58414 3.39297 5.63936 3.07329C5.69457 2.7536 5.82089 2.4504 6.00899 2.18608C6.17836 1.86923 6.41482 1.59315 6.70187 1.37709C6.98891 1.16103 7.31965 1.01017 7.67099 0.935075C7.71199 0.935075 7.75199 0.929093 7.79399 0.929093C9.02999 0.929093 10.62 2.67808 11.369 4.38808C11.758 5.27408 11.735 5.7481 11.669 5.8691C11.2609 5.89707 10.8508 5.86744 10.451 5.78108C8.12799 5.41908 6.11599 5.10809 5.68999 4.03209V4.0331ZM1.24499 10.8651C1.05699 10.8651 0.925987 10.7501 0.925987 10.6481V7.2571C0.925987 7.1571 1.05699 7.03908 1.24499 7.03908H9.35199V10.8671H1.24499V10.8651ZM10.275 23.0831V7.0371H14.126V23.0831H10.275ZM23.075 10.6481C23.075 10.7481 22.943 10.8651 22.755 10.8651H15.049V7.0371H22.758C22.946 7.0371 23.078 7.15108 23.078 7.25508L23.075 10.6481Z" fill="#57C5D0"/>
</svg>
