<svg width="24" height="25" viewBox="0 0 24 25" fill="none" xmlns="http://www.w3.org/2000/svg">
<path d="M14.7417 22.5032H6.55273C5.88969 22.5032 5.254 22.2397 4.78516 21.7708C4.31632 21.302 4.05273 20.6663 4.05273 20.0032V11.9129H4.00195C3.33891 11.9129 2.70273 11.6498 2.23389 11.181C1.76505 10.7121 1.50195 10.076 1.50195 9.41292V9.29719C1.50195 8.63415 1.76505 7.99846 2.23389 7.52962C2.70273 7.06077 3.33891 6.79719 4.00195 6.79719H7.27588C6.92875 6.69548 6.60731 6.51995 6.33398 6.28303C6.06065 6.04611 5.84186 5.75331 5.69189 5.42415C5.5923 5.01044 5.57526 4.58121 5.64209 4.16096C5.70892 3.74072 5.85804 3.33782 6.08105 2.97542C6.30407 2.61301 6.59637 2.29819 6.94141 2.04915C7.28644 1.80011 7.6776 1.62177 8.0918 1.52424C9.8308 1.32424 11.4605 3.36126 12.1675 4.81526C12.8675 3.36326 14.4617 1.34597 16.1807 1.51497C16.5964 1.60278 16.991 1.77211 17.3413 2.01253C17.6917 2.25294 17.9912 2.56002 18.2227 2.91633C18.4541 3.27265 18.6127 3.67088 18.6899 4.0887C18.7672 4.50652 18.7616 4.93586 18.6729 5.35139C18.5173 5.69727 18.2891 6.0052 18.0039 6.2552C17.7187 6.50521 17.3828 6.69117 17.0195 6.80012H19.9985C20.6616 6.80012 21.2978 7.0637 21.7666 7.53255C22.2354 8.00139 22.4985 8.63708 22.4985 9.30012V9.41633C22.4995 10.0295 22.2753 10.6214 21.8682 11.0799C21.4611 11.5385 20.8995 11.8315 20.2905 11.9032V20.0101C20.2905 20.6731 20.0274 21.3093 19.5586 21.7782C19.0898 22.247 18.4536 22.5101 17.7905 22.5101L14.7417 22.5032ZM17.7949 21.5032C18.1927 21.5032 18.5742 21.3451 18.8555 21.0638C19.1368 20.7825 19.2949 20.4011 19.2949 20.0032V11.9129H14.7417V21.5032H17.7949ZM13.7427 21.5032V7.80305H10.6045V21.5032H13.7427ZM5.05273 20.0032C5.05273 20.4011 5.21088 20.7825 5.49219 21.0638C5.77349 21.3451 6.15491 21.5032 6.55273 21.5032H9.60352V11.9129H5.05273V20.0032ZM20.0029 10.9144C20.4008 10.9144 20.7822 10.7562 21.0635 10.4749C21.3448 10.1936 21.5029 9.81221 21.5029 9.41438V9.29817C21.5029 8.90035 21.3448 8.51893 21.0635 8.23762C20.7822 7.95632 20.4008 7.79817 20.0029 7.79817H14.7427V10.9144H20.0029ZM9.60254 10.9144V7.80305H4.00293C3.6051 7.80305 3.2232 7.9612 2.94189 8.24251C2.66059 8.52381 2.50293 8.90523 2.50293 9.30305V9.41926C2.50293 9.81709 2.66059 10.1985 2.94189 10.4798C3.2232 10.7611 3.6051 10.9193 4.00293 10.9193H9.60254V10.9144ZM13.481 4.51399C13.0197 5.11123 12.7489 5.83392 12.7046 6.58723C13.0276 6.59284 13.3502 6.56502 13.6675 6.50423C15.6595 6.19623 17.3737 5.9291 17.7217 5.0511C17.8245 4.48736 17.7047 3.90591 17.3877 3.42854C17.0707 2.95117 16.581 2.61498 16.0215 2.49104C15.9985 2.49104 15.9747 2.49104 15.9507 2.49104C15.2907 2.49704 14.2749 3.29229 13.4819 4.52229L13.481 4.51399ZM8.25684 2.50227C7.69983 2.64467 7.22015 2.99811 6.91943 3.48811C6.61871 3.97811 6.52025 4.56616 6.64551 5.12727C6.97051 5.92727 8.6849 6.19527 10.6709 6.50227C10.9901 6.56414 11.3146 6.59259 11.6396 6.58723C11.5933 5.83089 11.3212 5.10584 10.8579 4.50618C10.0729 3.28918 9.07866 2.49837 8.34766 2.49837C8.31766 2.50337 8.29081 2.50908 8.25781 2.51008L8.25684 2.50227Z" fill="white"/>
</svg>
