<svg width="48" height="48" viewBox="0 0 48 48" fill="none" xmlns="http://www.w3.org/2000/svg">
<path d="M15.929 17.457L14.467 17.447L14.55 3.854C14.5126 2.8737 14.8645 1.91838 15.5288 1.19653C16.1931 0.474687 17.116 0.0448902 18.096 0.000976562H22.196C22.394 0.00517669 22.5822 0.087769 22.7192 0.230652C22.8563 0.373535 22.9311 0.565042 22.9271 0.763V2.448C22.9176 2.56446 22.9541 2.67995 23.0289 2.76971C23.1037 2.85948 23.2108 2.91631 23.327 2.92798H31.421C31.5373 2.91631 31.6443 2.85948 31.7191 2.76971C31.7939 2.67995 31.8305 2.56446 31.821 2.448V0.763C31.817 0.565042 31.8917 0.373535 32.0288 0.230652C32.1659 0.087769 32.3541 0.00517669 32.5521 0.000976562H36.132C37.1127 0.0453944 38.0359 0.476064 38.7001 1.19891C39.3643 1.92176 39.7156 2.87803 39.6771 3.85895V14.636C39.6823 14.7352 39.6671 14.8344 39.6328 14.9276C39.5984 15.0208 39.5454 15.106 39.477 15.1781C39.4086 15.2502 39.3263 15.3076 39.235 15.3468C39.1437 15.386 39.0454 15.4062 38.946 15.4062C38.8467 15.4062 38.7484 15.386 38.6571 15.3468C38.5658 15.3076 38.4835 15.2502 38.4151 15.1781C38.3467 15.106 38.2937 15.0208 38.2593 14.9276C38.2249 14.8344 38.2098 14.7352 38.215 14.636V3.85797C38.2454 3.2729 38.0434 2.6995 37.6531 2.26257C37.2628 1.82565 36.7158 1.56056 36.131 1.52496H33.282V2.44696C33.2985 2.95844 33.1122 3.45574 32.7635 3.83038C32.4149 4.20503 31.9324 4.42664 31.421 4.44696H23.327C22.8157 4.42664 22.3331 4.20503 21.9845 3.83038C21.6359 3.45574 21.4496 2.95844 21.4661 2.44696V1.526H18.092C17.5071 1.56135 16.9598 1.82629 16.5693 2.26324C16.1788 2.7002 15.9767 3.27371 16.007 3.85895L15.929 17.457Z" fill="white"/>
<path d="M36.117 41.789H17.994C17.0107 41.7471 16.084 41.3177 15.4163 40.5946C14.7487 39.8715 14.3944 38.9135 14.431 37.93V24.822C14.4304 24.6929 14.4624 24.5656 14.5239 24.452C14.5854 24.3384 14.6745 24.2421 14.783 24.172L19.248 21.344C19.4256 21.2472 19.5739 21.1041 19.677 20.9301C19.7802 20.756 19.8344 20.5573 19.834 20.355V19.183C19.8366 18.9942 19.7906 18.808 19.7005 18.6421C19.6103 18.4762 19.4789 18.3364 19.319 18.236C19.1667 18.138 18.9904 18.0839 18.8093 18.0797C18.6283 18.0754 18.4497 18.1212 18.293 18.212L11.77 21.839C11.5995 21.937 11.4581 22.0785 11.3604 22.2492C11.2627 22.4198 11.2122 22.6134 11.214 22.81V33.41C11.2176 33.5087 11.2014 33.6072 11.1661 33.6995C11.1308 33.7918 11.0772 33.876 11.0087 33.9472C10.9401 34.0183 10.8579 34.0749 10.767 34.1135C10.6761 34.1522 10.5783 34.1721 10.4795 34.1721C10.3807 34.1721 10.2829 34.1522 10.192 34.1135C10.101 34.0749 10.0188 34.0183 9.95027 33.9472C9.8817 33.876 9.82819 33.7918 9.79292 33.6995C9.75765 33.6072 9.74136 33.5087 9.74501 33.41V22.81C9.74101 22.3408 9.86224 21.879 10.0962 21.4722C10.3302 21.0655 10.6684 20.7285 11.076 20.496L17.599 16.868C17.9783 16.6531 18.4088 16.5452 18.8446 16.5556C19.2804 16.5659 19.7053 16.6943 20.074 16.927C20.4548 17.1664 20.7677 17.4996 20.9829 17.8946C21.1981 18.2896 21.3083 18.7332 21.303 19.183V20.355C21.307 20.8228 21.1868 21.2832 20.9545 21.6893C20.7222 22.0953 20.3863 22.4324 19.981 22.666L15.9 25.252V37.93C15.8708 38.5165 16.0744 39.0909 16.4666 39.528C16.8587 39.9652 17.4077 40.2296 17.994 40.264H36.116C36.7025 40.2302 37.2519 39.9659 37.6444 39.5286C38.0368 39.0914 38.2405 38.5168 38.211 37.93C38.2074 37.8313 38.2237 37.7328 38.2589 37.6405C38.2942 37.5482 38.3477 37.464 38.4163 37.3928C38.4848 37.3217 38.567 37.2651 38.658 37.2265C38.7489 37.1878 38.8467 37.1679 38.9455 37.1679C39.0443 37.1679 39.1421 37.1878 39.233 37.2265C39.3239 37.2651 39.4061 37.3217 39.4747 37.3928C39.5432 37.464 39.5968 37.5482 39.632 37.6405C39.6673 37.7328 39.6836 37.8313 39.68 37.93C39.7166 38.9135 39.3623 39.8715 38.6947 40.5946C38.027 41.3177 37.1003 41.7471 36.117 41.789Z" fill="white"/>
<path d="M40.9819 37.289C40.6628 37.2891 40.3465 37.2287 40.0499 37.111L39.5369 36.911C37.9785 36.287 36.6449 35.2068 35.711 33.812C34.777 32.4171 34.2862 30.7726 34.3029 29.094V17.955C34.3015 17.5291 34.4032 17.1092 34.5992 16.7311C34.7953 16.3531 35.08 16.0282 35.4289 15.784C35.7716 15.5451 36.1682 15.3948 36.5832 15.3466C36.9982 15.2985 37.4186 15.3539 37.8069 15.508L41.9139 17.139C42.4021 17.3341 42.8198 17.6721 43.1125 18.1088C43.4051 18.5454 43.559 19.0604 43.5539 19.586V34.664C43.5554 35.0897 43.4537 35.5094 43.2576 35.8873C43.0615 36.2652 42.7768 36.59 42.4279 36.834C42.0037 37.1299 41.4991 37.2887 40.9819 37.289ZM36.8719 16.854C36.6572 16.8541 36.4476 16.9205 36.2719 17.044C36.1245 17.1457 36.0045 17.2821 35.9222 17.4411C35.8399 17.6001 35.7979 17.777 35.7999 17.956V29.091C35.7966 30.4623 36.202 31.8035 36.9643 32.9434C37.7266 34.0833 38.8113 34.9703 40.0799 35.491L40.5929 35.691C40.7536 35.7563 40.9282 35.7801 41.1005 35.7601C41.2728 35.7402 41.4373 35.6772 41.5789 35.577C41.7263 35.4752 41.8464 35.3389 41.9287 35.1799C42.011 35.0209 42.053 34.844 42.0509 34.665V19.586C42.0517 19.366 41.9868 19.1508 41.8646 18.9678C41.7424 18.7849 41.5684 18.6425 41.3649 18.559L37.2579 16.929C37.1348 16.8796 37.0035 16.8542 36.8709 16.854H36.8719Z" fill="white"/>
<path d="M20.802 48C20.782 48.0012 20.762 48.0012 20.742 48C16.0441 47.6221 11.6621 45.4841 8.47294 42.014C6.57557 39.8583 5.2061 37.2905 4.47294 34.514C4.42828 34.3495 4.43973 34.1749 4.50548 34.0177C4.57122 33.8605 4.68755 33.7297 4.83598 33.646L10.136 30.694C10.2223 30.6459 10.3173 30.6154 10.4155 30.6044C10.5137 30.5935 10.6132 30.6023 10.708 30.6302C10.8028 30.6581 10.8911 30.7047 10.9676 30.7672C11.0442 30.8296 11.1076 30.9068 11.154 30.994C11.2495 31.1713 11.2716 31.379 11.2155 31.5724C11.1594 31.7658 11.0296 31.9294 10.854 32.028L6.07896 34.685C6.77908 37.0122 7.97289 39.1611 9.57896 40.985C12.459 44.1155 16.3991 46.0649 20.635 46.455L31.563 40.355C31.6494 40.3069 31.7445 40.2766 31.8428 40.2657C31.941 40.2548 32.0405 40.2636 32.1353 40.2915C32.2301 40.3194 32.3185 40.3659 32.3952 40.4283C32.4719 40.4908 32.5354 40.5678 32.582 40.655C32.6778 40.8324 32.7001 41.0403 32.644 41.2339C32.5878 41.4276 32.4578 41.5914 32.282 41.69L21.154 47.9C21.0468 47.9621 20.9258 47.9964 20.802 48Z" fill="white"/>
<path d="M34.2889 12.699C34.1897 12.6991 34.0915 12.6792 34.0001 12.6406C33.9087 12.6019 33.826 12.5452 33.757 12.4739C32.9395 11.6383 31.9634 10.9743 30.8858 10.521C29.8082 10.0677 28.651 9.83417 27.482 9.83417C26.313 9.83417 25.1557 10.0677 24.0781 10.521C23.0006 10.9743 22.0244 11.6383 21.207 12.4739C21.1379 12.5447 21.0555 12.601 20.9644 12.6394C20.8732 12.6778 20.7753 12.6976 20.6765 12.6976C20.5776 12.6976 20.4797 12.6778 20.3886 12.6394C20.2975 12.601 20.215 12.5447 20.146 12.4739C20.0051 12.3297 19.9261 12.1361 19.9261 11.9344C19.9261 11.7328 20.0051 11.5392 20.146 11.395C21.1018 10.417 22.2433 9.63995 23.5036 9.10944C24.7639 8.57892 26.1176 8.30566 27.485 8.30566C28.8524 8.30566 30.206 8.57892 31.4663 9.10944C32.7266 9.63995 33.8682 10.417 34.824 11.395C34.9651 11.5391 35.0442 11.7327 35.0442 11.9344C35.0442 12.1362 34.9651 12.3298 34.824 12.4739C34.7545 12.5454 34.6713 12.6022 34.5793 12.6409C34.4874 12.6795 34.3887 12.6993 34.2889 12.699Z" fill="white"/>
<path d="M32.45 14.549C32.3508 14.5487 32.2526 14.5287 32.1613 14.4901C32.0699 14.4515 31.9872 14.395 31.918 14.324C31.3416 13.7351 30.6536 13.2673 29.894 12.9479C29.1345 12.6286 28.3189 12.4641 27.4949 12.4641C26.671 12.4641 25.8554 12.6286 25.0959 12.9479C24.3364 13.2673 23.6483 13.7351 23.072 14.324C23.0029 14.3948 22.9205 14.451 22.8293 14.4894C22.7382 14.5279 22.6403 14.5476 22.5414 14.5476C22.4426 14.5476 22.3447 14.5279 22.2536 14.4894C22.1625 14.451 22.08 14.3948 22.011 14.324C21.8701 14.1797 21.7911 13.9861 21.7911 13.7845C21.7911 13.5828 21.8701 13.3892 22.011 13.2449C22.7256 12.5137 23.5792 11.9327 24.5215 11.536C25.4639 11.1393 26.476 10.935 27.4985 10.935C28.5209 10.935 29.533 11.1393 30.4754 11.536C31.4178 11.9327 32.2713 12.5137 32.986 13.2449C33.1269 13.3892 33.2057 13.5828 33.2057 13.7845C33.2057 13.9861 33.1269 14.1797 32.986 14.324C32.9163 14.3955 32.8329 14.4523 32.7408 14.491C32.6488 14.5296 32.5498 14.5493 32.45 14.549Z" fill="white"/>
<path d="M30.033 16.237C29.3957 15.582 28.5275 15.2023 27.614 15.179C26.7008 15.2026 25.833 15.5823 25.196 16.237C25.127 16.3078 25.0445 16.364 24.9534 16.4024C24.8622 16.4408 24.7644 16.4606 24.6655 16.4606C24.5666 16.4606 24.4687 16.4408 24.3776 16.4024C24.2865 16.364 24.204 16.3078 24.135 16.237C23.9941 16.0929 23.9153 15.8994 23.9153 15.698C23.9153 15.4965 23.9941 15.303 24.135 15.159C24.3558 14.9352 24.5968 14.7323 24.855 14.553C25.6129 13.9587 26.551 13.6412 27.514 13.653H27.714C28.524 13.6501 29.3179 13.8791 30.002 14.313C30.4039 14.5448 30.7721 14.8308 31.096 15.163C31.2368 15.307 31.3157 15.5005 31.3157 15.702C31.3157 15.9034 31.2368 16.0969 31.096 16.241C31.027 16.3118 30.9445 16.368 30.8534 16.4064C30.7622 16.4448 30.6644 16.4646 30.5655 16.4646C30.4666 16.4646 30.3687 16.4448 30.2776 16.4064C30.1865 16.368 30.104 16.3118 30.035 16.241L30.033 16.237Z" fill="white"/>
<path d="M26.28 32.4769C26.1807 32.4762 26.0826 32.4559 25.9911 32.4171C25.8997 32.3784 25.8168 32.3221 25.7471 32.2513C25.6775 32.1805 25.6225 32.0967 25.5852 32.0047C25.5479 31.9127 25.5292 31.8142 25.53 31.7149V26.7149L24.607 27.658C24.538 27.7288 24.4554 27.785 24.3643 27.8234C24.2732 27.8618 24.1754 27.8816 24.0765 27.8816C23.9776 27.8816 23.8797 27.8618 23.7886 27.8234C23.6975 27.785 23.615 27.7288 23.546 27.658C23.405 27.5138 23.3262 27.3201 23.3262 27.1184C23.3262 26.9168 23.405 26.7232 23.546 26.5789L25.746 24.325C25.8499 24.2183 25.9834 24.1453 26.1292 24.1154C26.275 24.0854 26.4265 24.0999 26.564 24.1569C26.7021 24.2158 26.8198 24.3141 26.9023 24.4395C26.9849 24.5649 27.0285 24.7118 27.028 24.862V31.708C27.0295 31.8076 27.0114 31.9066 26.9747 31.9993C26.9379 32.0919 26.8832 32.1764 26.8137 32.2478C26.7442 32.3193 26.6613 32.3763 26.5697 32.4156C26.4781 32.4549 26.3796 32.4758 26.28 32.4769Z" fill="white"/>
<path d="M28.489 32.4769C28.3908 32.4767 28.2935 32.457 28.203 32.4189C28.0657 32.3604 27.9485 32.2629 27.866 32.1385C27.7836 32.0141 27.7394 31.8682 27.739 31.7189V24.8729C27.739 24.674 27.818 24.4832 27.9587 24.3426C28.0993 24.2019 28.2901 24.1229 28.489 24.1229C28.6879 24.1229 28.8787 24.2019 29.0193 24.3426C29.16 24.4832 29.239 24.674 29.239 24.8729V29.8729L30.161 28.9299C30.2303 28.8595 30.3128 28.8036 30.4039 28.7654C30.495 28.7272 30.5928 28.7076 30.6915 28.7076C30.7903 28.7076 30.888 28.7272 30.9791 28.7654C31.0702 28.8036 31.1527 28.8595 31.222 28.9299C31.3627 29.0743 31.4414 29.2679 31.4414 29.4694C31.4414 29.671 31.3627 29.8646 31.222 30.0089L29.022 32.2629C28.9517 32.3321 28.8684 32.3865 28.7769 32.4233C28.6854 32.46 28.5876 32.4782 28.489 32.4769Z" fill="white"/>
<path d="M28.579 16.929C28.8614 17.2165 29.0191 17.6039 29.018 18.007C29.013 18.3025 28.9209 18.5901 28.7531 18.8334C28.5853 19.0768 28.3494 19.2651 28.0749 19.3748C27.8004 19.4845 27.4996 19.5107 27.2103 19.45C26.921 19.3893 26.6561 19.2446 26.4488 19.0338C26.2415 18.8231 26.1011 18.5558 26.0452 18.2656C25.9894 17.9753 26.0205 17.675 26.1347 17.4023C26.2489 17.1297 26.4412 16.8969 26.6873 16.7332C26.9334 16.5694 27.2224 16.482 27.518 16.482C27.7157 16.482 27.9114 16.5216 28.0936 16.5983C28.2758 16.6751 28.4409 16.7875 28.579 16.929Z" fill="white"/>
</svg>
