<svg width="24" height="25" viewBox="0 0 24 25" fill="none" xmlns="http://www.w3.org/2000/svg">
<path d="M1.5 12.005C1.5 11.4933 1.53742 10.982 1.61133 10.4757C1.61909 10.4093 1.63983 10.3454 1.67285 10.2872C1.70588 10.2291 1.75064 10.178 1.80371 10.1373C1.85678 10.0966 1.9172 10.0668 1.98193 10.0499C2.04667 10.0331 2.11399 10.0295 2.18018 10.0392C2.24636 10.0489 2.31001 10.0719 2.36719 10.1066C2.42437 10.1413 2.47403 10.1871 2.51318 10.2413C2.55233 10.2956 2.58028 10.3573 2.59521 10.4225C2.61015 10.4877 2.61173 10.5549 2.6001 10.6207C2.53219 11.0789 2.49866 11.5418 2.5 12.005C2.5 13.8839 3.0572 15.7206 4.10107 17.2828C5.14495 18.8451 6.62885 20.0628 8.36475 20.7819C10.1006 21.5009 12.0107 21.6889 13.8535 21.3224C15.6963 20.9558 17.3892 20.0509 18.7178 18.7223C20.0464 17.3937 20.9513 15.7009 21.3179 13.858C21.6844 12.0152 21.4959 10.1052 20.7769 8.36926C20.0578 6.63336 18.8406 5.14995 17.2783 4.10608C15.7161 3.06221 13.8789 2.505 12 2.505C11.8674 2.505 11.7403 2.45229 11.6465 2.35852C11.5527 2.26475 11.5 2.13761 11.5 2.005C11.5 1.8724 11.5527 1.74526 11.6465 1.65149C11.7403 1.55772 11.8674 1.505 12 1.505C14.0767 1.505 16.1068 2.12078 17.8335 3.27454C19.5602 4.42829 20.9065 6.06831 21.7012 7.98694C22.4959 9.90556 22.7035 12.0165 22.2983 14.0533C21.8932 16.0901 20.8933 17.9609 19.4248 19.4293C17.9564 20.8978 16.0856 21.8982 14.0488 22.3033C12.012 22.7085 9.90056 22.5004 7.98193 21.7057C6.06331 20.911 4.42377 19.5652 3.27002 17.8385C2.11626 16.1118 1.5 14.0817 1.5 12.005V12.005ZM10 17.505C9.86739 17.505 9.74025 17.4523 9.64648 17.3585C9.55272 17.2648 9.5 17.1376 9.5 17.005C9.5 16.8724 9.55272 16.7453 9.64648 16.6515C9.74025 16.5577 9.86739 16.505 10 16.505H16C16.1326 16.505 16.2602 16.5577 16.354 16.6515C16.4478 16.7453 16.5 16.8724 16.5 17.005C16.5 17.1376 16.4478 17.2648 16.354 17.3585C16.2602 17.4523 16.1326 17.505 16 17.505H10ZM10 13.505C9.86739 13.505 9.74025 13.4523 9.64648 13.3585C9.55272 13.2648 9.5 13.1376 9.5 13.005C9.5 12.8724 9.55272 12.7453 9.64648 12.6515C9.74025 12.5577 9.86739 12.505 10 12.505H18C18.1326 12.505 18.2602 12.5577 18.354 12.6515C18.4478 12.7453 18.5 12.8724 18.5 13.005C18.5 13.1376 18.4478 13.2648 18.354 13.3585C18.2602 13.4523 18.1326 13.505 18 13.505H10ZM6.06006 13.361C5.93504 13.3502 5.81903 13.2929 5.73438 13.2003C5.64972 13.1077 5.60256 12.9864 5.60303 12.861C5.60205 12.8463 5.60205 12.8317 5.60303 12.817C5.6191 12.6058 5.62362 12.3935 5.61621 12.1818C5.61071 12.1158 5.61883 12.0496 5.64014 11.9869C5.66144 11.9242 5.69567 11.8665 5.74023 11.8175C5.7848 11.7685 5.839 11.7294 5.89941 11.7023C5.95983 11.6752 6.02509 11.6605 6.09131 11.6598C6.22362 11.6538 6.35282 11.7009 6.45068 11.7902C6.54855 11.8794 6.60706 12.0036 6.61328 12.1359C6.62559 12.3916 6.62045 12.6479 6.59814 12.903C6.58735 13.028 6.53012 13.1445 6.4375 13.2291C6.34488 13.3138 6.22363 13.3605 6.09814 13.36L6.06006 13.361ZM5.52539 9.66077C5.34363 8.89642 4.90173 8.21906 4.27539 7.74475C3.46929 7.1393 2.87991 6.29 2.59521 5.32288C2.48768 4.7053 2.57999 4.06958 2.8584 3.50793C3.08658 3.03733 3.41673 2.62363 3.8252 2.297C4.23366 1.97036 4.70998 1.73885 5.21924 1.61975C5.73108 1.50057 6.26317 1.49852 6.77588 1.61389C7.28859 1.72926 7.76872 1.95932 8.18018 2.28625C8.59163 2.61319 8.92361 3.02869 9.15186 3.50208C9.3801 3.97546 9.49848 4.49461 9.49805 5.02014C9.49805 5.15275 9.44533 5.27989 9.35156 5.37366C9.25779 5.46743 9.13066 5.52014 8.99805 5.52014C8.86544 5.52014 8.7383 5.46743 8.64453 5.37366C8.55076 5.27989 8.49805 5.15275 8.49805 5.02014C8.49692 4.64566 8.41208 4.27621 8.24902 3.93909C8.08596 3.60197 7.84903 3.30575 7.55615 3.07239C7.26327 2.83902 6.92166 2.6741 6.55664 2.59045C6.19162 2.5068 5.81254 2.50645 5.44727 2.58899C5.0819 2.67563 4.74024 2.8424 4.44727 3.07727C4.15429 3.31214 3.91747 3.60913 3.75342 3.9469C3.57398 4.30428 3.5093 4.70861 3.56836 5.10413C3.80021 5.83938 4.25799 6.48273 4.87646 6.94299C5.68818 7.55764 6.26052 8.43535 6.49609 9.4259C6.52617 9.55451 6.50438 9.68995 6.43506 9.80237C6.36574 9.91478 6.25488 9.99513 6.12646 10.026C6.0885 10.0354 6.04937 10.0406 6.01025 10.0411C5.89893 10.0406 5.7911 10.0025 5.70361 9.93372C5.61612 9.86488 5.55406 9.76884 5.52734 9.66077H5.52539ZM10 9.50696C9.86739 9.50696 9.74025 9.45424 9.64648 9.36047C9.55272 9.26671 9.5 9.13957 9.5 9.00696C9.5 8.87435 9.55272 8.74721 9.64648 8.65344C9.74025 8.55967 9.86739 8.50696 10 8.50696H16C16.1326 8.50696 16.2602 8.55967 16.354 8.65344C16.4478 8.74721 16.5 8.87435 16.5 9.00696C16.5 9.13957 16.4478 9.26671 16.354 9.36047C16.2602 9.45424 16.1326 9.50696 16 9.50696H10Z" fill="white"/>
</svg>
