<svg width="22" height="18" viewBox="0 0 22 18" fill="none" xmlns="http://www.w3.org/2000/svg">
<g id="hide">
<path id="Path 1529 (Stroke)" fill-rule="evenodd" clip-rule="evenodd" d="M18.4526 5.78753C18.6429 5.58739 18.9594 5.57937 19.1595 5.76963C20.076 6.64088 20.8465 7.65389 21.4413 8.76984C21.5196 8.91684 21.5196 9.0932 21.4413 9.2402C20.2813 11.4166 18.47 13.1759 16.2609 14.2723C14.0518 15.3686 11.5553 15.747 9.12048 15.3547C8.84785 15.3107 8.66246 15.0541 8.70639 14.7815C8.75033 14.5088 9.00695 14.3235 9.27958 14.3674C11.5085 14.7266 13.794 14.3801 15.8164 13.3765C17.7586 12.4127 19.3648 10.889 20.4297 9.00503C19.9046 8.07631 19.2445 7.23014 18.4705 6.49441C18.2704 6.30416 18.2624 5.98767 18.4526 5.78753Z" fill="white"/>
<path id="Path 1530 (Stroke)" fill-rule="evenodd" clip-rule="evenodd" d="M15.672 4.56695C13.155 3.36142 10.2696 3.17452 7.61803 4.04525C5.0516 4.88802 2.89616 6.65859 1.57044 9.00477C2.66298 10.9346 4.32277 12.4848 6.32758 13.4429C6.57674 13.5619 6.6822 13.8604 6.56314 14.1096C6.44407 14.3587 6.14557 14.4642 5.89642 14.3451C3.61829 13.2565 1.74802 11.4678 0.558921 9.24048C0.480428 9.09345 0.480356 8.91697 0.558729 8.76988C1.99231 6.07932 4.40956 4.04632 7.30604 3.09516C10.2025 2.144 13.3544 2.34817 16.104 3.66505C16.353 3.78433 16.4582 4.08292 16.3389 4.33198C16.2197 4.58103 15.9211 4.68623 15.672 4.56695Z" fill="white"/>
<path id="Path 1531 (Stroke)" fill-rule="evenodd" clip-rule="evenodd" d="M14.0162 9.40187C14.2803 9.48262 14.4289 9.76215 14.3481 10.0262C14.1984 10.5158 13.9434 10.9666 13.6008 11.347C13.2583 11.7274 12.8366 12.0282 12.3654 12.2283C12.1112 12.3362 11.8176 12.2176 11.7097 11.9634C11.6018 11.7092 11.7204 11.4157 11.9746 11.3078C12.3114 11.1648 12.6128 10.9498 12.8577 10.6779C13.1025 10.406 13.2848 10.0837 13.3918 9.73381C13.4726 9.46973 13.7521 9.32112 14.0162 9.40187Z" fill="white"/>
<path id="Path 1532 (Stroke)" fill-rule="evenodd" clip-rule="evenodd" d="M10.9849 6.46823C10.6529 6.46535 10.3237 6.5286 10.0165 6.65431C9.70923 6.78001 9.4301 6.96564 9.19537 7.20037C8.96064 7.4351 8.775 7.71423 8.6493 8.02148C8.5236 8.32872 8.46034 8.65792 8.46323 8.98986C8.46611 9.32181 8.53508 9.64986 8.6661 9.95487C8.79712 10.2599 8.98758 10.5357 9.22636 10.7664C9.42498 10.9582 9.43048 11.2747 9.23864 11.4734C9.0468 11.672 8.73027 11.6775 8.53164 11.4856C8.19736 11.1628 7.93072 10.7766 7.74729 10.3496C7.56386 9.92255 7.46731 9.46328 7.46327 8.99855C7.45923 8.53382 7.54778 8.07295 7.72377 7.64281C7.89975 7.21267 8.15964 6.82189 8.48826 6.49327C8.81689 6.16464 9.20767 5.90476 9.6378 5.72877C10.0679 5.55279 10.5288 5.46423 10.9935 5.46827C11.4583 5.47231 11.9175 5.56886 12.3446 5.75229C12.7716 5.93572 13.1578 6.20236 13.4806 6.53665C13.6725 6.73527 13.667 7.05181 13.4684 7.24365C13.2697 7.43549 12.9532 7.42999 12.7614 7.23136C12.5307 6.99259 12.2549 6.80213 11.9499 6.67111C11.6449 6.54008 11.3168 6.47112 10.9849 6.46823Z" fill="white"/>
<path id="Line 82 (Stroke)" fill-rule="evenodd" clip-rule="evenodd" d="M9.23255 10.7725C9.42782 10.9677 9.42782 11.2843 9.23255 11.4796L3.35355 17.3586C3.15829 17.5538 2.84171 17.5538 2.64645 17.3586C2.45118 17.1633 2.45118 16.8467 2.64645 16.6515L8.52545 10.7725C8.72071 10.5772 9.03729 10.5772 9.23255 10.7725Z" fill="white"/>
<path id="Line 83 (Stroke)" fill-rule="evenodd" clip-rule="evenodd" d="M16.2416 3.76345C16.4368 3.95871 16.4368 4.2753 16.2416 4.47056L9.23258 11.4796C9.03732 11.6748 8.72074 11.6748 8.52547 11.4796C8.33021 11.2843 8.33021 10.9677 8.52547 10.7725L15.5345 3.76345C15.7297 3.56819 16.0463 3.56819 16.2416 3.76345Z" fill="white"/>
<path id="Line 84 (Stroke)" fill-rule="evenodd" clip-rule="evenodd" d="M19.3536 0.651451C19.5488 0.846714 19.5488 1.1633 19.3536 1.35856L16.2416 4.47056C16.0463 4.66582 15.7297 4.66582 15.5344 4.47056C15.3392 4.2753 15.3392 3.95871 15.5344 3.76345L18.6464 0.651451C18.8417 0.456189 19.1583 0.456189 19.3536 0.651451Z" fill="white"/>
</g>
</svg>
