<svg width="24" height="24" viewBox="0 0 24 24" fill="none" xmlns="http://www.w3.org/2000/svg">
<path d="M3 18.4567V17.8918C3 16.5908 3.83856 15.4381 5.07637 15.0375L6.52826 14.5677C7.60432 14.2195 8.75805 14.5783 9.78451 15.0532C11.1831 15.7003 12.8169 15.7003 14.2155 15.0532C15.242 14.5783 16.3957 14.2195 17.4717 14.5677L18.9236 15.0375C20.1614 15.4381 21 16.5908 21 17.8918V18.1154C21 19.3811 20.2088 20.5249 18.9933 20.8778C14.3129 22.2366 9.86536 22.36 5.14336 21.2559C3.85892 20.9555 3 19.7757 3 18.4567Z" stroke="white"/>
<path d="M13.1241 2H10.8759C9.58173 2 8.39499 2.82454 8.17634 4.10014C7.86753 5.90173 7.96432 7.64169 8.4667 9.48191C8.6103 10.0079 8.91826 10.4791 9.36349 10.7938C11.1668 12.0687 12.8332 12.0687 14.6365 10.7938C15.0817 10.4791 15.3897 10.0079 15.5333 9.48191C16.0357 7.64169 16.1325 5.90173 15.8237 4.10014C15.605 2.82454 14.4183 2 13.1241 2Z" stroke="white"/>
<path d="M15.5001 17.2968H17.2627M14.2627 19H17.2627" stroke="white" stroke-linecap="round" stroke-linejoin="round"/>
</svg>
