<svg width="24" height="25" viewBox="0 0 24 25" fill="none" xmlns="http://www.w3.org/2000/svg">
<path d="M1.49805 12.0051C1.49805 9.92836 2.11431 7.89829 3.26807 6.17157C4.42182 4.44485 6.06136 3.0991 7.97998 2.30438C9.8986 1.50966 12.0101 1.30158 14.0469 1.70673C16.0837 2.11187 17.9544 3.11181 19.4229 4.58026C20.8913 6.04871 21.8912 7.91993 22.2964 9.95673C22.7015 11.9935 22.4939 14.1045 21.6992 16.0231C20.9045 17.9418 19.5583 19.5818 17.8315 20.7355C16.1048 21.8893 14.0748 22.5051 11.998 22.5051C9.21425 22.5019 6.54559 21.3944 4.57715 19.426C2.6087 17.4575 1.50122 14.7889 1.49805 12.0051ZM2.49805 12.0051C2.49805 13.884 3.05525 15.7206 4.09912 17.2829C5.14299 18.8452 6.62689 20.0629 8.36279 20.7819C10.0987 21.501 12.0087 21.689 13.8516 21.3224C15.6944 20.9559 17.3872 20.0509 18.7158 18.7224C20.0444 17.3938 20.9494 15.7009 21.3159 13.8581C21.6825 12.0153 21.4939 10.1052 20.7749 8.36932C20.0559 6.63343 18.8386 5.15001 17.2764 4.10614C15.7141 3.06227 13.877 2.50507 11.998 2.50507C9.47964 2.50851 7.06585 3.51032 5.28516 5.2912C3.50446 7.07208 2.50269 9.48666 2.49951 12.0051H2.49805ZM11.498 17.5051V10.5051C11.498 10.3725 11.5508 10.2453 11.6445 10.1516C11.7383 10.0578 11.8654 10.0051 11.998 10.0051C12.1307 10.0051 12.2583 10.0578 12.3521 10.1516C12.4458 10.2453 12.498 10.3725 12.498 10.5051V17.5051C12.498 17.6377 12.4458 17.7648 12.3521 17.8586C12.2583 17.9523 12.1307 18.0051 11.998 18.0051C11.8654 18.0051 11.7383 17.9523 11.6445 17.8586C11.5508 17.7648 11.498 17.6377 11.498 17.5051ZM11.8062 7.4621C11.744 7.44087 11.689 7.40332 11.6465 7.35321C11.5949 7.31097 11.5564 7.25459 11.5361 7.1911C11.5081 7.13249 11.4943 7.06806 11.4961 7.00311C11.4953 6.93761 11.509 6.87279 11.5361 6.81317C11.5569 6.75051 11.5954 6.69487 11.6465 6.65302C11.7153 6.58262 11.8035 6.53461 11.8999 6.51483C11.9963 6.49505 12.0965 6.50456 12.1875 6.54218C12.3076 6.59619 12.4029 6.69272 12.4561 6.81317C12.4839 6.87257 12.4976 6.93754 12.4961 7.00311C12.4979 7.06873 12.4857 7.13364 12.46 7.19403C12.4342 7.25443 12.3957 7.30899 12.3472 7.35321C12.3045 7.4031 12.2496 7.44061 12.1875 7.4621C12.1284 7.49083 12.0627 7.50461 11.9971 7.50214C11.932 7.50538 11.8672 7.49257 11.8081 7.46503L11.8062 7.4621Z" fill="white"/>
</svg>
