<svg width="24" height="25" viewBox="0 0 24 25" fill="none" xmlns="http://www.w3.org/2000/svg">
<path d="M6.00195 22.505C4.80921 22.5026 3.66566 22.0276 2.82227 21.1842C1.97887 20.3408 1.50433 19.1977 1.50195 18.005V6.005C1.5038 4.8121 1.97826 3.66834 2.82178 2.82483C3.66529 1.98132 4.80905 1.50686 6.00195 1.505H18.002C19.1949 1.50659 20.3386 1.98126 21.1821 2.82483C22.0257 3.6684 22.5004 4.81202 22.502 6.005V18.005C22.5001 19.1979 22.0252 20.3412 21.1816 21.1847C20.3381 22.0282 19.1949 22.5032 18.002 22.505H6.00195ZM2.50195 6.005V18.005C2.50195 18.9333 2.87048 19.8232 3.52686 20.4796C4.18323 21.136 5.0737 21.505 6.00195 21.505H18.002C18.9296 21.5032 19.8186 21.1336 20.4746 20.4777C21.1306 19.8217 21.5001 18.9327 21.502 18.005V6.005C21.5004 5.07723 21.1311 4.18789 20.4751 3.53186C19.8191 2.87583 18.9297 2.50659 18.002 2.505H6.00195C5.54224 2.50487 5.08686 2.59529 4.66211 2.77112C4.23735 2.94695 3.85148 3.20489 3.52637 3.52991C3.20126 3.85493 2.94304 4.24046 2.76709 4.66516C2.59114 5.08987 2.50098 5.54529 2.50098 6.005H2.50195ZM7.00195 12.005C7.00195 11.0161 7.29483 10.0494 7.84424 9.22717C8.39365 8.40493 9.17475 7.76381 10.0884 7.38538C11.002 7.00694 12.0071 6.90827 12.9771 7.1012C13.947 7.29412 14.8378 7.7701 15.5371 8.46936C16.2364 9.16862 16.7128 10.0595 16.9058 11.0294C17.0987 11.9993 16.9995 13.0045 16.6211 13.9181C16.2427 14.8317 15.602 15.6128 14.7798 16.1622C13.9575 16.7116 12.9909 17.005 12.002 17.005C11.3453 17.0051 10.6946 16.8758 10.0879 16.6246C9.48115 16.3734 8.92973 16.005 8.46533 15.5406C8.00093 15.0763 7.63268 14.5253 7.38135 13.9186C7.13001 13.3119 7.00098 12.6617 7.00098 12.005H7.00195ZM8.00195 12.005C8.00195 12.7961 8.23626 13.5694 8.67578 14.2272C9.11531 14.885 9.74029 15.3976 10.4712 15.7003C11.2021 16.0031 12.0063 16.0822 12.7822 15.9279C13.5582 15.7735 14.2707 15.3925 14.8301 14.8331C15.3895 14.2737 15.7705 13.5612 15.9248 12.7853C16.0791 12.0094 16 11.2051 15.6973 10.4742C15.3945 9.74334 14.8819 9.11836 14.2241 8.67883C13.5663 8.23931 12.7931 8.005 12.002 8.005C11.4766 8.00487 10.9561 8.10824 10.4707 8.3092C9.98529 8.51016 9.54439 8.80446 9.17285 9.1759C8.80131 9.54735 8.50626 9.98839 8.30518 10.4738C8.10409 10.9591 8.00098 11.4796 8.00098 12.005H8.00195ZM17.002 6.005C17.002 5.80722 17.0605 5.61379 17.1704 5.44934C17.2803 5.28489 17.4364 5.15686 17.6191 5.08118C17.8019 5.00549 18.0028 4.98546 18.1968 5.02405C18.3908 5.06263 18.5691 5.15812 18.709 5.29797C18.8488 5.43783 18.9438 5.61571 18.9824 5.80969C19.021 6.00367 19.0015 6.20509 18.9258 6.38782C18.8501 6.57054 18.7216 6.72667 18.5571 6.83655C18.3927 6.94643 18.1997 7.005 18.002 7.005C17.8705 7.00514 17.7401 6.97903 17.6187 6.92883C17.4972 6.87864 17.3869 6.8054 17.2939 6.71252C17.201 6.61965 17.1275 6.50921 17.0771 6.38782C17.0268 6.26643 17.001 6.13641 17.001 6.005H17.002ZM18.002 6.005V5.505V6.005Z" fill="white"/>
</svg>
