<svg width="24" height="25" viewBox="0 0 24 25" fill="none" xmlns="http://www.w3.org/2000/svg">
<path d="M12.1033 20.7018C11.6794 20.2043 11.4648 19.5622 11.5037 18.9098V12.4098C10.3907 12.6531 9.41341 13.314 8.77274 14.256C8.72322 14.3246 8.65781 14.3803 8.58231 14.4186C8.5068 14.4569 8.42331 14.4769 8.33865 14.4762C8.25301 14.4725 8.1698 14.4467 8.09695 14.4015C8.0241 14.3563 7.96405 14.293 7.92264 14.2179C7.62897 13.6903 7.21143 13.2417 6.70633 12.9108C6.20123 12.5798 5.62375 12.3765 5.02274 12.318C4.47039 12.3771 3.94282 12.5803 3.49344 12.9069C3.04406 13.2334 2.68854 13.6718 2.4617 14.1788C2.42212 14.2664 2.35782 14.3406 2.27713 14.3927C2.19644 14.4448 2.10269 14.4727 2.00662 14.4728C1.96454 14.4722 1.92265 14.4675 1.88162 14.4581C1.76719 14.4288 1.66688 14.3596 1.59842 14.2633C1.52996 14.167 1.49775 14.0495 1.5076 13.9318C1.5146 13.8318 2.4276 3.95689 11.5076 3.48889V2.71008C11.5076 2.57747 11.5603 2.45034 11.6541 2.35657C11.7479 2.2628 11.875 2.21008 12.0076 2.21008C12.1402 2.21008 12.2673 2.2628 12.3611 2.35657C12.4549 2.45034 12.5076 2.57747 12.5076 2.71008V3.4762C21.9226 3.7042 22.5016 13.8449 22.5076 13.9489C22.5133 14.069 22.4755 14.1873 22.4012 14.2819C22.3268 14.3764 22.2204 14.4408 22.1023 14.4635C21.9842 14.4862 21.8622 14.4656 21.7581 14.4054C21.6539 14.3452 21.5747 14.2495 21.5354 14.1359C21.3627 13.6346 21.0465 13.1954 20.6263 12.8722C20.206 12.549 19.7004 12.3562 19.1717 12.318C18.6249 12.381 18.1038 12.5857 17.6604 12.9117C17.217 13.2378 16.8664 13.6738 16.6433 14.1769C16.6065 14.2574 16.5497 14.327 16.4778 14.3785C16.4059 14.4301 16.3217 14.4618 16.2337 14.4708C16.1465 14.4767 16.0592 14.4608 15.9798 14.4244C15.9003 14.3881 15.8312 14.3325 15.7786 14.2628C15.399 13.7314 14.9117 13.2862 14.3484 12.9557C13.7852 12.6252 13.1586 12.417 12.5096 12.3448V18.9362C12.482 19.3173 12.5946 19.6954 12.8264 19.9991C12.9174 20.0785 13.0238 20.1378 13.1389 20.174C13.2541 20.2101 13.3754 20.2223 13.4954 20.2091C13.8404 20.1744 14.1637 20.0235 14.4119 19.7814C14.66 19.5392 14.8185 19.2201 14.8616 18.8761C14.8671 18.809 14.886 18.7438 14.9173 18.6842C14.9486 18.6246 14.9916 18.572 15.0437 18.5294C15.0959 18.4869 15.1558 18.4549 15.2205 18.4362C15.2851 18.4174 15.3529 18.412 15.4197 18.42C15.4865 18.4281 15.5513 18.4499 15.6096 18.4835C15.668 18.5171 15.7191 18.5621 15.7596 18.6158C15.8 18.6696 15.8288 18.7307 15.845 18.796C15.8612 18.8614 15.864 18.9293 15.8533 18.9957C15.7807 19.5704 15.5136 20.1032 15.0965 20.505C14.6793 20.9069 14.1373 21.1541 13.5603 21.2052C13.5183 21.2052 13.4778 21.2052 13.4378 21.2052C13.1929 21.2166 12.9479 21.1774 12.7185 21.0909C12.4891 21.0044 12.2797 20.872 12.1033 20.7018V20.7018ZM8.38748 13.1232C8.86608 12.5903 9.44488 12.1566 10.0911 11.8478C10.7373 11.5389 11.4384 11.3606 12.1536 11.3229C13.6523 11.3708 15.0712 12.0082 16.1023 13.0968C16.4514 12.5967 16.9056 12.1791 17.4329 11.8727C17.9602 11.5663 18.5482 11.3785 19.1555 11.3229C19.8985 11.3704 20.6122 11.6312 21.2107 12.0739C20.5677 9.28585 18.5405 4.47375 12.1775 4.47375C5.74352 4.47375 3.55963 9.37398 2.83963 12.152C3.47412 11.6721 4.23265 11.3837 5.02567 11.3209C5.68009 11.3741 6.31652 11.5617 6.89529 11.8717C7.47407 12.1817 7.98254 12.6079 8.38943 13.1232H8.38748Z" fill="white"/>
</svg>
