<svg width="24" height="25" viewBox="0 0 24 25" fill="none" xmlns="http://www.w3.org/2000/svg">
<path d="M3.30142 21.5077H3.29654C3.05797 21.5056 2.8218 21.4565 2.6022 21.3632C2.38261 21.2699 2.18392 21.1345 2.01675 20.9643C1.84959 20.794 1.71734 20.5923 1.62808 20.371C1.53882 20.1498 1.494 19.9133 1.49625 19.6747C1.48637 18.4695 1.95467 17.3093 2.798 16.4482C3.64134 15.587 4.79104 15.0948 5.99625 15.0795H10.2414C10.8397 15.0847 11.431 15.2082 11.9816 15.4423C12.5322 15.6764 13.0315 16.0169 13.4503 16.4443C13.8692 16.8716 14.1994 17.3773 14.4225 17.9325C14.6456 18.4877 14.7574 19.0813 14.7506 19.6796C14.7544 20.1597 14.5674 20.6216 14.2311 20.9643C13.8948 21.3069 13.4363 21.5024 12.9562 21.5077H3.30142ZM2.50162 19.6747C2.49786 19.8912 2.57977 20.1005 2.72965 20.2568C2.87952 20.413 3.08499 20.5035 3.30142 20.5087H12.9543C13.1694 20.505 13.3746 20.4161 13.5246 20.2616C13.6745 20.1072 13.7572 19.8997 13.7545 19.6845C13.7617 19.2166 13.6761 18.7521 13.5031 18.3173C13.3301 17.8825 13.0729 17.4864 12.7462 17.1513C12.4196 16.8162 12.03 16.5487 11.5998 16.3647C11.1695 16.1806 10.7073 16.0833 10.2394 16.0785H6.00552C5.06466 16.0922 4.16747 16.4782 3.51041 17.1518C2.85334 17.8253 2.48956 18.7318 2.49918 19.6728L2.50162 19.6747ZM16.7243 18.0614C16.5917 18.0614 16.4645 18.0087 16.3708 17.915C16.277 17.8212 16.2243 17.694 16.2243 17.5614C16.2243 17.4288 16.277 17.3017 16.3708 17.2079C16.4645 17.1142 16.5917 17.0614 16.7243 17.0614H17.3244C17.4856 17.058 17.6388 16.9916 17.7511 16.8759C17.8634 16.7602 17.9258 16.605 17.9245 16.4438C17.93 16.058 17.8594 15.6747 17.7165 15.3163C17.5736 14.958 17.3614 14.6314 17.092 14.3554C16.8225 14.0793 16.5009 13.8594 16.1461 13.7079C15.7914 13.5564 15.4103 13.4764 15.0246 13.4726H13.9445C13.8119 13.4726 13.6847 13.4199 13.591 13.3261C13.4972 13.2323 13.4445 13.1052 13.4445 12.9726C13.4445 12.84 13.4972 12.7128 13.591 12.6191C13.6847 12.5253 13.8119 12.4726 13.9445 12.4726H15.0275C15.544 12.4773 16.0542 12.5839 16.5295 12.786C17.0047 12.9882 17.4359 13.282 17.7975 13.6508C18.1591 14.0196 18.4442 14.4563 18.6369 14.9355C18.8296 15.4147 18.9261 15.9273 18.9206 16.4438C18.9227 16.8694 18.7559 17.2783 18.4572 17.5815C18.1585 17.8847 17.7519 18.0572 17.3263 18.0614H16.7243ZM20.4865 14.4687C20.3539 14.4687 20.2267 14.4159 20.133 14.3222C20.0392 14.2284 19.9865 14.1013 19.9865 13.9687C19.9865 13.8361 20.0392 13.7089 20.133 13.6151C20.2267 13.5214 20.3539 13.4687 20.4865 13.4687H21.0192C21.1488 13.4643 21.2718 13.4096 21.362 13.3163C21.4521 13.223 21.5027 13.0984 21.5026 12.9687C21.5095 12.2874 21.2458 11.6308 20.7697 11.1435C20.2936 10.6561 19.6438 10.3775 18.9626 10.3686H17.9894C17.8568 10.3686 17.7297 10.3159 17.6359 10.2221C17.5421 10.1283 17.4894 10.0012 17.4894 9.86857C17.4894 9.73596 17.5421 9.60882 17.6359 9.51505C17.7297 9.42128 17.8568 9.36857 17.9894 9.36857H18.9616C19.9072 9.37833 20.8099 9.76297 21.4723 10.4379C22.1347 11.1128 22.5023 12.023 22.4943 12.9687C22.493 13.3613 22.3379 13.738 22.0622 14.0175C21.7864 14.297 21.4118 14.4572 21.0192 14.4638L20.4865 14.4687ZM4.32144 9.80851V9.67081C4.32144 8.66034 4.72265 7.69099 5.43717 6.97648C6.15168 6.26196 7.12103 5.86075 8.1315 5.86075C9.14198 5.86075 10.1108 6.26196 10.8253 6.97648C11.5399 7.69099 11.9416 8.66034 11.9416 9.67081V9.80851C11.9416 10.819 11.5399 11.7883 10.8253 12.5028C10.1108 13.2174 9.14198 13.6186 8.1315 13.6186C7.12103 13.6186 6.15168 13.2174 5.43717 12.5028C4.72265 11.7883 4.32144 10.819 4.32144 9.80851V9.80851ZM5.32144 9.67081V9.80851C5.32144 10.5535 5.61741 11.268 6.1442 11.7948C6.67099 12.3216 7.38553 12.6176 8.13052 12.6176C8.87552 12.6176 9.59006 12.3216 10.1169 11.7948C10.6436 11.268 10.9396 10.5535 10.9396 9.80851V9.67081C10.9391 8.92606 10.6428 8.21178 10.1164 7.68497C9.58993 7.15817 8.87625 6.86181 8.1315 6.86075V6.86075C7.3864 6.86102 6.67173 7.15683 6.14468 7.68351C5.61763 8.21018 5.32126 8.92474 5.32047 9.66984L5.32144 9.67081ZM14.0627 9.9838C13.9824 9.87845 13.9469 9.7454 13.9645 9.61417C13.9821 9.48294 14.0512 9.36406 14.1564 9.28361C14.4574 9.05596 14.69 8.74982 14.8288 8.39884C14.9676 8.04787 15.0074 7.66584 14.9435 7.29386C14.8606 6.73851 14.5622 6.23819 14.1129 5.90128C13.6637 5.56437 13.1 5.41771 12.5436 5.49357C12.4121 5.51054 12.279 5.47449 12.174 5.39347C12.069 5.31245 12.0005 5.19299 11.9836 5.06144C11.9666 4.92989 12.0026 4.79732 12.0836 4.6923C12.1647 4.58728 12.2836 4.51884 12.4152 4.50187C13.2294 4.39228 14.0543 4.60633 14.7121 5.09855C15.3698 5.59077 15.8078 6.32167 15.9323 7.1337C16.0265 7.68499 15.9677 8.25135 15.7619 8.7714C15.5561 9.29145 15.2113 9.74493 14.7653 10.0824C14.6787 10.1473 14.5737 10.1825 14.4655 10.1825C14.3872 10.1832 14.3096 10.1655 14.2394 10.1308C14.1692 10.096 14.1082 10.0455 14.0612 9.98283L14.0627 9.9838ZM18.0695 7.75284C18.0264 7.70317 17.9936 7.64531 17.9728 7.58292C17.9521 7.52054 17.9437 7.45465 17.9484 7.38908C17.9531 7.3235 17.9707 7.25936 18.0002 7.2006C18.0297 7.14184 18.0705 7.08976 18.1203 7.04679C18.3902 6.81465 18.5907 6.51191 18.6989 6.17277C18.8071 5.83362 18.8191 5.47097 18.7336 5.1254C18.6179 4.60301 18.3033 4.14651 17.8566 3.85197C17.4099 3.55742 16.8662 3.44832 16.3405 3.54777C16.2759 3.56005 16.2095 3.55917 16.1452 3.54581C16.0808 3.53246 16.0198 3.5066 15.9655 3.46964C15.9112 3.43268 15.8648 3.38541 15.8288 3.33048C15.7927 3.27555 15.7678 3.21436 15.7555 3.14982C15.7432 3.08527 15.7436 3.01884 15.757 2.9545C15.7703 2.89017 15.7962 2.82914 15.8332 2.77482C15.8701 2.7205 15.9174 2.67365 15.9723 2.63761C16.0273 2.60157 16.0889 2.57714 16.1535 2.56486C16.9328 2.41338 17.7406 2.57229 18.4044 3.00773C19.0683 3.44316 19.5356 4.12024 19.7072 4.89542C19.8355 5.41871 19.8167 5.96738 19.652 6.48038C19.4873 6.99339 19.1835 7.4509 18.7746 7.80167C18.6848 7.88167 18.5686 7.92584 18.4484 7.9257C18.3763 7.92582 18.305 7.91032 18.2394 7.88029C18.1738 7.85025 18.1155 7.80657 18.0685 7.75187L18.0695 7.75284Z" fill="white"/>
</svg>
