<svg width="24" height="25" viewBox="0 0 24 25" fill="none" xmlns="http://www.w3.org/2000/svg">
<path d="M19 0.0424805H5C2.23858 0.0424805 0 2.28106 0 5.04248V19.0425C0 21.8039 2.23858 24.0425 5 24.0425H19C21.7614 24.0425 24 21.8039 24 19.0425V5.04248C24 2.28106 21.7614 0.0424805 19 0.0424805Z" fill="#FFC72E"/>
<path d="M12.0001 3.17944C17.4581 3.17944 21.8821 4.92044 21.8821 7.45444C21.8821 9.98844 17.4581 11.6244 12.0001 11.6244C6.5421 11.6244 2.1181 9.98844 2.1181 7.45444C2.1181 4.92044 6.5421 3.17944 12.0001 3.17944Z" fill="white"/>
<path d="M19.0142 20.9565L19.937 16.7227L18.8203 16.7095L18.1982 19.4956H18.186L16.6792 16.7363L15.6631 16.7275L14.6631 20.9526L15.6909 20.9604L16.1812 18.8066C16.2022 18.7196 16.2189 18.6257 16.2339 18.5327C16.2489 18.4397 16.2552 18.3684 16.2632 18.2944H16.2842C16.2926 18.3184 16.3024 18.3416 16.314 18.3643C16.326 18.3953 16.3391 18.4265 16.3521 18.4565C16.3651 18.4865 16.3849 18.5226 16.3979 18.5566C16.41 18.5869 16.424 18.6162 16.4399 18.6445L17.6689 20.9575L19.0142 20.9565Z" fill="#00478C"/>
<path d="M14.6091 17.7163H13.3501L12.7791 20.3164H11.7681L12.334 17.7163H11.0591L11.2732 16.7534H14.823L14.6091 17.7163Z" fill="#00478C"/>
<path d="M9.448 20.9524H8.23901L8.76416 18.3914H8.73804C8.70904 18.4534 8.67518 18.5193 8.63818 18.5813C8.60118 18.6433 8.57109 18.7046 8.53809 18.7576C8.50509 18.8106 8.47107 18.8625 8.44507 18.9075C8.42235 18.9456 8.39735 18.9822 8.37012 19.0173L7.26196 20.9514H6.09302L6.02612 19.0134C6.02612 18.7974 5.99298 18.5726 5.97998 18.3606H5.95117L5.16016 20.9695H3.93408L5.20898 16.7356H6.67407L6.95898 19.6355C6.99298 19.6355 7.03403 19.5215 7.05103 19.4895C7.08103 19.4325 7.10401 19.3795 7.13501 19.3225C7.16601 19.2655 7.19811 19.2124 7.23511 19.1594C7.26489 19.1113 7.29818 19.0658 7.33496 19.0227L8.64404 16.7356L10.427 16.7175L9.448 20.9524Z" fill="#00478C"/>
<path d="M12.7419 20.4934L12.637 20.9626H11.626L11.7261 20.4934H12.7419Z" fill="#E54660"/>
<path d="M11.9629 11.8674C6.14689 11.8674 1.41211 9.88743 1.41211 7.45143C1.41211 5.01543 6.14389 3.03541 11.9629 3.03541C14.5085 2.98651 17.0399 3.42603 19.4199 4.33034C21.4139 5.16334 22.5117 6.27143 22.5117 7.45143C22.5117 8.63143 21.4119 9.74048 19.4199 10.5745C17.0399 11.4785 14.5084 11.9174 11.9629 11.8674V11.8674ZM15.7773 7.15455C15.7593 7.15455 15.7367 7.17519 15.7227 7.21119L15.248 8.23659C15.697 8.68159 15.916 8.95834 15.916 9.08034C15.916 9.22634 15.67 9.47991 15.166 9.84791C14.8595 10.0727 14.5351 10.2754 14.1992 10.4534C14.1662 10.4681 14.1399 10.4928 14.1211 10.5237C14.1023 10.5546 14.0936 10.5901 14.0957 10.6262C14.0957 10.7692 14.1758 10.8381 14.3418 10.8381H15.7305C15.7646 10.8396 15.7984 10.8333 15.8301 10.8206C15.8618 10.8078 15.8904 10.7886 15.9141 10.7639C16.0569 10.5855 16.1726 10.3872 16.2578 10.1751C16.3686 9.93537 16.4301 9.67627 16.4395 9.41237V9.13698C16.4994 9.18789 16.5757 9.2154 16.6543 9.21412H16.8184H16.8809C17.0704 9.23506 17.2613 9.20792 17.4375 9.13502C17.6137 9.06213 17.7693 8.94585 17.8887 8.79713C18.0745 8.41924 18.1526 7.99783 18.1152 7.57838C18.135 7.04504 17.9725 6.52056 17.6543 6.09205C17.6253 6.04605 17.603 6.0276 17.584 6.0276C17.565 6.0276 17.5506 6.05098 17.5176 6.09498L16.9648 6.93971C16.9537 6.95625 16.9473 6.97541 16.9473 6.99537C16.9473 7.01533 16.9537 7.0345 16.9648 7.05104C17.1392 7.20938 17.2979 7.3843 17.4395 7.57252C17.471 7.60522 17.4896 7.64824 17.4922 7.69362C17.4922 7.76162 17.4334 7.79811 17.3184 7.79811H16.7188C16.5364 7.78885 16.3627 7.7159 16.2285 7.59205C16.0885 7.46785 15.9577 7.33479 15.8359 7.19264C15.8229 7.17569 15.8043 7.16404 15.7832 7.16041L15.7773 7.15455ZM4.58789 7.81276C4.45889 7.81276 4.33833 8.00509 4.23633 8.38209C4.15595 8.65518 4.11143 8.93737 4.10352 9.22194C4.08964 9.42649 4.1243 9.632 4.20703 9.81959C4.28977 10.0072 4.41772 10.1714 4.57812 10.2991C4.90332 10.5298 5.29719 10.6438 5.69531 10.6223C5.94962 10.6393 6.20324 10.5825 6.42578 10.4583C6.64833 10.334 6.83017 10.1475 6.94922 9.92213C7.11357 9.62003 7.19833 9.28068 7.19531 8.93678C7.24024 9.00006 7.2991 9.05285 7.36719 9.0901C7.43527 9.12735 7.51037 9.14889 7.58789 9.1526H7.63281V9.16139H7.86523C8.07223 9.16139 8.2655 9.01852 8.4375 8.73952C8.47435 8.85294 8.54285 8.95209 8.63672 9.02565C8.73059 9.09921 8.8459 9.14393 8.96484 9.1526C9.11684 9.1526 9.27884 9.01752 9.46484 8.73952C9.51177 8.84869 9.58328 8.94575 9.67383 9.02272C9.75464 9.1013 9.86008 9.14772 9.97266 9.15358C10.1287 9.15358 10.3082 9.01419 10.4902 8.75319C10.5423 8.86103 10.6215 8.95383 10.7188 9.02369C10.816 9.09356 10.93 9.13865 11.0488 9.15358H11.0938H11.3301C11.5181 9.17412 11.708 9.14683 11.8828 9.07448C12.0576 9.00212 12.2116 8.88696 12.3301 8.73952C12.5165 8.30957 12.5927 7.84023 12.5527 7.3733C12.5128 6.90638 12.3564 6.45671 12.0996 6.06471C12.0726 6.02671 12.0443 6.00319 12.0273 6.00319C12.0103 6.00319 11.9879 6.02652 11.9629 6.07252L11.4102 6.90358C11.3964 6.91899 11.3904 6.93861 11.3906 6.95924C11.3904 6.96981 11.3925 6.98069 11.3965 6.99049C11.4004 7.00029 11.4066 7.00843 11.4141 7.01588C11.5852 7.17394 11.743 7.34617 11.8867 7.52955C11.9165 7.56322 11.9354 7.60511 11.9414 7.64967C11.9414 7.71767 11.8807 7.75416 11.7617 7.75416H11.0918V7.76295H11.0527C10.9952 7.76472 10.9381 7.74862 10.8906 7.71608C10.8432 7.68354 10.8081 7.63658 10.7891 7.58229C10.7677 7.50096 10.7484 7.43409 10.7344 7.38209L10.7266 7.34694C10.7126 7.29794 10.7052 7.26633 10.7012 7.24733C10.6662 7.12633 10.6086 7.07155 10.5156 7.07155C10.4664 7.06823 10.4163 7.08429 10.3789 7.11647C10.3415 7.14865 10.3185 7.19424 10.3145 7.24342C10.2841 7.35508 10.263 7.46852 10.248 7.58327C10.2331 7.63623 10.2004 7.68317 10.1562 7.71608C10.1121 7.74898 10.0589 7.76566 10.0039 7.76491C9.95084 7.76427 9.89904 7.74608 9.85742 7.71315C9.81581 7.68022 9.78626 7.63476 9.77344 7.58327V7.57545C9.74844 7.46445 9.7327 7.3748 9.7207 7.3108C9.71445 7.28883 9.7101 7.26704 9.70703 7.2444C9.67603 7.1204 9.61353 7.06178 9.51953 7.06178C9.42553 7.06178 9.35031 7.1204 9.32031 7.2444C9.29031 7.3684 9.25823 7.50412 9.24023 7.58912C9.22601 7.64115 9.19488 7.68682 9.15234 7.71998C9.10981 7.75315 9.05783 7.77259 9.00391 7.77369C8.94371 7.77727 8.88376 7.75987 8.83398 7.72584C8.78421 7.69181 8.74703 7.6426 8.72852 7.58522C8.69152 7.41222 8.66244 7.29644 8.64844 7.24244V7.23659C8.62144 7.11559 8.55003 7.05006 8.45703 7.05006C8.36403 7.05006 8.297 7.11809 8.25 7.25709L8.24023 7.28444L8.23438 7.30983C8.21338 7.40083 8.18916 7.49427 8.16016 7.58327C8.13448 7.64282 8.09244 7.69298 8.03711 7.72682C7.98178 7.76066 7.91628 7.77699 7.85156 7.77272H7.77344V7.75123H7.67383C7.48483 7.75123 7.39062 7.64599 7.39062 7.42799V4.57545C7.39284 4.55083 7.3903 4.52577 7.38281 4.50221H7.375C7.3582 4.5073 7.34288 4.51656 7.33008 4.52858L6.4375 5.12819C6.42492 5.13744 6.41403 5.14984 6.4082 5.16432C6.40237 5.1788 6.40163 5.19483 6.4043 5.21022L6.63281 8.55299V8.64381C6.63281 9.05581 6.36159 9.25514 5.80859 9.25514C5.08759 9.25514 4.72461 9.03205 4.72461 8.59205C4.72763 8.5184 4.73513 8.44523 4.74609 8.37233C4.75996 8.29948 4.76747 8.22578 4.76758 8.15162C4.76758 7.92662 4.70689 7.80885 4.58789 7.80885V7.81276ZM17.248 10.1233L17.5781 10.4641C17.5887 10.4761 17.6033 10.4844 17.6191 10.4866C17.6267 10.4859 17.6339 10.4834 17.6406 10.4797C17.6473 10.4761 17.6535 10.4711 17.6582 10.4651L18.0117 10.0979C18.0387 10.0649 18.0407 10.0419 18.0117 10.0159L17.6504 9.65553C17.6456 9.64895 17.6399 9.6429 17.6328 9.63893C17.6257 9.63496 17.6175 9.63273 17.6094 9.63209C17.5912 9.63511 17.5745 9.64351 17.5605 9.65553L17.2422 9.99147L16.9141 9.65553C16.9095 9.64779 16.9025 9.64121 16.8945 9.63698C16.8866 9.63274 16.8762 9.6306 16.8672 9.63112C16.8585 9.63086 16.8513 9.63275 16.8438 9.63698C16.8362 9.6412 16.8286 9.64802 16.8242 9.65553L16.5 10.0003C16.4858 10.0139 16.476 10.0316 16.4727 10.051C16.4719 10.0713 16.4786 10.0917 16.4922 10.1067L16.8457 10.468C16.8498 10.4746 16.8564 10.4801 16.8633 10.4837C16.8701 10.4872 16.8771 10.489 16.8848 10.4885C16.8921 10.4885 16.8998 10.4862 16.9062 10.4827C16.9127 10.4792 16.9178 10.4741 16.9219 10.468L17.2441 10.1262L17.248 10.1233ZM19.5488 4.66432C19.5348 4.66432 19.4955 4.68914 19.4355 4.75514L18.5352 5.75514C18.8012 7.53814 18.9757 8.59953 19.0547 8.90553C19.1097 9.11653 19.1818 9.22682 19.2598 9.22682C19.3378 9.22682 19.4122 9.13724 19.4922 8.95924C19.5774 8.75129 19.6393 8.5342 19.6777 8.31276C19.7236 8.0902 19.7492 7.86415 19.7539 7.63698C19.7539 6.83698 19.7541 6.35869 19.7461 6.19069C19.7384 5.70715 19.6853 5.22493 19.5879 4.75123C19.5719 4.69223 19.559 4.6692 19.541 4.6692L19.5488 4.66432ZM13.9473 4.70338C13.9273 4.70338 13.8879 4.73723 13.8359 4.79323L12.9355 5.78053C13.2225 7.68053 13.3761 8.61081 13.4531 8.89381C13.5061 9.10881 13.5782 9.21803 13.6582 9.21803C13.7382 9.21803 13.8137 9.12345 13.8867 8.95045C13.9786 8.74592 14.0408 8.5289 14.0723 8.3069C14.1211 8.0874 14.1486 7.86372 14.1543 7.63893C14.1543 6.84793 14.1545 6.37334 14.1465 6.20534C14.135 5.727 14.0819 5.25073 13.9883 4.78151C13.9723 4.72651 13.9594 4.70143 13.9414 4.70143L13.9473 4.70338ZM11.6934 4.92799C11.6838 4.92778 11.6746 4.93046 11.666 4.93483C11.6575 4.93919 11.65 4.94549 11.6445 4.95338L11.2754 5.3528C11.2669 5.359 11.2611 5.36705 11.2559 5.37623C11.2506 5.38541 11.247 5.39599 11.2461 5.40651C11.2451 5.41702 11.2465 5.42779 11.25 5.43776C11.2535 5.44772 11.2583 5.45649 11.2656 5.46412L11.666 5.87428C11.678 5.88838 11.6946 5.89799 11.7129 5.90065C11.7289 5.90065 11.7378 5.89028 11.7578 5.87428L12.1582 5.46022C12.1707 5.44571 12.1773 5.42758 12.1777 5.40846C12.1764 5.39335 12.1697 5.37928 12.1582 5.3694L11.7578 4.95534C11.741 4.93998 11.72 4.93045 11.6973 4.92897L11.6934 4.92799Z" fill="#00478C"/>
<path d="M21.5 15.0425H2.5C2.22386 15.0425 2 15.2663 2 15.5425C2 15.8186 2.22386 16.0425 2.5 16.0425H21.5C21.7761 16.0425 22 15.8186 22 15.5425C22 15.2663 21.7761 15.0425 21.5 15.0425Z" fill="white"/>
</svg>
