<svg width="24" height="25" viewBox="0 0 24 25" fill="none" xmlns="http://www.w3.org/2000/svg">
<path d="M4 17.505C3.33696 17.505 2.70077 17.2414 2.23193 16.7726C1.76309 16.3037 1.5 15.668 1.5 15.005V9.005C1.5 8.34196 1.76309 7.70578 2.23193 7.23694C2.70077 6.7681 3.33696 6.505 4 6.505H8C8.66304 6.505 9.29874 6.7681 9.76758 7.23694C10.2364 7.70578 10.5 8.34196 10.5 9.005V9.76672H14.5996C14.7988 9.76733 14.996 9.80765 15.1797 9.88489C15.3633 9.96213 15.5301 10.0749 15.6699 10.2169L16.7798 11.3488C16.859 11.4294 16.9634 11.4809 17.0757 11.4948C17.1879 11.5086 17.3015 11.484 17.3979 11.4249L19.1689 10.34C19.2561 10.2864 19.3574 10.2608 19.4595 10.2667C19.5616 10.2726 19.6594 10.3094 19.7397 10.3727L21.9209 12.087C22.1654 12.2794 22.344 12.5426 22.4321 12.8409C22.5202 13.1393 22.5134 13.4578 22.4126 13.7521C22.3118 14.0464 22.1217 14.3019 21.8691 14.4835C21.6166 14.6651 21.314 14.7638 21.0029 14.7657H10.5029V15.005C10.5029 15.668 10.2393 16.3037 9.77051 16.7726C9.30167 17.2414 8.66597 17.505 8.00293 17.505H4ZM2.5 9.005V15.005C2.5 15.4028 2.65766 15.7842 2.93896 16.0656C3.22027 16.3469 3.60218 16.505 4 16.505H8C8.39782 16.505 8.77924 16.3469 9.06055 16.0656C9.34185 15.7842 9.5 15.4028 9.5 15.005V9.005C9.5 8.60718 9.34185 8.22576 9.06055 7.94446C8.77924 7.66315 8.39782 7.505 8 7.505H4C3.60218 7.505 3.22027 7.66315 2.93896 7.94446C2.65766 8.22576 2.5 8.60718 2.5 9.005V9.005ZM21 13.7667C21.1037 13.7654 21.2043 13.7321 21.2881 13.671C21.3719 13.6099 21.4343 13.5242 21.4673 13.4259C21.5002 13.3276 21.5017 13.2214 21.4717 13.1222C21.4417 13.0229 21.3817 12.9353 21.2998 12.8717L19.3926 11.3717L17.918 12.2721C17.6285 12.4495 17.2871 12.5232 16.9502 12.4816C16.6132 12.44 16.3006 12.2856 16.063 12.0431L14.9526 10.9088C14.9062 10.8618 14.851 10.8245 14.79 10.799C14.7291 10.7734 14.6637 10.76 14.5977 10.7599H10.4976V13.7599L21 13.7667ZM4 12.0128C4 11.6173 4.11715 11.2309 4.33691 10.902C4.55668 10.5731 4.86892 10.3165 5.23438 10.1652C5.59983 10.0138 6.00217 9.97422 6.39014 10.0514C6.7781 10.1286 7.13436 10.319 7.41406 10.5988C7.69377 10.8785 7.88426 11.2347 7.96143 11.6227C8.0386 12.0106 7.99903 12.413 7.84766 12.7784C7.69628 13.1439 7.43974 13.4561 7.11084 13.6759C6.78194 13.8957 6.39556 14.0128 6 14.0128C5.46957 14.0128 4.96052 13.802 4.58545 13.4269C4.21038 13.0518 4 12.5433 4 12.0128ZM5 12.0128C5 12.2106 5.05858 12.404 5.16846 12.5685C5.27834 12.7329 5.43446 12.861 5.61719 12.9366C5.79991 13.0123 6.00084 13.0324 6.19482 12.9938C6.38881 12.9552 6.56718 12.8597 6.70703 12.7198C6.84688 12.58 6.94188 12.4021 6.98047 12.2081C7.01905 12.0141 6.99952 11.8127 6.92383 11.63C6.84814 11.4473 6.71962 11.2912 6.55518 11.1813C6.39073 11.0714 6.19778 11.0128 6 11.0128C5.73478 11.0128 5.48002 11.1182 5.29248 11.3058C5.10494 11.4933 5 11.7476 5 12.0128Z" fill="white"/>
</svg>
