<svg width="24" height="25" viewBox="0 0 24 25" fill="none" xmlns="http://www.w3.org/2000/svg">
<path d="M12.7998 20.505C12.1368 20.505 11.5011 20.2414 11.0322 19.7726C10.5634 19.3037 10.2998 18.668 10.2998 18.005V15.8048H4C3.33696 15.8048 2.70077 15.5417 2.23193 15.0729C1.76309 14.604 1.5 13.9679 1.5 13.3048V6.1051C1.5 5.44206 1.76309 4.80588 2.23193 4.33704C2.70077 3.8682 3.33696 3.6051 4 3.6051H11.1997C11.8627 3.6051 12.4989 3.8682 12.9678 4.33704C13.4366 4.80588 13.6997 5.44206 13.6997 6.1051V8.30481H20C20.663 8.30481 21.2987 8.56839 21.7676 9.03723C22.2364 9.50607 22.5 10.1418 22.5 10.8048V18.005C22.5 18.668 22.2364 19.3037 21.7676 19.7726C21.2987 20.2414 20.663 20.505 20 20.505H12.7998ZM11.2998 18.005C11.2998 18.4028 11.458 18.7842 11.7393 19.0656C12.0206 19.3469 12.402 19.505 12.7998 19.505H20C20.3978 19.505 20.7792 19.3469 21.0605 19.0656C21.3419 18.7842 21.5 18.4028 21.5 18.005V10.8048C21.5 10.407 21.3419 10.0256 21.0605 9.74426C20.7792 9.46296 20.3978 9.30481 20 9.30481H13.6997V13.3048C13.7002 13.9509 13.4508 14.5721 13.0034 15.0382C12.556 15.5043 11.9454 15.779 11.2998 15.8048V18.005ZM11.1997 14.8048C11.5975 14.8048 11.9789 14.6467 12.2603 14.3654C12.5416 14.0841 12.6997 13.7026 12.6997 13.3048V6.1051C12.6997 5.70728 12.5416 5.32537 12.2603 5.04407C11.9789 4.76276 11.5975 4.6051 11.1997 4.6051H4C3.60218 4.6051 3.22027 4.76276 2.93896 5.04407C2.65766 5.32537 2.5 5.70728 2.5 6.1051V13.3048C2.5 13.7026 2.65766 14.0841 2.93896 14.3654C3.22027 14.6467 3.60218 14.8048 4 14.8048H11.1997ZM7.64893 20.359C7.60236 20.3126 7.56525 20.2572 7.54004 20.1964C7.51483 20.1357 7.50195 20.0708 7.50195 20.005C7.50195 19.9392 7.51483 19.8739 7.54004 19.8131C7.56525 19.7524 7.60236 19.6974 7.64893 19.651L7.79395 19.506H7.00098C6.33794 19.506 5.70175 19.2424 5.23291 18.7736C4.76407 18.3047 4.50098 17.669 4.50098 17.006C4.50098 16.8734 4.5532 16.7462 4.64697 16.6525C4.74074 16.5587 4.86837 16.506 5.00098 16.506C5.13358 16.506 5.26072 16.5587 5.35449 16.6525C5.44826 16.7462 5.50098 16.8734 5.50098 17.006C5.50098 17.4038 5.65864 17.7852 5.93994 18.0665C6.22125 18.3478 6.60315 18.506 7.00098 18.506H9.00098C9.10008 18.5056 9.19675 18.5346 9.2793 18.5895C9.36184 18.6443 9.42631 18.7226 9.46436 18.8141C9.5024 18.9056 9.5125 19.0064 9.49316 19.1036C9.47383 19.2008 9.42613 19.29 9.35596 19.36L8.35596 20.36C8.30952 20.4066 8.2541 20.4436 8.19336 20.4689C8.13261 20.4941 8.06773 20.5069 8.00195 20.507C7.93617 20.5076 7.87088 20.4949 7.81006 20.4698C7.74924 20.4448 7.69413 20.4078 7.64795 20.361L7.64893 20.359ZM13.3789 17.8209C13.2463 17.8209 13.1192 17.7682 13.0254 17.6744C12.9316 17.5807 12.8789 17.4535 12.8789 17.3209C12.8789 17.1883 12.9316 17.0612 13.0254 16.9674C13.1192 16.8736 13.2463 16.8209 13.3789 16.8209H18.4248C18.5574 16.8209 18.6846 16.7682 18.7783 16.6744C18.8721 16.5807 18.9248 16.4535 18.9248 16.3209V15.4049H18.2158C17.7633 15.4041 17.3297 15.2239 17.0098 14.9039C16.6898 14.584 16.5096 14.1504 16.5088 13.6979C16.5296 13.2464 16.7237 12.8203 17.0508 12.5084C17.3779 12.1966 17.8127 12.0233 18.2646 12.024C18.7011 12.0362 19.1166 12.2148 19.4253 12.5236C19.734 12.8323 19.9127 13.2473 19.9248 13.6837V16.3219C19.9248 16.7197 19.7667 17.1011 19.4854 17.3824C19.204 17.6638 18.8226 17.8219 18.4248 17.8219L13.3789 17.8209ZM17.5088 13.713C17.5112 13.8985 17.587 14.0751 17.7197 14.2047C17.8525 14.3343 18.0313 14.4061 18.2168 14.4039H18.9258V13.6959C18.9175 13.5177 18.8418 13.3491 18.7144 13.2242C18.5869 13.0994 18.4171 13.0277 18.2388 13.0231H18.2188C18.0336 13.0235 17.8558 13.0956 17.7231 13.2247C17.5904 13.3539 17.5133 13.5299 17.5078 13.715L17.5088 13.713ZM5.50098 12.6051V8.46204C5.50098 8.06421 5.65864 7.68279 5.93994 7.40149C6.22125 7.12018 6.60315 6.96204 7.00098 6.96204H9.00098C9.13358 6.96204 9.26072 7.01475 9.35449 7.10852C9.44826 7.20229 9.50098 7.32943 9.50098 7.46204C9.50098 7.59464 9.44826 7.72178 9.35449 7.81555C9.26072 7.90932 9.13358 7.96204 9.00098 7.96204H7.00098C6.86837 7.96204 6.74074 8.01475 6.64697 8.10852C6.5532 8.20229 6.50098 8.32943 6.50098 8.46204V9.6051H9.00098C9.13358 9.6051 9.26072 9.65782 9.35449 9.75159C9.44826 9.84536 9.50098 9.97249 9.50098 10.1051C9.50098 10.2377 9.44826 10.3648 9.35449 10.4586C9.26072 10.5524 9.13358 10.6051 9.00098 10.6051H6.50098V12.6051C6.50098 12.7377 6.44826 12.8648 6.35449 12.9586C6.26072 13.0524 6.13358 13.1051 6.00098 13.1051C5.86837 13.1051 5.74074 13.0524 5.64697 12.9586C5.5532 12.8648 5.50098 12.7377 5.50098 12.6051ZM15.3105 11.965C15.2476 11.9431 15.1921 11.9049 15.1489 11.8541C15.1005 11.8099 15.0622 11.7553 15.0366 11.6949C15.0111 11.6345 14.999 11.5696 15.001 11.504C14.9994 11.4385 15.0127 11.3735 15.0405 11.3141C15.0616 11.2518 15.0997 11.1963 15.1499 11.1539C15.2434 11.0623 15.3691 11.0109 15.5 11.0109C15.6309 11.0109 15.7561 11.0623 15.8496 11.1539C15.901 11.1957 15.9398 11.2513 15.9609 11.3141C15.9908 11.39 16.0019 11.4717 15.9932 11.5529C15.9845 11.634 15.9559 11.712 15.9106 11.7799C15.8654 11.8478 15.8045 11.9038 15.7329 11.943C15.6613 11.9822 15.5816 12.0034 15.5 12.005C15.4345 12.0072 15.3689 11.9937 15.3096 11.9659L15.3105 11.965ZM18.501 7.00598C18.501 6.60816 18.3428 6.22674 18.0615 5.94543C17.7802 5.66413 17.3988 5.50598 17.001 5.50598H15.001C14.9021 5.50576 14.8052 5.4761 14.7231 5.42102C14.6411 5.36594 14.5772 5.2878 14.5396 5.19641C14.5019 5.10502 14.4923 5.00476 14.5117 4.90784C14.5311 4.81091 14.5789 4.72179 14.6489 4.65198L15.6489 3.65198C15.7427 3.55809 15.8698 3.5051 16.0024 3.50501C16.1351 3.50491 16.2626 3.55774 16.3564 3.65149C16.4503 3.74524 16.5028 3.87232 16.5029 4.00501C16.503 4.13769 16.4507 4.26512 16.3569 4.35901L16.21 4.50598H17.002C17.665 4.50598 18.3007 4.76907 18.7695 5.23792C19.2384 5.70676 19.502 6.34294 19.502 7.00598C19.502 7.13859 19.4492 7.26573 19.3555 7.3595C19.2617 7.45327 19.1346 7.50598 19.002 7.50598C18.8693 7.50598 18.7422 7.45327 18.6484 7.3595C18.5547 7.26573 18.502 7.13859 18.502 7.00598H18.501Z" fill="white"/>
</svg>
