<svg width="24" height="25" viewBox="0 0 24 25" fill="none" xmlns="http://www.w3.org/2000/svg">
<path d="M18.0016 22.5041C17.8934 22.5041 17.7881 22.469 17.7016 22.4041L6.46763 13.817C6.22449 13.6564 6.01741 13.447 5.8596 13.2021C5.54353 12.7156 5.43329 12.1236 5.55308 11.5559C5.67287 10.9883 6.01288 10.4914 6.49858 10.1741L17.6986 1.60903C17.8047 1.52854 17.9384 1.49352 18.0704 1.51162C18.2023 1.52972 18.3216 1.5995 18.4021 1.70559C18.4826 1.81168 18.5177 1.94536 18.4996 2.0773C18.4815 2.20923 18.4117 2.32859 18.3056 2.40908L7.07158 10.995C6.93384 11.0805 6.81475 11.1929 6.7213 11.3253C6.62784 11.4578 6.56199 11.6077 6.52763 11.7661C6.49451 11.9197 6.49219 12.0783 6.52086 12.2328C6.54952 12.3873 6.6086 12.5345 6.69462 12.666C6.78452 12.8043 6.90278 12.922 7.04161 13.0111L18.3056 21.619C18.3895 21.682 18.4516 21.7699 18.4829 21.87C18.5142 21.9702 18.5131 22.0776 18.48 22.1771C18.4468 22.2767 18.3831 22.3633 18.298 22.4247C18.2128 22.4861 18.1105 22.5191 18.0056 22.5191L18.0016 22.5041Z" fill="white"/>
</svg>
