<svg width="24" height="25" viewBox="0 0 24 25" fill="none" xmlns="http://www.w3.org/2000/svg">
<path d="M11.4966 22.005V20.505C11.4966 20.3724 11.5493 20.2453 11.6431 20.1515C11.7368 20.0577 11.864 20.005 11.9966 20.005C12.1292 20.005 12.2563 20.0577 12.3501 20.1515C12.4439 20.2453 12.4966 20.3724 12.4966 20.505V22.005C12.4966 22.1376 12.4439 22.2648 12.3501 22.3585C12.2563 22.4523 12.1292 22.505 11.9966 22.505C11.864 22.505 11.7368 22.4523 11.6431 22.3585C11.5493 22.2648 11.4966 22.1376 11.4966 22.005ZM16.5649 20.9147L15.814 19.6149C15.7477 19.4999 15.7297 19.3632 15.7642 19.235C15.7986 19.1068 15.8821 18.9976 15.9971 18.9313C16.112 18.865 16.2488 18.8471 16.377 18.8815C16.5051 18.9159 16.6144 18.9999 16.6807 19.1149L17.4307 20.4147C17.4966 20.5295 17.5145 20.6662 17.48 20.7941C17.4455 20.9219 17.3613 21.0307 17.2466 21.0968C17.1711 21.141 17.0851 21.164 16.9976 21.1637C16.91 21.1639 16.824 21.1413 16.748 21.0978C16.6721 21.0543 16.6091 20.9918 16.5649 20.9161V20.9147ZM6.74756 21.0958C6.63299 21.0295 6.54944 20.9204 6.51514 20.7926C6.48083 20.6648 6.49896 20.5284 6.56494 20.4137L7.31592 19.1139C7.34718 19.0541 7.39019 19.0013 7.44238 18.9586C7.49458 18.9159 7.55486 18.8841 7.61963 18.8654C7.68439 18.8466 7.75239 18.8411 7.81934 18.8492C7.88628 18.8574 7.95089 18.879 8.00928 18.9127C8.06766 18.9465 8.11823 18.9916 8.15869 19.0455C8.19915 19.0995 8.22859 19.1612 8.24463 19.2267C8.26067 19.2922 8.2629 19.3603 8.25195 19.4269C8.24101 19.4934 8.21684 19.557 8.18066 19.6139L7.43164 20.9137C7.38767 20.9899 7.32473 21.0534 7.24854 21.0973C7.17234 21.1412 7.08549 21.1639 6.99756 21.1637C6.9097 21.1644 6.8233 21.1413 6.74756 21.0968V21.0958ZM4.49854 12.005C4.49854 10.5216 4.93858 9.07138 5.7627 7.83801C6.58681 6.60464 7.75797 5.64346 9.12842 5.07581C10.4989 4.50815 12.0071 4.35966 13.4619 4.64905C14.9168 4.93844 16.2534 5.65289 17.3022 6.70178C18.3511 7.75068 19.0651 9.08677 19.3545 10.5416C19.6439 11.9965 19.4954 13.5047 18.9277 14.8751C18.3601 16.2456 17.3989 17.4167 16.1655 18.2408C14.9322 19.065 13.4819 19.505 11.9985 19.505C10.01 19.5032 8.10388 18.7124 6.69775 17.3063C5.29163 15.9002 4.50039 13.9936 4.49854 12.005V12.005ZM5.49854 12.005C5.49854 13.2906 5.88001 14.5474 6.59424 15.6163C7.30847 16.6853 8.32351 17.5179 9.51123 18.0099C10.699 18.5019 12.0062 18.6308 13.2671 18.38C14.528 18.1292 15.6857 17.5102 16.5947 16.6012C17.5038 15.6922 18.1232 14.5339 18.374 13.2731C18.6248 12.0122 18.4959 10.7054 18.0039 9.5177C17.5119 8.32998 16.6788 7.31445 15.6099 6.60022C14.5409 5.88599 13.2841 5.505 11.9985 5.505C10.2755 5.50739 8.62407 6.19276 7.40576 7.41125C6.18745 8.62975 5.50212 10.2819 5.5 12.005H5.49854ZM20.4067 17.4391L19.1069 16.6901C19.0472 16.6588 18.9944 16.6158 18.9517 16.5636C18.909 16.5114 18.8772 16.4511 18.8584 16.3864C18.8396 16.3216 18.8342 16.2536 18.8423 16.1866C18.8504 16.1197 18.872 16.0551 18.9058 15.9967C18.9395 15.9383 18.9846 15.8873 19.0386 15.8468C19.0925 15.8063 19.1542 15.7774 19.2197 15.7614C19.2852 15.7453 19.3534 15.7426 19.4199 15.7535C19.4865 15.7645 19.55 15.7887 19.6069 15.8248L20.9067 16.5739C20.9665 16.6051 21.0193 16.6481 21.062 16.7003C21.1047 16.7525 21.1365 16.8128 21.1553 16.8776C21.1741 16.9423 21.1795 17.0103 21.1714 17.0773C21.1633 17.1442 21.1417 17.2088 21.1079 17.2672C21.0742 17.3256 21.029 17.3767 20.9751 17.4171C20.9211 17.4576 20.8594 17.4865 20.7939 17.5026C20.7284 17.5186 20.6603 17.5213 20.5938 17.5104C20.5272 17.4994 20.4636 17.4753 20.4067 17.4391ZM2.90674 17.254C2.84084 17.1392 2.82341 17.0025 2.85791 16.8746C2.89241 16.7468 2.97608 16.638 3.09082 16.5719L4.39062 15.8209C4.44753 15.7847 4.5111 15.7606 4.57764 15.7496C4.64418 15.7387 4.71233 15.7414 4.77783 15.7574C4.84333 15.7735 4.90503 15.8024 4.95898 15.8429C5.01293 15.8834 5.05805 15.9344 5.0918 15.9928C5.12554 16.0512 5.14714 16.1158 5.15527 16.1827C5.1634 16.2497 5.15795 16.3172 5.13916 16.382C5.12037 16.4467 5.08859 16.507 5.0459 16.5592C5.0032 16.6114 4.95038 16.6544 4.89062 16.6857L3.59082 17.4371C3.53386 17.4701 3.471 17.4911 3.40576 17.4996C3.34052 17.5082 3.274 17.504 3.21045 17.4869C3.1469 17.4698 3.08729 17.4402 3.03516 17.4C2.98302 17.3599 2.93949 17.3101 2.90674 17.2531V17.254ZM20.502 12.507C20.3693 12.507 20.2422 12.4542 20.1484 12.3605C20.0547 12.2667 20.002 12.1396 20.002 12.007C20.002 11.8743 20.0547 11.7472 20.1484 11.6534C20.2422 11.5597 20.3693 11.507 20.502 11.507H22.002C22.1346 11.507 22.2617 11.5597 22.3555 11.6534C22.4492 11.7472 22.502 11.8743 22.502 12.007C22.502 12.1396 22.4492 12.2667 22.3555 12.3605C22.2617 12.4542 22.1346 12.507 22.002 12.507H20.502ZM2.00195 12.507C1.86934 12.507 1.74221 12.4542 1.64844 12.3605C1.55467 12.2667 1.50195 12.1396 1.50195 12.007C1.50195 11.8743 1.55467 11.7472 1.64844 11.6534C1.74221 11.5597 1.86934 11.507 2.00195 11.507H3.50195C3.63456 11.507 3.7617 11.5597 3.85547 11.6534C3.94924 11.7472 4.00195 11.8743 4.00195 12.007C4.00195 12.1396 3.94924 12.2667 3.85547 12.3605C3.7617 12.4542 3.63456 12.507 3.50195 12.507H2.00195ZM18.9326 8.00696C18.8666 7.89221 18.849 7.7559 18.8833 7.62805C18.9176 7.50021 19.0012 7.39113 19.1157 7.32483L20.4155 6.57483C20.4724 6.53865 20.5365 6.51448 20.603 6.50354C20.6696 6.4926 20.7372 6.49531 20.8027 6.51135C20.8682 6.5274 20.9299 6.55634 20.9839 6.5968C21.0378 6.63726 21.083 6.68832 21.1167 6.7467C21.1504 6.80509 21.172 6.8697 21.1802 6.93665C21.1883 7.00359 21.1829 7.07159 21.1641 7.13635C21.1453 7.20112 21.1135 7.2614 21.0708 7.3136C21.0281 7.3658 20.9753 7.40881 20.9155 7.44006L19.6157 8.19006C19.5009 8.25596 19.3647 8.27339 19.2368 8.23889C19.109 8.2044 18.9997 8.12072 18.9336 8.00598L18.9326 8.00696ZM4.39062 8.18713L3.09082 7.43567C3.03107 7.40441 2.97824 7.3614 2.93555 7.3092C2.89285 7.25701 2.86107 7.19672 2.84229 7.13196C2.8235 7.06719 2.81804 6.99968 2.82617 6.93274C2.8343 6.8658 2.8559 6.80118 2.88965 6.7428C2.9234 6.68442 2.96851 6.63335 3.02246 6.5929C3.07641 6.55244 3.13812 6.52349 3.20361 6.50745C3.26911 6.4914 3.33727 6.48869 3.40381 6.49963C3.47035 6.51058 3.53391 6.53475 3.59082 6.57092L4.89062 7.3219C4.95038 7.35316 5.0032 7.39617 5.0459 7.44836C5.08859 7.50056 5.12037 7.56085 5.13916 7.62561C5.15795 7.69037 5.1634 7.75838 5.15527 7.82532C5.14714 7.89226 5.12554 7.95688 5.0918 8.01526C5.05805 8.07364 5.01293 8.1247 4.95898 8.16516C4.90503 8.20562 4.84333 8.23457 4.77783 8.25061C4.71233 8.26665 4.64418 8.26937 4.57764 8.25842C4.5111 8.24748 4.44753 8.22331 4.39062 8.18713ZM16.0049 5.07776C15.8903 5.01146 15.8068 4.90238 15.7725 4.77454C15.7382 4.64669 15.7558 4.51087 15.8218 4.39612L16.5728 3.09583C16.6419 2.98699 16.7507 2.90922 16.876 2.87854C17.0012 2.84786 17.1335 2.86674 17.2451 2.93127C17.3568 2.99581 17.4392 3.10088 17.4751 3.22473C17.511 3.34859 17.4978 3.48155 17.438 3.59583L16.687 4.89612C16.6431 4.97179 16.5797 5.03455 16.5039 5.07825C16.4281 5.12194 16.3424 5.14507 16.2549 5.14514C16.1664 5.14684 16.0792 5.12359 16.0029 5.07874L16.0049 5.07776ZM7.31787 4.89514L6.56885 3.59485C6.53267 3.53794 6.5085 3.47438 6.49756 3.40784C6.48661 3.3413 6.48884 3.27314 6.50488 3.20764C6.52093 3.14214 6.55036 3.08044 6.59082 3.02649C6.63128 2.97254 6.68234 2.92742 6.74072 2.89368C6.79911 2.85993 6.86372 2.83833 6.93066 2.8302C6.99761 2.82207 7.06512 2.82752 7.12988 2.84631C7.19465 2.8651 7.25493 2.89688 7.30713 2.93958C7.35933 2.98227 7.40234 3.0351 7.43359 3.09485L8.18359 4.39514C8.24958 4.50989 8.2677 4.64571 8.2334 4.77356C8.19909 4.90141 8.11554 5.01048 8.00098 5.07678C7.9257 5.12155 7.83953 5.14463 7.75195 5.14368C7.66387 5.14441 7.57705 5.12228 7.50049 5.07874C7.42393 5.03519 7.36031 4.9722 7.31592 4.89612L7.31787 4.89514ZM11.5029 3.505V2.005C11.5029 1.8724 11.5556 1.74526 11.6494 1.65149C11.7432 1.55772 11.8703 1.505 12.0029 1.505C12.1355 1.505 12.2627 1.55772 12.3564 1.65149C12.4502 1.74526 12.5029 1.8724 12.5029 2.005V3.505C12.5029 3.63761 12.4502 3.76475 12.3564 3.85852C12.2627 3.95229 12.1355 4.005 12.0029 4.005C11.8703 4.005 11.7432 3.95229 11.6494 3.85852C11.5556 3.76475 11.5029 3.63761 11.5029 3.505Z" fill="white"/>
</svg>
