<svg width="24" height="25" viewBox="0 0 24 25" fill="none" xmlns="http://www.w3.org/2000/svg">
<path d="M4.75879 20.005V17.2809H2.00195C1.86934 17.2809 1.74172 17.2282 1.64795 17.1344C1.55418 17.0406 1.50195 16.9135 1.50195 16.7809C1.50195 16.6483 1.55418 16.5211 1.64795 16.4274C1.74172 16.3336 1.86934 16.2809 2.00195 16.2809H4.75879V4.005C4.75879 3.8724 4.81151 3.74526 4.90527 3.65149C4.99904 3.55772 5.12618 3.505 5.25879 3.505C5.3914 3.505 5.51854 3.55772 5.6123 3.65149C5.70607 3.74526 5.75879 3.8724 5.75879 4.005V11.174C6.02219 10.7596 6.37209 10.407 6.78467 10.1407C7.02178 9.99362 7.28644 9.89684 7.5625 9.85608C7.83856 9.81532 8.12013 9.83162 8.38965 9.90393C9.54265 10.1919 10.1686 11.4527 10.8306 12.7877C11.5386 14.2137 12.269 15.6881 13.584 15.7321H13.6108C14.6828 15.7321 15.4108 13.6451 16.1108 11.6241C16.9528 9.19715 17.8229 6.68797 19.6719 6.21497C19.7362 6.19626 19.8036 6.19051 19.8701 6.19836C19.9366 6.20622 20.0009 6.22721 20.0591 6.26038C20.1173 6.29354 20.1678 6.3385 20.2085 6.39172C20.2491 6.44495 20.2787 6.50557 20.2954 6.57043C20.3121 6.6353 20.3156 6.70293 20.3057 6.76917C20.2957 6.8354 20.2728 6.89905 20.2378 6.95618C20.2028 7.0133 20.157 7.06271 20.1025 7.10168C20.0481 7.14066 19.9863 7.16809 19.9209 7.18274C18.5909 7.52174 17.7766 9.87478 17.0566 11.9518C16.4316 13.7518 15.8309 15.4869 14.8569 16.2799H22.0078C22.1404 16.2799 22.2676 16.3326 22.3613 16.4264C22.4551 16.5202 22.5078 16.6473 22.5078 16.7799C22.5078 16.9125 22.4551 17.0397 22.3613 17.1334C22.2676 17.2272 22.1404 17.2799 22.0078 17.2799H5.76465V20.004C5.76465 20.1366 5.71193 20.2638 5.61816 20.3575C5.5244 20.4513 5.39726 20.504 5.26465 20.504C5.13204 20.504 5.0049 20.4513 4.91113 20.3575C4.81736 20.2638 4.76465 20.1366 4.76465 20.004L4.75879 20.005ZM5.75879 16.2789H12.1206C11.1453 15.4649 10.3928 14.4166 9.93359 13.2321C9.37859 12.1091 8.85297 11.0477 8.14697 10.8717C8.00499 10.8334 7.85637 10.8249 7.71094 10.8468C7.56551 10.8687 7.4262 10.9208 7.30176 10.9991C6.52354 11.6875 5.98421 12.6049 5.76172 13.6198V13.6339L5.75879 16.2789Z" fill="white"/>
</svg>
