<svg width="20" height="21" viewBox="0 0 20 21" fill="none" xmlns="http://www.w3.org/2000/svg">
<g opacity="0.151">
<path opacity="0.151" d="M10 0.0426025C12.6522 0.0426025 15.1957 1.09617 17.0711 2.97153C18.9464 4.8469 20 7.39044 20 10.0426C20 11.3558 19.7413 12.6562 19.2388 13.8694C18.7363 15.0827 17.9997 16.1851 17.0711 17.1137C16.1425 18.0423 15.0401 18.7789 13.8268 19.2814C12.6136 19.7839 11.3132 20.0426 10 20.0426C8.68678 20.0426 7.38643 19.7839 6.17317 19.2814C4.95992 18.7789 3.85753 18.0423 2.92894 17.1137C2.00035 16.1851 1.26376 15.0827 0.761215 13.8694C0.258668 12.6562 0 11.3558 0 10.0426C0 7.39044 1.05358 4.8469 2.92894 2.97153C4.8043 1.09617 7.34784 0.0426025 10 0.0426025Z" fill="#39AC65"/>
</g>
<path d="M9.00433 13.172L7.58133 14.595C7.44127 14.7352 7.27494 14.8465 7.09186 14.9224C6.90877 14.9983 6.71252 15.0373 6.51433 15.0373C6.31613 15.0373 6.11988 14.9983 5.9368 14.9224C5.75371 14.8465 5.58738 14.7352 5.44733 14.595C5.16435 14.312 5.00539 13.9282 5.00539 13.528C5.00539 13.1278 5.16435 12.744 5.44733 12.461L8.29333 9.61497C8.57633 9.33199 8.96014 9.17301 9.36034 9.17301C9.76054 9.17301 10.1443 9.33199 10.4273 9.61497C10.4738 9.66198 10.5292 9.6993 10.5902 9.72478C10.6512 9.75025 10.7167 9.76337 10.7828 9.76337C10.849 9.76337 10.9144 9.75025 10.9754 9.72478C11.0365 9.6993 11.0918 9.66198 11.1383 9.61497C11.1854 9.56847 11.2227 9.5131 11.2481 9.45208C11.2736 9.39106 11.2867 9.32559 11.2867 9.25947C11.2867 9.19334 11.2736 9.12787 11.2481 9.06685C11.2227 9.00583 11.1854 8.95046 11.1383 8.90396C10.9049 8.67041 10.6277 8.48516 10.3226 8.35876C10.0175 8.23236 9.69056 8.1673 9.36034 8.1673C9.03011 8.1673 8.70311 8.23236 8.39804 8.35876C8.09297 8.48516 7.8158 8.67041 7.58234 8.90396L4.73633 11.75C4.26484 12.2218 4 12.8615 4 13.5285C4 14.1955 4.26484 14.8352 4.73633 15.307C5.20812 15.7784 5.84783 16.0433 6.51483 16.0433C7.18183 16.0433 7.82154 15.7784 8.29333 15.307L9.71634 13.881C9.76351 13.8345 9.80094 13.779 9.82651 13.7179C9.85207 13.6568 9.86523 13.5912 9.86523 13.525C9.86523 13.4587 9.85207 13.3931 9.82651 13.332C9.80094 13.2709 9.76351 13.2155 9.71634 13.169C9.66982 13.1218 9.6144 13.0843 9.55328 13.0588C9.49217 13.0332 9.42658 13.0201 9.36034 13.0201C9.29409 13.0201 9.2285 13.0332 9.16739 13.0588C9.10627 13.0843 9.05085 13.1218 9.00433 13.169V13.172Z" fill="#39AC65"/>
<path d="M15.2614 4.77894C14.7896 4.30745 14.1498 4.0426 13.4828 4.0426C12.8158 4.0426 12.1761 4.30745 11.7043 4.77894L9.99734 6.48594C9.95033 6.53244 9.913 6.5878 9.88753 6.64883C9.86205 6.70985 9.84894 6.77531 9.84894 6.84144C9.84894 6.90756 9.86205 6.97304 9.88753 7.03406C9.913 7.09508 9.95033 7.15045 9.99734 7.19695C10.0438 7.24396 10.0992 7.28128 10.1602 7.30676C10.2213 7.33223 10.2867 7.34534 10.3528 7.34534C10.419 7.34534 10.4844 7.33223 10.5455 7.30676C10.6065 7.28128 10.6618 7.24396 10.7083 7.19695L12.4153 5.49094C12.6985 5.20791 13.0825 5.0489 13.4828 5.0489C13.8832 5.0489 14.2672 5.20791 14.5504 5.49094C14.8334 5.77411 14.9924 6.15808 14.9924 6.55844C14.9924 6.9588 14.8334 7.34278 14.5504 7.62594L11.4203 10.7559C11.1374 11.0389 10.7535 11.1979 10.3533 11.1979C9.95315 11.1979 9.56934 11.0389 9.28635 10.7559C9.23985 10.7089 9.18448 10.6716 9.12346 10.6461C9.06244 10.6207 8.99697 10.6075 8.93085 10.6075C8.86472 10.6075 8.79926 10.6207 8.73824 10.6461C8.67721 10.6716 8.62185 10.7089 8.57535 10.7559C8.52833 10.8024 8.491 10.8578 8.46553 10.9188C8.44006 10.9798 8.42694 11.0453 8.42694 11.1114C8.42694 11.1776 8.44006 11.243 8.46553 11.3041C8.491 11.3651 8.52833 11.4204 8.57535 11.4669C9.04714 11.9384 9.68685 12.2033 10.3539 12.2033C11.0209 12.2033 11.6605 11.9384 12.1323 11.4669L15.2623 8.33694C15.7338 7.86515 15.9987 7.22544 15.9987 6.55844C15.9987 5.89144 15.7338 5.25173 15.2623 4.77994L15.2614 4.77894Z" fill="#39AC65"/>
</svg>
