<svg width="201" height="220" viewBox="0 0 201 220" fill="none" xmlns="http://www.w3.org/2000/svg">
<path d="M118.462 109.276C118.354 103.69 118.074 98.1125 117.621 92.544C116.929 83.3131 115.614 74.1395 113.685 65.0859C111.23 53.9766 106.534 43.4849 99.8847 34.2529C99.4846 33.6671 98.9582 33.1785 98.3443 32.8231C97.7303 32.4676 97.0445 32.2543 96.3373 32.199C95.63 32.1436 94.9193 32.2476 94.2576 32.5032C93.5958 32.7588 92.9998 33.1595 92.5134 33.6759C87.0098 39.2651 81.5096 44.8572 76.0128 50.4524C75.5582 50.8825 75.1934 51.3985 74.9396 51.9705C74.6858 52.5425 74.5481 53.1592 74.5343 53.7849C74.5205 54.4105 74.631 55.0327 74.8594 55.6153C75.0878 56.198 75.4295 56.7295 75.8648 57.1791C79.5445 61.2294 82.8211 65.6284 85.6481 70.3137C90.1743 77.9089 93.6675 86.0735 96.0355 94.5919C97.8157 100.96 99.1368 107.447 99.9887 114.004C100.775 119.869 101.084 125.789 100.912 131.704C100.751 136.817 100.252 141.914 99.4196 146.961C99.3297 147.522 99.1302 148.06 98.8324 148.543C98.5347 149.027 98.1446 149.447 97.6844 149.78C97.2242 150.113 96.703 150.352 96.1504 150.484C95.5979 150.615 95.0248 150.637 94.464 150.547C93.9031 150.457 93.3655 150.257 92.8818 149.959C92.3981 149.662 91.9777 149.272 91.6448 148.811C91.3118 148.351 91.0728 147.83 90.9413 147.278C90.8098 146.725 90.7884 146.152 90.8783 145.591C91.8999 139.408 92.3684 133.146 92.2784 126.88C92.1616 120.772 91.5232 114.686 90.3703 108.686C89.3543 103.079 87.8549 97.57 85.8891 92.221C85.5386 90.9739 84.7332 89.9035 83.6321 89.2211C82.8526 88.7878 81.9579 88.607 81.0713 88.7037C80.1847 88.8005 79.35 89.17 78.6824 89.7612C78.0147 90.3524 77.5471 91.1363 77.3438 92.0046C77.1406 92.8729 77.2119 93.7828 77.5478 94.6089C79.1045 98.5746 80.35 102.655 81.273 106.815C82.1094 110.551 82.7185 114.335 83.097 118.145C83.3451 120.624 83.5201 123.107 83.5821 125.598C83.6449 125.992 83.6008 126.396 83.4542 126.767C83.3077 127.138 83.0642 127.463 82.7491 127.707C82.434 127.952 82.0589 128.108 81.6631 128.158C81.2672 128.208 80.8652 128.151 80.499 127.993C78.2748 127.501 76.1372 126.677 74.1577 125.55C72.2432 124.371 70.6154 122.78 69.3927 120.894C68.17 119.007 67.3832 116.871 67.0895 114.642C66.2514 109.048 65.4684 103.443 64.6634 97.8478C64.2763 95.1549 63.8823 92.462 63.5213 89.7651C63.5087 89.586 63.4457 89.4142 63.3395 89.2694C63.2333 89.1247 63.0883 89.0129 62.9213 88.9471C55.496 85.2292 48.0638 81.5234 40.6605 77.7625C38.4158 76.6915 36.47 75.0832 34.9958 73.0802C33.5216 71.0772 32.5644 68.7413 32.2092 66.2799C31.6719 63.064 32.176 59.7607 33.6481 56.8515C35.1201 53.9423 37.4831 51.5794 40.3925 50.1074C47.8857 46.3515 55.427 42.6896 62.9523 38.9978C63.1376 38.9278 63.2991 38.8066 63.4181 38.6484C63.5371 38.4901 63.6086 38.3012 63.6243 38.1038C64.4753 32.219 65.3584 26.3382 66.2344 20.4564C66.6344 17.7635 66.9474 15.0565 67.4575 12.3806C68.0763 9.29586 69.6286 6.47588 71.904 4.30281C74.1793 2.12974 77.0678 0.708622 80.1779 0.232036C82.6157 -0.202792 85.1234 -0.0245749 87.4752 0.750634C89.827 1.52584 91.9491 2.87372 93.6504 4.6729C99.5327 10.6257 105.329 16.6635 111.151 22.6783C111.289 22.8459 111.471 22.9708 111.678 23.0384C111.884 23.106 112.105 23.1136 112.315 23.0603C120.607 21.6363 128.899 20.2104 137.2 18.8414C141.193 18.2333 145.265 19.2084 148.549 21.5587C151.833 23.9091 154.069 27.449 154.781 31.424C155.397 35.0018 154.771 38.6827 153.007 41.8557C149.144 49.1214 145.315 56.4062 141.463 63.678C141.381 63.8043 141.337 63.9513 141.336 64.1018C141.334 64.2523 141.376 64.4001 141.455 64.5279C145.331 71.9187 149.22 79.3034 153.056 86.7182C154.957 90.2596 155.405 94.4019 154.306 98.2682C153.207 102.134 150.646 105.421 147.165 107.432C146.296 107.925 145.579 108.649 145.097 109.524C144.614 110.399 144.384 111.391 144.431 112.389C144.431 115.056 144.438 117.724 144.387 120.389C144.28 125.917 143.987 131.436 143.472 136.941C143.425 137.524 143.259 138.093 142.985 138.61C142.711 139.128 142.335 139.585 141.879 139.952C141.423 140.32 140.897 140.591 140.332 140.749C139.768 140.907 139.178 140.948 138.597 140.87C137.467 140.71 136.445 140.113 135.75 139.208C135.056 138.302 134.743 137.16 134.881 136.028C135.192 132.675 135.381 129.314 135.547 125.95C135.805 120.542 135.859 115.13 135.756 109.719C135.631 103.182 135.527 96.6418 135.138 90.1131C135.052 88.6761 134.92 87.2412 134.819 85.8052C134.788 85.2326 134.644 84.6718 134.394 84.1556C134.144 83.6394 133.794 83.1782 133.364 82.7987C132.934 82.4193 132.433 82.1292 131.89 81.9455C131.346 81.7618 130.772 81.6881 130.2 81.7288C129.628 81.7694 129.07 81.9235 128.558 82.1822C128.046 82.4408 127.591 82.7988 127.219 83.2352C126.847 83.6717 126.565 84.1778 126.391 84.7241C126.217 85.2704 126.153 85.846 126.204 86.4172C126.614 91.346 126.804 96.2839 126.926 101.226C127.077 107.141 127.206 113.057 127.117 118.975C127.119 120.108 126.676 121.196 125.884 122.006C125.091 122.815 124.013 123.281 122.88 123.303C121.747 123.326 120.651 122.902 119.828 122.124C119.005 121.346 118.52 120.276 118.477 119.144C118.445 116.205 118.469 113.264 118.468 110.325L118.462 109.276Z" fill="white"/>
<path d="M126.057 131.712C125.77 134.912 125.538 138.402 125.141 141.879C124.513 147.56 123.481 153.188 122.051 158.721C121.823 159.68 121.274 160.532 120.495 161.135C119.716 161.738 118.754 162.057 117.769 162.038C116.784 162.019 115.835 161.664 115.08 161.031C114.325 160.398 113.809 159.526 113.618 158.56C113.488 157.888 113.519 157.196 113.709 156.539C115.094 151.315 116.069 145.992 116.623 140.616C116.984 137.331 117.154 134.029 117.508 130.744C117.549 130.174 117.707 129.618 117.97 129.11C118.233 128.602 118.597 128.153 119.04 127.79C119.482 127.427 119.994 127.158 120.543 127C121.093 126.841 121.669 126.796 122.237 126.867C124.472 127.039 126.153 129.039 126.057 131.712Z" fill="white"/>
<path d="M104.706 191.962C104.706 187.429 104.706 182.895 104.706 178.362C104.67 177.427 104.948 176.506 105.496 175.748C106.045 174.989 106.832 174.437 107.731 174.178C108.339 174.003 108.978 173.971 109.6 174.083C110.222 174.195 110.809 174.449 111.317 174.825C111.825 175.201 112.24 175.689 112.528 176.25C112.817 176.812 112.973 177.433 112.983 178.065C113.012 180.331 112.988 182.598 112.99 184.865C112.994 191.312 112.999 197.759 113.005 204.205C112.961 206.035 113.614 207.813 114.831 209.18C116.049 210.547 117.74 211.401 119.563 211.569C121.386 211.737 123.204 211.206 124.651 210.084C126.097 208.963 127.064 207.333 127.355 205.526C127.486 204.164 127.52 202.794 127.455 201.426C127.441 197.889 127.555 194.356 127.59 190.821C127.55 189.745 127.925 188.695 128.637 187.888C129.35 187.081 130.346 186.58 131.418 186.487C132.472 186.399 133.519 186.721 134.34 187.387C135.162 188.052 135.695 189.009 135.827 190.058C136.701 195.364 139.343 200.218 143.323 203.834C147.717 208.115 153.405 210.822 159.498 211.534C165.82 212.286 172.194 210.648 177.369 206.942C182.316 203.423 186.449 198.883 189.488 193.629C190.467 192.029 191.331 190.369 192.201 188.71C192.584 187.962 193.186 187.35 193.927 186.955C194.669 186.559 195.513 186.4 196.347 186.498C197.181 186.596 197.966 186.946 198.595 187.502C199.225 188.059 199.669 188.794 199.869 189.61C200.127 190.543 200.029 191.539 199.593 192.404C196.512 198.956 192.248 204.882 187.013 209.884C182.061 214.637 175.875 217.906 169.159 219.322C162.157 220.741 154.886 219.924 148.374 216.986C143.582 214.901 139.287 211.822 135.773 207.954C135.673 207.846 135.604 207.639 135.427 207.69C135.25 207.741 135.305 207.957 135.263 208.099C133.363 214.617 129.073 218.575 122.419 219.71C119.3 220.184 116.11 219.681 113.289 218.27C110.467 216.858 108.152 214.608 106.66 211.828C105.443 209.677 104.789 207.254 104.76 204.782" fill="white"/>
<path d="M20.7951 182.337C22.1141 183.53 23.4391 184.647 24.6652 185.875C27.7074 188.762 30.0224 192.328 31.4204 196.282C31.5593 196.647 31.666 197.023 31.7395 197.407C31.8175 197.946 32.0395 198.134 32.6125 198.114C34.0915 198.063 35.5726 198.104 37.0526 198.096C37.7129 198.101 38.3674 197.974 38.9778 197.722C39.5882 197.47 40.142 197.099 40.6067 196.63C41.0714 196.161 41.4376 195.604 41.6837 194.991C41.9298 194.379 42.0509 193.723 42.0398 193.063C41.9929 192.069 42.0116 191.072 42.0958 190.08C42.2227 189.068 42.7214 188.139 43.495 187.474C44.2685 186.809 45.2617 186.455 46.2816 186.481C47.3014 186.507 48.2752 186.912 49.0136 187.615C49.752 188.319 50.2023 189.273 50.2771 190.29C50.525 192.587 50.3294 194.911 49.7011 197.135C48.9216 199.627 47.4188 201.831 45.3837 203.466C43.3486 205.102 40.873 206.096 38.2717 206.322C36.4056 206.494 34.5346 206.381 32.6665 206.389C32.1665 206.389 31.9735 206.52 31.8615 207.025C31.0808 211.078 28.7586 214.672 25.3832 217.049C23.1175 218.589 20.4987 219.531 17.7709 219.785C16.6653 219.886 15.5548 219.925 14.4448 219.9C11.0747 219.9 7.70457 219.9 4.33444 219.9C3.78201 219.915 3.23225 219.819 2.71739 219.618C2.20253 219.417 1.73296 219.116 1.33618 218.731C0.939396 218.346 0.623405 217.886 0.406744 217.378C0.190083 216.87 0.0771044 216.323 0.0744412 215.771C0.071778 215.218 0.17949 214.671 0.391241 214.16C0.602991 213.65 0.914526 213.187 1.30758 212.798C1.70063 212.41 2.16729 212.104 2.68019 211.898C3.19309 211.692 3.7419 211.591 4.29445 211.6C7.99458 211.58 11.6947 211.588 15.3949 211.6C16.6036 211.63 17.8081 211.446 18.953 211.057C20.217 210.596 21.3338 209.803 22.1866 208.762C23.0395 207.721 23.5971 206.471 23.8011 205.141C24.7012 201.154 23.5832 197.657 21.1911 194.48C18.5928 191.2 15.392 188.446 11.7607 186.367C8.95871 184.674 5.9995 183.255 2.92438 182.131C2.27279 181.929 1.68136 181.568 1.20261 181.082C0.723865 180.595 0.372623 179.998 0.180082 179.344C-0.0124594 178.689 -0.0403352 177.997 0.0989172 177.329C0.23817 176.661 0.540239 176.038 0.978314 175.515C1.32973 175.068 1.77505 174.705 2.28265 174.45C2.79025 174.196 3.3477 174.056 3.91543 174.041C4.01544 174.041 4.11043 174.041 4.20744 174.041C18.1546 174.041 32.1018 174.041 46.049 174.041C47.0244 174.014 47.977 174.338 48.7336 174.954C49.4901 175.571 50.0002 176.438 50.1711 177.399C50.2774 177.96 50.266 178.538 50.1376 179.095C50.0093 179.652 49.7668 180.176 49.4254 180.635C49.0841 181.093 48.6513 181.476 48.1545 181.759C47.6576 182.041 47.1076 182.218 46.539 182.277C46.093 182.313 45.645 182.333 45.197 182.333C37.4633 182.337 29.7297 182.337 21.9961 182.333L20.7951 182.337Z" fill="white"/>
<path d="M73.685 174.038C75.651 174.038 77.249 174.038 78.846 174.038C79.3834 174.016 79.9199 174.1 80.4247 174.285C80.9295 174.471 81.3928 174.754 81.7878 175.119C82.1829 175.484 82.502 175.923 82.7268 176.412C82.9517 176.9 83.0778 177.429 83.098 177.966C83.1395 178.514 83.0681 179.065 82.8882 179.584C82.7083 180.103 82.4238 180.58 82.0522 180.985C81.6806 181.389 81.2299 181.714 80.728 181.937C80.226 182.161 79.6835 182.279 79.134 182.285C76.04 182.373 72.941 182.329 69.845 182.34C68.972 182.316 68.1089 182.53 67.3487 182.96C66.5885 183.39 65.9601 184.019 65.531 184.78C65.0686 185.557 64.8311 186.447 64.845 187.352C64.832 189.267 64.822 191.183 64.845 193.097C64.8348 193.752 64.9549 194.403 65.1982 195.01C65.4415 195.618 65.8032 196.172 66.2623 196.639C66.7214 197.106 67.2688 197.477 67.8726 197.731C68.4764 197.984 69.1245 198.115 69.7794 198.116C70.4343 198.117 71.0828 197.988 71.6873 197.736C72.2918 197.484 72.8402 197.115 73.3007 196.649C73.7611 196.183 74.1244 195.631 74.3694 195.023C74.6144 194.416 74.7363 193.766 74.728 193.111C74.745 192.154 74.728 191.196 74.734 190.239C74.7219 189.688 74.8202 189.141 75.0231 188.629C75.2259 188.117 75.5292 187.651 75.9151 187.259C76.301 186.866 76.7616 186.555 77.2698 186.343C77.778 186.131 78.3235 186.024 78.874 186.026C79.4245 186.029 79.969 186.141 80.4752 186.358C80.9814 186.574 81.4392 186.89 81.8214 187.286C82.2037 187.682 82.5027 188.151 82.7008 188.665C82.8989 189.178 82.9922 189.726 82.975 190.277C83.1034 192.345 82.9734 194.422 82.588 196.458C81.9055 199.102 80.4227 201.469 78.3426 203.237C76.2625 205.005 73.6868 206.087 70.968 206.335C67.5357 206.68 64.1069 205.648 61.4352 203.466C58.7635 201.284 57.0675 198.13 56.72 194.698C56.2239 191.206 56.3094 187.656 56.973 184.192C57.5634 181.584 58.9426 179.221 60.9231 177.425C62.9035 175.629 65.3892 174.486 68.042 174.152C70.041 173.89 72.051 174.117 73.685 174.038Z" fill="white"/>
<path d="M98.4792 185.673C98.4392 187.879 98.5792 190.673 98.3652 193.462C97.7722 201.052 95.3221 207.834 89.6649 213.161C85.922 216.722 81.1455 219.003 76.0234 219.675C74.7405 219.925 73.4272 219.979 72.1282 219.834C71.102 219.676 70.1744 219.133 69.534 218.316C68.8935 217.499 68.5882 216.469 68.6801 215.434C68.7564 214.379 69.2344 213.393 70.0157 212.679C70.797 211.965 71.8222 211.578 72.8803 211.598C76.6974 211.589 80.3867 210.221 83.2876 207.741C86.3513 205.086 88.4816 201.518 89.3649 197.562C89.9288 195.306 90.2067 192.988 90.1919 190.662C90.1919 186.521 90.1829 182.38 90.1919 178.24C90.1831 177.696 90.2814 177.156 90.4813 176.651C90.6812 176.145 90.9787 175.684 91.3568 175.293C91.735 174.903 92.1864 174.591 92.6852 174.374C93.184 174.158 93.7205 174.043 94.2641 174.034C94.8076 174.025 95.3476 174.123 95.8531 174.323C96.3587 174.523 96.8199 174.821 97.2105 175.199C97.6011 175.577 97.9134 176.028 98.1295 176.527C98.3456 177.026 98.4614 177.562 98.4702 178.106C98.5032 180.438 98.4792 182.763 98.4792 185.673Z" fill="white"/>
<path d="M48.3983 219.901C45.3803 219.901 42.3623 219.915 39.3443 219.901C38.3287 219.898 37.3501 219.52 36.597 218.838C35.8439 218.157 35.3696 217.221 35.2653 216.21C35.1615 215.231 35.4091 214.246 35.9639 213.432C36.5187 212.618 37.3446 212.028 38.2943 211.766C38.7073 211.652 39.1339 211.595 39.5623 211.596C45.5003 211.596 51.4393 211.583 57.3773 211.601C58.0783 211.575 58.7745 211.727 59.4007 212.043C60.027 212.359 60.5628 212.829 60.9579 213.408C61.3531 213.988 61.5948 214.658 61.6602 215.356C61.7257 216.055 61.6129 216.758 61.3323 217.401C61.046 218.147 60.5366 218.787 59.8735 219.232C59.2105 219.678 58.4261 219.908 57.6273 219.891C54.5513 219.93 51.4753 219.9 48.3983 219.901Z" fill="white"/>
<path d="M131.447 182.303C128.683 182.303 125.918 182.314 123.154 182.303C122.135 182.305 121.151 181.932 120.391 181.254C119.63 180.575 119.147 179.64 119.034 178.628C118.92 177.615 119.185 176.596 119.776 175.767C120.368 174.937 121.245 174.355 122.239 174.133C122.485 174.075 122.737 174.047 122.99 174.047C128.675 174.047 134.359 174.03 140.044 174.047C140.999 174.059 141.919 174.412 142.639 175.041C143.358 175.669 143.83 176.533 143.971 177.479C144.077 178.066 144.054 178.669 143.902 179.246C143.751 179.824 143.475 180.361 143.094 180.82C142.712 181.279 142.235 181.649 141.696 181.905C141.157 182.16 140.568 182.294 139.971 182.298C138.22 182.324 136.471 182.303 134.715 182.303H131.447Z" fill="white"/>
</svg>
