<svg width="24" height="25" viewBox="0 0 24 25" fill="none" xmlns="http://www.w3.org/2000/svg">
<path d="M2.5 20.205C2.54241 18.5759 3.21812 17.0276 4.38379 15.8886C5.54946 14.7497 7.11295 14.1101 8.74268 14.1054C8.79768 14.1054 8.84983 14.1054 8.90283 14.1054H15.1099C16.7623 14.0683 18.362 14.687 19.5596 15.8261C20.7572 16.9653 21.4554 18.5318 21.501 20.1841C21.4864 20.8028 21.2311 21.3919 20.7896 21.8257C20.348 22.2594 19.7547 22.5038 19.1357 22.5073H4.88867C4.26821 22.5133 3.67045 22.2752 3.22363 21.8447C2.77682 21.4142 2.51701 20.8253 2.5 20.205V20.205ZM3.5 20.205C3.52204 20.56 3.67936 20.8933 3.93994 21.1352C4.20052 21.3772 4.54433 21.5096 4.8999 21.5053H19.0889C19.4497 21.5109 19.7985 21.376 20.0615 21.1289C20.3245 20.8818 20.4807 20.5416 20.4976 20.1811C20.4536 18.7962 19.8639 17.4851 18.8564 16.5337C17.849 15.5823 16.5058 15.0682 15.1206 15.1035H8.75391C7.38695 15.1044 6.07384 15.6374 5.09326 16.5898C4.11269 17.5422 3.54178 18.8387 3.50098 20.205H3.5ZM7 8.50534V6.50534C6.99933 5.85356 7.12675 5.20809 7.375 4.60544V4.60544C7.38033 4.59077 7.38591 4.57678 7.39258 4.56345C7.70116 3.8321 8.17968 3.18462 8.78809 2.67478C9.39649 2.16494 10.1176 1.80722 10.8916 1.63132C11.6656 1.45542 12.4703 1.46622 13.2393 1.66306C14.0082 1.8599 14.7196 2.23699 15.314 2.76316C15.3331 2.77786 15.3508 2.79375 15.3677 2.81101C15.8817 3.27865 16.2924 3.84873 16.5732 4.48435C16.8541 5.11997 16.9988 5.8075 16.9985 6.50241V8.50241C16.9985 9.8285 16.4719 11.0999 15.5342 12.0376C14.5965 12.9753 13.3246 13.5024 11.9985 13.5024C10.6725 13.5024 9.40106 12.9753 8.46338 12.0376C7.5257 11.0999 6.99854 9.8285 6.99854 8.50241L7 8.50534ZM8 6.50534V8.50534C8 9.56621 8.42124 10.5833 9.17139 11.3335C9.92153 12.0836 10.9391 12.5053 12 12.5053C13.0609 12.5053 14.078 12.0836 14.8281 11.3335C15.5783 10.5833 16 9.56621 16 8.50534V6.50534C16 6.42934 15.9997 6.35329 15.9937 6.27829C15.7171 6.38676 15.423 6.44245 15.126 6.44235C14.766 6.44258 14.4105 6.36182 14.0859 6.20603C13.7614 6.05023 13.476 5.8235 13.251 5.54245C12.5317 5.92254 11.7306 6.1212 10.917 6.12204C10.337 6.12367 9.76118 6.02228 9.2168 5.82224L8.14893 5.42234C8.04976 5.77478 7.99969 6.13921 8 6.50534ZM15.7627 5.28806L15.8047 5.26706C15.6441 4.77666 15.39 4.3221 15.0566 3.92819L14.8896 4.15134C14.6572 4.46089 14.3889 4.74148 14.0898 4.98728C14.2967 5.21414 14.5724 5.36661 14.8745 5.42136C15.1766 5.47611 15.4884 5.42984 15.7617 5.29001L15.7627 5.28806ZM9.56299 4.8823C10.1406 5.09425 10.7596 5.16863 11.3711 5.10007C11.9825 5.03151 12.5696 4.82188 13.0859 4.48728L13.1138 4.46628L13.1509 4.44431C13.5113 4.20125 13.8284 3.89932 14.0889 3.55124L14.3169 3.25144C13.8633 2.92908 13.3474 2.70487 12.8022 2.59323C12.2571 2.4816 11.6947 2.48488 11.1509 2.603C10.6071 2.72112 10.0938 2.95153 9.64404 3.27927C9.1943 3.607 8.81759 4.02483 8.53857 4.50632L9.56299 4.8823Z" fill="white"/>
</svg>
