<svg width="24" height="24" viewBox="0 0 24 24" fill="none" xmlns="http://www.w3.org/2000/svg">
<path d="M19 0H5C2.23858 0 0 2.23858 0 5V19C0 21.7614 2.23858 24 5 24H19C21.7614 24 24 21.7614 24 19V5C24 2.23858 21.7614 0 19 0Z" fill="white"/>
<path d="M19 0.25H5C2.37665 0.25 0.25 2.37665 0.25 5V19C0.25 21.6234 2.37665 23.75 5 23.75H19C21.6234 23.75 23.75 21.6234 23.75 19V5C23.75 2.37665 21.6234 0.25 19 0.25Z" stroke="#D6D6D6" stroke-width="0.5" stroke-linecap="square"/>
<path d="M8.55886 17.318C8.76786 17.234 8.98091 17.151 9.19491 17.071C9.20991 18.184 9.19488 19.297 9.20388 20.408C9.20388 20.677 9.19785 21.035 8.89785 21.15C8.19785 21.479 7.4909 21.801 6.7889 22.128C6.48834 22.2484 6.1627 22.2927 5.8409 22.257C5.68234 22.1514 5.55314 22.0073 5.46541 21.8383C5.37769 21.6692 5.33426 21.4806 5.33925 21.2902C5.34425 21.0997 5.39751 20.9137 5.49398 20.7494C5.59045 20.5852 5.72701 20.4481 5.89089 20.351C6.55289 20.032 7.22587 19.737 7.88387 19.411C7.88387 19.645 7.89687 19.881 7.88387 20.111C7.23987 20.529 6.46585 20.724 5.83785 21.175C5.76285 21.46 5.9629 21.734 6.2679 21.625C7.0469 21.307 7.79885 20.925 8.56185 20.573C8.56285 19.49 8.55186 18.403 8.55886 17.318Z" fill="#303030"/>
<path d="M11.8447 17.323C12.0537 17.236 12.2587 17.143 12.4717 17.072C12.4717 18.234 12.4908 19.398 12.4628 20.56C12.2538 20.646 12.0448 20.74 11.8358 20.828C11.8378 19.659 11.8237 18.491 11.8447 17.323Z" fill="#303030"/>
<path d="M15.3037 17.397C15.4957 17.236 15.7201 17.1183 15.9618 17.052C15.9618 18.201 15.9618 19.352 15.9618 20.499C15.765 20.649 15.5432 20.7631 15.3067 20.836C15.2914 19.692 15.2904 18.5457 15.3037 17.397Z" fill="#303030"/>
<path d="M17.4219 17.17C17.9174 17.4488 18.3704 17.7974 18.7668 18.205C18.9838 18.453 19.1008 18.925 18.7798 19.137C18.4381 19.3373 18.0863 19.5199 17.7258 19.684C17.7258 19.801 17.7168 19.918 17.7128 20.035C18.1658 19.842 18.6018 19.617 19.0588 19.435C19.0686 19.6613 19.0657 19.888 19.0498 20.114C18.948 20.2102 18.8261 20.2826 18.6929 20.326C17.1579 21.026 15.6378 21.756 14.0998 22.448C14.0315 22.2204 14.0257 21.9786 14.0829 21.748C15.1739 21.189 16.3078 20.71 17.4148 20.181C17.4148 20.062 17.4148 19.943 17.4228 19.824C17.1158 19.924 16.6529 20.054 16.4609 19.7C16.4107 19.5506 16.3937 19.3921 16.4109 19.2355C16.4282 19.0789 16.4794 18.9278 16.5608 18.793C16.8139 18.4274 17.1001 18.086 17.4158 17.773C17.4158 17.573 17.4158 17.373 17.4158 17.167L17.4219 17.17ZM17.7159 18.347C17.7159 18.6177 17.7159 18.8886 17.7159 19.16C17.9289 19.022 18.3428 18.924 18.2908 18.602C18.1331 18.4576 17.9327 18.3684 17.7198 18.348L17.7159 18.347ZM16.8199 19.34C17.0199 19.34 17.2168 19.3367 17.4108 19.33C17.4108 19.082 17.4249 18.83 17.4189 18.587C17.1909 18.815 16.8858 19.009 16.8188 19.342L16.8199 19.34Z" fill="#303030"/>
<path d="M9.43191 19.924C9.38891 19.432 9.56192 18.775 10.1319 18.687C10.5229 18.6882 10.8993 18.8361 11.1865 19.1014C11.4737 19.3668 11.6508 19.7303 11.6829 20.12C11.6864 20.2732 11.6459 20.4242 11.5661 20.555C11.4864 20.6858 11.3707 20.791 11.2329 20.858C10.6629 21.129 10.0829 21.377 9.51492 21.658C9.41492 21.698 9.30592 21.779 9.18392 21.758C9.14689 21.5272 9.16052 21.291 9.2239 21.066C9.8509 20.726 10.5159 20.453 11.1659 20.157C11.1729 20.096 11.1869 19.974 11.1939 19.913C10.779 20.1659 10.3182 20.3341 9.83792 20.408C9.72838 20.408 9.62332 20.3645 9.54586 20.287C9.46841 20.2096 9.42489 20.1045 9.42489 19.995C9.42487 19.9708 9.42723 19.9467 9.43191 19.923V19.924ZM9.81588 19.758C10.097 19.6865 10.373 19.5959 10.6419 19.487C10.5669 19.267 10.2919 19.34 10.1129 19.342C9.89088 19.336 9.8649 19.6 9.8179 19.757L9.81588 19.758Z" fill="#303030"/>
<path d="M13.5308 19.007C14.0274 19.2844 14.4808 19.6327 14.8768 20.041C15.0958 20.291 15.1958 20.772 14.8768 20.981C14.5258 21.19 14.1448 21.341 13.7838 21.532C13.4917 21.7262 13.1364 21.801 12.7908 21.741C12.4508 21.58 12.4908 21.128 12.5728 20.823C12.8306 20.3753 13.1516 19.9671 13.5258 19.611C13.5258 19.411 13.5318 19.211 13.5358 19.011L13.5308 19.007ZM12.9428 21.161C13.5428 21.242 14.0428 20.814 14.5428 20.561C14.4034 20.3558 14.2258 20.1793 14.0198 20.041C13.5998 20.333 13.0978 20.641 12.9418 21.16L12.9428 21.161Z" fill="#303030"/>
<path d="M5.78585 11.0345C5.78585 11.0345 4.04808 12.0601 3.77608 12.6751C3.50408 13.2901 3.99679 13.4827 3.99679 13.4827C3.99679 13.4827 4.86401 14.349 9.94601 13.432C11.3276 13.1636 12.6824 12.773 13.9948 12.265C15.4088 11.769 16.7545 11.097 18.0007 10.265C18.0007 10.265 19.5355 9.11877 18.2585 8.56477C17.8518 8.41255 17.4259 8.31832 16.9929 8.28547C16.9929 8.28547 16.0805 8.21699 16.0925 8.22199C16.2625 8.22199 16.1232 8.18883 16.1862 8.10383C16.6113 8.04562 17.0414 8.03093 17.4694 8.05988C17.993 8.07625 18.5142 8.1305 19.03 8.22199C20.688 8.47499 20.3481 9.54493 19.5651 10.3079C19.195 10.666 18.773 10.9657 18.3132 11.1976C17.7701 11.5335 17.2025 11.8267 16.614 12.0745C15.708 12.4895 15.4211 12.5748 14.6921 12.8558C12.5044 13.6885 10.2243 14.2539 7.90108 14.5404C6.6631 14.7338 5.4085 14.8011 4.15694 14.7405C2.73094 14.6005 2.48507 14.1409 2.48507 14.1409C2.39313 14.0178 2.33729 13.8713 2.32491 13.7181C2.31253 13.5649 2.34379 13.411 2.41476 13.2747C2.64676 12.7537 3.69335 11.9175 5.72335 10.9085" fill="#54C5D0"/>
<path d="M16.0229 8.23406C16.0229 8.23406 19.4821 4.78984 19.5343 4.0998C19.5865 3.40977 19.0457 3.38233 19.0457 3.38233C19.0457 3.38233 18.0872 2.75061 13.4754 5.33789C12.2273 6.05905 11.0465 6.891 9.94735 7.82371C8.74402 8.77915 7.66645 9.88304 6.74031 11.1091C6.74031 11.1091 5.63728 12.647 7.06272 12.7633C8.30024 12.5095 9.51292 12.1468 10.6866 11.6796C10.7141 11.7071 10.6869 11.8308 10.6869 11.8308C9.87802 12.2532 9.04584 12.6294 8.19435 12.9575C7.64744 13.1556 7.08174 13.2974 6.50603 13.3806C4.63626 13.6026 4.70805 12.5979 5.21429 11.5916C5.4493 11.1188 5.75618 10.6853 6.12401 10.3065C6.53431 9.79603 6.9847 9.31912 7.47088 8.88033C8.20797 8.17229 8.45613 7.99258 9.06953 7.47534C10.9042 5.93506 12.9194 4.62365 15.0707 3.56999C16.1486 2.99059 17.2862 2.53007 18.4635 2.19653C19.891 1.85807 20.285 2.23349 20.285 2.23349C20.4175 2.32294 20.5221 2.44796 20.5867 2.59419C20.6513 2.74042 20.6733 2.90191 20.6503 3.06011C20.5868 3.38901 20.4634 3.70345 20.2863 3.98777C19.9869 4.50057 19.6385 4.98318 19.2462 5.42888C18.6147 6.12811 17.9346 6.78191 17.2111 7.3854C16.8647 7.68255 16.485 7.9965 16.2061 8.23443" fill="#FBA629"/>
</svg>
