<svg width="24" height="25" viewBox="0 0 24 25" fill="none" xmlns="http://www.w3.org/2000/svg">
<path d="M4.00391 19.505C3.34135 19.5034 2.70629 19.2396 2.23779 18.7711C1.7693 18.3026 1.50549 17.6676 1.50391 17.005V7.005C1.50391 6.34196 1.767 5.70578 2.23584 5.23694C2.70468 4.7681 3.34087 4.505 4.00391 4.505H19.9985C20.6616 4.505 21.2978 4.7681 21.7666 5.23694C22.2354 5.70578 22.4985 6.34196 22.4985 7.005V17.005C22.4972 17.6676 22.2337 18.3026 21.7651 18.7711C21.2966 19.2397 20.6612 19.5037 19.9985 19.505H4.00391ZM2.50391 7.005V17.005C2.50391 17.4028 2.66157 17.7842 2.94287 18.0656C3.22418 18.3469 3.60608 18.505 4.00391 18.505H19.9985C20.396 18.5037 20.7771 18.3451 21.0581 18.0641C21.3391 17.7831 21.4972 17.4024 21.4985 17.005V7.005C21.4985 6.60718 21.3409 6.22576 21.0596 5.94446C20.7783 5.66315 20.3964 5.505 19.9985 5.505H4.00391C3.80676 5.50474 3.61142 5.54302 3.4292 5.61829C3.24698 5.69355 3.08139 5.80417 2.94189 5.94348C2.80239 6.0828 2.69172 6.24818 2.61621 6.4303C2.5407 6.61242 2.50195 6.80785 2.50195 7.005H2.50391ZM19.1499 16.8561L14.9995 12.7067L13.7656 13.9401C13.2969 14.4081 12.6614 14.671 11.999 14.671C11.3366 14.671 10.7016 14.4081 10.2329 13.9401L9.00293 12.7101L4.85693 16.8561C4.81049 16.9026 4.75508 16.9393 4.69434 16.9645C4.63359 16.9897 4.5687 17.0026 4.50293 17.0026C4.43716 17.0026 4.37178 16.9897 4.31104 16.9645C4.25029 16.9393 4.19537 16.9026 4.14893 16.8561C4.10236 16.8096 4.06525 16.7542 4.04004 16.6935C4.01483 16.6327 4.00195 16.5678 4.00195 16.5021C4.00195 16.4363 4.01483 16.3709 4.04004 16.3102C4.06525 16.2494 4.10236 16.1945 4.14893 16.1481L8.29492 12.0021L4.14893 7.85608C4.1025 7.80959 4.06563 7.7542 4.04053 7.69348C4.01543 7.63277 4.00239 7.56777 4.00244 7.50208C4.00249 7.43638 4.01534 7.37135 4.04053 7.31067C4.06571 7.24999 4.10293 7.19498 4.14941 7.14856C4.1959 7.10214 4.25081 7.06526 4.31152 7.04016C4.37224 7.01506 4.43723 7.00203 4.50293 7.00208C4.56863 7.00212 4.63366 7.01498 4.69434 7.04016C4.75501 7.06535 4.81051 7.10256 4.85693 7.14905L9.33691 11.63L9.35791 11.649L9.37793 11.671L10.9409 13.234C11.2231 13.5132 11.6035 13.6696 12.0005 13.6696C12.3974 13.6696 12.7784 13.5132 13.0605 13.234L19.1499 7.14905C19.2449 7.06174 19.37 7.01445 19.499 7.01721C19.628 7.01998 19.7506 7.0724 19.8418 7.1637C19.933 7.25499 19.9852 7.37796 19.9878 7.50696C19.9904 7.63596 19.9434 7.76121 19.856 7.85608L15.7075 12.0011L19.856 16.149C19.9025 16.1955 19.9391 16.2504 19.9644 16.3112C19.9896 16.3719 20.0024 16.4373 20.0024 16.5031C20.0024 16.5688 19.9896 16.6337 19.9644 16.6945C19.9391 16.7552 19.9025 16.8106 19.856 16.8571C19.8101 16.9039 19.7553 16.9407 19.6948 16.9659C19.6344 16.9912 19.5694 17.0044 19.5039 17.004C19.438 17.0047 19.3726 16.9921 19.3115 16.9674C19.2504 16.9427 19.1949 16.9063 19.1479 16.86L19.1499 16.8561Z" fill="white"/>
</svg>
