<svg width="24" height="25" viewBox="0 0 24 25" fill="none" xmlns="http://www.w3.org/2000/svg">
<path d="M9 22.505C8.86739 22.505 8.74025 22.4523 8.64648 22.3585C8.55272 22.2648 8.5 22.1376 8.5 22.005C8.5 21.8724 8.55272 21.7453 8.64648 21.6515C8.74025 21.5577 8.86739 21.505 9 21.505H11.5V18.4889C9.60222 18.3597 7.82418 17.5154 6.5249 16.1261C5.22563 14.7368 4.50194 12.9062 4.5 11.004V9.00403C4.5 8.87142 4.55272 8.74428 4.64648 8.65051C4.74025 8.55674 4.86739 8.50403 5 8.50403C5.13261 8.50403 5.26024 8.55674 5.354 8.65051C5.44777 8.74428 5.5 8.87142 5.5 9.00403V11.004C5.5 12.7279 6.18482 14.3812 7.40381 15.6002C8.6228 16.8192 10.2761 17.504 12 17.504C13.7239 17.504 15.3772 16.8192 16.5962 15.6002C17.8152 14.3812 18.5 12.7279 18.5 11.004V9.00403C18.5 8.87142 18.5527 8.74428 18.6465 8.65051C18.7403 8.55674 18.8674 8.50403 19 8.50403C19.1326 8.50403 19.2602 8.55674 19.354 8.65051C19.4478 8.74428 19.5 8.87142 19.5 9.00403V11.004C19.4976 12.9061 18.7738 14.7364 17.4746 16.1256C16.1754 17.5148 14.3976 18.3593 12.5 18.4889V21.505H15C15.1326 21.505 15.2602 21.5577 15.354 21.6515C15.4478 21.7453 15.5 21.8724 15.5 22.005C15.5 22.1376 15.4478 22.2648 15.354 22.3585C15.2602 22.4523 15.1326 22.505 15 22.505H9ZM7.5 11.005V6.005C7.5 4.81153 7.97445 3.66679 8.81836 2.82288C9.66227 1.97896 10.8065 1.505 12 1.505C13.1935 1.505 14.3382 1.97896 15.1821 2.82288C16.026 3.66679 16.5 4.81153 16.5 6.005V11.005C16.5 12.1985 16.026 13.3427 15.1821 14.1866C14.3382 15.0306 13.1935 15.505 12 15.505C10.8065 15.505 9.66227 15.0306 8.81836 14.1866C7.97445 13.3427 7.5 12.1985 7.5 11.005V11.005ZM8.5 6.005V11.005C8.5 11.9333 8.86901 12.8232 9.52539 13.4796C10.1818 14.136 11.0717 14.505 12 14.505C12.9283 14.505 13.8187 14.136 14.4751 13.4796C15.1315 12.8232 15.5 11.9333 15.5 11.005V6.005C15.5 5.07675 15.1315 4.18628 14.4751 3.52991C13.8187 2.87353 12.9283 2.505 12 2.505C11.0717 2.505 10.1818 2.87353 9.52539 3.52991C8.86901 4.18628 8.5 5.07675 8.5 6.005V6.005Z" fill="white"/>
</svg>
