<svg width="17" height="22" viewBox="0 0 17 22" fill="none" xmlns="http://www.w3.org/2000/svg">
<path d="M14.5925 0.0102441L4.5925 0.000244141C3.4925 0.000244141 2.5925 0.900244 2.5925 2.00024V5.00024C2.5925 5.55024 3.0425 6.00024 3.5925 6.00024C4.1425 6.00024 4.5925 5.55024 4.5925 5.00024V3.00024C4.5925 2.44796 5.04022 2.00024 5.5925 2.00024H13.5925C14.1448 2.00024 14.5925 2.44796 14.5925 3.00024V19.0002C14.5925 19.5525 14.1448 20.0002 13.5925 20.0002H5.5925C5.04022 20.0002 4.5925 19.5525 4.5925 19.0002V17.0002C4.5925 16.4502 4.1425 16.0002 3.5925 16.0002C3.0425 16.0002 2.5925 16.4502 2.5925 17.0002V20.0002C2.5925 21.1002 3.4925 22.0002 4.5925 22.0002H14.5925C15.6925 22.0002 16.5925 21.1002 16.5925 20.0002V2.00024C16.5925 0.900244 15.6925 0.0102441 14.5925 0.0102441ZM7.5925 14.0002C8.1425 14.0002 8.5925 13.5502 8.5925 13.0002V8.00024C8.5925 7.45024 8.1425 7.00024 7.5925 7.00024H2.5925C2.0425 7.00024 1.5925 7.45024 1.5925 8.00024C1.5925 8.55024 2.0425 9.00024 2.5925 9.00024H5.1825L0.2925 13.8902C-0.0975 14.2802 -0.0975 14.9102 0.2925 15.3002C0.6825 15.6902 1.3125 15.6902 1.7025 15.3002L6.5925 10.4102V13.0002C6.5925 13.5502 7.0425 14.0002 7.5925 14.0002Z" fill="white"/>
</svg>
