<svg width="24" height="25" viewBox="0 0 24 25" fill="none" xmlns="http://www.w3.org/2000/svg">
<path d="M1.5 12.0051C1.5 9.92836 2.11626 7.89829 3.27002 6.17157C4.42377 4.44485 6.06331 3.0991 7.98193 2.30438C9.90056 1.50966 12.012 1.30158 14.0488 1.70673C16.0856 2.11187 17.9564 3.11181 19.4248 4.58026C20.8933 6.04871 21.8932 7.91993 22.2983 9.95673C22.7035 11.9935 22.4959 14.1045 21.7012 16.0231C20.9065 17.9418 19.5602 19.5818 17.8335 20.7355C16.1068 21.8893 14.0767 22.5051 12 22.5051C9.21612 22.5022 6.54711 21.395 4.57861 19.4265C2.61011 17.458 1.50291 14.7889 1.5 12.0051V12.0051ZM2.5 12.0051C2.5 13.884 3.0572 15.7206 4.10107 17.2829C5.14495 18.8452 6.62885 20.0629 8.36475 20.7819C10.1006 21.501 12.0107 21.689 13.8535 21.3224C15.6963 20.9559 17.3892 20.0509 18.7178 18.7224C20.0464 17.3938 20.9513 15.7009 21.3179 13.8581C21.6844 12.0153 21.4959 10.1052 20.7769 8.36932C20.0578 6.63343 18.8406 5.15001 17.2783 4.10614C15.7161 3.06227 13.8789 2.50507 12 2.50507C9.48151 2.50824 7.06737 3.51026 5.28662 5.2912C3.50587 7.07214 2.50438 9.48658 2.50146 12.0051H2.5ZM9.08105 19.111L8.08105 16.465C8.04221 16.3611 8.03932 16.2472 8.07227 16.1413C8.10521 16.0354 8.17226 15.9436 8.26318 15.8801C8.30443 15.8509 8.35023 15.8284 8.39844 15.8132L11.0181 14.821C11.1422 14.774 11.2799 14.7781 11.4009 14.8327C11.5218 14.8873 11.6161 14.9879 11.6631 15.112C11.71 15.2361 11.7059 15.3739 11.6514 15.4948C11.5968 15.6158 11.4962 15.7101 11.3721 15.757L9.63916 16.4118C10.3974 16.8155 11.2466 17.0187 12.1055 17.0012C12.9643 16.9837 13.8043 16.7465 14.5454 16.3122C14.602 16.2787 14.6644 16.2565 14.7295 16.2473C14.7946 16.238 14.8611 16.2417 14.9248 16.258C14.9885 16.2743 15.0485 16.303 15.1011 16.3425C15.1537 16.3819 15.198 16.4314 15.2314 16.488C15.2649 16.5446 15.2866 16.6074 15.2959 16.6725C15.3052 16.7377 15.3015 16.8037 15.2852 16.8674C15.2688 16.9311 15.2402 16.991 15.2007 17.0436C15.1612 17.0962 15.1118 17.1405 15.0552 17.174C14.2253 17.6611 13.2909 17.9426 12.3301 17.9948C11.3693 18.047 10.41 17.8681 9.53223 17.4738L10.0181 18.7609C10.0648 18.8848 10.0607 19.022 10.0063 19.1428C9.95198 19.2635 9.85178 19.3579 9.72803 19.405C9.67176 19.4262 9.6124 19.4376 9.55225 19.4382C9.45008 19.4385 9.35014 19.4074 9.26611 19.3493C9.18208 19.2912 9.11779 19.2087 9.08203 19.113L9.08105 19.111ZM16.1885 15.5988C16.1347 15.5606 16.0887 15.5122 16.0537 15.4562C16.0188 15.4003 15.9952 15.3382 15.9844 15.2731C15.9736 15.2081 15.9762 15.1415 15.9912 15.0773C16.0063 15.0131 16.0337 14.9526 16.0723 14.8991C16.1952 14.7283 16.3068 14.5494 16.4062 14.364C16.4353 14.3027 16.4764 14.2482 16.5273 14.2033C16.5782 14.1585 16.6377 14.1243 16.7021 14.1032C16.7666 14.0821 16.8348 14.0742 16.9023 14.0803C16.9699 14.0863 17.0355 14.1057 17.0952 14.1379C17.1549 14.1701 17.2074 14.2141 17.2495 14.2673C17.2917 14.3204 17.3231 14.382 17.3408 14.4474C17.3586 14.5129 17.3625 14.581 17.353 14.6481C17.3435 14.7153 17.3204 14.7801 17.2852 14.8381C17.1658 15.0611 17.0323 15.2763 16.8853 15.4821C16.839 15.5467 16.7781 15.5991 16.7075 15.6354C16.6369 15.6718 16.5584 15.691 16.479 15.6911C16.376 15.6935 16.2753 15.6635 16.1904 15.6052L16.1885 15.5988ZM6.83545 15.0578C6.70728 14.8403 6.59217 14.6154 6.49121 14.384C6.44289 14.2633 6.44339 14.1287 6.49268 14.0085C6.54197 13.8882 6.63628 13.7919 6.75537 13.7399C6.87446 13.6879 7.00916 13.6841 7.13086 13.7297C7.25255 13.7752 7.35159 13.8666 7.40723 13.9841C7.49187 14.1777 7.58813 14.366 7.69531 14.548C7.72899 14.6045 7.75126 14.6671 7.76074 14.7321C7.77022 14.7972 7.76665 14.8632 7.75049 14.9269C7.73433 14.9907 7.70584 15.0505 7.6665 15.1032C7.62717 15.1559 7.57751 15.2005 7.521 15.2341C7.44322 15.2792 7.35505 15.3028 7.26514 15.3029C7.17882 15.303 7.09422 15.2809 7.01904 15.2385C6.94387 15.1961 6.88096 15.1347 6.83643 15.0607L6.83545 15.0578ZM17.4521 13.237C17.4322 13.239 17.412 13.239 17.3921 13.237C17.3581 13.2327 17.3245 13.2251 17.292 13.2141C17.2277 13.1931 17.1686 13.159 17.1182 13.114L14.9185 11.3879C14.8627 11.3489 14.8155 11.2992 14.7798 11.2414C14.744 11.1836 14.7204 11.1187 14.7104 11.0515C14.7005 10.9842 14.7042 10.9155 14.7217 10.8498C14.7391 10.7841 14.77 10.7226 14.812 10.6691C14.854 10.6157 14.9061 10.5717 14.9658 10.5392C15.0256 10.5068 15.0915 10.4864 15.1592 10.4802C15.2269 10.474 15.2952 10.482 15.3599 10.5031C15.4245 10.5242 15.4841 10.5583 15.5352 10.6032L16.9893 11.7429C16.9414 10.8859 16.6747 10.0555 16.2148 9.33075C15.755 8.60602 15.1173 8.01148 14.3623 7.60321C14.2469 7.5397 14.1614 7.43312 14.124 7.30682C14.0867 7.18053 14.1003 7.04444 14.1626 6.92841C14.2249 6.81237 14.3306 6.72585 14.4565 6.6872C14.5824 6.64854 14.7188 6.66079 14.8354 6.72186C15.6824 7.17983 16.4069 7.83397 16.9492 8.62958C17.4915 9.42518 17.8355 10.3394 17.9521 11.2951L18.8042 10.2101C18.8447 10.1584 18.8949 10.115 18.9521 10.0827C19.0094 10.0504 19.0725 10.0296 19.1377 10.0217C19.2029 10.0137 19.2692 10.0187 19.3325 10.0363C19.3958 10.0539 19.4551 10.0842 19.5068 10.1247C19.5586 10.1652 19.6015 10.2154 19.6338 10.2726C19.6661 10.3299 19.6869 10.393 19.6948 10.4582C19.7028 10.5234 19.6978 10.5892 19.6802 10.6525C19.6625 10.7158 19.6328 10.7751 19.5923 10.8268L17.8452 13.0529C17.8006 13.1095 17.7444 13.1559 17.6802 13.1887C17.616 13.2215 17.5452 13.2399 17.4731 13.2429H17.4521V13.237ZM6.50537 12.737C6.37632 12.7371 6.25188 12.6871 6.15869 12.5978C6.0655 12.5086 6.01079 12.3869 6.00537 12.258C5.9673 11.2967 6.1597 10.3403 6.56641 9.46845C6.97311 8.59659 7.58222 7.83432 8.34326 7.24579L6.979 7.06903C6.91387 7.06056 6.85137 7.03928 6.79443 7.00653C6.7375 6.97378 6.68753 6.93016 6.64746 6.87811C6.60739 6.82607 6.57814 6.76673 6.56104 6.70331C6.54393 6.63989 6.53938 6.57362 6.54785 6.50848C6.55632 6.44335 6.5776 6.38036 6.61035 6.32343C6.6431 6.26649 6.68672 6.21652 6.73877 6.17645C6.79082 6.13638 6.85016 6.10713 6.91357 6.09003C6.97699 6.07293 7.04326 6.06837 7.1084 6.07684L9.8623 6.43817C9.93741 6.44029 10.0109 6.45933 10.0776 6.49384C10.1444 6.52834 10.2024 6.57734 10.2476 6.63739C10.2927 6.69744 10.3238 6.76681 10.3384 6.84052C10.353 6.91422 10.3508 6.99043 10.332 7.06317L9.97119 9.80292C9.9557 9.92295 9.8973 10.0333 9.80664 10.1135C9.71598 10.1936 9.59905 10.2383 9.47803 10.239C9.45573 10.2406 9.43343 10.2406 9.41113 10.239C9.3459 10.2306 9.28311 10.2092 9.22607 10.1765C9.16903 10.1437 9.11874 10.1001 9.07861 10.048C9.03848 9.99592 9.00928 9.93626 8.99219 9.87274C8.9751 9.80923 8.97044 9.74313 8.979 9.67792L9.21924 7.84882C8.50764 8.32737 7.93039 8.98026 7.54297 9.7453C7.15555 10.5103 6.97099 11.3621 7.00635 12.2189C7.0093 12.2847 6.99906 12.3504 6.97656 12.4123C6.95407 12.4742 6.9195 12.5308 6.875 12.5793C6.8305 12.6278 6.77699 12.6673 6.71729 12.695C6.65758 12.7227 6.59311 12.7382 6.52734 12.7409L6.50537 12.737ZM12.4204 7.01776C12.2092 7.00029 11.9969 6.99563 11.7852 7.00311C11.7191 7.00876 11.6526 7.00044 11.5898 6.97919C11.5271 6.95794 11.4694 6.92418 11.4204 6.87958C11.3714 6.83498 11.3322 6.7804 11.3052 6.71991C11.2781 6.65942 11.2638 6.59428 11.2632 6.52802C11.2572 6.39587 11.304 6.26648 11.3931 6.16864C11.4821 6.0708 11.6062 6.01252 11.7383 6.00604C11.9944 5.99364 12.2511 5.99941 12.5063 6.02313C12.572 6.02589 12.6362 6.04136 12.6958 6.06903C12.7554 6.09671 12.809 6.13589 12.8535 6.18427C12.898 6.23264 12.9325 6.28954 12.9551 6.35126C12.9777 6.41298 12.9881 6.47847 12.9854 6.54413C12.9826 6.60979 12.9666 6.67397 12.939 6.73358C12.9113 6.79319 12.8721 6.84682 12.8237 6.8913C12.7754 6.93578 12.7189 6.97028 12.6572 6.99286C12.5955 7.01544 12.53 7.02589 12.4644 7.02313L12.4204 7.01776Z" fill="white"/>
</svg>
