<svg width="24" height="25" viewBox="0 0 24 25" fill="none" xmlns="http://www.w3.org/2000/svg">
<path d="M1.49805 12.0051C1.49805 9.92836 2.11431 7.89829 3.26807 6.17157C4.42182 4.44485 6.06136 3.0991 7.97998 2.30438C9.8986 1.50966 12.0101 1.30158 14.0469 1.70673C16.0837 2.11187 17.9544 3.11181 19.4229 4.58026C20.8913 6.04871 21.8912 7.91993 22.2964 9.95673C22.7015 11.9935 22.4939 14.1045 21.6992 16.0231C20.9045 17.9418 19.5583 19.5818 17.8315 20.7355C16.1048 21.8893 14.0748 22.5051 11.998 22.5051C9.21425 22.5019 6.54559 21.3944 4.57715 19.426C2.6087 17.4575 1.50122 14.7889 1.49805 12.0051ZM2.49805 12.0051C2.49805 13.884 3.05525 15.7206 4.09912 17.2829C5.14299 18.8452 6.62689 20.0629 8.36279 20.7819C10.0987 21.501 12.0087 21.689 13.8516 21.3224C15.6944 20.9559 17.3872 20.0509 18.7158 18.7224C20.0444 17.3938 20.9494 15.7009 21.3159 13.8581C21.6825 12.0153 21.4939 10.1052 20.7749 8.36932C20.0559 6.63343 18.8386 5.15001 17.2764 4.10614C15.7141 3.06227 13.877 2.50507 11.998 2.50507C9.47964 2.50851 7.06585 3.51032 5.28516 5.2912C3.50446 7.07208 2.50269 9.48666 2.49951 12.0051H2.49805ZM10.644 15.3591C10.5503 15.2653 10.498 15.1381 10.498 15.0056C10.498 14.873 10.5503 14.7458 10.644 14.652L13.29 12.006L10.644 9.36005C10.5502 9.26616 10.4976 9.13882 10.4976 9.00604C10.4976 8.87327 10.5502 8.74593 10.644 8.65204C10.7379 8.55815 10.8653 8.50555 10.998 8.50555C11.1308 8.50555 11.2582 8.55815 11.3521 8.65204L14.3521 11.652C14.3986 11.6985 14.4357 11.7534 14.4609 11.8141C14.4861 11.8749 14.499 11.9403 14.499 12.006C14.499 12.0718 14.4861 12.1367 14.4609 12.1974C14.4357 12.2582 14.3986 12.3136 14.3521 12.36L11.3521 15.36C11.3056 15.4066 11.2507 15.4432 11.1899 15.4684C11.1292 15.4937 11.0638 15.507 10.998 15.507C10.9323 15.507 10.8674 15.4937 10.8066 15.4684C10.7459 15.4432 10.6905 15.4066 10.644 15.36V15.3591Z" fill="white"/>
</svg>
