<svg width="77" height="59" viewBox="0 0 77 59" fill="none" xmlns="http://www.w3.org/2000/svg">
<path fill-rule="evenodd" clip-rule="evenodd" d="M9.02783 27.9597V51C9.02783 55.4183 12.6096 59 17.0278 59H68.0278C72.4461 59 76.0278 55.4183 76.0278 51V21C76.0278 16.5817 72.4461 13 68.0278 13H27.6683C27.3848 13.8017 27.4528 14.6954 27.8721 15.4529L28.5906 16.7509C29.4323 18.2714 28.81 20.1867 27.2354 20.922L25.8911 21.5498C24.9549 21.987 24.3096 22.8752 24.1831 23.9007L24.0014 25.3731C23.7887 27.0979 22.1594 28.2816 20.4533 27.951L18.9968 27.6688C17.9824 27.4722 16.9383 27.8115 16.2332 28.5667L15.2207 29.6512C14.0348 30.9215 12.0209 30.9215 10.835 29.6512L9.82252 28.5667C9.59007 28.3177 9.32077 28.114 9.02783 27.9597ZM18.0275 37C18.0275 35.8954 18.9229 35 20.0275 35H28.0275C29.132 35 30.0275 35.8954 30.0275 37V42C30.0275 43.1046 29.132 44 28.0275 44H20.0275C18.9229 44 18.0275 43.1046 18.0275 42V37ZM61.7778 41H53.2778C50.3783 41 48.0278 43.3505 48.0278 46.25C48.0278 47.2165 48.8113 48 49.7778 48H65.2778C66.2443 48 67.0278 47.2165 67.0278 46.25C67.0278 43.3505 64.6773 41 61.7778 41ZM53.028 30.5C53.028 28.0147 55.0427 26 57.528 26C60.0132 26 62.028 28.0147 62.028 30.5V31.5C62.028 33.9853 60.0132 36 57.528 36C55.0427 36 53.028 33.9853 53.028 31.5V30.5Z" fill="#D6D6D6"/>
<path fill-rule="evenodd" clip-rule="evenodd" d="M14.4899 1.56588C13.6993 0.719007 12.3567 0.719006 11.5661 1.56588L10.4091 2.80521C9.939 3.30871 9.24291 3.53488 8.56667 3.40384L6.90215 3.08129C5.76473 2.86088 4.67858 3.65002 4.53672 4.79988L4.32912 6.48261C4.24477 7.16624 3.81457 7.75837 3.19046 8.04984L1.65424 8.76727C0.604491 9.25752 0.18962 10.5344 0.750722 11.548L1.57185 13.0314C1.90545 13.634 1.90545 14.3659 1.57185 14.9686L0.750723 16.452C0.18962 17.4656 0.60449 18.7425 1.65424 19.2327L3.19045 19.9501C3.81457 20.2416 4.24477 20.8337 4.32912 21.5174L4.53672 23.2001C4.67858 24.35 5.76473 25.1391 6.90215 24.9187L8.56667 24.5961C9.24292 24.4651 9.939 24.6913 10.4091 25.1948L11.5661 26.4341C12.3567 27.281 13.6993 27.281 14.4899 26.4341L15.647 25.1948C16.117 24.6913 16.8131 24.4651 17.4894 24.5961L19.1539 24.9187C20.2913 25.1391 21.3775 24.35 21.5193 23.2001L21.7269 21.5174C21.8113 20.8337 22.2415 20.2416 22.8656 19.9501L24.4018 19.2327C25.4516 18.7425 25.8664 17.4656 25.3053 16.452L24.4842 14.9686C24.1506 14.3659 24.1506 13.634 24.4842 13.0314L25.3053 11.548C25.8664 10.5344 25.4516 9.25752 24.4018 8.76728L22.8656 8.04984C22.2415 7.75837 21.8113 7.16624 21.7269 6.4826L21.5193 4.79988C21.3775 3.65002 20.2913 2.86089 19.1539 3.08129L17.4894 3.40384C16.8131 3.53488 16.117 3.30871 15.647 2.80521L14.4899 1.56588ZM10.0278 12.5C9.1994 12.5 8.52782 13.1716 8.52782 14C8.52782 14.8284 9.1994 15.5 10.0278 15.5H16.0278C16.8563 15.5 17.5278 14.8284 17.5278 14C17.5278 13.1716 16.8563 12.5 16.0278 12.5H10.0278Z" fill="#E54660"/>
</svg>
