<svg width="24" height="25" viewBox="0 0 24 25" fill="none" xmlns="http://www.w3.org/2000/svg">
<path d="M1.49805 12.0051C1.49805 9.92836 2.11431 7.89829 3.26807 6.17157C4.42182 4.44485 6.06136 3.0991 7.97998 2.30438C9.8986 1.50966 12.0101 1.30158 14.0469 1.70673C16.0837 2.11187 17.9544 3.11181 19.4229 4.58026C20.8913 6.04871 21.8912 7.91993 22.2964 9.95673C22.7015 11.9935 22.4939 14.1045 21.6992 16.0231C20.9045 17.9418 19.5583 19.5818 17.8315 20.7355C16.1048 21.8893 14.0748 22.5051 11.998 22.5051C9.21425 22.5019 6.54559 21.3944 4.57715 19.426C2.6087 17.4575 1.50122 14.7889 1.49805 12.0051ZM2.49805 12.0051C2.49805 13.884 3.05525 15.7206 4.09912 17.2829C5.14299 18.8452 6.62689 20.0629 8.36279 20.7819C10.0987 21.501 12.0087 21.689 13.8516 21.3224C15.6944 20.9559 17.3872 20.0509 18.7158 18.7224C20.0444 17.3938 20.9494 15.7009 21.3159 13.8581C21.6825 12.0153 21.4939 10.1052 20.7749 8.36932C20.0559 6.63343 18.8386 5.15001 17.2764 4.10614C15.7141 3.06227 13.877 2.50507 11.998 2.50507C9.47964 2.50851 7.06585 3.51032 5.28516 5.2912C3.50446 7.07208 2.50269 9.48666 2.49951 12.0051H2.49805ZM14.1455 14.8581C14.0989 14.8116 14.0618 14.7562 14.0366 14.6955C14.0114 14.6348 13.9985 14.5699 13.9985 14.5041C13.9985 14.4383 14.0114 14.3729 14.0366 14.3122C14.0618 14.2514 14.0989 14.1965 14.1455 14.1501L15.79 12.5051H6.99805C6.86544 12.5051 6.7383 12.4523 6.64453 12.3586C6.55076 12.2648 6.49805 12.1377 6.49805 12.0051C6.49805 11.8725 6.55076 11.7453 6.64453 11.6516C6.7383 11.5578 6.86544 11.5051 6.99805 11.5051H15.7925L14.1455 9.85809C14.099 9.81167 14.0618 9.75666 14.0366 9.69598C14.0114 9.63531 13.9986 9.56979 13.9985 9.50409C13.9985 9.43839 14.0115 9.3734 14.0366 9.31268C14.0617 9.25197 14.0986 9.19706 14.145 9.15057C14.1914 9.10409 14.2465 9.06687 14.3071 9.04169C14.3678 9.0165 14.4328 9.00365 14.4985 9.0036C14.5642 9.00356 14.6292 9.01659 14.6899 9.04169C14.7507 9.06679 14.8056 9.10366 14.8521 9.15009L17.3521 11.6501C17.3986 11.6965 17.4357 11.7514 17.4609 11.8122C17.4861 11.8729 17.499 11.9383 17.499 12.0041C17.499 12.0699 17.4861 12.1348 17.4609 12.1955C17.4357 12.2562 17.3986 12.3116 17.3521 12.3581L14.8521 14.8581C14.8055 14.9048 14.7504 14.9418 14.6895 14.967C14.6285 14.9922 14.563 15.0052 14.4971 15.0051C14.4319 15.0054 14.3674 14.9924 14.3071 14.9675C14.2469 14.9426 14.1925 14.9063 14.1465 14.86L14.1455 14.8581Z" fill="white"/>
</svg>
