<svg width="16" height="16" viewBox="0 0 16 16" fill="none" xmlns="http://www.w3.org/2000/svg">
<path d="M8 16C12.4183 16 16 12.4183 16 8C16 3.58172 12.4183 0 8 0C3.58172 0 0 3.58172 0 8C0 12.4183 3.58172 16 8 16Z" fill="#F58122"/>
<path d="M8.19141 9.67796C7.99249 9.67796 7.80173 9.59893 7.66108 9.45828C7.52043 9.31763 7.44141 9.12687 7.44141 8.92796V4.00195C7.44141 3.80304 7.52043 3.61228 7.66108 3.47163C7.80173 3.33097 7.99249 3.25195 8.19141 3.25195C8.39032 3.25195 8.58109 3.33097 8.72174 3.47163C8.86239 3.61228 8.94141 3.80304 8.94141 4.00195V8.92796C8.94141 9.12687 8.86239 9.31763 8.72174 9.45828C8.58109 9.59893 8.39032 9.67796 8.19141 9.67796Z" fill="black"/>
<path d="M8.19141 13.0882C7.99249 13.0882 7.80173 13.0091 7.66108 12.8685C7.52043 12.7278 7.44141 12.5371 7.44141 12.3382C7.44113 12.1382 7.51974 11.9463 7.66017 11.804C7.8006 11.6617 7.9915 11.5805 8.19141 11.5782C8.2894 11.5772 8.38661 11.5957 8.47743 11.6325C8.56826 11.6693 8.6509 11.7237 8.72061 11.7926C8.79032 11.8615 8.84572 11.9434 8.88361 12.0338C8.92151 12.1242 8.94115 12.2212 8.94141 12.3192V12.3402C8.94088 12.5387 8.86163 12.729 8.72103 12.8692C8.58044 13.0094 8.38997 13.0882 8.19141 13.0882Z" fill="black"/>
</svg>
