<svg width="24" height="25" viewBox="0 0 24 25" fill="none" xmlns="http://www.w3.org/2000/svg">
<path d="M14.646 22.3605C14.5994 22.314 14.5623 22.2586 14.5371 22.1979C14.5119 22.1371 14.499 22.0722 14.499 22.0065C14.499 21.9407 14.5119 21.8753 14.5371 21.8146C14.5623 21.7538 14.5994 21.6989 14.646 21.6525L16.792 19.5065H4C3.33696 19.5065 2.70077 19.2429 2.23193 18.774C1.76309 18.3052 1.5 17.6695 1.5 17.0065V9.00647C1.5 8.34343 1.76309 7.70725 2.23193 7.2384C2.70077 6.76956 3.33696 6.50647 4 6.50647C4.13261 6.50647 4.25975 6.55919 4.35352 6.65296C4.44728 6.74672 4.5 6.87386 4.5 7.00647C4.5 7.13908 4.44728 7.26622 4.35352 7.35999C4.25975 7.45375 4.13261 7.50647 4 7.50647C3.60218 7.50647 3.22027 7.66462 2.93896 7.94592C2.65766 8.22723 2.5 8.60865 2.5 9.00647V17.0065C2.5 17.4043 2.65766 17.7857 2.93896 18.067C3.22027 18.3483 3.60218 18.5065 4 18.5065H16.7886L14.6406 16.3585C14.5467 16.2646 14.4941 16.1373 14.4941 16.0045C14.4941 15.8717 14.5467 15.7444 14.6406 15.6505C14.7345 15.5566 14.8619 15.5035 14.9946 15.5035C15.1274 15.5035 15.2547 15.5566 15.3486 15.6505L18.2036 18.5055H19.9956C20.3934 18.5055 20.7753 18.3473 21.0566 18.066C21.3379 17.7847 21.4956 17.4033 21.4956 17.0055V9.00549C21.4956 8.60767 21.3379 8.22625 21.0566 7.94495C20.7753 7.66364 20.3934 7.50549 19.9956 7.50549C19.863 7.50549 19.7359 7.45278 19.6421 7.35901C19.5483 7.26524 19.4956 7.1381 19.4956 7.00549C19.4956 6.87289 19.5483 6.74575 19.6421 6.65198C19.7359 6.55821 19.863 6.50549 19.9956 6.50549C20.6586 6.50549 21.2948 6.76859 21.7637 7.23743C22.2325 7.70627 22.4956 8.34245 22.4956 9.00549V17.0055C22.4956 17.6685 22.2325 18.3042 21.7637 18.7731C21.2948 19.2419 20.6586 19.5055 19.9956 19.5055H18.2017L15.3486 22.3595C15.3022 22.4061 15.2473 22.4427 15.1865 22.4679C15.1258 22.4931 15.0604 22.5065 14.9946 22.5065C14.9289 22.5065 14.864 22.4931 14.8032 22.4679C14.7425 22.4427 14.6871 22.4061 14.6406 22.3595L14.646 22.3605ZM11.564 15.3243C11.374 15.0943 6.89795 9.62434 6.89795 6.82434C6.86232 6.13878 6.96666 5.45315 7.20459 4.80921C7.44252 4.16526 7.80891 3.57643 8.28174 3.07874C8.75457 2.58104 9.32368 2.18478 9.95459 1.91419C10.5855 1.64359 11.2652 1.50453 11.9517 1.50501C12.6382 1.50548 13.3172 1.64565 13.9478 1.91712C14.5783 2.18858 15.147 2.58576 15.6191 3.08411C16.0913 3.58246 16.4568 4.17177 16.6938 4.81604C16.9309 5.46031 17.0341 6.14566 16.9976 6.83118C16.9886 9.63918 12.525 15.0972 12.334 15.3312C12.2869 15.3886 12.2273 15.4348 12.1602 15.4664C12.093 15.4981 12.02 15.5145 11.9458 15.5143C11.8721 15.5128 11.7994 15.4949 11.7334 15.462C11.6674 15.4292 11.6097 15.3822 11.564 15.3243ZM7.8999 6.80628C7.8999 8.66728 10.5408 12.4132 11.9478 14.2062C13.3588 12.4062 15.9985 8.66448 15.9985 6.81848V6.80335C16.031 6.25146 15.9506 5.6989 15.7617 5.17932C15.5729 4.65975 15.2797 4.18409 14.9004 3.78186C14.5211 3.37963 14.0637 3.05901 13.5562 2.83997C13.0486 2.62093 12.5016 2.50794 11.9487 2.50794C11.3959 2.50794 10.8489 2.62093 10.3413 2.83997C9.83372 3.05901 9.37633 3.37963 8.99707 3.78186C8.61781 4.18409 8.3246 4.65975 8.13574 5.17932C7.94689 5.6989 7.86646 6.25146 7.89893 6.80335L7.8999 6.80628ZM9.79395 6.97034C9.79375 6.54384 9.91991 6.1268 10.1567 5.7721C10.3936 5.41739 10.73 5.14097 11.124 4.97766C11.518 4.81436 11.9518 4.77146 12.3701 4.85462C12.7884 4.93777 13.1725 5.14337 13.4741 5.44495C13.7757 5.74653 13.9813 6.13064 14.0645 6.54895C14.1476 6.96727 14.1047 7.40105 13.9414 7.79505C13.7781 8.18904 13.5017 8.5255 13.147 8.76233C12.7923 8.99916 12.3752 9.12581 11.9487 9.12561C11.6653 9.12601 11.3845 9.0702 11.1226 8.96204C10.8606 8.85388 10.6225 8.69547 10.4219 8.49524C10.2213 8.29501 10.0623 8.05682 9.95361 7.79505C9.84497 7.53327 9.78871 7.25279 9.78857 6.96936L9.79395 6.97034ZM10.7939 6.97034C10.7937 7.1989 10.8614 7.42231 10.9883 7.61243C11.1152 7.80254 11.2952 7.9507 11.5063 8.03821C11.7175 8.12572 11.9501 8.14874 12.1743 8.10413C12.3985 8.05951 12.6041 7.94941 12.7656 7.78772C12.9272 7.62603 13.0371 7.42013 13.0815 7.19592C13.126 6.97172 13.1028 6.73952 13.0151 6.52844C12.9274 6.31737 12.7791 6.13709 12.5889 6.01038C12.3986 5.88366 12.1753 5.81613 11.9468 5.81653C11.6412 5.81706 11.3483 5.93877 11.1323 6.15491C10.9164 6.37105 10.7952 6.66382 10.7949 6.96936L10.7939 6.97034Z" fill="white"/>
</svg>
