<svg width="24" height="25" viewBox="0 0 24 25" fill="none" xmlns="http://www.w3.org/2000/svg">
<path d="M5.83789 22.505C5.21857 22.5032 4.62524 22.2561 4.1875 21.818C3.74976 21.3799 3.50327 20.7864 3.50195 20.1671V3.83997C3.50275 3.22076 3.74907 2.62733 4.18701 2.18958C4.62495 1.75182 5.21868 1.50553 5.83789 1.505H18.0029C18.666 1.505 19.3017 1.7681 19.7705 2.23694C20.2393 2.70578 20.5029 3.34196 20.5029 4.005V20.1671C20.5021 20.7864 20.256 21.3798 19.8184 21.818C19.3807 22.2562 18.7868 22.5034 18.1675 22.505H5.83789ZM4.50195 3.83997V20.1671C4.50222 20.5215 4.64263 20.8611 4.89307 21.1119C5.1435 21.3627 5.48346 21.5042 5.83789 21.505H18.1636C18.5184 21.505 18.8589 21.3638 19.1099 21.1129C19.3608 20.862 19.502 20.522 19.502 20.1671V4.005C19.502 3.60718 19.3438 3.22576 19.0625 2.94446C18.7812 2.66315 18.3998 2.505 18.002 2.505H5.83691C5.48249 2.50553 5.14242 2.64669 4.89209 2.89758C4.64176 3.14848 4.50169 3.48847 4.50195 3.8429V3.83997ZM9.50195 20.005C9.36934 20.005 9.24172 19.9523 9.14795 19.8585C9.05418 19.7648 9.00195 19.6376 9.00195 19.505C9.00195 19.3724 9.05418 19.2453 9.14795 19.1515C9.24172 19.0577 9.36934 19.005 9.50195 19.005H14.502C14.6346 19.005 14.7617 19.0577 14.8555 19.1515C14.9492 19.2453 15.002 19.3724 15.002 19.505C15.002 19.6376 14.9492 19.7648 14.8555 19.8585C14.7617 19.9523 14.6346 20.005 14.502 20.005H9.50195ZM10.502 18.005C10.3693 18.005 10.2417 17.9523 10.1479 17.8585C10.0542 17.7648 10.002 17.6376 10.002 17.505C10.002 17.3724 10.0542 17.2453 10.1479 17.1515C10.2417 17.0577 10.3693 17.005 10.502 17.005H13.502C13.6346 17.005 13.7617 17.0577 13.8555 17.1515C13.9492 17.2453 14.002 17.3724 14.002 17.505C14.002 17.6376 13.9492 17.7648 13.8555 17.8585C13.7617 17.9523 13.6346 18.005 13.502 18.005H10.502ZM12.002 13.505C11.1119 13.505 10.2415 13.2412 9.50146 12.7467C8.76144 12.2522 8.18483 11.5494 7.84424 10.7272C7.50364 9.90491 7.41475 8.99999 7.58838 8.12708C7.76201 7.25416 8.19049 6.45221 8.81982 5.82288C9.44916 5.19354 10.2511 4.76506 11.124 4.59143C11.9969 4.4178 12.9014 4.5067 13.7236 4.84729C14.5459 5.18788 15.2487 5.76498 15.7432 6.505C16.2376 7.24503 16.502 8.11499 16.502 9.005C16.5004 10.198 16.0257 11.3416 15.1821 12.1852C14.3386 13.0288 13.1949 13.5034 12.002 13.505V13.505ZM12.002 12.505C12.27 12.505 12.8948 11.458 12.9888 9.505H11.0127C11.1067 11.458 11.734 12.505 12.002 12.505ZM13.4536 12.1891C13.9861 11.945 14.449 11.5715 14.8003 11.1027C15.1515 10.6339 15.3802 10.0846 15.4648 9.505H13.9907C13.9659 10.4247 13.7842 11.3334 13.4536 12.192V12.1891ZM10.5537 12.1891C10.2241 11.3313 10.0427 10.4236 10.0176 9.505H8.54053C8.62473 10.0849 8.85273 10.6343 9.20361 11.1036C9.5545 11.5729 10.0174 11.9472 10.5498 12.192L10.5537 12.1891ZM15.4697 8.50403C15.3855 7.92425 15.1574 7.37474 14.8062 6.90588C14.4549 6.43702 13.9913 6.06368 13.4585 5.81995C13.7884 6.67766 13.9698 7.58541 13.9946 8.50403H15.4697ZM12.9937 8.50403C12.8997 6.55203 12.2748 5.50403 12.0068 5.50403C11.7388 5.50403 11.1066 6.55203 11.0176 8.50403H12.9937ZM10.0186 8.50403C10.0434 7.58541 10.2248 6.67766 10.5547 5.81995C10.0218 6.06379 9.55864 6.43707 9.20703 6.90588C8.85542 7.37469 8.62639 7.9242 8.5415 8.50403H10.0186Z" fill="white"/>
</svg>
