<svg width="24" height="25" viewBox="0 0 24 25" fill="none" xmlns="http://www.w3.org/2000/svg">
<path d="M6.00003 22.5043C5.89509 22.5043 5.79281 22.4713 5.70767 22.4099C5.62254 22.3486 5.55885 22.2619 5.52567 22.1624C5.49248 22.0628 5.49145 21.9554 5.52274 21.8553C5.55403 21.7551 5.61603 21.6672 5.69998 21.6043L16.933 13.0174C17.084 12.9241 17.2127 12.7987 17.31 12.6503C17.4817 12.3864 17.5417 12.0652 17.4771 11.7571C17.4124 11.449 17.2283 11.179 16.965 11.0064L5.69998 2.39932C5.64745 2.35946 5.60332 2.30964 5.57004 2.25271C5.53676 2.19579 5.51503 2.13286 5.50607 2.06753C5.49711 2.00221 5.50107 1.93576 5.51779 1.87198C5.53451 1.80819 5.56363 1.74836 5.60349 1.69583C5.64334 1.6433 5.69317 1.5991 5.75009 1.56583C5.80702 1.53255 5.86995 1.51082 5.93527 1.50186C6.0006 1.4929 6.06705 1.49686 6.13083 1.51358C6.19461 1.5303 6.25445 1.55942 6.30698 1.59927L17.541 10.1853C17.8397 10.3875 18.0838 10.6604 18.2516 10.9796C18.4193 11.2989 18.5056 11.6547 18.5026 12.0154C18.4996 12.3761 18.4075 12.7303 18.2345 13.0468C18.0615 13.3633 17.813 13.6322 17.511 13.8294L6.31101 22.3943C6.22277 22.4651 6.11316 22.5039 6.00003 22.5043V22.5043Z" fill="white"/>
</svg>
