<svg width="24" height="25" viewBox="0 0 24 25" fill="none" xmlns="http://www.w3.org/2000/svg">
<path d="M7.00195 22.5055C6.33891 22.5055 5.70273 22.2419 5.23389 21.7731C4.76505 21.3042 4.50195 20.6685 4.50195 20.0055V5.00549C4.50195 4.60767 4.65961 4.22625 4.94092 3.94495C5.22222 3.66364 5.60413 3.50549 6.00195 3.50549H9.55273C9.66749 2.94035 9.9739 2.43197 10.4204 2.06702C10.8669 1.70207 11.4263 1.50305 12.0029 1.50305C12.5796 1.50305 13.1385 1.70207 13.585 2.06702C14.0315 2.43197 14.3379 2.94035 14.4526 3.50549H18.002C18.3998 3.50549 18.7812 3.66364 19.0625 3.94495C19.3438 4.22625 19.502 4.60767 19.502 5.00549V20.0055C19.502 20.6685 19.2384 21.3042 18.7695 21.7731C18.3007 22.2419 17.665 22.5055 17.002 22.5055H7.00195ZM5.50195 5.00549V20.0055C5.50195 20.4033 5.65961 20.7847 5.94092 21.066C6.22222 21.3473 6.60413 21.5055 7.00195 21.5055H17.002C17.3998 21.5055 17.7812 21.3473 18.0625 21.066C18.3438 20.7847 18.502 20.4033 18.502 20.0055V5.00549C18.502 4.87288 18.4492 4.74575 18.3555 4.65198C18.2617 4.55821 18.1346 4.50549 18.002 4.50549H17.4507C17.3355 5.07001 17.0288 5.57709 16.5825 5.94153C16.1363 6.30596 15.5781 6.50538 15.002 6.50549H9.00195C8.4258 6.50538 7.86715 6.30596 7.4209 5.94153C6.97465 5.57709 6.66797 5.07001 6.55273 4.50549H6.00195C5.93621 4.50536 5.87084 4.51802 5.81006 4.54309C5.74928 4.56816 5.694 4.60505 5.64746 4.65149C5.60093 4.69793 5.56425 4.75287 5.53906 4.8136C5.51387 4.87433 5.50049 4.93975 5.50049 5.00549H5.50195ZM9.00195 5.50549H15.002C15.3121 5.50545 15.6144 5.40919 15.8677 5.2301C16.1209 5.05102 16.3121 4.79791 16.4155 4.50549H14.002C13.8693 4.50549 13.7417 4.45278 13.6479 4.35901C13.5542 4.26524 13.502 4.1381 13.502 4.00549C13.502 3.60767 13.3438 3.22625 13.0625 2.94495C12.7812 2.66364 12.3998 2.50549 12.002 2.50549C11.6041 2.50549 11.2222 2.66364 10.9409 2.94495C10.6596 3.22625 10.502 3.60767 10.502 4.00549C10.502 4.1381 10.4492 4.26524 10.3555 4.35901C10.2617 4.45278 10.1346 4.50549 10.002 4.50549H7.59082C7.69398 4.79727 7.88477 5.0501 8.13721 5.22913C8.38964 5.40816 8.69102 5.50462 9.00049 5.50549H9.00195ZM11.002 16.2775C10.8693 16.2775 10.7417 16.2247 10.6479 16.131C10.5542 16.0372 10.502 15.9101 10.502 15.7775C10.502 15.6449 10.5542 15.5177 10.6479 15.424C10.7417 15.3302 10.8693 15.2775 11.002 15.2775H16.002C16.1346 15.2775 16.2617 15.3302 16.3555 15.424C16.4492 15.5177 16.502 15.6449 16.502 15.7775C16.502 15.9101 16.4492 16.0372 16.3555 16.131C16.2617 16.2247 16.1346 16.2775 16.002 16.2775H11.002ZM8.00195 13.2775C7.86934 13.2775 7.74172 13.2247 7.64795 13.131C7.55418 13.0372 7.50195 12.9101 7.50195 12.7775C7.50195 12.6449 7.55418 12.5177 7.64795 12.424C7.74172 12.3302 7.86934 12.2775 8.00195 12.2775H16.002C16.1346 12.2775 16.2617 12.3302 16.3555 12.424C16.4492 12.5177 16.502 12.6449 16.502 12.7775C16.502 12.9101 16.4492 13.0372 16.3555 13.131C16.2617 13.2247 16.1346 13.2775 16.002 13.2775H8.00195ZM8.00195 10.1774C7.86934 10.1774 7.74172 10.1247 7.64795 10.0309C7.55418 9.93712 7.50195 9.80998 7.50195 9.67737C7.50195 9.54476 7.55418 9.41762 7.64795 9.32385C7.74172 9.23008 7.86934 9.17737 8.00195 9.17737H16.002C16.1346 9.17737 16.2617 9.23008 16.3555 9.32385C16.4492 9.41762 16.502 9.54476 16.502 9.67737C16.502 9.80998 16.4492 9.93712 16.3555 10.0309C16.2617 10.1247 16.1346 10.1774 16.002 10.1774H8.00195Z" fill="white"/>
</svg>
