<svg width="18" height="22" viewBox="0 0 18 22" fill="none" xmlns="http://www.w3.org/2000/svg">
<path d="M12.4001 9.69995C12.4001 11.7399 8.90015 15.9999 8.90015 15.9999C8.90015 15.9999 5.40015 11.7499 5.40015 9.69995C5.37439 9.22386 5.44581 8.74752 5.61011 8.29995C5.78022 7.85524 6.03491 7.44772 6.36011 7.09995C6.68714 6.75499 7.08101 6.48025 7.5177 6.29251C7.9544 6.10476 8.42481 6.00793 8.90015 6.00793C9.37549 6.00793 9.84584 6.10476 10.2825 6.29251C10.7192 6.48025 11.1131 6.75499 11.4401 7.09995C11.7654 7.44769 12.0201 7.85522 12.1901 8.29995C12.3544 8.74752 12.4259 9.22386 12.4001 9.69995V9.69995Z" stroke="white" stroke-linecap="round" stroke-linejoin="round"/>
<path d="M8.89987 10.3199C9.01554 10.3197 9.12754 10.2794 9.21683 10.2059C9.30611 10.1324 9.36712 10.0302 9.3895 9.91668C9.41187 9.8032 9.39426 9.68547 9.33957 9.58355C9.28488 9.48163 9.1965 9.40182 9.08957 9.35772C8.98264 9.31362 8.86378 9.30795 8.75314 9.34169C8.64251 9.37543 8.54695 9.44648 8.48282 9.54274C8.41869 9.639 8.38991 9.75452 8.4014 9.86962C8.41289 9.98471 8.46398 10.0923 8.54587 10.1739C8.59239 10.2203 8.6476 10.2571 8.70834 10.2822C8.76909 10.3072 8.83417 10.3201 8.89987 10.3199V10.3199Z" stroke="white" stroke-linecap="round" stroke-linejoin="round"/>
<path d="M4.5 17L6.5 19L4.5 21" stroke="white" stroke-linecap="round" stroke-linejoin="round"/>
<path d="M14.5 1L12.5 3L14.5 5" stroke="white" stroke-linecap="round" stroke-linejoin="round"/>
<path d="M12.5 19H15C15.5293 18.9963 16.0359 18.7844 16.4102 18.4102C16.7844 18.0359 16.9963 17.5293 17 17V5C16.9963 4.4707 16.7844 3.96412 16.4102 3.58984C16.0359 3.21556 15.5293 3.00367 15 3H12.5" stroke="white" stroke-linecap="round" stroke-linejoin="round"/>
<path d="M5 3H3C2.4707 3.00367 1.96412 3.21556 1.58984 3.58984C1.21556 3.96412 1.00367 4.4707 1 5V17C1.00367 17.5293 1.21556 18.0359 1.58984 18.4102C1.96412 18.7844 2.4707 18.9963 3 19H6.5" stroke="white" stroke-linecap="round" stroke-linejoin="round"/>
</svg>
