<svg width="24" height="25" viewBox="0 0 24 25" fill="none" xmlns="http://www.w3.org/2000/svg">
<path d="M1.49805 12.0051C1.49805 9.92836 2.11431 7.89829 3.26807 6.17157C4.42182 4.44485 6.06136 3.0991 7.97998 2.30438C9.8986 1.50966 12.0101 1.30158 14.0469 1.70673C16.0837 2.11187 17.9544 3.11181 19.4229 4.58026C20.8913 6.04871 21.8912 7.91993 22.2964 9.95673C22.7015 11.9935 22.4939 14.1045 21.6992 16.0231C20.9045 17.9418 19.5583 19.5818 17.8315 20.7355C16.1048 21.8893 14.0748 22.5051 11.998 22.5051C9.21425 22.5019 6.54559 21.3944 4.57715 19.426C2.6087 17.4575 1.50122 14.7889 1.49805 12.0051ZM2.49805 12.0051C2.49805 13.884 3.05525 15.7206 4.09912 17.2829C5.14299 18.8452 6.62689 20.0629 8.36279 20.7819C10.0987 21.501 12.0087 21.689 13.8516 21.3224C15.6944 20.9559 17.3872 20.0509 18.7158 18.7224C20.0444 17.3938 20.9494 15.7009 21.3159 13.8581C21.6825 12.0153 21.4939 10.1052 20.7749 8.36932C20.0559 6.63343 18.8386 5.15001 17.2764 4.10614C15.7141 3.06227 13.877 2.50507 11.998 2.50507C9.47964 2.50851 7.06585 3.51032 5.28516 5.2912C3.50446 7.07208 2.50269 9.48666 2.49951 12.0051H2.49805ZM11.998 16.0051C11.998 15.6095 12.1157 15.2226 12.3354 14.8937C12.5552 14.5648 12.8675 14.3088 13.2329 14.1574C13.5984 14.006 14.0007 13.9665 14.3887 14.0436C14.7766 14.1208 15.1329 14.3108 15.4126 14.5905C15.6923 14.8702 15.8828 15.227 15.96 15.6149C16.0371 16.0029 15.9976 16.4048 15.8462 16.7702C15.6948 17.1357 15.4383 17.4479 15.1094 17.6677C14.7805 17.8874 14.3936 18.0051 13.998 18.0051C13.4676 18.0051 12.9591 17.7942 12.584 17.4191C12.2089 17.0441 11.998 16.5355 11.998 16.0051ZM12.998 16.0051C12.998 16.2028 13.0571 16.3963 13.167 16.5607C13.2769 16.7252 13.433 16.8532 13.6157 16.9289C13.7984 17.0046 13.9994 17.0241 14.1934 16.9855C14.3873 16.9469 14.5657 16.8519 14.7056 16.7121C14.8454 16.5722 14.9404 16.3939 14.979 16.1999C15.0176 16.0059 14.9981 15.805 14.9224 15.6223C14.8467 15.4395 14.7182 15.2834 14.5537 15.1735C14.3893 15.0636 14.1958 15.0051 13.998 15.0051C13.7328 15.0051 13.4786 15.1105 13.291 15.298C13.1035 15.4856 12.998 15.7398 12.998 16.0051ZM9.29248 17.9582C9.23265 17.9311 9.17868 17.8924 9.13379 17.8444C9.08889 17.7965 9.05389 17.7399 9.03076 17.6784C9.00764 17.6169 8.99685 17.5517 8.99902 17.486C9.00119 17.4204 9.01632 17.3559 9.04346 17.2961L14.0435 6.29608C14.0685 6.2332 14.106 6.17605 14.1538 6.12811C14.2016 6.08018 14.2585 6.04252 14.3213 6.01727C14.3841 5.99203 14.4514 5.97961 14.519 5.98114C14.5867 5.98267 14.6532 5.99801 14.7148 6.02606C14.7764 6.05412 14.8319 6.09418 14.8774 6.14423C14.923 6.19427 14.9578 6.25313 14.98 6.31708C15.0022 6.38103 15.0111 6.44878 15.0063 6.5163C15.0016 6.58382 14.9831 6.64997 14.9521 6.71014L9.95215 17.7101C9.9122 17.7975 9.84795 17.8713 9.76709 17.923C9.68623 17.9748 9.59212 18.0024 9.49609 18.0021C9.42459 18.0039 9.35357 17.9899 9.28809 17.9611L9.29248 17.9582ZM7.99951 8.00409C7.99951 7.60853 8.11666 7.22166 8.33643 6.89276C8.55619 6.56386 8.86843 6.30781 9.23389 6.15643C9.59934 6.00506 10.0017 5.96501 10.3896 6.04218C10.7776 6.11935 11.1339 6.30983 11.4136 6.58954C11.6933 6.86924 11.8838 7.22599 11.9609 7.61395C12.0381 8.00192 11.9985 8.40377 11.8472 8.76923C11.6958 9.13468 11.4392 9.44692 11.1104 9.66669C10.7815 9.88645 10.3951 10.0041 9.99951 10.0041C9.46925 10.0041 8.96049 9.7935 8.58545 9.41864C8.21041 9.04378 7.99978 8.53533 7.99951 8.00507V8.00409ZM8.99951 8.00409C8.99951 8.20187 9.05809 8.3953 9.16797 8.55975C9.27785 8.7242 9.43397 8.85223 9.6167 8.92792C9.79943 9.00361 10.0004 9.02314 10.1943 8.98456C10.3883 8.94597 10.5667 8.85097 10.7065 8.71112C10.8464 8.57127 10.9414 8.3929 10.98 8.19891C11.0186 8.00493 10.999 7.804 10.9233 7.62128C10.8477 7.43855 10.7191 7.28243 10.5547 7.17255C10.3902 7.06267 10.1973 7.00409 9.99951 7.00409C9.86802 7.00396 9.73772 7.02952 9.61621 7.07977C9.4947 7.13003 9.38399 7.20408 9.29102 7.29706C9.19804 7.39004 9.12448 7.50026 9.07422 7.62177C9.02396 7.74327 8.99792 7.87358 8.99805 8.00507L8.99951 8.00409Z" fill="white"/>
</svg>
