<svg width="24" height="25" viewBox="0 0 24 25" fill="none" xmlns="http://www.w3.org/2000/svg">
<path d="M1.49805 12.0051C1.49805 9.92836 2.11431 7.89829 3.26807 6.17157C4.42182 4.44485 6.06136 3.0991 7.97998 2.30438C9.8986 1.50966 12.0101 1.30158 14.0469 1.70673C16.0837 2.11187 17.9544 3.11181 19.4229 4.58026C20.8913 6.04871 21.8912 7.91993 22.2964 9.95673C22.7015 11.9935 22.4939 14.1045 21.6992 16.0231C20.9045 17.9418 19.5583 19.5818 17.8315 20.7355C16.1048 21.8893 14.0748 22.5051 11.998 22.5051C9.21425 22.5019 6.54559 21.3944 4.57715 19.426C2.6087 17.4575 1.50122 14.7889 1.49805 12.0051ZM2.49805 12.0051C2.49805 13.884 3.05525 15.7206 4.09912 17.2829C5.14299 18.8452 6.62689 20.0629 8.36279 20.7819C10.0987 21.501 12.0087 21.689 13.8516 21.3224C15.6944 20.9559 17.3872 20.0509 18.7158 18.7224C20.0444 17.3938 20.9494 15.7009 21.3159 13.8581C21.6825 12.0153 21.4939 10.1052 20.7749 8.36932C20.0559 6.63343 18.8386 5.15001 17.2764 4.10614C15.7141 3.06227 13.877 2.50507 11.998 2.50507C9.47964 2.50851 7.06585 3.51032 5.28516 5.2912C3.50446 7.07208 2.50269 9.48666 2.49951 12.0051H2.49805ZM15.2173 18.5051C12.6897 18.3485 10.3067 17.2735 8.5166 15.4821C6.72655 13.6908 5.65276 11.3067 5.49805 8.77899C5.47623 8.48341 5.519 8.18658 5.62256 7.90887C5.72612 7.63117 5.88812 7.37924 6.09814 7.17011L7.1582 6.10712C7.54491 5.72392 8.06741 5.50897 8.61182 5.50897C9.15623 5.50897 9.67872 5.72392 10.0654 6.10712L10.5034 6.54413C10.8853 6.9313 11.0991 7.45292 11.0991 7.99677C11.0991 8.54061 10.8853 9.06272 10.5034 9.44989L10.2534 9.70477C10.092 9.86933 9.98774 10.0814 9.95605 10.3098C9.92437 10.5381 9.96667 10.7705 10.0771 10.9728C10.7354 12.1897 11.7249 13.1951 12.9312 13.8727C13.168 13.9989 13.4394 14.045 13.7046 14.0041C13.9698 13.9632 14.2146 13.8378 14.4023 13.6462L14.5503 13.4992C14.9362 13.1149 15.4588 12.8986 16.0034 12.8986C16.5481 12.8986 17.0702 13.1149 17.4561 13.4992L17.8931 13.9348C18.2762 14.3213 18.4912 14.8436 18.4912 15.3879C18.4912 15.9321 18.2762 16.4545 17.8931 16.841L16.8354 17.8991C16.6438 18.0941 16.4149 18.2484 16.1626 18.3537C15.9103 18.459 15.6396 18.5128 15.3662 18.5119C15.3202 18.5049 15.2693 18.5051 15.2183 18.5051H15.2173ZM7.86328 6.81708L6.8042 7.87616C6.69614 7.98443 6.61288 8.11462 6.55957 8.258C6.50626 8.40137 6.48404 8.55416 6.49512 8.70673C6.63241 10.9948 7.60291 13.1537 9.22314 14.7751C10.8434 16.3964 13.0011 17.3682 15.2891 17.507C15.4431 17.5197 15.5981 17.4977 15.7427 17.4431C15.8873 17.3884 16.0183 17.3025 16.1255 17.1911L17.1865 16.132C17.3824 15.9325 17.4917 15.664 17.4917 15.3845C17.4917 15.1049 17.3824 14.8364 17.1865 14.6369L16.7505 14.2009C16.5516 14.0038 16.2829 13.8932 16.0029 13.8932C15.723 13.8932 15.4542 14.0038 15.2554 14.2009L15.1123 14.3449C14.7706 14.6908 14.326 14.9168 13.8452 14.989C13.3644 15.0611 12.8734 14.9752 12.4453 14.7448C11.0737 13.9767 9.94785 12.8356 9.19824 11.4538C8.98553 11.0627 8.90407 10.6139 8.96582 10.173C9.02757 9.73213 9.22953 9.32268 9.5415 9.00507L9.78809 8.75018C9.98613 8.55112 10.0977 8.28196 10.0986 8.00116C10.0996 7.72036 9.99017 7.45057 9.79346 7.25018L9.35742 6.81415C9.15855 6.61709 8.88984 6.50653 8.60986 6.50653C8.32989 6.50653 8.06118 6.61709 7.8623 6.81415L7.86328 6.81708ZM9.90723 9.35516H9.89844H9.90723Z" fill="white"/>
</svg>
