<svg width="24" height="25" viewBox="0 0 24 25" fill="none" xmlns="http://www.w3.org/2000/svg">
<path d="M11.7886 22.504C9.36848 22.4494 7.04115 21.5625 5.19828 19.9928C3.35541 18.4231 2.10987 16.2665 1.67093 13.8859C1.6629 13.8571 1.65743 13.8277 1.65482 13.798C1.41177 12.3921 1.45524 10.9517 1.78275 9.56311C1.81024 9.449 1.87689 9.34779 1.97123 9.27795C2.06557 9.20811 2.1817 9.17377 2.29886 9.18079C2.36593 9.18416 2.43147 9.20147 2.49173 9.23108C3.32021 9.63039 4.25787 9.74254 5.15726 9.55042C6.05665 9.35829 6.86699 8.87252 7.46 8.16956C8.053 7.46659 8.3953 6.58651 8.43314 5.6676C8.47099 4.7487 8.20217 3.84322 7.66898 3.09387C7.64347 3.058 7.62262 3.01929 7.60697 2.97815V2.9679V2.95715C7.57944 2.87264 7.5748 2.78226 7.59379 2.69543C7.61277 2.60861 7.65459 2.52832 7.71488 2.46301L7.72757 2.44885L7.73392 2.44299L7.74271 2.43469L7.75492 2.42395L7.78666 2.39807L7.81058 2.38196H7.81791H7.82279C7.84155 2.3709 7.86102 2.3611 7.88089 2.35217C8.49091 2.09303 9.12418 1.89204 9.77201 1.75208C9.87904 1.72038 9.99336 1.72528 10.0972 1.76624C10.201 1.80719 10.2882 1.88192 10.3448 1.97815C10.9726 3.05104 11.3026 4.2717 11.3008 5.51477C11.3008 5.68077 11.3007 5.84577 11.2837 6.01477H14.607C14.0891 5.48614 13.4011 5.15718 12.6646 5.08508C12.5457 5.06657 12.4376 5.00553 12.3599 4.9137C12.2822 4.82186 12.2403 4.70537 12.2417 4.58508C12.147 3.78187 11.9207 2.9998 11.5718 2.27014C11.5263 2.19426 11.5016 2.10762 11.5005 2.01917C11.4995 1.93071 11.5218 1.8432 11.5655 1.76624C11.6091 1.68927 11.6726 1.62522 11.7491 1.58069C11.8255 1.53616 11.9125 1.5128 12.001 1.51282C13.3812 1.514 14.7473 1.78718 16.022 2.31653C17.2967 2.84587 18.4547 3.62088 19.4297 4.59778C20.4048 5.57468 21.1782 6.73419 21.7051 8.00989C22.232 9.28558 22.5025 10.6526 22.501 12.0328C22.4997 12.8801 22.3965 13.7243 22.1939 14.547C22.1669 14.6554 22.1042 14.7517 22.0161 14.8204C21.9281 14.8891 21.8197 14.9261 21.708 14.9259C21.6677 14.9256 21.6273 14.9208 21.5879 14.9117C21.5598 14.9048 21.5324 14.8956 21.5059 14.8839L21.4927 14.8781L21.4707 14.8668C20.6426 14.4214 19.6877 14.271 18.7627 14.4401C17.8377 14.6091 16.9979 15.0875 16.3809 15.797C15.7638 16.5065 15.4063 17.4049 15.3672 18.3444C15.3282 19.2839 15.6095 20.2086 16.1656 20.9669C16.1782 20.9832 16.1901 21 16.2007 21.0177L16.209 21.0319C16.2302 21.0706 16.2462 21.112 16.2569 21.1549C16.2849 21.2716 16.27 21.3944 16.2149 21.5011C16.1598 21.6078 16.068 21.6913 15.9566 21.736C15.3373 21.9875 14.6954 22.1791 14.0396 22.3087C13.9973 22.3206 13.9537 22.3267 13.9097 22.3268C13.8321 22.3268 13.7555 22.3088 13.6861 22.274C13.6166 22.2393 13.5564 22.1892 13.5098 22.1271C13.4952 22.1078 13.4821 22.0874 13.4707 22.066C12.8345 20.9895 12.4997 19.7614 12.501 18.5109C12.501 18.3449 12.5066 18.1779 12.5186 18.0109H9.189C9.70803 18.5405 10.3968 18.8706 11.1348 18.943C11.2521 18.962 11.3586 19.0219 11.4356 19.1124C11.5125 19.2029 11.5548 19.3183 11.5547 19.4371C11.651 20.2501 11.8822 21.0411 12.2388 21.778C12.2756 21.8479 12.2954 21.9255 12.2964 22.0045C12.2974 22.0835 12.2797 22.1617 12.2447 22.2325C12.2096 22.3034 12.1582 22.3651 12.0948 22.4122C12.0313 22.4594 11.9578 22.4908 11.8799 22.504V22.504H11.857H11.8516H11.8306H11.7979H11.7886ZM11.023 21.4547C10.8317 20.9364 10.692 20.4009 10.606 19.8551C9.03199 19.5011 8.00004 18.587 8.00004 17.506C8.00004 17.3734 8.05226 17.2462 8.14603 17.1525C8.2398 17.0587 8.36743 17.006 8.50004 17.006H13.0948H13.1548C13.2856 17.0264 13.4028 17.0979 13.481 17.2047C13.5592 17.3116 13.5919 17.4449 13.5718 17.5758C13.5246 17.8819 13.5011 18.1914 13.501 18.5011C13.4996 19.4583 13.7283 20.4018 14.168 21.2521C14.453 21.1861 14.7337 21.1048 15.0127 21.0118C14.4972 20.0886 14.2787 19.029 14.3868 17.9772C14.4948 16.9253 14.9243 15.9325 15.6167 15.1334C16.3092 14.3343 17.2311 13.7675 18.2569 13.5109C19.2826 13.2542 20.3625 13.32 21.3496 13.6989C21.4497 13.1444 21.5003 12.5825 21.5 12.0192C21.5005 11.5952 21.4731 11.1715 21.418 10.7511H17.2837L15.3286 14.007C15.2846 14.0813 15.222 14.1427 15.147 14.1857C15.072 14.2286 14.9873 14.2517 14.9009 14.2521H10.9009C10.8122 14.2524 10.7247 14.2287 10.648 14.1842C10.5713 14.1397 10.5082 14.0758 10.4644 13.9987C10.4206 13.9215 10.3978 13.8339 10.399 13.7452C10.4001 13.6565 10.425 13.5698 10.4707 13.4938L12.1177 10.7511H9.38871L7.44486 13.9889C7.4109 14.0517 7.3636 14.1064 7.30668 14.1495C7.24975 14.1927 7.18445 14.2232 7.11478 14.2389L7.07279 14.2467H2.77298C3.24003 16.1512 4.28284 17.8655 5.75931 19.1559C7.23579 20.4463 9.07412 21.2503 11.024 21.4581L11.023 21.4547ZM12.9986 9.755C13.087 9.75492 13.1741 9.77798 13.2505 9.82239C13.327 9.8668 13.3904 9.93109 13.4341 10.0079C13.4778 10.0848 13.5 10.1715 13.4991 10.2599C13.4982 10.3483 13.474 10.4349 13.4287 10.5109L11.7818 13.254H14.6167L16.5718 9.99817C16.6157 9.92379 16.6784 9.8621 16.7535 9.81946C16.8286 9.77682 16.9137 9.75457 17 9.755H21.23C20.7538 7.81733 19.6809 6.07811 18.1631 4.78284C16.6454 3.48757 14.7595 2.70142 12.771 2.53577C12.9652 3.06046 13.1068 3.60323 13.1939 4.15588C14.7639 4.50688 15.794 5.42112 15.794 6.50012C15.794 6.63273 15.7413 6.75987 15.6475 6.85364C15.5537 6.94741 15.4266 7.00012 15.294 7.00012H15.253H10.7608H10.7188C10.6933 7.00044 10.6676 6.99777 10.6426 6.9928C10.5777 6.98291 10.5157 6.96039 10.4595 6.92639C10.4033 6.89239 10.3539 6.84749 10.315 6.79456C10.2761 6.74162 10.2481 6.6816 10.2325 6.6178C10.2168 6.554 10.2137 6.48792 10.2237 6.42297C10.2703 6.11752 10.2941 5.80912 10.294 5.50012C10.2958 4.55899 10.0751 3.63077 9.64994 2.79114C9.36694 2.86314 9.08802 2.94704 8.81302 3.04504C9.30473 3.95458 9.51089 4.99117 9.40482 6.01965C9.29875 7.04813 8.88528 8.02063 8.2183 8.81067C7.55132 9.60071 6.66169 10.1713 5.66556 10.4484C4.66944 10.7254 3.61294 10.6961 2.63382 10.3639C2.55154 10.835 2.50522 11.312 2.49564 11.7902C2.48536 12.2775 2.51249 12.765 2.5767 13.2482H6.71195L8.66459 9.99182C8.70891 9.91785 8.77172 9.85667 8.84671 9.81409C8.92171 9.77151 9.00657 9.7493 9.09281 9.74915L12.9986 9.755ZM17.4278 20.8898H17.3946H17.3809H17.3638H17.357C17.2518 20.87 17.1559 20.8172 17.083 20.7389C16.5333 20.1472 16.2204 19.374 16.2046 18.5665C16.1889 17.759 16.4709 16.9736 16.9971 16.361C17.5233 15.7483 18.257 15.351 19.0577 15.2448C19.8583 15.1385 20.6701 15.3306 21.3379 15.7848C21.4421 15.8491 21.519 15.9493 21.5542 16.0665C21.5894 16.1837 21.5804 16.31 21.5288 16.421C20.7005 18.2052 19.3892 19.722 17.7437 20.7999C17.6919 20.8377 17.6337 20.8655 17.5718 20.882H17.5577H17.5498H17.5386H17.5196H17.4278V20.8898ZM17.9336 16.819C17.5432 17.1812 17.2919 17.6683 17.2227 18.1964C17.1535 18.7245 17.2708 19.2604 17.5547 19.7111C18.7539 18.8462 19.7354 17.7139 20.4209 16.4039C20.0118 16.2195 19.557 16.1606 19.1143 16.2345C18.6716 16.3084 18.2607 16.5117 17.9336 16.819V16.819ZM2.62162 8.33411C2.51568 8.27019 2.43679 8.1695 2.39994 8.05139C2.36308 7.93328 2.37111 7.80581 2.42191 7.69299C3.22909 5.90863 4.51776 4.38495 6.14359 3.29309V3.29309L6.15482 3.28577H6.16068L6.17191 3.27893H6.17679L6.19877 3.26672H6.2056H6.2139H6.22464H6.23197L6.24564 3.26184L6.26273 3.25598C6.34711 3.22986 6.43691 3.22637 6.52298 3.24622C6.60905 3.26606 6.68855 3.30834 6.75296 3.36877V3.36877L6.76957 3.38586L6.78275 3.40002L6.78861 3.40588C7.29283 3.99885 7.57055 4.75155 7.57181 5.52991C7.57307 6.30827 7.29774 7.06178 6.79545 7.65637C6.29315 8.25097 5.59628 8.64815 4.82865 8.77698C4.06102 8.9058 3.27293 8.75803 2.60404 8.35999L2.62162 8.33411ZM5.7847 7.2511C6.18605 6.90904 6.45722 6.43882 6.55179 5.92004C6.64637 5.40126 6.55857 4.8656 6.30375 4.40393C5.14958 5.26886 4.20704 6.38476 3.54691 7.66711C3.92428 7.8 4.32978 7.83124 4.72318 7.75842C5.11658 7.6856 5.48381 7.51123 5.78861 7.25208L5.7847 7.2511Z" fill="white"/>
</svg>
