<svg width="24" height="25" viewBox="0 0 24 25" fill="none" xmlns="http://www.w3.org/2000/svg">
<path d="M15.3992 22.4991C15.3303 22.4991 15.2622 22.4848 15.1991 22.4572L11.9992 21.0571C11.9351 21.0286 11.8658 21.0139 11.7957 21.0139C11.7255 21.0139 11.6562 21.0286 11.5922 21.0571L8.54212 22.4491C8.4658 22.4832 8.38221 22.498 8.29883 22.4921C8.21545 22.4861 8.13482 22.4597 8.06409 22.4152C7.99354 22.3699 7.93558 22.3076 7.89539 22.234C7.8552 22.1604 7.83408 22.078 7.83411 21.9941V20.1411C7.83492 19.8072 7.94642 19.4829 8.15113 19.2191L9.48414 17.5101C9.55029 17.4219 9.58542 17.3143 9.58411 17.2041V15.9521C9.58423 15.8864 9.57144 15.8214 9.54639 15.7606C9.52134 15.6999 9.48452 15.6447 9.43811 15.5981C9.34449 15.5053 9.21805 15.4532 9.08619 15.4531C9.04099 15.4532 8.99594 15.4589 8.95215 15.4701L3.13013 17.0702C3.05582 17.0906 2.97786 17.0935 2.90223 17.0787C2.82659 17.064 2.75531 17.0319 2.6941 16.9851C2.632 16.9385 2.58159 16.8781 2.54688 16.8087C2.51217 16.7393 2.49415 16.6628 2.49415 16.5852V14.7141C2.49354 14.4638 2.5559 14.2173 2.67542 13.9973C2.79494 13.7773 2.96773 13.5909 3.1781 13.4552L8.69617 9.8772C8.76499 9.83388 8.82188 9.77403 8.8617 9.70312C8.90152 9.63222 8.92303 9.5525 8.9242 9.47119C8.9762 6.49419 9.41609 1.49719 11.7831 1.49719C14.0251 1.49719 14.5631 5.82312 14.6191 9.45312C14.6203 9.53667 14.6428 9.61848 14.6847 9.6908C14.7265 9.76311 14.7863 9.82359 14.8582 9.86621L20.7711 13.4491C20.9911 13.5832 21.1729 13.7715 21.2993 13.996C21.4257 14.2204 21.4925 14.4736 21.4932 14.7312V16.5841C21.4939 16.6612 21.4767 16.7375 21.443 16.8069C21.4093 16.8763 21.3602 16.9369 21.2992 16.9841C21.2385 17.0305 21.1681 17.0627 21.0933 17.0781C21.0185 17.0935 20.9413 17.0918 20.8672 17.0731L14.6191 15.4481C14.5558 15.4303 14.4894 15.4257 14.4242 15.4347C14.359 15.4436 14.2963 15.4659 14.2401 15.5001C14.1257 15.5671 14.0427 15.6769 14.0092 15.8052C13.9988 15.8464 13.9934 15.8887 13.9932 15.9312V17.1792C13.993 17.297 14.0344 17.4109 14.1101 17.5011L15.5402 19.1941C15.7682 19.4647 15.8933 19.8073 15.8932 20.1611V21.9951C15.8932 22.0781 15.8725 22.1597 15.833 22.2327C15.7936 22.3056 15.7365 22.3677 15.6671 22.4132C15.5879 22.4669 15.4949 22.4967 15.3992 22.4991V22.4991ZM11.7992 20.0151C12.0059 20.0153 12.2102 20.0586 12.3992 20.1422L14.8992 21.2341V20.1652C14.899 20.0473 14.8572 19.9332 14.7811 19.8431L13.3532 18.1501C13.1243 17.88 12.9988 17.5372 12.9992 17.1831V15.9352C12.9989 15.8073 13.0153 15.6798 13.0481 15.5562C13.0974 15.3655 13.184 15.1866 13.3027 15.0295C13.4215 14.8725 13.5701 14.7405 13.7401 14.6411C13.91 14.541 14.0981 14.4756 14.2935 14.4486C14.4888 14.4217 14.6875 14.4337 14.8782 14.4841L20.4991 15.9462V14.7401C20.4991 14.6543 20.4771 14.57 20.4351 14.4952C20.393 14.4205 20.3324 14.3577 20.2592 14.3131L14.3472 10.7312C14.1298 10.6012 13.9494 10.4176 13.823 10.1981C13.6966 9.97862 13.6285 9.73044 13.6251 9.47717C13.5621 5.37717 12.8072 2.5061 11.7892 2.5061C10.7712 2.5061 10.0022 5.38215 9.93018 9.49915C9.92606 9.74455 9.86128 9.98507 9.74158 10.1993C9.62188 10.4136 9.45095 10.595 9.24414 10.7272L3.72815 14.3031C3.65825 14.3484 3.60074 14.4106 3.56092 14.4838C3.5211 14.5569 3.50022 14.6389 3.50013 14.7222V15.9381L8.69117 14.5092C8.8216 14.4742 8.95614 14.4567 9.09119 14.4572V14.4572C9.28748 14.4567 9.48193 14.4951 9.66333 14.5701C9.84474 14.6451 10.0095 14.7552 10.1482 14.8942C10.2882 15.0332 10.3992 15.1987 10.4747 15.381C10.5503 15.5633 10.5888 15.7588 10.5881 15.9562V17.2072C10.5879 17.541 10.4767 17.8653 10.2721 18.1292L8.93811 19.8381C8.87222 19.9268 8.83713 20.0346 8.83814 20.1451V21.2201L11.1812 20.1511C11.375 20.062 11.5858 20.0156 11.7992 20.0151V20.0151Z" fill="white"/>
</svg>
