<svg width="24" height="25" viewBox="0 0 24 25" fill="none" xmlns="http://www.w3.org/2000/svg">
<path d="M11.502 22.005V12.505H2.00195C1.86934 12.505 1.74172 12.4523 1.64795 12.3585C1.55418 12.2648 1.50195 12.1376 1.50195 12.005C1.50195 11.8724 1.55418 11.7453 1.64795 11.6515C1.74172 11.5577 1.86934 11.505 2.00195 11.505H11.502V2.005C11.502 1.8724 11.5542 1.74526 11.6479 1.65149C11.7417 1.55772 11.8693 1.505 12.002 1.505C12.1346 1.505 12.2617 1.55772 12.3555 1.65149C12.4492 1.74526 12.502 1.8724 12.502 2.005V11.505H22.002C22.1346 11.505 22.2617 11.5577 22.3555 11.6515C22.4492 11.7453 22.502 11.8724 22.502 12.005C22.502 12.1376 22.4492 12.2648 22.3555 12.3585C22.2617 12.4523 22.1346 12.505 22.002 12.505H12.502V22.005C12.502 22.1376 12.4492 22.2648 12.3555 22.3585C12.2617 22.4523 12.1346 22.505 12.002 22.505C11.8693 22.505 11.7417 22.4523 11.6479 22.3585C11.5542 22.2648 11.502 22.1376 11.502 22.005Z" fill="white"/>
</svg>
