<svg width="22" height="22" viewBox="0 0 22 22" fill="none" xmlns="http://www.w3.org/2000/svg">
<path d="M10.502 21.005V11.505H1.00195C0.869345 11.505 0.741717 11.4523 0.647949 11.3585C0.554181 11.2648 0.501953 11.1376 0.501953 11.005C0.501953 10.8724 0.554181 10.7453 0.647949 10.6515C0.741717 10.5577 0.869345 10.505 1.00195 10.505H10.502V1.005C10.502 0.872397 10.5542 0.745257 10.6479 0.651489C10.7417 0.557721 10.8693 0.505005 11.002 0.505005C11.1346 0.505005 11.2617 0.557721 11.3555 0.651489C11.4492 0.745257 11.502 0.872397 11.502 1.005V10.505H21.002C21.1346 10.505 21.2617 10.5577 21.3555 10.6515C21.4492 10.7453 21.502 10.8724 21.502 11.005C21.502 11.1376 21.4492 11.2648 21.3555 11.3585C21.2617 11.4523 21.1346 11.505 21.002 11.505H11.502V21.005C11.502 21.1376 11.4492 21.2648 11.3555 21.3585C11.2617 21.4523 11.1346 21.505 11.002 21.505C10.8693 21.505 10.7417 21.4523 10.6479 21.3585C10.5542 21.2648 10.502 21.1376 10.502 21.005Z" fill="white"/>
</svg>
