<svg width="24" height="25" viewBox="0 0 24 25" fill="none" xmlns="http://www.w3.org/2000/svg">
<path d="M10.782 11.267C14.5247 8.85362 18.264 6.43362 22 4.00696C21.984 5.02496 21.98 6.23196 21.046 6.89296C18.007 8.94396 14.977 11.008 11.921 13.034C11.515 12.462 11.17 11.849 10.782 11.267Z" fill="white"/>
<path d="M12.28 13.527C15.087 11.758 17.88 9.96597 20.696 8.20697C20.7791 9.04883 20.5766 9.89417 20.121 10.607C17.869 12.14 15.593 13.64 13.328 15.155C12.989 14.605 12.632 14.067 12.28 13.527Z" fill="white"/>
<path d="M2 10.343C2.52651 9.61855 3.31665 9.13011 4.2 8.98296C4.85019 8.94697 5.50038 9.05364 6.10499 9.29549C6.7096 9.53733 7.25399 9.9085 7.7 10.383C9.811 12.207 11.062 14.714 12.533 17.012C12.7276 17.3188 12.9991 17.5693 13.3204 17.7388C13.6418 17.9082 14.0019 17.9907 14.365 17.978C14.765 18.623 15.157 19.278 15.551 19.931C14.4846 20.1451 13.3766 19.9566 12.441 19.402C11.4837 18.6859 10.6892 17.7748 10.11 16.729C8.955 15.021 7.863 13.271 6.648 11.604C6.35494 11.1588 5.96512 10.7856 5.50764 10.5122C5.05017 10.2388 4.53686 10.0722 4.006 10.025C3.43591 10.0659 2.8712 10.1627 2.32 10.314C3.13135 10.2225 3.95287 10.3204 4.72 10.6C5.58836 11.1109 6.31322 11.8333 6.827 12.7C8.2591 15.1989 9.95115 17.5395 11.875 19.683C10.8619 19.4948 9.90175 19.0887 9.061 18.493C6.096 16.3 5.335 12.161 2 10.343Z" fill="white"/>
<path d="M13.776 15.789C15.5367 14.6256 17.2963 13.459 19.055 12.289C19.1883 12.67 19.2292 13.0772 19.1743 13.4771C19.1194 13.877 18.9702 14.2581 18.739 14.589C17.439 15.489 16.075 16.303 14.753 17.175C14.4303 16.7103 14.1047 16.2483 13.776 15.789Z" fill="white"/>
<path d="M15.16 17.777C15.884 17.277 16.622 16.788 17.351 16.291C18.033 17.491 18.756 18.664 19.458 19.85C18.475 19.827 17.491 19.832 16.508 19.845C16.05 19.159 15.615 18.463 15.16 17.777Z" fill="white"/>
</svg>
