<svg width="24" height="25" viewBox="0 0 24 25" fill="none" xmlns="http://www.w3.org/2000/svg">
<path d="M1.49805 12.0051C1.49805 9.92836 2.11431 7.89829 3.26807 6.17157C4.42182 4.44485 6.06136 3.0991 7.97998 2.30438C9.8986 1.50966 12.0101 1.30158 14.0469 1.70673C16.0837 2.11187 17.9544 3.11181 19.4229 4.58026C20.8913 6.04871 21.8912 7.91993 22.2964 9.95673C22.7015 11.9935 22.4939 14.1045 21.6992 16.0231C20.9045 17.9418 19.5583 19.5818 17.8315 20.7355C16.1048 21.8893 14.0748 22.5051 11.998 22.5051C9.21425 22.5019 6.54559 21.3944 4.57715 19.426C2.6087 17.4575 1.50122 14.7889 1.49805 12.0051ZM2.49805 12.0051C2.49805 13.884 3.05525 15.7206 4.09912 17.2829C5.14299 18.8452 6.62689 20.0629 8.36279 20.7819C10.0987 21.501 12.0087 21.689 13.8516 21.3224C15.6944 20.9559 17.3872 20.0509 18.7158 18.7224C20.0444 17.3938 20.9494 15.7009 21.3159 13.8581C21.6825 12.0153 21.4939 10.1052 20.7749 8.36932C20.0559 6.63343 18.8386 5.15001 17.2764 4.10614C15.7141 3.06227 13.877 2.50507 11.998 2.50507C9.47964 2.50851 7.06585 3.51032 5.28516 5.2912C3.50446 7.07208 2.50269 9.48666 2.49951 12.0051H2.49805ZM12.6455 15.3591L9.64551 12.3591C9.59894 12.3126 9.56183 12.2572 9.53662 12.1965C9.51141 12.1357 9.49854 12.0708 9.49854 12.0051C9.49854 11.9393 9.51141 11.8739 9.53662 11.8132C9.56183 11.7524 9.59894 11.6975 9.64551 11.6511L12.6455 8.65106C12.7394 8.55731 12.8663 8.50448 12.999 8.50458C13.1317 8.50467 13.2588 8.55766 13.3525 8.65155C13.4463 8.74544 13.4991 8.87287 13.499 9.00555C13.4989 9.13824 13.4459 9.26532 13.3521 9.35907L10.7041 12.0051L13.3521 14.6511C13.4222 14.7211 13.4704 14.8102 13.4897 14.9074C13.5091 15.0046 13.499 15.1054 13.4609 15.197C13.4229 15.2885 13.3584 15.3667 13.2759 15.4216C13.1933 15.4764 13.0962 15.5054 12.9971 15.5051C12.9319 15.5054 12.8674 15.4929 12.8071 15.468C12.7469 15.4431 12.6924 15.4063 12.6465 15.36L12.6455 15.3591Z" fill="white"/>
</svg>
