<svg width="24" height="25" viewBox="0 0 24 25" fill="none" xmlns="http://www.w3.org/2000/svg">
<path d="M21.35 24.0065H3.05C2.89254 24.0141 2.7351 23.9907 2.58669 23.9375C2.43829 23.8843 2.30182 23.8024 2.18508 23.6964C2.06835 23.5904 1.97364 23.4625 1.90636 23.3199C1.83909 23.1774 1.80056 23.023 1.793 22.8655V10.8655H9.835V11.7885H2.716V22.8655C2.716 22.9655 2.859 23.0835 3.05 23.0835H21.35C21.541 23.0835 21.684 22.9695 21.684 22.8655V11.7885H14.576V10.8655H22.608V22.8655C22.6004 23.023 22.5619 23.1775 22.4946 23.3202C22.4272 23.4628 22.3324 23.5908 22.2156 23.6968C22.0987 23.8028 21.9621 23.8847 21.8136 23.9378C21.6651 23.9909 21.5076 24.0143 21.35 24.0065V24.0065Z" fill="white"/>
<path d="M22.756 11.7885H14.532V10.8654H22.756C22.944 10.8654 23.076 10.7505 23.076 10.6485V7.25546C23.076 7.15546 22.944 7.03747 22.756 7.03747H1.242C1.054 7.03747 0.923004 7.15146 0.923004 7.25546V10.6485C0.923004 10.7485 1.054 10.8654 1.242 10.8654H9.873V11.7885H1.242C0.926682 11.7999 0.619546 11.6867 0.387093 11.4733C0.154639 11.2599 0.0155694 10.9636 0 10.6485V7.25546C0.0153149 6.94014 0.154275 6.64357 0.386757 6.42999C0.619239 6.21642 0.926517 6.10305 1.242 6.11447H22.756C23.0717 6.10278 23.3792 6.21602 23.6119 6.42963C23.8446 6.64323 23.9837 6.93996 23.999 7.25546V10.6485C23.9834 10.9638 23.8442 11.2603 23.6116 11.4737C23.3789 11.6871 23.0715 11.8001 22.756 11.7885V11.7885Z" fill="white"/>
<path d="M15.047 24.0065H9.34701V6.11447H15.047V24.0065ZM10.273 23.0835H14.128V7.03748H10.277L10.273 23.0835Z" fill="white"/>
<path d="M11.455 6.80345C11.0725 6.79494 10.6911 6.75815 10.314 6.69344C7.597 6.27244 5.451 5.94044 4.83 4.37444C4.6876 3.92927 4.64863 3.45749 4.71604 2.99498C4.78344 2.53248 4.95546 2.09147 5.219 1.70546C5.46096 1.26511 5.79873 0.884699 6.20738 0.592363C6.61602 0.300028 7.08511 0.103236 7.58 0.0164662C9.58 -0.170534 11.488 2.36547 12.213 4.01647C12.745 5.22747 12.764 6.13846 12.269 6.58046C12.0368 6.75733 11.745 6.83725 11.455 6.80345V6.80345ZM7.79201 0.930437C7.75001 0.930437 7.71001 0.930449 7.66901 0.936449C7.31767 1.01155 6.98693 1.1624 6.69988 1.37847C6.41284 1.59453 6.17638 1.87061 6.00701 2.18746C5.81891 2.45178 5.69259 2.75498 5.63738 3.07466C5.58216 3.39435 5.59946 3.72234 5.68801 4.03444C6.11401 5.10944 8.126 5.42046 10.454 5.78246C10.8539 5.86881 11.2639 5.89842 11.672 5.87044C11.734 5.74944 11.756 5.27645 11.372 4.38945C10.617 2.67845 9.02801 0.929461 7.79201 0.929461V0.930437Z" fill="white"/>
<path d="M12.941 6.80247C12.6511 6.83688 12.3593 6.75729 12.127 6.58049V6.58049C11.632 6.13849 11.653 5.22749 12.183 4.01549C12.909 2.36449 14.807 -0.178514 16.817 0.0154855C17.3117 0.102326 17.7807 0.299169 18.1891 0.591505C18.5976 0.883841 18.9352 1.2642 19.177 1.70448C19.4405 2.09048 19.6126 2.53153 19.68 2.99403C19.7474 3.45654 19.7084 3.92832 19.566 4.37349C18.945 5.93949 16.8 6.27349 14.083 6.69249C13.7056 6.75722 13.3239 6.79397 12.941 6.80247V6.80247ZM12.724 5.86848C13.1318 5.89715 13.5416 5.8675 13.941 5.78047C16.271 5.41847 18.282 5.10748 18.709 4.03248C18.7978 3.72058 18.8153 3.39267 18.76 3.0731C18.7048 2.75353 18.5783 2.45049 18.39 2.18648C18.2209 1.86932 17.9845 1.59295 17.6975 1.37669C17.4104 1.16043 17.0795 1.00951 16.728 0.934492C15.486 0.806492 13.806 2.62049 13.028 4.38649C12.64 5.27449 12.663 5.74748 12.726 5.86848H12.724Z" fill="white"/>
</svg>
