<svg width="24" height="25" viewBox="0 0 24 25" fill="none" xmlns="http://www.w3.org/2000/svg">
<path d="M2.5 20.2047C2.54241 18.5755 3.21812 17.0273 4.38379 15.8883C5.54946 14.7493 7.11295 14.1098 8.74268 14.1051C8.79768 14.1051 8.84983 14.1051 8.90283 14.1051H15.1099C16.7627 14.0664 18.3636 14.6844 19.5615 15.8239C20.7595 16.9633 21.457 18.531 21.501 20.1837C21.4864 20.8025 21.2311 21.3916 20.7896 21.8253C20.348 22.259 19.7547 22.5035 19.1357 22.507H4.88867C4.26775 22.5145 3.66883 22.2772 3.22168 21.8463C2.77453 21.4154 2.51547 20.8255 2.5 20.2047ZM3.5 20.2047C3.51962 20.5605 3.67638 20.8949 3.9375 21.1373C4.19862 21.3798 4.54363 21.5118 4.8999 21.505H19.0889C19.4497 21.5106 19.7985 21.3757 20.0615 21.1285C20.3245 20.8814 20.4807 20.5413 20.4976 20.1808C20.4534 18.7959 19.8633 17.4847 18.856 16.5333C17.8486 15.582 16.5057 15.0681 15.1206 15.1031H8.75391C7.38695 15.1041 6.07384 15.6371 5.09326 16.5895C4.11269 17.5419 3.54178 18.8384 3.50098 20.2047H3.5ZM7 8.505V6.505C7 5.17892 7.52667 3.90704 8.46436 2.96936C9.40204 2.03168 10.6739 1.505 12 1.505C13.3261 1.505 14.5975 2.03168 15.5352 2.96936C16.4728 3.90704 17 5.17892 17 6.505V8.505C17 9.83109 16.4728 11.103 15.5352 12.0406C14.5975 12.9783 13.3261 13.505 12 13.505C10.6739 13.505 9.40204 12.9783 8.46436 12.0406C7.52667 11.103 7 9.83109 7 8.505ZM8 6.505V8.505C8 9.56587 8.42124 10.583 9.17139 11.3331C9.92153 12.0833 10.9391 12.505 12 12.505C13.0609 12.505 14.078 12.0833 14.8281 11.3331C15.5783 10.583 16 9.56587 16 8.505V6.505C16 5.44414 15.5783 4.42654 14.8281 3.67639C14.078 2.92625 13.0609 2.505 12 2.505C10.9391 2.505 9.92153 2.92625 9.17139 3.67639C8.42124 4.42654 8 5.44414 8 6.505Z" fill="white"/>
</svg>
