<svg width="24" height="25" viewBox="0 0 24 25" fill="none" xmlns="http://www.w3.org/2000/svg">
<path d="M12 0.928009C12.7648 0.932959 13.5195 1.10338 14.2122 1.42755C14.9049 1.75172 15.5192 2.22196 16.013 2.806C18.185 5.391 16.764 9.52001 15.713 11.342C15.2649 12.1118 14.7078 12.8127 14.059 13.423C13.9328 13.5422 13.8428 13.6946 13.7993 13.8626C13.7558 14.0306 13.7605 14.2076 13.813 14.373C14.0364 15.0857 14.3811 15.7545 14.832 16.35C15.9837 17.7038 17.5594 18.6282 19.303 18.973C20.4274 19.1823 21.4684 19.709 22.303 20.491C22.6508 20.8965 22.903 21.3749 23.041 21.891C23.0812 22.0287 23.0884 22.174 23.0622 22.315C23.036 22.456 22.977 22.5889 22.89 22.703C22.8012 22.8213 22.6859 22.9171 22.5534 22.9827C22.4209 23.0483 22.2749 23.082 22.127 23.081H1.877C1.72913 23.082 1.58307 23.0483 1.45056 22.9827C1.31806 22.9171 1.20279 22.8213 1.114 22.703C1.027 22.5889 0.968018 22.456 0.94179 22.315C0.915562 22.174 0.922826 22.0287 0.963 21.891C1.101 21.3749 1.35322 20.8965 1.70101 20.491C2.53561 19.709 3.57661 19.1823 4.70101 18.973C6.44461 18.6282 8.02032 17.7038 9.172 16.35C9.62286 15.7545 9.96759 15.0857 10.191 14.373C10.2441 14.2069 10.2489 14.0291 10.2048 13.8604C10.1607 13.6917 10.0696 13.5389 9.942 13.42C9.35368 12.8705 8.84088 12.2454 8.41701 11.561C7.09301 9.412 5.887 5.30801 7.989 2.80701C8.48248 2.22304 9.09646 1.75274 9.78881 1.42841C10.4812 1.10407 11.2355 0.93337 12 0.928009M12 0.00500488C11.1011 0.0126659 10.2143 0.213636 9.39989 0.594269C8.58548 0.974901 7.8625 1.52628 7.28 2.211C4.819 5.141 6.154 9.64801 7.629 12.044C8.09556 12.7988 8.6609 13.4879 9.31 14.093C9.11858 14.7057 8.82292 15.2808 8.43601 15.793C6.38801 18.483 2.944 17.673 1.004 19.886C0.565942 20.3943 0.247468 20.9943 0.0720086 21.642C-0.00639844 21.9195 -0.0192482 22.2114 0.034472 22.4947C0.0881922 22.778 0.207001 23.045 0.381548 23.2745C0.556095 23.504 0.781599 23.6899 1.04026 23.8174C1.29891 23.9448 1.58364 24.0104 1.872 24.009H22.122C22.4104 24.0104 22.6951 23.9448 22.9538 23.8174C23.2124 23.6899 23.4379 23.504 23.6124 23.2745C23.787 23.045 23.9058 22.778 23.9595 22.4947C24.0133 22.2114 24.0004 21.9195 23.922 21.642C23.7465 20.9943 23.4281 20.3943 22.99 19.886C21.051 17.673 17.607 18.486 15.558 15.793C15.1711 15.2808 14.8754 14.7057 14.684 14.093C15.3974 13.4218 16.0097 12.6508 16.502 11.804C17.802 9.55102 19.165 5.13 16.713 2.211C16.1313 1.52712 15.4095 0.976214 14.5963 0.595612C13.7832 0.215009 12.8978 0.0136012 12 0.00500488V0.00500488Z" fill="white"/>
</svg>
