<svg width="24" height="25" viewBox="0 0 24 25" fill="none" xmlns="http://www.w3.org/2000/svg">
<path d="M16 22.505C15.8674 22.505 15.7403 22.4523 15.6465 22.3585C15.5527 22.2648 15.5 22.1376 15.5 22.005C15.5 21.8724 15.5527 21.7453 15.6465 21.6515C15.7403 21.5577 15.8674 21.505 16 21.505H20C20.3978 21.505 20.7797 21.3469 21.061 21.0656C21.3423 20.7842 21.5 20.4028 21.5 20.005V16.005C21.5 15.8724 21.5527 15.7453 21.6465 15.6515C21.7403 15.5577 21.8674 15.505 22 15.505C22.1326 15.505 22.2602 15.5577 22.354 15.6515C22.4478 15.7453 22.5 15.8724 22.5 16.005V20.005C22.5 20.668 22.2369 21.3037 21.7681 21.7726C21.2992 22.2414 20.663 22.505 20 22.505H16ZM4 22.505C3.33696 22.505 2.70126 22.2414 2.23242 21.7726C1.76358 21.3037 1.5 20.668 1.5 20.005V16.005C1.5 15.8724 1.55272 15.7453 1.64648 15.6515C1.74025 15.5577 1.86739 15.505 2 15.505C2.13261 15.505 2.26024 15.5577 2.354 15.6515C2.44777 15.7453 2.5 15.8724 2.5 16.005V20.005C2.5 20.4028 2.65815 20.7842 2.93945 21.0656C3.22076 21.3469 3.60218 21.505 4 21.505H8C8.13261 21.505 8.26024 21.5577 8.354 21.6515C8.44777 21.7453 8.5 21.8724 8.5 22.005C8.5 22.1376 8.44777 22.2648 8.354 22.3585C8.26024 22.4523 8.13261 22.505 8 22.505H4ZM15 17.505C14.8674 17.505 14.7403 17.4523 14.6465 17.3585C14.5527 17.2648 14.5 17.1376 14.5 17.005V15.005C14.5 14.8724 14.5527 14.7453 14.6465 14.6515C14.7403 14.5577 14.8674 14.505 15 14.505H17C17.1326 14.505 17.2602 14.5577 17.354 14.6515C17.4478 14.7453 17.5 14.8724 17.5 15.005V17.005C17.5 17.1376 17.4478 17.2648 17.354 17.3585C17.2602 17.4523 17.1326 17.505 17 17.505H15ZM15.5 16.505H16.5V15.505H15.5V16.505ZM12.5 17.005V14.005C12.5 13.6072 12.6581 13.2258 12.9395 12.9445C13.2208 12.6632 13.6022 12.505 14 12.505H17C17.1326 12.505 17.2602 12.5577 17.354 12.6515C17.4478 12.7453 17.5 12.8724 17.5 13.005C17.5 13.1376 17.4478 13.2648 17.354 13.3585C17.2602 13.4523 17.1326 13.505 17 13.505H14C13.8674 13.505 13.7403 13.5577 13.6465 13.6515C13.5527 13.7453 13.5 13.8724 13.5 14.005V17.005C13.5 17.1376 13.4478 17.2648 13.354 17.3585C13.2602 17.4523 13.1326 17.505 13 17.505C12.8674 17.505 12.7403 17.4523 12.6465 17.3585C12.5527 17.2648 12.5 17.1376 12.5 17.005ZM8 17.505C7.60218 17.505 7.22076 17.3469 6.93945 17.0656C6.65815 16.7842 6.5 16.4028 6.5 16.005V14.005C6.5 13.6072 6.65815 13.2258 6.93945 12.9445C7.22076 12.6632 7.60218 12.505 8 12.505H10C10.3978 12.505 10.7797 12.6632 11.061 12.9445C11.3423 13.2258 11.5 13.6072 11.5 14.005V16.005C11.5 16.4028 11.3423 16.7842 11.061 17.0656C10.7797 17.3469 10.3978 17.505 10 17.505H8ZM7.5 14.005V16.005C7.5 16.1376 7.55272 16.2648 7.64648 16.3585C7.74025 16.4523 7.86739 16.505 8 16.505H10C10.1326 16.505 10.2602 16.4523 10.354 16.3585C10.4478 16.2648 10.5 16.1376 10.5 16.005V14.005C10.5 13.8724 10.4478 13.7453 10.354 13.6515C10.2602 13.5577 10.1326 13.505 10 13.505H8C7.86739 13.505 7.74025 13.5577 7.64648 13.6515C7.55272 13.7453 7.5 13.8724 7.5 14.005ZM14 11.505C13.6022 11.505 13.2208 11.3469 12.9395 11.0656C12.6581 10.7842 12.5 10.4028 12.5 10.005V8.005C12.5 7.60718 12.6581 7.22576 12.9395 6.94446C13.2208 6.66315 13.6022 6.505 14 6.505H16C16.3978 6.505 16.7797 6.66315 17.061 6.94446C17.3423 7.22576 17.5 7.60718 17.5 8.005V10.005C17.5 10.4028 17.3423 10.7842 17.061 11.0656C16.7797 11.3469 16.3978 11.505 16 11.505H14ZM13.5 8.005V10.005C13.5 10.1376 13.5527 10.2648 13.6465 10.3585C13.7403 10.4523 13.8674 10.505 14 10.505H16C16.1326 10.505 16.2602 10.4523 16.354 10.3585C16.4478 10.2648 16.5 10.1376 16.5 10.005V8.005C16.5 7.8724 16.4478 7.74526 16.354 7.65149C16.2602 7.55772 16.1326 7.505 16 7.505H14C13.8676 7.50527 13.741 7.55775 13.6475 7.65149C13.5539 7.74523 13.5015 7.87257 13.5015 8.005H13.5ZM8 11.505C7.60218 11.505 7.22076 11.3469 6.93945 11.0656C6.65815 10.7842 6.5 10.4028 6.5 10.005V8.005C6.5 7.60718 6.65815 7.22576 6.93945 6.94446C7.22076 6.66315 7.60218 6.505 8 6.505H10C10.3978 6.505 10.7797 6.66315 11.061 6.94446C11.3423 7.22576 11.5 7.60718 11.5 8.005V10.005C11.5 10.4028 11.3423 10.7842 11.061 11.0656C10.7797 11.3469 10.3978 11.505 10 11.505H8ZM7.5 8.005V10.005C7.5 10.1376 7.55272 10.2648 7.64648 10.3585C7.74025 10.4523 7.86739 10.505 8 10.505H10C10.1326 10.505 10.2602 10.4523 10.354 10.3585C10.4478 10.2648 10.5 10.1376 10.5 10.005V8.005C10.5 7.8724 10.4478 7.74526 10.354 7.65149C10.2602 7.55772 10.1326 7.505 10 7.505H8C7.86739 7.505 7.74025 7.55772 7.64648 7.65149C7.55272 7.74526 7.5 7.8724 7.5 8.005ZM21.5 8.005V4.005C21.5 3.60718 21.3423 3.22576 21.061 2.94446C20.7797 2.66315 20.3978 2.505 20 2.505H16C15.8674 2.505 15.7403 2.45229 15.6465 2.35852C15.5527 2.26475 15.5 2.13761 15.5 2.005C15.5 1.8724 15.5527 1.74526 15.6465 1.65149C15.7403 1.55772 15.8674 1.505 16 1.505H20C20.663 1.505 21.2992 1.7681 21.7681 2.23694C22.2369 2.70578 22.5 3.34196 22.5 4.005V8.005C22.5 8.13761 22.4478 8.26475 22.354 8.35852C22.2602 8.45229 22.1326 8.505 22 8.505C21.8674 8.505 21.7403 8.45229 21.6465 8.35852C21.5527 8.26475 21.5 8.13761 21.5 8.005ZM1.5 8.005V4.005C1.5 3.34196 1.76358 2.70578 2.23242 2.23694C2.70126 1.7681 3.33696 1.505 4 1.505H8C8.13261 1.505 8.26024 1.55772 8.354 1.65149C8.44777 1.74526 8.5 1.8724 8.5 2.005C8.5 2.13761 8.44777 2.26475 8.354 2.35852C8.26024 2.45229 8.13261 2.505 8 2.505H4C3.60218 2.505 3.22076 2.66315 2.93945 2.94446C2.65815 3.22576 2.5 3.60718 2.5 4.005V8.005C2.5 8.13761 2.44777 8.26475 2.354 8.35852C2.26024 8.45229 2.13261 8.505 2 8.505C1.86739 8.505 1.74025 8.45229 1.64648 8.35852C1.55272 8.26475 1.5 8.13761 1.5 8.005Z" fill="white"/>
</svg>
