<svg width="24" height="25" viewBox="0 0 24 25" fill="none" xmlns="http://www.w3.org/2000/svg">
<path d="M1.49805 12.0051C1.49805 9.92836 2.11431 7.89829 3.26807 6.17157C4.42182 4.44485 6.06136 3.0991 7.97998 2.30438C9.8986 1.50966 12.0101 1.30158 14.0469 1.70673C16.0837 2.11187 17.9544 3.11181 19.4229 4.58026C20.8913 6.04871 21.8912 7.91993 22.2964 9.95673C22.7015 11.9935 22.4939 14.1045 21.6992 16.0231C20.9045 17.9418 19.5583 19.5818 17.8315 20.7355C16.1048 21.8893 14.0748 22.5051 11.998 22.5051C9.21425 22.5019 6.54559 21.3944 4.57715 19.426C2.6087 17.4575 1.50122 14.7889 1.49805 12.0051ZM2.49805 12.0051C2.49805 13.884 3.05525 15.7206 4.09912 17.2829C5.14299 18.8452 6.62689 20.0629 8.36279 20.7819C10.0987 21.501 12.0087 21.689 13.8516 21.3224C15.6944 20.9559 17.3872 20.0509 18.7158 18.7224C20.0444 17.3938 20.9494 15.7009 21.3159 13.8581C21.6825 12.0153 21.4939 10.1052 20.7749 8.36932C20.0559 6.63343 18.8386 5.15001 17.2764 4.10614C15.7141 3.06227 13.877 2.50507 11.998 2.50507C9.47964 2.50851 7.06585 3.51032 5.28516 5.2912C3.50446 7.07208 2.50269 9.48666 2.49951 12.0051H2.49805ZM11.8071 18.4641C11.7445 18.4431 11.6894 18.4051 11.6475 18.3542C11.6 18.3091 11.5619 18.2547 11.5361 18.1945C11.5103 18.1344 11.4971 18.0696 11.4971 18.0041C11.4971 17.9386 11.5103 17.8738 11.5361 17.8137C11.5619 17.7535 11.6 17.6991 11.6475 17.654C11.7409 17.5624 11.8662 17.5109 11.9971 17.5109C12.1279 17.5109 12.2537 17.5624 12.3472 17.654C12.3976 17.6962 12.4352 17.7517 12.4561 17.8141C12.4839 17.8735 12.4977 17.9385 12.4961 18.0041C12.4933 18.1358 12.4398 18.261 12.3467 18.3542C12.2535 18.4474 12.1278 18.5013 11.9961 18.5041C11.9313 18.5062 11.867 18.4931 11.8081 18.466L11.8071 18.4641ZM11.4995 14.8781C11.3199 14.1131 10.8784 13.435 10.2515 12.9611C9.44834 12.3536 8.86018 11.505 8.57324 10.5397C8.46472 9.9225 8.55708 9.28677 8.83643 8.72577C9.122 8.13392 9.56832 7.63484 10.1245 7.28485C10.6807 6.93487 11.3243 6.74812 11.9814 6.74677H11.9883C12.9145 6.74994 13.8018 7.12052 14.4556 7.77655C15.1094 8.43258 15.4761 9.32058 15.4761 10.2468C15.4761 10.3794 15.4238 10.5065 15.3301 10.6003C15.2363 10.694 15.1087 10.7468 14.9761 10.7468C14.8435 10.7468 14.7163 10.694 14.6226 10.6003C14.5288 10.5065 14.4761 10.3794 14.4761 10.2468C14.4766 9.91969 14.4128 9.59601 14.2881 9.29364C14.1634 8.99127 13.9805 8.71616 13.7495 8.48456C13.5186 8.25296 13.2444 8.0691 12.9424 7.94354C12.6404 7.81798 12.3163 7.75351 11.9893 7.75311H11.9844C11.5144 7.7541 11.0539 7.88724 10.6562 8.13788C10.2586 8.38851 9.93994 8.74648 9.73633 9.17011C9.55461 9.52819 9.48923 9.93372 9.54932 10.3307C9.78427 11.0634 10.2407 11.7056 10.8555 12.1682C11.6685 12.7824 12.2411 13.6612 12.4751 14.653C12.505 14.7822 12.4827 14.9179 12.4126 15.0305C12.3425 15.143 12.2302 15.2231 12.1011 15.2531C12.0644 15.2619 12.027 15.2659 11.9893 15.2658C11.8761 15.2663 11.7661 15.2285 11.6772 15.1584C11.5884 15.0883 11.5263 14.9902 11.5005 14.8801L11.4995 14.8781Z" fill="white"/>
</svg>
