<svg width="24" height="25" viewBox="0 0 24 25" fill="none" xmlns="http://www.w3.org/2000/svg">
<path d="M7.44017 21.4538C5.7444 20.6227 4.30129 19.3541 3.26 17.7785C2.2187 16.203 1.61683 14.3778 1.51683 12.4919C1.41683 10.6061 1.82231 8.7278 2.69115 7.05101C3.55999 5.37422 4.86036 3.9597 6.45873 2.95384L2.97679 2.50804C2.91146 2.4997 2.84841 2.47873 2.79125 2.44603C2.73408 2.41332 2.68409 2.3697 2.64379 2.31761C2.60348 2.26552 2.57368 2.20587 2.55638 2.14232C2.53909 2.07877 2.53437 2.01234 2.54271 1.947C2.55105 1.88167 2.57251 1.81863 2.60521 1.76146C2.63792 1.70429 2.68154 1.6543 2.73363 1.614C2.78572 1.5737 2.84537 1.54389 2.90892 1.52659C2.97247 1.5093 3.03841 1.50458 3.10375 1.51292L8.10375 2.15599C8.21976 2.15957 8.33143 2.20305 8.41918 2.27904C8.44482 2.30104 8.46809 2.32573 8.489 2.35228C8.56927 2.45787 8.60525 2.59025 8.5891 2.72191L7.92503 7.89183C7.90984 8.01342 7.85022 8.12554 7.75804 8.20628C7.66587 8.28703 7.54757 8.33076 7.42503 8.32982C7.40374 8.3317 7.38236 8.3317 7.36107 8.32982C7.29566 8.32167 7.2323 8.30094 7.17503 8.26829C7.11777 8.23565 7.06742 8.19201 7.02709 8.13988C6.98675 8.08774 6.95739 8.02821 6.94017 7.96458C6.92296 7.90095 6.91844 7.83463 6.92699 7.76927L7.47484 3.51683C5.93956 4.36046 4.66429 5.60804 3.78685 7.12425C2.90941 8.64046 2.46334 10.3679 2.49681 12.1194C2.53028 13.8708 3.04207 15.5797 3.97679 17.0613C4.91152 18.5428 6.23365 19.7408 7.80003 20.5251C8.92015 21.0758 10.1379 21.3998 11.3835 21.4792C12.6292 21.5586 13.8783 21.392 15.0593 20.988C16.2403 20.5841 17.3298 19.9509 18.2659 19.1252C19.2019 18.2995 19.9657 17.2973 20.5139 16.176C21.6243 13.8991 21.7941 11.2767 20.9861 8.87572C20.178 6.47476 18.4572 4.48816 16.196 3.34593C16.0773 3.28626 15.9873 3.18201 15.9455 3.05589C15.9038 2.92977 15.9137 2.79225 15.9734 2.67357C16.033 2.55488 16.1373 2.46481 16.2634 2.42308C16.3895 2.38135 16.5271 2.39124 16.6457 2.45091C19.1408 3.71263 21.0398 5.90513 21.9319 8.55491C22.824 11.2047 22.6377 14.0992 21.4138 16.613C20.2022 19.1084 18.0497 21.0209 15.4289 21.9299C12.8081 22.839 9.93332 22.6703 7.43675 21.4612L7.44017 21.4538Z" fill="white"/>
</svg>
