<svg width="24" height="25" viewBox="0 0 24 25" fill="none" xmlns="http://www.w3.org/2000/svg">
<path d="M5.99805 19.505C5.60022 19.505 5.2188 19.3469 4.9375 19.0656C4.6562 18.7842 4.49805 18.4028 4.49805 18.005V17.005C4.10022 17.005 3.7188 16.8469 3.4375 16.5656C3.1562 16.2842 2.99805 15.9028 2.99805 15.505V14.505C2.60022 14.505 2.2188 14.3469 1.9375 14.0656C1.6562 13.7842 1.49805 13.4028 1.49805 13.005V6.005C1.49805 5.60718 1.6562 5.22576 1.9375 4.94446C2.2188 4.66315 2.60022 4.505 2.99805 4.505H17.998C18.3959 4.505 18.7778 4.66315 19.0591 4.94446C19.3404 5.22576 19.498 5.60718 19.498 6.005V7.005C19.8959 7.005 20.2778 7.16315 20.5591 7.44446C20.8404 7.72576 20.998 8.10718 20.998 8.505V9.505C21.3959 9.505 21.7778 9.66315 22.0591 9.94446C22.3404 10.2258 22.498 10.6072 22.498 11.005V18.005C22.498 18.4028 22.3404 18.7842 22.0591 19.0656C21.7778 19.3469 21.3959 19.505 20.998 19.505H5.99805ZM5.49805 18.005C5.49805 18.1376 5.55076 18.2648 5.64453 18.3585C5.7383 18.4523 5.86544 18.505 5.99805 18.505H20.998C21.1307 18.505 21.2583 18.4523 21.3521 18.3585C21.4458 18.2648 21.498 18.1376 21.498 18.005V11.005C21.498 10.8724 21.4458 10.7453 21.3521 10.6515C21.2583 10.5577 21.1307 10.505 20.998 10.505V15.505C20.998 15.9028 20.8404 16.2842 20.5591 16.5656C20.2778 16.8469 19.8959 17.005 19.498 17.005H16.3335C16.3093 17.0084 16.2847 17.0099 16.2603 17.0099C16.2362 17.0101 16.2123 17.0086 16.1885 17.005H5.49951L5.49805 18.005ZM19.498 16.005C19.6307 16.005 19.7583 15.9523 19.8521 15.8585C19.9458 15.7648 19.998 15.6376 19.998 15.505V8.505C19.998 8.3724 19.9458 8.24526 19.8521 8.15149C19.7583 8.05772 19.6307 8.005 19.498 8.005V13.005C19.498 13.4028 19.3404 13.7842 19.0591 14.0656C18.7778 14.3469 18.3959 14.505 17.998 14.505H17.9814C17.9814 14.515 17.9713 14.5258 17.9653 14.5358L17.1265 16.005H19.498ZM15.9731 16.005L16.8301 14.505H14.8213C14.801 14.5062 14.7806 14.5062 14.7603 14.505C14.7399 14.5062 14.7195 14.5062 14.6992 14.505H3.99951V15.505C3.99951 15.6376 4.05174 15.7648 4.14551 15.8585C4.23928 15.9523 4.3669 16.005 4.49951 16.005H15.9751H15.9731ZM17.998 13.505C18.1307 13.505 18.2583 13.4523 18.3521 13.3585C18.4458 13.2648 18.498 13.1376 18.498 13.005V6.005C18.498 5.8724 18.4458 5.74526 18.3521 5.65149C18.2583 5.55772 18.1307 5.505 17.998 5.505H11.5601L9.37109 9.28284C9.33984 9.34259 9.29683 9.39542 9.24463 9.43811C9.19243 9.48081 9.13215 9.51258 9.06738 9.53137C9.00262 9.55016 8.93511 9.55562 8.86816 9.54749C8.80122 9.53935 8.73661 9.51776 8.67822 9.48401C8.61984 9.45026 8.56878 9.40515 8.52832 9.3512C8.48786 9.29725 8.45843 9.23554 8.44238 9.17004C8.42634 9.10455 8.42411 9.03639 8.43506 8.96985C8.446 8.90331 8.47017 8.83975 8.50635 8.78284L10.4062 5.50696H3.00049C2.86788 5.50696 2.74025 5.55967 2.64648 5.65344C2.55272 5.74721 2.50049 5.87435 2.50049 6.00696V13.007C2.50049 13.1396 2.55272 13.2667 2.64648 13.3605C2.74025 13.4542 2.86788 13.507 3.00049 13.507H14.4771L15.6001 11.5421C15.6664 11.4269 15.7759 11.3423 15.9043 11.3077C16.0327 11.2731 16.1694 11.2912 16.2847 11.3575C16.3999 11.4238 16.484 11.5329 16.5186 11.6613C16.5532 11.7896 16.5355 11.9269 16.4692 12.0421L15.6304 13.5109L17.998 13.505ZM4.46826 10.631V10.402C4.47526 9.52798 4.4862 8.06591 3.8042 7.38391L4.51123 6.67786C5.48923 7.65586 5.47624 9.37781 5.46924 10.4088V10.63L4.46826 10.631Z" fill="white"/>
</svg>
