<svg width="24" height="25" viewBox="0 0 24 25" fill="none" xmlns="http://www.w3.org/2000/svg">
<path d="M2.99805 19.505C2.60022 19.505 2.2188 19.3468 1.9375 19.0655C1.6562 18.7842 1.49805 18.4028 1.49805 18.005V10.005C1.49805 9.60716 1.6562 9.22575 1.9375 8.94444C2.2188 8.66314 2.60022 8.50499 2.99805 8.50499H12.1982C12.2538 8.49528 12.3106 8.49528 12.3662 8.50499H13.9941C14.1267 8.50499 14.2539 8.55771 14.3477 8.65147C14.4414 8.74524 14.4941 8.87238 14.4941 9.00499C14.4941 9.1376 14.4414 9.26474 14.3477 9.3585C14.2539 9.45227 14.1267 9.50499 13.9941 9.50499H12.5674L10.1401 13.755C10.0964 13.8315 10.0332 13.8948 9.95703 13.9391C9.88082 13.9833 9.79419 14.0069 9.70605 14.0069C9.61886 14.0069 9.5336 13.9846 9.45752 13.942C9.40019 13.9095 9.34954 13.8661 9.30908 13.8141C9.26863 13.7621 9.23906 13.7023 9.22168 13.6388C9.2043 13.5752 9.19965 13.5088 9.20801 13.4435C9.21637 13.3781 9.23769 13.3151 9.27051 13.2579L11.4165 9.50499H2.99219C2.85958 9.50499 2.73244 9.55771 2.63867 9.65147C2.5449 9.74524 2.49219 9.87238 2.49219 10.005V18.005C2.49219 18.1376 2.5449 18.2647 2.63867 18.3585C2.73244 18.4523 2.85958 18.505 2.99219 18.505H16.9922L18.2642 16.297C18.2954 16.2372 18.3384 16.1844 18.3906 16.1417C18.4428 16.099 18.5031 16.0672 18.5679 16.0484C18.6326 16.0297 18.7006 16.0242 18.7676 16.0323C18.8345 16.0405 18.8991 16.0621 18.9575 16.0958C19.0159 16.1296 19.067 16.1747 19.1074 16.2286C19.1479 16.2826 19.1768 16.3443 19.1929 16.4098C19.2089 16.4753 19.2116 16.5434 19.2007 16.61C19.1897 16.6765 19.1656 16.7401 19.1294 16.797L18.144 18.505H20.9922C21.1248 18.505 21.2519 18.4523 21.3457 18.3585C21.4395 18.2647 21.4922 18.1376 21.4922 18.005V12.2657C21.4922 12.1331 21.5449 12.006 21.6387 11.9122C21.7324 11.8184 21.8596 11.7657 21.9922 11.7657C22.1248 11.7657 22.2519 11.8184 22.3457 11.9122C22.4395 12.006 22.4922 12.1331 22.4922 12.2657V18.005C22.4922 18.4028 22.334 18.7842 22.0527 19.0655C21.7714 19.3468 21.39 19.505 20.9922 19.505H2.99805ZM4.79834 15.2569V15.0011C4.80534 14.0221 4.81839 12.382 4.04639 11.609L4.75244 10.901C5.82244 11.971 5.80834 13.8721 5.79834 15.0011V15.2511L4.79834 15.2569ZM15.498 8.00499C15.498 7.31275 15.7038 6.63574 16.0884 6.06016C16.473 5.48459 17.0192 5.03601 17.6587 4.7711C18.2982 4.5062 19.0022 4.43732 19.6812 4.57237C20.3601 4.70742 20.9837 5.04041 21.4731 5.52989C21.9626 6.01938 22.2961 6.64295 22.4312 7.32188C22.5662 8.00082 22.4968 8.7048 22.2319 9.34434C21.967 9.98389 21.5184 10.5306 20.9429 10.9151C20.3673 11.2997 19.6903 11.505 18.998 11.505C18.07 11.5047 17.1801 11.1359 16.5239 10.4796C15.8678 9.82325 15.4995 8.93307 15.4995 8.00499H15.498ZM16.498 8.00499C16.498 8.49944 16.6447 8.98254 16.9194 9.39366C17.1941 9.80478 17.5847 10.1253 18.0415 10.3146C18.4983 10.5038 19.0009 10.5531 19.4858 10.4566C19.9708 10.3602 20.4165 10.1222 20.7661 9.77257C21.1157 9.42294 21.3537 8.97773 21.4502 8.49278C21.5467 8.00783 21.4973 7.50477 21.3081 7.04796C21.1189 6.59114 20.7983 6.20108 20.3872 5.92638C19.9761 5.65167 19.4925 5.50499 18.998 5.50499C18.3352 5.50525 17.6996 5.7686 17.231 6.23741C16.7623 6.70622 16.4995 7.34212 16.4995 8.00499H16.498ZM17.4575 9.03184C17.384 8.92162 17.3569 8.78678 17.3828 8.65684C17.4087 8.52691 17.4851 8.41263 17.5952 8.33897L18.4951 7.73888V6.50499C18.4951 6.37238 18.5478 6.24524 18.6416 6.15147C18.7354 6.05771 18.8625 6.00499 18.9951 6.00499C19.1277 6.00499 19.2549 6.05771 19.3486 6.15147C19.4424 6.24524 19.4951 6.37238 19.4951 6.50499V8.00499C19.4952 8.0875 19.4749 8.16856 19.436 8.24132C19.3971 8.31408 19.3412 8.37627 19.2725 8.42198L18.1475 9.171C18.037 9.24432 17.9019 9.2705 17.772 9.24425C17.642 9.21799 17.5274 9.14131 17.4541 9.03087L17.4575 9.03184Z" fill="white"/>
</svg>
