<svg width="22" height="22" viewBox="0 0 22 22" fill="none" xmlns="http://www.w3.org/2000/svg">
<path d="M0.5 11.0049C0.5 8.92824 1.11626 6.89816 2.27002 5.17145C3.42377 3.44473 5.06331 2.09898 6.98193 1.30426C8.90056 0.50954 11.012 0.30146 13.0488 0.706604C15.0856 1.11175 16.9564 2.11169 18.4248 3.58014C19.8933 5.04859 20.8932 6.9198 21.2983 8.9566C21.7035 10.9934 21.4959 13.1044 20.7012 15.023C19.9065 16.9416 18.5602 18.5817 16.8335 19.7354C15.1068 20.8892 13.0767 21.5049 11 21.5049C8.2162 21.5018 5.54755 20.3943 3.5791 18.4258C1.61066 16.4574 0.503176 13.7887 0.5 11.0049ZM1.5 11.0049C1.5 12.8839 2.0572 14.7205 3.10107 16.2828C4.14495 17.845 5.62885 19.0628 7.36475 19.7818C9.10064 20.5008 11.0107 20.6889 12.8535 20.3223C14.6963 19.9558 16.3892 19.0508 17.7178 17.7222C19.0464 16.3936 19.9513 14.7008 20.3179 12.858C20.6844 11.0152 20.4959 9.1051 19.7769 7.3692C19.0578 5.6333 17.8406 4.14989 16.2783 3.10602C14.7161 2.06215 12.8789 1.50494 11 1.50494C8.48159 1.50838 6.0678 2.5102 4.28711 4.29108C2.50642 6.07196 1.50464 8.48654 1.50146 11.0049H1.5ZM13.6475 14.3589L11.0015 11.713L8.35547 14.3589C8.30891 14.4056 8.25331 14.4426 8.19238 14.4678C8.13146 14.4931 8.06594 14.506 8 14.5059C7.9345 14.506 7.87001 14.4931 7.80957 14.4678C7.74913 14.4426 7.6944 14.4056 7.64844 14.3589C7.5547 14.2652 7.50195 14.138 7.50195 14.0054C7.50195 13.8729 7.5547 13.7457 7.64844 13.6519L10.2944 11.0059L7.64844 8.35992C7.55455 8.26604 7.50146 8.1387 7.50146 8.00592C7.50146 7.87315 7.55455 7.7458 7.64844 7.65192C7.74232 7.55803 7.86967 7.50543 8.00244 7.50543C8.13522 7.50543 8.26256 7.55803 8.35645 7.65192L11.0024 10.2979L13.6484 7.65192C13.7423 7.55803 13.8697 7.50543 14.0024 7.50543C14.1352 7.50543 14.2626 7.55803 14.3564 7.65192C14.4503 7.7458 14.5029 7.87315 14.5029 8.00592C14.5029 8.1387 14.4503 8.26604 14.3564 8.35992L11.7104 11.0059L14.3564 13.6519C14.4266 13.7219 14.4743 13.8111 14.4937 13.9083C14.513 14.0055 14.5029 14.1063 14.4648 14.1978C14.4268 14.2893 14.3623 14.3676 14.2798 14.4224C14.1972 14.4773 14.1006 14.5063 14.0015 14.5059C13.936 14.5062 13.871 14.4934 13.8105 14.4683C13.7501 14.4433 13.6955 14.4064 13.6494 14.3599L13.6475 14.3589Z" fill="white"/>
</svg>
