<svg width="24" height="25" viewBox="0 0 24 25" fill="none" xmlns="http://www.w3.org/2000/svg">
<path d="M3.00195 19.608C2.60413 19.608 2.22222 19.4499 1.94092 19.1686C1.65961 18.8873 1.50195 18.5059 1.50195 18.108V10.108C1.50195 9.71022 1.65961 9.3288 1.94092 9.0475C2.22222 8.76619 2.60413 8.60805 3.00195 8.60805H14.3018C14.4344 8.60805 14.5615 8.66076 14.6553 8.75453C14.749 8.8483 14.8018 8.97544 14.8018 9.10805C14.8018 9.24065 14.749 9.36779 14.6553 9.46156C14.5615 9.55533 14.4344 9.60805 14.3018 9.60805H12.5786L10.1479 13.861C10.1151 13.9179 10.0712 13.9679 10.019 14.0079C9.96693 14.048 9.90771 14.0773 9.84424 14.0944C9.78077 14.1114 9.71408 14.1156 9.64893 14.1071C9.58377 14.0985 9.52128 14.0774 9.46436 14.0446C9.40743 14.0117 9.35741 13.9678 9.31738 13.9157C9.27735 13.8635 9.248 13.8043 9.23096 13.7409C9.21392 13.6774 9.20972 13.6112 9.21826 13.546C9.22681 13.4809 9.24793 13.4179 9.28076 13.361L11.4277 9.60316H3.00293C2.87032 9.60316 2.74318 9.65539 2.64941 9.74916C2.55565 9.84293 2.50293 9.97055 2.50293 10.1032V18.1032C2.50293 18.2358 2.55565 18.3629 2.64941 18.4567C2.74318 18.5504 2.87032 18.6032 3.00293 18.6032H17.0029L18.272 16.403C18.3032 16.3432 18.3462 16.2904 18.3984 16.2477C18.4506 16.205 18.5109 16.1732 18.5757 16.1544C18.6404 16.1356 18.708 16.1302 18.7749 16.1383C18.8418 16.1465 18.9065 16.168 18.9648 16.2018C19.0232 16.2355 19.0743 16.2807 19.1147 16.3346C19.1552 16.3886 19.1842 16.4503 19.2002 16.5158C19.2162 16.5813 19.219 16.6494 19.208 16.716C19.1971 16.7825 19.1729 16.8461 19.1367 16.903L18.1558 18.6032H20.9995C21.1321 18.6032 21.2597 18.5504 21.3535 18.4567C21.4473 18.3629 21.4995 18.2358 21.4995 18.1032V13.3688C21.4995 13.2362 21.5522 13.109 21.646 13.0153C21.7398 12.9215 21.8669 12.8688 21.9995 12.8688C22.1321 12.8688 22.2597 12.9215 22.3535 13.0153C22.4473 13.109 22.4995 13.2362 22.4995 13.3688V18.1032C22.4995 18.501 22.3419 18.8824 22.0605 19.1637C21.7792 19.445 21.3973 19.6032 20.9995 19.6032L3.00195 19.608ZM4.80176 15.361V15.1051C4.80876 14.1271 4.82183 12.488 4.04883 11.715L4.75488 11.0079C5.82488 12.0779 5.81073 13.977 5.80273 15.108V15.3571L4.80176 15.361ZM17.6479 9.46107C17.6011 9.4144 17.5638 9.35861 17.5386 9.2975C17.5133 9.23639 17.5007 9.17123 17.501 9.10512V9.10512V6.10512C17.501 5.97251 17.5532 5.84537 17.647 5.7516C17.7407 5.65783 17.8684 5.60512 18.001 5.60512C18.1336 5.60512 18.2607 5.65783 18.3545 5.7516C18.4483 5.84537 18.501 5.97251 18.501 6.10512V7.90492L21.6479 4.75892C21.7421 4.6677 21.8679 4.61735 21.999 4.6183C22.1301 4.61925 22.2558 4.67123 22.3486 4.76381C22.4415 4.85638 22.4943 4.98183 22.4956 5.11293C22.4969 5.24403 22.4469 5.37055 22.356 5.46498L19.2119 8.60902H21.001C21.1336 8.60902 21.2607 8.66174 21.3545 8.75551C21.4483 8.84927 21.501 8.97641 21.501 9.10902C21.501 9.24163 21.4483 9.36877 21.3545 9.46254C21.2607 9.55631 21.1336 9.60902 21.001 9.60902H18.001C17.8686 9.60979 17.7412 9.55796 17.647 9.46498L17.6479 9.46107Z" fill="white"/>
</svg>
