<svg width="24" height="25" viewBox="0 0 24 25" fill="none" xmlns="http://www.w3.org/2000/svg">
<path d="M6.00195 22.505C5.33891 22.505 4.70273 22.2414 4.23389 21.7726C3.76505 21.3037 3.50195 20.668 3.50195 20.005V7.005C3.50195 6.34196 3.76505 5.70578 4.23389 5.23694C4.70273 4.7681 5.33891 4.505 6.00195 4.505H7.50195V2.005C7.50195 1.8724 7.55418 1.74526 7.64795 1.65149C7.74172 1.55772 7.86934 1.505 8.00195 1.505C8.13456 1.505 8.2617 1.55772 8.35547 1.65149C8.44924 1.74526 8.50195 1.8724 8.50195 2.005V4.505H15.502V2.005C15.502 1.8724 15.5542 1.74526 15.6479 1.65149C15.7417 1.55772 15.8693 1.505 16.002 1.505C16.1346 1.505 16.2617 1.55772 16.3555 1.65149C16.4492 1.74526 16.502 1.8724 16.502 2.005V4.505H18.002C18.665 4.505 19.3007 4.7681 19.7695 5.23694C20.2384 5.70578 20.502 6.34196 20.502 7.005V20.005C20.502 20.668 20.2384 21.3037 19.7695 21.7726C19.3007 22.2414 18.665 22.505 18.002 22.505H6.00195ZM4.50195 20.005C4.50195 20.4028 4.65961 20.7842 4.94092 21.0656C5.22222 21.3469 5.60413 21.505 6.00195 21.505H18.002C18.3998 21.505 18.7812 21.3469 19.0625 21.0656C19.3438 20.7842 19.502 20.4028 19.502 20.005V11.88H4.50195V20.005ZM4.50195 7.005V10.881H19.502V7.005C19.502 6.60718 19.3438 6.22576 19.0625 5.94446C18.7812 5.66315 18.3998 5.505 18.002 5.505H16.502V8.005C16.502 8.13761 16.4492 8.26475 16.3555 8.35852C16.2617 8.45229 16.1346 8.505 16.002 8.505C15.8693 8.505 15.7417 8.45229 15.6479 8.35852C15.5542 8.26475 15.502 8.13761 15.502 8.005V5.505H8.50195V8.005C8.50195 8.13761 8.44924 8.26475 8.35547 8.35852C8.2617 8.45229 8.13456 8.505 8.00195 8.505C7.86934 8.505 7.74172 8.45229 7.64795 8.35852C7.55418 8.26475 7.50195 8.13761 7.50195 8.005V5.505H6.00195C5.8048 5.50474 5.60947 5.54302 5.42725 5.61829C5.24503 5.69355 5.07944 5.80417 4.93994 5.94348C4.80044 6.0828 4.68976 6.24818 4.61426 6.4303C4.53875 6.61242 4.49951 6.80785 4.49951 7.005H4.50195ZM9.65088 18.858L7.6626 16.8717C7.5777 16.7927 7.52313 16.6868 7.50781 16.5719C7.50781 16.5649 7.50781 16.5579 7.50781 16.5509C7.50781 16.5439 7.50781 16.5451 7.50781 16.5421C7.50781 16.5391 7.50781 16.532 7.50781 16.527C7.50781 16.522 7.50781 16.5101 7.50781 16.5031C7.50781 16.4961 7.50781 16.4861 7.50781 16.4781C7.50781 16.4701 7.50781 16.4709 7.50781 16.4669C7.50781 16.4629 7.50781 16.4578 7.50781 16.4528V16.4288C7.508 16.4208 7.508 16.4129 7.50781 16.4049C7.50781 16.4049 7.50781 16.3977 7.50781 16.3937V16.381C7.50805 16.3777 7.50805 16.3741 7.50781 16.3707V16.3561V16.3497C7.50781 16.3437 7.50767 16.3377 7.51367 16.3317C7.53868 16.2639 7.57849 16.2028 7.62988 16.152L9.62988 14.152C9.72418 14.0609 9.85035 14.0102 9.98145 14.0114C10.1125 14.0125 10.2379 14.0651 10.3306 14.1578C10.4233 14.2505 10.4759 14.3763 10.4771 14.5074C10.4782 14.6385 10.428 14.7647 10.3369 14.859L9.18799 16.006H12.981C13.1136 16.006 13.2407 16.0587 13.3345 16.1525C13.4282 16.2462 13.481 16.3734 13.481 16.506C13.481 16.6386 13.4282 16.7657 13.3345 16.8595C13.2407 16.9533 13.1136 17.006 12.981 17.006H9.18896L10.3359 18.152C10.4061 18.222 10.4538 18.3111 10.4731 18.4083C10.4925 18.5055 10.4824 18.6064 10.4443 18.6979C10.4063 18.7894 10.3418 18.8676 10.2593 18.9225C10.1767 18.9773 10.0801 19.0064 9.98096 19.006C9.85569 19.0016 9.73685 18.9493 9.64893 18.86L9.65088 18.858ZM15.6509 16.858C15.6006 16.8152 15.5621 16.7599 15.5396 16.6979C15.5117 16.6385 15.498 16.5735 15.4995 16.5079C15.4988 16.4424 15.5123 16.3773 15.5381 16.317C15.5639 16.2568 15.602 16.2026 15.6499 16.1578C15.7434 16.0662 15.8686 16.0148 15.9995 16.0148C16.1304 16.0148 16.2561 16.0662 16.3496 16.1578C16.3979 16.2023 16.4365 16.2567 16.4624 16.317C16.4883 16.3773 16.5006 16.4423 16.4995 16.5079C16.502 16.5736 16.4887 16.6388 16.46 16.6979C16.4058 16.8178 16.3098 16.9138 16.1899 16.9679C16.1306 16.9959 16.0651 17.0097 15.9995 17.0079C15.9337 17.0082 15.8689 16.9947 15.8086 16.9684C15.7483 16.942 15.6944 16.9035 15.6499 16.8551L15.6509 16.858Z" fill="white"/>
</svg>
