<svg width="24" height="25" viewBox="0 0 24 25" fill="none" xmlns="http://www.w3.org/2000/svg">
<path d="M1.49805 12.0051C1.49805 9.92836 2.11431 7.89829 3.26807 6.17157C4.42182 4.44485 6.06136 3.0991 7.97998 2.30438C9.8986 1.50966 12.0101 1.30158 14.0469 1.70673C16.0837 2.11187 17.9544 3.11181 19.4229 4.58026C20.8913 6.04871 21.8912 7.91993 22.2964 9.95673C22.7015 11.9935 22.4939 14.1045 21.6992 16.0231C20.9045 17.9418 19.5583 19.5818 17.8315 20.7355C16.1048 21.8893 14.0748 22.5051 11.998 22.5051C9.21425 22.5019 6.54559 21.3944 4.57715 19.426C2.6087 17.4575 1.50122 14.7889 1.49805 12.0051ZM2.49805 12.0051C2.49805 13.884 3.05525 15.7206 4.09912 17.2829C5.14299 18.8452 6.62689 20.0629 8.36279 20.7819C10.0987 21.501 12.0087 21.689 13.8516 21.3224C15.6944 20.9559 17.3872 20.0509 18.7158 18.7224C20.0444 17.3938 20.9494 15.7009 21.3159 13.8581C21.6825 12.0153 21.4939 10.1052 20.7749 8.36932C20.0559 6.63343 18.8386 5.15001 17.2764 4.10614C15.7141 3.06227 13.877 2.50507 11.998 2.50507C9.47964 2.50851 7.06585 3.51032 5.28516 5.2912C3.50446 7.07208 2.50269 9.48666 2.49951 12.0051H2.49805ZM9.14648 17.3591L6.66211 14.8752C6.61338 14.8311 6.57404 14.7778 6.5459 14.7184C6.51776 14.6591 6.50131 14.5946 6.49805 14.529C6.49805 14.523 6.49805 14.5169 6.49805 14.5099C6.49793 14.444 6.5109 14.3785 6.53613 14.3176C6.56136 14.2566 6.59881 14.2015 6.64551 14.155L9.14551 11.655C9.23994 11.564 9.36597 11.514 9.49707 11.5153C9.62817 11.5166 9.75362 11.569 9.84619 11.6618C9.93877 11.7546 9.99124 11.8803 9.99219 12.0114C9.99314 12.1425 9.9423 12.2688 9.85107 12.363L8.2041 14.0099H16.9971C17.1297 14.0099 17.2573 14.0627 17.3511 14.1564C17.4448 14.2502 17.4971 14.3773 17.4971 14.5099C17.4971 14.6426 17.4448 14.7697 17.3511 14.8635C17.2573 14.9572 17.1297 15.0099 16.9971 15.0099H8.20215L9.8501 16.6569C9.89666 16.7034 9.93378 16.7588 9.95898 16.8195C9.98419 16.8803 9.99707 16.9452 9.99707 17.0109C9.99707 17.0767 9.98419 17.1421 9.95898 17.2028C9.93378 17.2636 9.89666 17.3185 9.8501 17.3649C9.756 17.4585 9.62883 17.5113 9.49609 17.5119C9.36441 17.5095 9.23937 17.4554 9.14746 17.361L9.14648 17.3591ZM14.1465 12.3591C14.0999 12.3126 14.0628 12.2572 14.0376 12.1965C14.0124 12.1357 13.9995 12.0708 13.9995 12.0051C13.9995 11.9393 14.0124 11.8739 14.0376 11.8132C14.0628 11.7524 14.0999 11.6975 14.1465 11.6511L15.7915 10.006H6.99951C6.8669 10.006 6.73928 9.95333 6.64551 9.85956C6.55174 9.76579 6.49951 9.63865 6.49951 9.50604C6.49951 9.37343 6.55174 9.2463 6.64551 9.15253C6.73928 9.05876 6.8669 9.00604 6.99951 9.00604H15.7915L14.1455 7.35907C14.0582 7.26408 14.0109 7.13894 14.0137 7.00995C14.0164 6.88096 14.0689 6.75786 14.1602 6.66669C14.2515 6.57552 14.3744 6.52327 14.5034 6.52069C14.6324 6.51811 14.7572 6.56557 14.8521 6.65302L17.3413 9.14179C17.3547 9.15438 17.3675 9.16777 17.3794 9.18182C17.4613 9.27758 17.504 9.40066 17.499 9.52655C17.494 9.65244 17.4413 9.77207 17.3521 9.86102L14.8521 12.361C14.8055 12.4077 14.7504 12.4447 14.6895 12.4699C14.6285 12.4951 14.563 12.5081 14.4971 12.508C14.4317 12.5079 14.3669 12.4948 14.3066 12.4694C14.2464 12.444 14.1922 12.4068 14.1465 12.36V12.3591Z" fill="white"/>
</svg>
