<svg width="24" height="25" viewBox="0 0 24 25" fill="none" xmlns="http://www.w3.org/2000/svg">
<path d="M21.6465 22.3602L16.6465 17.3602C16.5613 17.2649 16.516 17.1407 16.5195 17.013C16.5231 16.8853 16.5757 16.7635 16.666 16.6732C16.7564 16.5828 16.8777 16.5307 17.0054 16.5272C17.1331 16.5236 17.2573 16.569 17.3525 16.6541L22.3525 21.6541C22.4464 21.748 22.4995 21.8754 22.4995 22.0081C22.4995 22.1409 22.4464 22.2682 22.3525 22.3621C22.2587 22.456 22.1313 22.5086 21.9985 22.5086C21.8658 22.5086 21.7384 22.456 21.6445 22.3621L21.6465 22.3602ZM1.50195 10.0072C1.50195 8.32601 2.00009 6.6828 2.93408 5.28498C3.86807 3.88717 5.19585 2.79747 6.74902 2.15413C8.3022 1.51078 10.0113 1.34226 11.6602 1.67024C13.309 1.99821 14.8235 2.80815 16.0122 3.9969C17.201 5.18564 18.0104 6.70011 18.3384 8.34895C18.6664 9.99779 18.4978 11.7069 17.8545 13.2601C17.2111 14.8133 16.1219 16.1405 14.7241 17.0745C13.3263 18.0085 11.6831 18.5072 10.002 18.5072C7.74817 18.5045 5.58704 17.6079 3.99365 16.014C2.40027 14.42 1.50478 12.259 1.50293 10.0052L1.50195 10.0072ZM2.50195 10.0072C2.50195 11.4905 2.94151 12.9403 3.76562 14.1737C4.58974 15.407 5.76139 16.3687 7.13184 16.9364C8.50228 17.504 10.01 17.6525 11.4648 17.3631C12.9197 17.0737 14.2563 16.3593 15.3052 15.3104C16.3541 14.2615 17.068 12.9249 17.3574 11.47C17.6468 10.0152 17.4983 8.50748 16.9307 7.13704C16.363 5.76659 15.4018 4.59542 14.1685 3.77131C12.9351 2.9472 11.4853 2.50715 10.002 2.50715C8.01383 2.50927 6.10767 3.29976 4.70166 4.70539C3.29565 6.11103 2.5046 8.01707 2.50195 10.0052V10.0072Z" fill="white"/>
</svg>
