<svg width="24" height="25" viewBox="0 0 24 25" fill="none" xmlns="http://www.w3.org/2000/svg">
<path d="M7.854 21.506C7.32142 21.5074 6.80208 21.338 6.37256 21.0231C5.94304 20.7082 5.62568 20.2643 5.4668 19.756L1.58154 7.29504L1.50684 6.83264L1.5 4.31897C1.49987 4.08098 1.54619 3.84502 1.63721 3.62512C1.72822 3.40522 1.86199 3.20552 2.03027 3.03723C2.19856 2.86895 2.39826 2.73567 2.61816 2.64465C2.83807 2.55364 3.07402 2.50683 3.31201 2.50696H3.75586C3.99376 2.50683 4.22943 2.55361 4.44922 2.64465C4.66901 2.73569 4.86849 2.86892 5.03662 3.03723C5.20475 3.20554 5.33791 3.40572 5.42871 3.62561C5.51951 3.8455 5.56631 4.08107 5.56592 4.31897V6.09094C5.56735 6.39696 5.61758 6.70069 5.71484 6.99085L7.00781 10.8448H11.1479C11.6509 10.8426 12.1426 10.9931 12.5581 11.2765C12.9736 11.5599 13.2931 11.9627 13.4746 12.4318L14.4209 14.8409H14.6919C14.966 14.8449 15.2355 14.9098 15.4814 15.0309C15.7274 15.1519 15.9435 15.3259 16.1138 15.5406L18.5967 17.924C18.6757 17.999 18.7774 18.0461 18.8857 18.0582C18.9941 18.0703 19.1031 18.0466 19.1968 17.9908L20.8687 16.9908C21.0035 16.9102 21.1565 16.8648 21.3135 16.8585C21.4704 16.8523 21.6263 16.8856 21.7671 16.9552C21.9079 17.0248 22.0289 17.1284 22.1191 17.257C22.2094 17.3855 22.266 17.535 22.2837 17.691L22.4839 19.485C22.4889 19.545 22.4927 19.608 22.4927 19.673C22.4956 20.1539 22.3081 20.6163 21.9707 20.9591C21.6333 21.3019 21.1738 21.4973 20.6929 21.5021L7.854 21.506ZM2.73877 3.7428C2.66256 3.81789 2.60224 3.90725 2.56104 4.00598C2.51983 4.10471 2.49832 4.21101 2.49854 4.31799V6.75598L2.55371 7.06897L6.42285 19.4557C6.51758 19.7607 6.70769 20.0273 6.96533 20.2159C7.22297 20.4046 7.53466 20.5058 7.854 20.504H20.689C20.9048 20.5022 21.1107 20.4146 21.2622 20.2609C21.4137 20.1071 21.4979 19.8995 21.4966 19.6837L21.3027 17.8971L19.709 18.8468C19.4271 19.0123 19.0986 19.0819 18.7739 19.0446C18.4492 19.0072 18.1456 18.8649 17.9087 18.6398L15.3809 16.2091C15.301 16.0993 15.1973 16.009 15.0776 15.9449C14.958 15.8809 14.8256 15.8446 14.6899 15.839H8.97998C8.55888 15.8222 8.15386 15.6714 7.82422 15.4088C7.49458 15.1462 7.25748 14.7857 7.14697 14.379L6.18799 11.524C6.18799 11.51 6.17783 11.497 6.17383 11.483L4.77393 7.30676C4.64331 6.91423 4.57561 6.50366 4.57373 6.08997V4.31604C4.57386 4.20945 4.5529 4.10352 4.51221 4.00501C4.47151 3.90649 4.41175 3.81724 4.33643 3.74182C4.2611 3.66641 4.1717 3.60637 4.07324 3.56555C3.97478 3.52473 3.86928 3.50403 3.7627 3.50403H3.31885C3.21092 3.50364 3.104 3.52448 3.00439 3.56604C2.90479 3.6076 2.81441 3.66874 2.73877 3.74573V3.7428ZM21.1387 17.421H21.1299H21.1387ZM8.09863 14.09C8.14899 14.2947 8.26338 14.4778 8.42529 14.6129C8.5872 14.748 8.78805 14.8281 8.99854 14.8409H13.3457L12.5459 12.797C12.4355 12.5158 12.2425 12.2745 11.9927 12.1046C11.7429 11.9348 11.4481 11.8441 11.146 11.8448H7.3457L8.09863 14.09ZM16.4985 11.504C15.8355 11.504 15.1998 11.2404 14.731 10.7716C14.2621 10.3028 13.9985 9.66707 13.9985 9.00403V5.50403C13.9985 5.1062 14.1567 4.7243 14.438 4.44299C14.7193 4.16169 15.1007 4.00403 15.4985 4.00403H18.4985C18.8964 4.00403 19.2783 4.16169 19.5596 4.44299C19.8409 4.7243 19.9985 5.1062 19.9985 5.50403V9.00403C19.9985 9.66707 19.7354 10.3028 19.2666 10.7716C18.7978 11.2404 18.1616 11.504 17.4985 11.504H16.4985ZM14.9985 9.00403C14.9985 9.40185 15.1567 9.78327 15.438 10.0646C15.7193 10.3459 16.1007 10.504 16.4985 10.504H17.4985C17.8964 10.504 18.2783 10.3459 18.5596 10.0646C18.8409 9.78327 18.9985 9.40185 18.9985 9.00403V8.00403H14.9985V9.00403ZM18.9985 7.00403V5.50403C18.9985 5.37142 18.9463 5.24428 18.8525 5.15051C18.7588 5.05674 18.6311 5.00403 18.4985 5.00403H15.4985C15.3659 5.00403 15.2388 5.05674 15.145 5.15051C15.0513 5.24428 14.9985 5.37142 14.9985 5.50403V7.00403H18.9985ZM16.4985 6.50403C16.3659 6.50403 16.2388 6.45131 16.145 6.35754C16.0513 6.26378 15.9985 6.13664 15.9985 6.00403C15.9985 5.87142 16.0513 5.74428 16.145 5.65051C16.2388 5.55674 16.3659 5.50403 16.4985 5.50403H17.4985C17.6311 5.50403 17.7588 5.55674 17.8525 5.65051C17.9463 5.74428 17.9985 5.87142 17.9985 6.00403C17.9985 6.13664 17.9463 6.26378 17.8525 6.35754C17.7588 6.45131 17.6311 6.50403 17.4985 6.50403H16.4985Z" fill="white"/>
</svg>
