<svg width="24" height="25" viewBox="0 0 24 25" fill="none" xmlns="http://www.w3.org/2000/svg">
<path d="M3.00195 19.5054C2.60413 19.5054 2.22222 19.3473 1.94092 19.066C1.65961 18.7847 1.50195 18.4032 1.50195 18.0054V10.0054C1.50195 9.6076 1.65961 9.22618 1.94092 8.94488C2.22222 8.66357 2.60413 8.50542 3.00195 8.50542H12.2168C12.2652 8.4981 12.3144 8.4981 12.3628 8.50542H14.3008C14.4334 8.50542 14.5605 8.55814 14.6543 8.65191C14.7481 8.74567 14.8008 8.87281 14.8008 9.00542C14.8008 9.13803 14.7481 9.26517 14.6543 9.35894C14.5605 9.45271 14.4334 9.50542 14.3008 9.50542H12.5767L10.147 13.7593C10.1031 13.8353 10.0399 13.8985 9.96387 13.9424C9.88786 13.9863 9.80163 14.0093 9.71387 14.0093C9.62669 14.0092 9.54097 13.9869 9.46484 13.9444C9.34994 13.8784 9.26564 13.7695 9.23096 13.6417C9.19627 13.5138 9.21397 13.3772 9.27979 13.2623L11.4258 9.50542H3.00293C2.87032 9.50542 2.74318 9.55814 2.64941 9.65191C2.55565 9.74567 2.50293 9.87281 2.50293 10.0054V18.0054C2.50293 18.138 2.55565 18.2652 2.64941 18.3589C2.74318 18.4527 2.87032 18.5054 3.00293 18.5054H17.0029L18.2739 16.2994C18.3052 16.2396 18.3482 16.1868 18.4004 16.1441C18.4526 16.1014 18.5129 16.0696 18.5776 16.0508C18.6424 16.032 18.7099 16.0266 18.7769 16.0347C18.8438 16.0428 18.9084 16.0644 18.9668 16.0982C19.0252 16.1319 19.0762 16.1771 19.1167 16.231C19.1572 16.285 19.1866 16.3467 19.2026 16.4122C19.2187 16.4777 19.2209 16.5458 19.21 16.6124C19.199 16.6789 19.1748 16.7425 19.1387 16.7994L18.1558 18.5044H21.002C21.1346 18.5044 21.2617 18.4517 21.3555 18.358C21.4492 18.2642 21.502 18.1371 21.502 18.0044V13.2662C21.502 13.1336 21.5542 13.0064 21.6479 12.9126C21.7417 12.8189 21.8693 12.7662 22.002 12.7662C22.1346 12.7662 22.2617 12.8189 22.3555 12.9126C22.4492 13.0064 22.502 13.1336 22.502 13.2662V18.0044C22.502 18.4023 22.3438 18.7837 22.0625 19.065C21.7812 19.3463 21.3998 19.5044 21.002 19.5044L3.00195 19.5054ZM4.80176 15.2554V15.0005C4.80876 14.0215 4.82183 12.3844 4.04883 11.6104L4.75488 10.9024C5.82488 11.9704 5.81073 13.8715 5.80273 15.0025V15.2515L4.80176 15.2554ZM17.6479 9.35552C17.6014 9.30907 17.5643 9.25367 17.5391 9.19292C17.5139 9.13218 17.501 9.06728 17.501 9.00152C17.501 8.93575 17.5139 8.87037 17.5391 8.80962C17.5643 8.74888 17.6014 8.69396 17.6479 8.64751L20.7949 5.50152H19.001C18.8684 5.50152 18.7407 5.4488 18.647 5.35503C18.5532 5.26126 18.501 5.13412 18.501 5.00152C18.501 4.86891 18.5532 4.74177 18.647 4.648C18.7407 4.55423 18.8684 4.50152 19.001 4.50152H21.9819C22.0509 4.4987 22.1193 4.51013 22.1836 4.53521C22.2479 4.56028 22.3066 4.59827 22.3555 4.64702C22.4043 4.69578 22.4426 4.75416 22.4678 4.81841C22.493 4.88266 22.5046 4.9516 22.502 5.02056V8.00054C22.502 8.13315 22.4492 8.26029 22.3555 8.35405C22.2617 8.44782 22.1346 8.50054 22.002 8.50054C21.8693 8.50054 21.7417 8.44782 21.6479 8.35405C21.5542 8.26029 21.502 8.13315 21.502 8.00054V6.20855L18.355 9.35454C18.3085 9.40111 18.2531 9.43774 18.1924 9.46294C18.1316 9.48815 18.0667 9.50103 18.001 9.50103C17.9352 9.50103 17.8698 9.48815 17.8091 9.46294C17.7483 9.43774 17.6934 9.40111 17.647 9.35454L17.6479 9.35552Z" fill="white"/>
</svg>
