<svg width="25" height="25" viewBox="0 0 25 25" fill="none" xmlns="http://www.w3.org/2000/svg">
<path d="M22.001 13.005H15.001C13.8964 13.005 13.001 13.9004 13.001 15.005V22.005C13.001 23.1096 13.8964 24.005 15.001 24.005H22.001C23.1055 24.005 24.001 23.1096 24.001 22.005V15.005C24.001 13.9004 23.1055 13.005 22.001 13.005Z" fill="#57C5D0"/>
<path d="M22.001 0.00500488H15.001C13.8964 0.00500488 13.001 0.900435 13.001 2.005V9.005C13.001 10.1096 13.8964 11.005 15.001 11.005H22.001C23.1055 11.005 24.001 10.1096 24.001 9.005V2.005C24.001 0.900435 23.1055 0.00500488 22.001 0.00500488Z" fill="#57C5D0"/>
<path d="M9.00098 13.005H2.00098C0.896407 13.005 0.000976562 13.9004 0.000976562 15.005V22.005C0.000976562 23.1096 0.896407 24.005 2.00098 24.005H9.00098C10.1055 24.005 11.001 23.1096 11.001 22.005V15.005C11.001 13.9004 10.1055 13.005 9.00098 13.005Z" fill="#57C5D0"/>
<path d="M9.00098 0.00500488H2.00098C0.896407 0.00500488 0.000976562 0.900435 0.000976562 2.005V9.005C0.000976562 10.1096 0.896407 11.005 2.00098 11.005H9.00098C10.1055 11.005 11.001 10.1096 11.001 9.005V2.005C11.001 0.900435 10.1055 0.00500488 9.00098 0.00500488Z" fill="#57C5D0"/>
</svg>
