<svg width="24" height="25" viewBox="0 0 24 25" fill="none" xmlns="http://www.w3.org/2000/svg">
<path d="M22.154 13.851C22.3987 13.8513 22.6333 13.9486 22.8064 14.1216C22.9794 14.2947 23.0767 14.5293 23.077 14.774V22.159C23.0765 22.4036 22.9791 22.6381 22.8061 22.8111C22.6331 22.984 22.3986 23.0815 22.154 23.082H14.769C14.5244 23.0815 14.2899 22.984 14.1169 22.8111C13.9439 22.6381 13.8465 22.4036 13.846 22.159V14.779C13.8463 14.5343 13.9436 14.2997 14.1166 14.1266C14.2897 13.9536 14.5243 13.8563 14.769 13.856H22.154M22.154 12.933H14.769C14.2794 12.933 13.8099 13.1275 13.4637 13.4737C13.1175 13.8199 12.923 14.2894 12.923 14.779V22.164C12.923 22.6536 13.1175 23.1231 13.4637 23.4693C13.8099 23.8155 14.2794 24.01 14.769 24.01H22.154C22.6436 24.01 23.1131 23.8155 23.4593 23.4693C23.8055 23.1231 24 22.6536 24 22.164V14.779C24 14.2894 23.8055 13.8199 23.4593 13.4737C23.1131 13.1275 22.6436 12.933 22.154 12.933Z" fill="white"/>
<path d="M22.154 0.928009C22.3987 0.928274 22.6333 1.0256 22.8064 1.19864C22.9794 1.37168 23.0767 1.6063 23.077 1.85101V9.23599C23.0765 9.48062 22.9791 9.71508 22.8061 9.88806C22.6331 10.061 22.3986 10.1585 22.154 10.159H14.769C14.5244 10.1585 14.2899 10.061 14.1169 9.88806C13.9439 9.71508 13.8465 9.48062 13.846 9.23599V1.85599C13.8463 1.61127 13.9436 1.37668 14.1166 1.20364C14.2897 1.03061 14.5243 0.933279 14.769 0.933014H22.154M22.154 0.0100098H14.769C14.2794 0.0100098 13.8099 0.204498 13.4637 0.55069C13.1175 0.896882 12.923 1.3664 12.923 1.85599V9.241C12.923 9.73059 13.1175 10.2001 13.4637 10.5463C13.8099 10.8925 14.2794 11.087 14.769 11.087H22.154C22.6436 11.087 23.1131 10.8925 23.4593 10.5463C23.8055 10.2001 24 9.73059 24 9.241V1.85599C24 1.3664 23.8055 0.896882 23.4593 0.55069C23.1131 0.204498 22.6436 0.0100098 22.154 0.0100098Z" fill="white"/>
<path d="M9.231 13.851C9.47572 13.8513 9.71032 13.9486 9.88336 14.1216C10.0564 14.2947 10.1537 14.5293 10.154 14.774V22.159C10.1535 22.4036 10.0561 22.6381 9.88307 22.8111C9.71009 22.984 9.47564 23.0815 9.231 23.082H1.84599C1.60136 23.0815 1.36691 22.984 1.19392 22.8111C1.02094 22.6381 0.923533 22.4036 0.923004 22.159V14.779C0.923269 14.5343 1.0206 14.2997 1.19363 14.1266C1.36667 13.9536 1.60128 13.8563 1.84599 13.856H9.231M9.231 12.933H1.84599C1.3564 12.933 0.886872 13.1275 0.54068 13.4737C0.194488 13.8199 0 14.2894 0 14.779V22.164C0 22.6536 0.194488 23.1231 0.54068 23.4693C0.886872 23.8155 1.3564 24.01 1.84599 24.01H9.231C9.72059 24.01 10.1901 23.8155 10.5363 23.4693C10.8825 23.1231 11.077 22.6536 11.077 22.164V14.779C11.077 14.2894 10.8825 13.8199 10.5363 13.4737C10.1901 13.1275 9.72059 12.933 9.231 12.933Z" fill="white"/>
<path d="M9.231 0.928009C9.47572 0.928274 9.71032 1.0256 9.88336 1.19864C10.0564 1.37168 10.1537 1.6063 10.154 1.85101V9.23599C10.1535 9.48062 10.0561 9.71508 9.88307 9.88806C9.71009 10.061 9.47564 10.1585 9.231 10.159H1.84599C1.60136 10.1585 1.36691 10.061 1.19392 9.88806C1.02094 9.71508 0.923533 9.48062 0.923004 9.23599V1.85599C0.923269 1.61127 1.0206 1.37668 1.19363 1.20364C1.36667 1.03061 1.60128 0.933279 1.84599 0.933014H9.231M9.231 0.0100098H1.84599C1.3564 0.0100098 0.886872 0.204498 0.54068 0.55069C0.194488 0.896882 0 1.3664 0 1.85599V9.241C0 9.73059 0.194488 10.2001 0.54068 10.5463C0.886872 10.8925 1.3564 11.087 1.84599 11.087H9.231C9.72059 11.087 10.1901 10.8925 10.5363 10.5463C10.8825 10.2001 11.077 9.73059 11.077 9.241V1.85599C11.077 1.3664 10.8825 0.896882 10.5363 0.55069C10.1901 0.204498 9.72059 0.0100098 9.231 0.0100098Z" fill="white"/>
</svg>
