<svg width="24" height="25" viewBox="0 0 24 25" fill="none" xmlns="http://www.w3.org/2000/svg">
<path d="M14.0382 22.505H9.94639C9.54813 22.5037 9.16634 22.3453 8.88389 22.0646C8.60143 21.7838 8.44128 21.4032 8.4376 21.005V18.9259C8.43487 18.8145 8.39556 18.7071 8.32627 18.6198C8.25699 18.5324 8.16122 18.47 8.05332 18.442C7.9866 18.4235 7.91692 18.4186 7.84824 18.4274C7.77956 18.4361 7.71336 18.4581 7.65342 18.4928L5.81748 19.5328C5.47028 19.7321 5.05863 19.787 4.67149 19.6852C4.28434 19.5834 3.95246 19.3331 3.74815 18.9889L1.7042 15.5211C1.60233 15.3465 1.53708 15.1528 1.51182 14.9523C1.48656 14.7517 1.50184 14.5485 1.55723 14.3541C1.6106 14.1658 1.70126 13.99 1.82334 13.837C1.94542 13.6841 2.0964 13.5568 2.26817 13.463L4.09531 12.4288C4.17902 12.3844 4.24857 12.3173 4.29551 12.235C4.3266 12.1788 4.34595 12.1172 4.35313 12.0533C4.3603 11.9895 4.35485 11.9246 4.33701 11.8629C4.31918 11.8012 4.28973 11.7436 4.24961 11.6935C4.20949 11.6433 4.1594 11.6018 4.10313 11.5709L2.26719 10.5328C2.09394 10.4359 1.94169 10.3054 1.81943 10.149C1.69718 9.99266 1.6075 9.8137 1.55527 9.62219C1.50305 9.43069 1.4893 9.23061 1.51524 9.03381C1.54117 8.83701 1.60609 8.64715 1.70615 8.47571L3.75059 5.01086C3.95422 4.66536 4.28564 4.41437 4.67344 4.31213C5.06124 4.20989 5.47388 4.26476 5.82139 4.46497L7.65342 5.50305C7.7351 5.54515 7.82438 5.56946 7.91611 5.57483C8.05258 5.57485 8.18392 5.52146 8.28135 5.4259C8.37877 5.33035 8.43498 5.20052 8.4376 5.06409V3.00501C8.43899 2.80535 8.47993 2.60763 8.5582 2.42395C8.63648 2.24027 8.75011 2.07398 8.89317 1.93469C9.1817 1.65851 9.56602 1.50477 9.96543 1.50501H14.0436C14.44 1.51384 14.8195 1.66638 15.1114 1.93469C15.2539 2.07328 15.3675 2.23917 15.4454 2.422C15.5233 2.60483 15.5642 2.80138 15.5655 3.00012V5.07483C15.5684 5.16023 15.592 5.2438 15.6344 5.31799C15.7034 5.43752 15.817 5.52486 15.9503 5.56067C16.0836 5.59648 16.2257 5.57775 16.3453 5.50891L18.1822 4.46887C18.5296 4.26987 18.9415 4.21525 19.3287 4.31702C19.7159 4.41878 20.0479 4.66872 20.2525 5.01282L22.2945 8.48108L22.3165 8.5177C22.5071 8.86362 22.5525 9.27105 22.443 9.65051C22.3335 10.03 22.0781 10.3509 21.7325 10.5421L19.9054 11.5758C19.8219 11.6197 19.7524 11.6861 19.7052 11.7677C19.674 11.824 19.6543 11.8864 19.6471 11.9503C19.6399 12.0143 19.6454 12.0789 19.6632 12.1407C19.681 12.2026 19.7109 12.2604 19.7511 12.3107C19.7912 12.361 19.8412 12.4026 19.8976 12.4337L21.7306 13.4718C21.9043 13.5682 22.0567 13.6987 22.1793 13.8551C22.3019 14.0115 22.3918 14.1907 22.4439 14.3824C22.4961 14.5742 22.5096 14.7744 22.483 14.9713C22.4564 15.1682 22.3903 15.3579 22.2892 15.5289L20.2481 18.9908C20.0445 19.3368 19.7125 19.5884 19.3243 19.691C18.9362 19.7936 18.5234 19.7388 18.1754 19.5387L16.3453 18.5011C16.2669 18.4547 16.1776 18.4295 16.0865 18.4283C15.9954 18.4272 15.9058 18.4503 15.8263 18.4948C15.7467 18.5392 15.6802 18.6036 15.6334 18.6818C15.5866 18.7599 15.5608 18.849 15.5592 18.9401V21.004C15.5552 21.4029 15.3942 21.7838 15.1109 22.0646C14.8277 22.3454 14.4454 22.5035 14.0465 22.504L14.0382 22.505ZM8.31113 17.4791C8.63018 17.5649 8.91267 17.7518 9.11582 18.0123C9.31897 18.2729 9.4322 18.5927 9.4376 18.923V21.006C9.44048 21.1398 9.49567 21.267 9.59141 21.3605C9.68714 21.454 9.8155 21.5063 9.94932 21.506H14.0494C14.1849 21.5068 14.3149 21.4543 14.4117 21.3595C14.5085 21.2647 14.5644 21.1356 14.5665 21.0001V18.9318C14.5733 18.5326 14.736 18.1521 15.0201 17.8717C15.3043 17.5913 15.6873 17.4333 16.0865 17.4318H16.1134C16.3697 17.4379 16.6206 17.5067 16.8443 17.632L18.6754 18.672C18.7965 18.7403 18.9394 18.7587 19.0738 18.7233C19.2083 18.6878 19.3235 18.6012 19.3951 18.4821L21.4361 15.0211C21.4684 14.9661 21.4899 14.9051 21.4986 14.8419C21.5074 14.7788 21.5035 14.7146 21.4874 14.653C21.4554 14.5275 21.3752 14.4199 21.2643 14.3531L19.4142 13.3077C19.1823 13.1787 18.9894 12.9902 18.8551 12.7614C18.7208 12.5325 18.65 12.2718 18.6505 12.0065C18.651 11.7411 18.7228 11.4809 18.858 11.2526C18.9932 11.0242 19.1871 10.8362 19.4195 10.7081L21.2462 9.67395C21.361 9.6121 21.4465 9.50732 21.484 9.38245C21.5215 9.25757 21.5081 9.12279 21.4464 9.00794L21.8692 8.73889L21.4396 8.9928L19.3976 5.53088C19.3264 5.41169 19.2107 5.32529 19.0763 5.29065C18.9418 5.25601 18.7992 5.27587 18.6793 5.34583L16.8463 6.38196C16.497 6.58143 16.0828 6.63464 15.6944 6.52991C15.306 6.42518 14.9752 6.17093 14.7735 5.82288C14.6459 5.59867 14.5769 5.34596 14.5733 5.08801V3.00501C14.5707 2.87101 14.5156 2.74347 14.4195 2.65002C14.3178 2.5644 14.1909 2.51357 14.0582 2.50501H9.96836C9.83729 2.52624 9.7122 2.57574 9.60215 2.65002C9.5537 2.69647 9.51533 2.75192 9.48887 2.8136C9.46241 2.87528 9.4486 2.9418 9.44834 3.00891V5.07483C9.44128 5.47425 9.27779 5.85496 8.99326 6.13538C8.70873 6.41579 8.32585 6.57358 7.92637 6.57483H7.89951C7.64256 6.57086 7.39085 6.50236 7.16758 6.37512L5.33848 5.33704C5.21741 5.26846 5.07408 5.24978 4.93955 5.28528C4.80502 5.32078 4.68973 5.4076 4.61826 5.52698L2.5792 8.98596C2.51323 9.09741 2.49444 9.23059 2.52647 9.35608C2.54181 9.41867 2.56934 9.47738 2.60801 9.52893C2.64668 9.58049 2.69577 9.62363 2.75156 9.65588L4.59922 10.7008C4.83003 10.8304 5.02214 11.0192 5.15586 11.2477C5.28958 11.4762 5.36045 11.7364 5.36045 12.0011C5.36045 12.2658 5.28958 12.5256 5.15586 12.754C5.02214 12.9825 4.83003 13.1713 4.59922 13.3009L2.77256 14.337C2.71481 14.3668 2.66343 14.4079 2.62217 14.4581C2.5809 14.5083 2.55038 14.5666 2.53233 14.629C2.49708 14.7544 2.51214 14.8886 2.57432 15.0031L4.62412 18.4767C4.69568 18.5949 4.81075 18.6805 4.94443 18.7155C5.07812 18.7504 5.22021 18.7318 5.34043 18.6637L7.17246 17.6271C7.40147 17.4952 7.66116 17.4261 7.92539 17.4269C8.05579 17.429 8.18517 17.4473 8.31113 17.4811V17.4791ZM11.9112 16.505C10.7178 16.505 9.5735 16.0306 8.72959 15.1866C7.88568 14.3427 7.41123 13.1985 7.41123 12.005C7.41123 10.8115 7.88568 9.66679 8.72959 8.82288C9.5735 7.97896 10.7178 7.50501 11.9112 7.50501H12.0792C13.2727 7.50501 14.4174 7.97896 15.2613 8.82288C16.1052 9.66679 16.5792 10.8115 16.5792 12.005C16.5792 13.1985 16.1052 14.3427 15.2613 15.1866C14.4174 16.0306 13.2727 16.505 12.0792 16.505H11.9112ZM8.41123 12.005C8.41255 12.9329 8.782 13.8221 9.43809 14.4781C10.0942 15.1342 10.9834 15.5037 11.9112 15.505H12.0792C13.0075 15.505 13.8979 15.136 14.5543 14.4796C15.2107 13.8232 15.5792 12.9333 15.5792 12.005C15.5792 11.0767 15.2107 10.1863 14.5543 9.52991C13.8979 8.87353 13.0075 8.50501 12.0792 8.50501H11.9112C10.9838 8.50633 10.0948 8.87563 9.43955 9.53186C8.78426 10.1881 8.41611 11.0776 8.41611 12.005H8.41123Z" fill="white"/>
</svg>
