<svg width="24" height="25" viewBox="0 0 24 25" fill="none" xmlns="http://www.w3.org/2000/svg">
<path d="M15.502 19.0055C15.5018 18.6909 15.5441 18.3776 15.6279 18.0743L7.74267 14.1793C7.28508 14.7565 6.65725 15.1746 5.94824 15.3741C5.23923 15.5736 4.48536 15.5445 3.79394 15.2906C3.10253 15.0368 2.50864 14.571 2.09717 13.9601C1.68569 13.3492 1.47736 12.6244 1.50195 11.8883C1.52654 11.1522 1.78305 10.4425 2.23437 9.86046C2.6857 9.27839 3.30881 8.85325 4.01562 8.6461C4.72244 8.43895 5.47678 8.46028 6.1709 8.70665C6.86501 8.95302 7.46378 9.41177 7.88183 10.0182L15.7178 6.21837C15.41 5.38655 15.4285 4.46905 15.77 3.6505C16.1115 2.83194 16.7504 2.17324 17.5581 1.80675C18.3658 1.44026 19.2822 1.39336 20.123 1.6754C20.9639 1.95744 21.667 2.54739 22.0903 3.32677C22.5137 4.10614 22.6259 5.01668 22.4048 5.8756C22.1836 6.73451 21.6455 7.47814 20.8984 7.95616C20.1513 8.43418 19.251 8.61138 18.3784 8.45226C17.5059 8.29313 16.7261 7.80922 16.1958 7.09825L8.32764 10.9166C8.58515 11.7009 8.55706 12.5509 8.24853 13.3165L16.0298 17.1612C16.4757 16.4444 17.1658 15.9129 17.9727 15.6647C18.7795 15.4164 19.6487 15.468 20.4204 15.8102C21.1921 16.1524 21.8142 16.7623 22.1719 17.527C22.5296 18.2916 22.5991 19.1596 22.3672 19.9713C22.1353 20.783 21.6179 21.4837 20.9102 21.944C20.2025 22.4042 19.3521 22.5933 18.5161 22.4762C17.6801 22.359 16.9143 21.9433 16.3603 21.3063C15.8064 20.6692 15.5018 19.8536 15.502 19.0094V19.0055ZM16.502 19.0055C16.5014 19.6145 16.723 20.2027 17.1255 20.6598C17.5279 21.1168 18.0834 21.4113 18.6875 21.4879C19.2916 21.5645 19.903 21.4175 20.4067 21.0753C20.9105 20.7331 21.2719 20.2189 21.4233 19.629C21.5747 19.0392 21.5056 18.4142 21.229 17.8717C20.9524 17.3292 20.4872 16.9066 19.9209 16.6827C19.3546 16.4589 18.7256 16.4491 18.1528 16.6559C17.58 16.8626 17.1024 17.2713 16.8096 17.8053L16.71 18.0055C16.572 18.3208 16.5012 18.6613 16.502 19.0055V19.0055ZM2.50195 12.0055C2.50263 12.5469 2.67871 13.0734 3.00439 13.506C3.33008 13.9385 3.78744 14.2536 4.30762 14.4039C4.82779 14.5542 5.38295 14.5316 5.88916 14.3395C6.39537 14.1473 6.82536 13.7961 7.11474 13.3385L7.3457 12.8712C7.56976 12.2641 7.54953 11.5942 7.28955 11.0016L7.20752 10.8321C6.94557 10.3399 6.52701 9.94952 6.01758 9.72276C5.50814 9.49601 4.93707 9.44632 4.39599 9.58116C3.85492 9.716 3.3747 10.0276 3.03125 10.4669C2.68779 10.9062 2.50079 11.4479 2.50049 12.0055H2.50195ZM19.002 7.50548C19.5363 7.50546 20.0564 7.33405 20.4863 7.01671C20.9163 6.69937 21.2332 6.25293 21.3906 5.74229C21.5481 5.23165 21.5379 4.68366 21.3613 4.17931C21.1848 3.67495 20.8512 3.24051 20.4097 2.93956C19.9681 2.63861 19.4417 2.48686 18.9077 2.50694C18.3737 2.52702 17.8601 2.71811 17.4424 3.05138C17.0247 3.38464 16.7251 3.8428 16.5869 4.35899C16.4487 4.87519 16.4794 5.42217 16.6748 5.91954L16.8418 6.26329C17.0617 6.64096 17.3765 6.95455 17.7554 7.17247C18.1342 7.39039 18.5635 7.50523 19.0005 7.50548H19.002Z" fill="white"/>
</svg>
