<svg width="20" height="23" viewBox="0 0 20 23" fill="none" xmlns="http://www.w3.org/2000/svg">
<path d="M3.96866 22.5233H16.031C18.2289 22.5233 19.3332 21.4855 19.3332 19.4298V9.47053C19.3332 7.41481 18.2289 6.37696 16.031 6.37696H13.0969V7.98362H15.9995C17.0406 7.98362 17.64 8.5225 17.64 9.56034V19.34C17.64 20.3778 17.0406 20.9167 15.9995 20.9167H3.9897C2.93806 20.9167 2.35965 20.3778 2.35965 19.34V9.56034C2.35965 8.5225 2.93806 7.98362 3.9897 7.98362H6.90275V6.37696H3.96866C1.77073 6.37696 0.666504 7.41481 0.666504 9.47053V19.4298C0.666504 21.4855 1.77073 22.5233 3.96866 22.5233ZM9.99457 14.7096C10.4468 14.7096 10.8359 14.3504 10.8359 13.9312V3.68258L10.7728 2.18569L11.4774 2.89422L13.0758 4.51085C13.2232 4.67052 13.4335 4.75036 13.6438 4.75036C14.075 4.75036 14.4115 4.45098 14.4115 4.04183C14.4115 3.83227 14.3168 3.6726 14.1591 3.52291L10.6045 0.269683C10.3942 0.0700987 10.2154 0.000244141 9.99457 0.000244141C9.78425 0.000244141 9.60546 0.0700987 9.38461 0.269683L5.83007 3.52291C5.67232 3.6726 5.58819 3.83227 5.58819 4.04183C5.58819 4.45098 5.90368 4.75036 6.34537 4.75036C6.54518 4.75036 6.77655 4.67052 6.92378 4.51085L8.51176 2.89422L9.22687 2.18569L9.16377 3.68258V13.9312C9.16377 14.3504 9.54237 14.7096 9.99457 14.7096Z" fill="white"/>
</svg>
