<svg width="24" height="25" viewBox="0 0 24 25" fill="none" xmlns="http://www.w3.org/2000/svg">
<path d="M4.00195 22.505C3.33891 22.505 2.70273 22.2414 2.23389 21.7726C1.76505 21.3037 1.50195 20.668 1.50195 20.005V8.505C1.50195 8.10718 1.65961 7.72576 1.94092 7.44446C2.22222 7.16315 2.60413 7.005 3.00195 7.005H6.00195V6.005C6.00195 4.81153 6.47591 3.66679 7.31982 2.82288C8.16374 1.97896 9.30848 1.505 10.502 1.505H11.502C11.8343 1.54216 12.1697 1.54216 12.502 1.505H13.502C14.6954 1.505 15.8397 1.97896 16.6836 2.82288C17.5275 3.66679 18.002 4.81153 18.002 6.005V7.005H21.002C21.3998 7.005 21.7812 7.16315 22.0625 7.44446C22.3438 7.72576 22.502 8.10718 22.502 8.505V20.005C22.502 20.668 22.2384 21.3037 21.7695 21.7726C21.3007 22.2414 20.665 22.505 20.002 22.505H4.00195ZM2.50195 8.505V20.005C2.50195 20.4028 2.65961 20.7842 2.94092 21.0656C3.22222 21.3469 3.60413 21.505 4.00195 21.505H20.002C20.3998 21.505 20.7812 21.3469 21.0625 21.0656C21.3438 20.7842 21.502 20.4028 21.502 20.005V8.505C21.502 8.3724 21.4492 8.24526 21.3555 8.15149C21.2617 8.05772 21.1346 8.005 21.002 8.005H16.002V10.505C16.002 10.6376 15.9492 10.7648 15.8555 10.8585C15.7617 10.9523 15.6346 11.005 15.502 11.005C15.3693 11.005 15.2417 10.9523 15.1479 10.8585C15.0542 10.7648 15.002 10.6376 15.002 10.505V8.005H7.00195V10.505C7.00195 10.6376 6.94924 10.7648 6.85547 10.8585C6.7617 10.9523 6.63456 11.005 6.50195 11.005C6.36934 11.005 6.24172 10.9523 6.14795 10.8585C6.05418 10.7648 6.00195 10.6376 6.00195 10.505V8.005H3.00195C2.86934 8.005 2.74172 8.05772 2.64795 8.15149C2.55418 8.24526 2.50195 8.3724 2.50195 8.505ZM17.002 7.005V6.005C17.001 5.25068 16.7565 4.51666 16.3052 3.91223C15.8539 3.3078 15.2196 2.86524 14.4966 2.65002C14.9692 3.07173 15.3474 3.58838 15.606 4.16663C15.8645 4.74487 15.9975 5.3716 15.9966 6.005V7.005H17.002ZM15.002 7.005V6.005C15.0639 5.57487 15.0325 5.13636 14.9102 4.71936C14.7878 4.30236 14.5775 3.91649 14.293 3.58801C14.0084 3.25953 13.6565 2.99612 13.2612 2.81555C12.8659 2.63499 12.4365 2.54163 12.002 2.54163C11.5674 2.54163 11.1375 2.63499 10.7422 2.81555C10.3469 2.99612 9.99547 3.25953 9.71094 3.58801C9.42641 3.91649 9.21559 4.30236 9.09326 4.71936C8.97094 5.13636 8.93996 5.57487 9.00195 6.005V7.005H15.002ZM8.00195 7.005V6.005C8.00176 5.37113 8.13544 4.74442 8.39502 4.16614C8.6546 3.58785 9.03405 3.07115 9.50781 2.65002C8.78442 2.86452 8.14966 3.30715 7.69824 3.91174C7.24683 4.51633 7.00306 5.25048 7.00293 6.005V7.005H8.00195ZM5.00195 18.8751C4.86934 18.8751 4.74172 18.8224 4.64795 18.7286C4.55418 18.6349 4.50195 18.5077 4.50195 18.3751C4.50195 18.2425 4.55418 18.1149 4.64795 18.0211C4.74172 17.9273 4.86934 17.8751 5.00195 17.8751H19.002C19.1346 17.8751 19.2617 17.9273 19.3555 18.0211C19.4492 18.1149 19.502 18.2425 19.502 18.3751C19.502 18.5077 19.4492 18.6349 19.3555 18.7286C19.2617 18.8224 19.1346 18.8751 19.002 18.8751H5.00195Z" fill="white"/>
</svg>
