<svg width="24" height="25" viewBox="0 0 24 25" fill="none" xmlns="http://www.w3.org/2000/svg">
<path d="M4.00195 19.505C3.33891 19.505 2.70273 19.2414 2.23389 18.7726C1.76505 18.3037 1.50195 17.6681 1.50195 17.005V7.00501C1.50195 6.34197 1.76505 5.70579 2.23389 5.23695C2.70273 4.7681 3.33891 4.50501 4.00195 4.50501H17.3809C17.4463 4.50466 17.5108 4.51754 17.5713 4.54261C17.6317 4.56768 17.6869 4.60444 17.7329 4.65101L22.3545 9.27308C22.4015 9.31921 22.4391 9.37437 22.4644 9.43519C22.4896 9.496 22.5024 9.56123 22.502 9.62708V17.006C22.502 17.669 22.2384 18.3047 21.7695 18.7736C21.3007 19.2424 20.665 19.506 20.002 19.506L4.00195 19.505ZM2.50195 7.00501V17.005C2.50195 17.4028 2.65961 17.7843 2.94092 18.0656C3.22222 18.3469 3.60413 18.505 4.00195 18.505H20.002C20.3998 18.505 20.7812 18.3469 21.0625 18.0656C21.3438 17.7843 21.502 17.4028 21.502 17.005V9.83314L17.1719 5.50501H4.00195C3.60413 5.50501 3.22222 5.66316 2.94092 5.94446C2.65961 6.22577 2.50195 6.60719 2.50195 7.00501V7.00501ZM12.002 16.505H7.00195C6.33891 16.505 5.70273 16.2414 5.23389 15.7726C4.76505 15.3037 4.50195 14.6681 4.50195 14.005V10.005C4.50195 9.34197 4.76505 8.70579 5.23389 8.23695C5.70273 7.7681 6.33891 7.50501 7.00195 7.50501H13.002C13.665 7.50501 14.3007 7.7681 14.7695 8.23695C15.2384 8.70579 15.502 9.34197 15.502 10.005V14.005C15.502 14.6681 15.2384 15.3037 14.7695 15.7726C14.3007 16.2414 13.665 16.505 13.002 16.505H12.002ZM13.002 15.505C13.3998 15.505 13.7812 15.3469 14.0625 15.0656C14.3438 14.7843 14.502 14.4028 14.502 14.005V13.505H13.002C12.8693 13.505 12.7417 13.5577 12.6479 13.6515C12.5542 13.7453 12.502 13.8724 12.502 14.005V15.505H13.002ZM11.502 15.505V14.005C11.502 13.6072 11.6596 13.2258 11.9409 12.9445C12.2222 12.6632 12.6041 12.505 13.002 12.505H14.502V10.005C14.502 9.60719 14.3438 9.22577 14.0625 8.94447C13.7812 8.66316 13.3998 8.50501 13.002 8.50501H12.002V10.505C12.002 10.6376 11.9492 10.7648 11.8555 10.8585C11.7617 10.9523 11.6346 11.005 11.502 11.005C11.3693 11.005 11.2417 10.9523 11.1479 10.8585C11.0542 10.7648 11.002 10.6376 11.002 10.505V8.50501H9.00195V10.505C9.00195 10.6376 8.94924 10.7648 8.85547 10.8585C8.7617 10.9523 8.63456 11.005 8.50195 11.005C8.36934 11.005 8.24172 10.9523 8.14795 10.8585C8.05418 10.7648 8.00195 10.6376 8.00195 10.505V8.50501H7.00195C6.60413 8.50501 6.22222 8.66316 5.94092 8.94447C5.65961 9.22577 5.50195 9.60719 5.50195 10.005V12.505H7.00195C7.39978 12.505 7.7812 12.6632 8.0625 12.9445C8.3438 13.2258 8.50195 13.6072 8.50195 14.005V15.505H11.502ZM7.00195 15.505H7.50195V14.005C7.50195 13.8724 7.44924 13.7453 7.35547 13.6515C7.2617 13.5577 7.13456 13.505 7.00195 13.505H5.50195V14.005C5.50195 14.4028 5.65961 14.7843 5.94092 15.0656C6.22222 15.3469 6.60413 15.505 7.00195 15.505V15.505Z" fill="white"/>
</svg>
