<svg width="120" height="120" viewBox="0 0 120 120" fill="none" xmlns="http://www.w3.org/2000/svg">
<g id="Frame" clip-path="url(#clip0_4095_111123)">
<g id="VPN Error">
<g id="Group 12446">
<g id="Union 49">
<path id="Path 43911" d="M37.6229 34.3374L35.3169 32.0154L33.0069 34.3354C32.1218 35.1931 30.9347 35.6679 29.7023 35.6573C28.4699 35.6466 27.2912 35.1512 26.4211 34.2783C25.5511 33.4053 25.0596 32.225 25.053 30.9925C25.0464 29.7601 25.5252 28.5746 26.3859 27.6924L28.6919 25.3764L26.3859 23.0564C25.5374 22.1718 25.0689 20.9902 25.0808 19.7645C25.0926 18.5389 25.5838 17.3665 26.4492 16.4985C27.3146 15.6305 28.4855 15.1357 29.7111 15.1202C30.9367 15.1047 32.1198 15.5696 33.0069 16.4154L35.3149 18.7314L37.6229 16.4154C38.0454 15.9544 38.5559 15.5826 39.1243 15.3218C39.6927 15.061 40.3074 14.9165 40.9325 14.8969C41.5575 14.8772 42.1802 14.9827 42.7638 15.2072C43.3475 15.4317 43.8803 15.7706 44.3311 16.2041C44.7818 16.6375 45.1413 17.1567 45.3884 17.7312C45.6355 18.3056 45.7653 18.9237 45.77 19.549C45.7747 20.1743 45.6544 20.7943 45.416 21.3724C45.1776 21.9505 44.826 22.4751 44.3819 22.9154L44.3369 22.9614C44.3069 22.9934 44.2749 23.0234 44.2439 23.0544L41.9339 25.3704L44.2439 27.6864C45.1079 28.5683 45.5896 29.7552 45.5844 30.9898C45.5792 32.2244 45.0876 33.4072 44.2162 34.2818C43.3447 35.1564 42.1637 35.6523 40.9291 35.6619C39.6945 35.6716 38.5059 35.1942 37.6209 34.3334L37.6229 34.3374Z" fill="#E54660"/>
</g>
<g id="Path 43912">
<path id="Path 43915" d="M64 33.1836C63.4696 33.1836 62.9609 33.3943 62.5858 33.7694C62.2107 34.1445 62 34.6532 62 35.1836V77.1836C62 77.714 62.2107 78.2227 62.5858 78.5978C62.9609 78.9729 63.4696 79.1836 64 79.1836H90C90.5304 79.1836 91.0391 78.9729 91.4142 78.5978C91.7893 78.2227 92 77.714 92 77.1836V43.3366L82.524 33.1836H64ZM64 25.1836H86L100 40.1836V77.1836C100 79.8358 98.9464 82.3793 97.0711 84.2547C95.1957 86.13 92.6522 87.1836 90 87.1836H64C61.3478 87.1836 58.8043 86.13 56.9289 84.2547C55.0536 82.3793 54 79.8358 54 77.1836V35.1836C54 32.5314 55.0536 29.9879 56.9289 28.1125C58.8043 26.2372 61.3478 25.1836 64 25.1836Z" fill="#D6D6D6"/>
</g>
<path id="Subtraction 96" d="M54.21 105.002H31.932C28.7597 104.99 25.7219 103.719 23.4852 101.469C21.2484 99.2197 19.9954 96.1746 20.001 93.0022V53.1152C19.9951 49.9428 21.2481 46.8976 23.4849 44.6479C25.7217 42.3982 28.7596 41.1277 31.932 41.1152H50.31V49.1152H43.047V97.0022H54.211C55.2687 96.9985 56.2817 96.5752 57.0275 95.8252C57.7734 95.0753 58.1911 94.06 58.189 93.0022V90.1352C59.8054 90.8295 61.5468 91.1858 63.306 91.1822H66.146V93.0012C66.1516 96.1746 64.8979 99.2205 62.6601 101.47C60.4223 103.72 57.3833 104.991 54.21 105.002ZM31.932 49.1152C30.875 49.12 29.863 49.5438 29.118 50.2936C28.373 51.0435 27.9559 52.0582 27.958 53.1152V93.0042C27.9556 94.0613 28.3727 95.0762 29.1177 95.8261C29.8628 96.576 30.8749 96.9997 31.932 97.0042H35.089V49.1152H31.932Z" fill="#D6D6D6"/>
<path id="Rectangle 4950" d="M82.3069 53.1836H71.3069C69.0977 53.1836 67.3069 54.9745 67.3069 57.1836V69.1836C67.3069 71.3927 69.0977 73.1836 71.3069 73.1836H82.3069C84.516 73.1836 86.3069 71.3927 86.3069 69.1836V57.1836C86.3069 54.9745 84.516 53.1836 82.3069 53.1836Z" fill="#D6D6D6"/>
</g>
</g>
</g>
<defs>
<clipPath id="clip0_4095_111123">
<rect width="120" height="120" fill="white"/>
</clipPath>
</defs>
</svg>
