<svg width="24" height="24" viewBox="0 0 24 24" fill="none" xmlns="http://www.w3.org/2000/svg">
<g clip-path="url(#clip0_7002_325715)">
<path d="M11.005 21.4971C12.4677 21.4987 13.9111 21.163 15.223 20.5161C15.3423 20.4572 15.4334 20.3533 15.4761 20.2273C15.5189 20.1013 15.5099 19.9634 15.451 19.8441C15.3921 19.7247 15.2882 19.6336 15.1622 19.5909C15.0362 19.5481 14.8983 19.5572 14.779 19.6161C13.1851 20.4057 11.3838 20.6755 9.62857 20.3874C7.87335 20.0992 6.25276 19.2678 4.99502 18.01C3.73729 16.7523 2.90579 15.1317 2.61767 13.3765C2.32955 11.6213 2.59932 9.81988 3.38897 8.22607C4.38994 6.20622 6.15227 4.66671 8.2883 3.9462C10.4243 3.22569 12.7591 3.3832 14.779 4.38407C14.8381 4.41322 14.9023 4.43046 14.9681 4.43477C15.0338 4.43909 15.0998 4.43042 15.1622 4.40925C15.2246 4.38807 15.2822 4.35482 15.3318 4.31138C15.3813 4.26794 15.4218 4.21517 15.451 4.15607C15.4801 4.09698 15.4974 4.03272 15.5017 3.96697C15.506 3.90122 15.4973 3.83525 15.4761 3.77285C15.455 3.71045 15.4217 3.65283 15.3783 3.60328C15.3349 3.55373 15.2821 3.51323 15.223 3.48408C13.9401 2.84869 12.5303 2.51143 11.0988 2.49752C9.66728 2.48361 8.25115 2.7934 6.9562 3.40374C5.66126 4.01408 4.521 4.90919 3.62063 6.02218C2.72027 7.13516 2.08307 8.43724 1.75668 9.83111C1.43029 11.225 1.42313 12.6746 1.73575 14.0716C2.04836 15.4686 2.67268 16.7769 3.56201 17.8987C4.45134 19.0206 5.5827 19.9269 6.87155 20.55C8.1604 21.1731 9.5734 21.4968 11.005 21.4971Z" fill="white"/>
<path d="M18 16.4971C18.0658 16.4971 18.1309 16.4841 18.1916 16.4589C18.2524 16.4337 18.3076 16.3967 18.354 16.3501L22.354 12.3501C22.4477 12.2563 22.5004 12.1292 22.5004 11.9966C22.5004 11.864 22.4477 11.7369 22.354 11.6431L18.354 7.64311C18.3076 7.59662 18.2524 7.55973 18.1918 7.53455C18.1311 7.50936 18.066 7.49638 18.0004 7.49634C17.9347 7.49629 17.8696 7.50917 17.8089 7.53427C17.7481 7.55937 17.693 7.59619 17.6465 7.64261C17.6 7.68903 17.5631 7.74416 17.5379 7.80484C17.5127 7.86552 17.4998 7.93056 17.4997 7.99626C17.4997 8.06196 17.5125 8.12701 17.5376 8.18773C17.5627 8.24844 17.5996 8.30363 17.646 8.35011L21.293 11.9971L17.646 15.6431C17.5759 15.713 17.5281 15.8022 17.5087 15.8993C17.4894 15.9964 17.4993 16.0971 17.5372 16.1886C17.5751 16.28 17.6393 16.3582 17.7217 16.4131C17.8041 16.4681 17.901 16.4973 18 16.4971Z" fill="white"/>
<path d="M8.039 12.4771H21.039C21.1716 12.4771 21.2988 12.4244 21.3925 12.3306C21.4863 12.2368 21.539 12.1097 21.539 11.9771C21.539 11.8444 21.4863 11.7173 21.3925 11.6235C21.2988 11.5297 21.1716 11.4771 21.039 11.4771H8.039C7.90639 11.4771 7.77922 11.5297 7.68546 11.6235C7.59169 11.7173 7.539 11.8444 7.539 11.9771C7.539 12.1097 7.59169 12.2368 7.68546 12.3306C7.77922 12.4244 7.90639 12.4771 8.039 12.4771Z" fill="white"/>
</g>
<defs>
<clipPath id="clip0_7002_325715">
<rect width="24" height="24" fill="white"/>
</clipPath>
</defs>
</svg>
