<svg width="16" height="17" viewBox="0 0 16 17" fill="none" xmlns="http://www.w3.org/2000/svg">
<g clip-path="url(#clip0_1_11808)">
<path d="M8 16.0426C12.4183 16.0426 16 12.4609 16 8.0426C16 3.62432 12.4183 0.0426025 8 0.0426025C3.58172 0.0426025 0 3.62432 0 8.0426C0 12.4609 3.58172 16.0426 8 16.0426Z" fill="#57C5D0"/>
<path d="M7.24101 11.3586C7.168 11.363 7.09502 11.3494 7.02855 11.3189C6.96208 11.2883 6.90421 11.2419 6.86003 11.1836L4.93803 8.92957C4.89541 8.87961 4.86304 8.82174 4.84279 8.75926C4.82253 8.69679 4.81479 8.63095 4.81999 8.56548C4.82519 8.50001 4.84323 8.4362 4.87309 8.37771C4.90295 8.31922 4.94406 8.26718 4.99403 8.22457C5.09466 8.14004 5.22451 8.09852 5.35551 8.109C5.48651 8.11948 5.60811 8.18112 5.69401 8.28057L7.24303 10.0976L12.043 4.68657C12.0866 4.63745 12.1395 4.59739 12.1985 4.56869C12.2576 4.53999 12.3218 4.52322 12.3873 4.51932C12.4529 4.51541 12.5186 4.52447 12.5806 4.54596C12.6427 4.56745 12.6999 4.60096 12.749 4.64457C12.7981 4.68817 12.8382 4.74101 12.8669 4.80008C12.8956 4.85916 12.9124 4.92331 12.9163 4.98887C12.9202 5.05444 12.9111 5.12012 12.8896 5.18218C12.8681 5.24425 12.8346 5.30147 12.791 5.35058L7.60701 11.1906C7.56098 11.2424 7.5047 11.2841 7.44169 11.3131C7.37869 11.342 7.31033 11.3575 7.24101 11.3586Z" fill="white"/>
</g>
<defs>
<clipPath id="clip0_1_11808">
<rect width="16" height="16" fill="white" transform="translate(0 0.0426025)"/>
</clipPath>
</defs>
</svg>
