<svg width="24" height="25" viewBox="0 0 24 25" fill="none" xmlns="http://www.w3.org/2000/svg">
<path d="M9.00049 17.505C8.86788 17.505 8.74074 17.4523 8.64697 17.3585C8.5532 17.2648 8.50049 17.1376 8.50049 17.005C8.50049 16.8724 8.5532 16.7453 8.64697 16.6515C8.74074 16.5577 8.86788 16.505 9.00049 16.505H15.0005C15.1331 16.505 15.2607 16.5577 15.3545 16.6515C15.4483 16.7453 15.5005 16.8724 15.5005 17.005C15.5005 17.1376 15.4483 17.2648 15.3545 17.3585C15.2607 17.4523 15.1331 17.505 15.0005 17.505H9.00049ZM5.25195 12.505C5.11934 12.505 4.99172 12.4523 4.89795 12.3585C4.80418 12.2648 4.75195 12.1376 4.75195 12.005C4.75195 11.8724 4.80418 11.7453 4.89795 11.6515C4.99172 11.5577 5.11934 11.505 5.25195 11.505H18.752C18.8846 11.505 19.0117 11.5577 19.1055 11.6515C19.1992 11.7453 19.252 11.8724 19.252 12.005C19.252 12.1376 19.1992 12.2648 19.1055 12.3585C19.0117 12.4523 18.8846 12.505 18.752 12.505H5.25195ZM2.00195 7.505C1.86934 7.505 1.74172 7.45229 1.64795 7.35852C1.55418 7.26475 1.50195 7.13761 1.50195 7.005C1.50195 6.8724 1.55418 6.74526 1.64795 6.65149C1.74172 6.55772 1.86934 6.505 2.00195 6.505H22.002C22.1346 6.505 22.2617 6.55772 22.3555 6.65149C22.4492 6.74526 22.502 6.8724 22.502 7.005C22.502 7.13761 22.4492 7.26475 22.3555 7.35852C22.2617 7.45229 22.1346 7.505 22.002 7.505H2.00195Z" fill="white"/>
</svg>
