<svg width="34" height="33" viewBox="0 0 34 33" fill="none" xmlns="http://www.w3.org/2000/svg">
<path d="M18.3986 1.99221L21.3754 9.67278C21.7301 10.588 22.5876 11.2109 23.5676 11.2655L31.7921 11.7231C33.1598 11.7993 33.7183 13.518 32.6565 14.3835L26.2717 19.588C25.511 20.2082 25.1834 21.2162 25.4344 22.165L27.5407 30.1285C27.8909 31.4528 26.4289 32.515 25.2776 31.7727L18.3548 27.3087C17.5299 26.7768 16.4701 26.7768 15.6452 27.3087L8.72238 31.7727C7.57115 32.515 6.10909 31.4527 6.45935 30.1285L8.56558 22.165C8.81655 21.2162 8.48905 20.2082 7.72826 19.588L1.34349 14.3835C0.281743 13.518 0.840199 11.7993 2.20789 11.7231L10.4324 11.2655C11.4124 11.2109 12.2699 10.588 12.6246 9.67278L15.6014 1.99222C16.0964 0.714982 17.9036 0.714982 18.3986 1.99221Z" fill="#444444" stroke="#577176"/>
</svg>
