<svg width="24" height="25" viewBox="0 0 24 25" fill="none" xmlns="http://www.w3.org/2000/svg">
<path d="M11.9995 21.505C11.8669 21.505 11.7398 21.4523 11.646 21.3585C11.5522 21.2648 11.4995 21.1376 11.4995 21.005C11.4995 20.8724 11.5522 20.7453 11.646 20.6515C11.7398 20.5577 11.8669 20.505 11.9995 20.505H14.2529C15.1812 20.505 16.0712 20.136 16.7275 19.4796C17.3839 18.8232 17.7529 17.9333 17.7529 17.005V15.546C17.7529 15.533 17.7529 15.519 17.7529 15.505V10.3048C17.7529 9.29699 17.3523 8.33044 16.6396 7.6178C15.927 6.90516 14.9605 6.505 13.9526 6.505H10.0527C9.04491 6.505 8.07836 6.90516 7.36572 7.6178C6.65308 8.33044 6.25293 9.29699 6.25293 10.3048V15.505C6.25293 15.6376 6.20021 15.7648 6.10645 15.8585C6.01268 15.9523 5.88554 16.005 5.75293 16.005H4.00391C3.34087 16.005 2.70468 15.7414 2.23584 15.2726C1.767 14.8037 1.50391 14.168 1.50391 13.505V11.2521C1.50391 10.589 1.767 9.95285 2.23584 9.48401C2.70468 9.01517 3.34087 8.75208 4.00391 8.75208H5.25391V7.005C5.25391 5.81153 5.72786 4.66679 6.57178 3.82288C7.41569 2.97896 8.56043 2.505 9.75391 2.505H14.2539C15.4474 2.505 16.5916 2.97896 17.4355 3.82288C18.2795 4.66679 18.7539 5.81153 18.7539 7.005V8.755H20.0049C20.6679 8.755 21.3036 9.0181 21.7725 9.48694C22.2413 9.95578 22.5049 10.592 22.5049 11.255V13.504C22.5049 14.1671 22.2413 14.8028 21.7725 15.2716C21.3036 15.7404 20.6679 16.004 20.0049 16.004H18.7568V17.004C18.7568 18.1975 18.2829 19.3418 17.439 20.1857C16.5951 21.0296 15.4503 21.504 14.2568 21.504L11.9995 21.505ZM19.9995 15.005C20.3973 15.005 20.7792 14.8469 21.0605 14.5656C21.3419 14.2842 21.4995 13.9028 21.4995 13.505V11.256C21.4995 10.8582 21.3419 10.4767 21.0605 10.1954C20.7792 9.91413 20.3973 9.75598 19.9995 9.75598H18.7485V14.9449C18.7498 14.9649 18.7498 14.985 18.7485 15.005H19.9995ZM2.49951 11.2521V13.505C2.49951 13.9028 2.65766 14.2842 2.93896 14.5656C3.22027 14.8469 3.60169 15.005 3.99951 15.005H5.24951V9.75403H3.99951C3.60186 9.75429 3.22103 9.91221 2.93994 10.1935C2.65885 10.4748 2.50098 10.8564 2.50098 11.254L2.49951 11.2521ZM6.24854 7.00403V7.37708C6.69662 6.79532 7.27236 6.324 7.93115 5.99963C8.58994 5.67527 9.31451 5.5064 10.0488 5.50598H13.9487C14.683 5.50572 15.4076 5.67412 16.0664 5.99817C16.7253 6.32222 17.3006 6.7934 17.7485 7.37512V7.00403C17.7485 6.07577 17.38 5.18531 16.7236 4.52893C16.0673 3.87255 15.1768 3.50403 14.2485 3.50403H9.74854C9.28891 3.50416 8.83426 3.59462 8.40967 3.77063C7.98508 3.94664 7.59884 4.20481 7.27393 4.52991C6.94901 4.85501 6.6914 5.24096 6.51562 5.66565C6.33985 6.09034 6.24938 6.54538 6.24951 7.005L6.24854 7.00403ZM10.9995 17.504C10.8669 17.504 10.7398 17.4513 10.646 17.3575C10.5522 17.2638 10.4995 17.1366 10.4995 17.004C10.4995 16.8714 10.5522 16.7443 10.646 16.6505C10.7398 16.5567 10.8669 16.504 10.9995 16.504H12.9995C13.1321 16.504 13.2597 16.5567 13.3535 16.6505C13.4473 16.7443 13.4995 16.8714 13.4995 17.004C13.4995 17.1366 13.4473 17.2638 13.3535 17.3575C13.2597 17.4513 13.1321 17.504 12.9995 17.504H10.9995ZM14.8086 12.463C14.7478 12.4382 14.6935 12.4 14.6489 12.3517C14.6 12.3077 14.5612 12.2539 14.5352 12.1935C14.5091 12.1331 14.496 12.0679 14.4976 12.0021C14.4967 11.9364 14.5101 11.871 14.5361 11.8107C14.5622 11.7504 14.6006 11.6964 14.6489 11.652C14.7441 11.5603 14.8712 11.5089 15.0034 11.5089C15.1356 11.5089 15.2627 11.5603 15.3579 11.652C15.4025 11.6974 15.4362 11.7522 15.4575 11.8121C15.4853 11.8715 15.4991 11.9365 15.4976 12.0021C15.499 12.0668 15.4874 12.1309 15.4634 12.191C15.4393 12.2512 15.4036 12.3058 15.3579 12.3517C15.3097 12.3993 15.2527 12.4374 15.1899 12.463C15.1305 12.4906 15.0651 12.5043 14.9995 12.5031C14.9342 12.5046 14.8695 12.4919 14.8096 12.4659L14.8086 12.463ZM8.80859 12.463C8.74777 12.4382 8.69348 12.4 8.64893 12.3517C8.60028 12.3075 8.56153 12.2534 8.53564 12.193C8.50976 12.1326 8.49697 12.0678 8.49854 12.0021C8.49779 11.9366 8.51148 11.8718 8.53857 11.8121C8.55932 11.7494 8.59782 11.6938 8.64893 11.652C8.74239 11.5604 8.86766 11.5089 8.99854 11.5089C9.12941 11.5089 9.25517 11.5604 9.34863 11.652C9.39664 11.6966 9.43478 11.7509 9.46045 11.8112C9.48612 11.8715 9.49867 11.9365 9.49756 12.0021C9.49938 12.0677 9.48714 12.1326 9.46143 12.193C9.43571 12.2534 9.3972 12.3075 9.34863 12.3517C9.30578 12.4019 9.25099 12.4405 9.18896 12.463C9.12885 12.4891 9.06359 12.5026 8.99805 12.5026C8.9325 12.5026 8.86773 12.4891 8.80762 12.463H8.80859Z" fill="white"/>
</svg>
