<svg width="28" height="34" viewBox="0 0 28 34" fill="none" xmlns="http://www.w3.org/2000/svg">
<path d="M7.391 1H20.609C21.5166 0.999927 22.4014 1.28494 23.1383 1.81479C23.8752 2.34465 24.4271 3.09258 24.716 3.953L27 10.753H1L3.284 3.953C3.57293 3.09258 4.1248 2.34465 4.86172 1.81479C5.59864 1.28494 6.48337 0.999927 7.391 1V1Z" stroke="white" stroke-width="2" stroke-linejoin="round"/>
<path d="M12.48 4.35596H15.521" stroke="white" stroke-width="2" stroke-linecap="round"/>
<path d="M14 4.35498V7.396" stroke="white" stroke-width="2" stroke-linecap="round"/>
<path d="M20 17H8C6.89543 17 6 17.8954 6 19V31C6 32.1046 6.89543 33 8 33H20C21.1046 33 22 32.1046 22 31V19C22 17.8954 21.1046 17 20 17Z" stroke="white" stroke-width="2"/>
<path d="M20.001 22L22.001 20L24.001 22" stroke="white" stroke-width="2" stroke-linecap="round"/>
<path d="M4.00098 28L6.00098 30L8.00098 28" stroke="white" stroke-width="2" stroke-linecap="round"/>
<path d="M13.9867 28.9995C13.9867 28.9995 11.0009 25.9897 11.0009 23.9897C10.9868 23.5936 11.0541 23.1984 11.1991 22.8295C11.3441 22.4607 11.5636 22.1256 11.8436 21.8452C12.1237 21.5647 12.4583 21.3462 12.827 21.2006C13.1957 21.0551 13.5906 20.9859 13.9867 20.9995C14.3843 20.9851 14.7807 21.0519 15.1512 21.1967C15.5218 21.3416 15.859 21.561 16.1415 21.8413C16.424 22.1215 16.6455 22.4582 16.7933 22.8276C16.9412 23.197 17.0121 23.592 17.0009 23.9897C16.9959 25.9897 13.9867 28.9995 13.9867 28.9995Z" stroke="white" stroke-linecap="round" stroke-linejoin="round"/>
<path d="M14.001 24.918C14.5533 24.918 15.001 24.4703 15.001 23.918C15.001 23.3657 14.5533 22.918 14.001 22.918C13.4487 22.918 13.001 23.3657 13.001 23.918C13.001 24.4703 13.4487 24.918 14.001 24.918Z" stroke="white"/>
</svg>
