<svg width="30" height="34" viewBox="0 0 30 34" fill="none" xmlns="http://www.w3.org/2000/svg">
<path d="M8.391 1H21.609C22.5166 0.999927 23.4014 1.28494 24.1383 1.81479C24.8752 2.34465 25.4271 3.09258 25.716 3.953L28 10.753H2L4.284 3.953C4.57293 3.09258 5.1248 2.34465 5.86172 1.81479C6.59864 1.28494 7.48337 0.999927 8.391 1V1Z" stroke="white" stroke-width="2" stroke-linejoin="round"/>
<path d="M13.48 4.35498H16.521" stroke="white" stroke-width="2" stroke-linecap="round"/>
<path d="M15 4.35498V7.396" stroke="white" stroke-width="2" stroke-linecap="round"/>
<path d="M27.001 21.999L29.001 23.999L27.001 25.999" stroke="white" stroke-width="2" stroke-linecap="round" stroke-linejoin="round"/>
<path d="M2.00098 25.619L4.00098 27.619L2.00098 29.619" stroke="white" stroke-width="2" stroke-linecap="round" stroke-linejoin="round"/>
<path d="M14.9867 28.9586C14.9867 28.9586 12.0009 25.9488 12.0009 23.9488C11.9868 23.5527 12.0541 23.1575 12.1991 22.7887C12.3441 22.4198 12.5636 22.0847 12.8436 21.8043C13.1237 21.5238 13.4583 21.3053 13.827 21.1597C14.1957 21.0142 14.5906 20.945 14.9867 20.9586C15.3843 20.9442 15.7807 21.011 16.1512 21.1558C16.5218 21.3007 16.859 21.5201 17.1415 21.8004C17.424 22.0806 17.6455 22.4173 17.7933 22.7867C17.9412 23.1561 18.0121 23.5511 18.0009 23.9488C17.9959 25.9488 14.9867 28.9586 14.9867 28.9586Z" stroke="white" stroke-linecap="round" stroke-linejoin="round"/>
<path d="M15.001 24.877C15.5533 24.877 16.001 24.4292 16.001 23.877C16.001 23.3247 15.5533 22.877 15.001 22.877C14.4487 22.877 14.001 23.3247 14.001 23.877C14.001 24.4292 14.4487 24.877 15.001 24.877Z" stroke="white"/>
<path d="M7.00098 24.914V18.996C7.00098 18.4655 7.21169 17.9568 7.58676 17.5818C7.96183 17.2067 8.47054 16.996 9.00098 16.996H21.001C21.5314 16.996 22.0401 17.2067 22.4152 17.5818C22.7903 17.9568 23.001 18.4655 23.001 18.996V20.096" stroke="white" stroke-width="2" stroke-linecap="round"/>
<path d="M23.001 27.62V30.999C23.001 31.5294 22.7903 32.0381 22.4152 32.4132C22.0401 32.7883 21.5314 32.999 21.001 32.999H9.00098C8.47054 32.999 7.96183 32.7883 7.58676 32.4132C7.21169 32.0381 7.00098 31.5294 7.00098 30.999" stroke="white" stroke-width="2" stroke-linecap="round"/>
<path d="M23.001 28.938V26C23.001 25.4696 23.2117 24.9609 23.5868 24.5858C23.9618 24.2107 24.4705 24 25.001 24H29.001" stroke="white" stroke-width="2" stroke-linecap="round"/>
<path d="M7.00098 22.681V25.619C7.00098 26.1495 6.79026 26.6582 6.41519 27.0332C6.04012 27.4083 5.53141 27.619 5.00098 27.619H1.00098" stroke="white" stroke-width="2" stroke-linecap="round"/>
</svg>
