<svg width="24" height="25" viewBox="0 0 24 25" fill="none" xmlns="http://www.w3.org/2000/svg">
<path d="M1.5 12.0051C1.5 9.92836 2.11626 7.89829 3.27002 6.17157C4.42377 4.44485 6.06331 3.0991 7.98193 2.30438C9.90056 1.50966 12.012 1.30158 14.0488 1.70673C16.0856 2.11187 17.9564 3.11181 19.4248 4.58026C20.8933 6.04871 21.8932 7.91993 22.2983 9.95673C22.7035 11.9935 22.4959 14.1045 21.7012 16.0231C20.9065 17.9418 19.5602 19.5818 17.8335 20.7355C16.1068 21.8893 14.0767 22.5051 12 22.5051C9.21612 22.5022 6.54711 21.395 4.57861 19.4265C2.61011 17.458 1.50291 14.7889 1.5 12.0051V12.0051ZM2.5 12.0051C2.5 13.884 3.0572 15.7206 4.10107 17.2829C5.14495 18.8452 6.62885 20.0629 8.36475 20.7819C10.1006 21.501 12.0107 21.689 13.8535 21.3224C15.6963 20.9559 17.3892 20.0509 18.7178 18.7224C20.0464 17.3938 20.9513 15.7009 21.3179 13.8581C21.6844 12.0153 21.4959 10.1052 20.7769 8.36932C20.0578 6.63343 18.8406 5.15001 17.2783 4.10614C15.7161 3.06227 13.8789 2.50507 12 2.50507C9.48151 2.50824 7.06737 3.51026 5.28662 5.2912C3.50587 7.07214 2.50438 9.48658 2.50146 12.0051H2.5ZM13.7461 17.3268L11.1011 14.195C11.0255 14.1061 10.9837 13.9934 10.9824 13.8766C10.9811 13.7599 11.0206 13.6464 11.0942 13.5558L12.6123 11.6891C12.6524 11.6344 12.7033 11.5879 12.7617 11.5534C12.8202 11.5189 12.8848 11.4966 12.9521 11.488C13.0195 11.4793 13.0881 11.4845 13.1533 11.5031C13.2186 11.5217 13.2789 11.5535 13.3315 11.5964C13.3842 11.6393 13.4276 11.6925 13.459 11.7526C13.4904 11.8128 13.5096 11.8788 13.5146 11.9465C13.5197 12.0142 13.5108 12.0825 13.4888 12.1467C13.4667 12.2109 13.4318 12.2697 13.3862 12.32L12.1333 13.8649L13.9141 15.9758L16.0581 8.83514L7.1792 12.2712L9.06201 12.508C9.12724 12.5162 9.19043 12.537 9.24756 12.5695C9.30468 12.602 9.35471 12.6455 9.39502 12.6974C9.43533 12.7494 9.46508 12.8089 9.48242 12.8723C9.49977 12.9357 9.50436 13.0019 9.49609 13.0671C9.47742 13.1977 9.40854 13.3158 9.3042 13.3967C9.19986 13.4775 9.06818 13.5148 8.93701 13.5002L5.09131 13.0119C4.98154 12.9971 4.87954 12.9462 4.80176 12.8674C4.72397 12.7885 4.67489 12.6863 4.66162 12.5764C4.64835 12.4664 4.67172 12.355 4.72852 12.2599C4.78531 12.1649 4.87199 12.0914 4.9751 12.051L15.9204 7.84296C16.1027 7.77402 16.3025 7.76697 16.4893 7.82294C16.5995 7.85579 16.7019 7.91031 16.791 7.98309C16.8801 8.05587 16.9541 8.14529 17.0083 8.24677C17.0636 8.34884 17.098 8.46085 17.1099 8.57636C17.1217 8.69186 17.1106 8.80892 17.0771 8.92011L14.6055 17.1481C14.5795 17.2342 14.5307 17.3115 14.4644 17.3723C14.398 17.433 14.3161 17.4746 14.228 17.4929C14.1954 17.5014 14.1622 17.5059 14.1284 17.506C14.0558 17.5058 13.9838 17.4899 13.918 17.4592C13.8522 17.4284 13.7938 17.3834 13.7471 17.3278L13.7461 17.3268Z" fill="white"/>
</svg>
