<svg width="24" height="25" viewBox="0 0 24 25" fill="none" xmlns="http://www.w3.org/2000/svg">
<path d="M9.97204 22.4983C8.68079 22.4298 7.41947 22.0825 6.27526 21.4802C5.13105 20.8779 4.13099 20.0352 3.34362 19.0095C2.55625 17.9838 2.00038 16.7998 1.71423 15.5388C1.42807 14.2778 1.41837 12.9694 1.68591 11.7043C1.97886 10.3132 2.59841 9.01193 3.49352 7.90744C4.38864 6.80294 5.53356 5.92705 6.83385 5.35226C8.13415 4.77748 9.5527 4.52036 10.972 4.60177C12.3914 4.68319 13.7709 5.10083 14.9969 5.82053C15.4363 5.36188 15.9003 4.92808 16.3876 4.52072C18.0157 3.21197 19.8616 2.19992 21.8407 1.53146C21.9307 1.50102 22.0277 1.49671 22.12 1.51926C22.2122 1.5418 22.2959 1.5904 22.3617 1.6589C22.4275 1.72741 22.4723 1.81337 22.4911 1.90646C22.5099 1.99956 22.5017 2.09565 22.4676 2.18429C21.6162 4.36983 20.298 6.34335 18.6049 7.96652C18.3842 8.18185 18.157 8.38957 17.9237 8.58957C18.7909 9.89588 19.3002 11.4067 19.4007 12.9714C19.4083 13.146 19.3954 13.3208 19.3627 13.4924C19.251 14.0589 18.9194 14.5583 18.4403 14.8806C17.9612 15.2028 17.3738 15.3218 16.807 15.2116L12.8236 14.4895C12.6748 14.4624 12.5227 14.4624 12.3739 14.4895C12.2204 14.5206 12.0745 14.5816 11.9447 14.6692C11.8149 14.7567 11.7034 14.8691 11.6171 14.9997C11.5307 15.1303 11.471 15.2767 11.4413 15.4304C11.4115 15.5841 11.4123 15.7423 11.4437 15.8957L12.2528 19.8586C12.3177 20.1779 12.3109 20.5076 12.2328 20.8239C12.1547 21.1403 12.0071 21.4353 11.8011 21.6877C11.5951 21.9401 11.3356 22.1435 11.0414 22.2834C10.7471 22.4233 10.4258 22.4959 10.1 22.4963C10.058 22.5053 10.014 22.5053 9.97204 22.4983ZM2.66393 11.9167C2.23197 13.9807 2.63567 16.1315 3.78698 17.8982C4.93828 19.6649 6.74336 20.9032 8.80602 21.3415C9.20835 21.4259 9.61625 21.4795 10.0267 21.5017C10.3442 21.5169 10.6554 21.4092 10.8959 21.2014C11.0144 21.0973 11.1109 20.9704 11.1796 20.8283C11.2483 20.6863 11.2878 20.5323 11.2958 20.3747C11.3011 20.2719 11.2937 20.1686 11.2738 20.0676L10.4628 16.1047C10.3919 15.7538 10.408 15.3908 10.5096 15.0476C10.6113 14.7044 10.7957 14.3911 11.0463 14.1355C11.2968 13.8798 11.6061 13.6894 11.9471 13.5808C12.2882 13.4722 12.6506 13.4487 13.0028 13.5124L16.993 14.2365C17.1679 14.2724 17.3485 14.2678 17.5214 14.2234C17.6942 14.179 17.8547 14.0959 17.9906 13.9802C18.1265 13.8645 18.2341 13.7194 18.3055 13.5559C18.377 13.3924 18.4101 13.2146 18.4027 13.0363C18.3157 11.6801 17.8814 10.3694 17.141 9.2297C16.4314 9.75927 15.6747 10.2226 14.8807 10.6145C14.6095 11.3147 14.1324 11.9165 13.5126 12.3405C12.8978 12.7367 12.1824 12.9474 11.451 12.9475C11.1636 12.9459 10.8771 12.9122 10.597 12.8474C10.4967 12.8239 10.4058 12.7701 10.3373 12.6931C10.2687 12.6161 10.2255 12.5201 10.2137 12.4177C10.1508 11.8758 10.2052 11.3265 10.3729 10.8073C10.5406 10.2882 10.8178 9.81107 11.1859 9.40842C11.6705 8.91319 12.2861 8.56631 12.9608 8.40842C13.3716 7.77319 13.8236 7.16571 14.3138 6.58957C13.163 5.94242 11.8642 5.60419 10.5438 5.60763C8.71016 5.61205 6.93225 6.23846 5.50085 7.38449C4.06944 8.53052 3.06937 10.1284 2.66393 11.9167V11.9167ZM11.9076 10.0935C11.7115 10.0992 11.521 10.1586 11.3563 10.2653C11.1917 10.3721 11.0593 10.5223 10.974 10.6989C10.8886 10.8756 10.8537 11.072 10.8724 11.2673C10.8912 11.4626 10.963 11.6491 11.0804 11.8064C11.1978 11.9636 11.356 12.0855 11.538 12.1589C11.7199 12.2323 11.9185 12.2545 12.1122 12.2229C12.3058 12.1912 12.487 12.1073 12.6361 11.9797C12.7852 11.8521 12.8967 11.6861 12.9579 11.4997C13.3761 11.2127 13.7045 10.8131 13.9056 10.3474L13.0819 9.40158C12.6362 9.5243 12.2308 9.76299 11.9076 10.0935V10.0935ZM14.6078 9.6257C15.4089 9.21559 16.1675 8.72687 16.8719 8.16672C16.8952 8.14059 16.9207 8.11652 16.9486 8.09543C16.9668 8.08184 16.9859 8.06937 17.0057 8.05832C17.3184 7.80298 17.621 7.53372 17.913 7.24972C19.2197 5.99752 20.2914 4.52078 21.077 2.89035C19.6199 3.49751 18.2557 4.30811 17.0257 5.29758C15.8161 6.30531 14.7605 7.48444 13.892 8.79758L14.057 8.98654L14.6078 9.6257ZM6.60778 18.1364C6.60778 17.8702 6.68693 17.6102 6.83483 17.3889C6.98273 17.1675 7.19289 16.9947 7.43883 16.8928C7.68478 16.7909 7.95508 16.7642 8.21618 16.8161C8.47728 16.8681 8.71739 16.9965 8.90563 17.1848C9.09387 17.373 9.22186 17.6126 9.2738 17.8737C9.32573 18.1348 9.29901 18.4056 9.19714 18.6516C9.09526 18.8975 8.92288 19.1077 8.70153 19.2556C8.48018 19.4035 8.22019 19.4826 7.95397 19.4826C7.77678 19.4832 7.60125 19.4485 7.43737 19.3811C7.27349 19.3137 7.12446 19.2146 6.99889 19.0896C6.87332 18.9646 6.77355 18.8161 6.70544 18.6526C6.63733 18.489 6.60218 18.3136 6.60192 18.1364H6.60778ZM7.60778 18.1364C7.60798 18.2048 7.62823 18.2716 7.66637 18.3283C7.70451 18.3851 7.7589 18.4293 7.82214 18.4553C7.88538 18.4813 7.95479 18.4883 8.02184 18.4748C8.08889 18.4614 8.15031 18.428 8.1986 18.3796C8.24689 18.3312 8.28006 18.2699 8.29333 18.2028C8.3066 18.1358 8.29952 18.0658 8.27331 18.0027C8.24709 17.9395 8.20274 17.8858 8.14587 17.8479C8.08899 17.8099 8.02236 17.7893 7.95397 17.7893C7.90802 17.7887 7.86231 17.7975 7.81969 17.8147C7.77708 17.8319 7.73816 17.8576 7.70544 17.8899C7.67271 17.9221 7.64657 17.9603 7.62878 18.0027C7.61098 18.045 7.60205 18.0905 7.60192 18.1364H7.60778ZM3.97497 15.1696C3.97497 14.9034 4.05363 14.6429 4.20153 14.4216C4.34943 14.2003 4.55958 14.0279 4.80553 13.926C5.05148 13.8241 5.32227 13.7974 5.58337 13.8493C5.84446 13.9013 6.08409 14.0293 6.27233 14.2175C6.46057 14.4057 6.58905 14.6459 6.64098 14.907C6.69292 15.168 6.6662 15.4388 6.56432 15.6848C6.46245 15.9307 6.29007 16.1409 6.06872 16.2888C5.84737 16.4367 5.58688 16.5153 5.32067 16.5153C5.1434 16.516 4.96806 16.4816 4.80407 16.4143C4.64008 16.347 4.49078 16.2483 4.3651 16.1233C4.23943 15.9982 4.13982 15.8494 4.07165 15.6858C4.00347 15.5221 3.96791 15.3469 3.96764 15.1696H3.97497ZM4.97497 15.1696C4.97517 15.238 4.99542 15.3048 5.03356 15.3615C5.0717 15.4183 5.12608 15.4625 5.18932 15.4885C5.25256 15.5145 5.32198 15.521 5.38903 15.5075C5.45608 15.4941 5.5175 15.4612 5.56579 15.4128C5.61408 15.3644 5.64676 15.3027 5.66003 15.2356C5.6733 15.1685 5.66671 15.099 5.64049 15.0359C5.61428 14.9727 5.56993 14.9186 5.51305 14.8806C5.45618 14.8426 5.38906 14.8225 5.32067 14.8225C5.27456 14.8215 5.22876 14.8299 5.18591 14.8469C5.14305 14.8639 5.10405 14.8893 5.07116 14.9216C5.03827 14.9539 5.01226 14.9928 4.9945 15.0354C4.97673 15.0779 4.9675 15.1235 4.96764 15.1696H4.97497ZM3.97497 11.4035C3.97497 11.1373 4.05363 10.8768 4.20153 10.6555C4.34943 10.4341 4.55958 10.2618 4.80553 10.1599C5.05148 10.058 5.32227 10.0313 5.58337 10.0832C5.84446 10.1352 6.08409 10.2636 6.27233 10.4519C6.46057 10.6401 6.58905 10.8797 6.64098 11.1408C6.69292 11.4019 6.6662 11.6727 6.56432 11.9187C6.46245 12.1646 6.29007 12.3748 6.06872 12.5227C5.84737 12.6706 5.58688 12.7497 5.32067 12.7497C5.14356 12.7504 4.96842 12.7158 4.80456 12.6487C4.64069 12.5815 4.49124 12.4824 4.36559 12.3576C4.23994 12.2328 4.14043 12.0845 4.07214 11.9211C4.00384 11.7577 3.96817 11.5826 3.96764 11.4055L3.97497 11.4035ZM4.97497 11.4035C4.97517 11.4719 4.99542 11.5387 5.03356 11.5954C5.0717 11.6522 5.12608 11.6963 5.18932 11.7224C5.25256 11.7484 5.32198 11.7554 5.38903 11.7419C5.45608 11.7284 5.5175 11.6951 5.56579 11.6467C5.61408 11.5983 5.64676 11.5365 5.66003 11.4695C5.6733 11.4024 5.66671 11.3329 5.64049 11.2697C5.61428 11.2066 5.56993 11.1529 5.51305 11.115C5.45618 11.077 5.38906 11.0564 5.32067 11.0564C5.27439 11.0554 5.22841 11.0641 5.18542 11.0813C5.14243 11.0984 5.10359 11.1239 5.07067 11.1565C5.03776 11.189 5.01166 11.2279 4.99401 11.2707C4.97637 11.3135 4.96723 11.3592 4.96764 11.4055L4.97497 11.4035ZM6.22497 8.61154C6.22497 8.34533 6.30363 8.08484 6.45153 7.86349C6.59943 7.64215 6.80958 7.46976 7.05553 7.36789C7.30148 7.26601 7.57227 7.23929 7.83337 7.29123C8.09446 7.34316 8.33409 7.47164 8.52233 7.65988C8.71057 7.84812 8.83905 8.08775 8.89098 8.34885C8.94292 8.60994 8.9162 8.88073 8.81432 9.12668C8.71245 9.37263 8.54007 9.58278 8.31872 9.73068C8.09737 9.87858 7.83688 9.95724 7.57067 9.95724C7.39331 9.95803 7.21769 9.92392 7.05358 9.85666C6.88947 9.78939 6.7404 9.69068 6.61462 9.56564C6.48883 9.4406 6.38891 9.29185 6.32067 9.12814C6.25243 8.96443 6.21693 8.7889 6.21667 8.61154H6.22497ZM7.22497 8.61154C7.22517 8.67965 7.24513 8.7459 7.28307 8.80246C7.32101 8.85902 7.37492 8.90339 7.43786 8.92941C7.5008 8.95543 7.57027 8.96221 7.63708 8.94894C7.70388 8.93568 7.76512 8.90279 7.81335 8.8547C7.86157 8.80662 7.89462 8.7452 7.90807 8.67844C7.92153 8.61167 7.91487 8.54272 7.88903 8.4797C7.86319 8.41669 7.8195 8.36254 7.76305 8.32443C7.7066 8.28633 7.63975 8.26574 7.57165 8.26535C7.52542 8.26401 7.47948 8.27199 7.43639 8.28879C7.39331 8.30559 7.35428 8.33122 7.32116 8.36349C7.28804 8.39577 7.26142 8.43414 7.24352 8.47678C7.22562 8.51941 7.21651 8.5653 7.21667 8.61154H7.22497Z" fill="white"/>
</svg>
