<svg width="24" height="25" viewBox="0 0 24 25" fill="none" xmlns="http://www.w3.org/2000/svg">
<path d="M17.9995 19.505C17.8669 19.505 17.7393 19.4523 17.6455 19.3585C17.5517 19.2648 17.4995 19.1376 17.4995 19.005C17.4995 18.7398 17.3941 18.4855 17.2065 18.298C17.019 18.1104 16.7647 18.005 16.4995 18.005H14.4995C14.2343 18.005 13.9795 18.1104 13.792 18.298C13.6045 18.4855 13.4995 18.7398 13.4995 19.005C13.4995 19.1376 13.4468 19.2648 13.353 19.3585C13.2593 19.4523 13.1321 19.505 12.9995 19.505H3.99951C3.33647 19.505 2.70029 19.2414 2.23145 18.7726C1.7626 18.3037 1.49951 17.668 1.49951 17.005V15.505C1.49951 15.3724 1.55174 15.2453 1.64551 15.1515C1.73928 15.0577 1.8669 15.005 1.99951 15.005C2.13212 15.005 2.25926 15.0577 2.35303 15.1515C2.4468 15.2453 2.49951 15.3724 2.49951 15.505V17.005C2.49951 17.4028 2.65717 17.7842 2.93848 18.0656C3.21978 18.3469 3.60169 18.505 3.99951 18.505H12.5625C12.6733 18.0759 12.9232 17.6959 13.2734 17.4244C13.6237 17.1529 14.0539 17.0053 14.4971 17.005H14.9971V15.005C14.9971 14.8724 15.0498 14.7453 15.1436 14.6515C15.2373 14.5577 15.3645 14.505 15.4971 14.505C15.6297 14.505 15.7573 14.5577 15.8511 14.6515C15.9448 14.7453 15.9971 14.8724 15.9971 15.005V17.005H16.4971C16.9405 17.0049 17.3715 17.1519 17.7222 17.4235C18.0728 17.695 18.3232 18.0756 18.4341 18.505H19.9971C20.3949 18.505 20.7768 18.3469 21.0581 18.0656C21.3394 17.7842 21.4971 17.4028 21.4971 17.005V7.00501C21.4971 6.60718 21.3394 6.22576 21.0581 5.94446C20.7768 5.66315 20.3949 5.50501 19.9971 5.50501H18.4341C18.3232 5.9344 18.0728 6.31453 17.7222 6.58606C17.3715 6.85759 16.9405 7.00512 16.4971 7.00501H15.9971V9.00501C15.9971 9.13761 15.9448 9.26475 15.8511 9.35852C15.7573 9.45229 15.6297 9.50501 15.4971 9.50501C15.3645 9.50501 15.2373 9.45229 15.1436 9.35852C15.0498 9.26475 14.9971 9.13761 14.9971 9.00501V7.00501H14.4971C13.9649 7.00079 13.4558 6.7868 13.0801 6.40979C12.8285 6.16058 12.6495 5.84804 12.5615 5.50501H3.99805C3.60022 5.50501 3.2188 5.66315 2.9375 5.94446C2.6562 6.22576 2.49805 6.60718 2.49805 7.00501V8.50501C2.49805 8.63761 2.44582 8.76475 2.35205 8.85852C2.25828 8.95229 2.13066 9.00501 1.99805 9.00501C1.86544 9.00501 1.7383 8.95229 1.64453 8.85852C1.55076 8.76475 1.49805 8.63761 1.49805 8.50501V7.00501C1.49805 6.34196 1.76163 5.70578 2.23047 5.23694C2.69931 4.7681 3.33501 4.50501 3.99805 4.50501H12.998C13.064 4.50489 13.1295 4.51786 13.1904 4.54309C13.2514 4.56832 13.307 4.60528 13.3535 4.65198C13.4004 4.69813 13.4373 4.75326 13.4624 4.81409C13.4875 4.87492 13.5002 4.94019 13.4995 5.00598C13.4992 5.13603 13.5244 5.26474 13.5742 5.38489C13.624 5.50503 13.6969 5.61393 13.7891 5.70569C13.9777 5.89607 14.2344 6.00423 14.5024 6.00598H16.5024C16.7677 6.00598 17.0219 5.90055 17.2095 5.71301C17.397 5.52548 17.5024 5.2712 17.5024 5.00598C17.5024 4.87337 17.5552 4.74623 17.6489 4.65247C17.7427 4.5587 17.8698 4.50598 18.0024 4.50598H20.0024C20.6655 4.50598 21.3012 4.76907 21.77 5.23792C22.2389 5.70676 22.5024 6.34294 22.5024 7.00598V17.006C22.5024 17.669 22.2389 18.3047 21.77 18.7736C21.3012 19.2424 20.6655 19.506 20.0024 19.506L17.9995 19.505ZM7.49951 15.505C7.49947 15.3553 7.51604 15.2057 7.54932 15.0597L4.85645 13.4738C4.5709 13.7378 4.21454 13.913 3.83105 13.9777C3.44757 14.0423 3.05357 13.9938 2.69727 13.838C2.34096 13.6822 2.03759 13.4257 1.82471 13.1002C1.61183 12.7748 1.49854 12.3944 1.49854 12.0055C1.49854 11.6166 1.61183 11.2362 1.82471 10.9108C2.03759 10.5853 2.34096 10.3288 2.69727 10.173C3.05357 10.0171 3.44757 9.96869 3.83105 10.0333C4.21454 10.098 4.5709 10.2727 4.85645 10.5367L7.55029 8.95081C7.44154 8.47639 7.50972 7.97879 7.7417 7.5509C7.97368 7.12302 8.35364 6.79434 8.81055 6.62659C9.26745 6.45884 9.7699 6.46364 10.2236 6.63977C10.6774 6.8159 11.0513 7.15105 11.2754 7.58313C11.4995 8.01521 11.5579 8.5146 11.4404 8.98694C11.323 9.45928 11.0376 9.87226 10.6372 10.149C10.2369 10.4258 9.74901 10.5473 9.26562 10.4904C8.78224 10.4334 8.33633 10.2022 8.01123 9.83997L5.39941 11.3771C5.53429 11.7849 5.53429 12.2251 5.39941 12.6329L8.01123 14.171C8.32355 13.8233 8.74793 13.596 9.21045 13.5284C9.67296 13.4609 10.1443 13.5574 10.543 13.8014C10.9417 14.0454 11.2427 14.4213 11.3931 14.8639C11.5435 15.3065 11.5342 15.7874 11.3667 16.2238C11.1992 16.6601 10.884 17.0243 10.4761 17.2526C10.0682 17.4808 9.59333 17.5592 9.13379 17.4738C8.67425 17.3883 8.25902 17.1444 7.96045 16.7848C7.66188 16.4252 7.49896 15.9724 7.49951 15.505V15.505ZM8.49951 15.505C8.49935 15.7487 8.58789 15.9838 8.74902 16.1666C8.91015 16.3494 9.13273 16.4672 9.37451 16.4977C9.61629 16.5281 9.86058 16.4693 10.062 16.3322C10.2634 16.195 10.408 15.9892 10.4683 15.7531C10.5285 15.5169 10.5002 15.2668 10.3892 15.0499C10.2781 14.833 10.092 14.664 9.86523 14.5748C9.63844 14.4857 9.38675 14.4823 9.15771 14.5656C8.92868 14.6488 8.73774 14.813 8.62109 15.027C8.61168 15.0497 8.60094 15.0717 8.58838 15.0929V15.0929C8.52989 15.2223 8.49998 15.363 8.50049 15.505H8.49951ZM2.49951 12.005C2.49951 12.2028 2.55809 12.3962 2.66797 12.5607C2.77785 12.7251 2.93397 12.8531 3.1167 12.9288C3.29943 13.0045 3.50035 13.0241 3.69434 12.9855C3.88832 12.9469 4.06669 12.8519 4.20654 12.712C4.3464 12.5722 4.4414 12.3938 4.47998 12.1998C4.51857 12.0058 4.49903 11.8049 4.42334 11.6222C4.34765 11.4395 4.21914 11.2833 4.05469 11.1735C3.89024 11.0636 3.69729 11.005 3.49951 11.005C3.2343 11.005 2.97953 11.1104 2.79199 11.298C2.60446 11.4855 2.49951 11.7398 2.49951 12.005ZM9.49951 9.50501C9.71529 9.50512 9.92523 9.43536 10.0981 9.30628C10.2711 9.17719 10.3973 8.99561 10.4585 8.7887C10.5197 8.58179 10.5128 8.36073 10.438 8.15833C10.3632 7.95592 10.2245 7.783 10.0435 7.66565C9.86237 7.5483 9.64841 7.49256 9.43311 7.50696C9.2178 7.52136 9.01296 7.60531 8.84912 7.74573C8.68528 7.88615 8.57111 8.07569 8.52393 8.28626C8.47675 8.49682 8.49915 8.71679 8.5874 8.9137C8.59997 8.93557 8.61071 8.95865 8.62012 8.98206C8.70599 9.14028 8.83308 9.27233 8.98779 9.36438C9.1425 9.45643 9.31949 9.50502 9.49951 9.50501ZM14.9995 13.005V11.005C14.9995 10.8724 15.0517 10.7453 15.1455 10.6515C15.2393 10.5577 15.3669 10.505 15.4995 10.505C15.6321 10.505 15.7593 10.5577 15.853 10.6515C15.9468 10.7453 15.9995 10.8724 15.9995 11.005V13.005C15.9995 13.1376 15.9468 13.2648 15.853 13.3585C15.7593 13.4523 15.6321 13.505 15.4995 13.505C15.3669 13.505 15.2393 13.4523 15.1455 13.3585C15.0517 13.2648 14.9995 13.1376 14.9995 13.005Z" fill="white"/>
</svg>
