<svg width="24" height="25" viewBox="0 0 24 25" fill="none" xmlns="http://www.w3.org/2000/svg">
<path d="M18 19.505C17.8674 19.505 17.7398 19.4523 17.646 19.3585C17.5522 19.2648 17.5 19.1376 17.5 19.005C17.5 18.7398 17.3946 18.4855 17.207 18.298C17.0195 18.1104 16.7652 18.005 16.5 18.005H14.5C14.2348 18.005 13.98 18.1104 13.7925 18.298C13.6049 18.4855 13.5 18.7398 13.5 19.005C13.5 19.1376 13.4473 19.2648 13.3535 19.3585C13.2597 19.4523 13.1326 19.505 13 19.505H4C3.33696 19.505 2.70077 19.2414 2.23193 18.7726C1.76309 18.3037 1.5 17.668 1.5 17.005V7.00501C1.5 6.34196 1.76309 5.70578 2.23193 5.23694C2.70077 4.7681 3.33696 4.50501 4 4.50501H13C13.0659 4.50489 13.131 4.51786 13.1919 4.54309C13.2528 4.56832 13.3084 4.60528 13.355 4.65198C13.4019 4.69813 13.4388 4.75326 13.4639 4.81409C13.489 4.87492 13.5017 4.94019 13.501 5.00598C13.5007 5.13603 13.5259 5.26474 13.5757 5.38489C13.6255 5.50503 13.6984 5.61393 13.7905 5.70569C13.9792 5.89607 14.2359 6.00423 14.5039 6.00598H16.5039C16.7691 6.00598 17.0234 5.90055 17.2109 5.71301C17.3985 5.52548 17.5039 5.2712 17.5039 5.00598C17.5039 4.87337 17.5566 4.74623 17.6504 4.65247C17.7442 4.5587 17.8713 4.50598 18.0039 4.50598H20.0039C20.6669 4.50598 21.3026 4.76907 21.7715 5.23792C22.2403 5.70676 22.5039 6.34294 22.5039 7.00598V17.006C22.5039 17.669 22.2403 18.3047 21.7715 18.7736C21.3026 19.2424 20.6669 19.506 20.0039 19.506L18 19.505ZM16.5 17.005C16.9435 17.0049 17.374 17.1519 17.7246 17.4235C18.0752 17.695 18.3261 18.0756 18.437 18.505H20C20.3978 18.505 20.7792 18.3469 21.0605 18.0656C21.3419 17.7842 21.5 17.4028 21.5 17.005V7.00501C21.5 6.60718 21.3419 6.22576 21.0605 5.94446C20.7792 5.66315 20.3978 5.50501 20 5.50501H18.437C18.3261 5.9344 18.0752 6.31453 17.7246 6.58606C17.374 6.85759 16.9435 7.00512 16.5 7.00501H16V9.00501C16 9.13761 15.9473 9.26475 15.8535 9.35852C15.7597 9.45229 15.6326 9.50501 15.5 9.50501C15.3674 9.50501 15.2398 9.45229 15.146 9.35852C15.0522 9.26475 15 9.13761 15 9.00501V7.00501H14.5C13.9678 7.00079 13.4587 6.7868 13.083 6.40979C12.8314 6.16058 12.652 5.84804 12.564 5.50501H4.00098C3.60315 5.50501 3.22125 5.66315 2.93994 5.94446C2.65864 6.22576 2.50098 6.60718 2.50098 7.00501V17.005C2.50098 17.4028 2.65864 17.7842 2.93994 18.0656C3.22125 18.3469 3.60315 18.505 4.00098 18.505H12.564C12.6747 18.0759 12.9247 17.6959 13.2749 17.4244C13.6251 17.1529 14.0554 17.0053 14.4985 17.005H14.9985V15.005C14.9985 14.8724 15.0513 14.7453 15.145 14.6515C15.2388 14.5577 15.3659 14.505 15.4985 14.505C15.6311 14.505 15.7588 14.5577 15.8525 14.6515C15.9463 14.7453 15.9985 14.8724 15.9985 15.005V17.005H16.5ZM5.23584 17.005C4.83802 17.005 4.4566 16.8469 4.17529 16.5656C3.89399 16.2842 3.73584 15.9028 3.73584 15.505V14.505C3.73584 14.3724 3.78856 14.2453 3.88232 14.1515C3.97609 14.0577 4.10323 14.005 4.23584 14.005C4.36845 14.005 4.49559 14.0577 4.58936 14.1515C4.68312 14.2453 4.73584 14.3724 4.73584 14.505V15.505C4.73584 15.6376 4.78856 15.7648 4.88232 15.8585C4.97609 15.9523 5.10323 16.005 5.23584 16.005H10.2358C10.3684 16.005 10.4956 15.9523 10.5894 15.8585C10.6831 15.7648 10.7358 15.6376 10.7358 15.505V14.505C10.7358 14.3724 10.7886 14.2453 10.8823 14.1515C10.9761 14.0577 11.1032 14.005 11.2358 14.005C11.3684 14.005 11.4956 14.0577 11.5894 14.1515C11.6831 14.2453 11.7358 14.3724 11.7358 14.505V15.505C11.7358 15.9028 11.5777 16.2842 11.2964 16.5656C11.0151 16.8469 10.6337 17.005 10.2358 17.005H5.23584ZM7.38281 14.359L5.38281 12.359C5.28893 12.2651 5.23633 12.1378 5.23633 12.005C5.23633 11.8722 5.28893 11.7449 5.38281 11.651C5.4767 11.5571 5.60404 11.5045 5.73682 11.5045C5.86959 11.5045 5.99693 11.5571 6.09082 11.651L7.23682 12.797V7.50501C7.23682 7.3724 7.28953 7.24526 7.3833 7.15149C7.47707 7.05772 7.60421 7.00501 7.73682 7.00501C7.86942 7.00501 7.99656 7.05772 8.09033 7.15149C8.1841 7.24526 8.23682 7.3724 8.23682 7.50501V12.7999L9.38477 11.652C9.47919 11.561 9.60571 11.5105 9.73682 11.5118C9.86792 11.5132 9.99287 11.566 10.0854 11.6588C10.178 11.7517 10.2305 11.8773 10.2314 12.0084C10.2324 12.1395 10.182 12.2658 10.0908 12.36L8.09082 14.36C8.04437 14.4065 7.98897 14.4432 7.92822 14.4684C7.86748 14.4936 7.80258 14.507 7.73682 14.507C7.67105 14.507 7.60567 14.4936 7.54492 14.4684C7.48418 14.4432 7.42926 14.4065 7.38281 14.36V14.359ZM15 13.006V11.006C15 10.8734 15.0522 10.7462 15.146 10.6525C15.2398 10.5587 15.3674 10.506 15.5 10.506C15.6326 10.506 15.7597 10.5587 15.8535 10.6525C15.9473 10.7462 16 10.8734 16 11.006V13.006C16 13.1386 15.9473 13.2657 15.8535 13.3595C15.7597 13.4533 15.6326 13.506 15.5 13.506C15.3674 13.506 15.2398 13.4533 15.146 13.3595C15.0522 13.2657 15 13.1386 15 13.006Z" fill="white"/>
</svg>
