<svg width="24" height="25" viewBox="0 0 24 25" fill="none" xmlns="http://www.w3.org/2000/svg">
<path d="M2 18.505C1.86739 18.505 1.73976 18.4523 1.646 18.3585C1.55223 18.2648 1.5 18.1376 1.5 18.005C1.5 17.8724 1.55223 17.7453 1.646 17.6515C1.73976 17.5577 1.86739 17.505 2 17.505H22C22.1326 17.505 22.2597 17.5577 22.3535 17.6515C22.4473 17.7453 22.5 17.8724 22.5 18.005C22.5 18.1376 22.4473 18.2648 22.3535 18.3585C22.2597 18.4523 22.1326 18.505 22 18.505H2ZM20.7998 15.1979L8.09961 13.6398C7.51698 13.5485 6.95835 13.3423 6.45605 13.0333C5.95376 12.7243 5.51802 12.3189 5.17383 11.84L2.20898 7.5397C2.15267 7.45914 2.12107 7.36403 2.11865 7.26577C2.11623 7.16751 2.14303 7.07068 2.19531 6.98745C2.2476 6.90422 2.32303 6.83847 2.4126 6.798C2.50216 6.75752 2.60172 6.74414 2.69873 6.75991L5.79883 7.2477C5.90615 7.26545 6.00488 7.31652 6.08154 7.3937L8.39258 9.79897L10.6836 9.96401L8.43262 6.256C8.38654 6.17991 8.36158 6.093 8.36035 6.00405C8.35912 5.9151 8.38183 5.82748 8.42578 5.75014C8.46824 5.67055 8.53243 5.60432 8.61084 5.55972C8.68925 5.51511 8.77854 5.49352 8.86865 5.4977L10.2686 5.51675C10.594 5.52138 10.9155 5.59004 11.2144 5.71889C11.5133 5.84775 11.7839 6.03427 12.0107 6.26772L15.2607 10.3488L18.7539 10.8258C19.3497 10.9562 19.8766 11.3017 20.2339 11.796L21.6938 13.8307C21.805 13.9676 21.872 14.1354 21.8862 14.3112C21.9005 14.487 21.8615 14.663 21.7739 14.8161C21.6881 14.943 21.571 15.0458 21.4341 15.1144C21.2971 15.1831 21.1447 15.2154 20.9917 15.2082C20.9281 15.2126 20.8642 15.2112 20.8008 15.2047L20.7998 15.1979ZM5.98877 11.2702C6.25334 11.6376 6.58816 11.9486 6.97363 12.1862C7.35911 12.4237 7.7877 12.5828 8.23486 12.654L20.6997 14.1808L19.417 12.3869C19.2115 12.1001 18.9092 11.8975 18.5659 11.8161L14.9219 11.3161C14.7944 11.2983 14.6785 11.2319 14.5986 11.131L11.2559 6.93081C10.9877 6.67026 10.6297 6.52265 10.2559 6.5187L9.75586 6.51186L12.042 10.278C12.0899 10.3564 12.1152 10.4463 12.1152 10.5382C12.1152 10.6301 12.0899 10.7205 12.042 10.799C11.9952 10.8778 11.9267 10.9416 11.8452 10.9835C11.7637 11.0255 11.6719 11.0436 11.5806 11.0358L8.13086 10.7887C8.00647 10.78 7.88969 10.7252 7.80371 10.6349L5.47656 8.21206L3.69385 7.93081L5.98877 11.2702Z" fill="white"/>
</svg>
