<svg width="24" height="25" viewBox="0 0 24 25" fill="none" xmlns="http://www.w3.org/2000/svg">
<path d="M18 19.506C17.8674 19.506 17.7398 19.4533 17.646 19.3595C17.5522 19.2657 17.5 19.1386 17.5 19.006C17.5 18.7408 17.3946 18.4865 17.207 18.299C17.0195 18.1114 16.7652 18.006 16.5 18.006H14.5C14.2348 18.006 13.98 18.1114 13.7925 18.299C13.6049 18.4865 13.5 18.7408 13.5 19.006C13.5 19.1386 13.4473 19.2657 13.3535 19.3595C13.2597 19.4533 13.1326 19.506 13 19.506H4C3.33696 19.506 2.70077 19.2424 2.23193 18.7736C1.76309 18.3047 1.5 17.669 1.5 17.006V7.00598C1.5 6.34294 1.76309 5.70676 2.23193 5.23792C2.70077 4.76907 3.33696 4.50598 4 4.50598H5.97656C6.10917 4.50598 6.2368 4.5587 6.33057 4.65247C6.42433 4.74623 6.47656 4.87337 6.47656 5.00598C6.47656 5.13859 6.42433 5.26573 6.33057 5.3595C6.2368 5.45327 6.10917 5.50598 5.97656 5.50598H4C3.60218 5.50598 3.22027 5.66413 2.93896 5.94543C2.65766 6.22674 2.5 6.60816 2.5 7.00598V17.006C2.5 17.4038 2.65766 17.7852 2.93896 18.0665C3.22027 18.3478 3.60218 18.506 4 18.506H12.563C12.6738 18.0769 12.9237 17.6969 13.2739 17.4254C13.6242 17.1539 14.0544 17.0063 14.4976 17.006H14.9976V15.006C14.9976 14.8734 15.0503 14.7462 15.144 14.6525C15.2378 14.5587 15.365 14.506 15.4976 14.506C15.6302 14.506 15.7578 14.5587 15.8516 14.6525C15.9453 14.7462 15.9976 14.8734 15.9976 15.006V17.006H16.4976C16.941 17.0059 17.372 17.1529 17.7227 17.4244C18.0733 17.696 18.3237 18.0766 18.4346 18.506H19.9976C20.3954 18.506 20.7773 18.3478 21.0586 18.0665C21.3399 17.7852 21.4976 17.4038 21.4976 17.006V7.00598C21.4976 6.60816 21.3399 6.22674 21.0586 5.94543C20.7773 5.66413 20.3954 5.50598 19.9976 5.50598H18.4346C18.3237 5.93538 18.0733 6.31551 17.7227 6.58704C17.372 6.85857 16.941 7.00609 16.4976 7.00598H15.9976V9.00598C15.9976 9.13859 15.9453 9.26573 15.8516 9.3595C15.7578 9.45327 15.6302 9.50598 15.4976 9.50598C15.365 9.50598 15.2378 9.45327 15.144 9.3595C15.0503 9.26573 14.9976 9.13859 14.9976 9.00598V7.00598H14.4976C13.9658 7.00155 13.457 6.78836 13.0806 6.41272C12.8293 6.16247 12.6504 5.84943 12.562 5.50598H11.0977C10.965 5.50598 10.8379 5.45327 10.7441 5.3595C10.6504 5.26573 10.5977 5.13859 10.5977 5.00598C10.5977 4.87337 10.6504 4.74623 10.7441 4.65247C10.8379 4.5587 10.965 4.50598 11.0977 4.50598H12.9976C13.1302 4.50598 13.2578 4.5587 13.3516 4.65247C13.4453 4.74623 13.4976 4.87337 13.4976 5.00598C13.4978 5.26849 13.6021 5.51992 13.7876 5.70569C13.9766 5.89552 14.2331 6.00358 14.501 6.00598H16.501C16.7662 6.00598 17.0205 5.90055 17.208 5.71301C17.3955 5.52548 17.501 5.2712 17.501 5.00598C17.501 4.87337 17.5532 4.74623 17.647 4.65247C17.7407 4.5587 17.8684 4.50598 18.001 4.50598H20.001C20.664 4.50598 21.2997 4.76907 21.7686 5.23792C22.2374 5.70676 22.501 6.34294 22.501 7.00598V17.006C22.501 17.669 22.2374 18.3047 21.7686 18.7736C21.2997 19.2424 20.664 19.506 20.001 19.506H18ZM5.5 16.8761C5.10218 16.8761 4.72027 16.718 4.43896 16.4366C4.15766 16.1553 4 15.7739 4 15.3761V13.2877C4 13.1551 4.05223 13.028 4.146 12.9342C4.23976 12.8404 4.36739 12.7877 4.5 12.7877C4.63261 12.7877 4.75975 12.8404 4.85352 12.9342C4.94728 13.028 5 13.1551 5 13.2877V15.3761C5 15.5087 5.05223 15.6358 5.146 15.7296C5.23976 15.8234 5.36739 15.8761 5.5 15.8761H7.5C7.63261 15.8761 7.75975 15.8234 7.85352 15.7296C7.94728 15.6358 8 15.5087 8 15.3761V6.21399L6.46191 7.75208C6.36803 7.84596 6.24069 7.89856 6.10791 7.89856C5.97513 7.89856 5.84779 7.84596 5.75391 7.75208C5.66002 7.65819 5.60693 7.53085 5.60693 7.39807C5.60693 7.2653 5.66002 7.13795 5.75391 7.04407L8.14697 4.65198C8.19342 4.60541 8.24834 4.5683 8.30908 4.54309C8.36983 4.51788 8.43521 4.505 8.50098 4.505C8.56674 4.505 8.63164 4.51788 8.69238 4.54309C8.75313 4.5683 8.80853 4.60541 8.85498 4.65198L11.2476 7.04407C11.3414 7.13795 11.3945 7.2653 11.3945 7.39807C11.3945 7.53085 11.3414 7.65819 11.2476 7.75208C11.1537 7.84596 11.0263 7.89856 10.8936 7.89856C10.7608 7.89856 10.6334 7.84596 10.5396 7.75208L9 6.21204V15.3761C9 15.7739 8.84185 16.1553 8.56055 16.4366C8.27924 16.718 7.89782 16.8761 7.5 16.8761H5.5ZM15 13.007V11.007C15 10.8743 15.0522 10.7472 15.146 10.6534C15.2398 10.5597 15.3674 10.507 15.5 10.507C15.6326 10.507 15.7597 10.5597 15.8535 10.6534C15.9473 10.7472 16 10.8743 16 11.007V13.007C16 13.1396 15.9473 13.2667 15.8535 13.3605C15.7597 13.4542 15.6326 13.507 15.5 13.507C15.3674 13.507 15.2398 13.4542 15.146 13.3605C15.0522 13.2667 15 13.1396 15 13.007Z" fill="white"/>
</svg>
