<svg width="24" height="25" viewBox="0 0 24 25" fill="none" xmlns="http://www.w3.org/2000/svg">
<path d="M17 19.505C16.8674 19.505 16.7398 19.4523 16.646 19.3585C16.5522 19.2648 16.5 19.1376 16.5 19.005C16.5 18.7398 16.3946 18.4855 16.207 18.298C16.0195 18.1104 15.7652 18.005 15.5 18.005H13.5C13.2348 18.005 12.98 18.1104 12.7925 18.298C12.6049 18.4855 12.5 18.7398 12.5 19.005C12.5 19.1376 12.4473 19.2648 12.3535 19.3585C12.2597 19.4523 12.1326 19.505 12 19.505H4C3.33696 19.505 2.70077 19.2414 2.23193 18.7726C1.76309 18.3037 1.5 17.668 1.5 17.005V7.00501C1.5 6.34196 1.76309 5.70578 2.23193 5.23694C2.70077 4.7681 3.33696 4.50501 4 4.50501H12C12.0659 4.50489 12.131 4.51786 12.1919 4.54309C12.2528 4.56832 12.3084 4.60528 12.355 4.65198C12.4014 4.6985 12.4378 4.75383 12.4629 4.81458C12.4879 4.87532 12.5011 4.94028 12.501 5.00598C12.5005 5.13605 12.5259 5.26472 12.5757 5.38489C12.6255 5.50506 12.6982 5.61403 12.7905 5.70569C12.8835 5.79994 12.9942 5.87541 13.1162 5.92688C13.2382 5.97836 13.3695 6.00513 13.502 6.00598H15.502C15.7672 6.00598 16.0214 5.90055 16.209 5.71301C16.3965 5.52548 16.502 5.2712 16.502 5.00598C16.502 4.87337 16.5547 4.74623 16.6484 4.65247C16.7422 4.5587 16.8693 4.50598 17.002 4.50598H20.002C20.665 4.50598 21.3007 4.76907 21.7695 5.23792C22.2384 5.70676 22.502 6.34294 22.502 7.00598V17.006C22.502 17.669 22.2384 18.3047 21.7695 18.7736C21.3007 19.2424 20.665 19.506 20.002 19.506L17 19.505ZM15.5 17.005C15.9435 17.0049 16.374 17.1519 16.7246 17.4235C17.0752 17.695 17.3261 18.0756 17.437 18.505H20C20.3978 18.505 20.7792 18.3469 21.0605 18.0656C21.3419 17.7842 21.5 17.4028 21.5 17.005V7.00501C21.5 6.60718 21.3419 6.22576 21.0605 5.94446C20.7792 5.66315 20.3978 5.50501 20 5.50501H17.437C17.3252 5.93389 17.0741 6.31371 16.7236 6.58508C16.3732 6.85645 15.9432 7.00409 15.5 7.00501H15V9.00501C15 9.13761 14.9473 9.26475 14.8535 9.35852C14.7597 9.45229 14.6326 9.50501 14.5 9.50501C14.3674 9.50501 14.2398 9.45229 14.146 9.35852C14.0522 9.26475 14 9.13761 14 9.00501V7.00501H13.5C12.9672 7.00247 12.4567 6.78824 12.0815 6.40979C11.8314 6.15974 11.6533 5.84745 11.5649 5.50501H4.00098C3.60315 5.50501 3.22125 5.66315 2.93994 5.94446C2.65864 6.22576 2.50098 6.60718 2.50098 7.00501V17.005C2.50098 17.4028 2.65864 17.7842 2.93994 18.0656C3.22125 18.3469 3.60315 18.505 4.00098 18.505H11.5649C11.6758 18.0758 11.9259 17.6955 12.2764 17.424C12.6268 17.1524 13.0577 17.0051 13.501 17.005H14.001V15.005C14.001 14.8724 14.0532 14.7453 14.147 14.6515C14.2407 14.5577 14.3684 14.505 14.501 14.505C14.6336 14.505 14.7607 14.5577 14.8545 14.6515C14.9483 14.7453 15.001 14.8724 15.001 15.005V17.005H15.5ZM14 13.005V11.005C14 10.8724 14.0522 10.7453 14.146 10.6515C14.2398 10.5577 14.3674 10.505 14.5 10.505C14.6326 10.505 14.7597 10.5577 14.8535 10.6515C14.9473 10.7453 15 10.8724 15 11.005V13.005C15 13.1376 14.9473 13.2648 14.8535 13.3585C14.7597 13.4523 14.6326 13.505 14.5 13.505C14.3674 13.505 14.2398 13.4523 14.146 13.3585C14.0522 13.2648 14 13.1376 14 13.005Z" fill="white"/>
</svg>
