<svg width="22" height="20" viewBox="0 0 22 20" fill="none" xmlns="http://www.w3.org/2000/svg">
<g id="TIcket Download-2">
<g id="Path 1586">
<path id="Path 3491" d="M13 19.4961H2C1.60218 19.4961 1.22065 19.3381 0.939346 19.0568C0.658042 18.7755 0.5 18.3939 0.5 17.9961V5.99609C0.5 5.59827 0.658042 5.21673 0.939346 4.93542C1.22065 4.65412 1.60218 4.49609 2 4.49609H10.356C10.4886 4.49609 10.6158 4.54876 10.7095 4.64253C10.8033 4.7363 10.856 4.86349 10.856 4.99609C10.856 5.1287 10.8033 5.25587 10.7095 5.34964C10.6158 5.44341 10.4886 5.49609 10.356 5.49609H2C1.86739 5.49609 1.74022 5.54876 1.64645 5.64253C1.55269 5.7363 1.5 5.86349 1.5 5.99609V17.9961C1.5 18.1287 1.55269 18.2559 1.64645 18.3496C1.74022 18.4434 1.86739 18.4961 2 18.4961H13C13.1326 18.4961 13.2598 18.5488 13.3535 18.6425C13.4473 18.7363 13.5 18.8635 13.5 18.9961C13.5 19.1287 13.4473 19.2559 13.3535 19.3496C13.2598 19.4434 13.1326 19.4961 13 19.4961Z" fill="white"/>
</g>
<g id="Path 1587">
<path id="Path 3492" d="M20 19.496H17C16.8674 19.496 16.7402 19.4433 16.6465 19.3495C16.5527 19.2558 16.5 19.1286 16.5 18.996C16.5 18.8634 16.5527 18.7362 16.6465 18.6424C16.7402 18.5487 16.8674 18.496 17 18.496H20C20.1326 18.496 20.2598 18.4433 20.3535 18.3495C20.4473 18.2558 20.5 18.1286 20.5 17.996V13.48C20.5 13.3474 20.5527 13.2202 20.6465 13.1264C20.7402 13.0327 20.8674 12.98 21 12.98C21.1326 12.98 21.2598 13.0327 21.3535 13.1264C21.4473 13.2202 21.5 13.3474 21.5 13.48V17.996C21.5 18.3938 21.342 18.7754 21.0607 19.0567C20.7793 19.338 20.3978 19.496 20 19.496Z" fill="white"/>
</g>
<g id="Line 128">
<path id="Path 3493" d="M15 17.4961C14.8674 17.4961 14.7402 17.4434 14.6465 17.3496C14.5527 17.2559 14.5 17.1287 14.5 16.9961V15.9961C14.5 15.8635 14.5527 15.7363 14.6465 15.6425C14.7402 15.5488 14.8674 15.4961 15 15.4961C15.1326 15.4961 15.2598 15.5488 15.3535 15.6425C15.4473 15.7363 15.5 15.8635 15.5 15.9961V16.9961C15.5 17.1287 15.4473 17.2559 15.3535 17.3496C15.2598 17.4434 15.1326 17.4961 15 17.4961ZM15 14.4961C14.8674 14.4961 14.7402 14.4434 14.6465 14.3496C14.5527 14.2559 14.5 14.1287 14.5 13.9961V12.9961C14.5 12.8635 14.5527 12.7363 14.6465 12.6425C14.7402 12.5488 14.8674 12.4961 15 12.4961C15.1326 12.4961 15.2598 12.5488 15.3535 12.6425C15.4473 12.7363 15.5 12.8635 15.5 12.9961V13.9961C15.5 14.1287 15.4473 14.2559 15.3535 14.3496C15.2598 14.4434 15.1326 14.4961 15 14.4961Z" fill="white"/>
</g>
<g id="Line 129">
<path id="Path 3494" d="M9.5 9.49609H4.5C4.36739 9.49609 4.24022 9.44341 4.14645 9.34964C4.05269 9.25587 4 9.1287 4 8.99609C4 8.86349 4.05269 8.7363 4.14645 8.64253C4.24022 8.54876 4.36739 8.49609 4.5 8.49609H9.5C9.63261 8.49609 9.75978 8.54876 9.85355 8.64253C9.94731 8.7363 10 8.86349 10 8.99609C10 9.1287 9.94731 9.25587 9.85355 9.34964C9.75978 9.44341 9.63261 9.49609 9.5 9.49609Z" fill="white"/>
</g>
<g id="Line 130">
<path id="Path 3495" d="M10.5 12.4961H4.5C4.36739 12.4961 4.24022 12.4434 4.14645 12.3496C4.05269 12.2559 4 12.1287 4 11.9961C4 11.8635 4.05269 11.7363 4.14645 11.6425C4.24022 11.5488 4.36739 11.4961 4.5 11.4961H10.5C10.6326 11.4961 10.7598 11.5488 10.8535 11.6425C10.9473 11.7363 11 11.8635 11 11.9961C11 12.1287 10.9473 12.2559 10.8535 12.3496C10.7598 12.4434 10.6326 12.4961 10.5 12.4961Z" fill="white"/>
</g>
<g id="Line 131">
<path id="Path 3496" d="M10.5 15.4961H7.5C7.36739 15.4961 7.24022 15.4434 7.14645 15.3496C7.05269 15.2559 7 15.1287 7 14.9961C7 14.8635 7.05269 14.7363 7.14645 14.6425C7.24022 14.5488 7.36739 14.4961 7.5 14.4961H10.5C10.6326 14.4961 10.7598 14.5488 10.8535 14.6425C10.9473 14.7363 11 14.8635 11 14.9961C11 15.1287 10.9473 15.2559 10.8535 15.3496C10.7598 15.4434 10.6326 15.4961 10.5 15.4961Z" fill="white"/>
</g>
<g id="Line 132">
<path id="Path 3497" d="M17 7.99609C16.8674 7.99609 16.7402 7.94341 16.6465 7.84964C16.5527 7.75587 16.5 7.6287 16.5 7.49609V0.996094C16.5 0.863486 16.5527 0.736301 16.6465 0.642532C16.7402 0.548764 16.8674 0.496094 17 0.496094C17.1326 0.496094 17.2598 0.548764 17.3535 0.642532C17.4473 0.736301 17.5 0.863486 17.5 0.996094V7.49609C17.5 7.6287 17.4473 7.75587 17.3535 7.84964C17.2598 7.94341 17.1326 7.99609 17 7.99609Z" fill="white"/>
</g>
<g id="Path 1588">
<path id="Path 3498" d="M16.9998 7.99614C16.934 7.99613 16.8689 7.98313 16.8081 7.9579C16.7474 7.93268 16.6922 7.89572 16.6458 7.84914L14.6458 5.84914C14.552 5.75525 14.4994 5.62797 14.4995 5.49529C14.4996 5.3626 14.5524 5.23539 14.6463 5.14163C14.7402 5.04788 14.8675 4.99527 15.0001 4.99536C15.1328 4.99546 15.26 5.04825 15.3538 5.14214L16.9998 6.79613L18.6458 5.15013C18.7395 5.05624 18.8668 5.00345 18.9994 5.00336C19.1321 5.00326 19.2594 5.05587 19.3533 5.14963C19.4472 5.24338 19.5 5.3706 19.5001 5.50328C19.5002 5.63596 19.4475 5.76325 19.3538 5.85713L17.3538 7.85713C17.2587 7.94829 17.1315 7.99824 16.9998 7.99614Z" fill="white"/>
</g>
<g id="Path 1589">
<path id="Path 3499" d="M20 10.4961H14C13.6022 10.4961 13.2207 10.3381 12.9393 10.0567C12.658 9.77544 12.5 9.39392 12.5 8.99609V6.99609C12.5 6.86349 12.5527 6.7363 12.6465 6.64253C12.7402 6.54876 12.8674 6.49609 13 6.49609C13.1326 6.49609 13.2598 6.54876 13.3535 6.64253C13.4473 6.7363 13.5 6.86349 13.5 6.99609V8.99609C13.5 9.1287 13.5527 9.25587 13.6465 9.34964C13.7402 9.44341 13.8674 9.49609 14 9.49609H20C20.1326 9.49609 20.2598 9.44341 20.3535 9.34964C20.4473 9.25587 20.5 9.1287 20.5 8.99609V6.99609C20.5 6.86349 20.5527 6.7363 20.6465 6.64253C20.7402 6.54876 20.8674 6.49609 21 6.49609C21.1326 6.49609 21.2598 6.54876 21.3535 6.64253C21.4473 6.7363 21.5 6.86349 21.5 6.99609V8.99609C21.5 9.39392 21.342 9.77544 21.0607 10.0567C20.7793 10.3381 20.3978 10.4961 20 10.4961Z" fill="white"/>
</g>
</g>
</svg>
