<svg width="24" height="25" viewBox="0 0 24 25" fill="none" xmlns="http://www.w3.org/2000/svg">
<path d="M7.77834 22.506C7.1153 22.506 6.47911 22.2424 6.01027 21.7736C5.54143 21.3047 5.27834 20.669 5.27834 20.006V14.339C5.27834 14.2064 5.33106 14.0792 5.42482 13.9855C5.51859 13.8917 5.64573 13.839 5.77834 13.839C5.91095 13.839 6.03809 13.8917 6.13185 13.9855C6.22562 14.0792 6.27834 14.2064 6.27834 14.339V20.006C6.27834 20.4038 6.43649 20.7852 6.71779 21.0665C6.9991 21.3478 7.38051 21.506 7.77834 21.506H19.0015C19.3993 21.506 19.7807 21.3478 20.062 21.0665C20.3433 20.7852 20.5015 20.4038 20.5015 20.006V4.00598C20.5015 3.60816 20.3433 3.22674 20.062 2.94543C19.7807 2.66413 19.3993 2.50598 19.0015 2.50598H7.77834C7.38051 2.50598 6.9991 2.66413 6.71779 2.94543C6.43649 3.22674 6.27834 3.60816 6.27834 4.00598V9.96497L8.20412 8.04065C8.24952 7.99001 8.30499 7.94957 8.36672 7.92102C8.42845 7.89247 8.4955 7.87644 8.5635 7.87463C8.63149 7.87283 8.69907 7.88504 8.76223 7.91028C8.82539 7.93551 8.88266 7.97344 8.93068 8.02161C8.97871 8.06977 9.01647 8.12732 9.04152 8.19055C9.06658 8.25378 9.07819 8.3213 9.07619 8.38928C9.07419 8.45727 9.05853 8.52441 9.0298 8.58606C9.00108 8.64771 8.95997 8.70242 8.9092 8.74768L6.13332 11.526C6.11347 11.5457 6.0921 11.5635 6.06935 11.5797C5.99144 11.6356 5.89899 11.6681 5.80324 11.673H5.77834C5.70857 11.6728 5.63943 11.6579 5.5757 11.6295C5.51198 11.6011 5.45497 11.5597 5.40822 11.5079L2.64846 8.7467C2.55738 8.6524 2.50669 8.52624 2.50783 8.39514C2.50897 8.26404 2.56161 8.13872 2.65432 8.04602C2.74702 7.95332 2.87234 7.90068 3.00344 7.89954C3.13454 7.8984 3.26119 7.94859 3.35549 8.03967L5.27932 9.96497V4.005C5.27932 3.34196 5.54241 2.70578 6.01125 2.23694C6.48009 1.7681 7.11627 1.505 7.77932 1.505H19.0025C19.6655 1.505 20.3012 1.7681 20.77 2.23694C21.2389 2.70578 21.5025 3.34196 21.5025 4.005V20.005C21.5025 20.668 21.2389 21.3037 20.77 21.7726C20.3012 22.2414 19.6655 22.505 19.0025 22.505L7.77834 22.506ZM14.0025 15.006C13.8699 15.006 13.7422 14.9533 13.6485 14.8595C13.5547 14.7657 13.5025 14.6386 13.5025 14.506C13.5025 14.3734 13.5547 14.2462 13.6485 14.1525C13.7422 14.0587 13.8699 14.006 14.0025 14.006H18.0025C18.1351 14.006 18.2622 14.0587 18.356 14.1525C18.4497 14.2462 18.5025 14.3734 18.5025 14.506C18.5025 14.6386 18.4497 14.7657 18.356 14.8595C18.2622 14.9533 18.1351 15.006 18.0025 15.006H14.0025ZM12.0025 12.006C11.8699 12.006 11.7422 11.9533 11.6485 11.8595C11.5547 11.7657 11.5025 11.6386 11.5025 11.506C11.5025 11.3734 11.5547 11.2462 11.6485 11.1525C11.7422 11.0587 11.8699 11.006 12.0025 11.006H18.0025C18.1351 11.006 18.2622 11.0587 18.356 11.1525C18.4497 11.2462 18.5025 11.3734 18.5025 11.506C18.5025 11.6386 18.4497 11.7657 18.356 11.8595C18.2622 11.9533 18.1351 12.006 18.0025 12.006H12.0025ZM12.0025 9.00598C11.8699 9.00598 11.7422 8.95327 11.6485 8.8595C11.5547 8.76573 11.5025 8.63859 11.5025 8.50598C11.5025 8.37337 11.5547 8.24623 11.6485 8.15247C11.7422 8.0587 11.8699 8.00598 12.0025 8.00598H18.0025C18.1351 8.00598 18.2622 8.0587 18.356 8.15247C18.4497 8.24623 18.5025 8.37337 18.5025 8.50598C18.5025 8.63859 18.4497 8.76573 18.356 8.8595C18.2622 8.95327 18.1351 9.00598 18.0025 9.00598H12.0025ZM12.0025 6.00598C11.8699 6.00598 11.7422 5.95327 11.6485 5.8595C11.5547 5.76573 11.5025 5.63859 11.5025 5.50598C11.5025 5.37337 11.5547 5.24623 11.6485 5.15247C11.7422 5.0587 11.8699 5.00598 12.0025 5.00598H18.0025C18.1351 5.00598 18.2622 5.0587 18.356 5.15247C18.4497 5.24623 18.5025 5.37337 18.5025 5.50598C18.5025 5.63859 18.4497 5.76573 18.356 5.8595C18.2622 5.95327 18.1351 6.00598 18.0025 6.00598H12.0025Z" fill="white"/>
</svg>
