<svg width="40" height="40" viewBox="0 0 40 40" fill="none" xmlns="http://www.w3.org/2000/svg">
<g clip-path="url(#clip0_204_65154)">
<path d="M27.75 10.262H18.75C15.4363 10.262 12.75 12.9483 12.75 16.262V25.262C12.75 28.5757 15.4363 31.262 18.75 31.262H27.75C31.0637 31.262 33.75 28.5757 33.75 25.262V16.262C33.75 12.9483 31.0637 10.262 27.75 10.262Z" stroke="white" stroke-width="2" stroke-miterlimit="10"/>
<path d="M10.506 10.472C11.0575 9.51907 11.8251 8.70899 12.747 8.10699" stroke="white" stroke-width="2" stroke-linecap="round" stroke-linejoin="round"/>
<path d="M31.8469 11.887L25.4289 5.69401C24.3094 4.60529 22.8086 3.99736 21.247 4.00001H12.247C10.6557 4.00001 9.12953 4.63215 8.00431 5.75737C6.87909 6.88259 6.24695 8.40871 6.24695 10V19C6.24633 19.7906 6.40245 20.5734 6.70626 21.3032C7.01007 22.0331 7.45555 22.6954 8.01695 23.252L14.281 29.252" stroke="white" stroke-width="2" stroke-miterlimit="10"/>
<path d="M27.25 20.762C27.25 18.5529 25.4591 16.762 23.25 16.762C21.0409 16.762 19.25 18.5529 19.25 20.762C19.25 22.9711 21.0409 24.762 23.25 24.762C25.4591 24.762 27.25 22.9711 27.25 20.762Z" stroke="white" stroke-width="2" stroke-linecap="round" stroke-linejoin="round"/>
<path d="M22.2469 32V34C22.2469 34.5304 22.0362 35.0391 21.6612 35.4142C21.2861 35.7893 20.7774 36 20.2469 36H19.2469C18.7165 36 18.2078 35.7893 17.8327 35.4142C17.4577 35.0391 17.2469 34.5304 17.2469 34V32" stroke="white" stroke-width="2" stroke-linecap="round" stroke-linejoin="round"/>
</g>
<defs>
<clipPath id="clip0_204_65154">
<rect width="40" height="40" fill="white"/>
</clipPath>
</defs>
</svg>
