<svg width="24" height="25" viewBox="0 0 24 25" fill="none" xmlns="http://www.w3.org/2000/svg">
<path d="M17.3242 22.2931L15.8433 20.17H8.18848L6.66748 22.298C6.62096 22.3626 6.55925 22.4151 6.48828 22.4513C6.41731 22.4875 6.33894 22.5063 6.25928 22.506C6.15536 22.5054 6.05409 22.4727 5.96924 22.4127C5.91563 22.3744 5.87022 22.3261 5.83545 22.2701C5.80068 22.2141 5.7772 22.1516 5.7666 22.0865C5.75601 22.0215 5.75823 21.9549 5.77344 21.8907C5.78864 21.8266 5.8168 21.7664 5.85547 21.713L7.03516 20.0621C6.03378 19.8412 5.13746 19.2855 4.49414 18.4869C3.85082 17.6884 3.49883 16.6945 3.49609 15.6691V6.00501C3.49848 4.81036 3.97503 3.66561 4.8208 2.8219C5.66658 1.97819 6.81267 1.50447 8.00732 1.50501H15.9883C17.1826 1.50553 18.3278 1.97939 19.1733 2.82288C20.0189 3.66636 20.4961 4.81068 20.4995 6.00501V15.671C20.4955 16.6916 20.146 17.6808 19.5083 18.4777C18.8706 19.2745 17.9822 19.8319 16.9873 20.0597L18.1465 21.7208C18.1846 21.7749 18.2112 21.836 18.2256 21.9005C18.2399 21.9651 18.2416 22.0317 18.23 22.0968C18.2184 22.1619 18.194 22.2243 18.1582 22.2799C18.1224 22.3355 18.076 22.3835 18.0215 22.421C17.9384 22.4805 17.8385 22.5122 17.7363 22.5118C17.655 22.5116 17.5747 22.4914 17.5029 22.4532C17.4311 22.4151 17.3699 22.3603 17.3242 22.2931ZM4.49805 15.67C4.50149 16.5993 4.87302 17.4892 5.53125 18.1451C6.18948 18.8011 7.08097 19.1698 8.01025 19.17H15.9883C16.9176 19.1703 17.8091 18.8017 18.4673 18.1456C19.1255 17.4895 19.4969 16.5994 19.4995 15.67V13.3151C17.1592 14.4768 14.608 15.1525 11.9995 15.3019C9.39007 15.1616 6.83728 14.4868 4.49951 13.319L4.49805 15.67ZM11.998 14.299C14.6205 14.1413 17.1784 13.4215 19.498 12.1881V6.33313C17.0205 5.70439 14.4798 5.35919 11.9243 5.30481C9.41765 5.35202 6.92555 5.69535 4.49951 6.32776V12.1857C6.81524 13.431 9.37547 14.1544 12.0005 14.3048L11.998 14.299ZM19.4204 5.28381C19.2534 4.49749 18.821 3.79262 18.1963 3.28674C17.5715 2.78087 16.7922 2.50487 15.9883 2.50501H8.01025C7.20737 2.50444 6.42847 2.77904 5.80371 3.28333C5.17895 3.78761 4.74601 4.49107 4.57715 5.276C6.98172 4.67616 9.4465 4.34961 11.9243 4.30286C14.452 4.35591 16.9663 4.68513 19.4224 5.28479L19.4204 5.28381ZM15.4971 16.506C15.4971 16.2093 15.5852 15.9192 15.75 15.6725C15.9148 15.4258 16.1493 15.2338 16.4233 15.1202C16.6974 15.0067 16.9991 14.9769 17.29 15.0348C17.581 15.0927 17.8483 15.2357 18.0581 15.4454C18.2679 15.6552 18.4104 15.9225 18.4683 16.2135C18.5261 16.5045 18.4968 16.8056 18.3833 17.0797C18.2698 17.3538 18.0772 17.5882 17.8306 17.7531C17.5839 17.9179 17.2937 18.006 16.9971 18.006C16.5994 18.0055 16.2184 17.847 15.9375 17.5656C15.6566 17.2841 15.4992 16.9027 15.4995 16.505L15.4971 16.506ZM16.4971 16.506C16.4971 16.6049 16.5266 16.7016 16.5815 16.7838C16.6365 16.866 16.7148 16.9301 16.8062 16.9679C16.8975 17.0057 16.9977 17.0155 17.0947 16.9962C17.1917 16.9769 17.2811 16.9294 17.3511 16.8595C17.421 16.7896 17.4685 16.7006 17.4878 16.6036C17.5071 16.5066 17.4968 16.4059 17.459 16.3146C17.4211 16.2232 17.3571 16.1449 17.2749 16.09C17.1927 16.035 17.096 16.006 16.9971 16.006C16.865 16.0065 16.7388 16.059 16.6455 16.1525C16.5522 16.246 16.4998 16.3729 16.4995 16.505L16.4971 16.506ZM5.49707 16.506C5.49707 16.2093 5.58518 15.9192 5.75 15.6725C5.91482 15.4258 6.14925 15.2338 6.42334 15.1202C6.69743 15.0067 6.99907 14.9769 7.29004 15.0348C7.58101 15.0927 7.84833 15.2357 8.05811 15.4454C8.26788 15.6552 8.41038 15.9225 8.46826 16.2135C8.52614 16.5045 8.49683 16.8056 8.3833 17.0797C8.26977 17.3538 8.07724 17.5882 7.83057 17.7531C7.58389 17.9179 7.29374 18.006 6.99707 18.006C6.59942 18.0055 6.2184 17.847 5.9375 17.5656C5.6566 17.2841 5.49925 16.9027 5.49951 16.505L5.49707 16.506ZM6.49707 16.506C6.49707 16.6049 6.5266 16.7016 6.58154 16.7838C6.63648 16.866 6.71479 16.9301 6.80615 16.9679C6.89752 17.0057 6.99774 17.0155 7.09473 16.9962C7.19172 16.9769 7.28115 16.9294 7.35107 16.8595C7.421 16.7896 7.4685 16.7006 7.48779 16.6036C7.50709 16.5066 7.49683 16.4059 7.45898 16.3146C7.42114 16.2232 7.35713 16.1449 7.2749 16.09C7.19268 16.035 7.09596 16.006 6.99707 16.006C6.86516 16.0068 6.73909 16.0595 6.646 16.153C6.5529 16.2464 6.50075 16.3731 6.50049 16.505L6.49707 16.506Z" fill="white"/>
</svg>
