<svg width="64" height="64" viewBox="0 0 64 64" fill="none" xmlns="http://www.w3.org/2000/svg">
<g clip-path="url(#clip0_7062_15179)">
<path d="M28.8193 10.063H35.1723C36.2332 10.063 37.2506 10.4844 38.0008 11.2346C38.7509 11.9847 39.1723 13.0021 39.1723 14.063V14.969C39.1723 15.2342 39.067 15.4886 38.8794 15.6761C38.6919 15.8636 38.4376 15.969 38.1723 15.969H25.8193C25.5541 15.969 25.2998 15.8636 25.1122 15.6761C24.9247 15.4886 24.8193 15.2342 24.8193 14.969V14.063C24.8193 13.0021 25.2408 11.9847 25.9909 11.2346C26.7411 10.4844 27.7585 10.063 28.8193 10.063V10.063Z" fill="#57C5D0"/>
<path d="M30.0128 50.1399L30.8568 44.2339H28.3238L26.6348 49.4019L30.0128 50.1399Z" fill="#57C5D0"/>
<path d="M34.2336 50.1399L33.3896 44.2339H35.9227L37.6117 49.4019L34.2336 50.1399Z" fill="#57C5D0"/>
<path d="M40.9888 48.4529L39.1738 44.2339H42.5508L44.3658 47.7139L40.9888 48.4529Z" fill="#57C5D0"/>
<path d="M23.0654 48.4529L24.8804 44.2339H21.5054L19.6904 47.7139L23.0654 48.4529Z" fill="#57C5D0"/>
<path d="M22.1213 40.739C23.2065 40.739 24.0863 39.8946 24.0863 38.853C24.0863 37.8114 23.2065 36.967 22.1213 36.967C21.036 36.967 20.1562 37.8114 20.1562 38.853C20.1562 39.8946 21.036 40.739 22.1213 40.739Z" fill="#57C5D0"/>
<path d="M43.8464 38.8539C43.8624 39.246 43.7607 39.6339 43.5545 39.9677C43.3482 40.3016 43.0468 40.5661 42.689 40.7273C42.3312 40.8885 41.9334 40.939 41.5467 40.8723C41.16 40.8056 40.8021 40.6247 40.519 40.353C40.2359 40.0813 40.0405 39.7311 39.958 39.3474C39.8755 38.9638 39.9097 38.5643 40.0561 38.2002C40.2025 37.8361 40.4544 37.5241 40.7795 37.3043C41.1046 37.0845 41.488 36.9671 41.8804 36.967C42.3914 36.9565 42.8855 37.1494 43.2542 37.5033C43.6229 37.8571 43.8359 38.343 43.8464 38.8539Z" fill="#57C5D0"/>
<path d="M44.1631 44.414H19.8412C18.7222 44.4132 17.6492 43.9685 16.8577 43.1776C16.0662 42.3866 15.6207 41.314 15.6191 40.195V37.907C15.6207 36.788 16.0662 35.7153 16.8577 34.9244C17.6492 34.1334 18.7222 33.6888 19.8412 33.688H44.1631C45.2821 33.6888 46.3551 34.1334 47.1466 34.9244C47.9381 35.7153 48.3836 36.788 48.3852 37.907V40.195C48.3836 41.314 47.9381 42.3866 47.1466 43.1776C46.3551 43.9685 45.2821 44.4132 44.1631 44.414ZM19.8412 35.376C19.1699 35.3765 18.5262 35.6433 18.0513 36.1177C17.5765 36.5922 17.3092 37.2357 17.3081 37.907V40.195C17.3092 40.8663 17.5765 41.5097 18.0513 41.9842C18.5262 42.4587 19.1699 42.7255 19.8412 42.726H44.1631C44.8344 42.7255 45.4781 42.4587 45.953 41.9842C46.4278 41.5097 46.6951 40.8663 46.6961 40.195V37.907C46.6951 37.2357 46.4278 36.5922 45.953 36.1177C45.4781 35.6433 44.8344 35.3765 44.1631 35.376H19.8412Z" fill="white"/>
<path d="M48.2994 40.438H47.5384C47.4252 40.4419 47.3123 40.423 47.2066 40.3824C47.1008 40.3417 47.0044 40.2802 46.9229 40.2015C46.8414 40.1228 46.7766 40.0285 46.7324 39.9242C46.6881 39.82 46.6653 39.7078 46.6653 39.5945C46.6653 39.4813 46.6881 39.3692 46.7324 39.2649C46.7766 39.1606 46.8414 39.0663 46.9229 38.9876C47.0044 38.9089 47.1008 38.8473 47.2066 38.8067C47.3123 38.7661 47.4252 38.7471 47.5384 38.751H48.2994C48.5552 38.7743 48.8113 38.7087 49.0244 38.5651C49.3144 38.2761 49.3114 37.3651 49.3094 36.4861V17.6561C49.2957 16.7358 48.9826 15.8451 48.4175 15.1186C47.8524 14.3922 47.066 13.8697 46.1774 13.6301C44.9 13.2832 43.7755 12.5185 42.9834 11.4581L40.3554 7.80108C39.5769 7.08321 38.5563 6.68538 37.4973 6.68706H26.4973C25.437 6.68457 24.415 7.08322 23.6364 7.80303L21.0194 11.4531C20.2256 12.5156 19.0992 13.282 17.8194 13.6301C16.9312 13.8702 16.1454 14.3929 15.5807 15.1193C15.016 15.8456 14.7031 16.7361 14.6894 17.6561V36.4861C14.6894 37.3651 14.6894 38.2751 14.9744 38.5641C15.1878 38.7078 15.4442 38.7734 15.7004 38.7501H16.4604C16.6842 38.7501 16.8989 38.839 17.0572 38.9972C17.2154 39.1555 17.3044 39.3702 17.3044 39.594C17.3044 39.8179 17.2154 40.0326 17.0572 40.1908C16.8989 40.3491 16.6842 40.438 16.4604 40.438H15.7004C15.3506 40.4598 15 40.4106 14.6697 40.2934C14.3394 40.1762 14.0362 39.9934 13.7784 39.756C12.9944 38.971 12.9974 37.762 13.0004 36.483V17.6561C13.0121 16.3717 13.4418 15.1262 14.2245 14.1078C15.0072 13.0895 16.1003 12.3538 17.3384 12.0121C18.2553 11.7685 19.0648 11.2257 19.6384 10.47L22.3044 6.75304C22.3339 6.71062 22.3674 6.67112 22.4044 6.63506C23.5058 5.57988 24.974 4.99367 26.4994 5.00005H37.4994C39.0183 4.99768 40.4794 5.58242 41.5774 6.63207C41.6144 6.66812 41.6479 6.70761 41.6774 6.75005L44.3534 10.4731C44.9276 11.2273 45.7369 11.7685 46.6534 12.011C47.8932 12.3512 48.9882 13.0864 49.7725 14.1051C50.5568 15.1238 50.9875 16.3705 50.9994 17.6561V36.482C50.9994 37.761 51.0063 38.971 50.2213 39.756C49.9635 39.9934 49.6603 40.1762 49.33 40.2934C48.9997 40.4106 48.6491 40.4598 48.2994 40.438Z" fill="white"/>
<path d="M33.1787 30.9802C33.4212 30.0326 33.8372 29.1381 34.4057 28.3422C35.9414 26.3788 38.1327 25.0341 40.5787 24.5542H41.7057V26.4482H40.5787C39.5261 26.6272 38.5022 26.9457 37.5337 27.3952C35.8004 28.1998 34.3014 29.4338 33.1787 30.9802Z" fill="white"/>
<path d="M30.8151 30.9802C30.5726 30.0326 30.1566 29.1381 29.5881 28.3422C28.0524 26.3788 25.8611 25.0341 23.4151 24.5542H22.2881V26.4482H23.4151C24.4677 26.6272 25.4917 26.9457 26.4601 27.3952C28.1934 28.1998 29.6924 29.4338 30.8151 30.9802Z" fill="white"/>
<path d="M40.8629 35.375H23.1409C22.9171 35.375 22.7024 35.2861 22.5441 35.1278C22.3858 34.9695 22.2969 34.7548 22.2969 34.531V22.719C22.2985 21.6 22.7439 20.5273 23.5354 19.7364C24.327 18.9454 25.3999 18.5008 26.5189 18.5H37.4859C38.6049 18.5008 39.6778 18.9454 40.4694 19.7364C41.2609 20.5273 41.7063 21.6 41.7079 22.719V34.532C41.7078 34.6428 41.6858 34.7526 41.6432 34.8549C41.6007 34.9573 41.5385 35.0502 41.46 35.1285C41.3815 35.2068 41.2884 35.2689 41.1859 35.3112C41.0835 35.3535 40.9737 35.3751 40.8629 35.375ZM23.9859 33.688H40.0189V22.719C40.0178 22.0477 39.7506 21.4042 39.2757 20.9297C38.8008 20.4553 38.1572 20.1885 37.4859 20.188H26.5189C25.8476 20.1885 25.2039 20.4553 24.7291 20.9297C24.2542 21.4042 23.987 22.0477 23.9859 22.719V33.688Z" fill="white"/>
<path d="M32.1074 51.9581C32.0496 51.958 31.9919 51.952 31.9354 51.9401L19.7074 49.3901C19.1389 49.2698 18.6289 48.9584 18.2622 48.5076C17.8955 48.0569 17.6944 47.4941 17.6924 46.9131V43.5691C17.6923 43.4582 17.714 43.3484 17.7563 43.246C17.7987 43.1435 17.8609 43.0504 17.9393 42.972C18.0177 42.8936 18.1108 42.8314 18.2132 42.7891C18.3157 42.7467 18.4255 42.725 18.5364 42.7251H45.4684C45.6922 42.7251 45.9069 42.814 46.0652 42.9723C46.2234 43.1306 46.3124 43.3452 46.3124 43.5691V46.9141C46.3097 47.4938 46.1092 48.0552 45.7441 48.5054C45.3789 48.9557 44.871 49.2678 44.3044 49.3901L32.2824 51.9361C32.2249 51.9493 32.1663 51.9567 32.1074 51.9581ZM19.3804 44.4141V46.9141C19.3812 47.1079 19.4483 47.2955 19.5706 47.4457C19.6928 47.596 19.8629 47.6999 20.0524 47.7401L32.1064 50.2541L43.9544 47.7441C44.1434 47.7035 44.3128 47.5996 44.4346 47.4496C44.5565 47.2995 44.6234 47.1124 44.6244 46.9191V44.4191L19.3804 44.4141Z" fill="white"/>
<path d="M17.2193 59C17.0661 59.0001 16.9158 58.9585 16.7845 58.8796C16.6532 58.8007 16.5458 58.6876 16.4738 58.5524C16.4019 58.4172 16.3681 58.2649 16.3762 58.1119C16.3842 57.9589 16.4336 57.811 16.5193 57.6841L22.2133 49.247C22.3386 49.0614 22.5326 48.9331 22.7524 48.8905C22.9723 48.8478 23.2001 48.8942 23.3858 49.0195C23.5714 49.1448 23.6997 49.3388 23.7424 49.5587C23.7851 49.7786 23.7386 50.0064 23.6133 50.192L17.9193 58.63C17.8418 58.7443 17.7374 58.8377 17.6154 58.9022C17.4933 58.9667 17.3573 59.0003 17.2193 59Z" fill="white"/>
<path d="M46.7788 59C46.6406 59.0002 46.5046 58.9664 46.3826 58.9018C46.2605 58.8371 46.1562 58.7435 46.0788 58.6291L40.3848 50.192C40.2595 50.0064 40.213 49.7786 40.2557 49.5587C40.2984 49.3388 40.4266 49.1448 40.6123 49.0195C40.7979 48.8942 41.0258 48.8478 41.2457 48.8905C41.4655 48.9331 41.6595 49.0614 41.7848 49.247L47.4788 57.685C47.5644 57.812 47.6139 57.9599 47.6219 58.1129C47.63 58.2659 47.5962 58.4181 47.5243 58.5534C47.4523 58.6886 47.3449 58.8017 47.2136 58.8806C47.0823 58.9594 46.932 59.0011 46.7788 59.001V59Z" fill="white"/>
<path d="M44.2399 55.626H19.7539C19.6407 55.6299 19.5279 55.611 19.4221 55.5703C19.3164 55.5297 19.2199 55.4682 19.1384 55.3895C19.057 55.3108 18.9922 55.2165 18.9479 55.1122C18.9037 55.0079 18.8809 54.8958 18.8809 54.7825C18.8809 54.6692 18.9037 54.5571 18.9479 54.4528C18.9922 54.3486 19.057 54.2543 19.1384 54.1755C19.2199 54.0968 19.3164 54.0353 19.4221 53.9946C19.5279 53.954 19.6407 53.9351 19.7539 53.939H44.2399C44.4637 53.939 44.6784 54.0279 44.8367 54.1862C44.995 54.3445 45.0839 54.5591 45.0839 54.783C45.0839 55.0068 44.995 55.2215 44.8367 55.3798C44.6784 55.5381 44.4637 55.627 44.2399 55.627V55.626Z" fill="white"/>
<path d="M50.1493 27.782H40.8613C40.7481 27.7859 40.6353 27.767 40.5295 27.7263C40.4238 27.6857 40.3273 27.6242 40.2458 27.5455C40.1644 27.4668 40.0996 27.3725 40.0553 27.2682C40.0111 27.1639 39.9883 27.0518 39.9883 26.9385C39.9883 26.8252 40.0111 26.7131 40.0553 26.6088C40.0996 26.5046 40.1644 26.4103 40.2458 26.3316C40.3273 26.2528 40.4238 26.1913 40.5295 26.1506C40.6353 26.11 40.7481 26.0911 40.8613 26.095H50.1493C50.3732 26.095 50.5878 26.184 50.7461 26.3422C50.9044 26.5005 50.9933 26.7151 50.9933 26.939C50.9933 27.1628 50.9044 27.3775 50.7461 27.5358C50.5878 27.6941 50.3732 27.783 50.1493 27.783V27.782Z" fill="white"/>
<path d="M23.1317 27.782H13.8438C13.7305 27.7859 13.6177 27.767 13.512 27.7263C13.4062 27.6857 13.3097 27.6242 13.2283 27.5455C13.1468 27.4668 13.082 27.3725 13.0378 27.2682C12.9935 27.1639 12.9707 27.0518 12.9707 26.9385C12.9707 26.8252 12.9935 26.7131 13.0378 26.6088C13.082 26.5046 13.1468 26.4103 13.2283 26.3316C13.3097 26.2528 13.4062 26.1913 13.512 26.1506C13.6177 26.11 13.7305 26.0911 13.8438 26.095H23.1317C23.3556 26.095 23.5703 26.184 23.7285 26.3422C23.8868 26.5005 23.9758 26.7151 23.9758 26.939C23.9758 27.1628 23.8868 27.3775 23.7285 27.5358C23.5703 27.6941 23.3556 27.783 23.1317 27.783V27.782Z" fill="white"/>
</g>
<defs>
<clipPath id="clip0_7062_15179">
<rect width="64" height="64" fill="white"/>
</clipPath>
</defs>
</svg>
