<svg width="24" height="25" viewBox="0 0 24 25" fill="none" xmlns="http://www.w3.org/2000/svg">
<path d="M17.8008 22.5044H6.16992C5.19677 22.496 4.26615 22.1043 3.57959 21.4146C2.89303 20.7248 2.50586 19.7925 2.50195 18.8194V6.21927C2.50195 6.08666 2.55418 5.95952 2.64795 5.86576C2.74172 5.77199 2.86934 5.71927 3.00195 5.71927H9.00195C9.02359 5.7178 9.04525 5.7178 9.06689 5.71927C9.34469 4.69763 9.89725 3.77201 10.6646 3.04251C11.4319 2.31302 12.3846 1.80743 13.4189 1.58158C14.4533 1.35572 15.5297 1.418 16.5312 1.76126C17.5328 2.10453 18.4208 2.71597 19.0991 3.52884C19.7775 4.34171 20.2199 5.32481 20.3784 6.37161C20.5369 7.41842 20.4054 8.4886 19.998 9.46585C19.5907 10.4431 18.9234 11.2902 18.0684 11.9146C17.2133 12.539 16.2038 12.9169 15.1489 13.0074V15.6724H21.0029C21.1355 15.6724 21.2627 15.7251 21.3564 15.8189C21.4502 15.9126 21.5029 16.0398 21.5029 16.1724V18.8072C21.5009 19.7825 21.1145 20.7181 20.4277 21.4107C19.741 22.1032 18.8092 22.4971 17.834 22.5074H17.8257L17.8008 22.5044ZM17.8008 21.5044C18.515 21.5044 19.2 21.2213 19.7061 20.7173C20.2121 20.2133 20.4981 19.5296 20.501 18.8155V16.6724H15.1479V18.9156C15.1506 19.5012 15.3432 20.0698 15.6968 20.5367C16.0504 21.0035 16.5459 21.3432 17.1089 21.5044H17.8008ZM3.50098 18.8042C3.50282 19.5197 3.78751 20.2055 4.29346 20.7115C4.79941 21.2174 5.48517 21.5026 6.20068 21.5044H15.2139C14.5335 20.8142 14.1511 19.8847 14.1489 18.9156V13.0044C12.7082 12.8829 11.365 12.2256 10.3848 11.1626C9.40458 10.0997 8.85815 8.70812 8.85352 7.26224C8.85352 7.07624 8.86288 6.89246 8.87988 6.71146H3.50098V18.8042ZM9.85498 7.26224C9.84864 8.21183 10.124 9.14199 10.647 9.9346C11.17 10.7272 11.917 11.3467 12.7925 11.7144C13.668 12.0821 14.6328 12.1815 15.5649 12C16.497 11.8185 17.3543 11.3642 18.0278 10.6949C18.7014 10.0255 19.1613 9.17121 19.3486 8.24027C19.536 7.30933 19.4423 6.34367 19.0801 5.46585C18.7179 4.58803 18.1033 3.83756 17.314 3.3096C16.5247 2.78164 15.5966 2.50015 14.647 2.50052C13.3797 2.49813 12.1631 2.99882 11.2646 3.89261C10.3662 4.7864 9.85922 5.99981 9.85498 7.26712V7.26224ZM6.11865 17.9214C5.98604 17.9214 5.8589 17.8687 5.76514 17.7749C5.67137 17.6812 5.61865 17.554 5.61865 17.4214C5.61865 17.2888 5.67137 17.1617 5.76514 17.0679C5.8589 16.9741 5.98604 16.9214 6.11865 16.9214H11.001C11.1336 16.9214 11.2607 16.9741 11.3545 17.0679C11.4483 17.1617 11.501 17.2888 11.501 17.4214C11.501 17.554 11.4483 17.6812 11.3545 17.7749C11.2607 17.8687 11.1336 17.9214 11.001 17.9214H6.11865ZM6.11865 14.9214C5.98604 14.9214 5.8589 14.8687 5.76514 14.7749C5.67137 14.6812 5.61865 14.554 5.61865 14.4214C5.61865 14.2888 5.67137 14.1617 5.76514 14.0679C5.8589 13.9741 5.98604 13.9214 6.11865 13.9214H9.29395C9.42655 13.9214 9.55369 13.9741 9.64746 14.0679C9.74123 14.1617 9.79395 14.2888 9.79395 14.4214C9.79395 14.554 9.74123 14.6812 9.64746 14.7749C9.55369 14.8687 9.42655 14.9214 9.29395 14.9214H6.11865ZM12.6187 9.32132C12.5352 9.21957 12.4952 9.08908 12.5073 8.95804C12.5195 8.827 12.5828 8.70577 12.6836 8.62113L14.502 7.10111V5.0015C14.502 4.86889 14.5542 4.74175 14.6479 4.64798C14.7417 4.55421 14.8693 4.5015 15.002 4.5015C15.1346 4.5015 15.2617 4.55421 15.3555 4.64798C15.4492 4.74175 15.502 4.86889 15.502 5.0015V7.33353C15.5019 7.40657 15.4855 7.4783 15.4546 7.54447C15.4237 7.61064 15.3788 7.66945 15.3228 7.71634L13.3228 9.38431C13.2723 9.42668 13.2142 9.45878 13.1514 9.47855C13.0885 9.49832 13.0221 9.5054 12.9565 9.49954C12.8909 9.49369 12.8274 9.47495 12.769 9.44437C12.7107 9.41379 12.6588 9.37195 12.6167 9.32132H12.6187Z" fill="white"/>
</svg>
