<svg width="24" height="25" viewBox="0 0 24 25" fill="none" xmlns="http://www.w3.org/2000/svg">
<path d="M6.00196 22.505C5.33891 22.505 4.70273 22.2414 4.23389 21.7726C3.76505 21.3037 3.50196 20.668 3.50196 20.005V12.005C3.50107 11.364 3.74614 10.7471 4.18701 10.2819C4.62789 9.81661 5.23053 9.53859 5.87061 9.505V6.005C5.87193 4.81194 6.34681 3.66797 7.19043 2.82434C8.03406 1.98071 9.17754 1.50633 10.3706 1.505H13.6289C14.8224 1.505 15.9666 1.97896 16.8105 2.82288C17.6545 3.66679 18.1289 4.81153 18.1289 6.005C18.1289 6.13761 18.0762 6.26475 17.9824 6.35852C17.8887 6.45229 17.7615 6.505 17.6289 6.505C17.4963 6.505 17.3692 6.45229 17.2754 6.35852C17.1816 6.26475 17.1289 6.13761 17.1289 6.005C17.1289 5.07675 16.7599 4.18628 16.1035 3.52991C15.4471 2.87353 14.5572 2.505 13.6289 2.505H10.3706C9.44235 2.505 8.55238 2.87353 7.896 3.52991C7.23962 4.18628 6.87061 5.07675 6.87061 6.005V9.505H17.9995C18.6626 9.505 19.2987 9.7681 19.7676 10.2369C20.2364 10.7058 20.4995 11.342 20.4995 12.005V20.005C20.4995 20.668 20.2364 21.3037 19.7676 21.7726C19.2987 22.2414 18.6626 22.505 17.9995 22.505H6.00196ZM4.50196 12.005V20.005C4.50196 20.4028 4.65962 20.7842 4.94092 21.0656C5.22222 21.3469 5.60413 21.505 6.00196 21.505H18.002C18.3998 21.505 18.7812 21.3469 19.0625 21.0656C19.3438 20.7842 19.502 20.4028 19.502 20.005V12.005C19.502 11.6072 19.3438 11.2258 19.0625 10.9445C18.7812 10.6632 18.3998 10.505 18.002 10.505H6.00196C5.8048 10.5047 5.60947 10.543 5.42725 10.6183C5.24503 10.6936 5.07944 10.8042 4.93994 10.9435C4.80044 11.0828 4.68977 11.2482 4.61426 11.4303C4.53875 11.6124 4.49951 11.8079 4.49951 12.005H4.50196ZM11.502 18.505V15.505C11.502 15.3724 11.5542 15.2453 11.648 15.1515C11.7417 15.0577 11.8693 15.005 12.002 15.005C12.1346 15.005 12.2617 15.0577 12.3555 15.1515C12.4492 15.2453 12.502 15.3724 12.502 15.505V18.505C12.502 18.6376 12.4492 18.7648 12.3555 18.8585C12.2617 18.9523 12.1346 19.005 12.002 19.005C11.8693 19.005 11.7417 18.9523 11.648 18.8585C11.5542 18.7648 11.502 18.6376 11.502 18.505Z" fill="white"/>
</svg>
