<svg width="24" height="25" viewBox="0 0 24 25" fill="none" xmlns="http://www.w3.org/2000/svg">
<path d="M1.5 12.0051C1.5 9.92836 2.11626 7.89829 3.27002 6.17157C4.42377 4.44485 6.06331 3.0991 7.98193 2.30438C9.90056 1.50966 12.012 1.30158 14.0488 1.70673C16.0856 2.11187 17.9564 3.11181 19.4248 4.58026C20.8933 6.04871 21.8932 7.91993 22.2983 9.95673C22.7035 11.9935 22.4959 14.1045 21.7012 16.0231C20.9065 17.9418 19.5602 19.5818 17.8335 20.7355C16.1068 21.8893 14.0767 22.5051 12 22.5051C9.21612 22.5022 6.54711 21.395 4.57861 19.4265C2.61011 17.458 1.50291 14.7889 1.5 12.0051V12.0051ZM2.5 12.0051C2.5 13.884 3.0572 15.7206 4.10107 17.2829C5.14495 18.8452 6.62885 20.0629 8.36475 20.7819C10.1006 21.501 12.0107 21.689 13.8535 21.3224C15.6963 20.9559 17.3892 20.0509 18.7178 18.7224C20.0464 17.3938 20.9513 15.7009 21.3179 13.8581C21.6844 12.0153 21.4959 10.1052 20.7769 8.36932C20.0578 6.63343 18.8406 5.15001 17.2783 4.10614C15.7161 3.06227 13.8789 2.50507 12 2.50507C9.48151 2.50824 7.06737 3.51026 5.28662 5.2912C3.50587 7.07214 2.50438 9.48658 2.50146 12.0051H2.5ZM10.0674 18.2121C9.06409 17.8948 8.15101 17.3422 7.4043 16.6008C7.3163 16.5138 7.23141 16.4237 7.14941 16.3317L7.18115 17.3752C7.18519 17.5076 7.13665 17.636 7.0459 17.7326C6.95515 17.8292 6.82972 17.8857 6.69727 17.8898H6.68115C6.55127 17.8899 6.42633 17.8395 6.33301 17.7492C6.23969 17.6589 6.18531 17.5358 6.18115 17.4059L6.11035 15.1061C6.10576 14.9737 6.15376 14.8447 6.24414 14.7477C6.33452 14.6508 6.45983 14.5937 6.59229 14.5891L8.89209 14.5178H8.90723C8.97289 14.5166 9.03803 14.5288 9.09912 14.5529C9.16021 14.577 9.21597 14.6127 9.26318 14.6584C9.3104 14.704 9.34835 14.7583 9.37451 14.8185C9.40067 14.8788 9.41441 14.9438 9.41553 15.0095C9.41664 15.0751 9.40496 15.1403 9.38086 15.2014C9.35676 15.2624 9.32103 15.3182 9.27539 15.3654C9.22975 15.4126 9.17498 15.4506 9.11475 15.4767C9.05451 15.5029 8.98998 15.5166 8.92432 15.5178L7.79736 15.5529C7.89736 15.6699 7.99745 15.7818 8.10645 15.8898C8.73933 16.5178 9.51252 16.9863 10.3623 17.256C11.1856 17.5122 12.0574 17.5713 12.9077 17.4284C13.758 17.2855 14.563 16.9445 15.2573 16.4333C15.9517 15.922 16.5159 15.2546 16.9048 14.485C17.2937 13.7155 17.4963 12.8654 17.4961 12.0031C17.4961 11.8705 17.5488 11.7434 17.6426 11.6496C17.7363 11.5558 17.8635 11.5031 17.9961 11.5031C18.1287 11.5031 18.2558 11.5558 18.3496 11.6496C18.4434 11.7434 18.4961 11.8705 18.4961 12.0031C18.4963 13.0223 18.2567 14.0272 17.7969 14.9367C17.3371 15.8462 16.6699 16.6348 15.8491 17.239C15.0283 17.8431 14.0774 18.2456 13.0723 18.4142C12.0672 18.5829 11.0365 18.5132 10.0635 18.2101L10.0674 18.2121ZM5.5 12.0051C5.49993 10.9861 5.73953 9.9813 6.19922 9.07196C6.65891 8.16262 7.32595 7.37429 8.14648 6.7702C8.96702 6.16611 9.91802 5.76328 10.9229 5.59442C11.9277 5.42556 12.9582 5.49534 13.9312 5.79804C14.9339 6.11551 15.8468 6.66692 16.5942 7.40692C16.6812 7.49292 16.7661 7.58299 16.8481 7.67499L16.8154 6.633C16.8134 6.56725 16.8243 6.50162 16.8477 6.44012C16.871 6.37863 16.906 6.32244 16.9512 6.2746C16.9963 6.22676 17.0508 6.1882 17.1108 6.16132C17.1709 6.13444 17.2355 6.11967 17.3013 6.11786H17.3154C17.4453 6.11779 17.5698 6.16815 17.6631 6.25848C17.7564 6.34882 17.8113 6.47193 17.8154 6.60175L17.8862 8.90204C17.8885 8.96779 17.8776 9.03331 17.8545 9.09491C17.8314 9.15651 17.7964 9.2129 17.7515 9.26093C17.7065 9.30895 17.6527 9.34758 17.5928 9.3747C17.5328 9.40182 17.4681 9.41706 17.4023 9.41913L15.1021 9.48993H15.0884C15.0227 9.49105 14.9576 9.47936 14.8965 9.45526C14.8354 9.43117 14.7796 9.39494 14.7324 9.3493C14.6852 9.30366 14.6473 9.24938 14.6211 9.18915C14.5949 9.12891 14.5807 9.06389 14.5796 8.99823C14.5785 8.93257 14.5907 8.86743 14.6147 8.80634C14.6388 8.74525 14.6746 8.68949 14.7202 8.64227C14.7659 8.59505 14.8201 8.55759 14.8804 8.53143C14.9406 8.50527 15.0056 8.49105 15.0713 8.48993L16.1982 8.45575C16.0982 8.33875 15.9982 8.22586 15.8872 8.11786C15.2543 7.49086 14.4815 7.02356 13.6323 6.75409C12.809 6.49792 11.9368 6.4388 11.0864 6.58173C10.2361 6.72465 9.43164 7.06558 8.7373 7.57684C8.04297 8.0881 7.47827 8.75552 7.08936 9.52509C6.70045 10.2947 6.49784 11.1448 6.49805 12.007C6.49805 12.1396 6.44533 12.2668 6.35156 12.3605C6.25779 12.4543 6.13066 12.507 5.99805 12.507C5.86544 12.507 5.7383 12.4543 5.64453 12.3605C5.55076 12.2668 5.49805 12.1396 5.49805 12.007L5.5 12.0051Z" fill="white"/>
</svg>
