<svg width="24" height="25" viewBox="0 0 24 25" fill="none" xmlns="http://www.w3.org/2000/svg">
<path d="M11.4995 22.0095V21.0095C11.4995 20.8769 11.5522 20.7498 11.646 20.656C11.7398 20.5622 11.8669 20.5095 11.9995 20.5095C12.1321 20.5095 12.2593 20.5622 12.353 20.656C12.4468 20.7498 12.4995 20.8769 12.4995 21.0095V22.0095C12.4995 22.1421 12.4468 22.2693 12.353 22.363C12.2593 22.4568 12.1321 22.5095 11.9995 22.5095C11.8669 22.5095 11.7398 22.4568 11.646 22.363C11.5522 22.2693 11.4995 22.1421 11.4995 22.0095ZM11.4995 19.0095V14.2092L9.17335 16.5364C9.07933 16.6302 8.95173 16.6829 8.81886 16.6828C8.68599 16.6828 8.55874 16.6299 8.46485 16.5359C8.37097 16.4419 8.31828 16.3143 8.31837 16.1814C8.31846 16.0485 8.37132 15.9213 8.46534 15.8274L11.6323 12.6623C11.7113 12.5774 11.8172 12.5229 11.9321 12.5076V12.5076H11.9531H12.0532H12.0742C12.1874 12.524 12.2914 12.5785 12.3692 12.6623L15.5361 15.8274C15.5827 15.8738 15.6198 15.9288 15.645 15.9895C15.6703 16.0502 15.6835 16.1156 15.6836 16.1814C15.6837 16.2471 15.6706 16.312 15.6455 16.3728C15.6204 16.4336 15.5835 16.4888 15.5371 16.5354C15.4907 16.5819 15.4357 16.619 15.375 16.6443C15.3143 16.6695 15.2493 16.6823 15.1836 16.6824C15.1179 16.6825 15.0525 16.6698 14.9917 16.6448C14.9309 16.6197 14.8762 16.5828 14.8296 16.5364L12.5025 14.2092V19.0036C12.5025 19.1363 12.4497 19.2634 12.356 19.3572C12.2622 19.4509 12.1351 19.5036 12.0025 19.5036C11.8698 19.5036 11.7427 19.4509 11.6489 19.3572C11.5552 19.2634 11.5025 19.1363 11.5025 19.0036L11.4995 19.0095ZM6.99952 11.2195H6.99415C6.47844 11.2195 5.97574 11.06 5.55421 10.7629C5.13268 10.4658 4.81302 10.0455 4.63966 9.5598C4.4663 9.0741 4.44733 8.5469 4.58546 8.05003C4.72359 7.55316 5.01198 7.11095 5.41114 6.78441C5.30578 5.96631 5.50817 5.13843 5.97901 4.46117C6.44986 3.78391 7.15592 3.30556 7.95948 3.11937C8.41036 3.01578 8.8775 3.00695 9.33204 3.093C9.78659 3.17906 10.2188 3.35814 10.6006 3.61937C11.1239 2.74137 11.9419 2.07805 12.9092 1.74779C13.8765 1.41752 14.9299 1.44202 15.8809 1.81664C16.8319 2.19125 17.6189 2.89147 18.1011 3.79271C18.5833 4.69395 18.7292 5.73751 18.5132 6.73656C18.9282 7.05388 19.2338 7.49322 19.3862 7.9929C19.5387 8.49259 19.5304 9.02724 19.3633 9.5222C19.1961 10.0172 18.8783 10.4473 18.4541 10.7522C18.0299 11.0571 17.521 11.2217 16.9985 11.2224L6.99952 11.2195ZM8.18653 4.09447C7.88836 4.16394 7.60677 4.29161 7.35792 4.46996C7.10908 4.6483 6.89745 4.87398 6.73585 5.13402C6.57426 5.39406 6.46574 5.683 6.41603 5.98509C6.36631 6.28719 6.37656 6.59616 6.4463 6.89427C6.47024 6.99733 6.46077 7.10547 6.41944 7.20287C6.37811 7.30026 6.30707 7.38188 6.21632 7.43626C5.93565 7.60577 5.71852 7.86291 5.59767 8.16771C5.47681 8.47251 5.45913 8.80846 5.54737 9.12425C5.63562 9.44004 5.82459 9.71826 6.08595 9.91624C6.34731 10.1142 6.66626 10.221 6.99415 10.2204H16.9942C17.2651 10.2195 17.5309 10.1455 17.7632 10.0061C17.9955 9.86669 18.1861 9.66706 18.3145 9.42845C18.4077 9.25468 18.4658 9.06412 18.4854 8.8679C18.5049 8.67169 18.4854 8.47363 18.4282 8.2849C18.3711 8.09617 18.2774 7.92075 18.1524 7.7683C18.0273 7.61584 17.8731 7.48915 17.6992 7.39622C17.5965 7.34124 17.5162 7.25218 17.4722 7.14427C17.4282 7.03636 17.4235 6.91656 17.4585 6.8054C17.7103 5.98948 17.6369 5.10763 17.2539 4.34447C16.8709 3.58131 16.2075 2.99589 15.4028 2.71019C14.5982 2.42449 13.7146 2.461 12.936 2.81175C12.1575 3.16251 11.5447 3.8005 11.2256 4.59251C11.1948 4.67045 11.1445 4.73911 11.0801 4.79271C11.0157 4.84631 10.9387 4.88302 10.8565 4.89915C10.7742 4.91529 10.6893 4.91029 10.6094 4.88499C10.5295 4.8597 10.4574 4.81514 10.3994 4.75462C10.1812 4.52644 9.91918 4.34469 9.62892 4.22044C9.33866 4.09619 9.0262 4.03186 8.71046 4.03148C8.53367 4.03115 8.35756 4.05166 8.18556 4.09251L8.18653 4.09447Z" fill="white"/>
</svg>
