<svg width="24" height="25" viewBox="0 0 24 25" fill="none" xmlns="http://www.w3.org/2000/svg">
<path d="M3.99805 20.5048C3.33501 20.5048 2.69931 20.2412 2.23047 19.7723C1.76163 19.3035 1.49805 18.6678 1.49805 18.0048V11.8046C1.49805 11.1415 1.76163 10.5058 2.23047 10.037C2.69931 9.56814 3.33501 9.30456 3.99805 9.30456H4.30615C3.95316 8.95831 3.68036 8.53905 3.50684 8.07604C3.33332 7.61303 3.26327 7.11783 3.30176 6.62487C3.34025 6.13191 3.48621 5.653 3.72949 5.22253C3.97277 4.79206 4.30751 4.42044 4.70996 4.13317C5.11241 3.84591 5.57292 3.65012 6.05908 3.55993C6.54524 3.46973 7.04521 3.48692 7.52393 3.61071C8.00264 3.7345 8.44858 3.96168 8.83008 4.27624C9.21158 4.5908 9.51967 4.98516 9.73242 5.43151C10.118 4.9538 10.6428 4.60812 11.2339 4.44225C11.825 4.27638 12.4529 4.29887 13.0308 4.50622C13.6086 4.71357 14.1077 5.09564 14.4585 5.59948C14.8093 6.10332 14.9944 6.70384 14.9883 7.31774C14.9893 8.04951 14.7218 8.75604 14.2363 9.30358H14.8193C15.4824 9.30358 16.1181 9.56716 16.5869 10.036C17.0558 10.5048 17.3193 11.1405 17.3193 11.8036V12.1615L18.5962 11.2557C19.1333 10.878 19.7984 10.7292 20.4453 10.8417C21.0922 10.9542 21.6683 11.319 22.0464 11.8558C22.3501 12.2805 22.5083 12.7918 22.498 13.3138V16.5077C22.5016 16.8324 22.4411 17.1547 22.3198 17.4559C22.1986 17.7572 22.019 18.0313 21.7915 18.2631C21.564 18.4948 21.2931 18.6793 20.9941 18.806C20.6951 18.9327 20.3741 18.9995 20.0493 19.0018H20.0225C19.5148 19.0029 19.0194 18.8461 18.6045 18.5536L17.3203 17.6459V18.0077C17.3203 18.6707 17.0567 19.3064 16.5879 19.7753C16.119 20.2441 15.4834 20.5077 14.8203 20.5077L3.99805 20.5048ZM2.49805 11.8046V18.0048C2.49805 18.4026 2.6562 18.784 2.9375 19.0653C3.2188 19.3466 3.60022 19.5048 3.99805 19.5048H14.8193C15.2172 19.5048 15.5986 19.3466 15.8799 19.0653C16.1612 18.784 16.3193 18.4026 16.3193 18.0048V11.8046C16.3193 11.4067 16.1612 11.0253 15.8799 10.744C15.5986 10.4627 15.2172 10.3046 14.8193 10.3046H3.99805C3.60022 10.3046 3.2188 10.4627 2.9375 10.744C2.6562 11.0253 2.49805 11.4067 2.49805 11.8046V11.8046ZM19.1782 17.7338C19.4354 17.9006 19.7336 17.9932 20.04 18.0008C20.2337 17.9988 20.4254 17.9583 20.6035 17.8822C20.7816 17.8061 20.9427 17.696 21.0781 17.5575C21.2135 17.419 21.3205 17.2548 21.3926 17.0751C21.4646 16.8953 21.5003 16.7033 21.498 16.5096V13.3046C21.5034 13.0321 21.4331 12.7635 21.2949 12.5287C21.1567 12.2939 20.9561 12.102 20.7153 11.9745C20.4745 11.847 20.2031 11.7889 19.9312 11.8065C19.6592 11.8242 19.3976 11.917 19.1753 12.0746L17.3193 13.3885V16.4188L19.1782 17.7338ZM10.0654 7.31872C10.0698 7.70584 10.1885 8.08294 10.4067 8.4027C10.625 8.72247 10.9331 8.97049 11.292 9.11559C11.6509 9.26069 12.0447 9.29638 12.4238 9.21813C12.803 9.13988 13.1502 8.951 13.4224 8.67565C13.6945 8.40031 13.8793 8.05081 13.9531 7.67077C14.027 7.29072 13.9867 6.89712 13.8374 6.53991C13.6881 6.1827 13.4365 5.87795 13.1143 5.66344C12.792 5.44893 12.4135 5.33466 12.0264 5.33483C11.5033 5.33906 11.0031 5.55044 10.6357 5.92272C10.2683 6.295 10.0637 6.79763 10.0664 7.32067L10.0654 7.31872ZM9.81641 9.30456C9.68629 9.15741 9.57054 8.99793 9.47119 8.82848C9.35475 8.99863 9.22315 9.15801 9.07812 9.30456H9.81641ZM4.31641 6.90465C4.32173 7.3728 4.46553 7.82902 4.72949 8.21569C4.99346 8.60236 5.36575 8.90203 5.7998 9.07751C6.23386 9.25298 6.70993 9.29612 7.16846 9.20153C7.62698 9.10694 8.04729 8.87918 8.37646 8.54626C8.70564 8.21334 8.92916 7.79049 9.01855 7.33092C9.10795 6.87136 9.05928 6.39529 8.87891 5.96325C8.69853 5.53121 8.39451 5.16228 8.00488 4.9027C7.61525 4.64313 7.15763 4.50478 6.68945 4.50475C6.05732 4.51004 5.45297 4.7654 5.00879 5.2152C4.56461 5.665 4.31667 6.27251 4.31934 6.90465H4.31641Z" fill="white"/>
</svg>
