<svg width="24" height="25" viewBox="0 0 24 25" fill="none" xmlns="http://www.w3.org/2000/svg">
<path d="M12 15.0426C13.0609 15.0426 14.0783 14.6212 14.8284 13.871C15.5786 13.1209 16 12.1035 16 11.0426V5.0426C16 3.98174 15.5786 2.96432 14.8284 2.21418C14.0783 1.46403 13.0609 1.0426 12 1.0426C10.9391 1.0426 9.92172 1.46403 9.17157 2.21418C8.42143 2.96432 8 3.98174 8 5.0426V11.0426C8 12.1035 8.42143 13.1209 9.17157 13.871C9.92172 14.6212 10.9391 15.0426 12 15.0426Z" fill="white"/>
<path d="M19 8.0426C18.7348 8.0426 18.4804 8.14796 18.2929 8.3355C18.1054 8.52303 18 8.77739 18 9.0426V11.0426C18 12.6339 17.3679 14.16 16.2426 15.2852C15.1174 16.4105 13.5913 17.0426 12 17.0426C10.4087 17.0426 8.88258 16.4105 7.75736 15.2852C6.63214 14.16 6 12.6339 6 11.0426V9.0426C6 8.77739 5.89464 8.52303 5.70711 8.3355C5.51957 8.14796 5.26522 8.0426 5 8.0426C4.73478 8.0426 4.48043 8.14796 4.29289 8.3355C4.10536 8.52303 4 8.77739 4 9.0426V11.0426C4.00324 12.9896 4.71568 14.8687 6.00406 16.3284C7.29244 17.7882 9.0685 18.7285 11 18.9736V21.0426H9C8.73478 21.0426 8.48043 21.148 8.29289 21.3355C8.10536 21.523 8 21.7774 8 22.0426C8 22.3078 8.10536 22.5622 8.29289 22.7497C8.48043 22.9372 8.73478 23.0426 9 23.0426H15C15.2652 23.0426 15.5196 22.9372 15.7071 22.7497C15.8946 22.5622 16 22.3078 16 22.0426C16 21.7774 15.8946 21.523 15.7071 21.3355C15.5196 21.148 15.2652 21.0426 15 21.0426H13V18.9736C14.9315 18.7285 16.7076 17.7882 17.9959 16.3284C19.2843 14.8687 19.9968 12.9896 20 11.0426V9.0426C20 8.77739 19.8946 8.52303 19.7071 8.3355C19.5196 8.14796 19.2652 8.0426 19 8.0426Z" fill="white"/>
</svg>
