<svg width="24" height="25" viewBox="0 0 24 25" fill="none" xmlns="http://www.w3.org/2000/svg">
<g clip-path="url(#clip0_1_27251)">
<path d="M24 11.931H23.077V4.739C23.0754 4.37299 22.9287 4.02257 22.669 3.7646C22.4094 3.50664 22.058 3.36222 21.692 3.36302H18V2.44502H21.692C21.9942 2.44397 22.2937 2.50246 22.5732 2.6172C22.8528 2.73194 23.1071 2.90068 23.3214 3.11372C23.5357 3.32677 23.706 3.57996 23.8224 3.85884C23.9389 4.13772 23.9992 4.43679 24 4.739V11.931Z" fill="white"/>
<path d="M0.922997 12.0791H-7.62939e-06V4.74003C0.000778914 4.43783 0.0611204 4.13873 0.177559 3.85985C0.293997 3.58097 0.464252 3.32777 0.678596 3.11473C0.892941 2.90169 1.14717 2.73298 1.42675 2.61824C1.70633 2.5035 2.0058 2.44498 2.30801 2.44603H11.462V3.36403H2.30801C1.94199 3.36323 1.59061 3.50767 1.33096 3.76564C1.0713 4.0236 0.924585 4.37403 0.922997 4.74003V12.0791Z" fill="white"/>
<path d="M22.153 6.474C22.3835 6.46085 22.6099 6.53935 22.7828 6.69239C22.9557 6.84542 23.0611 7.06058 23.076 7.29099V20.369C23.0611 20.5995 22.9557 20.8148 22.7828 20.968C22.61 21.1212 22.3836 21.1999 22.153 21.187H1.846C1.61538 21.1999 1.38901 21.1212 1.21615 20.968C1.04329 20.8148 0.93793 20.5995 0.922997 20.369V7.29099C0.938182 7.06068 1.04365 6.84568 1.21648 6.69269C1.38932 6.53971 1.61555 6.46112 1.846 6.474H22.153ZM22.153 5.65601H1.846C1.38496 5.62971 0.932217 5.78671 0.586433 6.09278C0.24065 6.39885 0.0298527 6.82916 -7.62939e-06 7.28998V20.368C0.0298564 20.8289 0.240621 21.2593 0.586372 21.5656C0.932124 21.8718 1.38487 22.029 1.846 22.003H22.153C22.6142 22.0293 23.0671 21.8721 23.4129 21.5659C23.7587 21.2596 23.9694 20.829 23.999 20.368V7.29099C23.9691 6.83017 23.7583 6.39983 23.4126 6.09375C23.0668 5.78768 22.614 5.63069 22.153 5.65699V5.65601Z" fill="white"/>
<path d="M23.076 11.078V16.578H19.384C19.014 16.5921 18.645 16.5314 18.2991 16.3996C17.9531 16.2677 17.6373 16.0674 17.3706 15.8107C17.1039 15.5539 16.8917 15.246 16.7467 14.9053C16.6018 14.5646 16.5271 14.1982 16.5271 13.828C16.5271 13.4578 16.6018 13.0913 16.7467 12.7507C16.8917 12.41 17.1039 12.102 17.3706 11.8453C17.6373 11.5885 17.9531 11.3882 18.2991 11.2564C18.645 11.1245 19.014 11.0639 19.384 11.078H23.076ZM23.999 10.16H19.384C18.897 10.1519 18.4133 10.2409 17.9611 10.4217C17.5088 10.6025 17.0971 10.8715 16.7499 11.2131C16.4026 11.5546 16.1268 11.9619 15.9386 12.4111C15.7504 12.8603 15.6534 13.3424 15.6534 13.8295C15.6534 14.3165 15.7504 14.7987 15.9386 15.2479C16.1268 15.6971 16.4026 16.1044 16.7499 16.4459C17.0971 16.7874 17.5088 17.0565 17.9611 17.2373C18.4133 17.4181 18.897 17.507 19.384 17.499H23.999V10.16Z" fill="white"/>
<path d="M19.384 12.913C19.5654 12.914 19.7423 12.9687 19.8926 13.0701C20.043 13.1716 20.1598 13.3153 20.2286 13.4832C20.2973 13.651 20.3147 13.8354 20.2788 14.0131C20.2428 14.1909 20.155 14.354 20.0264 14.4819C19.8978 14.6098 19.7342 14.6967 19.5563 14.7317C19.3783 14.7667 19.194 14.7483 19.0266 14.6786C18.8591 14.609 18.716 14.4913 18.6154 14.3405C18.5147 14.1896 18.461 14.0124 18.461 13.831C18.4618 13.5869 18.5595 13.3531 18.7325 13.181C18.9056 13.0088 19.1399 12.9125 19.384 12.913V12.913ZM19.384 11.995C19.0216 11.9972 18.6679 12.1066 18.3675 12.3096C18.0672 12.5125 17.8338 12.7999 17.6966 13.1354C17.5594 13.4708 17.5246 13.8395 17.5966 14.1947C17.6687 14.5499 17.8443 14.8759 18.1014 15.1314C18.3584 15.3869 18.6854 15.5606 19.041 15.6305C19.3967 15.7004 19.7651 15.6634 20.0998 15.5242C20.4344 15.385 20.7203 15.1498 20.9215 14.8483C21.1227 14.5468 21.23 14.1925 21.23 13.83C21.2284 13.3419 21.0331 12.8744 20.6869 12.5303C20.3407 12.1862 19.8721 11.9937 19.384 11.995Z" fill="white"/>
<path d="M18.639 6.25601L16.947 1.21301L11.632 3.32599L11.289 2.474L17.512 0L19.512 5.966L18.639 6.25601Z" fill="white"/>
<path d="M3.55699 6.54199L3.21399 5.69L11.291 2.479L11.634 3.33099L3.55699 6.54199Z" fill="white"/>
</g>
<defs>
<clipPath id="clip0_1_27251">
<rect width="24" height="24" fill="white" transform="translate(0 0.00500488)"/>
</clipPath>
</defs>
</svg>
