<svg width="25" height="23" viewBox="0 0 25 23" fill="none" xmlns="http://www.w3.org/2000/svg">
<path d="M24.6255 4.34348C24.5957 3.75974 24.3364 3.21145 23.9041 2.81808C23.4717 2.42472 22.9015 2.21817 22.3175 2.24347H18.9585L18.1395 0.00646973L11.9985 2.24347H2.93251C2.34856 2.21817 1.77827 2.42472 1.34595 2.81808C0.913623 3.21145 0.65431 3.75974 0.624512 4.34348V6.86548V20.3215C0.647324 20.7889 0.854355 21.2283 1.2003 21.5435C1.54625 21.8588 2.00294 22.0241 2.4705 22.0035H22.7785C23.2461 22.0241 23.7028 21.8588 24.0487 21.5435C24.3947 21.2283 24.6017 20.7889 24.6245 20.3215V10.9355L24.6255 4.34348ZM20.0105 11.0715H23.7025V16.1175H20.0105C19.6594 16.1503 19.3053 16.1095 18.9708 15.9976C18.6364 15.8857 18.329 15.7053 18.0683 15.4678C17.8076 15.2303 17.5993 14.941 17.4568 14.6185C17.3143 14.2959 17.2407 13.9471 17.2407 13.5945C17.2407 13.2418 17.3143 12.893 17.4568 12.5705C17.5993 12.2479 17.8076 11.9586 18.0683 11.7211C18.329 11.4837 18.6364 11.3032 18.9708 11.1913C19.3053 11.0795 19.6594 11.0386 20.0105 11.0715ZM22.3185 3.08249C22.6693 3.067 23.012 3.19108 23.2715 3.42758C23.5311 3.66409 23.6864 3.99376 23.7035 4.34448V5.41946C23.4198 5.2667 23.1028 5.18635 22.7805 5.18549H20.0365L19.2675 3.08548L22.3185 3.08249ZM17.5735 1.11649L19.0625 5.18549H6.40651L12.2585 3.05347L17.5735 1.11649ZM1.54851 5.41647V4.34247C1.56588 3.99183 1.72128 3.66232 1.98077 3.42587C2.24027 3.18942 2.58278 3.06525 2.93352 3.08047H9.6925L3.92351 5.18048H2.47351C2.15042 5.18255 1.83278 5.26393 1.54851 5.41748V5.41647Z" fill="#57C5D0"/>
</svg>
