<svg width="24" height="25" viewBox="0 0 24 25" fill="none" xmlns="http://www.w3.org/2000/svg">
<path d="M7.11968 21.3005C4.94769 20.1598 3.24397 18.2945 2.30377 16.0285C1.36357 13.7625 1.24628 11.2385 1.97271 8.89524C2.01249 8.76846 2.10103 8.6628 2.21881 8.60129C2.33658 8.53978 2.47387 8.52782 2.60064 8.5676C2.72742 8.60738 2.83356 8.69592 2.89508 8.81369C2.95659 8.93146 2.96855 9.06875 2.92877 9.19553C2.48776 10.6176 2.38735 12.1234 2.63531 13.5915C2.88327 15.0596 3.47291 16.4488 4.3565 17.6472C5.24009 18.8455 6.39256 19.8196 7.72174 20.4904C9.05092 21.1613 10.5195 21.5104 12.0084 21.5095C13.4972 21.5086 14.9651 21.1576 16.2935 20.4851C17.6219 19.8126 18.7732 18.8373 19.6553 17.6379C20.5375 16.4385 21.1255 15.0487 21.3716 13.5803C21.6178 12.1119 21.5155 10.6058 21.0728 9.1843C21.033 9.05752 21.045 8.92023 21.1065 8.80246C21.168 8.68469 21.2742 8.59615 21.4009 8.55637C21.5277 8.51659 21.665 8.52904 21.7828 8.59055C21.9005 8.65206 21.9891 8.75772 22.0289 8.88449C22.6461 10.8675 22.6613 12.989 22.0728 14.9807C21.4843 16.9724 20.3186 18.7449 18.7227 20.0739C17.1268 21.403 15.1728 22.2286 13.1075 22.447C11.0422 22.6654 8.9582 22.2664 7.11968 21.3005V21.3005ZM10.8067 19.9343L10.7066 19.9216C10.2535 19.8552 9.80672 19.7514 9.37066 19.6115L9.34576 19.6032C8.28114 19.2577 7.29711 18.7012 6.45269 17.9665C6.31536 17.8472 6.18212 17.7234 6.05279 17.5954C6.03652 17.5814 6.02126 17.5665 6.00689 17.5505C5.22543 16.7701 4.59499 15.852 4.14703 14.8425C4.09842 14.7317 4.09163 14.6069 4.12799 14.4914V14.4826C4.15525 14.4023 4.20239 14.3302 4.26519 14.2732C4.328 14.2161 4.40429 14.1759 4.48687 14.1565L4.68658 14.1076C6.47537 13.5444 8.05764 12.464 9.23297 11.0027C10.2571 9.71854 11.6237 8.75057 13.1749 8.21066C14.1869 7.94944 15.2487 7.94944 16.2608 8.21066C16.3678 8.23828 16.4625 8.30022 16.5303 8.38742C16.5982 8.47462 16.6353 8.58211 16.6358 8.6926C16.6379 9.64743 16.9352 10.5783 17.4869 11.3576C18.034 12.1207 18.8148 12.6847 19.711 12.9646L19.733 12.9695C19.8609 13.0041 19.9697 13.0884 20.0357 13.2033C20.1017 13.3183 20.1196 13.4543 20.085 13.5822C19.7946 14.6393 19.313 15.6344 18.6646 16.5183C18.6415 16.5622 18.612 16.6025 18.5767 16.6374C18.4314 16.8288 18.2787 17.0142 18.1187 17.1936L18.0499 17.2673C17.2087 18.1866 16.1775 18.9117 15.0279 19.3923C13.6933 19.9407 12.2381 20.1302 10.8077 19.9416L10.8067 19.9343ZM10.8516 18.9343C12.1349 19.1177 13.4439 18.9557 14.6436 18.4646C14.7106 18.4366 14.7778 18.4077 14.8438 18.3777C14.2718 17.8907 13.7199 17.3776 13.1959 16.8376C12.3849 17.5626 11.5409 18.2555 10.6749 18.9065L10.8516 18.9343ZM9.42681 18.5774C10.6345 17.7144 11.7878 16.7779 12.8799 15.7727C12.9766 15.6843 13.104 15.6371 13.2349 15.6418C13.3658 15.6465 13.4895 15.7026 13.5796 15.7976C14.2713 16.5324 15.0088 17.2227 15.7877 17.8645C16.3478 17.5077 16.8591 17.0795 17.3086 16.5905C17.3476 16.5475 17.3849 16.5046 17.4219 16.4616C16.0045 15.7416 14.8165 14.6393 13.9927 13.2795C13.8467 13.0355 13.7133 12.7842 13.5928 12.5266C12.7036 13.4028 11.7617 14.2237 10.772 14.9846C9.64893 15.8478 8.46522 16.6291 7.23004 17.3225C7.88396 17.8644 8.62722 18.2881 9.42681 18.5744V18.5774ZM6.47467 16.6003C7.76576 15.8929 9.00105 15.0879 10.169 14.1916C11.3197 13.3055 12.4036 12.3358 13.4127 11.2912C13.4719 11.2305 13.5455 11.1855 13.6265 11.1604C13.7076 11.1352 13.7938 11.1311 13.877 11.1477C13.9603 11.1656 14.0376 11.2043 14.1016 11.2605C14.1657 11.3166 14.2141 11.3882 14.2427 11.4685C14.4048 11.92 14.6089 12.3551 14.8526 12.7683C15.6118 14.0193 16.7198 15.0216 18.0406 15.6516C18.4367 15.0654 18.7535 14.4291 18.982 13.7595C18.0545 13.3801 17.2533 12.7459 16.671 11.9304C16.0784 11.0966 15.7254 10.1165 15.65 9.09641C14.9128 8.95948 14.1545 8.98623 13.4288 9.17453C12.058 9.67437 10.8536 10.5464 9.95074 11.6926C8.72499 13.1782 7.12371 14.3081 5.31304 14.9646C5.6299 15.5558 6.01996 16.1043 6.47467 16.5974V16.6003ZM19.9747 6.8425C19.1914 5.64237 18.1506 4.63187 16.9278 3.88449C16.8696 3.85137 16.8186 3.80682 16.7779 3.75363C16.7372 3.70045 16.7077 3.63976 16.691 3.57492C16.6742 3.51009 16.6709 3.44242 16.6807 3.37619C16.6906 3.30997 16.7137 3.24632 16.7486 3.18918C16.7835 3.13204 16.8294 3.08269 16.8838 3.04367C16.9383 3.00465 16.9997 2.97685 17.065 2.96213C17.1303 2.94741 17.1983 2.94583 17.2642 2.95774C17.3301 2.96964 17.3927 2.99482 17.4488 3.03147C18.8008 3.8554 19.9509 4.97222 20.814 6.29953C20.8854 6.41053 20.9099 6.54498 20.8824 6.67404C20.8548 6.80311 20.777 6.9163 20.6666 6.9885C20.5855 7.04109 20.4912 7.06956 20.3946 7.07053C20.3108 7.07028 20.2287 7.04888 20.1553 7.00852C20.0819 6.96815 20.0197 6.91017 19.9747 6.83957V6.8425ZM3.33502 6.9885C3.22454 6.9163 3.14673 6.80311 3.1192 6.67404C3.09166 6.54498 3.11666 6.41053 3.18804 6.29953C4.05238 4.97262 5.20215 3.85567 6.55377 3.03049C6.60984 2.99628 6.67197 2.97325 6.73687 2.96311C6.80177 2.95296 6.86834 2.95595 6.93218 2.97141C6.99602 2.98687 7.05588 3.01472 7.10894 3.05344C7.16201 3.09215 7.20706 3.14092 7.24127 3.19699C7.27548 3.25307 7.2985 3.3152 7.30865 3.3801C7.3188 3.445 7.31581 3.51157 7.30035 3.57541C7.28489 3.63925 7.25703 3.6991 7.21832 3.75217C7.1796 3.80523 7.13084 3.85028 7.07476 3.88449C5.85117 4.63122 4.80997 5.64183 4.02691 6.8425C3.95453 6.95337 3.84102 7.03095 3.71148 7.05832C3.58194 7.08569 3.44703 7.06061 3.33599 6.9885H3.33502ZM15.129 3.03537C13.1024 2.33707 10.9001 2.33707 8.87359 3.03537C8.8108 3.06087 8.74359 3.07331 8.67584 3.07199C8.60808 3.07068 8.5413 3.05597 8.47955 3.02805C8.4178 3.00013 8.36269 2.95989 8.31695 2.90988C8.27121 2.85988 8.23576 2.80102 8.21343 2.73703C8.19111 2.67304 8.18236 2.60493 8.18707 2.53733C8.19178 2.46972 8.2098 2.40375 8.24078 2.34348C8.27176 2.2832 8.31501 2.22992 8.36724 2.18674C8.41948 2.14356 8.47995 2.11159 8.54498 2.0925C10.7835 1.31959 13.2162 1.31959 15.4546 2.0925C15.5646 2.13237 15.6574 2.20925 15.7164 2.31027C15.7753 2.4113 15.7968 2.52989 15.7774 2.64524C15.758 2.76058 15.6987 2.86542 15.6099 2.94162C15.5212 3.01783 15.4085 3.06049 15.2916 3.06223C15.2362 3.06072 15.1819 3.05049 15.1299 3.03147L15.129 3.03537Z" fill="white"/>
</svg>
