<svg width="24" height="24" viewBox="0 0 24 24" fill="none" xmlns="http://www.w3.org/2000/svg">
<path d="M15.999 22.5C15.8664 22.5 15.7393 22.4473 15.6455 22.3535C15.5517 22.2597 15.499 22.1326 15.499 22C15.499 21.8674 15.5517 21.7403 15.6455 21.6465C15.7393 21.5527 15.8664 21.5 15.999 21.5H19.999C20.3968 21.5 20.7788 21.3419 21.0601 21.0605C21.3414 20.7792 21.499 20.3978 21.499 20V16C21.499 15.8674 21.5517 15.7403 21.6455 15.6465C21.7393 15.5527 21.8664 15.5 21.999 15.5C22.1316 15.5 22.2593 15.5527 22.353 15.6465C22.4468 15.7403 22.499 15.8674 22.499 16V20C22.499 20.663 22.2359 21.2987 21.7671 21.7676C21.2982 22.2364 20.6621 22.5 19.999 22.5H15.999ZM3.99902 22.5C3.33598 22.5 2.70029 22.2364 2.23145 21.7676C1.7626 21.2987 1.49902 20.663 1.49902 20V16C1.49902 15.8674 1.55174 15.7403 1.64551 15.6465C1.73928 15.5527 1.86642 15.5 1.99902 15.5C2.13163 15.5 2.25926 15.5527 2.35303 15.6465C2.4468 15.7403 2.49902 15.8674 2.49902 16V20C2.49902 20.3978 2.65717 20.7792 2.93848 21.0605C3.21978 21.3419 3.6012 21.5 3.99902 21.5H7.99902C8.13163 21.5 8.25926 21.5527 8.35303 21.6465C8.4468 21.7403 8.49902 21.8674 8.49902 22C8.49902 22.1326 8.4468 22.2597 8.35303 22.3535C8.25926 22.4473 8.13163 22.5 7.99902 22.5H3.99902ZM17.748 16V8C17.748 7.86739 17.8008 7.74025 17.8945 7.64648C17.9883 7.55272 18.1154 7.5 18.248 7.5C18.3807 7.5 18.5083 7.55272 18.6021 7.64648C18.6958 7.74025 18.748 7.86739 18.748 8V16C18.748 16.1326 18.6958 16.2597 18.6021 16.3535C18.5083 16.4473 18.3807 16.5 18.248 16.5C18.1154 16.5 17.9883 16.4473 17.8945 16.3535C17.8008 16.2597 17.748 16.1326 17.748 16ZM15.248 16V8C15.248 7.86739 15.3008 7.74025 15.3945 7.64648C15.4883 7.55272 15.6154 7.5 15.748 7.5C15.8807 7.5 16.0083 7.55272 16.1021 7.64648C16.1958 7.74025 16.248 7.86739 16.248 8V16C16.248 16.1326 16.1958 16.2597 16.1021 16.3535C16.0083 16.4473 15.8807 16.5 15.748 16.5C15.6154 16.5 15.4883 16.4473 15.3945 16.3535C15.3008 16.2597 15.248 16.1326 15.248 16ZM13.748 16V8C13.748 7.86739 13.8008 7.74025 13.8945 7.64648C13.9883 7.55272 14.1154 7.5 14.248 7.5C14.3807 7.5 14.5083 7.55272 14.6021 7.64648C14.6958 7.74025 14.748 7.86739 14.748 8V16C14.748 16.1326 14.6958 16.2597 14.6021 16.3535C14.5083 16.4473 14.3807 16.5 14.248 16.5C14.1154 16.5 13.9883 16.4473 13.8945 16.3535C13.8008 16.2597 13.748 16.1326 13.748 16ZM11.248 16V8C11.248 7.86739 11.3008 7.74025 11.3945 7.64648C11.4883 7.55272 11.6154 7.5 11.748 7.5C11.8807 7.5 12.0083 7.55272 12.1021 7.64648C12.1958 7.74025 12.248 7.86739 12.248 8V16C12.248 16.1326 12.1958 16.2597 12.1021 16.3535C12.0083 16.4473 11.8807 16.5 11.748 16.5C11.6154 16.5 11.4883 16.4473 11.3945 16.3535C11.3008 16.2597 11.248 16.1326 11.248 16ZM9.74805 16V8C9.74805 7.86739 9.80076 7.74025 9.89453 7.64648C9.9883 7.55272 10.1154 7.5 10.248 7.5C10.3807 7.5 10.5083 7.55272 10.6021 7.64648C10.6958 7.74025 10.748 7.86739 10.748 8V16C10.748 16.1326 10.6958 16.2597 10.6021 16.3535C10.5083 16.4473 10.3807 16.5 10.248 16.5C10.1154 16.5 9.9883 16.4473 9.89453 16.3535C9.80076 16.2597 9.74805 16.1326 9.74805 16ZM8.24805 16V8C8.24805 7.86739 8.30076 7.74025 8.39453 7.64648C8.4883 7.55272 8.61544 7.5 8.74805 7.5C8.88066 7.5 9.00828 7.55272 9.10205 7.64648C9.19582 7.74025 9.24805 7.86739 9.24805 8V16C9.24805 16.1326 9.19582 16.2597 9.10205 16.3535C9.00828 16.4473 8.88066 16.5 8.74805 16.5C8.61544 16.5 8.4883 16.4473 8.39453 16.3535C8.30076 16.2597 8.24805 16.1326 8.24805 16ZM5.24805 16V8C5.24805 7.86739 5.30076 7.74025 5.39453 7.64648C5.4883 7.55272 5.61544 7.5 5.74805 7.5C5.88066 7.5 6.00828 7.55272 6.10205 7.64648C6.19582 7.74025 6.24805 7.86739 6.24805 8V16C6.24805 16.1326 6.19582 16.2597 6.10205 16.3535C6.00828 16.4473 5.88066 16.5 5.74805 16.5C5.61544 16.5 5.4883 16.4473 5.39453 16.3535C5.30076 16.2597 5.24805 16.1326 5.24805 16ZM21.498 8V4C21.498 3.60218 21.3404 3.22076 21.0591 2.93945C20.7778 2.65815 20.3959 2.5 19.998 2.5H15.998C15.8654 2.5 15.7383 2.44728 15.6445 2.35352C15.5508 2.25975 15.498 2.13261 15.498 2C15.498 1.86739 15.5508 1.74025 15.6445 1.64648C15.7383 1.55272 15.8654 1.5 15.998 1.5H19.998C20.6611 1.5 21.2973 1.76309 21.7661 2.23193C22.235 2.70077 22.498 3.33696 22.498 4V8C22.498 8.13261 22.4458 8.25975 22.3521 8.35352C22.2583 8.44728 22.1307 8.5 21.998 8.5C21.8654 8.5 21.7383 8.44728 21.6445 8.35352C21.5508 8.25975 21.498 8.13261 21.498 8ZM1.49805 8V4C1.49805 3.33696 1.76163 2.70077 2.23047 2.23193C2.69931 1.76309 3.33501 1.5 3.99805 1.5H7.99805C8.13066 1.5 8.25828 1.55272 8.35205 1.64648C8.44582 1.74025 8.49805 1.86739 8.49805 2C8.49805 2.13261 8.44582 2.25975 8.35205 2.35352C8.25828 2.44728 8.13066 2.5 7.99805 2.5H3.99805C3.60022 2.5 3.2188 2.65815 2.9375 2.93945C2.6562 3.22076 2.49805 3.60218 2.49805 4V8C2.49805 8.13261 2.44582 8.25975 2.35205 8.35352C2.25828 8.44728 2.13066 8.5 1.99805 8.5C1.86544 8.5 1.7383 8.44728 1.64453 8.35352C1.55076 8.25975 1.49805 8.13261 1.49805 8Z" fill="#56596A"/>
</svg>
