<svg width="24" height="24" viewBox="0 0 24 24" fill="none" xmlns="http://www.w3.org/2000/svg">
<path d="M13.772 14.138C13.76 13.518 13.729 12.8983 13.679 12.279C13.6019 11.2537 13.4559 10.2347 13.242 9.229C12.9697 7.99356 12.4481 6.82673 11.709 5.8C11.6645 5.7349 11.606 5.6806 11.5378 5.6411C11.4696 5.60161 11.3934 5.57791 11.3148 5.57177C11.2362 5.56563 11.1573 5.5772 11.0837 5.60562C11.0102 5.63404 10.944 5.6786 10.89 5.736C10.2793 6.35933 9.66832 6.98067 9.05698 7.6C9.00642 7.6477 8.96583 7.70496 8.93758 7.76847C8.90932 7.83197 8.89395 7.90046 8.89237 7.96995C8.89079 8.03944 8.90303 8.10855 8.92836 8.17328C8.9537 8.238 8.99164 8.29705 9.03998 8.347C9.44877 8.79693 9.81282 9.28557 10.127 9.806C10.6304 10.6505 11.0185 11.5585 11.281 12.506C11.4787 13.2136 11.6254 13.9344 11.72 14.663C11.8068 15.3145 11.8402 15.972 11.82 16.629C11.8024 17.1987 11.7469 17.7666 11.654 18.329C11.6462 18.3933 11.6255 18.4553 11.5932 18.5114C11.5608 18.5676 11.5175 18.6165 11.4657 18.6555C11.414 18.6944 11.3549 18.7225 11.2921 18.7381C11.2292 18.7537 11.1638 18.7564 11.0999 18.7461C11.036 18.7358 10.9748 18.7126 10.92 18.6781C10.8652 18.6436 10.818 18.5983 10.7811 18.5451C10.7442 18.4919 10.7185 18.4317 10.7054 18.3683C10.6923 18.3049 10.6922 18.2395 10.705 18.176C10.8189 17.4894 10.8711 16.7939 10.861 16.098C10.8484 15.4192 10.7775 14.7427 10.649 14.076C10.5357 13.453 10.3684 12.841 10.149 12.247C10.1106 12.1082 10.0213 11.989 9.89898 11.913C9.81225 11.8648 9.71269 11.8447 9.61406 11.8556C9.51543 11.8664 9.4226 11.9076 9.34839 11.9735C9.27418 12.0393 9.22225 12.1266 9.19979 12.2233C9.17733 12.3199 9.18543 12.4212 9.22298 12.513C9.39586 12.9536 9.53428 13.407 9.63698 13.869C9.72866 14.2843 9.79545 14.7047 9.83698 15.128C9.86498 15.403 9.88398 15.679 9.89098 15.956C9.89804 15.9997 9.8932 16.0446 9.87698 16.0858C9.86076 16.127 9.83375 16.1631 9.79878 16.1903C9.76381 16.2175 9.72217 16.2348 9.67822 16.2404C9.63427 16.2459 9.58963 16.2396 9.54898 16.222C9.30332 16.167 9.06734 16.0753 8.84898 15.95C8.63617 15.8192 8.45525 15.6424 8.31944 15.4328C8.18363 15.2231 8.09636 14.9857 8.06398 14.738C7.97098 14.117 7.88398 13.495 7.79398 12.872C7.75098 12.572 7.70698 12.272 7.66698 11.972C7.66554 11.9521 7.65848 11.9329 7.64662 11.9168C7.63476 11.9007 7.6186 11.8883 7.59998 11.881C6.77498 11.468 5.94998 11.057 5.12698 10.639C4.87782 10.5194 4.66198 10.3402 4.49855 10.1173C4.33512 9.89436 4.22914 9.63461 4.18998 9.361C4.12958 9.00324 4.18523 8.63554 4.34878 8.31167C4.51234 7.9878 4.77522 7.72476 5.09898 7.561C5.93198 7.147 6.76998 6.74 7.60598 6.33C7.62666 6.32213 7.64468 6.30855 7.65796 6.29085C7.67123 6.27316 7.67922 6.25205 7.68098 6.23C7.77498 5.576 7.87298 4.923 7.97098 4.27C8.01498 3.97 8.04998 3.67 8.10598 3.37C8.17466 3.02737 8.34725 2.71423 8.60027 2.4732C8.85328 2.23217 9.17443 2.07497 9.51998 2.023C9.79129 1.97389 10.0706 1.99326 10.3325 2.07935C10.5944 2.16543 10.8307 2.31552 11.02 2.516C11.674 3.177 12.32 3.848 12.965 4.516C12.98 4.53495 13.0001 4.54912 13.0231 4.55676C13.046 4.5644 13.0706 4.56518 13.094 4.559C14.015 4.401 14.936 4.242 15.859 4.09C16.3027 4.02256 16.7552 4.13122 17.1199 4.39279C17.4846 4.65435 17.7326 5.0481 17.811 5.49C17.8783 5.88784 17.8077 6.29673 17.611 6.649C17.182 7.456 16.757 8.265 16.329 9.073C16.3188 9.0877 16.3134 9.10514 16.3134 9.123C16.3134 9.14086 16.3188 9.1583 16.329 9.173C16.759 9.994 17.191 10.814 17.617 11.638C17.8276 12.0313 17.8771 12.4911 17.755 12.9202C17.633 13.3494 17.349 13.7143 16.963 13.938C16.8672 13.9931 16.7884 14.0737 16.7355 14.1707C16.6826 14.2678 16.6575 14.3776 16.663 14.488C16.663 14.788 16.663 15.081 16.663 15.377C16.651 15.992 16.619 16.605 16.563 17.216C16.5588 17.2805 16.5417 17.3435 16.5126 17.4013C16.4835 17.459 16.443 17.5103 16.3936 17.552C16.3442 17.5937 16.2868 17.625 16.225 17.644C16.1632 17.663 16.0982 17.6693 16.0339 17.6625C15.9696 17.6558 15.9074 17.6361 15.8508 17.6047C15.7943 17.5733 15.7447 17.5308 15.705 17.4798C15.6654 17.4287 15.6364 17.3702 15.6199 17.3077C15.6034 17.2452 15.5997 17.18 15.609 17.116C15.643 16.743 15.665 16.37 15.683 15.996C15.711 15.396 15.717 14.796 15.706 14.196C15.692 13.47 15.681 12.743 15.637 12.018C15.628 11.858 15.613 11.699 15.602 11.539C15.5997 11.4746 15.5844 11.4113 15.5571 11.3529C15.5298 11.2946 15.491 11.2423 15.4431 11.1992C15.3951 11.1561 15.339 11.1231 15.2781 11.1022C15.2171 11.0813 15.1526 11.0729 15.0883 11.0775C15.024 11.082 14.9613 11.0995 14.9039 11.1288C14.8465 11.1581 14.7956 11.1987 14.7542 11.2481C14.7129 11.2976 14.6819 11.3548 14.6631 11.4165C14.6443 11.4781 14.6382 11.5429 14.645 11.607C14.69 12.154 14.711 12.707 14.725 13.252C14.742 13.909 14.756 14.567 14.746 15.224C14.7485 15.3513 14.7003 15.4744 14.6121 15.5662C14.5239 15.658 14.4028 15.711 14.2755 15.7135C14.1482 15.716 14.0251 15.6679 13.9333 15.5796C13.8415 15.4914 13.7885 15.3703 13.786 15.243C13.786 14.917 13.786 14.59 13.786 14.263L13.772 14.138Z" fill="#444444"/>
<path d="M14.616 16.631C14.584 16.987 14.559 17.375 14.516 17.761C14.446 18.3921 14.3311 19.0173 14.172 19.632C14.1584 19.6952 14.1321 19.755 14.0947 19.8078C14.0574 19.8605 14.0098 19.9052 13.9547 19.9391C13.8996 19.9729 13.8383 19.9953 13.7743 20.0049C13.7104 20.0144 13.6452 20.0109 13.5826 19.9945C13.5201 19.9782 13.4615 19.9493 13.4104 19.9097C13.3593 19.8701 13.3167 19.8206 13.2852 19.7641C13.2538 19.7076 13.2341 19.6454 13.2273 19.5811C13.2206 19.5168 13.2269 19.4518 13.246 19.39C13.3994 18.8096 13.5074 18.2182 13.569 17.621C13.609 17.256 13.628 16.889 13.669 16.521C13.6735 16.4576 13.6909 16.3958 13.7201 16.3393C13.7493 16.2829 13.7897 16.233 13.8388 16.1926C13.888 16.1523 13.9448 16.1224 14.0058 16.1048C14.0669 16.0871 14.1309 16.0821 14.194 16.09C14.3216 16.106 14.4377 16.1719 14.5168 16.2733C14.5959 16.3747 14.6315 16.5033 14.616 16.631Z" fill="#444444"/>
<path d="M21.214 8.108C21.7896 9.47269 22.0548 10.9482 21.9906 12.4279C21.9263 13.9076 21.5342 15.3546 20.8425 16.6642C20.1508 17.9739 19.1769 19.1136 17.991 20.0009C16.8051 20.8882 15.4369 21.5011 13.9853 21.7951C12.5337 22.0891 11.0348 22.0571 9.59714 21.7012C8.15943 21.3453 6.81872 20.6745 5.67189 19.7372C4.52506 18.8 3.60075 17.6197 2.96574 16.2816C2.33072 14.9435 2.00087 13.4811 2 12" stroke="#56596A" stroke-linecap="round" stroke-linejoin="round"/>
</svg>
