<svg width="24" height="24" viewBox="0 0 24 24" fill="none" xmlns="http://www.w3.org/2000/svg">
<path d="M2.99805 19.6025C2.60022 19.6025 2.2188 19.4444 1.9375 19.1631C1.6562 18.8818 1.49805 18.5004 1.49805 18.1025V10.1025C1.49805 9.70471 1.6562 9.3233 1.9375 9.04199C2.2188 8.76069 2.60022 8.60254 2.99805 8.60254H12.2461C12.2737 8.6001 12.3015 8.6001 12.3291 8.60254H14.2993C14.4319 8.60254 14.5591 8.65526 14.6528 8.74902C14.7466 8.84279 14.7993 8.96993 14.7993 9.10254C14.7993 9.23515 14.7466 9.36229 14.6528 9.45605C14.5591 9.54982 14.4319 9.60254 14.2993 9.60254H12.5762L10.1455 13.8555C10.1018 13.932 10.0386 13.9958 9.9624 14.04C9.88619 14.0843 9.79956 14.1074 9.71143 14.1074C9.62411 14.1084 9.53811 14.086 9.4624 14.0425C9.40534 14.01 9.35522 13.9664 9.31494 13.9146C9.27466 13.8627 9.2449 13.8036 9.22754 13.7402C9.21017 13.6769 9.20567 13.6106 9.21387 13.5454C9.22206 13.4803 9.24288 13.4174 9.27539 13.3604L11.4243 9.60254H2.99707C2.86446 9.60254 2.73732 9.65526 2.64355 9.74902C2.54979 9.84279 2.49707 9.96993 2.49707 10.1025V18.1025C2.49707 18.2351 2.54979 18.3623 2.64355 18.4561C2.73732 18.5498 2.86446 18.6025 2.99707 18.6025H16.9971L18.2671 16.4023C18.2983 16.3426 18.3414 16.2898 18.3936 16.2471C18.4458 16.2044 18.506 16.1726 18.5708 16.1538C18.6356 16.135 18.7036 16.1296 18.7705 16.1377C18.8375 16.1458 18.9021 16.1674 18.9604 16.2012C19.0188 16.2349 19.0699 16.28 19.1104 16.334C19.1508 16.3879 19.1798 16.4496 19.1958 16.5151C19.2118 16.5806 19.2146 16.6488 19.2036 16.7153C19.1927 16.7819 19.1685 16.8454 19.1323 16.9023L18.1504 18.6074H20.9951C21.1277 18.6074 21.2549 18.5547 21.3486 18.4609C21.4424 18.3672 21.4951 18.24 21.4951 18.1074V13.3735C21.4951 13.2409 21.5478 13.1138 21.6416 13.02C21.7354 12.9263 21.8625 12.8735 21.9951 12.8735C22.1277 12.8735 22.2549 12.9263 22.3486 13.02C22.4424 13.1138 22.4951 13.2409 22.4951 13.3735V18.1074C22.4951 18.5052 22.3375 18.8867 22.0562 19.168C21.7748 19.4493 21.3929 19.6074 20.9951 19.6074L2.99805 19.6025ZM4.79834 15.3574V15.1006C4.80534 14.1226 4.81839 12.4844 4.04639 11.7114L4.75244 11.0044C5.82244 12.0724 5.80834 13.9735 5.79834 15.1045V15.3545L4.79834 15.3574ZM19.498 9.10547V7.60547H17.998C17.8654 7.60547 17.7383 7.55275 17.6445 7.45898C17.5508 7.36522 17.498 7.23808 17.498 7.10547C17.498 6.97286 17.5508 6.84572 17.6445 6.75195C17.7383 6.65818 17.8654 6.60547 17.998 6.60547H19.498V5.10547C19.498 4.97286 19.5508 4.84572 19.6445 4.75195C19.7383 4.65818 19.8654 4.60547 19.998 4.60547C20.1307 4.60547 20.2583 4.65818 20.3521 4.75195C20.4458 4.84572 20.498 4.97286 20.498 5.10547V6.60547H21.998C22.1307 6.60547 22.2583 6.65818 22.3521 6.75195C22.4458 6.84572 22.498 6.97286 22.498 7.10547C22.498 7.23808 22.4458 7.36522 22.3521 7.45898C22.2583 7.55275 22.1307 7.60547 21.998 7.60547H20.498V9.10547C20.498 9.23808 20.4458 9.36522 20.3521 9.45898C20.2583 9.55275 20.1307 9.60547 19.998 9.60547C19.8654 9.60547 19.7383 9.55275 19.6445 9.45898C19.5508 9.36522 19.498 9.23808 19.498 9.10547Z" fill="#56596A"/>
</svg>
