<svg width="24" height="24" viewBox="0 0 24 24" fill="none" xmlns="http://www.w3.org/2000/svg">
<path d="M2.99805 19.4987C2.60022 19.4987 2.2188 19.3405 1.9375 19.0592C1.6562 18.7779 1.49805 18.3965 1.49805 17.9987V9.99868C1.49805 9.60086 1.6562 9.21944 1.9375 8.93814C2.2188 8.65683 2.60022 8.49868 2.99805 8.49868H14.2983C14.4309 8.49868 14.5581 8.5514 14.6519 8.64517C14.7456 8.73894 14.7983 8.86608 14.7983 8.99868C14.7983 9.13129 14.7456 9.25843 14.6519 9.3522C14.5581 9.44597 14.4309 9.49868 14.2983 9.49868H12.5762L10.144 13.7555C10.1003 13.832 10.0376 13.8958 9.96143 13.9401C9.88521 13.9843 9.79858 14.0074 9.71045 14.0075C9.62296 14.0077 9.53697 13.9847 9.46143 13.9406C9.40436 13.9081 9.35425 13.8645 9.31396 13.8126C9.27368 13.7608 9.24393 13.7017 9.22656 13.6383C9.2092 13.575 9.20421 13.5087 9.2124 13.4435C9.2206 13.3784 9.24191 13.3155 9.27441 13.2585L11.4243 9.49868H2.99609C2.86349 9.49868 2.73635 9.5514 2.64258 9.64517C2.54881 9.73894 2.49609 9.86608 2.49609 9.99868V17.9987C2.49609 18.1313 2.54881 18.2584 2.64258 18.3522C2.73635 18.446 2.86349 18.4987 2.99609 18.4987L16.9961 18.5045L18.2671 16.2985C18.2983 16.2387 18.3414 16.1859 18.3936 16.1432C18.4458 16.1005 18.506 16.0687 18.5708 16.05C18.6356 16.0312 18.7036 16.0257 18.7705 16.0338C18.8375 16.042 18.9021 16.0636 18.9604 16.0973C19.0188 16.1311 19.0699 16.1762 19.1104 16.2301C19.1508 16.2841 19.1798 16.3458 19.1958 16.4113C19.2118 16.4768 19.2146 16.5449 19.2036 16.6115C19.1927 16.678 19.1685 16.7416 19.1323 16.7985L18.1494 18.5045H20.9951C21.1277 18.5045 21.2549 18.4518 21.3486 18.3581C21.4424 18.2643 21.4951 18.1372 21.4951 18.0045V13.2648C21.4951 13.1322 21.5478 13.0046 21.6416 12.9108C21.7354 12.817 21.8625 12.7648 21.9951 12.7648C22.1277 12.7648 22.2549 12.817 22.3486 12.9108C22.4424 13.0046 22.4951 13.1322 22.4951 13.2648V18.0045C22.4951 18.4024 22.3375 18.7838 22.0562 19.0651C21.7748 19.3464 21.3929 19.5045 20.9951 19.5045L2.99805 19.4987ZM4.79834 15.2555V14.9987C4.80534 14.0207 4.81839 12.3825 4.04639 11.6085L4.75244 10.9005C5.82244 11.9705 5.80834 13.8716 5.79834 15.0006V15.2506L4.79834 15.2555ZM20.5732 9.26968L19.7471 7.94742L18.9214 9.26968C18.8479 9.3746 18.7368 9.44725 18.6113 9.47281C18.4858 9.49836 18.3552 9.47473 18.2466 9.40689C18.138 9.33905 18.0599 9.23204 18.0278 9.10806C17.9957 8.98408 18.0122 8.85242 18.0742 8.74038L18.8462 7.50552H17.4971C17.3645 7.50552 17.2373 7.4528 17.1436 7.35904C17.0498 7.26527 16.9971 7.13813 16.9971 7.00552C16.9971 6.87291 17.0498 6.74577 17.1436 6.65201C17.2373 6.55824 17.3645 6.50552 17.4971 6.50552H18.8472L18.0742 5.2687C18.0346 5.21312 18.007 5.1499 17.9927 5.08316C17.9784 5.01641 17.9778 4.94746 17.9912 4.88052C18.0046 4.81358 18.0315 4.75013 18.0703 4.694C18.1091 4.63786 18.1589 4.58997 18.2168 4.55386C18.2747 4.51775 18.3397 4.49419 18.4072 4.48404C18.4747 4.47388 18.5434 4.4778 18.6094 4.49527C18.6754 4.51274 18.7369 4.54337 18.7905 4.5856C18.8442 4.62782 18.8889 4.68034 18.9214 4.74038L19.7471 6.06265L20.5732 4.74038C20.6446 4.63071 20.7561 4.55346 20.8838 4.52505C21.0115 4.49665 21.1452 4.51943 21.2563 4.58853C21.3675 4.65763 21.447 4.76756 21.478 4.89468C21.509 5.0218 21.4892 5.15621 21.4224 5.2687L20.6494 6.50552H21.9971C22.1297 6.50552 22.2573 6.55824 22.3511 6.65201C22.4448 6.74577 22.4971 6.87291 22.4971 7.00552C22.4971 7.13813 22.4448 7.26527 22.3511 7.35904C22.2573 7.4528 22.1297 7.50552 21.9971 7.50552H20.6494L21.4214 8.74038C21.491 8.85267 21.5132 8.98812 21.4834 9.11685C21.4536 9.24558 21.3741 9.35713 21.2622 9.4274C21.1832 9.47827 21.0911 9.50547 20.9971 9.50552C20.9121 9.50493 20.8289 9.48289 20.7549 9.44107C20.6809 9.39925 20.6186 9.33926 20.5742 9.26675L20.5732 9.26968Z" fill="#56596A"/>
</svg>
