<svg width="25" height="24" viewBox="0 0 25 24" fill="none" xmlns="http://www.w3.org/2000/svg">
<path d="M22.4869 1.56271C21.1588 0.234578 19.2839 0.0262451 17.0573 0.0262451H6.91407C4.72656 0.0262451 2.85156 0.234578 1.52344 1.56271C0.195312 2.89083 0 4.7528 0 6.92728V16.9794C0 19.2059 0.195312 21.0549 1.52344 22.383C2.85156 23.7111 4.72656 23.9195 6.94011 23.9195H17.0573C19.2839 23.9195 21.1588 23.7111 22.4869 22.383C23.8151 21.0549 24.0104 19.2059 24.0104 16.9794V6.96635C24.0104 4.73979 23.8151 2.8778 22.4869 1.56271ZM21.914 6.60176V17.3309C21.914 18.6851 21.7448 20.0653 20.9505 20.8595C20.1693 21.6409 18.7631 21.8231 17.4219 21.8231H6.58855C5.2474 21.8231 3.84115 21.6409 3.04688 20.8595C2.26563 20.0653 2.09636 18.6851 2.09636 17.3309V6.64083C2.09636 5.27364 2.26563 3.86739 3.04688 3.08614C3.84115 2.29187 5.26041 2.1226 6.6276 2.1226H17.4219C18.7631 2.1226 20.1693 2.3049 20.9505 3.08614C21.7448 3.88042 21.914 5.26062 21.914 6.60176ZM5.97656 11.9533C5.97656 12.5914 6.43229 13.021 7.09636 13.021H10.9245V16.8622C10.9245 17.5133 11.3542 17.969 11.9922 17.969C12.6432 17.969 13.099 17.5262 13.099 16.8622V13.021H16.9401C17.5912 13.021 18.0469 12.5914 18.0469 11.9533C18.0469 11.3023 17.5912 10.8466 16.9401 10.8466H13.099V7.01843C13.099 6.35436 12.6432 5.89864 11.9922 5.89864C11.3542 5.89864 10.9245 6.35436 10.9245 7.01843V10.8466H7.09636C6.41927 10.8466 5.97656 11.3023 5.97656 11.9533Z" fill="#3376D4"/>
</svg>
