<svg width="24" height="24" viewBox="0 0 24 24" fill="none" xmlns="http://www.w3.org/2000/svg">
<path d="M11.4995 22.001V20.2788H9.80664C9.67403 20.2788 9.54689 20.2261 9.45312 20.1323C9.35936 20.0386 9.30664 19.9114 9.30664 19.7788C9.30664 19.6462 9.35936 19.5191 9.45312 19.4253C9.54689 19.3315 9.67403 19.2788 9.80664 19.2788H11.4995V17.5557C11.4995 17.4231 11.5522 17.2959 11.646 17.2021C11.7398 17.1084 11.8669 17.0557 11.9995 17.0557C12.1321 17.0557 12.2597 17.1084 12.3535 17.2021C12.4473 17.2959 12.4995 17.4231 12.4995 17.5557V19.2788H14.1948C14.3274 19.2788 14.4546 19.3315 14.5483 19.4253C14.6421 19.5191 14.6948 19.6462 14.6948 19.7788C14.6948 19.9114 14.6421 20.0386 14.5483 20.1323C14.4546 20.2261 14.3274 20.2788 14.1948 20.2788H12.4995V22.001C12.4995 22.1336 12.4473 22.2607 12.3535 22.3545C12.2597 22.4483 12.1321 22.501 11.9995 22.501C11.8669 22.501 11.7398 22.4483 11.646 22.3545C11.5522 22.2607 11.4995 22.1336 11.4995 22.001ZM18.2876 20.2817C18.1552 20.2781 18.0296 20.2222 17.9385 20.126C17.8474 20.0298 17.7983 19.9015 17.8018 19.769C17.815 19.6399 17.8737 19.5197 17.9678 19.4302C18.0619 19.3407 18.1853 19.2875 18.3149 19.2808C18.6209 19.2875 18.9171 19.1734 19.1392 18.9629C19.3613 18.7524 19.4913 18.4626 19.501 18.1567C19.4842 17.5537 19.3481 16.9602 19.1016 16.4097C18.855 15.8591 18.5027 15.3623 18.064 14.9482C17.6253 14.5342 17.1093 14.211 16.5454 13.9966C15.9816 13.7822 15.3808 13.6807 14.7778 13.6987H9.23779C8.63247 13.6817 8.02959 13.7845 7.46387 14.0005C6.89814 14.2165 6.38084 14.5419 5.94092 14.958C5.501 15.3742 5.14698 15.8729 4.8999 16.4258C4.65283 16.9786 4.51755 17.5744 4.50098 18.1797C4.52138 18.4801 4.65541 18.7618 4.87646 18.9663C5.09752 19.1708 5.38882 19.2828 5.68994 19.2798C5.7556 19.2783 5.8206 19.2897 5.88184 19.3135C5.94308 19.3372 5.99938 19.3726 6.04688 19.418C6.09437 19.4633 6.13217 19.518 6.15869 19.5781C6.18521 19.6382 6.19966 19.7029 6.20117 19.7686C6.20268 19.8342 6.19121 19.8992 6.16748 19.9604C6.14375 20.0217 6.10835 20.078 6.06299 20.1255C6.01763 20.173 5.96341 20.2108 5.90332 20.2373C5.84324 20.2638 5.77855 20.2783 5.71289 20.2798C5.14216 20.2911 4.58968 20.0772 4.17578 19.6841C3.76188 19.291 3.52 18.7502 3.50195 18.1797C3.54464 16.693 4.17244 15.2835 5.24902 14.2573C6.32561 13.2311 7.76393 12.6712 9.25098 12.6997H14.7637C16.2464 12.669 17.6812 13.2255 18.7559 14.2476C19.8305 15.2696 20.4582 16.6744 20.502 18.1567C20.492 18.7224 20.2608 19.2619 19.8579 19.6592C19.4551 20.0564 18.9124 20.2797 18.3467 20.2817H18.2876ZM7.50098 7.20166V6.00195C7.50098 4.80848 7.97493 3.66374 8.81885 2.81982C9.66276 1.97591 10.8075 1.50195 12.001 1.50195C13.1945 1.50195 14.3387 1.97591 15.1826 2.81982C16.0265 3.66374 16.501 4.80848 16.501 6.00195V7.20166C16.501 8.39513 16.0265 9.53988 15.1826 10.3838C14.3387 11.2277 13.1945 11.7017 12.001 11.7017C10.8075 11.7017 9.66276 11.2277 8.81885 10.3838C7.97493 9.53988 7.50098 8.39513 7.50098 7.20166V7.20166ZM8.50098 6.00195V7.20166C8.50098 8.12992 8.8695 9.02038 9.52588 9.67676C10.1823 10.3331 11.0727 10.7017 12.001 10.7017C12.9292 10.7017 13.8192 10.3331 14.4756 9.67676C15.132 9.02038 15.501 8.12992 15.501 7.20166V6.00195C15.501 5.0737 15.132 4.18323 14.4756 3.52686C13.8192 2.87048 12.9292 2.50195 12.001 2.50195C11.0727 2.50195 10.1823 2.87048 9.52588 3.52686C8.8695 4.18323 8.50098 5.0737 8.50098 6.00195Z" fill="#56596A"/>
</svg>
