<svg width="24" height="24" viewBox="0 0 24 24" fill="none" xmlns="http://www.w3.org/2000/svg">
<path d="M1.49805 12.0001C1.49805 9.92336 2.11431 7.89328 3.26807 6.16657C4.42182 4.43985 6.06136 3.0941 7.97998 2.29938C9.8986 1.50466 12.0101 1.29658 14.0469 1.70172C16.0837 2.10687 17.9544 3.10681 19.4229 4.57526C20.8913 6.04371 21.8912 7.91492 22.2964 9.95172C22.7015 11.9885 22.4939 14.0995 21.6992 16.0181C20.9045 17.9368 19.5583 19.5768 17.8315 20.7305C16.1048 21.8843 14.0748 22.5001 11.998 22.5001C9.21425 22.4969 6.54559 21.3894 4.57715 19.421C2.6087 17.4525 1.50122 14.7839 1.49805 12.0001ZM2.49805 12.0001C2.49805 13.879 3.05525 15.7156 4.09912 17.2779C5.14299 18.8402 6.62689 20.0579 8.36279 20.7769C10.0987 21.4959 12.0087 21.684 13.8516 21.3174C15.6944 20.9509 17.3872 20.0459 18.7158 18.7173C20.0444 17.3887 20.9494 15.6959 21.3159 13.8531C21.6825 12.0103 21.4939 10.1002 20.7749 8.36432C20.0559 6.62842 18.8386 5.14501 17.2764 4.10114C15.7141 3.05726 13.877 2.50006 11.998 2.50006C9.47964 2.5035 7.06585 3.50532 5.28516 5.28619C3.50446 7.06707 2.50269 9.48165 2.49951 12.0001H2.49805ZM6.49805 17.0001C6.40008 17.0003 6.30452 16.9718 6.22266 16.918C6.14079 16.8642 6.07627 16.7873 6.0376 16.6973C5.99893 16.6073 5.98755 16.5081 6.00488 16.4117C6.02222 16.3153 6.06766 16.2258 6.13525 16.1548C7.00225 15.2408 7.83549 14.2719 8.60449 13.2769C10.0504 11.4013 11.333 9.4055 12.4385 7.3111C12.6264 6.92579 12.9165 6.59963 13.2773 6.36823C13.6382 6.13682 14.0558 6.00909 14.4844 5.99908H16.498C16.5734 5.99894 16.6479 6.01575 16.7158 6.0484C16.7837 6.08106 16.8437 6.12861 16.8906 6.18756C16.9376 6.24651 16.9702 6.31524 16.9868 6.38873C17.0034 6.46223 17.0034 6.53848 16.9863 6.61188L14.6792 16.6119C14.6538 16.7223 14.5916 16.8207 14.5029 16.8912C14.4143 16.9617 14.3047 17.0002 14.1914 17.0001H6.49805ZM13.3311 7.76178C12.1964 9.91211 10.88 11.9613 9.39551 13.8868C8.83684 14.6088 8.25054 15.3134 7.63721 16.0001H13.7935L15.8701 7.00006H14.4971C14.2514 7.00803 14.0131 7.08354 13.8076 7.21832C13.6021 7.35311 13.4377 7.54161 13.3325 7.76373L13.3311 7.76178Z" fill="#56596A"/>
</svg>
