<svg width="64" height="64" viewBox="0 0 64 64" fill="none" xmlns="http://www.w3.org/2000/svg">
<path d="M31.9994 14.492C32.8554 14.5147 33.6974 14.7145 34.4724 15.0787C35.2473 15.443 35.9384 15.9638 36.5021 16.6084C37.0658 17.253 37.4898 18.0073 37.7475 18.8239C38.0052 19.6405 38.091 20.5016 37.9994 21.353C37.8314 14.167 34.4674 9.34697 31.9994 9.34697C29.5314 9.34697 26.1644 14.168 25.9994 21.353C25.9078 20.5016 25.9936 19.6405 26.2513 18.8239C26.509 18.0073 26.9331 17.253 27.4967 16.6084C28.0604 15.9638 28.7515 15.443 29.5265 15.0787C30.3014 14.7145 31.1434 14.5147 31.9994 14.492Z" fill="#57C5D0"/>
<path d="M42.6242 59.002C42.4502 59.0021 42.2804 58.9483 42.1382 58.848C40.3939 57.6125 38.4415 56.7013 36.3742 56.158C33.5207 55.3019 30.4787 55.3019 27.6252 56.158C25.5583 56.7014 23.6061 57.6126 21.8622 58.848C21.742 58.9328 21.6019 58.9848 21.4554 58.9987C21.309 59.0126 21.1615 58.988 21.0275 58.9274C20.8935 58.8668 20.7777 58.7722 20.6915 58.653C20.6054 58.5338 20.5518 58.3942 20.5362 58.248L20.1912 54.868C20.176 54.718 20.2011 54.5667 20.2641 54.4297C20.327 54.2928 20.4255 54.1751 20.5492 54.089L27.6972 49.124C25.6026 44.4064 24.5439 39.2945 24.5922 34.133L6.09222 39.959C5.96605 39.9994 5.83209 40.0094 5.70129 39.9884C5.57049 39.9673 5.4465 39.9158 5.33936 39.8379C5.23221 39.7599 5.14497 39.6579 5.08466 39.5399C5.02434 39.4219 4.99264 39.2915 4.99219 39.159V34.604C4.99233 34.4516 5.03372 34.3021 5.11188 34.1713C5.19004 34.0405 5.3021 33.9333 5.43622 33.861L24.6482 23.52C24.8312 21.133 25.1052 18.737 25.4632 16.389C26.1832 11.689 26.9712 8.72598 29.0712 6.55998C29.7485 5.76804 30.6755 5.23051 31.6992 5.03599C31.794 5.00511 31.8944 4.99584 31.9932 5.00895C32.0941 4.99954 32.1958 5.00905 32.2932 5.03697C33.3145 5.23303 34.2389 5.77001 34.9152 6.55998C37.0152 8.72598 37.8042 11.686 38.5222 16.389C38.8812 18.731 39.1542 21.128 39.3382 23.52L58.5502 33.861C58.6844 33.9333 58.7964 34.0405 58.8746 34.1713C58.9527 34.3021 58.9941 34.4516 58.9942 34.604V39.159C58.9935 39.2914 58.9617 39.4218 58.9014 39.5396C58.841 39.6574 58.7537 39.7594 58.6467 39.8373C58.5396 39.9152 58.4156 39.9668 58.2849 39.9879C58.1542 40.009 58.0204 39.9991 57.8942 39.959L39.3942 34.133C39.4423 39.2945 38.3832 44.4065 36.2882 49.124L43.4362 54.089C43.5602 54.1749 43.6589 54.2925 43.722 54.4295C43.7852 54.5665 43.8105 54.7179 43.7952 54.868L43.4522 58.243C43.4307 58.4509 43.333 58.6435 43.1779 58.7837C43.0227 58.9238 42.8212 59.0016 42.6122 59.002H42.6242ZM21.9242 55.192L22.0772 56.692C23.6712 55.7264 25.3964 54.9962 27.1992 54.524C28.7562 54.0895 30.362 53.8543 31.9782 53.824H32.0242C33.6401 53.8542 35.2455 54.0894 36.8022 54.524C38.6053 54.9963 40.3308 55.7265 41.9252 56.692L42.0782 55.192L34.7592 50.109C34.5956 49.9954 34.4775 49.8275 34.4257 49.6352C34.3739 49.4428 34.3918 49.2384 34.4762 49.058C35.1798 47.555 35.7733 46.0029 36.2522 44.414C37.3596 40.7178 37.8459 36.8634 37.6912 33.008C37.6861 32.8726 37.7136 32.7379 37.7715 32.6153C37.8295 32.4928 37.916 32.3861 38.0239 32.3041C38.1318 32.2221 38.2579 32.1673 38.3914 32.1443C38.525 32.1213 38.6621 32.1308 38.7912 32.172L57.3142 38.006V35.106L38.1382 24.784C38.0131 24.7166 37.9071 24.6188 37.8298 24.4996C37.7526 24.3804 37.7066 24.2436 37.6962 24.102C37.5172 21.602 37.2362 19.089 36.8622 16.641C36.1952 12.284 35.4962 9.57298 33.7102 7.73198C33.2826 7.1991 32.6805 6.8343 32.0102 6.70195H31.9912C31.3209 6.8343 30.7188 7.1991 30.2912 7.73198C28.5052 9.57298 27.8062 12.2829 27.1392 16.6419C26.7642 19.0959 26.4832 21.607 26.3042 24.102C26.2942 24.2436 26.2485 24.3804 26.1714 24.4997C26.0943 24.6189 25.9883 24.7167 25.8632 24.784L6.69122 35.104V38.0039L25.2132 32.17C25.3423 32.1285 25.4795 32.1188 25.6132 32.1417C25.7468 32.1646 25.873 32.2194 25.981 32.3015C26.0889 32.3835 26.1755 32.4904 26.2333 32.613C26.2912 32.7357 26.3186 32.8705 26.3132 33.006C26.16 36.8618 26.6469 40.7164 27.7542 44.4129C28.2335 46.0017 28.827 47.5538 29.5302 49.057C29.6146 49.2374 29.6325 49.4419 29.5807 49.6342C29.529 49.8265 29.4108 49.9943 29.2472 50.108L21.9242 55.192Z" fill="#5439AC"/>
</svg>
