<svg width="24" height="24" viewBox="0 0 24 24" fill="none" xmlns="http://www.w3.org/2000/svg">
<path d="M5.00195 22.4995C4.33891 22.4995 3.70273 22.2359 3.23389 21.7671C2.76505 21.2982 2.50195 20.6626 2.50195 19.9995V7.99951C2.50195 7.33647 2.76505 6.70029 3.23389 6.23145C3.70273 5.7626 4.33891 5.49951 5.00195 5.49951H7.52783C7.63977 4.50103 8.08321 3.569 8.7876 2.85254C8.8073 2.82899 8.82899 2.8073 8.85254 2.7876C9.69272 1.96117 10.8244 1.49805 12.0029 1.49805C13.1814 1.49805 14.3126 1.96117 15.1528 2.7876C15.1641 2.79696 15.1745 2.80676 15.1846 2.81738C15.1945 2.82712 15.2042 2.83773 15.2129 2.84863C15.9189 3.56577 16.3631 4.49932 16.4746 5.49951H19.0029C19.666 5.49951 20.3017 5.7626 20.7705 6.23145C21.2393 6.70029 21.5029 7.33647 21.5029 7.99951V19.9995C21.5029 20.6626 21.2393 21.2982 20.7705 21.7671C20.3017 22.2359 19.666 22.4995 19.0029 22.4995H5.00195ZM3.50195 7.99951V19.9995C3.50195 20.3973 3.65961 20.7788 3.94092 21.0601C4.22222 21.3414 4.60413 21.4995 5.00195 21.4995H19.002C19.3998 21.4995 19.7812 21.3414 20.0625 21.0601C20.3438 20.7788 20.502 20.3973 20.502 19.9995V7.99951C20.502 7.60169 20.3438 7.22027 20.0625 6.93896C19.7812 6.65766 19.3998 6.49951 19.002 6.49951H16.4736C16.3514 7.60021 15.8276 8.61686 15.0024 9.35547C14.1773 10.0941 13.1089 10.5024 12.0015 10.5024C10.894 10.5024 9.82519 10.0941 9 9.35547C8.17481 8.61686 7.65106 7.60021 7.52881 6.49951H5.00293C4.6051 6.49951 4.2232 6.65766 3.94189 6.93896C3.66059 7.22027 3.50293 7.60169 3.50293 7.99951H3.50195ZM12.002 9.49951C12.6519 9.49951 13.2889 9.31828 13.8418 8.97656C14.3947 8.63484 14.8416 8.14582 15.1323 7.56445C15.423 6.98308 15.5462 6.33242 15.4878 5.68506C15.4294 5.03769 15.1918 4.41941 14.8018 3.89941L14.4736 4.22754C14.3786 4.31485 14.2535 4.36214 14.1245 4.35938C13.9955 4.35661 13.8729 4.3037 13.7817 4.2124C13.6906 4.1211 13.6378 3.99814 13.6353 3.86914C13.6327 3.74014 13.6801 3.61538 13.7676 3.52051L14.0938 3.19336C13.6247 2.84149 13.0742 2.61367 12.4937 2.53125V2.99463C12.4937 3.12724 12.4409 3.25438 12.3472 3.34814C12.2534 3.44191 12.1263 3.49463 11.9937 3.49463C11.861 3.49463 11.7339 3.44191 11.6401 3.34814C11.5464 3.25438 11.4937 3.12724 11.4937 2.99463V2.53125C10.9149 2.61461 10.3666 2.84237 9.89893 3.19336L10.2256 3.52051C10.3193 3.61427 10.3721 3.74144 10.3721 3.87402C10.3721 4.00661 10.3193 4.13378 10.2256 4.22754C10.1318 4.32127 10.0047 4.37402 9.87207 4.37402C9.73949 4.37402 9.61232 4.32127 9.51855 4.22754L9.19092 3.89941C8.74382 4.49307 8.49832 5.21437 8.49072 5.95752C8.49072 5.97052 8.49072 5.98261 8.49072 5.99561C8.49072 6.00861 8.49072 6.0202 8.49072 6.0332C8.50126 6.95662 8.8757 7.83883 9.53271 8.48779C10.1897 9.13675 11.076 9.50036 11.9995 9.49951H12.002ZM12.0869 18.4595C12.029 18.3401 12.0206 18.2025 12.064 18.0771C12.1074 17.9518 12.199 17.849 12.3184 17.791C12.4377 17.7331 12.5748 17.7247 12.7002 17.7681C12.8256 17.8115 12.9289 17.9031 12.9868 18.0225C13.0855 18.2263 13.2504 18.3904 13.4546 18.4883C13.6588 18.5861 13.8902 18.6118 14.1108 18.561C14.3315 18.5103 14.5285 18.3862 14.6694 18.209C14.8104 18.0317 14.887 17.8119 14.8867 17.5854V17.3164C14.5808 17.4932 14.2337 17.586 13.8804 17.585C13.5271 17.584 13.1804 17.4891 12.8755 17.3105C12.5706 17.132 12.3183 16.876 12.1445 16.5684C11.9708 16.2607 11.8817 15.9124 11.8862 15.5591C11.8908 15.2058 11.9888 14.8602 12.1704 14.5571C12.352 14.254 12.6106 14.0042 12.9199 13.8335C13.2293 13.6628 13.5784 13.5774 13.9316 13.5854C14.2849 13.5935 14.6294 13.6948 14.9307 13.8794C14.9773 13.7744 15.0587 13.6888 15.1611 13.6367C15.2635 13.5846 15.3809 13.5691 15.4932 13.5933C15.6055 13.6174 15.7059 13.6799 15.7778 13.7695C15.8497 13.8591 15.8884 13.9706 15.8877 14.0854V17.5854C15.8882 18.0383 15.735 18.478 15.4531 18.8325C15.1712 19.187 14.7773 19.4351 14.3359 19.5366C13.8946 19.6381 13.4319 19.5868 13.0234 19.3911C12.615 19.1954 12.2853 18.8671 12.0879 18.4595H12.0869ZM12.8867 15.5845C12.8867 15.7823 12.9453 15.9757 13.0552 16.1401C13.1651 16.3046 13.3212 16.4326 13.5039 16.5083C13.6866 16.584 13.8881 16.604 14.082 16.5654C14.276 16.5268 14.4539 16.4314 14.5938 16.2915C14.7336 16.1517 14.8291 15.9733 14.8677 15.7793C14.9063 15.5853 14.8862 15.3844 14.8105 15.2017C14.7349 15.0189 14.6068 14.8628 14.4424 14.7529C14.2779 14.643 14.0845 14.5845 13.8867 14.5845C13.7546 14.5837 13.6237 14.6091 13.5015 14.6592C13.3792 14.7093 13.2683 14.7832 13.1748 14.8765C13.0813 14.9697 13.007 15.0806 12.9565 15.2026C12.9061 15.3247 12.8805 15.4553 12.8809 15.5874L12.8867 15.5845ZM10.1445 17.2622L9.12549 16.2275V16.9126C9.12549 17.0452 9.07326 17.1723 8.97949 17.2661C8.88572 17.3599 8.7581 17.4126 8.62549 17.4126C8.49288 17.4126 8.36574 17.3599 8.27197 17.2661C8.1782 17.1723 8.12549 17.0452 8.12549 16.9126V12.9126C8.12549 12.78 8.1782 12.6529 8.27197 12.5591C8.36574 12.4653 8.49288 12.4126 8.62549 12.4126C8.7581 12.4126 8.88572 12.4653 8.97949 12.5591C9.07326 12.6529 9.12549 12.78 9.12549 12.9126V14.7183L10.1538 13.7256C10.2493 13.6336 10.3772 13.583 10.5098 13.5854C10.6424 13.5879 10.7688 13.6428 10.8608 13.7383C10.9529 13.8338 11.0029 13.9621 11.0005 14.0947C10.9981 14.2273 10.9431 14.3533 10.8477 14.4453L9.78369 15.4727L10.8569 16.5615C10.9269 16.6317 10.9741 16.7211 10.9932 16.8184C11.0122 16.9156 11.0021 17.016 10.9639 17.1074C10.9256 17.1988 10.861 17.2769 10.7783 17.3315C10.6957 17.3862 10.5986 17.4151 10.4995 17.4146C10.4324 17.4152 10.3662 17.4021 10.3042 17.3765C10.2422 17.3509 10.1858 17.3134 10.1387 17.2656L10.1445 17.2622ZM11.6538 6.35156C11.6072 6.30512 11.5701 6.24971 11.5449 6.18896C11.5197 6.12822 11.5068 6.06333 11.5068 5.99756C11.5068 5.93179 11.5197 5.86641 11.5449 5.80566C11.5701 5.74492 11.6072 5.69 11.6538 5.64355L12.6538 4.64355C12.7476 4.54967 12.8746 4.49668 13.0073 4.49658C13.14 4.49649 13.2674 4.54931 13.3613 4.64307C13.4552 4.73682 13.5077 4.8639 13.5078 4.99658C13.5079 5.12926 13.4556 5.2567 13.3618 5.35059L12.3618 6.35059C12.3153 6.39729 12.2597 6.43424 12.1987 6.45947C12.1378 6.4847 12.0728 6.49768 12.0068 6.49756C11.9405 6.49873 11.8746 6.48646 11.813 6.46191C11.7514 6.43736 11.6953 6.40095 11.6479 6.35449L11.6538 6.35156Z" fill="#56596A"/>
</svg>
