<svg width="24" height="24" viewBox="0 0 24 24" fill="none" xmlns="http://www.w3.org/2000/svg">
<path d="M18.9136 22.5H18.6489C17.9852 22.4973 17.3485 22.2356 16.875 21.7705C16.4015 21.3054 16.1284 20.6734 16.1138 20.0098V14.6997C16.1213 14.3006 16.2846 13.9204 16.5688 13.6401C16.8531 13.3599 17.2356 13.2017 17.6348 13.1997H17.8467C18.2435 13.202 18.6236 13.3592 18.9062 13.6377C19.1889 13.9162 19.3518 14.2942 19.3599 14.6909V19.0229C19.3599 19.1556 19.3071 19.2827 19.2134 19.3765C19.1196 19.4702 18.9925 19.5229 18.8599 19.5229C18.7273 19.5229 18.6001 19.4702 18.5063 19.3765C18.4126 19.2827 18.3599 19.1556 18.3599 19.0229V14.6997C18.3519 14.5643 18.2926 14.4372 18.1938 14.3442C18.0951 14.2513 17.9642 14.1995 17.8286 14.1997H17.6436C17.5055 14.1978 17.3727 14.2508 17.2734 14.3467C17.1742 14.4426 17.1167 14.5739 17.1138 14.7119V20.002C17.1183 20.2037 17.1626 20.4028 17.2441 20.5874C17.3256 20.772 17.4429 20.9388 17.5889 21.0781C17.7349 21.2174 17.9065 21.3262 18.0947 21.3989C18.283 21.4717 18.4838 21.5069 18.6855 21.502H18.9219C19.3282 21.4996 19.7182 21.3416 20.0117 21.0605C20.3052 20.7795 20.4796 20.3966 20.4995 19.9907V16.0581C20.4995 15.9255 20.5522 15.7984 20.646 15.7046C20.7398 15.6108 20.8669 15.5581 20.9995 15.5581C21.1321 15.5581 21.2597 15.6108 21.3535 15.7046C21.4473 15.7984 21.4995 15.9255 21.4995 16.0581V20.002C21.4862 20.6681 21.2128 21.3023 20.7378 21.7695C20.2628 22.2367 19.6238 22.4997 18.9575 22.502L18.9136 22.5ZM5.00195 22.5C4.33891 22.5 3.70273 22.2364 3.23389 21.7676C2.76505 21.2987 2.50195 20.663 2.50195 20V4C2.50195 3.33696 2.76505 2.70077 3.23389 2.23193C3.70273 1.76309 4.33891 1.5 5.00195 1.5H15.5737C16.2368 1.5 16.8725 1.76309 17.3413 2.23193C17.8101 2.70077 18.0737 3.33696 18.0737 4V10.292C18.0737 10.4246 18.021 10.5517 17.9272 10.6455C17.8335 10.7393 17.7063 10.792 17.5737 10.792C17.4411 10.792 17.314 10.7393 17.2202 10.6455C17.1264 10.5517 17.0737 10.4246 17.0737 10.292V4C17.0737 3.60218 16.9156 3.22076 16.6343 2.93945C16.353 2.65815 15.9716 2.5 15.5737 2.5H5.00195C4.60413 2.5 4.22222 2.65815 3.94092 2.93945C3.65961 3.22076 3.50195 3.60218 3.50195 4V20C3.50195 20.3978 3.65961 20.7792 3.94092 21.0605C4.22222 21.3419 4.60413 21.5 5.00195 21.5H13.9268C14.0594 21.5 14.1865 21.5527 14.2803 21.6465C14.374 21.7403 14.4268 21.8674 14.4268 22C14.4268 22.1326 14.374 22.2597 14.2803 22.3535C14.1865 22.4473 14.0594 22.5 13.9268 22.5H5.00195ZM6.30176 15.2168C6.16915 15.2168 6.04201 15.1641 5.94824 15.0703C5.85447 14.9765 5.80176 14.8494 5.80176 14.7168C5.80176 14.5842 5.85447 14.457 5.94824 14.3633C6.04201 14.2695 6.16915 14.2168 6.30176 14.2168H10.3018C10.4344 14.2168 10.5615 14.2695 10.6553 14.3633C10.749 14.457 10.8018 14.5842 10.8018 14.7168C10.8018 14.8494 10.749 14.9765 10.6553 15.0703C10.5615 15.1641 10.4344 15.2168 10.3018 15.2168H6.30176ZM6.30176 12.2168C6.16915 12.2168 6.04201 12.1641 5.94824 12.0703C5.85447 11.9765 5.80176 11.8494 5.80176 11.7168C5.80176 11.5842 5.85447 11.457 5.94824 11.3633C6.04201 11.2695 6.16915 11.2168 6.30176 11.2168H14.3018C14.4344 11.2168 14.5615 11.2695 14.6553 11.3633C14.749 11.457 14.8018 11.5842 14.8018 11.7168C14.8018 11.8494 14.749 11.9765 14.6553 12.0703C14.5615 12.1641 14.4344 12.2168 14.3018 12.2168H6.30176ZM6.30176 9.2168C6.16915 9.2168 6.04201 9.16408 5.94824 9.07031C5.85447 8.97654 5.80176 8.84941 5.80176 8.7168C5.80176 8.58419 5.85447 8.45705 5.94824 8.36328C6.04201 8.26951 6.16915 8.2168 6.30176 8.2168H14.3018C14.4344 8.2168 14.5615 8.26951 14.6553 8.36328C14.749 8.45705 14.8018 8.58419 14.8018 8.7168C14.8018 8.84941 14.749 8.97654 14.6553 9.07031C14.5615 9.16408 14.4344 9.2168 14.3018 9.2168H6.30176ZM6.30176 6.2168C6.16915 6.2168 6.04201 6.16408 5.94824 6.07031C5.85447 5.97654 5.80176 5.84941 5.80176 5.7168C5.80176 5.58419 5.85447 5.45705 5.94824 5.36328C6.04201 5.26951 6.16915 5.2168 6.30176 5.2168H14.3018C14.4344 5.2168 14.5615 5.26951 14.6553 5.36328C14.749 5.45705 14.8018 5.58419 14.8018 5.7168C14.8018 5.84941 14.749 5.97654 14.6553 6.07031C14.5615 6.16408 14.4344 6.2168 14.3018 6.2168H6.30176Z" fill="#56596A"/>
</svg>
