<svg width="24" height="24" viewBox="0 0 24 24" fill="none" xmlns="http://www.w3.org/2000/svg">
<path d="M11.6473 22.3545L1.66924 12.3765C1.57268 12.2912 1.51257 12.1718 1.50176 12.0435C1.49096 11.9151 1.53019 11.7877 1.61114 11.6875L1.63994 11.6543L11.6399 1.6543C11.7337 1.56041 11.8608 1.50791 11.9935 1.50781C12.1261 1.50772 12.2536 1.56005 12.3475 1.65381C12.4414 1.74756 12.4943 1.87464 12.4944 2.00732C12.4945 2.14001 12.4417 2.26744 12.348 2.36133L3.20196 11.5083H21.9939C22.1266 11.5083 22.2537 11.561 22.3475 11.6548C22.4412 11.7486 22.4939 11.8757 22.4939 12.0083C22.4939 12.1409 22.4412 12.268 22.3475 12.3618C22.2537 12.4556 22.1266 12.5083 21.9939 12.5083H3.20098L12.348 21.6543C12.3944 21.7008 12.4312 21.7562 12.4564 21.8169C12.4815 21.8776 12.4944 21.9426 12.4944 22.0083C12.4944 22.074 12.4815 22.1395 12.4564 22.2002C12.4312 22.2609 12.3944 22.3158 12.348 22.3623C12.3015 22.4088 12.2466 22.4455 12.1858 22.4707C12.1251 22.4959 12.0597 22.5093 11.9939 22.5093C11.9282 22.5093 11.8633 22.4959 11.8025 22.4707C11.7418 22.4455 11.6864 22.4088 11.6399 22.3623L11.6473 22.3545Z" fill="#56596A"/>
</svg>
