<svg width="24" height="25" viewBox="0 0 24 25" fill="none" xmlns="http://www.w3.org/2000/svg">
<path d="M22.0281 11.055H4.37909L11.4711 3.75505C11.6558 3.56462 11.7573 3.30861 11.7533 3.04334C11.7493 2.77807 11.64 2.52527 11.4496 2.34055C11.2592 2.15582 11.0032 2.05431 10.7379 2.05834C10.4726 2.06238 10.2198 2.17162 10.0351 2.36205L1.33209 11.327C1.22776 11.4186 1.14416 11.5313 1.08689 11.6577C1.02962 11.7841 1 11.9213 1 12.06C1 12.1988 1.02962 12.336 1.08689 12.4624C1.14416 12.5888 1.22776 12.7015 1.33209 12.793L10.0321 21.756C10.1236 21.8503 10.2327 21.9257 10.3533 21.9778C10.4739 22.0299 10.6035 22.0578 10.7349 22.0597C10.8662 22.0617 10.9967 22.0379 11.1188 21.9894C11.2409 21.941 11.3523 21.869 11.4466 21.7775C11.5409 21.6861 11.6162 21.5769 11.6683 21.4564C11.7204 21.3358 11.7483 21.2061 11.7503 21.0747C11.7523 20.9434 11.7284 20.8129 11.68 20.6908C11.6316 20.5687 11.5596 20.4573 11.4681 20.363L4.37609 13.063H22.0281C22.2933 13.063 22.5477 12.9577 22.7352 12.7702C22.9227 12.5826 23.0281 12.3283 23.0281 12.063C23.0281 11.7978 22.9227 11.5435 22.7352 11.3559C22.5477 11.1684 22.2933 11.063 22.0281 11.063V11.055Z" fill="#5439AC"/>
</svg>
