<svg width="24" height="24" viewBox="0 0 24 24" fill="none" xmlns="http://www.w3.org/2000/svg">
<path d="M12.9688 19.665C12.9705 19.304 13.079 18.9512 13.2808 18.6519C13.4826 18.3525 13.7685 18.12 14.1025 17.9829C14.4365 17.8458 14.8038 17.8105 15.1577 17.8818C15.5116 17.9531 15.8364 18.1276 16.0913 18.3833C16.3462 18.639 16.5197 18.9647 16.5899 19.3188C16.66 19.673 16.6235 20.04 16.4854 20.3735C16.3472 20.7071 16.1135 20.992 15.8135 21.1929C15.5135 21.3937 15.1608 21.5014 14.7998 21.502C14.3137 21.5004 13.8481 21.3062 13.5049 20.9619C13.1617 20.6176 12.9688 20.1512 12.9688 19.665V19.665ZM13.9688 19.665C13.9711 19.8282 14.0214 19.987 14.1138 20.1216C14.2061 20.2561 14.3364 20.3605 14.4878 20.4214C14.6392 20.4822 14.8055 20.4966 14.9653 20.4634C15.1251 20.4302 15.2711 20.3505 15.3857 20.2344C15.5004 20.1182 15.5783 19.9708 15.6094 19.8105C15.6405 19.6503 15.6234 19.4846 15.5606 19.334C15.4977 19.1834 15.3921 19.0549 15.2564 18.9644C15.1206 18.8738 14.9611 18.8249 14.7979 18.8247C14.6883 18.8255 14.5799 18.848 14.479 18.8906C14.3781 18.9333 14.2869 18.9952 14.21 19.0732C14.1331 19.1512 14.072 19.2437 14.0308 19.3452C13.9896 19.4467 13.9689 19.5555 13.9697 19.665H13.9688ZM3.8838 19.665C3.88558 19.304 3.99396 18.9512 4.19581 18.6519C4.39766 18.3525 4.68401 18.1199 5.01807 17.9829C5.35213 17.8459 5.7193 17.8105 6.07325 17.8818C6.4272 17.9532 6.75201 18.128 7.00684 18.3838C7.26167 18.6396 7.43486 18.9651 7.50489 19.3193C7.57492 19.6736 7.53871 20.0405 7.4004 20.374C7.26209 20.7076 7.02819 20.9927 6.72804 21.1934C6.42788 21.3941 6.07495 21.5016 5.71388 21.502C5.22815 21.4998 4.76304 21.3052 4.42042 20.9609C4.0778 20.6166 3.88548 20.1508 3.88575 19.665H3.8838ZM4.8838 19.665C4.88616 19.8282 4.93645 19.987 5.02882 20.1216C5.12118 20.2561 5.25141 20.3605 5.40284 20.4214C5.55427 20.4822 5.7201 20.4966 5.87989 20.4634C6.03968 20.4302 6.18615 20.3505 6.30079 20.2344C6.41543 20.1182 6.49332 19.9708 6.52442 19.8105C6.55552 19.6503 6.53845 19.4846 6.47559 19.334C6.41274 19.1834 6.30716 19.0549 6.17139 18.9644C6.03563 18.8738 5.8761 18.8249 5.7129 18.8247C5.49275 18.8279 5.28241 18.9183 5.12843 19.0757C4.97444 19.233 4.88903 19.4449 4.89063 19.665H4.8838ZM4.3838 16.438C4.25119 16.438 4.12405 16.3853 4.03028 16.2915C3.93651 16.1977 3.8838 16.0706 3.8838 15.938C3.8838 15.8054 3.93651 15.6782 4.03028 15.5845C4.12405 15.4907 4.25119 15.438 4.3838 15.438H16.3316C16.4642 15.438 16.5913 15.4907 16.6851 15.5845C16.7788 15.6782 16.8316 15.8054 16.8316 15.938C16.8316 16.0706 16.7788 16.1977 16.6851 16.2915C16.5913 16.3853 16.4642 16.438 16.3316 16.438H4.3838ZM15.2437 14.2017H4.49757C3.95624 14.2026 3.43213 14.0131 3.0171 13.6655C2.60207 13.318 2.32267 12.8348 2.22852 12.3018L1.53565 8.44873C1.4238 7.79168 1.57755 7.11705 1.9629 6.57324C2.34825 6.02944 2.93385 5.66106 3.59083 5.54883C3.74076 5.52606 3.8923 5.5142 4.04395 5.51367H14.5967C14.7293 5.51367 14.8564 5.56639 14.9502 5.66016C15.044 5.75392 15.0967 5.88106 15.0967 6.01367C15.0967 6.14628 15.044 6.27391 14.9502 6.36768C14.8564 6.46144 14.7293 6.51367 14.5967 6.51367H4.03468C3.9423 6.5142 3.85019 6.52121 3.7588 6.53467C3.36347 6.60171 3.01065 6.82308 2.77833 7.1499C2.54601 7.47672 2.45294 7.88242 2.51954 8.27783L3.2129 12.125C3.26589 12.428 3.42446 12.7024 3.66065 12.8994C3.89684 13.0964 4.19538 13.2029 4.50294 13.2007H15.2559C15.5468 13.2013 15.8296 13.1061 16.0606 12.9292C16.2915 12.7523 16.4575 12.5042 16.5327 12.2231L18.5786 4.22314C18.6932 3.73344 18.9697 3.29645 19.3633 2.9834C19.7569 2.67035 20.2446 2.49945 20.7476 2.49805H21.9976C22.1302 2.49805 22.2573 2.55076 22.3511 2.64453C22.4449 2.7383 22.4976 2.86544 22.4976 2.99805C22.4976 3.13066 22.4449 3.25779 22.3511 3.35156C22.2573 3.44533 22.1302 3.49805 21.9976 3.49805H20.7495C20.4706 3.49908 20.2003 3.59445 19.9824 3.76855C19.7646 3.94266 19.6123 4.18524 19.5498 4.45703L17.4995 12.4707C17.3681 12.9656 17.0772 13.4035 16.6714 13.7158C16.2656 14.0281 15.768 14.1975 15.2559 14.1978L15.2437 14.2017Z" fill="#56596A"/>
</svg>
