<svg width="24" height="24" viewBox="0 0 24 24" fill="none" xmlns="http://www.w3.org/2000/svg">
<path d="M9.44521 20.0308V19.4868H4.29726C3.9305 19.4775 3.57515 19.3564 3.27919 19.1396C2.98322 18.9229 2.76053 18.6208 2.64101 18.2739C2.48632 17.8728 2.45479 17.4345 2.5497 17.0151C2.6446 16.5958 2.86187 16.2144 3.17421 15.9189C3.93699 15.2856 4.59019 14.5309 5.10731 13.6851C5.39105 13.1416 5.53769 12.5369 5.53505 11.9238V8.57568C5.53505 4.67568 8.39312 1.50195 11.9071 1.50195C15.4211 1.50195 18.2772 4.67268 18.2772 8.57568V11.938C18.278 12.5418 18.4229 13.1365 18.7001 13.6729C19.3201 14.5138 20.0262 15.2877 20.807 15.9819C21.1135 16.2479 21.3315 16.601 21.432 16.9941C21.5325 17.3873 21.5108 17.8017 21.3695 18.1821C21.2282 18.5625 20.9743 18.8908 20.6415 19.123C20.3087 19.3553 19.913 19.4805 19.5072 19.4819H14.3729V20.0259C14.3795 20.3536 14.3209 20.6792 14.2001 20.9839C14.0793 21.2886 13.8987 21.5662 13.6693 21.8003C13.4399 22.0344 13.1663 22.2202 12.8642 22.3472C12.562 22.4741 12.2373 22.5396 11.9096 22.5396C11.5818 22.5396 11.2576 22.4741 10.9555 22.3472C10.6533 22.2202 10.3792 22.0344 10.1498 21.8003C9.92038 21.5662 9.73987 21.2886 9.61903 20.9839C9.4982 20.6792 9.43958 20.3536 9.44618 20.0259L9.44521 20.0308ZM10.4452 20.0308C10.4452 20.4192 10.5993 20.7918 10.8739 21.0664C11.1486 21.3411 11.5212 21.4956 11.9096 21.4956C12.298 21.4956 12.6706 21.3411 12.9452 21.0664C13.2199 20.7918 13.3744 20.4192 13.3744 20.0308V19.5H10.4452V20.0308ZM6.53505 8.57568V11.9219C6.53667 12.709 6.34462 13.4842 5.97597 14.1797C5.40491 15.1238 4.68074 15.9663 3.83241 16.6719C3.67273 16.8327 3.56326 17.0367 3.51796 17.2588C3.47266 17.4809 3.49312 17.7113 3.57704 17.9219C3.62656 18.0789 3.72262 18.2171 3.85243 18.3184C3.98225 18.4196 4.13976 18.479 4.30409 18.4888H19.4882C19.7502 18.4844 20.0004 18.3799 20.1879 18.1968C20.3753 18.0136 20.4856 17.7658 20.496 17.5039C20.4982 17.3583 20.4683 17.2142 20.4081 17.0815C20.3479 16.9489 20.2594 16.831 20.1483 16.7368C19.3056 15.9879 18.5441 15.1526 17.8764 14.2441C17.8624 14.2241 17.8381 14.19 17.8251 14.168C17.4632 13.4808 17.2749 12.7156 17.2763 11.939V8.57666C17.2763 5.22566 14.8662 2.50195 11.9052 2.50195C8.94417 2.50195 6.53505 5.22468 6.53505 8.57568Z" fill="#56596A"/>
</svg>
