<svg width="24" height="25" viewBox="0 0 24 25" fill="none" xmlns="http://www.w3.org/2000/svg">
<path d="M12 24.0426C18.6274 24.0426 24 18.67 24 12.0426C24 5.41519 18.6274 0.0426025 12 0.0426025C5.37258 0.0426025 0 5.41519 0 12.0426C0 18.67 5.37258 24.0426 12 24.0426Z" fill="#57C5D0"/>
<path d="M10.3846 17.0432C10.2459 17.0433 10.1086 17.0146 9.98155 16.9588C9.8545 16.903 9.74045 16.8214 9.64665 16.7192L6.26265 13.0282C6.17393 12.9313 6.10516 12.8179 6.06026 12.6945C6.01536 12.5711 5.9952 12.44 6.00096 12.3088C6.00672 12.1776 6.03826 12.0488 6.0938 11.9298C6.14933 11.8108 6.22777 11.7039 6.32463 11.6152C6.42147 11.5264 6.53485 11.4577 6.65828 11.4128C6.78171 11.3679 6.91278 11.3477 7.04399 11.3535C7.1752 11.3592 7.304 11.3908 7.42302 11.4463C7.54204 11.5019 7.64892 11.5803 7.73762 11.6772L10.3456 14.5212L16.2296 7.40515C16.3133 7.30397 16.4162 7.22026 16.5322 7.15881C16.6483 7.09737 16.7753 7.05938 16.9061 7.04703C17.0368 7.03468 17.1687 7.04821 17.2943 7.08683C17.4198 7.12546 17.5365 7.18843 17.6376 7.27216C17.739 7.35588 17.8228 7.45876 17.8843 7.57492C17.9459 7.69107 17.9839 7.81822 17.9963 7.94908C18.0086 8.07995 17.995 8.21196 17.9563 8.33758C17.9176 8.4632 17.8545 8.57995 17.7706 8.68116L11.1546 16.6812C11.0635 16.7912 10.9499 16.8805 10.8214 16.9429C10.6929 17.0054 10.5525 17.0395 10.4097 17.0432H10.3846Z" fill="white"/>
</svg>
