<svg width="24" height="24" viewBox="0 0 24 24" fill="none" xmlns="http://www.w3.org/2000/svg">
<path d="M16.8608 22.5H8.3178C6.65964 22.5922 5.01081 22.1939 3.57757 21.355C2.88273 20.858 2.32677 20.1913 1.96282 19.4185C1.59887 18.6456 1.43897 17.7922 1.49847 16.9399V14.415C1.49847 14.0172 1.65662 13.6353 1.93792 13.354C2.21923 13.0727 2.60064 12.915 2.99847 12.915H7.86566V3C7.86566 2.60218 8.0238 2.22076 8.30511 1.93945C8.58641 1.65815 8.96783 1.5 9.36566 1.5H20.9887C21.3865 1.5 21.7679 1.65815 22.0492 1.93945C22.3306 2.22076 22.4887 2.60218 22.4887 3V16.6997C22.4977 16.8697 22.4977 17.0619 22.4887 17.2549C22.4911 17.9413 22.3581 18.6214 22.0971 19.2563C21.8361 19.8913 21.4522 20.4683 20.9677 20.9546C20.4832 21.4409 19.9078 21.8269 19.2739 22.0903C18.64 22.3538 17.9603 22.4895 17.2739 22.4897H17.2626C17.1936 22.4897 17.1249 22.4897 17.0629 22.4897C17.0009 22.4897 16.9278 22.5 16.8608 22.5ZM8.86663 3.00586V12.915H11.5258C11.9236 12.915 12.3051 13.0727 12.5864 13.354C12.8677 13.6353 13.0258 14.0172 13.0258 14.415V16.9399C12.9512 17.5743 13.0063 18.2171 13.1874 18.8296C13.3686 19.442 13.6719 20.0113 14.0795 20.5029C14.8451 21.1867 15.8469 21.5454 16.8725 21.5029H17.2729C18.3886 21.5037 19.4589 21.0622 20.2494 20.2749C21.04 19.4876 21.486 18.4184 21.4897 17.3027C21.4987 17.0617 21.4987 16.9027 21.4897 16.7407V3C21.4897 2.86739 21.437 2.74025 21.3432 2.64648C21.2494 2.55272 21.1223 2.5 20.9897 2.5H9.36273C9.23081 2.50106 9.10456 2.5543 9.01165 2.64795C8.91875 2.7416 8.86663 2.86808 8.86663 3V3.00586ZM2.49749 14.415V16.938C2.43907 17.627 2.55992 18.3195 2.84759 18.9482C3.13526 19.577 3.58008 20.1206 4.13958 20.5269C5.38681 21.2486 6.81944 21.5866 8.25775 21.498H13.6977C13.5837 21.4068 13.4744 21.3096 13.3705 21.207C12.8645 20.6238 12.4841 19.9428 12.2529 19.2061C12.0216 18.4693 11.9448 17.6926 12.0268 16.9248V14.4141C12.0268 14.2815 11.9741 14.1543 11.8803 14.0605C11.7865 13.9668 11.6594 13.9141 11.5268 13.9141H2.99993C2.8675 13.9138 2.74034 13.9657 2.64642 14.0591C2.55249 14.1524 2.499 14.2797 2.49847 14.4121L2.49749 14.415ZM4.49749 16.6948C4.36488 16.6948 4.23774 16.6421 4.14398 16.5483C4.05021 16.4546 3.99749 16.3274 3.99749 16.1948C3.99749 16.0622 4.05021 15.9351 4.14398 15.8413C4.23774 15.7475 4.36488 15.6948 4.49749 15.6948H9.49749C9.6301 15.6948 9.75773 15.7475 9.8515 15.8413C9.94526 15.9351 9.99749 16.0622 9.99749 16.1948C9.99749 16.3274 9.94526 16.4546 9.8515 16.5483C9.75773 16.6421 9.6301 16.6948 9.49749 16.6948H4.49749ZM13.9975 11.5947C13.8649 11.5947 13.7377 11.542 13.644 11.4482C13.5502 11.3545 13.4975 11.2273 13.4975 11.0947C13.4975 10.9621 13.5502 10.835 13.644 10.7412C13.7377 10.6474 13.8649 10.5947 13.9975 10.5947H18.9975C19.1301 10.5947 19.2577 10.6474 19.3515 10.7412C19.4453 10.835 19.4975 10.9621 19.4975 11.0947C19.4975 11.2273 19.4453 11.3545 19.3515 11.4482C19.2577 11.542 19.1301 11.5947 18.9975 11.5947H13.9975ZM11.9975 8.59473C11.8649 8.59473 11.7377 8.54201 11.644 8.44824C11.5502 8.35447 11.4975 8.22733 11.4975 8.09473C11.4975 7.96212 11.5502 7.83498 11.644 7.74121C11.7377 7.64744 11.8649 7.59473 11.9975 7.59473H18.9975C19.1301 7.59473 19.2577 7.64744 19.3515 7.74121C19.4453 7.83498 19.4975 7.96212 19.4975 8.09473C19.4975 8.22733 19.4453 8.35447 19.3515 8.44824C19.2577 8.54201 19.1301 8.59473 18.9975 8.59473H11.9975ZM11.9975 5.59473C11.8649 5.59473 11.7377 5.54201 11.644 5.44824C11.5502 5.35447 11.4975 5.22733 11.4975 5.09473C11.4975 4.96212 11.5502 4.83498 11.644 4.74121C11.7377 4.64744 11.8649 4.59473 11.9975 4.59473H18.9975C19.1301 4.59473 19.2577 4.64744 19.3515 4.74121C19.4453 4.83498 19.4975 4.96212 19.4975 5.09473C19.4975 5.22733 19.4453 5.35447 19.3515 5.44824C19.2577 5.54201 19.1301 5.59473 18.9975 5.59473H11.9975Z" fill="#56596A"/>
</svg>
