<svg width="24" height="24" viewBox="0 0 24 24" fill="none" xmlns="http://www.w3.org/2000/svg">
<path d="M6.00195 22.5C5.33891 22.5 4.70273 22.2364 4.23389 21.7676C3.76505 21.2987 3.50195 20.663 3.50195 20V4C3.50195 3.33696 3.76505 2.70077 4.23389 2.23193C4.70273 1.76309 5.33891 1.5 6.00195 1.5H18.002C18.665 1.5 19.3007 1.76309 19.7695 2.23193C20.2384 2.70077 20.502 3.33696 20.502 4V20C20.502 20.663 20.2384 21.2987 19.7695 21.7676C19.3007 22.2364 18.665 22.5 18.002 22.5H6.00195ZM4.50195 4V20C4.50195 20.3978 4.65961 20.7792 4.94092 21.0605C5.22222 21.3419 5.60413 21.5 6.00195 21.5H18.002C18.3998 21.5 18.7812 21.3419 19.0625 21.0605C19.3438 20.7792 19.502 20.3978 19.502 20V4C19.502 3.60218 19.3438 3.22076 19.0625 2.93945C18.7812 2.65815 18.3998 2.5 18.002 2.5H6.00195C5.8048 2.49974 5.60947 2.53802 5.42725 2.61328C5.24503 2.68855 5.07944 2.79916 4.93994 2.93848C4.80044 3.07779 4.68976 3.24317 4.61426 3.42529C4.53875 3.60741 4.49951 3.80285 4.49951 4H4.50195ZM9.50195 20C9.36934 20 9.24172 19.9473 9.14795 19.8535C9.05418 19.7597 9.00195 19.6326 9.00195 19.5C9.00195 19.3674 9.05418 19.2403 9.14795 19.1465C9.24172 19.0527 9.36934 19 9.50195 19H14.502C14.6346 19 14.7617 19.0527 14.8555 19.1465C14.9492 19.2403 15.002 19.3674 15.002 19.5C15.002 19.6326 14.9492 19.7597 14.8555 19.8535C14.7617 19.9473 14.6346 20 14.502 20H9.50195ZM10.502 18C10.3693 18 10.2417 17.9473 10.1479 17.8535C10.0542 17.7597 10.002 17.6326 10.002 17.5C10.002 17.3674 10.0542 17.2403 10.1479 17.1465C10.2417 17.0527 10.3693 17 10.502 17H13.502C13.6346 17 13.7617 17.0527 13.8555 17.1465C13.9492 17.2403 14.002 17.3674 14.002 17.5C14.002 17.6326 13.9492 17.7597 13.8555 17.8535C13.7617 17.9473 13.6346 18 13.502 18H10.502ZM11.502 13V12.5347C11.0574 12.7283 10.5883 12.86 10.1079 12.9258C10.0851 12.9291 10.0617 12.9306 10.0386 12.9307C9.97291 12.9351 9.90707 12.9268 9.84473 12.9058C9.78238 12.8847 9.72483 12.8514 9.67529 12.8081C9.62575 12.7648 9.58534 12.7123 9.55615 12.6533C9.52696 12.5943 9.50977 12.53 9.50537 12.4644C9.50097 12.3987 9.50921 12.3329 9.53027 12.2705C9.55134 12.2082 9.58461 12.1506 9.62793 12.1011C9.67125 12.0515 9.72374 12.0111 9.78271 11.9819C9.84169 11.9527 9.90602 11.9351 9.97168 11.9307C10.3405 11.8796 10.7014 11.7811 11.0449 11.6377C10.2587 10.9472 9.73204 10.0089 9.55273 8.97803C9.50384 8.2879 9.65424 7.59794 9.98584 6.99072C10.0511 6.87744 10.1578 6.79462 10.2837 6.75928C10.4096 6.72393 10.5445 6.73899 10.6592 6.80176C10.7739 6.86452 10.8594 6.96966 10.8975 7.09473C10.9355 7.21979 10.9231 7.35469 10.8628 7.4707C10.6277 7.89621 10.5173 8.37935 10.5439 8.86475C10.6708 9.5577 11.0044 10.1961 11.501 10.6958V6.94385C11.501 6.81124 11.5532 6.6841 11.647 6.59033C11.7407 6.49656 11.8684 6.44385 12.001 6.44385C12.1336 6.44385 12.2607 6.49656 12.3545 6.59033C12.4483 6.6841 12.501 6.81124 12.501 6.94385V10.6929C13.0069 10.1772 13.3436 9.51994 13.4668 8.80811C13.4803 8.34231 13.3679 7.88149 13.1416 7.47412C13.1064 7.41648 13.0835 7.35202 13.0737 7.28516C13.064 7.2183 13.0676 7.15027 13.085 7.08496C13.1023 7.01965 13.1327 6.95852 13.1743 6.90527C13.2159 6.85203 13.268 6.8075 13.3271 6.7749C13.3863 6.7423 13.4513 6.72204 13.5186 6.71533C13.5858 6.70862 13.6538 6.71558 13.7183 6.73584C13.7827 6.7561 13.8423 6.78953 13.8936 6.8335C13.9449 6.87747 13.9867 6.9311 14.0166 6.9917C14.3427 7.58017 14.4952 8.24923 14.4565 8.9209C14.284 9.97186 13.7542 10.931 12.9565 11.6367C13.3003 11.7811 13.6615 11.8807 14.0308 11.9321C14.0964 11.9365 14.1607 11.9537 14.2197 11.9829C14.2787 12.0121 14.3312 12.0525 14.3745 12.1021C14.4178 12.1516 14.4511 12.2091 14.4722 12.2715C14.4932 12.3338 14.5015 12.3997 14.4971 12.4653C14.4927 12.531 14.4755 12.5953 14.4463 12.6543C14.4171 12.7133 14.3767 12.7658 14.3271 12.8091C14.2776 12.8524 14.2201 12.8857 14.1577 12.9067C14.0954 12.9278 14.0295 12.9365 13.9639 12.9321C13.9408 12.9321 13.9174 12.9301 13.8945 12.9268C13.412 12.8611 12.9409 12.7287 12.4946 12.5337V13.001C12.4946 13.1336 12.4419 13.2607 12.3481 13.3545C12.2544 13.4483 12.1272 13.501 11.9946 13.501C11.862 13.501 11.7349 13.4483 11.6411 13.3545C11.5473 13.2607 11.4946 13.1336 11.4946 13.001L11.502 13ZM14.6577 11.7817C14.6102 11.7364 14.5724 11.6822 14.5459 11.6221C14.5194 11.562 14.5049 11.4973 14.5034 11.4316C14.5019 11.366 14.5134 11.301 14.5371 11.2397C14.5609 11.1785 14.5962 11.1222 14.6416 11.0747C15.1438 10.5472 15.4459 9.86086 15.4956 9.13428C15.5453 8.40769 15.3393 7.68659 14.9136 7.0957C14.8752 7.04239 14.848 6.98239 14.833 6.91846C14.818 6.85452 14.8156 6.78796 14.8262 6.72314C14.8368 6.65833 14.8599 6.59636 14.8945 6.54053C14.9291 6.4847 14.9745 6.4363 15.0278 6.39795C15.0811 6.3596 15.1416 6.33192 15.2056 6.31689C15.2695 6.30187 15.3356 6.29996 15.4004 6.31055C15.4652 6.32113 15.5272 6.34432 15.583 6.37891C15.6388 6.41349 15.6872 6.4584 15.7256 6.51172C16.2872 7.29178 16.5587 8.24369 16.4932 9.20264C16.4276 10.1616 16.0292 11.0673 15.3667 11.7637C15.2745 11.859 15.1487 11.9146 15.0161 11.918C14.8835 11.9213 14.7547 11.8723 14.6577 11.7817V11.7817ZM8.64062 11.7637C7.98673 11.0748 7.58994 10.1819 7.51709 9.23486C7.44424 8.28784 7.69988 7.34476 8.24072 6.56396C8.31671 6.45523 8.43286 6.38107 8.56348 6.35791C8.6941 6.33475 8.82827 6.36445 8.93701 6.44043C9.04575 6.51641 9.11991 6.63256 9.14307 6.76318C9.16623 6.8938 9.13653 7.02798 9.06055 7.13672C8.65063 7.72772 8.45708 8.44202 8.51172 9.15918C8.56635 9.87634 8.86613 10.5526 9.36084 11.0747C9.45221 11.1708 9.50142 11.2995 9.49805 11.4321C9.49467 11.5647 9.43891 11.6904 9.34277 11.7817C9.24663 11.8731 9.11794 11.9228 8.98535 11.9194C8.85276 11.9161 8.72711 11.8598 8.63574 11.7637H8.64062ZM12.5239 6.08789C12.3389 6.08201 12.159 6.02626 12.0029 5.92676C11.8333 6.03312 11.6367 6.08969 11.4365 6.08984H11.3936C11.1108 6.07789 10.8445 5.95441 10.6528 5.74609C10.4612 5.53778 10.3599 5.26182 10.3716 4.979C10.3743 4.91334 10.3903 4.84867 10.418 4.78906C10.4456 4.72946 10.4848 4.67583 10.5332 4.63135C10.5816 4.58687 10.638 4.55236 10.6997 4.52979C10.7614 4.50721 10.8269 4.49724 10.8926 4.5C10.9582 4.50276 11.0229 4.51822 11.0825 4.5459C11.1421 4.57357 11.1958 4.61275 11.2402 4.66113C11.2847 4.70951 11.3192 4.76641 11.3418 4.82812C11.3644 4.88984 11.3743 4.95534 11.3716 5.021C11.3728 5.03822 11.3802 5.05432 11.3921 5.06689C11.4039 5.07947 11.4194 5.08759 11.4365 5.08984L11.5068 5.02002V5.00098C11.5045 4.87219 11.5518 4.74747 11.6392 4.65283C11.7265 4.55819 11.847 4.50064 11.9756 4.49268C12.0092 4.49397 12.0427 4.49819 12.0757 4.50488C12.1986 4.52216 12.3107 4.5848 12.3901 4.68018C12.4696 4.77555 12.511 4.89695 12.5059 5.021C12.5053 5.03886 12.5115 5.05612 12.5229 5.06982L12.6406 5.01904C12.6335 4.88737 12.6789 4.75818 12.7666 4.65967C12.8543 4.56115 12.9773 4.50092 13.1089 4.49268C13.2405 4.49131 13.3679 4.5395 13.4658 4.62744C13.5638 4.71538 13.6249 4.83677 13.6377 4.96777C13.6397 5.00408 13.6397 5.04035 13.6377 5.07666C13.6239 5.34932 13.5061 5.60649 13.3086 5.79492C13.111 5.98336 12.8487 6.08891 12.5757 6.08984L12.5239 6.08789Z" fill="#56596A"/>
</svg>
