<svg width="24" height="24" viewBox="0 0 24 24" fill="none" xmlns="http://www.w3.org/2000/svg">
<path d="M15.9992 9.5004C15.8667 9.5001 15.7397 9.44723 15.6462 9.35339L8.99923 2.7074L2.35317 9.35339C2.25887 9.44447 2.13258 9.49485 2.00148 9.49371C1.87039 9.49257 1.74501 9.43999 1.6523 9.34729C1.5596 9.25459 1.50702 9.12918 1.50588 8.99808C1.50474 8.86698 1.55512 8.74069 1.6462 8.64639L8.6462 1.64639C8.73996 1.55266 8.86713 1.5 8.99971 1.5C9.1323 1.5 9.2594 1.55266 9.35317 1.64639L16.3532 8.64639C16.4233 8.71632 16.4711 8.80548 16.4904 8.90259C16.5098 8.9997 16.4999 9.10036 16.462 9.19183C16.4241 9.28331 16.3598 9.36148 16.2774 9.41641C16.195 9.47134 16.0982 9.50057 15.9992 9.5004Z" fill="#56596A"/>
<path d="M15.4992 22.5004H2.49921C2.3666 22.5004 2.2394 22.4477 2.14563 22.3539C2.05186 22.2601 1.99921 22.133 1.99921 22.0004V8.50037C1.99921 8.36776 2.05186 8.24056 2.14563 8.14679C2.2394 8.05302 2.3666 8.00037 2.49921 8.00037C2.63181 8.00037 2.75895 8.05302 2.85272 8.14679C2.94649 8.24056 2.99921 8.36776 2.99921 8.50037V21.5004H14.9992V8.50037C14.9992 8.36776 15.0519 8.24056 15.1456 8.14679C15.2394 8.05302 15.3666 8.00037 15.4992 8.00037C15.6318 8.00037 15.759 8.05302 15.8527 8.14679C15.9465 8.24056 15.9992 8.36776 15.9992 8.50037V22.0004C15.9992 22.133 15.9465 22.2601 15.8527 22.3539C15.759 22.4477 15.6318 22.5004 15.4992 22.5004Z" fill="#56596A"/>
<path d="M21.9992 22.5004H15.4222C15.2896 22.5004 15.1624 22.4477 15.0686 22.3539C14.9748 22.2601 14.9222 22.133 14.9222 22.0004C14.9222 21.8678 14.9748 21.7406 15.0686 21.6468C15.1624 21.553 15.2896 21.5004 15.4222 21.5004H21.4992V5.00037H11.6161C11.4835 5.00037 11.3564 4.94768 11.2626 4.85391C11.1689 4.76014 11.1161 4.63297 11.1161 4.50037C11.1161 4.36776 11.1689 4.24056 11.2626 4.14679C11.3564 4.05302 11.4835 4.00037 11.6161 4.00037H21.9992C22.1318 4.00037 22.259 4.05302 22.3527 4.14679C22.4465 4.24056 22.4992 4.36776 22.4992 4.50037V22.0004C22.4992 22.133 22.4465 22.2601 22.3527 22.3539C22.259 22.4477 22.1318 22.5004 21.9992 22.5004Z" fill="#56596A"/>
<path d="M7.49921 14.0004H5.49921C5.3666 14.0004 5.2394 13.9477 5.14563 13.8539C5.05186 13.7601 4.99921 13.633 4.99921 13.5004V10.5004C4.99921 10.3678 5.05186 10.2406 5.14563 10.1468C5.2394 10.053 5.3666 10.0004 5.49921 10.0004H7.49921C7.63181 10.0004 7.75895 10.053 7.85272 10.1468C7.94649 10.2406 7.99921 10.3678 7.99921 10.5004V13.5004C7.99921 13.633 7.94649 13.7601 7.85272 13.8539C7.75895 13.9477 7.63181 14.0004 7.49921 14.0004ZM5.99921 13.0004H6.99921V11.0004H5.99921V13.0004Z" fill="#56596A"/>
<path d="M12.4992 14.0004H10.4992C10.3666 14.0004 10.2394 13.9477 10.1456 13.8539C10.0519 13.7601 9.99921 13.633 9.99921 13.5004V10.5004C9.99921 10.3678 10.0519 10.2406 10.1456 10.1468C10.2394 10.053 10.3666 10.0004 10.4992 10.0004H12.4992C12.6318 10.0004 12.759 10.053 12.8527 10.1468C12.9465 10.2406 12.9992 10.3678 12.9992 10.5004V13.5004C12.9992 13.633 12.9465 13.7601 12.8527 13.8539C12.759 13.9477 12.6318 14.0004 12.4992 14.0004ZM10.9992 13.0004H11.9992V11.0004H10.9992V13.0004Z" fill="#56596A"/>
<path d="M10.4992 22.5004H7.49921C7.3666 22.5004 7.2394 22.4477 7.14563 22.3539C7.05186 22.2601 6.99921 22.133 6.99921 22.0004V17.0004C6.99921 16.8678 7.05186 16.7406 7.14563 16.6468C7.2394 16.553 7.3666 16.5004 7.49921 16.5004H10.4992C10.6318 16.5004 10.759 16.553 10.8527 16.6468C10.9465 16.7406 10.9992 16.8678 10.9992 17.0004V22.0004C10.9992 22.133 10.9465 22.2601 10.8527 22.3539C10.759 22.4477 10.6318 22.5004 10.4992 22.5004ZM7.99921 21.5004H9.99921V17.5004H7.99921V21.5004Z" fill="#56596A"/>
<path d="M21.9992 22.5004H18.9992C18.8666 22.5004 18.7394 22.4477 18.6456 22.3539C18.5519 22.2601 18.4992 22.133 18.4992 22.0004V17.0004C18.4992 16.8678 18.5519 16.7406 18.6456 16.6468C18.7394 16.553 18.8666 16.5004 18.9992 16.5004H21.9992C22.1318 16.5004 22.259 16.553 22.3527 16.6468C22.4465 16.7406 22.4992 16.8678 22.4992 17.0004V22.0004C22.4992 22.133 22.4465 22.2601 22.3527 22.3539C22.259 22.4477 22.1318 22.5004 21.9992 22.5004ZM19.4992 21.5004H21.4992V17.5004H19.4992V21.5004Z" fill="#56596A"/>
<path d="M20.2492 6.00037H17.7492V7.00037H20.2492V6.00037Z" fill="#56596A"/>
<path d="M20.2492 8.00037H17.7492V9.00037H20.2492V8.00037Z" fill="#56596A"/>
<path d="M20.2492 10.0004H17.7492V11.0004H20.2492V10.0004Z" fill="#56596A"/>
<path d="M20.2492 12.0004H17.7492V13.0004H20.2492V12.0004Z" fill="#56596A"/>
<path d="M20.2492 14.0004H17.7492V15.0004H20.2492V14.0004Z" fill="#56596A"/>
</svg>
