<svg width="64" height="64" viewBox="0 0 64 64" fill="none" xmlns="http://www.w3.org/2000/svg">
<path d="M51.2325 45.848C45.2755 48.8818 38.6851 50.4634 32 50.4634C25.3149 50.4634 18.7246 48.8818 12.7676 45.848V51.613C12.7676 52.0464 12.9397 52.462 13.2461 52.7684C13.5525 53.0748 13.9681 53.247 14.4015 53.247H49.6016C50.0349 53.247 50.4505 53.0748 50.757 52.7684C51.0634 52.462 51.2355 52.0464 51.2355 51.613L51.2325 45.848Z" fill="#57C5D0"/>
<path d="M49.5968 54.092H14.4028C13.7458 54.0912 13.1158 53.8299 12.6511 53.3654C12.1864 52.9008 11.9249 52.271 11.9238 51.614V45.849C11.9238 45.704 11.9611 45.5615 12.0322 45.4352C12.1033 45.3088 12.2057 45.2029 12.3296 45.1276C12.4535 45.0524 12.5946 45.0103 12.7395 45.0054C12.8844 45.0006 13.0281 45.0332 13.1567 45.1C18.9935 48.0718 25.4505 49.6209 32.0002 49.6209C38.55 49.6209 45.007 48.0718 50.8438 45.1C50.9724 45.0332 51.1161 45.0006 51.261 45.0054C51.4059 45.0103 51.547 45.0524 51.6709 45.1276C51.7948 45.2029 51.8973 45.3088 51.9684 45.4352C52.0395 45.5615 52.0768 45.704 52.0768 45.849V51.614C52.0757 52.2712 51.814 52.9012 51.3491 53.3657C50.8842 53.8303 50.254 54.0915 49.5968 54.092ZM13.6107 47.209V51.614C13.6107 51.7179 13.6312 51.8209 13.671 51.9169C13.7108 52.013 13.7692 52.1002 13.8428 52.1736C13.9163 52.2471 14.0036 52.3053 14.0997 52.345C14.1958 52.3847 14.2989 52.4051 14.4028 52.405H49.5968C49.7008 52.4051 49.8037 52.3847 49.8998 52.345C49.9959 52.3053 50.0832 52.2471 50.1567 52.1736C50.2303 52.1002 50.2887 52.013 50.3285 51.9169C50.3683 51.8209 50.3888 51.7179 50.3888 51.614V47.214C44.6344 49.9132 38.3563 51.3126 32.0002 51.3126C25.6442 51.3126 19.3662 49.9132 13.6118 47.214L13.6107 47.209Z" fill="#5439AC"/>
<path d="M49.5448 54.091H14.4548C13.7838 54.0902 13.1405 53.8233 12.666 53.3488C12.1915 52.8743 11.9246 52.231 11.9238 51.56V12.594C11.9254 10.5804 12.726 8.64982 14.1498 7.22601C15.5736 5.80221 17.5043 5.00159 19.5178 5H44.4828C46.4964 5.00159 48.427 5.80221 49.8508 7.22601C51.2746 8.64982 52.0752 10.5804 52.0768 12.594V51.56C52.076 52.2312 51.8089 52.8747 51.3342 53.3492C50.8595 53.8237 50.216 54.0905 49.5448 54.091ZM19.5178 6.69098C17.952 6.69283 16.4508 7.31566 15.3436 8.42285C14.2364 9.53004 13.6137 11.0312 13.6118 12.597V51.56C13.6121 51.7838 13.701 51.9983 13.8593 52.1565C14.0175 52.3147 14.232 52.4037 14.4558 52.404H49.5458C49.7695 52.4037 49.9841 52.3147 50.1423 52.1565C50.3006 51.9983 50.3895 51.7838 50.3898 51.56V12.594C50.3879 11.0282 49.7651 9.52705 48.658 8.41986C47.5508 7.31267 46.0496 6.68984 44.4838 6.68799L19.5178 6.69098Z" fill="#5439AC"/>
<path d="M18.0054 59H16.7644C16.0934 58.9992 15.4501 58.7323 14.9756 58.2578C14.5011 57.7833 14.2342 57.14 14.2334 56.469V53.248C14.2334 53.1372 14.2552 53.0274 14.2976 52.925C14.34 52.8226 14.4022 52.7296 14.4806 52.6512C14.559 52.5728 14.652 52.5106 14.7544 52.4682C14.8568 52.4258 14.9666 52.404 15.0774 52.404H19.6934C19.9172 52.404 20.1319 52.4929 20.2902 52.6512C20.4484 52.8095 20.5374 53.0242 20.5374 53.248V56.469C20.5366 57.1402 20.2695 57.7836 19.7948 58.2581C19.3201 58.7326 18.6766 58.9995 18.0054 59ZM15.9204 54.091V56.469C15.9207 56.6928 16.0096 56.9073 16.1678 57.0655C16.3261 57.2237 16.5406 57.3127 16.7644 57.313H18.0054C18.2291 57.3127 18.4437 57.2237 18.6019 57.0655C18.7602 56.9073 18.8491 56.6928 18.8494 56.469V54.092L15.9204 54.091Z" fill="#5439AC"/>
<path d="M47.2368 59H45.9958C45.3248 58.9992 44.6815 58.7323 44.207 58.2578C43.7325 57.7833 43.4656 57.14 43.4648 56.469V53.248C43.4648 53.0242 43.5538 52.8095 43.712 52.6512C43.8703 52.4929 44.085 52.404 44.3088 52.404H48.9248C49.1486 52.404 49.3633 52.4929 49.5216 52.6512C49.6799 52.8095 49.7688 53.0242 49.7688 53.248V56.469C49.768 57.1402 49.5009 57.7836 49.0262 58.2581C48.5515 58.7326 47.908 58.9995 47.2368 59ZM45.1519 54.091V56.469C45.1521 56.6928 45.2411 56.9073 45.3993 57.0655C45.5575 57.2237 45.7721 57.3127 45.9958 57.313H47.2368C47.4606 57.3127 47.6752 57.2237 47.8334 57.0655C47.9916 56.9073 48.0805 56.6928 48.0808 56.469V54.092L45.1519 54.091Z" fill="#5439AC"/>
<path d="M46.4679 36.69H17.532C16.861 36.6892 16.2176 36.4223 15.7432 35.9478C15.2687 35.4734 15.0018 34.83 15.001 34.159V12.729C15.002 11.6104 15.4468 10.5379 16.2378 9.74691C17.0288 8.95592 18.1013 8.51103 19.22 8.50997H44.781C45.8996 8.51103 46.9721 8.95592 47.7631 9.74691C48.554 10.5379 48.9989 11.6104 49 12.729V34.159C48.9992 34.8302 48.7321 35.4736 48.2574 35.9481C47.7827 36.4227 47.1391 36.6895 46.4679 36.69ZM19.22 10.197C18.549 10.1978 17.9056 10.4647 17.4312 10.9392C16.9567 11.4137 16.6898 12.057 16.689 12.728V34.158C16.6892 34.3817 16.7782 34.5963 16.9364 34.7545C17.0946 34.9127 17.3092 35.0017 17.533 35.002H46.469C46.6928 35.0017 46.9072 34.9127 47.0654 34.7545C47.2237 34.5963 47.3127 34.3817 47.313 34.158V12.728C47.3122 12.057 47.0453 11.4137 46.5708 10.9392C46.0963 10.4647 45.453 10.1978 44.782 10.197H19.22Z" fill="#5439AC"/>
<path d="M8 28.997H7.52905C6.85821 28.9957 6.21517 28.7284 5.74109 28.2538C5.26701 27.7791 5.00053 27.1359 5 26.465V18.305C5.00079 17.634 5.2677 16.9907 5.74219 16.5162C6.21667 16.0417 6.85999 15.7748 7.53101 15.774H8C8.67102 15.7748 9.31434 16.0417 9.78882 16.5162C10.2633 16.9907 10.5302 17.634 10.531 18.305V26.469C10.5294 27.1395 10.2621 27.782 9.78772 28.2559C9.31332 28.7297 8.6705 28.9962 8 28.997ZM7.52905 17.458C7.30521 17.458 7.09053 17.5469 6.93225 17.7052C6.77397 17.8635 6.68506 18.0782 6.68506 18.302V26.466C6.68532 26.6898 6.77427 26.9043 6.9325 27.0625C7.09072 27.2207 7.30529 27.3097 7.52905 27.31H8C8.22376 27.3097 8.43833 27.2207 8.59656 27.0625C8.75478 26.9043 8.84373 26.6898 8.84399 26.466V18.305C8.84373 18.0812 8.75478 17.8667 8.59656 17.7085C8.43833 17.5503 8.22376 17.4613 8 17.461L7.52905 17.458Z" fill="#5439AC"/>
<path d="M46.6181 48.722C46.4949 48.7227 46.3733 48.6963 46.2615 48.6448C46.1497 48.5932 46.0505 48.5178 45.9711 48.4238C45.8916 48.3297 45.8338 48.2194 45.8016 48.1005C45.7695 47.9817 45.7638 47.8573 45.785 47.736L47.1791 39.622C47.2468 39.2233 47.4154 38.8486 47.6688 38.5335C47.9223 38.2184 48.2522 37.9735 48.6271 37.822L50.9131 36.888C51.1204 36.8034 51.3527 36.8046 51.5591 36.8913C51.7655 36.978 51.929 37.1433 52.0136 37.3505C52.0982 37.5578 52.097 37.7901 52.0103 37.9965C51.9235 38.2029 51.7583 38.3664 51.551 38.451L49.264 39.385C49.1546 39.4293 49.0584 39.5009 48.9845 39.593C48.9106 39.6851 48.8616 39.7946 48.8421 39.911L47.4501 48.022C47.4163 48.2181 47.3143 48.3959 47.162 48.524C47.0097 48.6522 46.817 48.7223 46.6181 48.722Z" fill="#5439AC"/>
<path d="M17.3818 48.722C17.1831 48.722 16.9909 48.6517 16.839 48.5236C16.6871 48.3955 16.5854 48.2178 16.5519 48.022L15.1578 39.909C15.1384 39.7926 15.0894 39.6831 15.0155 39.591C14.9416 39.4989 14.8453 39.4273 14.7359 39.383L12.4489 38.449C12.3462 38.4071 12.2529 38.3454 12.1741 38.2675C12.0953 38.1895 12.0327 38.0967 11.9898 37.9945C11.9468 37.8923 11.9244 37.7827 11.9238 37.6718C11.9233 37.561 11.9446 37.4512 11.9865 37.3485C12.0284 37.2459 12.09 37.1525 12.168 37.0737C12.246 36.995 12.3387 36.9323 12.4409 36.8894C12.5431 36.8464 12.6527 36.824 12.7636 36.8234C12.8744 36.8229 12.9843 36.8441 13.0869 36.886L15.3729 37.82C15.7479 37.9715 16.0777 38.2165 16.3312 38.5316C16.5847 38.8467 16.7533 39.2213 16.8209 39.62L18.2149 47.734C18.2361 47.8553 18.2305 47.9797 18.1984 48.0985C18.1662 48.2174 18.1084 48.3277 18.0289 48.4218C17.9495 48.5158 17.8503 48.5912 17.7385 48.6428C17.6267 48.6943 17.505 48.7207 17.3818 48.72V48.722Z" fill="#5439AC"/>
<path d="M45.8469 36.69C45.6231 36.69 45.4084 36.6011 45.2501 36.4428C45.0919 36.2845 45.0029 36.0699 45.0029 35.846C45.0029 34.6415 44.5244 33.4864 43.6727 32.6347C42.821 31.783 41.6659 31.3045 40.4614 31.3045C39.257 31.3045 38.1018 31.783 37.2501 32.6347C36.3984 33.4864 35.9199 34.6415 35.9199 35.846C35.9238 35.9592 35.9049 36.0721 35.8643 36.1778C35.8236 36.2836 35.7622 36.38 35.6835 36.4615C35.6048 36.543 35.5104 36.6077 35.4061 36.652C35.3019 36.6962 35.1897 36.7191 35.0764 36.7191C34.9631 36.7191 34.851 36.6962 34.7467 36.652C34.6424 36.6077 34.5482 36.543 34.4695 36.4615C34.3908 36.38 34.3292 36.2836 34.2886 36.1778C34.248 36.0721 34.229 35.9592 34.2329 35.846C34.2329 34.194 34.8892 32.6096 36.0574 31.4414C37.2255 30.2733 38.8099 29.617 40.4619 29.617C42.114 29.617 43.6983 30.2733 44.8665 31.4414C46.0346 32.6096 46.6909 34.194 46.6909 35.846C46.6909 36.0699 46.602 36.2845 46.4437 36.4428C46.2855 36.6011 46.0708 36.69 45.8469 36.69Z" fill="#5439AC"/>
<path d="M5.84399 18.996C5.73312 18.9961 5.62333 18.9744 5.52087 18.932C5.41842 18.8896 5.32535 18.8275 5.24695 18.7491C5.16855 18.6707 5.10633 18.5776 5.06397 18.4752C5.0216 18.3727 4.99987 18.2629 5 18.152V17.383C5.00159 15.527 5.73959 13.7474 7.052 12.435C8.36441 11.1226 10.144 10.3846 12 10.383H12.77C12.9939 10.383 13.2085 10.4719 13.3668 10.6302C13.5251 10.7885 13.614 11.0032 13.614 11.227C13.614 11.4508 13.5251 11.6655 13.3668 11.8238C13.2085 11.9821 12.9939 12.071 12.77 12.071H12C10.5919 12.0726 9.242 12.6326 8.24634 13.6283C7.25068 14.624 6.69055 15.9739 6.68897 17.382V18.151C6.6891 18.262 6.66742 18.3719 6.625 18.4745C6.58258 18.5771 6.52026 18.6703 6.44177 18.7488C6.36328 18.8273 6.27006 18.8895 6.16748 18.932C6.0649 18.9744 5.955 18.9961 5.84399 18.996Z" fill="#5439AC"/>
<path d="M56.4688 28.997H55.9968C55.3258 28.9962 54.6825 28.7293 54.208 28.2548C53.7335 27.7803 53.4666 27.137 53.4658 26.466V18.305C53.4666 17.634 53.7335 16.9907 54.208 16.5162C54.6825 16.0417 55.3258 15.7748 55.9968 15.774H56.4688C57.1398 15.7748 57.7831 16.0417 58.2576 16.5162C58.7321 16.9907 58.999 17.634 58.9998 18.305V26.469C58.9982 27.1395 58.731 27.782 58.2566 28.2559C57.7822 28.7297 57.1393 28.9962 56.4688 28.997ZM55.9968 17.458C55.7731 17.4583 55.5585 17.5473 55.4003 17.7055C55.242 17.8637 55.1531 18.0782 55.1528 18.302V26.466C55.1531 26.6898 55.242 26.9043 55.4003 27.0625C55.5585 27.2207 55.7731 27.3097 55.9968 27.31H56.4688C56.6925 27.3097 56.9071 27.2207 57.0653 27.0625C57.2235 26.9043 57.3125 26.6898 57.3127 26.466V18.305C57.3125 18.0812 57.2235 17.8667 57.0653 17.7085C56.9071 17.5503 56.6925 17.4613 56.4688 17.461L55.9968 17.458Z" fill="#5439AC"/>
<path d="M58.157 18.996C57.9331 18.996 57.7185 18.9071 57.5602 18.7488C57.4019 18.5905 57.313 18.3758 57.313 18.152V17.383C57.3114 15.9749 56.7513 14.6249 55.7556 13.6293C54.76 12.6336 53.41 12.0736 52.002 12.072H51.2319C51.0132 12.0644 50.8061 11.9723 50.6541 11.8149C50.502 11.6576 50.417 11.4473 50.417 11.2285C50.417 11.0097 50.502 10.7994 50.6541 10.642C50.8061 10.4847 51.0132 10.3925 51.2319 10.385H52.002C53.858 10.3866 55.6375 11.1246 56.95 12.437C58.2624 13.7494 59.0004 15.529 59.002 17.385V18.154C59.0018 18.2648 58.9799 18.3745 58.9374 18.4768C58.8948 18.579 58.8325 18.6719 58.754 18.7501C58.6755 18.8283 58.5824 18.8903 58.48 18.9325C58.3775 18.9747 58.2678 18.9962 58.157 18.996Z" fill="#5439AC"/>
</svg>
