<svg width="24" height="24" viewBox="0 0 24 24" fill="none" xmlns="http://www.w3.org/2000/svg">
<path d="M6.00195 22.5C5.33891 22.5 4.70273 22.2364 4.23389 21.7676C3.76505 21.2987 3.50195 20.663 3.50195 20V7C3.50195 6.33696 3.76505 5.70077 4.23389 5.23193C4.70273 4.76309 5.33891 4.5 6.00195 4.5H7.50195V2C7.50195 1.86739 7.55418 1.74025 7.64795 1.64648C7.74172 1.55272 7.86934 1.5 8.00195 1.5C8.13456 1.5 8.2617 1.55272 8.35547 1.64648C8.44924 1.74025 8.50195 1.86739 8.50195 2V4.5H15.502V2C15.502 1.86739 15.5542 1.74025 15.6479 1.64648C15.7417 1.55272 15.8693 1.5 16.002 1.5C16.1346 1.5 16.2617 1.55272 16.3555 1.64648C16.4492 1.74025 16.502 1.86739 16.502 2V4.5H18.002C18.665 4.5 19.3007 4.76309 19.7695 5.23193C20.2384 5.70077 20.502 6.33696 20.502 7V20C20.502 20.663 20.2384 21.2987 19.7695 21.7676C19.3007 22.2364 18.665 22.5 18.002 22.5H6.00195ZM4.50195 20C4.50195 20.3978 4.65961 20.7792 4.94092 21.0605C5.22222 21.3419 5.60413 21.5 6.00195 21.5H18.002C18.3998 21.5 18.7812 21.3419 19.0625 21.0605C19.3438 20.7792 19.502 20.3978 19.502 20V11.875H4.50195V20ZM4.50195 7V10.876H19.502V7C19.502 6.60218 19.3438 6.22076 19.0625 5.93945C18.7812 5.65815 18.3998 5.5 18.002 5.5H16.502V8C16.502 8.13261 16.4492 8.25975 16.3555 8.35352C16.2617 8.44728 16.1346 8.5 16.002 8.5C15.8693 8.5 15.7417 8.44728 15.6479 8.35352C15.5542 8.25975 15.502 8.13261 15.502 8V5.5H8.50195V8C8.50195 8.13261 8.44924 8.25975 8.35547 8.35352C8.2617 8.44728 8.13456 8.5 8.00195 8.5C7.86934 8.5 7.74172 8.44728 7.64795 8.35352C7.55418 8.25975 7.50195 8.13261 7.50195 8V5.5H6.00195C5.8048 5.49974 5.60947 5.53802 5.42725 5.61328C5.24503 5.68855 5.07944 5.79916 4.93994 5.93848C4.80044 6.07779 4.68976 6.24317 4.61426 6.42529C4.53875 6.60741 4.49951 6.80285 4.49951 7H4.50195ZM11.8115 18.958C11.7504 18.9346 11.696 18.8974 11.6519 18.8491C11.6033 18.8049 11.5645 18.7508 11.5386 18.6904C11.5127 18.63 11.5005 18.5647 11.502 18.499C11.5011 18.4331 11.5137 18.3677 11.5396 18.3071C11.5654 18.2465 11.6038 18.192 11.6519 18.147C11.7453 18.0554 11.8711 18.0039 12.002 18.0039C12.1328 18.0039 12.2581 18.0554 12.3516 18.147C12.3997 18.192 12.438 18.2465 12.4639 18.3071C12.4897 18.3677 12.5028 18.4331 12.502 18.499C12.4991 18.6308 12.4452 18.756 12.3521 18.8491C12.2589 18.9423 12.1337 18.9962 12.002 18.999C11.9357 19.0021 11.8693 18.9887 11.8096 18.96L11.8115 18.958ZM7.81152 18.958C7.74976 18.9348 7.69466 18.8976 7.6499 18.8491C7.60131 18.8049 7.5625 18.7508 7.53662 18.6904C7.51074 18.63 7.49801 18.5647 7.49951 18.499C7.49868 18.4331 7.51177 18.3677 7.5376 18.3071C7.56342 18.2465 7.60181 18.192 7.6499 18.147C7.74593 18.056 7.87312 18.0054 8.00537 18.0054C8.13762 18.0054 8.26482 18.056 8.36084 18.147C8.45015 18.2416 8.5 18.3669 8.5 18.4971C8.5 18.6272 8.45015 18.752 8.36084 18.8467C8.31278 18.895 8.25484 18.9325 8.19092 18.9561C8.13183 18.9848 8.06663 18.9986 8.00098 18.9961C7.93563 19.0001 7.86988 18.9876 7.81055 18.96L7.81152 18.958ZM15.8115 15.958C15.7496 15.9368 15.6949 15.8992 15.6528 15.8491C15.602 15.806 15.5634 15.75 15.5415 15.687C15.5137 15.6283 15.5004 15.564 15.502 15.499C15.501 15.4334 15.5137 15.3684 15.5396 15.3081C15.5654 15.2478 15.6037 15.1935 15.6519 15.1489C15.7474 15.0574 15.8745 15.0063 16.0068 15.0063C16.1391 15.0063 16.2663 15.0574 16.3618 15.1489C16.407 15.1952 16.4428 15.25 16.4668 15.3101C16.4908 15.3701 16.5028 15.4343 16.502 15.499C16.5044 15.564 16.4906 15.6286 16.4619 15.687C16.4413 15.7479 16.407 15.8034 16.3618 15.8491C16.3137 15.8973 16.2558 15.9344 16.1919 15.958C16.1328 15.9867 16.0676 16.0005 16.002 15.998C15.9356 16.0004 15.8691 15.9873 15.8086 15.96L15.8115 15.958ZM11.8115 15.958C11.7505 15.9344 11.6961 15.8973 11.6519 15.8491C11.6033 15.8049 11.5649 15.7503 11.5391 15.6899C11.5132 15.6296 11.5005 15.5647 11.502 15.499C11.501 15.4334 11.5137 15.3684 11.5396 15.3081C11.5654 15.2478 11.6037 15.1935 11.6519 15.1489C11.7475 15.0573 11.8749 15.0063 12.0073 15.0063C12.1398 15.0063 12.2671 15.0573 12.3628 15.1489C12.4533 15.2429 12.5037 15.3686 12.5029 15.499C12.5045 15.6296 12.454 15.7556 12.3628 15.8491C12.3146 15.8972 12.2567 15.9343 12.1929 15.958C12.1338 15.9867 12.0686 16.0005 12.0029 15.998C11.9365 16.0007 11.87 15.9876 11.8096 15.96L11.8115 15.958ZM7.81152 15.958C7.74986 15.9346 7.69481 15.8974 7.6499 15.8491C7.6022 15.8042 7.56389 15.7497 7.53809 15.6895C7.51228 15.6292 7.49914 15.5645 7.49951 15.499C7.49859 15.4334 7.51176 15.3684 7.5376 15.3081C7.56344 15.2478 7.60177 15.1935 7.6499 15.1489C7.74337 15.0573 7.86864 15.0059 7.99951 15.0059C8.13039 15.0059 8.25614 15.0573 8.34961 15.1489C8.39805 15.1933 8.43654 15.2473 8.4624 15.3076C8.48827 15.368 8.50082 15.4334 8.49951 15.499C8.50128 15.5647 8.48879 15.63 8.46289 15.6904C8.437 15.7509 8.39841 15.8051 8.34961 15.8491C8.30709 15.8992 8.25214 15.9368 8.18994 15.958C8.13085 15.9867 8.06517 16.0005 7.99951 15.998C7.93433 16.0013 7.8694 15.9882 7.81055 15.96L7.81152 15.958Z" fill="#56596A"/>
</svg>
