<svg width="24" height="24" viewBox="0 0 24 24" fill="none" xmlns="http://www.w3.org/2000/svg">
<path d="M1.49805 12.0001C1.49805 9.92336 2.11431 7.89328 3.26807 6.16657C4.42182 4.43985 6.06136 3.0941 7.97998 2.29938C9.8986 1.50466 12.0101 1.29658 14.0469 1.70172C16.0837 2.10687 17.9544 3.10681 19.4229 4.57526C20.8913 6.04371 21.8912 7.91492 22.2964 9.95172C22.7015 11.9885 22.4939 14.0995 21.6992 16.0181C20.9045 17.9368 19.5583 19.5768 17.8315 20.7305C16.1048 21.8843 14.0748 22.5001 11.998 22.5001C9.21425 22.4969 6.54559 21.3894 4.57715 19.421C2.6087 17.4525 1.50122 14.7839 1.49805 12.0001ZM2.49805 12.0001C2.49805 13.879 3.05525 15.7156 4.09912 17.2779C5.14299 18.8402 6.62689 20.0579 8.36279 20.7769C10.0987 21.4959 12.0087 21.684 13.8516 21.3174C15.6944 20.9509 17.3872 20.0459 18.7158 18.7173C20.0444 17.3887 20.9494 15.6959 21.3159 13.8531C21.6825 12.0103 21.4939 10.1002 20.7749 8.36432C20.0559 6.62842 18.8386 5.14501 17.2764 4.10114C15.7141 3.05726 13.877 2.50006 11.998 2.50006C9.47964 2.5035 7.06585 3.50532 5.28516 5.28619C3.50446 7.06707 2.50269 9.48165 2.49951 12.0001H2.49805ZM15.6304 17.837L12.9175 14.8799C12.8749 14.8317 12.8225 14.7929 12.7642 14.7657C12.7058 14.7385 12.6425 14.7233 12.5781 14.7217H8.67334C8.36319 14.7156 8.06248 14.6142 7.81201 14.4312C7.56155 14.2482 7.37356 13.9924 7.27344 13.6988L6.54346 11.7051C6.53341 11.6828 6.52466 11.6594 6.51807 11.6358L5.60107 9.1358C5.5351 8.95265 5.50166 8.75968 5.50146 8.565V6.50006C5.50146 6.36745 5.55418 6.24031 5.64795 6.14655C5.74172 6.05278 5.86886 6.00006 6.00146 6.00006C6.13407 6.00006 6.26121 6.05278 6.35498 6.14655C6.44875 6.24031 6.50146 6.36745 6.50146 6.50006V8.56305C6.50225 8.6422 6.51644 8.72058 6.54346 8.79498L7.35107 11.001H11.5024C11.7067 11.0072 11.9076 11.0535 12.0938 11.1378C12.2799 11.222 12.4475 11.3424 12.5869 11.4918C12.7264 11.6412 12.835 11.8168 12.9062 12.0084C12.9775 12.1999 13.0103 12.4038 13.0024 12.608C12.9975 12.7373 12.9424 12.8596 12.8491 12.9493C12.7559 13.039 12.6318 13.089 12.5024 13.0889H12.4814C12.4158 13.0862 12.3511 13.0707 12.2915 13.043C12.2319 13.0154 12.1783 12.9762 12.1338 12.9278C12.0893 12.8794 12.0548 12.8225 12.0322 12.7608C12.0097 12.6991 11.9996 12.6336 12.0024 12.5679C12.0076 12.4237 11.9556 12.2835 11.8579 12.1773C11.7602 12.0712 11.6246 12.0078 11.4805 12.001H7.71729L8.21729 13.3692C8.24916 13.4698 8.31131 13.5576 8.39551 13.6212C8.47971 13.6848 8.58203 13.721 8.6875 13.7242H12.5874C12.7901 13.7262 12.9897 13.7704 13.1743 13.8541C13.3589 13.9377 13.5241 14.0589 13.6592 14.21L16.1045 16.8751L17.7603 15.9752C17.818 15.9392 17.8824 15.915 17.9497 15.9048C18.017 15.8947 18.0856 15.8983 18.1514 15.9156C18.2172 15.9329 18.2789 15.9635 18.3325 16.0054C18.3861 16.0473 18.4307 16.1 18.4634 16.1597C18.496 16.2194 18.5161 16.2849 18.5225 16.3526C18.5288 16.4203 18.521 16.4886 18.5 16.5533C18.479 16.618 18.4453 16.6779 18.4004 16.7291C18.3555 16.7802 18.3007 16.8219 18.2393 16.8511L16.2393 17.9429C16.1654 17.9836 16.0823 18.0049 15.998 18.0049C15.9288 18.004 15.8609 17.9888 15.7979 17.96C15.7348 17.9313 15.6784 17.8896 15.6323 17.838L15.6304 17.837Z" fill="#56596A"/>
</svg>
