<svg width="24" height="24" viewBox="0 0 24 24" fill="none" xmlns="http://www.w3.org/2000/svg">
<path d="M4.00195 19.5C3.33891 19.5 2.70273 19.2364 2.23389 18.7676C1.76505 18.2987 1.50195 17.663 1.50195 17V7C1.50195 6.33696 1.76505 5.70077 2.23389 5.23193C2.70273 4.76309 3.33891 4.5 4.00195 4.5H20.002C20.665 4.5 21.3007 4.76309 21.7695 5.23193C22.2384 5.70077 22.502 6.33696 22.502 7V17C22.502 17.663 22.2384 18.2987 21.7695 18.7676C21.3007 19.2364 20.665 19.5 20.002 19.5H4.00195ZM2.50195 17C2.50195 17.3978 2.65961 17.7792 2.94092 18.0605C3.22222 18.3419 3.60413 18.5 4.00195 18.5H20.002C20.3998 18.5 20.7812 18.3419 21.0625 18.0605C21.3438 17.7792 21.502 17.3978 21.502 17V12.3101H2.50195V17ZM21.502 11.3101V9.31006H2.50195V11.3101H21.502ZM21.502 8.31006V7C21.502 6.60218 21.3438 6.22076 21.0625 5.93945C20.7812 5.65815 20.3998 5.5 20.002 5.5H4.00195C3.60413 5.5 3.22222 5.65815 2.94092 5.93945C2.65961 6.22076 2.50195 6.60218 2.50195 7V8.31006H21.502Z" fill="#56596A"/>
</svg>
