<svg width="34" height="30" viewBox="0 0 34 30" fill="none" xmlns="http://www.w3.org/2000/svg">
<path d="M27.6681 23.921H31.9341V26.969C31.9202 27.5211 31.6878 28.045 31.2878 28.4258C30.8879 28.8066 30.3532 29.0131 29.8011 29C29.249 29.0131 28.7143 28.8066 28.3144 28.4258C27.9144 28.045 27.682 27.5211 27.6681 26.969V23.921V23.921Z" stroke="#202020" stroke-width="2" stroke-linejoin="round"/>
<path d="M2.06799 23.921H6.33399V26.969C6.32011 27.5211 6.08767 28.045 5.68774 28.4258C5.2878 28.8066 4.75307 29.0131 4.20099 29V29C3.64892 29.0131 3.11419 28.8066 2.71425 28.4258C2.31432 28.045 2.08188 27.5211 2.06799 26.969V23.921Z" stroke="#202020" stroke-width="2" stroke-linejoin="round"/>
<path d="M4.35404 10.751H29.648L31.835 13.1C32.5857 13.9095 33.0023 14.973 33.001 16.077V21.585C33.0033 21.8674 32.9499 22.1474 32.8439 22.4091C32.7379 22.6708 32.5814 22.9091 32.3834 23.1103C32.1853 23.3115 31.9495 23.4718 31.6895 23.5819C31.4295 23.692 31.1504 23.7498 30.868 23.752H3.13404C2.8517 23.7498 2.57256 23.692 2.31256 23.5819C2.05256 23.4718 1.81679 23.3115 1.61872 23.1103C1.42065 22.9091 1.26416 22.6708 1.15818 22.4091C1.0522 22.1474 0.998803 21.8674 1.00104 21.585V16.053C1.00003 14.9415 1.42231 13.8713 2.18204 13.06L4.35404 10.751Z" stroke="#202020" stroke-width="2" stroke-linejoin="round"/>
<path d="M10.4941 1H23.508C24.4071 1.00406 25.282 1.29167 26.0081 1.82188C26.7342 2.35208 27.2745 3.09785 27.5521 3.953L29.801 10.753H4.20105L6.45005 3.953C6.72763 3.09785 7.26794 2.35208 7.99403 1.82188C8.72012 1.29167 9.59499 1.00406 10.4941 1V1Z" stroke="#202020" stroke-width="2" stroke-linejoin="round"/>
<path d="M13.801 19.418H20.201C20.7712 19.4228 21.3161 19.6537 21.7161 20.06C22.116 20.4664 22.3383 21.0149 22.334 21.585V23.752H11.668V21.585C11.6638 21.0149 11.886 20.4664 12.286 20.06C12.686 19.6537 13.2309 19.4228 13.801 19.418Z" stroke="#202020" stroke-width="2" stroke-linejoin="round"/>
<path d="M27.1341 15.085H28.2011C28.4129 15.0866 28.6223 15.1298 28.8173 15.2124C29.0124 15.2949 29.1892 15.4151 29.3378 15.566C29.4864 15.7169 29.6038 15.8956 29.6833 16.0919C29.7628 16.2882 29.8028 16.4982 29.8011 16.71V16.71C29.8043 17.1376 29.6375 17.549 29.3375 17.8537C29.0375 18.1585 28.6287 18.3316 28.2011 18.335H27.1341C26.7065 18.3316 26.2977 18.1585 25.9977 17.8537C25.6977 17.549 25.5309 17.1376 25.5341 16.71C25.5309 16.2824 25.6977 15.871 25.9977 15.5663C26.2977 15.2615 26.7065 15.0884 27.1341 15.085V15.085Z" stroke="#202020" stroke-width="2" stroke-linejoin="round"/>
<path d="M5.8011 15.085H6.8681C7.29573 15.0884 7.70449 15.2615 8.00452 15.5663C8.30455 15.871 8.4713 16.2824 8.4681 16.71V16.71C8.4713 17.1376 8.30455 17.549 8.00452 17.8537C7.70449 18.1585 7.29573 18.3316 6.8681 18.335H5.8011C5.37348 18.3316 4.96472 18.1585 4.66469 17.8537C4.36466 17.549 4.19791 17.1376 4.2011 16.71V16.71C4.19939 16.4982 4.23942 16.2882 4.31892 16.0919C4.39841 15.8956 4.5158 15.7169 4.66439 15.566C4.81298 15.4151 4.98985 15.2949 5.18489 15.2124C5.37993 15.1298 5.58933 15.0866 5.8011 15.085V15.085Z" stroke="#202020" stroke-width="2" stroke-linejoin="round"/>
<path d="M29.8011 10.751H31.9341C32.0752 10.75 32.2148 10.7211 32.3448 10.6661C32.4749 10.6111 32.5928 10.5311 32.6919 10.4305C32.791 10.3299 32.8693 10.2108 32.9223 10.08C32.9754 9.94917 33.0021 9.80917 33.0011 9.668V8.584C33.0023 8.44274 32.9756 8.30264 32.9226 8.17169C32.8696 8.04075 32.7913 7.92153 32.6922 7.82086C32.5931 7.72019 32.4752 7.64003 32.3451 7.58498C32.215 7.52992 32.0753 7.50105 31.9341 7.5H29.2681" stroke="#202020" stroke-width="2" stroke-linecap="round"/>
<path d="M4.20101 10.751H2.06801C1.92684 10.75 1.78726 10.7211 1.65723 10.6661C1.52721 10.6111 1.40929 10.5311 1.31021 10.4305C1.21113 10.3299 1.13283 10.2108 1.07977 10.08C1.02672 9.94917 0.99996 9.80917 1.00101 9.668V8.584C0.999828 8.44274 1.02649 8.30264 1.07949 8.17169C1.13248 8.04075 1.21076 7.92153 1.30985 7.82086C1.40895 7.72019 1.52691 7.64003 1.657 7.58498C1.78709 7.52992 1.92676 7.50105 2.06801 7.5H4.73401" stroke="#202020" stroke-width="2" stroke-linecap="round"/>
</svg>
