<svg width="24" height="24" viewBox="0 0 24 24" fill="none" xmlns="http://www.w3.org/2000/svg">
<path d="M4.83984 20.4658C4.7466 20.4291 4.66639 20.3655 4.60986 20.2827C4.55334 20.2 4.52321 20.1022 4.52295 20.002V16.502H4.00195C3.33891 16.502 2.70273 16.2384 2.23389 15.7695C1.76505 15.3007 1.50195 14.665 1.50195 14.002V6.00195C1.50195 5.33891 1.76505 4.70322 2.23389 4.23438C2.70273 3.76553 3.33891 3.50195 4.00195 3.50195H20.002C20.665 3.50195 21.3007 3.76553 21.7695 4.23438C22.2384 4.70322 22.502 5.33891 22.502 6.00195V14.002C22.502 14.665 22.2384 15.3007 21.7695 15.7695C21.3007 16.2384 20.665 16.502 20.002 16.502H8.99072L5.38477 20.3418C5.31705 20.416 5.2279 20.4677 5.12988 20.4897C5.03186 20.5117 4.92985 20.503 4.83691 20.4648L4.83984 20.4658ZM2.50195 6.00195V14.002C2.50195 14.3998 2.65961 14.7812 2.94092 15.0625C3.22222 15.3438 3.60413 15.502 4.00195 15.502H5.02295C5.15556 15.502 5.2827 15.5547 5.37646 15.6484C5.47023 15.7422 5.52295 15.8693 5.52295 16.002V18.7368L8.41064 15.6587C8.45732 15.6089 8.51357 15.5697 8.57617 15.5425C8.63877 15.5153 8.70666 15.5011 8.7749 15.501H20.0005C20.3983 15.501 20.7802 15.3428 21.0615 15.0615C21.3428 14.7802 21.5005 14.3988 21.5005 14.001V6.00098C21.5005 5.60315 21.3428 5.22173 21.0615 4.94043C20.7802 4.65913 20.3983 4.50098 20.0005 4.50098H4.00049C3.60301 4.50124 3.22198 4.65937 2.94092 4.94043C2.65986 5.22149 2.50222 5.60252 2.50195 6V6.00195ZM13.002 10.894C12.8693 10.894 12.7417 10.8413 12.6479 10.7476C12.5542 10.6538 12.502 10.5267 12.502 10.394C12.502 10.2614 12.5542 10.1343 12.6479 10.0405C12.7417 9.94676 12.8693 9.89404 13.002 9.89404H19.002C19.1346 9.89404 19.2617 9.94676 19.3555 10.0405C19.4492 10.1343 19.502 10.2614 19.502 10.394C19.502 10.5267 19.4492 10.6538 19.3555 10.7476C19.2617 10.8413 19.1346 10.894 19.002 10.894H13.002ZM11.002 7.72705C10.8693 7.72705 10.7417 7.67433 10.6479 7.58057C10.5542 7.4868 10.502 7.35966 10.502 7.22705C10.502 7.09444 10.5542 6.9673 10.6479 6.87354C10.7417 6.77977 10.8693 6.72705 11.002 6.72705H19.002C19.1346 6.72705 19.2617 6.77977 19.3555 6.87354C19.4492 6.9673 19.502 7.09444 19.502 7.22705C19.502 7.35966 19.4492 7.4868 19.3555 7.58057C19.2617 7.67433 19.1346 7.72705 19.002 7.72705H11.002Z" fill="#56596A"/>
</svg>
