<svg width="24" height="24" viewBox="0 0 24 24" fill="none" xmlns="http://www.w3.org/2000/svg">
<path d="M4 19.5C3.33696 19.5 2.70126 19.2364 2.23242 18.7676C1.76358 18.2987 1.5 17.663 1.5 17V7C1.5 6.33696 1.76358 5.70077 2.23242 5.23193C2.70126 4.76309 3.33696 4.5 4 4.5H13.7661C14.3734 4.50112 14.9595 4.72328 15.415 5.125L21.9883 10.8628C22.0393 10.9098 22.0884 10.9549 22.1284 11.0039C22.2586 11.1521 22.358 11.3244 22.4214 11.5112C22.4848 11.698 22.5106 11.8955 22.4976 12.0923C22.4846 12.2891 22.4331 12.4814 22.3457 12.6582C22.2583 12.835 22.1368 12.9932 21.9883 13.123L15.4131 18.875C14.9583 19.2748 14.3745 19.497 13.769 19.501L4 19.5ZM2.5 7V17C2.5 17.3978 2.65815 17.7792 2.93945 18.0605C3.22076 18.3419 3.60218 18.5 4 18.5H13.7661C14.13 18.499 14.4815 18.3657 14.7544 18.125L21.3301 12.373C21.3797 12.3299 21.4204 12.2771 21.4497 12.2183C21.479 12.1594 21.4964 12.0958 21.501 12.0303C21.5055 11.9647 21.4975 11.8987 21.4766 11.8364C21.4556 11.7741 21.4226 11.7165 21.3794 11.667L14.7563 5.87695C14.4832 5.63506 14.131 5.50108 13.7661 5.5H4C3.80302 5.5 3.60826 5.53888 3.42627 5.61426C3.24428 5.68964 3.07874 5.80017 2.93945 5.93945C2.80017 6.07874 2.68964 6.24379 2.61426 6.42578C2.53888 6.60777 2.5 6.80302 2.5 7V7ZM10.6484 14.354L9.00146 12.707L7.354 14.354C7.30756 14.4006 7.25264 14.4372 7.19189 14.4624C7.13115 14.4876 7.06577 14.501 7 14.501C6.93423 14.501 6.86934 14.4876 6.80859 14.4624C6.74785 14.4372 6.69244 14.4006 6.646 14.354C6.59943 14.3076 6.5628 14.2522 6.5376 14.1914C6.51239 14.1307 6.49951 14.0658 6.49951 14C6.49951 13.9342 6.51239 13.8689 6.5376 13.8081C6.5628 13.7474 6.59943 13.6924 6.646 13.646L8.29346 12.001L6.646 10.354C6.55211 10.2601 6.49951 10.1328 6.49951 10C6.49951 9.86722 6.55211 9.73988 6.646 9.646C6.73988 9.55211 6.86722 9.49951 7 9.49951C7.13278 9.49951 7.26012 9.55211 7.354 9.646L9.00146 11.293L10.6484 9.646C10.7429 9.55504 10.8689 9.50454 11 9.50586C11.1311 9.50718 11.2565 9.55999 11.3491 9.65283C11.4417 9.74567 11.4942 9.87134 11.4951 10.0024C11.4961 10.1335 11.4452 10.2598 11.354 10.354L9.70703 12.001L11.354 13.646C11.4006 13.6924 11.4377 13.7474 11.4629 13.8081C11.4881 13.8689 11.501 13.9342 11.501 14C11.501 14.0658 11.4881 14.1307 11.4629 14.1914C11.4377 14.2522 11.4006 14.3076 11.354 14.354C11.2603 14.4474 11.1338 14.5 11.0015 14.5C10.8691 14.5 10.7422 14.4474 10.6484 14.354V14.354Z" fill="#56596A"/>
</svg>
