<svg width="24" height="24" viewBox="0 0 24 24" fill="none" xmlns="http://www.w3.org/2000/svg">
<path d="M1.49805 12.0001C1.49805 9.92336 2.11431 7.89328 3.26807 6.16657C4.42182 4.43985 6.06136 3.0941 7.97998 2.29938C9.8986 1.50466 12.0101 1.29658 14.0469 1.70172C16.0837 2.10687 17.9544 3.10681 19.4229 4.57526C20.8913 6.04371 21.8912 7.91492 22.2964 9.95172C22.7015 11.9885 22.4939 14.0995 21.6992 16.0181C20.9045 17.9368 19.5583 19.5768 17.8315 20.7305C16.1048 21.8843 14.0748 22.5001 11.998 22.5001C9.21425 22.4969 6.54559 21.3894 4.57715 19.421C2.6087 17.4525 1.50122 14.7839 1.49805 12.0001ZM2.49805 12.0001C2.49805 13.879 3.05525 15.7156 4.09912 17.2779C5.14299 18.8402 6.62689 20.0579 8.36279 20.7769C10.0987 21.4959 12.0087 21.684 13.8516 21.3174C15.6944 20.9509 17.3872 20.0459 18.7158 18.7173C20.0444 17.3887 20.9494 15.6959 21.3159 13.8531C21.6825 12.0103 21.4939 10.1002 20.7749 8.36432C20.0559 6.62842 18.8386 5.14501 17.2764 4.10114C15.7141 3.05726 13.877 2.50006 11.998 2.50006C9.47964 2.5035 7.06585 3.50532 5.28516 5.28619C3.50446 7.06707 2.50269 9.48165 2.49951 12.0001H2.49805ZM7.83105 14.7769C7.75774 14.6664 7.73156 14.5314 7.75781 14.4014C7.78407 14.2715 7.86074 14.1574 7.97119 14.084L11.4995 11.733V7.00006C11.4995 6.86745 11.5517 6.74031 11.6455 6.64655C11.7393 6.55278 11.8669 6.50006 11.9995 6.50006C12.1321 6.50006 12.2593 6.55278 12.353 6.64655C12.4468 6.74031 12.4995 6.86745 12.4995 7.00006V12.0001C12.4993 12.0824 12.4786 12.1632 12.4399 12.2359C12.4012 12.3086 12.3455 12.3709 12.2773 12.4171L8.52637 14.9171C8.47163 14.9535 8.41023 14.9786 8.3457 14.9913C8.28118 15.004 8.21486 15.0038 8.15039 14.9908C8.08592 14.9778 8.02429 14.9523 7.96973 14.9156C7.91517 14.8789 7.86884 14.8317 7.83252 14.7769H7.83105Z" fill="#56596A"/>
</svg>
