<svg width="24" height="24" viewBox="0 0 24 24" fill="none" xmlns="http://www.w3.org/2000/svg">
<path d="M8.875 22.5C8.29909 22.4989 7.74147 22.2993 7.29541 21.9351C6.84935 21.5708 6.54237 21.0641 6.42627 20.5H6C5.33696 20.5 4.70126 20.2364 4.23242 19.7676C3.76358 19.2987 3.5 18.663 3.5 18V4C3.5 3.33696 3.76358 2.70077 4.23242 2.23193C4.70126 1.76309 5.33696 1.5 6 1.5H15.7515C17.527 2.73919 19.0891 4.25905 20.3765 6V20C20.3765 20.663 20.1129 21.2987 19.644 21.7676C19.1752 22.2364 18.5395 22.5 17.8765 22.5H8.875ZM8.875 21.5H17.875C18.2728 21.5 18.6547 21.3419 18.936 21.0605C19.2173 20.7792 19.375 20.3978 19.375 20V6C19.375 5.66765 19.265 5.34484 19.0615 5.08203C18.8581 4.81922 18.5732 4.63116 18.2515 4.54785V16C18.2515 16.008 18.2515 16.0169 18.2515 16.0249C18.2444 16.1567 18.1853 16.2806 18.0874 16.3691L14.1172 20.3389C14.0621 20.3981 13.9933 20.4429 13.917 20.4697V20.4697L13.8975 20.4761H13.8892H13.873H13.8633H13.8491H13.8374H13.8242H7.46143C7.56077 20.773 7.75033 21.0312 8.00391 21.2148C8.25748 21.3985 8.56192 21.4982 8.875 21.5V21.5ZM4.50146 4V18C4.50146 18.3978 4.65913 18.7792 4.94043 19.0605C5.22173 19.3419 5.60364 19.5 6.00146 19.5H13.2515V16C13.2515 15.8674 13.3037 15.7403 13.3975 15.6465C13.4912 15.5527 13.6189 15.5 13.7515 15.5H17.2515V4C17.2515 3.60218 17.0933 3.22076 16.812 2.93945C16.5307 2.65815 16.1493 2.5 15.7515 2.5H6C5.60235 2.50027 5.22152 2.65818 4.94043 2.93945C4.65934 3.22073 4.50146 3.60235 4.50146 4V4ZM14.2515 18.793L16.5444 16.5H14.2515V18.793ZM10.3774 12.5488C10.2448 12.5488 10.1172 12.4961 10.0234 12.4023C9.92967 12.3086 9.87744 12.1814 9.87744 12.0488C9.87744 11.9162 9.92967 11.7891 10.0234 11.6953C10.1172 11.6015 10.2448 11.5488 10.3774 11.5488H14.3774C14.51 11.5488 14.6372 11.6015 14.731 11.6953C14.8247 11.7891 14.8774 11.9162 14.8774 12.0488C14.8774 12.1814 14.8247 12.3086 14.731 12.4023C14.6372 12.4961 14.51 12.5488 14.3774 12.5488H10.3774ZM7.37744 9.54883C7.24483 9.54883 7.11721 9.49611 7.02344 9.40234C6.92967 9.30858 6.87744 9.18144 6.87744 9.04883C6.87744 8.91622 6.92967 8.78908 7.02344 8.69531C7.11721 8.60154 7.24483 8.54883 7.37744 8.54883H14.3774C14.51 8.54883 14.6372 8.60154 14.731 8.69531C14.8247 8.78908 14.8774 8.91622 14.8774 9.04883C14.8774 9.18144 14.8247 9.30858 14.731 9.40234C14.6372 9.49611 14.51 9.54883 14.3774 9.54883H7.37744ZM7.37744 6.44873C7.24483 6.44873 7.11721 6.39601 7.02344 6.30225C6.92967 6.20848 6.87744 6.08134 6.87744 5.94873C6.87744 5.81612 6.92967 5.68898 7.02344 5.59521C7.11721 5.50145 7.24483 5.44873 7.37744 5.44873H14.3774C14.51 5.44873 14.6372 5.50145 14.731 5.59521C14.8247 5.68898 14.8774 5.81612 14.8774 5.94873C14.8774 6.08134 14.8247 6.20848 14.731 6.30225C14.6372 6.39601 14.51 6.44873 14.3774 6.44873H7.37744Z" fill="#56596A"/>
</svg>
