<svg width="24" height="24" viewBox="0 0 24 24" fill="none" xmlns="http://www.w3.org/2000/svg">
<path d="M16.2705 17.1084C14.6694 17.7537 12.9051 17.8757 11.2305 17.4566C10.5524 17.2476 9.89707 16.9707 9.27444 16.6304C8.33945 16.0823 7.29546 15.7462 6.21633 15.6455C5.2823 15.5824 4.34516 15.703 3.45754 16.0005C3.26937 16.0608 3.07092 16.083 2.87404 16.0664C2.67717 16.0498 2.48551 15.9947 2.31008 15.9038C2.13465 15.813 1.97871 15.6884 1.85158 15.5371C1.72446 15.3859 1.62871 15.2109 1.56936 15.0225C1.52183 14.8772 1.49757 14.7251 1.49807 14.5723V7.5723C1.4965 7.27825 1.58241 6.99023 1.74416 6.74466C1.90592 6.49909 2.13647 6.30707 2.40725 6.19242C3.62819 5.66943 4.95449 5.43912 6.28029 5.51956C7.49427 5.6275 8.66954 6.00073 9.72317 6.61331C10.285 6.92045 10.8756 7.17195 11.4863 7.36429C13.4745 7.8016 15.5546 7.46306 17.3013 6.41751C17.529 6.29735 17.7836 6.23781 18.041 6.24466C18.2984 6.25151 18.55 6.32447 18.771 6.45658C18.992 6.58868 19.1753 6.7756 19.3032 6.99906C19.4312 7.22252 19.4995 7.47498 19.5015 7.73246V11.0972C20.3577 11.2548 21.1295 11.7122 21.6792 12.3872C22.2289 13.0623 22.5206 13.9109 22.5015 14.7813C22.5287 15.7384 22.1755 16.6673 21.5196 17.3648C20.8636 18.0623 19.9584 18.4718 19.0015 18.5035C18.4691 18.4993 17.9448 18.3711 17.4707 18.1289C16.9966 17.8868 16.5859 17.5373 16.2705 17.1084V17.1084ZM18.9995 17.5035C19.5473 17.5498 20.0959 17.4296 20.5742 17.1587C21.0526 16.8879 21.4381 16.4789 21.6802 15.9854C21.9223 15.4918 22.0098 14.9367 21.9312 14.3926C21.8525 13.8485 21.6117 13.3409 21.2398 12.9361C20.8678 12.5313 20.3822 12.2484 19.8467 12.1241C19.3112 11.9997 18.7505 12.0398 18.2383 12.2393C17.7261 12.4388 17.2864 12.7885 16.9761 13.2422C16.6658 13.696 16.4997 14.2325 16.4995 14.7823C16.4978 15.2868 16.6284 15.783 16.8784 16.2212C16.8834 16.2292 16.8881 16.2386 16.8931 16.2466C17.1035 16.6219 17.4088 16.9354 17.7783 17.1558C18.1479 17.3762 18.5693 17.4957 18.9995 17.5025V17.5035ZM6.28615 14.6465C7.49924 14.7557 8.67364 15.1289 9.72707 15.7403C10.2883 16.0487 10.8791 16.3002 11.4903 16.4912C12.912 16.846 14.4087 16.7544 15.7764 16.2285C15.5938 15.7684 15.5005 15.2773 15.5015 14.7823C15.4824 13.9119 15.7735 13.0633 16.3233 12.3882C16.873 11.7132 17.6453 11.2557 18.5015 11.0982V7.73929C18.5 7.65383 18.4762 7.57046 18.4331 7.49662C18.3901 7.42277 18.329 7.36085 18.2554 7.31742C18.1818 7.27398 18.0982 7.25052 18.0127 7.24857C17.9273 7.24661 17.8426 7.26617 17.7671 7.30619C15.795 8.47255 13.4508 8.83799 11.2173 8.32718C10.5438 8.11885 9.89298 7.84369 9.27444 7.5054C8.34002 6.95729 7.29678 6.62059 6.21828 6.51859C5.04914 6.45096 3.88024 6.65599 2.80422 7.1182C2.71439 7.15583 2.63794 7.21939 2.58449 7.30081C2.53104 7.38224 2.50322 7.47784 2.50442 7.57523V14.5752C2.50357 14.6665 2.52787 14.7564 2.57522 14.8345C2.62256 14.9126 2.69113 14.9761 2.77248 15.0176C2.83048 15.0485 2.89402 15.0671 2.95949 15.0728C3.02497 15.0785 3.09089 15.0708 3.15334 15.0503C3.99186 14.7718 4.86989 14.6304 5.75344 14.6314C5.93044 14.6294 6.10811 14.6345 6.28811 14.6455L6.28615 14.6465ZM18.4995 15.3194V14.2452C18.4995 14.1125 18.5518 13.9854 18.6455 13.8916C18.7393 13.7979 18.8669 13.7452 18.9995 13.7452C19.1321 13.7452 19.2593 13.7979 19.353 13.8916C19.4468 13.9854 19.4995 14.1125 19.4995 14.2452V15.3194C19.4995 15.452 19.4468 15.5791 19.353 15.6729C19.2593 15.7667 19.1321 15.8194 18.9995 15.8194C18.8669 15.8194 18.7393 15.7667 18.6455 15.6729C18.5518 15.5791 18.4995 15.452 18.4995 15.3194ZM6.99953 9.66117C6.34994 9.53109 5.68428 9.50028 5.02541 9.56937C4.95908 9.57844 4.8913 9.57417 4.82668 9.55667C4.76206 9.53917 4.70164 9.50862 4.64895 9.46732C4.59626 9.42601 4.55247 9.37453 4.52004 9.31595C4.48761 9.25738 4.4675 9.19308 4.46047 9.1265C4.45344 9.05992 4.45955 8.9928 4.47902 8.92874C4.4985 8.86469 4.53085 8.80485 4.57375 8.75345C4.61665 8.70205 4.66948 8.66004 4.72902 8.62943C4.78856 8.59881 4.85367 8.58022 4.92043 8.57523C5.68076 8.49386 6.44891 8.52988 7.19826 8.68216C7.31978 8.70684 7.42794 8.77618 7.50149 8.87601C7.57503 8.97584 7.60867 9.09932 7.59621 9.22269C7.58375 9.34606 7.52612 9.46038 7.4341 9.54349C7.34208 9.6266 7.22216 9.67252 7.09817 9.6724C7.06415 9.6735 7.03007 9.66956 6.99709 9.66117H6.99953Z" fill="#56596A"/>
</svg>
