<svg width="24" height="24" viewBox="0 0 24 24" fill="none" xmlns="http://www.w3.org/2000/svg">
<path d="M13.4885 22.3988H13.4978H13.4885ZM13.4197 22.3988C13.2994 22.398 13.1834 22.3536 13.093 22.2743C13.0027 22.1949 12.9439 22.0858 12.9275 21.9667C12.9133 21.8374 12.9501 21.708 13.03 21.6053C13.11 21.5027 13.2269 21.4348 13.3557 21.4169C13.4846 21.3989 13.6151 21.4323 13.72 21.5092C13.8249 21.586 13.896 21.7007 13.9177 21.829C13.9275 21.8947 13.9239 21.9614 13.9075 22.0258C13.8911 22.0901 13.8621 22.1505 13.822 22.2035C13.782 22.2565 13.7315 22.301 13.6741 22.3343C13.6167 22.3677 13.5534 22.3892 13.4876 22.3978L13.4197 22.3988ZM10.3596 22.368C10.2387 22.344 10.1319 22.2738 10.0613 22.1727C9.99065 22.0717 9.96179 21.9474 9.98073 21.8256C9.99966 21.7037 10.0649 21.5938 10.1629 21.5189C10.2608 21.4441 10.3836 21.4104 10.5061 21.4242C10.6286 21.438 10.7412 21.4984 10.8201 21.5931C10.899 21.6879 10.9386 21.8095 10.9299 21.9325C10.9213 22.0555 10.8655 22.1705 10.7742 22.2533C10.6829 22.3361 10.563 22.3802 10.4397 22.3768C10.4128 22.3799 10.3856 22.3777 10.3596 22.37V22.368ZM15.8284 21.2489C15.7866 21.1595 15.7726 21.0599 15.7874 20.9623C15.8021 20.8647 15.8455 20.7736 15.9119 20.7006C15.9783 20.6276 16.0647 20.5755 16.1604 20.5516C16.2562 20.5277 16.357 20.5331 16.45 20.5663C16.5429 20.5995 16.6235 20.6595 16.6824 20.7386C16.7413 20.8178 16.7759 20.9125 16.781 21.0111C16.7861 21.1097 16.7616 21.2075 16.7112 21.2924C16.6608 21.3772 16.5868 21.445 16.4978 21.4877C16.4341 21.5234 16.3618 21.5413 16.2888 21.5389C16.1922 21.5407 16.0969 21.5144 16.0149 21.4633C15.9329 21.4121 15.8674 21.3384 15.8264 21.2509L15.8284 21.2489ZM7.36842 21.4188C7.30971 21.3906 7.2575 21.3512 7.21413 21.3026C7.17075 21.254 7.13736 21.1971 7.11598 21.1356C7.09461 21.0741 7.08572 21.0087 7.08961 20.9437C7.09351 20.8787 7.10987 20.8152 7.13844 20.7567C7.17797 20.6769 7.23827 20.6092 7.31276 20.5604C7.38725 20.5117 7.47335 20.4837 7.56227 20.4794C7.6512 20.475 7.73975 20.4947 7.81862 20.536C7.89749 20.5773 7.96391 20.6387 8.011 20.7142C8.05809 20.7898 8.08434 20.8767 8.08668 20.9657C8.08903 21.0547 8.06724 21.1427 8.02418 21.2206C7.98113 21.2985 7.91816 21.3637 7.84157 21.4091C7.76498 21.4544 7.67767 21.4785 7.58864 21.4789C7.51142 21.4797 7.4352 21.4596 7.36842 21.4208V21.4188ZM18.3875 19.7089C18.3434 19.6597 18.3096 19.6023 18.2879 19.5399C18.2661 19.4776 18.2571 19.4115 18.261 19.3456C18.2649 19.2797 18.2818 19.215 18.3108 19.1556C18.3398 19.0963 18.3799 19.0435 18.4295 18.9999C18.4765 18.9489 18.5338 18.9084 18.5974 18.8807C18.6611 18.8531 18.7297 18.8389 18.7991 18.8392C18.8685 18.8396 18.9374 18.8544 19.0007 18.8827C19.0641 18.911 19.1207 18.9519 19.1673 19.0033C19.2139 19.0547 19.2493 19.1152 19.2713 19.181C19.2932 19.2469 19.3012 19.3165 19.2947 19.3856C19.2882 19.4547 19.2674 19.5218 19.2337 19.5824C19.1999 19.643 19.1537 19.6958 19.0984 19.7377C19.0067 19.8236 18.8852 19.8707 18.7595 19.868C18.6201 19.8651 18.4869 19.8087 18.3875 19.7108V19.7089ZM4.78786 19.6268C4.73972 19.5827 4.70074 19.5295 4.6736 19.4701C4.64646 19.4107 4.63152 19.3464 4.62965 19.2811C4.62779 19.2159 4.63915 19.1506 4.66286 19.0897C4.68656 19.0289 4.7223 18.9734 4.76784 18.9266C4.81297 18.8786 4.86689 18.8399 4.92702 18.8129C4.98714 18.7858 5.05204 18.7713 5.11793 18.7694C5.18383 18.7675 5.24925 18.7785 5.31081 18.8021C5.37236 18.8257 5.42905 18.8612 5.47682 18.9066C5.54878 18.976 5.59821 19.0657 5.61891 19.1635C5.63961 19.2612 5.63021 19.3629 5.59254 19.4554C5.55487 19.548 5.49057 19.627 5.40749 19.6825C5.3244 19.738 5.22666 19.7676 5.12672 19.767C5.06413 19.768 5.00204 19.756 4.94411 19.7323C4.88618 19.7086 4.8337 19.6734 4.78981 19.6288L4.78786 19.6268ZM11.0798 19.5018C10.0913 19.3935 9.13368 19.0906 8.26295 18.6102C7.39223 18.1299 6.62542 17.4815 6.00661 16.703C5.38779 15.9246 4.92958 15.0312 4.65797 14.0746C4.38637 13.1179 4.30665 12.1172 4.42409 11.1298C4.54153 10.1423 4.85366 9.18741 5.34206 8.32117C5.83045 7.45492 6.48566 6.69448 7.26979 6.08288C8.05392 5.47129 8.95131 5.02093 9.91041 4.75818C10.8695 4.49542 11.8713 4.42507 12.8577 4.55163C12.9785 4.56612 13.0901 4.62447 13.1712 4.71521C13.2522 4.80595 13.2973 4.92311 13.2981 5.0448C13.299 5.16649 13.2553 5.28446 13.1756 5.37634C13.0958 5.46822 12.9851 5.52763 12.8645 5.54382C11.9365 5.66089 11.0602 6.03595 10.3347 6.62634C9.60921 7.21673 9.06374 7.9988 8.76051 8.88367C8.45729 9.76853 8.40848 10.7209 8.6194 11.6322C8.83032 12.5435 9.29221 13.3773 9.95338 14.0389C10.6146 14.7006 11.4485 15.1633 12.3596 15.3749C13.2708 15.5865 14.2226 15.5383 15.1077 15.2357C15.9928 14.9331 16.7756 14.3881 17.3665 13.663C17.9574 12.9379 18.3327 12.0616 18.4505 11.1337C18.4659 11.0123 18.5253 10.9007 18.6174 10.8202C18.7096 10.7396 18.8281 10.6957 18.9505 10.6967C19.0738 10.6958 19.1931 10.7409 19.2854 10.8226C19.3777 10.9044 19.4364 11.0175 19.4505 11.14C19.5193 11.7297 19.5193 12.3252 19.4505 12.9149C19.2304 14.7434 18.349 16.4279 16.9724 17.6512C15.5958 18.8746 13.8194 19.5524 11.9778 19.556C11.6783 19.5575 11.3791 19.5399 11.0818 19.5038L11.0798 19.5018ZM7.92946 6.90173C6.91564 7.70105 6.16162 8.78286 5.76247 10.0106C5.36331 11.2384 5.33732 12.557 5.68727 13.7997C6.03722 15.0424 6.74759 16.1535 7.72877 16.9926C8.70996 17.8316 9.91754 18.3612 11.1995 18.514C12.6369 18.6808 14.0895 18.367 15.3298 17.6215C16.5701 16.8759 17.5283 15.7406 18.0554 14.3929C17.4935 15.0528 16.7955 15.5829 16.009 15.9471C15.2226 16.3114 14.3665 16.5011 13.4998 16.5028H13.4944C12.2666 16.4971 11.0704 16.1145 10.0672 15.4066C9.06393 14.6988 8.30246 13.6996 7.88551 12.5448C7.46856 11.39 7.41645 10.1351 7.7361 8.94958C8.05575 7.76411 8.73162 6.70556 9.67262 5.91687C9.04412 6.15361 8.45527 6.48468 7.92653 6.8988L7.92946 6.90173ZM20.3875 17.4696C20.3227 17.4415 20.2646 17.4002 20.2171 17.348C20.1695 17.2958 20.1336 17.234 20.1116 17.1669C20.0896 17.0998 20.0822 17.0286 20.0896 16.9584C20.097 16.8881 20.1195 16.8207 20.155 16.7596C20.1906 16.6986 20.2382 16.6455 20.2957 16.6044C20.3531 16.5633 20.4188 16.5348 20.4881 16.5209C20.5573 16.5069 20.6287 16.5082 20.6975 16.5238C20.7664 16.5394 20.8311 16.5692 20.8875 16.6117C20.9449 16.6448 20.9952 16.6889 21.0354 16.7416C21.0756 16.7943 21.1051 16.8547 21.1218 16.9188C21.1386 16.9829 21.1424 17.0495 21.1331 17.1151C21.1238 17.1807 21.1015 17.2437 21.0676 17.3007V17.2919C21.0245 17.3678 20.962 17.4311 20.8865 17.475C20.8109 17.5189 20.7248 17.542 20.6375 17.5419C20.549 17.5435 20.4621 17.5178 20.3884 17.4686L20.3875 17.4696ZM2.85866 17.1698C2.80801 17.0845 2.78381 16.9862 2.78932 16.8871C2.79483 16.788 2.82962 16.6924 2.88942 16.6132C2.94922 16.534 3.03147 16.4747 3.12526 16.4423C3.21905 16.4098 3.32032 16.4057 3.41627 16.431C3.51223 16.4564 3.59828 16.5098 3.66383 16.5843C3.72939 16.6589 3.77153 16.7511 3.78444 16.8495C3.79735 16.9479 3.78071 17.0482 3.73659 17.1371C3.69247 17.226 3.62257 17.2998 3.53639 17.349C3.46228 17.3958 3.37648 17.4197 3.28883 17.4178C3.202 17.4183 3.11661 17.3956 3.04127 17.3524C2.96594 17.3092 2.90314 17.2469 2.85963 17.1718L2.85866 17.1698ZM21.6287 14.7479C21.5643 14.7341 21.5033 14.7073 21.4495 14.6693C21.3957 14.6313 21.3503 14.5828 21.3157 14.5267C21.2811 14.4707 21.2581 14.4083 21.2483 14.3431C21.2385 14.278 21.242 14.2116 21.2586 14.1478C21.2973 14.0284 21.3796 13.9277 21.489 13.8661C21.5984 13.8045 21.7267 13.7865 21.8489 13.8153C21.9711 13.8442 22.0784 13.9178 22.1487 14.0218C22.219 14.1259 22.2476 14.2527 22.2288 14.3768C22.2041 14.4863 22.143 14.5844 22.0559 14.6551C21.9689 14.7259 21.861 14.7652 21.7488 14.767C21.7076 14.766 21.6666 14.7602 21.6267 14.7499L21.6287 14.7479ZM1.73756 14.2289C1.72335 14.1652 1.72214 14.0993 1.73366 14.035C1.74518 13.9708 1.76948 13.9092 1.80495 13.8544C1.84041 13.7995 1.88631 13.7526 1.9402 13.7157C1.99409 13.6788 2.05447 13.6532 2.11842 13.64C2.18272 13.6253 2.24968 13.6231 2.31471 13.6342C2.37974 13.6452 2.44156 13.6692 2.49733 13.7045C2.5531 13.7397 2.60147 13.7858 2.63942 13.8397C2.67737 13.8937 2.70423 13.9545 2.71852 14.0189C2.73262 14.0825 2.73388 14.1482 2.72243 14.2123C2.71097 14.2764 2.68735 14.3377 2.65211 14.3925C2.61688 14.4472 2.57095 14.4941 2.51735 14.5311C2.46375 14.5681 2.40332 14.5943 2.33961 14.6078C2.30361 14.6191 2.26647 14.6259 2.22877 14.6278C2.1139 14.6283 2.00228 14.5891 1.91286 14.517C1.82344 14.4448 1.76146 14.3442 1.73756 14.2318V14.2289ZM21.9675 11.7899C21.8349 11.7938 21.7061 11.7447 21.6096 11.6537C21.5131 11.5626 21.4567 11.4367 21.4529 11.3041C21.4491 11.1715 21.4981 11.0431 21.5891 10.9467C21.6802 10.8502 21.8061 10.7938 21.9387 10.7899C22.0042 10.7835 22.0699 10.7904 22.1326 10.8104C22.1952 10.8304 22.2534 10.863 22.303 10.9061C22.3526 10.9493 22.3927 11.0021 22.4212 11.0614C22.4496 11.1207 22.4658 11.1851 22.4685 11.2509C22.4741 11.3167 22.4667 11.3827 22.4465 11.4457C22.4264 11.5086 22.3937 11.5672 22.3508 11.6176C22.308 11.6679 22.2555 11.7092 22.1965 11.7391C22.1376 11.7691 22.0735 11.787 22.0076 11.7919L21.9675 11.7899ZM1.99782 11.639C1.93216 11.6337 1.86794 11.6149 1.80934 11.5848C1.75074 11.5547 1.69864 11.5135 1.65602 11.4633C1.6134 11.413 1.58096 11.3551 1.56081 11.2924C1.54065 11.2296 1.53345 11.1637 1.53883 11.098C1.54422 11.0324 1.56244 10.9681 1.59254 10.9095C1.62265 10.8509 1.66389 10.7988 1.71413 10.7562C1.76436 10.7136 1.8223 10.6812 1.88502 10.661C1.94775 10.6409 2.01419 10.6337 2.07985 10.639C2.21238 10.6542 2.33374 10.7197 2.4192 10.8221C2.50467 10.9246 2.54766 11.0557 2.53883 11.1888C2.5249 11.312 2.46592 11.4258 2.37379 11.5087C2.28167 11.5916 2.16277 11.6381 2.03883 11.639H1.99782ZM20.8577 8.54773C20.8335 8.48731 20.8214 8.42284 20.8225 8.35779C20.8236 8.29273 20.8379 8.2284 20.864 8.16882C20.8902 8.10925 20.9277 8.05544 20.9749 8.01062C21.022 7.96579 21.0776 7.93069 21.1384 7.90759C21.2005 7.87881 21.2683 7.8634 21.3367 7.86169C21.4051 7.85999 21.4729 7.87216 21.5364 7.89783C21.5998 7.92349 21.6573 7.96183 21.7053 8.01062C21.7533 8.05941 21.7906 8.11766 21.8152 8.18152C21.8398 8.24538 21.8512 8.31382 21.8484 8.3822C21.8456 8.45058 21.8289 8.51736 21.7991 8.57898C21.7693 8.64059 21.7269 8.69544 21.6751 8.74011C21.6232 8.78478 21.5632 8.81839 21.4978 8.83874C21.4398 8.85857 21.3789 8.86928 21.3176 8.86999C21.2175 8.8706 21.1196 8.83989 21.0374 8.78259C20.9552 8.72529 20.8927 8.6439 20.8587 8.54968L20.8577 8.54773ZM2.53786 8.69861C2.41583 8.64792 2.31862 8.55106 2.26784 8.42908C2.21706 8.30709 2.21685 8.17003 2.26686 8.04773C2.29059 7.98627 2.32629 7.93031 2.37233 7.88318C2.41836 7.83605 2.47355 7.79896 2.53444 7.7738C2.59533 7.74864 2.66046 7.73581 2.72633 7.73669C2.79221 7.73758 2.85755 7.7519 2.91774 7.77869C3.04072 7.82785 3.13887 7.9241 3.19118 8.04577C3.24348 8.16745 3.24548 8.30454 3.19655 8.42761C3.15707 8.51956 3.0916 8.5981 3.00807 8.6532C2.92454 8.70829 2.82688 8.73758 2.72682 8.73767C2.66199 8.73925 2.59768 8.72585 2.53883 8.69861H2.53786ZM19.4378 6.08679C19.3573 5.98269 19.3203 5.85132 19.3352 5.72058C19.3502 5.58984 19.4159 5.46985 19.5178 5.3866C19.5951 5.32469 19.6887 5.28712 19.7874 5.27868C19.8861 5.27025 19.9853 5.29134 20.072 5.33923C20.1587 5.38712 20.2293 5.4597 20.2747 5.54773C20.3201 5.63575 20.3382 5.73546 20.3269 5.83386C20.3157 5.93226 20.2753 6.02495 20.2112 6.10046C20.1471 6.17598 20.0623 6.23108 19.9671 6.25818C19.8718 6.28527 19.7703 6.28329 19.676 6.25281C19.5818 6.22232 19.4991 6.16455 19.4378 6.08679ZM3.93776 6.05994C3.84026 5.97306 3.77999 5.85175 3.76979 5.72156C3.75959 5.59137 3.80029 5.4622 3.88307 5.3612C3.96586 5.26021 4.08447 5.19512 4.21413 5.17956C4.34379 5.16401 4.47406 5.19915 4.57838 5.27771C4.68006 5.3644 4.74342 5.48783 4.75465 5.62097C4.76589 5.75411 4.72415 5.88614 4.63844 5.98865C4.59281 6.04558 4.53505 6.09141 4.46901 6.12244C4.40297 6.15346 4.33054 6.16907 4.25758 6.16785C4.14301 6.16538 4.032 6.12849 3.93874 6.06189L3.93776 6.05994ZM17.3587 4.16003C17.2514 4.08223 17.1783 3.96607 17.1541 3.83581C17.1299 3.70556 17.1566 3.57095 17.2288 3.45984C17.3042 3.34991 17.42 3.27426 17.551 3.24988C17.6821 3.2255 17.8176 3.2545 17.9275 3.32995C18.0374 3.40541 18.1131 3.52113 18.1375 3.65222C18.1618 3.78331 18.1328 3.91875 18.0574 4.02868C18.0111 4.09372 17.9501 4.14694 17.8792 4.18347C17.8082 4.22 17.7295 4.23876 17.6497 4.23865C17.5474 4.24179 17.4465 4.21502 17.3596 4.16101L17.3587 4.16003ZM6.05885 3.94079C6.02167 3.88656 5.99529 3.82555 5.98219 3.76111C5.96909 3.69667 5.96913 3.63024 5.98219 3.56579C5.99525 3.50135 6.02122 3.43988 6.05836 3.38562C6.09551 3.33136 6.14314 3.28536 6.1985 3.24988C6.30847 3.18962 6.43712 3.1729 6.55885 3.203C6.68058 3.23311 6.78652 3.3079 6.85573 3.41247C6.92494 3.51704 6.95225 3.64364 6.93239 3.76745C6.91253 3.89127 6.84723 4.00325 6.74879 4.08093C6.67097 4.13888 6.57677 4.17055 6.47975 4.17175C6.39558 4.17301 6.31234 4.15219 6.23854 4.11169C6.16474 4.0712 6.10301 4.01246 6.05885 3.94079V3.94079ZM14.8089 2.9198C14.746 2.90131 14.6872 2.87038 14.6365 2.82898C14.5857 2.78757 14.5437 2.73643 14.513 2.67859C14.4822 2.62075 14.4632 2.5573 14.4573 2.49206C14.4514 2.42683 14.4589 2.36113 14.4788 2.2987C14.4963 2.23537 14.5265 2.17615 14.5676 2.12488C14.6087 2.0736 14.6595 2.03124 14.7175 2.00036C14.7756 1.96949 14.8396 1.95114 14.905 1.94568C14.9705 1.94022 15.0361 1.94778 15.0984 1.96863C15.1611 1.98726 15.2196 2.0181 15.2703 2.05945C15.3209 2.10079 15.363 2.15217 15.3938 2.20984C15.4246 2.26751 15.4433 2.3303 15.4495 2.39538C15.4557 2.46047 15.4488 2.52631 15.4295 2.58874C15.4006 2.69071 15.3392 2.78034 15.2542 2.84363C15.1692 2.90692 15.0657 2.94042 14.9597 2.93884C14.9086 2.94238 14.8575 2.93588 14.8089 2.9198V2.9198ZM8.69752 2.54968C8.66045 2.42106 8.67572 2.28308 8.73952 2.1654C8.80331 2.04773 8.91082 1.95989 9.03883 1.92077C9.10287 1.89863 9.17047 1.89001 9.23805 1.8949C9.30563 1.89979 9.37172 1.91796 9.4319 1.9491C9.49208 1.98023 9.54511 2.02323 9.58815 2.07556C9.63119 2.12789 9.66297 2.18872 9.6819 2.25378C9.70083 2.31884 9.70675 2.38673 9.6985 2.45398C9.69025 2.52123 9.66814 2.58634 9.63405 2.6449C9.59996 2.70345 9.55418 2.75442 9.49977 2.7948C9.44536 2.83518 9.38356 2.86409 9.31764 2.87976C9.27311 2.89702 9.22509 2.90388 9.17751 2.89978C9.07111 2.8983 8.96807 2.86384 8.88209 2.80115C8.79612 2.73846 8.73146 2.65053 8.69752 2.54968V2.54968ZM11.4978 1.99988C11.4978 1.90099 11.5269 1.80427 11.5818 1.72204C11.6367 1.63982 11.715 1.57581 11.8064 1.53796C11.8978 1.50012 11.998 1.49035 12.095 1.50964C12.192 1.52893 12.2814 1.57643 12.3513 1.64636C12.4213 1.71629 12.4688 1.80523 12.4881 1.90222C12.5073 1.99921 12.4976 2.09992 12.4597 2.19128C12.4219 2.28265 12.3579 2.36046 12.2756 2.4154C12.1934 2.47034 12.0967 2.49988 11.9978 2.49988C11.9322 2.49975 11.867 2.48655 11.8064 2.4613C11.7458 2.43605 11.6906 2.39894 11.6443 2.35242C11.598 2.30589 11.5614 2.25102 11.5364 2.19031C11.5114 2.12959 11.4987 2.06456 11.4988 1.9989L11.4978 1.99988Z" fill="#56596A"/>
</svg>
