<svg width="24" height="24" viewBox="0 0 24 24" fill="none" xmlns="http://www.w3.org/2000/svg">
<path d="M16.8472 22.5H7.14111C6.50905 22.4982 5.90089 22.2576 5.43848 21.8267C4.97606 21.3958 4.69383 20.8061 4.64746 20.1758L3.69141 6.70996H2C1.86739 6.70996 1.74025 6.65724 1.64648 6.56348C1.55272 6.46971 1.5 6.34257 1.5 6.20996C1.5 6.07735 1.55272 5.95021 1.64648 5.85645C1.74025 5.76268 1.86739 5.70996 2 5.70996H4.12207C4.14104 5.70848 4.16023 5.70848 4.1792 5.70996H7.5V4C7.5 3.33696 7.76358 2.70077 8.23242 2.23193C8.70126 1.76309 9.33696 1.5 10 1.5H14C14.663 1.5 15.2992 1.76309 15.7681 2.23193C16.2369 2.70077 16.5 3.33696 16.5 4V5.71094H19.8164C19.835 5.70948 19.8534 5.70948 19.8721 5.71094H21.999C22.1316 5.71094 22.2593 5.76365 22.353 5.85742C22.4468 5.95119 22.499 6.07833 22.499 6.21094C22.499 6.34355 22.4468 6.47068 22.353 6.56445C22.2593 6.65822 22.1316 6.71094 21.999 6.71094H20.2993L19.3433 20.1768C19.2964 20.808 19.0129 21.3981 18.5493 21.8291C18.0857 22.2601 17.4762 22.5002 16.8433 22.501L16.8472 22.5ZM5.64746 20.105C5.67402 20.4848 5.84324 20.8403 6.12158 21.1001C6.39993 21.3599 6.76672 21.5045 7.14746 21.5049H16.8584C17.2391 21.5045 17.6054 21.3599 17.8838 21.1001C18.1621 20.8403 18.3318 20.4848 18.3584 20.105L19.311 6.70508H4.69043L5.64746 20.105ZM8.50439 4V5.5H15.5044V4C15.5044 3.60218 15.3462 3.22076 15.0649 2.93945C14.7836 2.65815 14.4022 2.5 14.0044 2.5H10.0044C9.80724 2.49974 9.61191 2.53802 9.42969 2.61328C9.24747 2.68855 9.08188 2.79916 8.94238 2.93848C8.80288 3.07779 8.69221 3.24317 8.6167 3.42529C8.54119 3.60741 8.50244 3.80285 8.50244 4H8.50439ZM11.5044 18.6997V9.69971C11.5044 9.5671 11.5571 9.43996 11.6509 9.34619C11.7446 9.25242 11.8718 9.19971 12.0044 9.19971C12.137 9.19971 12.2641 9.25242 12.3579 9.34619C12.4517 9.43996 12.5044 9.5671 12.5044 9.69971V18.6997C12.5044 18.8323 12.4517 18.9595 12.3579 19.0532C12.2641 19.147 12.137 19.1997 12.0044 19.1997C11.8718 19.1997 11.7446 19.147 11.6509 19.0532C11.5571 18.9595 11.5044 18.8323 11.5044 18.6997ZM14.5044 17.6699V10.6699C14.5044 10.5373 14.5571 10.4102 14.6509 10.3164C14.7446 10.2226 14.8718 10.1699 15.0044 10.1699C15.137 10.1699 15.2641 10.2226 15.3579 10.3164C15.4517 10.4102 15.5044 10.5373 15.5044 10.6699V17.6699C15.5044 17.8025 15.4517 17.9297 15.3579 18.0234C15.2641 18.1172 15.137 18.1699 15.0044 18.1699C14.8718 18.1699 14.7446 18.1172 14.6509 18.0234C14.5571 17.9297 14.5044 17.8025 14.5044 17.6699ZM8.50439 17.6699V10.6699C8.50439 10.5373 8.55711 10.4102 8.65088 10.3164C8.74465 10.2226 8.87179 10.1699 9.00439 10.1699C9.137 10.1699 9.26414 10.2226 9.35791 10.3164C9.45168 10.4102 9.50439 10.5373 9.50439 10.6699V17.6699C9.50439 17.8025 9.45168 17.9297 9.35791 18.0234C9.26414 18.1172 9.137 18.1699 9.00439 18.1699C8.87179 18.1699 8.74465 18.1172 8.65088 18.0234C8.55711 17.9297 8.50439 17.8025 8.50439 17.6699Z" fill="#56596A"/>
</svg>
