<svg width="24" height="24" viewBox="0 0 24 24" fill="none" xmlns="http://www.w3.org/2000/svg">
<path d="M6.00195 22.5C5.33891 22.5 4.70273 22.2364 4.23389 21.7676C3.76505 21.2987 3.50195 20.663 3.50195 20V7C3.50195 6.33696 3.76505 5.70077 4.23389 5.23193C4.70273 4.76309 5.33891 4.5 6.00195 4.5H7.50195V2C7.50195 1.86739 7.55418 1.74025 7.64795 1.64648C7.74172 1.55272 7.86934 1.5 8.00195 1.5C8.13456 1.5 8.2617 1.55272 8.35547 1.64648C8.44924 1.74025 8.50195 1.86739 8.50195 2V4.5H15.502V2C15.502 1.86739 15.5542 1.74025 15.6479 1.64648C15.7417 1.55272 15.8693 1.5 16.002 1.5C16.1346 1.5 16.2617 1.55272 16.3555 1.64648C16.4492 1.74025 16.502 1.86739 16.502 2V4.5H18.002C18.665 4.5 19.3007 4.76309 19.7695 5.23193C20.2384 5.70077 20.502 6.33696 20.502 7V20C20.502 20.663 20.2384 21.2987 19.7695 21.7676C19.3007 22.2364 18.665 22.5 18.002 22.5H6.00195ZM4.50195 20C4.50195 20.3978 4.65961 20.7792 4.94092 21.0605C5.22222 21.3419 5.60413 21.5 6.00195 21.5H18.002C18.3998 21.5 18.7812 21.3419 19.0625 21.0605C19.3438 20.7792 19.502 20.3978 19.502 20V11.875H4.50195V20ZM4.50195 7V10.876H19.502V7C19.502 6.60218 19.3438 6.22076 19.0625 5.93945C18.7812 5.65815 18.3998 5.5 18.002 5.5H16.502V8C16.502 8.13261 16.4492 8.25975 16.3555 8.35352C16.2617 8.44728 16.1346 8.5 16.002 8.5C15.8693 8.5 15.7417 8.44728 15.6479 8.35352C15.5542 8.25975 15.502 8.13261 15.502 8V5.5H8.50195V8C8.50195 8.13261 8.44924 8.25975 8.35547 8.35352C8.2617 8.44728 8.13456 8.5 8.00195 8.5C7.86934 8.5 7.74172 8.44728 7.64795 8.35352C7.55418 8.25975 7.50195 8.13261 7.50195 8V5.5H6.00195C5.8048 5.49974 5.60947 5.53802 5.42725 5.61328C5.24503 5.68855 5.07944 5.79916 4.93994 5.93848C4.80044 6.07779 4.68976 6.24317 4.61426 6.42529C4.53875 6.60741 4.49951 6.80285 4.49951 7H4.50195ZM13.6499 18.853C13.5562 18.7593 13.5034 18.6321 13.5034 18.4995C13.5034 18.3669 13.5562 18.2398 13.6499 18.146L14.7959 17H11.0039C10.8713 17 10.7442 16.9473 10.6504 16.8535C10.5566 16.7597 10.5039 16.6326 10.5039 16.5C10.5039 16.3674 10.5566 16.2403 10.6504 16.1465C10.7442 16.0527 10.8713 16 11.0039 16H14.7979L13.6509 14.853C13.5598 14.7587 13.5091 14.6321 13.5103 14.501C13.5114 14.3699 13.564 14.2446 13.6567 14.1519C13.7494 14.0592 13.8748 14.0065 14.0059 14.0054C14.137 14.0042 14.2636 14.0549 14.3579 14.146L16.3579 16.146C16.3697 16.1573 16.3804 16.1694 16.3906 16.1821L16.4009 16.1948L16.4058 16.2017L16.4126 16.2109L16.4209 16.2217V16.23L16.4297 16.2427V16.25L16.439 16.2651L16.4468 16.2827L16.4546 16.3018C16.4546 16.3078 16.4599 16.3148 16.4629 16.3218L16.4697 16.3428L16.4746 16.3638C16.4746 16.3708 16.4746 16.3778 16.4746 16.3848C16.4746 16.3918 16.4746 16.3848 16.4746 16.3848C16.4746 16.3848 16.4746 16.3978 16.4746 16.4038C16.4746 16.4098 16.4746 16.4041 16.4746 16.4111C16.4746 16.4181 16.4746 16.4217 16.4746 16.4277C16.4746 16.4337 16.4746 16.4359 16.4746 16.4399C16.4746 16.4439 16.4746 16.4477 16.4746 16.4517C16.4746 16.4557 16.4746 16.4691 16.4746 16.4771C16.4746 16.4851 16.4746 16.493 16.4746 16.501C16.4746 16.509 16.4746 16.5131 16.4746 16.5181C16.4746 16.5231 16.4746 16.5179 16.4746 16.5249C16.4627 16.6505 16.4037 16.7671 16.3096 16.8511L14.3306 18.8301C14.2841 18.8767 14.2292 18.9133 14.1685 18.9385C14.1077 18.9637 14.0423 18.977 13.9766 18.9771C13.8558 18.9775 13.7393 18.9341 13.6479 18.855L13.6499 18.853ZM7.81299 16.958C7.751 16.9348 7.69536 16.8972 7.65088 16.8481C7.60095 16.8057 7.56369 16.7502 7.54297 16.688C7.51354 16.6291 7.49912 16.5639 7.50098 16.498C7.5003 16.4325 7.51324 16.3674 7.53906 16.3071C7.56489 16.2469 7.60294 16.1927 7.65088 16.1479C7.6941 16.0979 7.75021 16.0607 7.81299 16.04C7.88844 16.0073 7.97083 15.9937 8.05273 16.001C8.13464 16.0083 8.21326 16.036 8.28174 16.0815C8.35022 16.1271 8.40639 16.189 8.44482 16.2617C8.48326 16.3344 8.5029 16.4158 8.50195 16.498C8.50443 16.5637 8.49065 16.6289 8.46191 16.688C8.44046 16.7479 8.40625 16.8026 8.36182 16.8481C8.31447 16.8957 8.25824 16.9332 8.19629 16.959C8.13434 16.9847 8.06806 16.998 8.00098 16.998C7.93562 16.9996 7.8703 16.9865 7.81055 16.96L7.81299 16.958Z" fill="#56596A"/>
</svg>
