<svg width="24" height="24" viewBox="0 0 24 24" fill="none" xmlns="http://www.w3.org/2000/svg">
<path d="M6.64795 22.3555C6.60139 22.309 6.56427 22.2536 6.53906 22.1929C6.51386 22.1321 6.50098 22.0672 6.50098 22.0015C6.50098 21.9357 6.51386 21.8703 6.53906 21.8096C6.56427 21.7488 6.60139 21.6939 6.64795 21.6475L8.79395 19.5015H4.00195C3.33891 19.5015 2.70273 19.2379 2.23389 18.769C1.76505 18.3002 1.50195 17.6645 1.50195 17.0015V9.00147C1.50195 8.33843 1.76505 7.70224 2.23389 7.2334C2.70273 6.76456 3.33891 6.50147 4.00195 6.50147C4.13456 6.50147 4.2617 6.55418 4.35547 6.64795C4.44924 6.74172 4.50195 6.86886 4.50195 7.00147C4.50195 7.13407 4.44924 7.26121 4.35547 7.35498C4.2617 7.44875 4.13456 7.50147 4.00195 7.50147C3.60413 7.50147 3.22222 7.65961 2.94092 7.94092C2.65961 8.22222 2.50195 8.60364 2.50195 9.00147V17.0015C2.50195 17.3993 2.65961 17.7807 2.94092 18.062C3.22222 18.3433 3.60413 18.5015 4.00195 18.5015H8.7959L6.64893 16.3535C6.55504 16.2596 6.50195 16.1323 6.50195 15.9995C6.50195 15.8667 6.55504 15.7394 6.64893 15.6455C6.74281 15.5516 6.87015 15.4985 7.00293 15.4985C7.13571 15.4985 7.26305 15.5516 7.35693 15.6455L10.2119 18.5005H20.0029C20.4008 18.5005 20.7822 18.3423 21.0635 18.061C21.3448 17.7797 21.5029 17.3983 21.5029 17.0005V9.00049C21.5029 8.60266 21.3448 8.22125 21.0635 7.93994C20.7822 7.65864 20.4008 7.50049 20.0029 7.50049C19.8703 7.50049 19.7432 7.44777 19.6494 7.35401C19.5556 7.26024 19.5029 7.1331 19.5029 7.00049C19.5029 6.86788 19.5556 6.74074 19.6494 6.64697C19.7432 6.55321 19.8703 6.50049 20.0029 6.50049C20.666 6.50049 21.3017 6.76358 21.7705 7.23242C22.2393 7.70126 22.5029 8.33745 22.5029 9.00049V17.0005C22.5029 17.6635 22.2393 18.2992 21.7705 18.7681C21.3017 19.2369 20.666 19.5005 20.0029 19.5005H10.21L7.35693 22.3545C7.31049 22.4011 7.25508 22.4377 7.19434 22.4629C7.13359 22.4881 7.0687 22.5015 7.00293 22.5015C6.93716 22.5015 6.87178 22.4881 6.81104 22.4629C6.75029 22.4377 6.69537 22.4011 6.64893 22.3545L6.64795 22.3555ZM11.5649 15.3193C11.3749 15.0893 6.90088 9.61934 6.90088 6.81934C6.86525 6.13377 6.96959 5.44814 7.20752 4.8042C7.44545 4.16026 7.81184 3.57143 8.28467 3.07373C8.7575 2.57604 9.32661 2.17977 9.95752 1.90918C10.5884 1.63859 11.2681 1.49953 11.9546 1.5C12.6411 1.50048 13.3201 1.64064 13.9507 1.91211C14.5812 2.18358 15.1499 2.58075 15.6221 3.0791C16.0942 3.57745 16.4597 4.16677 16.6968 4.81104C16.9338 5.45531 17.0376 6.14066 17.001 6.82617C16.992 9.63417 12.5279 15.0922 12.3369 15.3262C12.29 15.3831 12.2308 15.4294 12.1641 15.4609C12.0973 15.4924 12.0245 15.5088 11.9507 15.5088C11.8769 15.5088 11.804 15.4924 11.7373 15.4609C11.6706 15.4294 11.6118 15.3831 11.5649 15.3262V15.3193ZM7.90088 6.80127C7.90088 8.66227 10.5417 12.4082 11.9507 14.2012C13.3597 12.4012 15.9995 8.65948 15.9995 6.81348V6.79834C16.032 6.24646 15.9516 5.69389 15.7627 5.17432C15.5738 4.65474 15.2806 4.17908 14.9014 3.77686C14.5221 3.37463 14.0647 3.054 13.5571 2.83496C13.0495 2.61592 12.5025 2.50293 11.9497 2.50293C11.3969 2.50293 10.8499 2.61592 10.3423 2.83496C9.83469 3.054 9.37731 3.37463 8.99805 3.77686C8.61878 4.17908 8.32558 4.65474 8.13672 5.17432C7.94786 5.69389 7.86744 6.24646 7.8999 6.79834L7.90088 6.80127ZM9.80078 6.96533C9.80078 6.53911 9.92727 6.12246 10.1641 5.76807C10.4009 5.41368 10.7371 5.13772 11.1309 4.97461C11.5246 4.8115 11.9579 4.76841 12.376 4.85156C12.794 4.93471 13.1781 5.14003 13.4795 5.44141C13.7809 5.74279 13.9862 6.12689 14.0693 6.54492C14.1525 6.96295 14.1099 7.39627 13.9468 7.79004C13.7837 8.18382 13.5072 8.52053 13.1528 8.75733C12.7984 8.99412 12.3818 9.12061 11.9556 9.12061C11.6722 9.12087 11.3917 9.06525 11.1299 8.95703C10.868 8.84881 10.6302 8.68996 10.4297 8.48975C10.2292 8.28953 10.07 8.05175 9.96143 7.79004C9.85284 7.52833 9.79701 7.2477 9.79688 6.96436L9.80078 6.96533ZM10.8008 6.96533C10.8006 7.19381 10.8683 7.41735 10.9951 7.60742C11.1219 7.79749 11.3022 7.94563 11.5132 8.0332C11.7242 8.12078 11.9566 8.14358 12.1807 8.09912C12.4048 8.05467 12.6103 7.94518 12.772 7.78369C12.9336 7.6222 13.0437 7.41597 13.0884 7.1919C13.133 6.96782 13.1103 6.73552 13.0229 6.52442C12.9356 6.31331 12.7876 6.13331 12.5977 6.00635C12.4077 5.87939 12.184 5.81152 11.9556 5.81152C11.8037 5.811 11.6532 5.84028 11.5127 5.89795C11.3722 5.95562 11.2444 6.04038 11.1367 6.14746C11.029 6.25454 10.9433 6.38181 10.8848 6.52197C10.8262 6.66214 10.7963 6.81246 10.7959 6.96436L10.8008 6.96533Z" fill="#56596A"/>
</svg>
