<svg width="24" height="24" viewBox="0 0 24 24" fill="none" xmlns="http://www.w3.org/2000/svg">
<path d="M8 22.5C7.33696 22.5 6.70102 22.2364 6.23218 21.7676C5.76334 21.2987 5.5 20.663 5.5 20V4C5.5 3.33696 5.76334 2.70102 6.23218 2.23218C6.70102 1.76334 7.33696 1.5 8 1.5H16C16.663 1.5 17.299 1.76334 17.7678 2.23218C18.2367 2.70102 18.5 3.33696 18.5 4V20C18.5 20.663 18.2367 21.2987 17.7678 21.7676C17.299 22.2364 16.663 22.5 16 22.5H8ZM6.5 4V20C6.5 20.3978 6.65815 20.7792 6.93945 21.0605C7.22076 21.3419 7.60218 21.5 8 21.5H16C16.3978 21.5 16.7795 21.3419 17.0608 21.0605C17.3421 20.7792 17.5 20.3978 17.5 20V4C17.5 3.60218 17.3421 3.22051 17.0608 2.93921C16.7795 2.6579 16.3978 2.5 16 2.5H8C7.60218 2.5 7.22076 2.6579 6.93945 2.93921C6.65815 3.22051 6.5 3.60218 6.5 4V4ZM11 19.8079C11 19.5426 11.1054 19.2884 11.293 19.1008C11.4805 18.9133 11.7348 18.8079 12 18.8079C12.2652 18.8079 12.5195 18.9133 12.707 19.1008C12.8946 19.2884 13 19.5426 13 19.8079C13 20.0731 12.8946 20.3274 12.707 20.5149C12.5195 20.7024 12.2652 20.8079 12 20.8079C11.7351 20.8079 11.4812 20.7027 11.2937 20.5156C11.1062 20.3285 11.0005 20.0747 11 19.8098V19.8079ZM10 4.55493C9.86739 4.55493 9.74025 4.50222 9.64648 4.40845C9.55272 4.31468 9.5 4.18754 9.5 4.05493C9.5 3.92232 9.55272 3.79518 9.64648 3.70142C9.74025 3.60765 9.86739 3.55493 10 3.55493H14C14.1326 3.55493 14.2597 3.60765 14.3535 3.70142C14.4473 3.79518 14.5 3.92232 14.5 4.05493C14.5 4.18754 14.4473 4.31468 14.3535 4.40845C14.2597 4.50222 14.1326 4.55493 14 4.55493H10Z" fill="#56596A"/>
</svg>
