<svg width="16" height="17" viewBox="0 0 16 17" fill="none" xmlns="http://www.w3.org/2000/svg">
<path d="M8 16.0426C12.4183 16.0426 16 12.4609 16 8.0426C16 3.62432 12.4183 0.0426025 8 0.0426025C3.58172 0.0426025 0 3.62432 0 8.0426C0 12.4609 3.58172 16.0426 8 16.0426Z" fill="#F58122"/>
<path d="M8.00186 10.442C7.94932 10.4421 7.89728 10.4317 7.84872 10.4117C7.80017 10.3916 7.75605 10.3622 7.71887 10.325L5.71887 8.32502C5.68168 8.28787 5.65218 8.24376 5.63205 8.1952C5.61192 8.14664 5.60156 8.09459 5.60156 8.04202C5.60156 7.98946 5.61192 7.93741 5.63205 7.88885C5.65218 7.84029 5.68168 7.79617 5.71887 7.75903C5.79386 7.68422 5.89545 7.64221 6.00137 7.64221C6.10729 7.64221 6.20889 7.68422 6.28387 7.75903L8.00186 9.47702L9.71887 7.75903C9.79386 7.68422 9.89545 7.64221 10.0014 7.64221C10.1073 7.64221 10.2089 7.68422 10.2839 7.75903C10.3211 7.79617 10.3506 7.84029 10.3707 7.88885C10.3908 7.93741 10.4012 7.98946 10.4012 8.04202C10.4012 8.09459 10.3908 8.14664 10.3707 8.1952C10.3506 8.24376 10.3211 8.28787 10.2839 8.32502L8.28387 10.325C8.20904 10.3998 8.10763 10.4418 8.00186 10.442Z" fill="#F4F4FA"/>
<path d="M12.0016 12.4422H4.00156C3.89547 12.4422 3.79373 12.4001 3.71872 12.3251C3.6437 12.25 3.60156 12.1483 3.60156 12.0422C3.60156 11.9361 3.6437 11.8344 3.71872 11.7594C3.79373 11.6844 3.89547 11.6422 4.00156 11.6422H12.0016C12.1076 11.6422 12.2094 11.6844 12.2844 11.7594C12.3594 11.8344 12.4016 11.9361 12.4016 12.0422C12.4016 12.1483 12.3594 12.25 12.2844 12.3251C12.2094 12.4001 12.1076 12.4422 12.0016 12.4422Z" fill="#F4F4FA"/>
<path d="M8.00156 10.4422C7.89547 10.4422 7.79373 10.4001 7.71872 10.3251C7.6437 10.25 7.60156 10.1483 7.60156 10.0422V4.04221C7.60156 3.93612 7.6437 3.83438 7.71872 3.75937C7.79373 3.68435 7.89547 3.64221 8.00156 3.64221C8.10764 3.64221 8.20941 3.68435 8.28442 3.75937C8.35944 3.83438 8.40158 3.93612 8.40158 4.04221V10.0422C8.40158 10.1483 8.35944 10.25 8.28442 10.3251C8.20941 10.4001 8.10764 10.4422 8.00156 10.4422Z" fill="#F4F4FA"/>
</svg>
