<svg width="24" height="24" viewBox="0 0 24 24" fill="none" xmlns="http://www.w3.org/2000/svg">
<path d="M5.18391 19.9823C5.15208 19.9604 5.12297 19.9347 5.097 19.9061C3.63002 18.6256 2.5481 16.9625 1.972 15.1024C1.3959 13.2423 1.3484 11.2589 1.83479 9.37338C2.32118 7.48786 3.32241 5.77442 4.7264 4.42514C6.13038 3.07585 7.88164 2.14386 9.78499 1.73275C11.6883 1.32165 13.6685 1.44797 15.5042 2.0975C17.3399 2.74704 18.9593 3.89429 20.1805 5.41098C21.4017 6.92766 22.1768 8.75385 22.4198 10.6859C22.6627 12.6179 22.3637 14.5796 21.556 16.3514C21.5452 16.3831 21.5311 16.4134 21.514 16.4422C20.8303 17.9086 19.8172 19.1972 18.5531 20.2069C17.2889 21.2166 15.8081 21.9199 14.2269 22.2625C12.6457 22.6052 11.007 22.5778 9.43831 22.182C7.86959 21.7862 6.41328 21.0331 5.18391 19.9813V19.9823ZM11.9989 21.5023C13.7839 21.5008 15.5329 20.997 17.0452 20.0487C18.5575 19.1003 19.7724 17.7458 20.5511 16.1395L18.5433 8.60727L16.9891 15.6073C16.9685 15.7228 16.906 15.8266 16.8138 15.8993C16.7216 15.9719 16.6062 16.0083 16.4891 16.0013C16.373 15.9973 16.2617 15.9536 16.1741 15.8773C16.0866 15.801 16.028 15.6968 16.0081 15.5824L15.408 11.9535L14.991 13.6224C14.9659 13.7213 14.9114 13.81 14.8343 13.8768C14.7572 13.9436 14.6613 13.9855 14.5599 13.9964C14.4584 14.0073 14.3559 13.9868 14.2664 13.9378C14.1769 13.8889 14.1045 13.8138 14.0589 13.7225L13.1971 11.9994H10.8153L9.05989 15.5121L11.72 21.4954C11.808 21.4994 11.9039 21.4994 11.9989 21.4994V21.5023ZM10.5731 21.3954L8.04329 15.7054C8.01533 15.6424 8.00072 15.5741 8.00032 15.5052C8.00092 15.5826 7.98285 15.6592 7.94807 15.7284L6.09212 19.4383C7.38804 20.4735 8.93332 21.1497 10.5731 21.3993V21.3954ZM5.31819 18.7484L6.94124 15.5023L5.19222 12.0023H2.50032C2.49987 13.2572 2.74849 14.4997 3.23225 15.6576C3.71601 16.8155 4.42513 17.8658 5.31819 18.7474V18.7484ZM7.9471 15.2772C7.98187 15.3463 7.99945 15.4229 7.99886 15.5003C7.9993 15.4229 8.01765 15.3465 8.05208 15.2772L9.69026 12.0013H6.30891L7.9471 15.2772ZM18.9823 6.37729L21.158 14.5365C21.506 13.2712 21.5883 11.9473 21.3992 10.6488C21.2102 9.35022 20.7541 8.1051 20.0599 6.99154C19.3657 5.87798 18.4483 4.91994 17.3656 4.17855C16.2828 3.43716 15.0581 2.92852 13.7689 2.68393C12.4796 2.43933 11.1539 2.46435 9.87483 2.75766C8.5958 3.05096 7.39107 3.60612 6.33723 4.38803C5.2834 5.16994 4.40329 6.16154 3.75179 7.30063C3.10029 8.43971 2.69173 9.70141 2.55208 11.0062H3.19124L4.05306 9.28305C4.09912 9.20554 4.16463 9.1416 4.243 9.09701C4.32136 9.05243 4.41016 9.02914 4.50032 9.02914C4.59048 9.02914 4.67879 9.05243 4.75716 9.09701C4.83552 9.1416 4.90103 9.20554 4.9471 9.28305L5.80891 11.0062H10.1912L11.0521 9.28305C11.0981 9.20531 11.1636 9.14126 11.242 9.09652C11.3205 9.05178 11.4095 9.02816 11.4998 9.02816C11.5902 9.02816 11.6787 9.05178 11.7572 9.09652C11.8356 9.14126 11.9011 9.20531 11.9471 9.28305L12.8079 11.0062H13.4989C13.5918 11.006 13.6834 11.0317 13.7625 11.0804C13.8417 11.1292 13.9055 11.199 13.9471 11.2821L14.347 12.0731L15.0179 9.3851C15.0498 9.27562 15.1166 9.17953 15.2078 9.11117C15.2991 9.04282 15.4102 9.00598 15.5242 9.00619C15.6393 9.0109 15.7491 9.05534 15.8353 9.13168C15.9215 9.20802 15.9783 9.31152 15.9969 9.42514L16.5741 12.8851L18.0159 6.39731C18.0401 6.288 18.1004 6.19006 18.1868 6.11898C18.2733 6.04791 18.3811 6.00773 18.493 6.00522C18.5151 6.00106 18.5374 5.99919 18.5599 5.99936C18.6606 6.00924 18.7559 6.05057 18.8319 6.11752C18.9078 6.18447 18.9608 6.27369 18.9832 6.3724L18.9823 6.37729ZM11.3079 11.0062H11.6912L11.5013 10.6234L11.3079 11.0062ZM4.30794 11.0062H4.69026L4.49788 10.6234L4.30794 11.0062Z" fill="#56596A"/>
</svg>
