<svg width="24" height="24" viewBox="0 0 24 24" fill="none" xmlns="http://www.w3.org/2000/svg">
<path d="M4.00195 21.4987C3.33891 21.4987 2.70273 21.2351 2.23389 20.7663C1.76505 20.2974 1.50195 19.6617 1.50195 18.9987V8.99868C1.50195 8.33564 1.76505 7.69946 2.23389 7.23062C2.70273 6.76178 3.33891 6.49868 4.00195 6.49868H8.84082C8.97343 6.49868 9.10057 6.5514 9.19434 6.64517C9.2881 6.73894 9.34082 6.86608 9.34082 6.99868C9.34082 7.13129 9.2881 7.25843 9.19434 7.3522C9.10057 7.44597 8.97343 7.49868 8.84082 7.49868H4.00195C3.60413 7.49868 3.22222 7.65683 2.94092 7.93814C2.65961 8.21944 2.50195 8.60086 2.50195 8.99868V18.9987C2.50195 19.3965 2.65961 19.7779 2.94092 20.0592C3.22222 20.3405 3.60413 20.4987 4.00195 20.4987H20.002C20.3998 20.4987 20.7812 20.3405 21.0625 20.0592C21.3438 19.7779 21.502 19.3965 21.502 18.9987V14.9987C21.502 14.8661 21.5542 14.7389 21.6479 14.6452C21.7417 14.5514 21.8693 14.4987 22.002 14.4987C22.1346 14.4987 22.2617 14.5514 22.3555 14.6452C22.4492 14.7389 22.502 14.8661 22.502 14.9987V18.9987C22.502 19.6617 22.2384 20.2974 21.7695 20.7663C21.3007 21.2351 20.665 21.4987 20.002 21.4987H4.00195ZM19.1479 18.8527L17.0039 16.7086C16.9102 16.6148 16.8573 16.4873 16.8574 16.3546C16.8575 16.222 16.9105 16.0949 17.0044 16.0011C17.0983 15.9074 17.2252 15.8545 17.3579 15.8546C17.4906 15.8547 17.6182 15.9077 17.7119 16.0016L19.8535 18.1457C19.9001 18.1921 19.9372 18.247 19.9624 18.3078C19.9876 18.3685 20.0005 18.4339 20.0005 18.4997C20.0005 18.5654 19.9876 18.6303 19.9624 18.6911C19.9372 18.7518 19.9001 18.8072 19.8535 18.8537C19.8077 18.9005 19.7533 18.9378 19.6929 18.963C19.6324 18.9883 19.5675 19.001 19.502 19.0006C19.3694 19.0011 19.2421 18.949 19.1479 18.8556V18.8527ZM4.14795 18.8527C4.10139 18.8062 4.06427 18.7508 4.03906 18.6901C4.01386 18.6293 4.00098 18.5645 4.00098 18.4987C4.00098 18.4329 4.01386 18.3675 4.03906 18.3068C4.06427 18.246 4.10139 18.1911 4.14795 18.1447L8.29395 13.9987L4.14795 9.85269C4.05406 9.7588 4.00098 9.63146 4.00098 9.49868C4.00098 9.36591 4.05406 9.23857 4.14795 9.14468C4.24184 9.05079 4.36918 8.9982 4.50195 8.9982C4.63473 8.9982 4.76207 9.05079 4.85596 9.14468L9.33496 13.6256L9.35596 13.6447C9.36333 13.6516 9.37034 13.659 9.37695 13.6667L10.9399 15.2296C11.2005 15.4903 11.5476 15.6458 11.9155 15.6667C12.0481 15.6705 12.1741 15.7269 12.2651 15.8234C12.3562 15.9199 12.4052 16.0487 12.4014 16.1813C12.3975 16.3139 12.3411 16.4394 12.2446 16.5304C12.1481 16.6215 12.0193 16.6705 11.8867 16.6667H11.8579C11.2451 16.6314 10.6667 16.3719 10.2329 15.9376L9.00391 14.7077L4.85791 18.8537C4.81194 18.9003 4.75673 18.9373 4.69629 18.9626C4.63585 18.9878 4.57136 19.0007 4.50586 19.0006C4.43939 19.0015 4.37317 18.9889 4.31152 18.964C4.24988 18.9391 4.19368 18.9024 4.14648 18.8556L4.14795 18.8527ZM10.5127 8.95279C10.4906 8.65319 10.4906 8.35199 10.5127 8.05239C10.6298 6.4655 11.3727 4.99015 12.5776 3.95083C13.7825 2.91152 15.3506 2.39337 16.9375 2.5104C18.4735 2.6669 19.8958 3.39149 20.9253 4.54214C21.9548 5.69279 22.5176 7.18672 22.5029 8.73062V9.74673C22.5029 10.2402 22.3406 10.7199 22.041 11.112C21.7415 11.5041 21.3213 11.7864 20.8452 11.9162C20.3692 12.0459 19.8633 12.0156 19.4062 11.8297C18.9492 11.6438 18.5663 11.3125 18.3159 10.8874C17.9184 11.1898 17.4506 11.3871 16.9565 11.4606C16.8045 11.4852 16.6506 11.4973 16.4966 11.4967C16.024 11.4955 15.5589 11.3824 15.1382 11.1671C14.7175 10.9519 14.3536 10.6405 14.0762 10.258C13.7987 9.87546 13.6155 9.43268 13.5415 8.96597C13.4675 8.49926 13.5048 8.02197 13.6504 7.57241C13.796 7.12286 14.0454 6.71381 14.3789 6.37906C14.7124 6.0443 15.1203 5.7934 15.5693 5.64614C16.0183 5.49888 16.4959 5.45967 16.9629 5.53189C17.4299 5.60411 17.8733 5.78566 18.2568 6.06167C18.3326 6.01908 18.418 5.99675 18.5049 5.99673C18.6375 5.99673 18.7646 6.04945 18.8584 6.14322C18.9522 6.23698 19.0049 6.36412 19.0049 6.49673V6.98648C19.0054 6.99213 19.0054 6.99791 19.0049 7.00357V9.74673C18.9981 9.91509 19.0252 10.0829 19.085 10.2404C19.1447 10.3979 19.2358 10.5417 19.3525 10.6632C19.4693 10.7847 19.6096 10.8814 19.7646 10.9474C19.9197 11.0134 20.0864 11.0475 20.2549 11.0475C20.4234 11.0475 20.5901 11.0134 20.7451 10.9474C20.9001 10.8814 21.04 10.7847 21.1567 10.6632C21.2735 10.5417 21.3645 10.3979 21.4243 10.2404C21.4841 10.0829 21.5116 9.91509 21.5049 9.74673V8.72378C21.519 7.43125 21.0498 6.17968 20.1895 5.21499C19.3291 4.25031 18.1392 3.64172 16.8535 3.50845C15.5338 3.41724 14.2317 3.85184 13.231 4.71695C12.2302 5.58205 11.6123 6.80762 11.5117 8.12661C11.4917 8.37154 11.4917 8.61753 11.5117 8.86245C11.6459 10.1305 12.2432 11.3046 13.189 12.1598C14.1348 13.015 15.3626 13.4915 16.6377 13.4977H19.5039C19.6365 13.4977 19.7637 13.5504 19.8574 13.6442C19.9512 13.738 20.0039 13.8651 20.0039 13.9977C20.0039 14.1303 19.9512 14.2575 19.8574 14.3512C19.7637 14.445 19.6365 14.4977 19.5039 14.4977H16.6318C15.1086 14.4888 13.6418 13.9186 12.5127 12.8961C11.3836 11.8736 10.6712 10.4707 10.5117 8.95572L10.5127 8.95279ZM14.8896 7.3146C14.5935 7.73043 14.4675 8.2435 14.5376 8.74917C14.6077 9.25484 14.8685 9.71473 15.2666 10.0343C15.6647 10.3539 16.1698 10.5093 16.6787 10.4684C17.1876 10.4275 17.6619 10.1936 18.0039 9.8146C18.0039 9.7916 18.0039 9.76875 18.0039 9.74575V7.17154C17.8063 6.94719 17.5607 6.77001 17.2856 6.65298C17.0106 6.53595 16.7127 6.48203 16.4141 6.49527C16.1154 6.50851 15.8237 6.58873 15.5601 6.72964C15.2964 6.87055 15.0676 7.06877 14.8906 7.30972L14.8896 7.3146Z" fill="#56596A"/>
</svg>
