<svg width="24" height="25" viewBox="0 0 24 25" fill="none" xmlns="http://www.w3.org/2000/svg">
<g opacity="0.153">
<path opacity="0.153" d="M12 22.0426C17.5228 22.0426 22 17.5655 22 12.0426C22 6.51975 17.5228 2.0426 12 2.0426C6.47715 2.0426 2 6.51975 2 12.0426C2 17.5655 6.47715 22.0426 12 22.0426Z" fill="#57C5D0"/>
</g>
<path d="M12.001 6.5426C12.2662 6.5426 12.5206 6.64797 12.7081 6.8355C12.8956 7.02304 13.001 7.27739 13.001 7.5426V16.5426C13.001 16.8078 12.8956 17.0622 12.7081 17.2497C12.5206 17.4372 12.2662 17.5426 12.001 17.5426C11.7358 17.5426 11.4814 17.4372 11.2939 17.2497C11.1064 17.0622 11.001 16.8078 11.001 16.5426V7.5426C11.001 7.27739 11.1064 7.02304 11.2939 6.8355C11.4814 6.64797 11.7358 6.5426 12.001 6.5426Z" fill="#57C5D0"/>
<path d="M17.501 12.0426C17.501 12.3078 17.3956 12.5622 17.2081 12.7497C17.0206 12.9372 16.7662 13.0426 16.501 13.0426H7.50101C7.23579 13.0426 6.98144 12.9372 6.7939 12.7497C6.60636 12.5622 6.50101 12.3078 6.50101 12.0426C6.50101 11.7774 6.60636 11.523 6.7939 11.3355C6.98144 11.148 7.23579 11.0426 7.50101 11.0426H16.501C16.7662 11.0426 17.0206 11.148 17.2081 11.3355C17.3956 11.523 17.501 11.7774 17.501 12.0426Z" fill="#57C5D0"/>
</svg>
