<svg width="24" height="24" viewBox="0 0 24 24" fill="none" xmlns="http://www.w3.org/2000/svg">
<path d="M15.998 22.5C15.8654 22.5 15.7383 22.4473 15.6445 22.3535C15.5508 22.2597 15.498 22.1326 15.498 22C15.498 21.8674 15.5508 21.7403 15.6445 21.6465C15.7383 21.5527 15.8654 21.5 15.998 21.5H19.998C20.3959 21.5 20.7778 21.3419 21.0591 21.0605C21.3404 20.7792 21.498 20.3978 21.498 20V16C21.498 15.8674 21.5508 15.7403 21.6445 15.6465C21.7383 15.5527 21.8654 15.5 21.998 15.5C22.1307 15.5 22.2583 15.5527 22.3521 15.6465C22.4458 15.7403 22.498 15.8674 22.498 16V20C22.498 20.663 22.235 21.2987 21.7661 21.7676C21.2973 22.2364 20.6611 22.5 19.998 22.5H15.998ZM3.99805 22.5C3.33541 22.4987 2.70049 22.2347 2.23193 21.7661C1.76338 21.2976 1.49937 20.6626 1.49805 20V16C1.49805 15.8674 1.55076 15.7403 1.64453 15.6465C1.7383 15.5527 1.86544 15.5 1.99805 15.5C2.13066 15.5 2.25828 15.5527 2.35205 15.6465C2.44582 15.7403 2.49805 15.8674 2.49805 16V20C2.49805 20.3978 2.6562 20.7792 2.9375 21.0605C3.2188 21.3419 3.60022 21.5 3.99805 21.5H7.99805C8.13066 21.5 8.25828 21.5527 8.35205 21.6465C8.44582 21.7403 8.49805 21.8674 8.49805 22C8.49805 22.1326 8.44582 22.2597 8.35205 22.3535C8.25828 22.4473 8.13066 22.5 7.99805 22.5H3.99805ZM7.60449 16.3071C7.56022 16.2559 7.52684 16.1959 7.50635 16.1313C7.48585 16.0668 7.47827 15.9986 7.48486 15.9312C7.49146 15.8637 7.51182 15.7986 7.54443 15.7393C7.57705 15.6799 7.62144 15.6276 7.6748 15.5859C7.72817 15.5442 7.7895 15.5139 7.85498 15.4966C7.92046 15.4793 7.98866 15.4755 8.05566 15.4854C8.12266 15.4952 8.18695 15.5187 8.24463 15.5542C8.30231 15.5897 8.35208 15.6365 8.39111 15.6919C8.81004 16.2531 9.35445 16.7086 9.98047 17.0225C10.6065 17.3363 11.2968 17.5 11.9971 17.5C12.6974 17.5 13.3881 17.3363 14.0142 17.0225C14.6402 16.7086 15.1846 16.2531 15.6035 15.6919C15.6439 15.6401 15.6938 15.5969 15.751 15.5645C15.8081 15.532 15.8708 15.511 15.936 15.5029C16.0012 15.4949 16.0675 15.4996 16.1309 15.5171C16.1942 15.5346 16.2534 15.5646 16.3052 15.605C16.357 15.6454 16.4002 15.6953 16.4326 15.7524C16.465 15.8096 16.4861 15.8728 16.4941 15.938C16.5022 16.0032 16.4975 16.069 16.48 16.1323C16.4625 16.1956 16.4325 16.2553 16.3921 16.3071C15.8796 16.9879 15.2162 17.54 14.4536 17.9204C13.6911 18.3008 12.8502 18.499 11.998 18.499C11.1459 18.499 10.3055 18.3008 9.54297 17.9204C8.78043 17.54 8.11703 16.9879 7.60449 16.3071V16.3071ZM10.644 13.3521C10.5975 13.3056 10.5609 13.2502 10.5356 13.1895C10.5104 13.1287 10.4976 13.0638 10.4976 12.998C10.4976 12.9323 10.5104 12.8669 10.5356 12.8062C10.5609 12.7454 10.5975 12.6905 10.644 12.644L11.498 11.791V7C11.498 6.86739 11.5508 6.74025 11.6445 6.64648C11.7383 6.55272 11.8654 6.5 11.998 6.5C12.1307 6.5 12.2583 6.55272 12.3521 6.64648C12.4458 6.74025 12.498 6.86739 12.498 7V12C12.4982 12.0657 12.4855 12.1307 12.4604 12.1914C12.4354 12.2521 12.3985 12.3075 12.3521 12.354L11.3521 13.354C11.3056 13.4006 11.2507 13.4372 11.1899 13.4624C11.1292 13.4876 11.0638 13.501 10.998 13.501C10.9323 13.501 10.8674 13.4876 10.8066 13.4624C10.7459 13.4372 10.6905 13.4006 10.644 13.354V13.3521ZM16.498 8.99805V6.99805C16.498 6.86544 16.5508 6.7383 16.6445 6.64453C16.7383 6.55076 16.8654 6.49805 16.998 6.49805C17.1307 6.49805 17.2583 6.55076 17.3521 6.64453C17.4458 6.7383 17.498 6.86544 17.498 6.99805V8.99805C17.498 9.13066 17.4458 9.25779 17.3521 9.35156C17.2583 9.44533 17.1307 9.49805 16.998 9.49805C16.8654 9.49805 16.7383 9.44533 16.6445 9.35156C16.5508 9.25779 16.498 9.13066 16.498 8.99805ZM6.49805 8.99805V6.99805C6.49805 6.86544 6.55076 6.7383 6.64453 6.64453C6.7383 6.55076 6.86544 6.49805 6.99805 6.49805C7.13066 6.49805 7.25828 6.55076 7.35205 6.64453C7.44582 6.7383 7.49805 6.86544 7.49805 6.99805V8.99805C7.49805 9.13066 7.44582 9.25779 7.35205 9.35156C7.25828 9.44533 7.13066 9.49805 6.99805 9.49805C6.86544 9.49805 6.7383 9.44533 6.64453 9.35156C6.55076 9.25779 6.49805 9.13066 6.49805 8.99805ZM21.498 7.99805V3.99805C21.498 3.60022 21.3404 3.21832 21.0591 2.93701C20.7778 2.65571 20.3959 2.49805 19.998 2.49805H15.998C15.8654 2.49805 15.7383 2.44533 15.6445 2.35156C15.5508 2.25779 15.498 2.13066 15.498 1.99805C15.498 1.86544 15.5508 1.7383 15.6445 1.64453C15.7383 1.55076 15.8654 1.49805 15.998 1.49805H19.998C20.6611 1.49805 21.2973 1.76114 21.7661 2.22998C22.235 2.69882 22.498 3.33501 22.498 3.99805V7.99805C22.498 8.13066 22.4458 8.25779 22.3521 8.35156C22.2583 8.44533 22.1307 8.49805 21.998 8.49805C21.8654 8.49805 21.7383 8.44533 21.6445 8.35156C21.5508 8.25779 21.498 8.13066 21.498 7.99805ZM1.49805 7.99805V3.99805C1.49805 3.33501 1.76163 2.69882 2.23047 2.22998C2.69931 1.76114 3.33501 1.49805 3.99805 1.49805H7.99805C8.13066 1.49805 8.25828 1.55076 8.35205 1.64453C8.44582 1.7383 8.49805 1.86544 8.49805 1.99805C8.49805 2.13066 8.44582 2.25779 8.35205 2.35156C8.25828 2.44533 8.13066 2.49805 7.99805 2.49805H3.99805C3.60022 2.49805 3.2188 2.65571 2.9375 2.93701C2.6562 3.21832 2.49805 3.60022 2.49805 3.99805V7.99805C2.49805 8.13066 2.44582 8.25779 2.35205 8.35156C2.25828 8.44533 2.13066 8.49805 1.99805 8.49805C1.86544 8.49805 1.7383 8.44533 1.64453 8.35156C1.55076 8.25779 1.49805 8.13066 1.49805 7.99805Z" fill="#56596A"/>
</svg>
