<svg width="24" height="24" viewBox="0 0 24 24" fill="none" xmlns="http://www.w3.org/2000/svg">
<path d="M3.7124 18.4561C2.80581 17.2937 2.15535 15.9526 1.8042 14.521C1.77251 14.3921 1.79357 14.2556 1.8623 14.1421C1.93104 14.0285 2.042 13.9472 2.1709 13.9155C2.29979 13.8838 2.43576 13.9044 2.54932 13.9731C2.66287 14.0419 2.74467 14.1528 2.77637 14.2817C3.09246 15.577 3.68058 16.7902 4.50146 17.8408C6.0498 19.8271 8.32279 21.1182 10.8218 21.4307C13.3208 21.7432 15.8413 21.0516 17.8311 19.5078C17.9357 19.4263 18.0685 19.3899 18.2002 19.4062C18.3318 19.4226 18.4516 19.4901 18.5332 19.5947C18.6148 19.6994 18.6516 19.8322 18.6353 19.9639C18.6189 20.0955 18.5509 20.2153 18.4463 20.2969C16.2477 22.0049 13.4609 22.7705 10.6982 22.4253C7.9356 22.0801 5.42315 20.6526 3.7124 18.4561V18.4561ZM15.8394 16.5039H7.33105C7.09734 16.505 6.86706 16.4516 6.65771 16.3477C6.44837 16.2437 6.26595 16.0921 6.12549 15.9053C5.98503 15.7185 5.89034 15.5014 5.84863 15.2715C5.80692 15.0415 5.81934 14.8053 5.88525 14.5811L7.59521 8.59277C7.60421 8.56277 7.61402 8.53193 7.62402 8.50293H3.99902C3.86642 8.50293 3.73928 8.45021 3.64551 8.35645C3.55174 8.26268 3.49902 8.13554 3.49902 8.00293C3.49902 7.87032 3.55174 7.74318 3.64551 7.64941C3.73928 7.55565 3.86642 7.50293 3.99902 7.50293H20.666C20.8102 7.49625 20.9546 7.51666 21.0913 7.56299C21.4723 7.67523 21.7929 7.93374 21.9834 8.28223C22.1739 8.63072 22.2187 9.04063 22.1074 9.42188L21.2734 12.3438C21.6704 12.6826 21.9865 13.1062 22.1987 13.583C22.4109 14.0598 22.5139 14.5779 22.5 15.0996C22.4861 15.6213 22.3556 16.1334 22.1182 16.5981C21.8808 17.0629 21.5424 17.4685 21.1279 17.7856C20.7134 18.1028 20.2329 18.3231 19.7222 18.4307C19.2115 18.5382 18.6835 18.5307 18.1763 18.4077C17.6691 18.2847 17.1957 18.0498 16.791 17.7202C16.3863 17.3907 16.0606 16.9747 15.8374 16.5029L15.8394 16.5039ZM19.0005 17.5039C19.5304 17.504 20.0466 17.3354 20.4746 17.0229C20.9026 16.7105 21.2204 16.2704 21.3818 15.7656C21.5433 15.2609 21.5398 14.7177 21.3726 14.2148C21.2053 13.712 20.8828 13.2753 20.4512 12.9678C20.4273 12.9543 20.4047 12.939 20.3833 12.9219C19.9487 12.6332 19.435 12.4878 18.9136 12.5059C18.3922 12.5239 17.8891 12.7044 17.4756 13.0225C17.0621 13.3405 16.7587 13.78 16.6074 14.2793C16.4562 14.7786 16.4648 15.313 16.6323 15.8071C16.6406 15.8263 16.6476 15.8456 16.6533 15.8657C16.8306 16.3451 17.1504 16.7588 17.5698 17.0508C17.9893 17.3428 18.4879 17.4993 18.999 17.499L19.0005 17.5039ZM8.55811 8.87012L6.84814 14.8589C6.82914 14.9221 6.82281 14.9885 6.82959 15.0542C6.83637 15.1199 6.85618 15.1837 6.8877 15.2417C6.91921 15.2997 6.96178 15.3507 7.01318 15.3921C7.06459 15.4335 7.12411 15.4644 7.1875 15.4829C7.23508 15.496 7.28416 15.5027 7.3335 15.5029H15.5381C15.4493 14.8866 15.5269 14.2577 15.7622 13.6812C15.9975 13.1046 16.3822 12.6013 16.877 12.2231C17.3717 11.845 17.9586 11.6056 18.5767 11.5298C19.1948 11.454 19.8216 11.5445 20.3931 11.792L21.1504 9.146C21.1692 9.08283 21.1753 9.01673 21.1685 8.95117C21.1616 8.88561 21.1419 8.82157 21.1104 8.76367C21.0788 8.70577 21.0362 8.65513 20.9849 8.61377C20.9335 8.57241 20.8743 8.54142 20.811 8.52295C20.764 8.50895 20.7203 8.48493 20.6753 8.50293H9.04443C8.93456 8.50348 8.8275 8.53934 8.73975 8.60547C8.65199 8.6716 8.58794 8.76465 8.55713 8.87012H8.55811ZM18.5981 16.416C18.5348 16.3982 18.4755 16.368 18.4238 16.3271C18.3722 16.2863 18.3294 16.2357 18.2974 16.1782C18.2653 16.1207 18.2448 16.0571 18.2373 15.9917C18.2298 15.9263 18.2353 15.8602 18.2534 15.7969L18.7861 13.9341C18.8256 13.8101 18.9117 13.7065 19.0264 13.645C19.141 13.5836 19.2753 13.5692 19.4004 13.605C19.5254 13.6408 19.6315 13.7236 19.6963 13.8364C19.7611 13.9492 19.7792 14.0829 19.7471 14.209L19.2163 16.0718C19.1861 16.176 19.1229 16.2679 19.0361 16.333C18.9494 16.3981 18.8438 16.4333 18.7354 16.4331C18.6885 16.4338 18.6415 16.428 18.5962 16.416H18.5981ZM1.99805 12.5029C1.86544 12.5029 1.7383 12.4502 1.64453 12.3564C1.55076 12.2627 1.49805 12.1355 1.49805 12.0029C1.49805 11.8703 1.55076 11.7432 1.64453 11.6494C1.7383 11.5556 1.86544 11.5029 1.99805 11.5029H5.29834C5.43095 11.5029 5.55809 11.5556 5.65186 11.6494C5.74562 11.7432 5.79834 11.8703 5.79834 12.0029C5.79834 12.1355 5.74562 12.2627 5.65186 12.3564C5.55809 12.4502 5.43095 12.5029 5.29834 12.5029H1.99805ZM9.47314 11.915C9.40986 11.8971 9.35088 11.8665 9.29932 11.8257C9.24776 11.7848 9.20481 11.7343 9.17285 11.6768C9.14089 11.6193 9.12075 11.5561 9.11328 11.4907C9.10581 11.4254 9.11124 11.3591 9.12939 11.2959L9.66211 9.43311C9.70049 9.30775 9.78662 9.20216 9.90186 9.13965C10.0171 9.07714 10.1523 9.06244 10.2783 9.09863C10.4043 9.13482 10.5112 9.21936 10.5757 9.3335C10.6402 9.44763 10.657 9.58237 10.623 9.70898L10.0913 11.5718C10.0612 11.6758 9.99819 11.7674 9.91162 11.8325C9.82506 11.8976 9.71964 11.933 9.61133 11.9331C9.56506 11.9333 9.51878 11.9271 9.47412 11.915H9.47314ZM12.7271 11.8921C12.6671 11.8707 12.6128 11.8365 12.5674 11.792C12.5194 11.745 12.4813 11.6885 12.4556 11.6265C12.4298 11.5644 12.417 11.4983 12.4175 11.4312C12.4168 11.3656 12.4297 11.3005 12.4556 11.2402C12.4814 11.18 12.5194 11.1258 12.5674 11.0811C12.6126 11.0339 12.6669 10.9964 12.7271 10.9707C12.7872 10.9451 12.8521 10.9316 12.9175 10.9316C12.9829 10.9316 13.0473 10.9451 13.1074 10.9707C13.1676 10.9964 13.2218 11.0339 13.2671 11.0811C13.3148 11.1259 13.3529 11.18 13.3784 11.2402C13.4039 11.3005 13.4161 11.3657 13.415 11.4312C13.4158 11.4982 13.4034 11.5644 13.3779 11.6265C13.3525 11.6885 13.3147 11.7448 13.2671 11.792C13.2216 11.8364 13.1673 11.8706 13.1074 11.8921C13.048 11.9197 12.983 11.9334 12.9175 11.9321C12.8526 11.9335 12.7882 11.9198 12.7295 11.8921H12.7271ZM11.5571 11.792C11.4661 11.6939 11.4163 11.5649 11.4175 11.4312C11.4167 11.3007 11.4666 11.175 11.5571 11.0811C11.6524 10.9893 11.7794 10.938 11.9116 10.938C12.0438 10.938 12.1709 10.9893 12.2661 11.0811C12.3143 11.1256 12.3529 11.1795 12.3789 11.2397C12.4049 11.3 12.4182 11.3655 12.4175 11.4312C12.4179 11.4984 12.4044 11.5649 12.3784 11.627C12.3525 11.689 12.3143 11.7451 12.2661 11.792C12.2192 11.8346 12.1653 11.8686 12.1064 11.8921C12.0468 11.9192 11.9815 11.9329 11.916 11.9321C11.784 11.9301 11.6573 11.8802 11.5591 11.792H11.5571ZM10.7261 11.8921C10.6648 11.8686 10.608 11.8346 10.5581 11.792C10.4671 11.6939 10.4173 11.5649 10.4185 11.4312C10.4168 11.3656 10.4305 11.3001 10.4585 11.2407C10.4811 11.1814 10.5147 11.1274 10.5581 11.0811C10.608 11.0359 10.6647 10.9984 10.7261 10.9707C10.8174 10.936 10.9169 10.9283 11.0127 10.9478C11.1084 10.9672 11.1965 11.0135 11.2671 11.0811C11.3153 11.1256 11.3539 11.1795 11.3799 11.2397C11.4059 11.3 11.4191 11.3655 11.4185 11.4312C11.4189 11.4984 11.4053 11.5649 11.3794 11.627C11.3534 11.689 11.3152 11.7451 11.2671 11.792C11.1732 11.8825 11.0479 11.9329 10.9175 11.9321C10.8522 11.9336 10.7871 11.9199 10.728 11.8921H10.7261ZM17.6211 10.5039C17.4885 10.5039 17.3613 10.4512 17.2676 10.3574C17.1738 10.2637 17.1211 10.1365 17.1211 10.0039C17.1211 9.8713 17.1738 9.74416 17.2676 9.65039C17.3613 9.55662 17.4885 9.50391 17.6211 9.50391H19.3755C19.5081 9.50391 19.6352 9.55662 19.729 9.65039C19.8228 9.74416 19.8755 9.8713 19.8755 10.0039C19.8755 10.1365 19.8228 10.2637 19.729 10.3574C19.6352 10.4512 19.5081 10.5039 19.3755 10.5039H17.6211ZM2.79834 10.5039C2.66573 10.5039 2.53859 10.4512 2.44482 10.3574C2.35106 10.2637 2.29834 10.1365 2.29834 10.0039C2.29834 9.8713 2.35106 9.74416 2.44482 9.65039C2.53859 9.55662 2.66573 9.50391 2.79834 9.50391H5.99805C6.13066 9.50391 6.25828 9.55662 6.35205 9.65039C6.44582 9.74416 6.49805 9.8713 6.49805 10.0039C6.49805 10.1365 6.44582 10.2637 6.35205 10.3574C6.25828 10.4512 6.13066 10.5039 5.99805 10.5039H2.79834ZM19.5981 6.30371C19.0598 5.58204 18.4199 4.94217 17.6982 4.40381C16.7004 3.65464 15.5646 3.10979 14.356 2.7998C13.1473 2.48982 11.8895 2.42071 10.6543 2.59717C9.41909 2.77363 8.23071 3.19213 7.15723 3.82812C6.08374 4.46412 5.14656 5.30512 4.39844 6.30371C4.35186 6.36581 4.29111 6.41646 4.22168 6.45117C4.15225 6.48589 4.07567 6.50391 3.99805 6.50391C3.88993 6.50348 3.78499 6.46834 3.69824 6.40381C3.59216 6.32424 3.52217 6.20598 3.50342 6.07471C3.48466 5.94343 3.51858 5.81019 3.59814 5.7041C4.57619 4.40004 5.84475 3.3413 7.30273 2.6123C8.76072 1.88331 10.368 1.50391 11.998 1.50391C13.6281 1.50391 15.2359 1.88331 16.6938 2.6123C18.1518 3.3413 19.4204 4.40004 20.3984 5.7041C20.4378 5.75663 20.4661 5.81628 20.4824 5.87988C20.4987 5.94349 20.5024 6.00971 20.4932 6.07471C20.4839 6.13971 20.4622 6.20229 20.4287 6.25879C20.3953 6.31529 20.3509 6.36441 20.2983 6.40381C20.2458 6.44321 20.1862 6.47199 20.1226 6.48828C20.059 6.50458 19.9927 6.50831 19.9277 6.49902C19.8627 6.48974 19.8002 6.46754 19.7437 6.43408C19.6872 6.40063 19.6375 6.35624 19.5981 6.30371Z" fill="#56596A"/>
</svg>
