<svg width="24" height="24" viewBox="0 0 24 24" fill="none" xmlns="http://www.w3.org/2000/svg">
<path d="M19.0762 22.4994H4.86328C4.24775 22.4976 3.65709 22.2566 3.21582 21.8275C2.77455 21.3983 2.51698 20.8143 2.49805 20.1991C2.54046 18.5699 3.21665 17.0216 4.38232 15.8827C5.54799 14.7437 7.11148 14.1041 8.74121 14.0995C8.79621 14.0995 8.84837 14.0995 8.90137 14.0995H15.1084C16.7602 14.0645 18.359 14.6834 19.5562 15.8221C20.7533 16.9608 21.4519 18.5266 21.4995 20.1781C21.485 20.7969 21.2297 21.3859 20.7881 21.8197C20.3465 22.2534 19.7532 22.4978 19.1343 22.5013L19.0762 22.4994ZM3.49951 20.1991C3.51888 20.555 3.67535 20.8897 3.93652 21.1322C4.1977 21.3747 4.54307 21.5064 4.89941 21.4994H19.0884C19.4492 21.505 19.798 21.37 20.061 21.1229C20.324 20.8758 20.4802 20.5356 20.4971 20.1751C20.4534 18.7901 19.8634 17.4787 18.856 16.5272C17.8485 15.5757 16.5054 15.0619 15.1201 15.0975H8.75342C7.38646 15.0985 6.07335 15.6314 5.09277 16.5838C4.1122 17.5362 3.5413 18.8327 3.50049 20.1991H3.49951ZM11.9995 13.4994C11.6695 13.5244 11.3392 13.5384 11.0122 13.5384C9.76958 13.5384 8.53419 13.3483 7.34912 12.9745C6.60209 12.7059 5.88918 12.3503 5.2251 11.9154C5.11858 11.8454 5.04322 11.7371 5.01367 11.6131C4.98412 11.4892 5.00291 11.3589 5.06641 11.2484C5.42745 10.6179 5.75227 9.96728 6.04004 9.30014C6.43725 8.37047 6.75845 7.40988 6.99951 6.42807C7.00737 5.79917 7.13463 5.17745 7.37451 4.59604V4.59604C7.37951 4.58104 7.38509 4.56805 7.39209 4.55405C7.70067 3.8227 8.1792 3.17571 8.7876 2.66587C9.396 2.15602 10.1171 1.79831 10.8911 1.62241C11.6652 1.44651 12.4698 1.45731 13.2388 1.65415C14.0078 1.85098 14.7191 2.22808 15.3135 2.75424C15.3326 2.76895 15.3503 2.78484 15.3672 2.8021C15.8728 3.26203 16.2785 3.82095 16.5591 4.44419C16.8397 5.06742 16.9889 5.74172 16.998 6.42514C17.4136 8.11481 18.0654 9.73776 18.9341 11.2455C18.9975 11.3561 19.0166 11.4867 18.9868 11.6107C18.9571 11.7347 18.8811 11.8426 18.7744 11.9124C18.1174 12.343 17.4126 12.6958 16.6743 12.9642C15.4773 13.3422 14.2294 13.5351 12.9741 13.5355C12.6491 13.5425 12.3255 13.5284 12.0005 13.4994H11.9995ZM12.0054 12.4994C13.065 12.4975 14.0805 12.075 14.8291 11.325C15.5777 10.5751 15.998 9.55902 15.998 8.49936V6.49936C15.998 6.42336 15.9982 6.34731 15.9922 6.27231C15.7157 6.38078 15.4216 6.43647 15.1245 6.43637C14.7645 6.4366 14.4086 6.35584 14.084 6.20005C13.7594 6.04425 13.4745 5.81751 13.2495 5.53647C12.5302 5.91655 11.7286 6.11522 10.915 6.11606C10.3351 6.11769 9.75972 6.0163 9.21533 5.81626L8.14746 5.41635C8.05105 5.76014 8.00133 6.11547 7.99951 6.47251C8.00048 6.49083 8.00048 6.50887 7.99951 6.52719V8.49741C7.99951 9.55637 8.41922 10.5718 9.16699 11.3216C9.91476 12.0715 10.9293 12.4945 11.9883 12.4974H12.0063L12.0054 12.4994ZM6.95947 9.69907C6.72347 10.2501 6.45946 10.7994 6.16846 11.3294C6.64648 11.6072 7.14849 11.8412 7.66846 12.0291C8.03007 12.1424 8.39682 12.2374 8.76807 12.3133C7.88617 11.5674 7.28974 10.539 7.08008 9.40317C7.04141 9.5025 7.00178 9.60107 6.96045 9.69907H6.95947ZM15.2295 12.3163C15.6082 12.2388 15.9823 12.142 16.3511 12.0262C16.864 11.8384 17.3588 11.6039 17.8291 11.326C17.4906 10.7013 17.1865 10.0589 16.9175 9.40122C16.7085 10.5382 16.112 11.5676 15.2295 12.3143V12.3163ZM15.7612 5.28647L15.8032 5.26548C15.6426 4.77507 15.3885 4.32002 15.0552 3.92612L14.8882 4.14926C14.6558 4.45881 14.3874 4.73941 14.0884 4.9852C14.2958 5.21164 14.5717 5.36379 14.874 5.41782C15.1763 5.47185 15.4882 5.42459 15.7612 5.28403V5.28647ZM9.56152 4.88022C10.1397 5.09168 10.7589 5.16547 11.3706 5.09604C11.9823 5.02661 12.5694 4.81598 13.0854 4.48032L13.1123 4.4603L13.1484 4.4393C13.5091 4.19578 13.8265 3.89356 14.0874 3.54526L14.3154 3.24546C13.8618 2.9231 13.346 2.69889 12.8008 2.58725C12.2556 2.47562 11.6927 2.4789 11.1489 2.59702C10.6051 2.71513 10.0923 2.94555 9.64258 3.27329C9.19284 3.60102 8.81612 4.01885 8.53711 4.50034L9.56152 4.88022Z" fill="#56596A"/>
</svg>
