<svg width="24" height="24" viewBox="0 0 24 24" fill="none" xmlns="http://www.w3.org/2000/svg">
<path d="M20 6H12.577C12.3713 6.00649 12.1687 5.94885 11.9973 5.83508C11.8258 5.72131 11.694 5.55703 11.62 5.365C11.4868 4.96731 11.232 4.62154 10.8916 4.37659C10.5512 4.13164 10.1424 3.9999 9.723 4H4C3.46957 4 2.96086 4.21071 2.58579 4.58579C2.21071 4.96086 2 5.46957 2 6V18C2 18.5304 2.21071 19.0391 2.58579 19.4142C2.96086 19.7893 3.46957 20 4 20H20C20.5304 20 21.0391 19.7893 21.4142 19.4142C21.7893 19.0391 22 18.5304 22 18V8C22 7.46957 21.7893 6.96086 21.4142 6.58579C21.0391 6.21071 20.5304 6 20 6V6Z" stroke="white" stroke-miterlimit="10"/>
<path d="M2 16.977V11C2 10.4696 2.21071 9.96086 2.58579 9.58579C2.96086 9.21071 3.46957 9 4 9H20C20.5304 9 21.0391 9.21071 21.4142 9.58579C21.7893 9.96086 22 10.4696 22 11V17.28" stroke="white" stroke-miterlimit="10"/>
</svg>
