<svg width="24" height="24" viewBox="0 0 24 24" fill="none" xmlns="http://www.w3.org/2000/svg">
<path d="M8.9292 22.2998C8.89017 22.2469 8.86194 22.1869 8.84619 22.123C8.83044 22.0592 8.82746 21.9928 8.8374 21.9277C8.84734 21.8627 8.87019 21.8004 8.9043 21.7441C8.93841 21.6879 8.98307 21.639 9.03613 21.6001L13.5122 18.291C13.564 18.2447 13.6248 18.2094 13.6909 18.188C13.757 18.1665 13.8268 18.1594 13.896 18.1665C13.9651 18.1736 14.0324 18.1946 14.0928 18.229C14.1532 18.2634 14.2057 18.3099 14.2471 18.3657C14.2885 18.4216 14.3177 18.4854 14.333 18.5532C14.3483 18.621 14.3493 18.6915 14.3359 18.7598C14.3226 18.828 14.2951 18.8927 14.2554 18.9497C14.2156 19.0067 14.1649 19.0547 14.1055 19.0908L9.62939 22.4009C9.57644 22.4399 9.51602 22.4681 9.45215 22.4839C9.38828 22.4996 9.32186 22.5026 9.25684 22.4927C9.19181 22.4827 9.12949 22.4599 9.07324 22.4258C9.01699 22.3917 8.96808 22.347 8.9292 22.2939V22.2998ZM9.88818 18.5151C9.57877 18.4227 9.30696 18.2331 9.11279 17.9751C8.91863 17.7171 8.81222 17.404 8.80908 17.0811V12.2808C8.80947 12.0843 8.77116 11.8899 8.6958 11.7085C8.62044 11.5271 8.50957 11.3625 8.37012 11.2241L3.93945 6.81299C3.65944 6.5297 3.50271 6.14686 3.50439 5.74854C3.50608 5.35021 3.66584 4.9689 3.94824 4.68799C4.23694 4.4157 4.61735 4.26171 5.01416 4.25684H18.9961C19.3019 4.25756 19.6003 4.35185 19.8511 4.52686C20.1019 4.70186 20.2932 4.94906 20.3994 5.23584C20.5056 5.52262 20.5217 5.83522 20.4453 6.13135C20.369 6.42747 20.2038 6.69337 19.9722 6.89307L14.8804 11.2378C14.7157 11.3775 14.583 11.5516 14.4922 11.7476C14.4014 11.9435 14.3542 12.157 14.354 12.373V15.1587C14.3385 15.4209 14.2615 15.6761 14.1289 15.9028C13.9963 16.1296 13.8122 16.3217 13.5913 16.4639L11.1021 18.3569C10.8592 18.499 10.5836 18.5754 10.3022 18.5781C10.1624 18.5764 10.0235 18.5537 9.89014 18.5117L9.88818 18.5151ZM4.65137 5.39893C4.55763 5.49269 4.50488 5.61986 4.50488 5.75244C4.50488 5.88502 4.55763 6.01219 4.65137 6.10596L9.07812 10.5107C9.311 10.7421 9.49609 11.0172 9.62207 11.3203C9.74805 11.6234 9.81231 11.9486 9.81201 12.2769V17.0767C9.81354 17.185 9.85004 17.2901 9.91553 17.3765C9.98102 17.4628 10.0723 17.5264 10.1763 17.5571C10.24 17.5769 10.3072 17.583 10.3735 17.5762C10.4399 17.5693 10.5037 17.5495 10.562 17.5171L13.0244 15.6387C13.1177 15.585 13.1964 15.5096 13.2544 15.4189C13.3124 15.3282 13.3479 15.2249 13.3574 15.1177V12.3701C13.3566 12.0089 13.4343 11.6514 13.5854 11.3232C13.7366 10.9951 13.9574 10.7039 14.2324 10.4697L19.3232 6.12598C19.375 6.08079 19.4169 6.02549 19.4463 5.96338C19.4757 5.90127 19.492 5.83383 19.4941 5.76514C19.4963 5.69645 19.4844 5.6278 19.459 5.56396C19.4335 5.50013 19.395 5.4424 19.3462 5.39404C19.3 5.34793 19.245 5.31118 19.1846 5.28662C19.1241 5.26206 19.0594 5.25012 18.9941 5.25098H5.00244C4.93698 5.25132 4.87227 5.26446 4.81201 5.29004C4.75176 5.31562 4.69708 5.35305 4.65137 5.3999V5.39893ZM4 2.50586C3.86739 2.50586 3.74025 2.45314 3.64648 2.35938C3.55272 2.26561 3.5 2.13847 3.5 2.00586C3.5 1.87325 3.55272 1.74611 3.64648 1.65234C3.74025 1.55858 3.86739 1.50586 4 1.50586H20C20.1326 1.50586 20.2602 1.55858 20.354 1.65234C20.4478 1.74611 20.5 1.87325 20.5 2.00586C20.5 2.13847 20.4478 2.26561 20.354 2.35938C20.2602 2.45314 20.1326 2.50586 20 2.50586H4Z" fill="#56596A"/>
</svg>
