<svg width="24" height="24" viewBox="0 0 24 24" fill="none" xmlns="http://www.w3.org/2000/svg">
<path d="M15.4438 22.4062C15.3904 22.3677 15.3451 22.3192 15.3105 22.2631C15.276 22.207 15.2526 22.1445 15.2422 22.0795C15.2318 22.0144 15.2346 21.9482 15.25 21.8842C15.2654 21.8201 15.2928 21.7597 15.3315 21.7064C16.0225 20.7545 16.4284 19.6256 16.501 18.4516V10.7772C16.4999 9.51797 15.9992 8.31085 15.1089 7.42031C14.2185 6.52977 13.0112 6.02857 11.752 6.02725V6.02725C10.8975 6.0261 10.0585 6.2566 9.32471 6.69424C9.21105 6.75708 9.0775 6.77312 8.95215 6.73916C8.82679 6.7052 8.71972 6.62422 8.65332 6.5126C8.58692 6.40098 8.56621 6.26787 8.59619 6.1415C8.62617 6.01514 8.7045 5.90524 8.81396 5.83535C9.70238 5.30558 10.7176 5.02595 11.752 5.02627H11.7568C13.281 5.02839 14.7423 5.63486 15.8198 6.71279C16.8974 7.79073 17.5033 9.25211 17.5049 10.7763V18.4765C17.4246 19.8499 16.9535 21.1719 16.147 22.2865C16.1085 22.34 16.0595 22.3852 16.0034 22.4198C15.9473 22.4544 15.8849 22.4773 15.8198 22.4877C15.7548 22.4981 15.6886 22.4957 15.6245 22.4804C15.5605 22.465 15.5 22.4371 15.4468 22.3983L15.4438 22.4062ZM2.74365 18.4062C2.70546 18.2791 2.7194 18.1421 2.78223 18.0253C2.84505 17.9085 2.95157 17.8213 3.07861 17.7831C3.20565 17.7449 3.34264 17.7589 3.45947 17.8217C3.57631 17.8845 3.66347 17.9915 3.70166 18.1186C4.02921 19.2113 4.73919 20.1497 5.70166 20.7621C6.66413 21.3746 7.81471 21.6201 8.94336 21.454C10.072 21.2879 11.1035 20.7212 11.8486 19.8573C12.5938 18.9935 13.0032 17.8902 13.002 16.7494V10.8095C13.002 10.478 12.8702 10.1601 12.6357 9.92568C12.4013 9.69126 12.0835 9.55947 11.752 9.55947C11.4204 9.55947 11.1021 9.69126 10.8677 9.92568C10.6333 10.1601 10.502 10.478 10.502 10.8095V16.7216C10.502 17.3183 10.2647 17.8904 9.84277 18.3124C9.42082 18.7344 8.84869 18.9716 8.25195 18.9716C7.65522 18.9716 7.0826 18.7344 6.66064 18.3124C6.23869 17.8904 6.00195 17.3183 6.00195 16.7216V10.7802C6.00102 10.162 6.09993 9.54793 6.29492 8.96133C6.33696 8.83548 6.42719 8.73153 6.5459 8.67227C6.66461 8.61301 6.80189 8.60337 6.92773 8.64541C7.05358 8.68745 7.15754 8.77768 7.2168 8.89639C7.27606 9.0151 7.28569 9.15238 7.24365 9.27822C7.08232 9.76186 7.00059 10.2684 7.00098 10.7782V16.7191C7.00098 17.0507 7.13228 17.369 7.3667 17.6034C7.60112 17.8378 7.91946 17.9691 8.25098 17.9691C8.5825 17.9691 8.90035 17.8378 9.13477 17.6034C9.36919 17.369 9.50098 17.0507 9.50098 16.7191V10.8075C9.50098 10.2108 9.73771 9.63817 10.1597 9.21621C10.5816 8.79425 11.1542 8.55752 11.751 8.55752C12.3477 8.55752 12.9198 8.79425 13.3418 9.21621C13.7638 9.63817 14.001 10.2108 14.001 10.8075V16.7475C14.0001 18.127 13.503 19.46 12.6011 20.5038C11.6991 21.5476 10.4522 22.2326 9.0874 22.4335C7.7226 22.6344 6.33099 22.3377 5.1665 21.598C4.00202 20.8584 3.14201 19.7249 2.74365 18.4042V18.4062ZM20.5 19.5004V14.0224C20.5 13.8898 20.5522 13.7626 20.646 13.6688C20.7398 13.5751 20.8674 13.5224 21 13.5224C21.1326 13.5224 21.2597 13.5751 21.3535 13.6688C21.4473 13.7626 21.5 13.8898 21.5 14.0224V19.5004C21.5 19.633 21.4473 19.7601 21.3535 19.8539C21.2597 19.9477 21.1326 20.0004 21 20.0004C20.8674 20.0004 20.7398 19.9477 20.646 19.8539C20.5522 19.7601 20.5 19.633 20.5 19.5004ZM2.5 14.4442V10.7982C2.50291 8.33262 3.48359 5.96895 5.22705 4.22549C6.97051 2.48203 9.33418 1.50135 11.7998 1.49844H12C14.4907 1.47574 16.8889 2.44076 18.6694 4.18252C20.45 5.92428 21.4678 8.30081 21.5 10.7914C21.5016 10.9238 21.4503 11.0515 21.3579 11.1464C21.2655 11.2413 21.1393 11.2954 21.0068 11.2973C20.9403 11.3012 20.8735 11.2913 20.811 11.268C20.7486 11.2446 20.6917 11.2086 20.644 11.162C20.5964 11.1154 20.5594 11.0594 20.5347 10.9975C20.51 10.9355 20.4985 10.8688 20.501 10.8021C20.4746 8.57533 19.565 6.45036 17.9722 4.89395C16.3794 3.33753 14.2337 2.47727 12.0068 2.50234H11.7998C9.59924 2.50473 7.48963 3.3799 5.93359 4.93594C4.37756 6.49197 3.50238 8.60158 3.5 10.8021V14.4472C3.5 14.5798 3.44728 14.7069 3.35352 14.8007C3.25975 14.8945 3.13261 14.9472 3 14.9472C2.86739 14.9472 2.73976 14.8945 2.646 14.8007C2.55223 14.7069 2.5 14.5798 2.5 14.4472V14.4442Z" fill="#56596A"/>
</svg>
