<svg width="24" height="24" viewBox="0 0 24 24" fill="none" xmlns="http://www.w3.org/2000/svg">
<path d="M9.35371 22.4995C9.27231 22.4996 9.19213 22.4798 9.12013 22.4418C9.04814 22.4038 8.98649 22.3489 8.94057 22.2817C8.89464 22.2144 8.8658 22.1371 8.85658 22.0562C8.84737 21.9753 8.85808 21.8934 8.88771 21.8175L11.4747 15.1796C11.4977 15.122 11.5096 15.0606 11.5097 14.9986C11.5097 14.866 11.457 14.7388 11.3632 14.6451C11.2695 14.5513 11.1423 14.4986 11.0097 14.4986H6.22371C5.93389 14.4991 5.65012 14.4157 5.40669 14.2585C5.16327 14.1012 4.97058 13.8768 4.852 13.6123C4.73343 13.3479 4.69399 13.0547 4.73848 12.7683C4.78296 12.482 4.90946 12.2146 5.10268 11.9986L14.2727 1.66459C14.3507 1.57653 14.4573 1.51876 14.5736 1.5015C14.69 1.48424 14.8087 1.5086 14.9089 1.57023C15.0091 1.63185 15.0844 1.72678 15.1215 1.83841C15.1586 1.95005 15.1551 2.07124 15.1117 2.18058L12.4787 8.81156C12.4485 8.88745 12.4373 8.96961 12.4462 9.05082C12.455 9.13202 12.4837 9.20979 12.5296 9.27738C12.5754 9.34497 12.6372 9.4003 12.7094 9.43851C12.7816 9.47672 12.862 9.4967 12.9437 9.49662H17.7817C18.071 9.4972 18.354 9.58144 18.5965 9.73917C18.839 9.89691 19.0307 10.1213 19.1486 10.3855C19.2664 10.6498 19.3053 10.9425 19.2606 11.2283C19.2159 11.5141 19.0896 11.781 18.8967 11.9966L9.7267 22.3326C9.67979 22.3851 9.62234 22.4272 9.55806 22.456C9.49378 22.4847 9.42414 22.4996 9.35371 22.4995V22.4995ZM11.0117 13.4995C11.2558 13.4992 11.4963 13.5585 11.7124 13.6722C11.9284 13.7858 12.1134 13.9505 12.2514 14.1519C12.3893 14.3533 12.476 14.5854 12.504 14.8279C12.5319 15.0704 12.5002 15.3161 12.4117 15.5436L10.8397 19.5766L18.1557 11.3306C18.2419 11.2317 18.2858 11.1029 18.278 10.972C18.2701 10.841 18.2112 10.7184 18.1137 10.6305C18.071 10.5871 18.0194 10.5534 17.9624 10.5317C17.9055 10.5099 17.8445 10.5007 17.7837 10.5046H12.9497C12.5519 10.5046 12.1704 10.3465 11.8891 10.0652C11.6077 9.78392 11.4497 9.40238 11.4497 9.00455C11.4493 8.81438 11.4856 8.62599 11.5567 8.44962L13.1387 4.46561L5.85573 12.6725C5.79173 12.7446 5.74988 12.8337 5.73531 12.929C5.72073 13.0243 5.734 13.1217 5.77351 13.2096C5.81303 13.2975 5.87709 13.3721 5.95802 13.4245C6.03896 13.4768 6.13331 13.5046 6.22969 13.5046H11.0167L11.0117 13.4995Z" fill="#56596A"/>
</svg>
