<svg width="24" height="24" viewBox="0 0 24 24" fill="none" xmlns="http://www.w3.org/2000/svg">
<path d="M9.0899 22.4271C8.98949 22.3662 8.91339 22.2722 8.87554 22.161C8.83769 22.0498 8.84048 21.9287 8.88287 21.8192L11.4698 15.1825C11.4933 15.1247 11.5057 15.0628 11.5059 15.0003C11.5059 14.8677 11.4532 14.7406 11.3594 14.6468C11.2657 14.5531 11.1385 14.5003 11.0059 14.5003H6.2188C5.83528 14.501 5.46605 14.3543 5.18707 14.0912C4.90808 13.828 4.74054 13.4682 4.7188 13.0853C4.70661 12.8888 4.73367 12.6917 4.79839 12.5057C4.86312 12.3198 4.96417 12.1488 5.09576 12.0023L6.50396 10.4173C6.54756 10.3682 6.60013 10.3279 6.65923 10.2992C6.71833 10.2704 6.78259 10.2538 6.8482 10.2499C6.9138 10.2459 6.97944 10.2548 7.04156 10.2762C7.10368 10.2977 7.16132 10.3313 7.2105 10.3749C7.25968 10.4185 7.29943 10.471 7.32818 10.5301C7.35693 10.5892 7.37404 10.6535 7.37798 10.7191C7.38193 10.7847 7.37259 10.8503 7.35113 10.9125C7.32967 10.9746 7.29658 11.0322 7.25298 11.0814L5.8438 12.6683C5.80037 12.7169 5.76707 12.7737 5.74566 12.8353C5.72425 12.8969 5.71539 12.9621 5.71929 13.0272C5.7232 13.0923 5.7395 13.1556 5.76812 13.2142C5.79674 13.2728 5.83686 13.3254 5.8858 13.3685C5.97647 13.4515 6.09493 13.4974 6.21783 13.4974H11.0049C11.2488 13.4972 11.4888 13.5562 11.7046 13.6698C11.9205 13.7834 12.1053 13.9481 12.2432 14.1493C12.3811 14.3504 12.468 14.5818 12.4961 14.8241C12.5243 15.0663 12.493 15.312 12.4048 15.5394L10.8316 19.5731L13.8047 16.2235C13.8941 16.1294 14.0164 16.0737 14.146 16.0682C14.2757 16.0627 14.4026 16.1075 14.4996 16.1937C14.5965 16.2799 14.6563 16.4008 14.6661 16.5301C14.6758 16.6595 14.6348 16.7873 14.5518 16.8871L9.72466 22.3275C9.64679 22.4147 9.54099 22.4715 9.42535 22.4886C9.3097 22.5058 9.19171 22.4821 9.09185 22.4212L9.0899 22.4271ZM21.69 20.3924L8.06499 9.49204L8.02789 9.46324L1.69097 4.39439C1.58754 4.31138 1.52133 4.19078 1.50689 4.05894C1.49245 3.9271 1.53081 3.7947 1.61382 3.69126C1.69684 3.58783 1.81743 3.52162 1.94927 3.50718C2.08111 3.49274 2.21351 3.5311 2.31695 3.61411L8.30376 8.40318L14.2779 1.67124C14.3561 1.58357 14.4624 1.5261 14.5787 1.50913C14.6949 1.49217 14.8137 1.51679 14.9136 1.57847C15.0136 1.64015 15.0886 1.73504 15.1255 1.84654C15.1625 1.95803 15.1591 2.07913 15.1158 2.18833L12.4839 8.81822C12.4601 8.87767 12.4477 8.94116 12.4478 9.00523C12.4478 9.13784 12.5005 9.26498 12.5943 9.35874C12.6881 9.45251 12.8152 9.50523 12.9478 9.50523H17.7857C18.0751 9.50562 18.3585 9.58976 18.6011 9.74742C18.8438 9.90507 19.0354 10.1296 19.1534 10.3939C19.2713 10.6582 19.3103 10.9507 19.2657 11.2367C19.221 11.5226 19.0948 11.7895 18.9019 12.0052L16.3687 14.8602L22.3169 19.6185C22.3683 19.6595 22.4107 19.7099 22.4424 19.7674C22.4742 19.8249 22.4947 19.8882 22.502 19.9535C22.5093 20.0187 22.5036 20.0847 22.4854 20.1478C22.4672 20.2109 22.4365 20.2698 22.3956 20.3211C22.3546 20.3725 22.3041 20.4154 22.2466 20.4471C22.1891 20.4789 22.1259 20.4989 22.0606 20.5062C21.9953 20.5135 21.9294 20.5083 21.8663 20.4901C21.8031 20.4719 21.7443 20.4412 21.6929 20.4002L21.69 20.3924ZM15.5826 14.2264L18.1509 11.3334C18.2144 11.2615 18.2555 11.1727 18.2701 11.078C18.2846 10.9832 18.272 10.8863 18.233 10.7987C18.194 10.7111 18.1305 10.6369 18.0503 10.5843C17.9702 10.5317 17.8767 10.5032 17.7808 10.5023H12.9449C12.5471 10.5023 12.1656 10.3441 11.8843 10.0628C11.603 9.78154 11.4449 9.40012 11.4449 9.0023C11.4447 8.81216 11.481 8.62357 11.5518 8.44712L13.1338 4.46226L9.08404 9.02622L15.5826 14.2264Z" fill="#56596A"/>
</svg>
