<svg width="24" height="24" viewBox="0 0 24 24" fill="none" xmlns="http://www.w3.org/2000/svg">
<path d="M2 18.5002C1.86739 18.5002 1.73976 18.4474 1.646 18.3537C1.55223 18.2599 1.5 18.1328 1.5 18.0002C1.5 17.8675 1.55223 17.7404 1.646 17.6466C1.73976 17.5529 1.86739 17.5002 2 17.5002H22C22.1326 17.5002 22.2597 17.5529 22.3535 17.6466C22.4473 17.7404 22.5 17.8675 22.5 18.0002C22.5 18.1328 22.4473 18.2599 22.3535 18.3537C22.2597 18.4474 22.1326 18.5002 22 18.5002H2ZM6.25 13.5441L1.7749 11.2863C1.68724 11.2418 1.61435 11.1721 1.56592 11.0866C1.51748 11.001 1.4955 10.9029 1.50244 10.8048C1.50938 10.7068 1.54499 10.6132 1.60498 10.5353C1.66498 10.4574 1.74679 10.3986 1.83984 10.3669L4.81055 9.36685C4.91374 9.33032 5.02669 9.33032 5.12988 9.36685L8.29199 10.4298L10.4019 9.51383L6.69287 7.26822C6.61679 7.2214 6.55453 7.155 6.51221 7.07633C6.46989 6.99765 6.4488 6.90926 6.45166 6.81998C6.45536 6.7309 6.4829 6.64439 6.53125 6.56949C6.5796 6.49459 6.64691 6.43424 6.72656 6.3942L7.97266 5.76285C8.26471 5.61601 8.58314 5.52823 8.90918 5.50455C9.23521 5.48087 9.56235 5.52206 9.87256 5.62515L14.6416 7.73795L17.959 6.5441C18.5481 6.38583 19.1745 6.44821 19.7207 6.71988L21.9546 7.8522C22.1308 7.94086 22.277 8.07963 22.3745 8.25113C22.4721 8.42263 22.5168 8.61926 22.5029 8.81607C22.489 9.01288 22.4171 9.201 22.2964 9.35709C22.1757 9.51318 22.0117 9.63002 21.8247 9.69303L9.66357 13.7931C9.10698 13.9785 8.5197 14.052 7.93457 14.0099C7.34944 13.9679 6.77829 13.811 6.25391 13.548L6.25 13.5441ZM3.29297 10.9323L6.70068 12.651C7.10644 12.8548 7.54858 12.9765 8.00146 13.0089C8.45435 13.0414 8.90919 12.9839 9.33984 12.84L21.501 8.74625L21.6606 9.21988L21.5049 8.74429L19.2646 7.61197C18.9497 7.45147 18.5869 7.41182 18.2446 7.50015L14.7866 8.74429C14.6655 8.78738 14.5324 8.78255 14.4146 8.73111L9.50586 6.55289C9.14536 6.44643 8.75776 6.48232 8.42285 6.65299L7.98096 6.87808L11.7466 9.15982C11.8247 9.20745 11.8886 9.27586 11.9307 9.35709C11.9727 9.43832 11.9915 9.5295 11.9854 9.62076C11.9792 9.71202 11.9481 9.79985 11.8955 9.87467C11.8429 9.94948 11.7708 10.0084 11.687 10.0451L8.51172 11.4211C8.39863 11.4699 8.27157 11.4753 8.15479 11.4362L4.96875 10.3659L3.29297 10.9323Z" fill="#56596A"/>
</svg>
