<svg width="24" height="24" viewBox="0 0 24 24" fill="none" xmlns="http://www.w3.org/2000/svg">
<path d="M11.6475 22.3545C11.6009 22.3081 11.5638 22.2527 11.5386 22.1919C11.5134 22.1312 11.5005 22.0663 11.5005 22.0005C11.5005 21.9347 11.5134 21.8694 11.5386 21.8086C11.5638 21.7479 11.6009 21.6929 11.6475 21.6465L20.7964 12.5005H1.99609C1.86349 12.5005 1.73635 12.4478 1.64258 12.354C1.54881 12.2603 1.49609 12.1331 1.49609 12.0005C1.49609 11.8679 1.54881 11.7408 1.64258 11.647C1.73635 11.5532 1.86349 11.5005 1.99609 11.5005H20.79L11.6431 2.35353C11.552 2.25923 11.5018 2.13307 11.5029 2.00197C11.5041 1.87087 11.5567 1.74507 11.6494 1.65236C11.7421 1.55966 11.8674 1.50702 11.9985 1.50588C12.1296 1.50474 12.2558 1.55542 12.3501 1.6465L22.3501 11.6465C22.3968 11.6931 22.4338 11.7482 22.459 11.8091C22.4842 11.87 22.4972 11.9355 22.4971 12.0015V12.0015C22.4971 12.0065 22.4971 12.0126 22.4971 12.0176V12.0254C22.4938 12.091 22.4778 12.1555 22.4497 12.2149C22.4216 12.2742 22.3817 12.3275 22.333 12.3716L12.3511 22.3535C12.2573 22.4473 12.1301 22.5 11.9976 22.5C11.865 22.5 11.7378 22.4473 11.644 22.3535L11.6475 22.3545Z" fill="#56596A"/>
</svg>
