<svg width="24" height="24" viewBox="0 0 24 24" fill="none" xmlns="http://www.w3.org/2000/svg">
<path d="M7.56307 20.5057H7.54793C7.07542 20.4898 6.62841 20.2874 6.30477 19.9427C5.98112 19.5981 5.80713 19.1394 5.82088 18.6668C5.79202 17.4904 6.22891 16.3502 7.0367 15.4945C7.84449 14.6387 8.95774 14.1364 10.1339 14.0975H14.1939C15.3776 14.1349 16.4979 14.64 17.3097 15.5023C18.1214 16.3646 18.5582 17.5138 18.524 18.6976C18.5316 19.1651 18.3546 19.6171 18.0318 19.9554C17.709 20.2937 17.2663 20.4913 16.7989 20.5057H7.56307ZM6.82283 18.6668C6.81635 18.7713 6.83061 18.8756 6.86483 18.9745C6.89904 19.0733 6.95241 19.1649 7.02205 19.243C7.0917 19.3211 7.17624 19.3842 7.27059 19.4295C7.36493 19.4748 7.46735 19.5012 7.57186 19.5067H16.7828C16.9878 19.4961 17.1806 19.4051 17.3194 19.2537C17.4582 19.1024 17.5321 18.9028 17.525 18.6976C17.5585 17.7765 17.2247 16.88 16.5972 16.2049C15.9698 15.5298 15.0998 15.1314 14.1788 15.0975H10.1519C9.239 15.1322 8.37673 15.5261 7.75301 16.1937C7.12928 16.8612 6.79455 17.7483 6.82186 18.6615L6.82283 18.6668ZM20.38 17.0667C20.2474 17.0667 20.1202 17.014 20.0264 16.9203C19.9327 16.8265 19.88 16.6993 19.88 16.5667C19.88 16.4341 19.9327 16.307 20.0264 16.2132C20.1202 16.1195 20.2474 16.0667 20.38 16.0667H20.9508C21.1025 16.0582 21.2451 15.9904 21.3477 15.8783C21.4503 15.7661 21.505 15.6185 21.5001 15.4666C21.5143 15.0905 21.4542 14.7151 21.3233 14.3621C21.1924 14.0092 20.9929 13.6859 20.7369 13.41C20.4809 13.1341 20.1733 12.9111 19.8311 12.7542C19.489 12.5974 19.1189 12.5094 18.7428 12.4954H17.7247C17.5921 12.4954 17.4649 12.4427 17.3712 12.349C17.2774 12.2552 17.2247 12.1281 17.2247 11.9954C17.2247 11.8628 17.2774 11.7357 17.3712 11.6419C17.4649 11.5482 17.5921 11.4954 17.7247 11.4954H18.7589C19.7813 11.5276 20.7492 11.964 21.4503 12.7088C22.1514 13.4536 22.5287 14.4461 22.4991 15.4686C22.5056 15.8839 22.348 16.285 22.0611 16.5853C21.7743 16.8856 21.381 17.061 20.9659 17.0736L20.38 17.0667ZM3.04988 17.0667C2.84075 17.061 2.63496 17.0139 2.44393 16.9286C2.2529 16.8433 2.08044 16.7216 1.9366 16.5697C1.79276 16.4177 1.6803 16.2387 1.60555 16.0433C1.5308 15.8479 1.49533 15.6396 1.50106 15.4305C1.4773 14.4154 1.85501 13.4318 2.55233 12.6937C3.24964 11.9556 4.20983 11.5226 5.22469 11.4886H6.27498C6.40759 11.4886 6.53473 11.5413 6.6285 11.6351C6.72227 11.7289 6.77498 11.856 6.77498 11.9886C6.77498 12.1212 6.72227 12.2484 6.6285 12.3421C6.53473 12.4359 6.40759 12.4886 6.27498 12.4886H5.2408C4.4887 12.5186 3.77899 12.8443 3.2657 13.3949C2.75242 13.9454 2.47734 14.6762 2.50008 15.4286C2.49453 15.5076 2.50474 15.5869 2.53035 15.662C2.55596 15.737 2.59626 15.8064 2.64901 15.8656C2.70175 15.9247 2.76589 15.9726 2.83748 16.0067C2.90908 16.0407 2.9868 16.0603 3.066 16.0638H3.61971C3.75232 16.0638 3.87946 16.1165 3.97322 16.2103C4.06699 16.3041 4.11971 16.4312 4.11971 16.5638C4.11971 16.6964 4.06699 16.8236 3.97322 16.9173C3.87946 17.0111 3.75232 17.0638 3.61971 17.0638L3.04988 17.0667ZM8.51277 8.97641V8.55453C8.51277 7.58397 8.89826 6.65342 9.58455 5.96713C10.2708 5.28084 11.2019 4.89486 12.1724 4.89486C13.143 4.89486 14.0736 5.28084 14.7598 5.96713C15.4461 6.65342 15.8321 7.58397 15.8321 8.55453V8.97641C15.8321 9.94697 15.4461 10.878 14.7598 11.5643C14.0736 12.2506 13.143 12.6361 12.1724 12.6361C11.2019 12.6361 10.2708 12.2506 9.58455 11.5643C8.89826 10.878 8.51277 9.94697 8.51277 8.97641V8.97641ZM9.51278 8.55453V8.97641C9.51278 9.68188 9.79323 10.3584 10.2921 10.8573C10.7909 11.3561 11.4675 11.6366 12.1729 11.6366C12.8784 11.6366 13.5549 11.3561 14.0538 10.8573C14.5526 10.3584 14.8331 9.68188 14.8331 8.97641V8.55453C14.8331 7.84906 14.5526 7.17252 14.0538 6.67367C13.5549 6.17483 12.8784 5.89437 12.1729 5.89437C11.4675 5.89437 10.7909 6.17483 10.2921 6.67367C9.79323 7.17252 9.51278 7.84906 9.51278 8.55453V8.55453ZM17.8277 9.0184C17.7453 8.91553 17.7069 8.78426 17.7208 8.65316C17.7346 8.52207 17.7998 8.40205 17.9019 8.31869C18.1929 8.08288 18.4161 7.77405 18.5484 7.42367C18.6807 7.0733 18.7173 6.69383 18.6549 6.32455C18.5882 5.7858 18.312 5.29518 17.8863 4.95834C17.4606 4.6215 16.9196 4.46572 16.38 4.52475C16.2516 4.5342 16.1243 4.49384 16.025 4.41195C15.9257 4.33007 15.862 4.21263 15.8468 4.0848C15.8316 3.95698 15.8661 3.82833 15.9434 3.72543C16.0208 3.62253 16.1348 3.55348 16.2618 3.53256C17.0596 3.43885 17.8622 3.66357 18.4952 4.15805C19.1282 4.65252 19.5404 5.37694 19.6427 6.17367C19.7319 6.71479 19.6764 7.26961 19.481 7.78207C19.2857 8.29453 18.9577 8.74627 18.5308 9.09066C18.4282 9.17333 18.2972 9.21206 18.1661 9.19857C18.035 9.18509 17.9143 9.12022 17.8306 9.0184H17.8277ZM5.46981 9.09066C5.04138 8.74318 4.71316 8.28831 4.51815 7.7723C4.32313 7.2563 4.26843 6.69764 4.35994 6.15365C4.46844 5.36163 4.88306 4.64362 5.51473 4.15365C6.1464 3.66368 6.94473 3.44067 7.73885 3.53256C7.86586 3.55348 7.97986 3.62253 8.05721 3.72543C8.13455 3.82833 8.16909 3.95698 8.15389 4.0848C8.13868 4.21263 8.07499 4.33007 7.97567 4.41195C7.87634 4.49384 7.74906 4.5342 7.62069 4.52475C7.08525 4.4659 6.54842 4.6187 6.1241 4.95053C5.69979 5.28235 5.42163 5.76679 5.34969 6.30062C5.28409 6.6727 5.3194 7.05545 5.45125 7.40951C5.5831 7.76357 5.8067 8.07625 6.09969 8.31478C6.15416 8.35487 6.20015 8.40543 6.23445 8.46371C6.26876 8.52199 6.29079 8.58657 6.2994 8.65365C6.308 8.72073 6.30274 8.78879 6.28426 8.85385C6.26578 8.9189 6.23456 8.97953 6.19197 9.03207C6.14939 9.08461 6.09652 9.12797 6.0367 9.15951C5.97688 9.19106 5.91124 9.2102 5.84383 9.21566C5.77642 9.22113 5.70873 9.21275 5.64461 9.19125C5.58049 9.16975 5.52127 9.13566 5.47078 9.09066H5.46981Z" fill="#56596A"/>
</svg>
