<svg width="24" height="24" viewBox="0 0 24 24" fill="none" xmlns="http://www.w3.org/2000/svg">
<path d="M2.44341 16.3535C2.43236 16.3325 2.42237 16.3108 2.41412 16.2886C1.28936 13.7444 1.22027 10.8578 2.22173 8.26267C3.2232 5.66751 5.21367 3.57583 7.75591 2.44676C10.2982 1.31769 13.1844 1.24364 15.7813 2.2407C18.3782 3.23777 20.4731 5.2243 21.6065 7.76463C22.7399 10.305 22.8189 13.191 21.8262 15.7895C20.8336 18.3881 18.8505 20.4868 16.3121 21.6245C13.7737 22.7622 10.8874 22.8461 8.28716 21.8579C5.68694 20.8696 3.58539 18.89 2.44341 16.3535V16.3535ZM11.9981 21.5024C13.521 21.502 15.0215 21.1353 16.3731 20.4336C17.7247 19.7319 18.8877 18.7155 19.7642 17.4702L15.3545 13.0625C15.2591 12.9715 15.1324 12.9209 15.0005 12.9209C14.8687 12.9209 14.7419 12.9715 14.6465 13.0625L14.0601 13.6484C13.778 13.9285 13.3971 14.0854 12.9996 14.0854C12.6021 14.0854 12.2206 13.9285 11.9385 13.6484L9.35357 11.0615C9.30712 11.0149 9.25172 10.9778 9.19097 10.9526C9.13023 10.9274 9.06533 10.9145 8.99957 10.9145C8.9338 10.9145 8.86842 10.9274 8.80767 10.9526C8.74693 10.9778 8.69201 11.0149 8.64556 11.0615L3.48638 16.2182C4.27352 17.8032 5.48706 19.1374 6.99078 20.0703C8.4945 21.0032 10.2285 21.4982 11.9981 21.4995V21.5024ZM16.0601 12.3554L20.3091 16.6045C21.0794 15.2142 21.489 13.6528 21.4996 12.0635C21.5102 10.4741 21.1219 8.90769 20.3702 7.5073C19.6185 6.10691 18.5273 4.91734 17.1968 4.04783C15.8664 3.17832 14.3393 2.65658 12.7549 2.53025C11.1706 2.40392 9.57989 2.67699 8.12847 3.32469C6.67705 3.97238 5.41094 4.97371 4.44683 6.23728C3.48273 7.50086 2.85131 8.98617 2.60992 10.5571C2.36853 12.128 2.52522 13.7347 3.06548 15.2295L7.94048 10.3545C8.22174 10.0736 8.60304 9.91551 9.00054 9.91551C9.39804 9.91551 9.77886 10.0736 10.0601 10.3545L12.6475 12.9404C12.7413 13.0341 12.8684 13.0869 13.001 13.0869C13.1336 13.0869 13.2608 13.0341 13.3545 12.9404L13.9405 12.3545C14.2218 12.0733 14.6033 11.915 15.001 11.915C15.3988 11.915 15.7803 12.0733 16.0616 12.3545L16.0601 12.3554ZM12.4454 7.72654C12.4454 7.33098 12.5625 6.94411 12.7823 6.61521C13.002 6.28631 13.3143 6.02977 13.6797 5.8784C14.0452 5.72702 14.4475 5.68746 14.8355 5.76463C15.2235 5.8418 15.5797 6.03228 15.8594 6.31199C16.1391 6.59169 16.3296 6.94844 16.4068 7.3364C16.484 7.72437 16.4444 8.12623 16.293 8.49168C16.1416 8.85713 15.8856 9.16938 15.5567 9.38914C15.2278 9.6089 14.8409 9.72654 14.4454 9.72654C14.1826 9.72654 13.9225 9.67477 13.6797 9.5742C13.437 9.47362 13.2165 9.32594 13.0308 9.14011C12.8451 8.95429 12.6977 8.73396 12.5972 8.49119C12.4968 8.24842 12.4452 7.98829 12.4454 7.72556V7.72654ZM13.4454 7.72654C13.4454 7.92432 13.5039 8.11776 13.6138 8.2822C13.7237 8.44665 13.8798 8.57468 14.0626 8.65037C14.2453 8.72606 14.4462 8.74559 14.6402 8.70701C14.8342 8.66842 15.0125 8.57342 15.1524 8.43357C15.2923 8.29372 15.3877 8.11535 15.4263 7.92136C15.4649 7.72738 15.4449 7.52645 15.3692 7.34373C15.2935 7.161 15.1655 7.00488 15.001 6.895C14.8366 6.78512 14.6431 6.72654 14.4454 6.72654C14.314 6.72641 14.1839 6.75209 14.0626 6.80222C13.9412 6.85236 13.8308 6.92577 13.7378 7.01853C13.6449 7.1113 13.5714 7.22148 13.5211 7.34275C13.4707 7.46403 13.4445 7.59424 13.4444 7.72556L13.4454 7.72654Z" fill="#56596A"/>
</svg>
