<svg width="24" height="24" viewBox="0 0 24 24" fill="none" xmlns="http://www.w3.org/2000/svg">
<path d="M10.2573 20.7582C10.2569 20.4389 10.3448 20.1259 10.5112 19.8534C10.7285 19.2789 10.7762 18.654 10.6489 18.0531C10.5217 17.4522 10.225 16.9004 9.79346 16.4633C9.18825 15.8565 8.3682 15.5123 7.51123 15.5048C6.65426 15.4973 5.82909 15.8271 5.21338 16.4232C4.60629 17.0161 4.25881 17.8253 4.24756 18.6737C4.23631 19.5222 4.56216 20.3404 5.15332 20.9491L5.16309 20.9604L5.18213 20.9784C5.45581 21.2556 5.82828 21.4132 6.21777 21.4169C6.60727 21.4206 6.98227 21.2703 7.26123 20.9984C7.39787 20.8656 7.5072 20.7067 7.58252 20.5316C7.65784 20.3566 7.69769 20.1685 7.7002 19.9779C7.7027 19.7873 7.66785 19.5983 7.59717 19.4213C7.52648 19.2443 7.42118 19.0826 7.28809 18.9462C7.19519 18.8516 7.14355 18.7243 7.14355 18.5917C7.14355 18.4591 7.19519 18.3318 7.28809 18.2372C7.33398 18.1911 7.38867 18.1547 7.44873 18.1298C7.50879 18.1048 7.57315 18.0922 7.63818 18.0922C7.70322 18.0922 7.76757 18.1048 7.82764 18.1298C7.8877 18.1547 7.94238 18.1911 7.98828 18.2372C8.21581 18.4672 8.39542 18.7402 8.51709 19.0399C8.63876 19.3397 8.70015 19.6603 8.69727 19.9838C8.69438 20.3073 8.62748 20.6272 8.50049 20.9247C8.3735 21.2222 8.18862 21.4913 7.95703 21.7172C7.51518 22.1457 6.93011 22.3952 6.31494 22.4164C5.69977 22.4377 5.09878 22.2295 4.62842 21.8324C4.4659 22.0396 4.25877 22.2075 4.02246 22.3236C3.78615 22.4398 3.52649 22.5012 3.26318 22.5033H3.24805C2.78639 22.502 2.34417 22.3189 2.0166 21.9936C1.68904 21.6682 1.50252 21.2272 1.49805 20.7655C1.49805 20.6329 1.55076 20.5058 1.64453 20.412C1.7383 20.3182 1.86544 20.2655 1.99805 20.2655C2.13066 20.2655 2.25828 20.3182 2.35205 20.412C2.44582 20.5058 2.49805 20.6329 2.49805 20.7655C2.49937 20.9638 2.57952 21.1536 2.72021 21.2934C2.86091 21.4331 3.05071 21.5111 3.24902 21.5111H3.25439C3.40307 21.5101 3.54802 21.465 3.6709 21.3813C3.79378 21.2976 3.88896 21.1794 3.94434 21.0414C3.40559 20.2271 3.16721 19.2506 3.27051 18.2797C3.3738 17.3088 3.81224 16.4043 4.51025 15.7216C5.31487 14.9411 6.39471 14.5087 7.51562 14.5185C8.63654 14.5282 9.70809 14.979 10.499 15.7733C10.9221 16.2021 11.2485 16.7169 11.4556 17.2826C11.6626 17.8483 11.7456 18.4515 11.6992 19.0522C11.8941 19.0189 12.0932 19.0189 12.2881 19.0522C12.2412 18.4515 12.3242 17.8479 12.5312 17.2821C12.7383 16.7164 13.0648 16.2019 13.4883 15.7733C14.279 14.9794 15.3507 14.5287 16.4712 14.5189C17.5917 14.5092 18.6707 14.9415 19.4751 15.7216C20.176 16.4041 20.6168 17.3094 20.7212 18.2821C20.8256 19.2548 20.5875 20.2335 20.0474 21.0492C20.1037 21.1848 20.1985 21.3007 20.3203 21.3827C20.4421 21.4647 20.5856 21.509 20.7324 21.5102C20.9302 21.5067 21.1189 21.4273 21.2598 21.2885C21.4007 21.1496 21.4829 20.9623 21.4893 20.7646C21.4893 20.6319 21.542 20.5043 21.6357 20.4106C21.7295 20.3168 21.8566 20.2646 21.9893 20.2646H21.9941C22.1267 20.2646 22.2539 20.3168 22.3477 20.4106C22.4414 20.5043 22.4941 20.6319 22.4941 20.7646C22.4899 21.2263 22.3042 21.6677 21.9766 21.9931C21.6489 22.3184 21.2059 22.5013 20.7441 22.5023H20.7305C20.4672 22.5001 20.2075 22.4383 19.9712 22.3222C19.7349 22.206 19.5279 22.0385 19.3652 21.8314C18.8949 22.2285 18.2939 22.4367 17.6787 22.4154C17.0635 22.3942 16.478 22.1448 16.0361 21.7162C15.5709 21.2628 15.3048 20.6432 15.2964 19.9936C15.2879 19.344 15.5379 18.7177 15.9912 18.2523L16.7153 18.9433C16.5808 19.0792 16.4742 19.2406 16.4023 19.4179C16.3305 19.5951 16.2945 19.7847 16.2964 19.976C16.2982 20.1672 16.3383 20.3563 16.4136 20.5321C16.4889 20.7079 16.5982 20.8671 16.7354 21.0004C17.0155 21.2707 17.3905 21.4202 17.7798 21.4164C18.1691 21.4127 18.5415 21.256 18.8164 20.9804L18.8403 20.9574C19.1347 20.6565 19.3664 20.3003 19.5229 19.9096C19.6795 19.5188 19.7576 19.101 19.7524 18.6801C19.7472 18.2592 19.6588 17.8437 19.4927 17.4569C19.3265 17.0702 19.0859 16.7197 18.7842 16.4262C18.1689 15.8299 17.3435 15.5002 16.4868 15.5077C15.6301 15.5152 14.8108 15.8593 14.2061 16.4662C13.7743 16.9029 13.4769 17.4544 13.3491 18.0551C13.2213 18.6558 13.2687 19.2807 13.4854 19.8554C13.6252 20.0852 13.7099 20.3442 13.7329 20.6122C13.7559 20.8802 13.7168 21.15 13.6182 21.4003C13.5196 21.6506 13.3642 21.8748 13.1646 22.0551C12.9649 22.2354 12.7263 22.3667 12.4673 22.4394C12.2083 22.512 11.9357 22.5241 11.6714 22.474C11.4071 22.4239 11.1583 22.3132 10.9438 22.1508C10.7294 21.9883 10.5553 21.7784 10.4355 21.5375C10.3158 21.2966 10.2536 21.0311 10.2534 20.7621L10.2573 20.7582ZM12.0005 20.0146C11.8533 20.0146 11.7093 20.0578 11.5869 20.1396C11.4646 20.2213 11.3693 20.3376 11.313 20.4735C11.2567 20.6095 11.2418 20.7594 11.2705 20.9037C11.2992 21.048 11.3701 21.1805 11.4741 21.2846C11.5782 21.3886 11.7107 21.4595 11.855 21.4882C11.9993 21.5169 12.1492 21.502 12.2852 21.4457C12.4211 21.3894 12.5369 21.2941 12.6187 21.1718C12.7004 21.0494 12.7441 20.9054 12.7441 20.7582C12.7441 20.5609 12.6659 20.3719 12.5264 20.2323C12.3868 20.0928 12.1978 20.0146 12.0005 20.0146V20.0146ZM11.3335 15.3925L9.18945 12.3476C9.08157 12.2018 9.01507 12.0295 8.99756 11.849C8.98005 11.6686 9.01198 11.4864 9.08984 11.3227C9.16771 11.1589 9.28843 11.0197 9.43945 10.9193C9.59048 10.819 9.76615 10.7616 9.94727 10.7533H14.0215C14.2272 10.7613 14.4257 10.8312 14.5913 10.9535C14.6984 11.0315 14.7888 11.1298 14.8574 11.2431C14.9261 11.3564 14.9716 11.4822 14.9912 11.6132C15.0121 11.7449 15.0065 11.8796 14.9751 12.0092C14.9437 12.1388 14.8869 12.261 14.8081 12.3686L12.6675 15.4042C12.6116 15.4888 12.5391 15.5619 12.4551 15.6186C12.3669 15.6779 12.2682 15.7191 12.1641 15.7401C12.0599 15.7612 11.9524 15.7615 11.8481 15.7411C11.7439 15.7207 11.6447 15.6798 11.5562 15.621C11.4676 15.5622 11.3913 15.4865 11.332 15.3983L11.3335 15.3925ZM12.1582 14.8266L12.1533 14.8192L12.1582 14.8266ZM12.0024 14.6083L13.9951 11.7773L9.9751 11.7523L12.0024 14.6083ZM9.50244 10.2514C9.36983 10.2514 9.24269 10.1987 9.14893 10.1049C9.05516 10.0111 9.00244 9.88398 9.00244 9.75137C9.00244 9.61876 9.05516 9.49162 9.14893 9.39786C9.24269 9.30409 9.36983 9.25137 9.50244 9.25137H14.5024C14.635 9.25137 14.7622 9.30409 14.856 9.39786C14.9497 9.49162 15.0024 9.61876 15.0024 9.75137C15.0024 9.88398 14.9497 10.0111 14.856 10.1049C14.7622 10.1987 14.635 10.2514 14.5024 10.2514H9.50244ZM11.3833 8.45938C10.9341 8.45853 10.4945 8.32919 10.1162 8.08682C9.73796 7.84446 9.43655 7.499 9.24805 7.09122L9.18604 6.95938C9.04291 6.65038 8.96924 6.31408 8.96924 5.97354C8.96924 5.633 9.04291 5.29621 9.18604 4.98721L9.84131 3.75235C9.87771 3.68329 9.92961 3.62384 9.99316 3.57852C10.0567 3.5332 10.1299 3.50303 10.207 3.49112C10.2843 3.48036 10.3633 3.48785 10.4375 3.51211C10.5117 3.53637 10.5793 3.5769 10.6353 3.63125L11.1094 4.10342L12.0742 1.80313C12.1115 1.71734 12.1724 1.64376 12.2495 1.59073C12.3266 1.53769 12.4168 1.50753 12.5103 1.50332C12.6041 1.49619 12.6981 1.51701 12.7803 1.5629C12.8624 1.60878 12.929 1.6775 12.9722 1.76114L14.6885 4.88516C14.8926 5.21332 15.0113 5.58728 15.0342 5.97305C15.0571 6.35882 14.9832 6.74416 14.8193 7.09415C14.6307 7.50185 14.3294 7.8474 13.9512 8.08975C13.5729 8.3321 13.1333 8.46134 12.6841 8.46231L11.3833 8.45938ZM10.0835 5.43057C10.0071 5.606 9.96846 5.79539 9.9707 5.98672C9.97294 6.17805 10.0157 6.36684 10.0962 6.54043L10.1582 6.67227C10.2669 6.90656 10.4402 7.10482 10.6577 7.24405C10.8752 7.38328 11.128 7.45783 11.3862 7.4584H12.686C12.9273 7.4584 13.1642 7.39389 13.3721 7.27139C13.5799 7.14889 13.7513 6.97269 13.8682 6.76163C13.985 6.55056 14.0431 6.31236 14.0366 6.0712C14.0301 5.83003 13.9591 5.59501 13.8311 5.39053L12.5981 3.14834L11.7471 5.17032C11.7157 5.24614 11.6664 5.31299 11.603 5.36514C11.5397 5.41729 11.4642 5.45294 11.3838 5.46915C11.3033 5.48535 11.2202 5.48195 11.1416 5.4584C11.063 5.43486 10.9914 5.39214 10.9331 5.33438L10.4121 4.81534L10.0835 5.43057Z" fill="#56596A"/>
</svg>
