<svg width="24" height="24" viewBox="0 0 24 24" fill="none" xmlns="http://www.w3.org/2000/svg">
<path d="M19.0762 22.5011H13.3984C13.2658 22.5011 13.1387 22.4484 13.0449 22.3547C12.9512 22.2609 12.8984 22.1337 12.8984 22.0011C12.8984 21.8685 12.9512 21.7414 13.0449 21.6476C13.1387 21.5539 13.2658 21.5011 13.3984 21.5011H19.0884C19.4493 21.506 19.7982 21.3701 20.061 21.1227C20.3239 20.8753 20.48 20.5356 20.4971 20.175C20.4537 18.79 19.864 17.4787 18.8564 16.5275C17.8488 15.5763 16.5053 15.0629 15.1201 15.0993H13.3975C13.2649 15.0993 13.1377 15.0466 13.0439 14.9528C12.9502 14.859 12.8975 14.7319 12.8975 14.5993C12.8975 14.4667 12.9502 14.339 13.0439 14.2453C13.1377 14.1515 13.2649 14.0993 13.3975 14.0993H15.1074C16.7602 14.0609 18.3607 14.6786 19.5586 15.818C20.7565 16.9575 21.4538 18.5252 21.498 20.1779C21.4837 20.7969 21.2292 21.3864 20.7876 21.8205C20.346 22.2546 19.7525 22.4994 19.1333 22.5031L19.0762 22.5011ZM2.49805 20.2008C2.54071 18.5717 3.21671 17.0234 4.38232 15.8844C5.54794 14.7455 7.11156 14.1061 8.74121 14.1012C8.79621 14.1012 8.84837 14.1012 8.90137 14.1012H10.5601C10.6927 14.1012 10.8203 14.154 10.9141 14.2477C11.0078 14.3415 11.0601 14.4686 11.0601 14.6012C11.0601 14.7338 11.0078 14.861 10.9141 14.9548C10.8203 15.0485 10.6927 15.1012 10.5601 15.1012H8.88818C7.49766 15.0644 6.14947 15.5807 5.13916 16.5368C4.12885 17.4929 3.53928 18.8104 3.49951 20.2008C3.52179 20.5557 3.67941 20.8886 3.93994 21.1305C4.20047 21.3725 4.54391 21.5052 4.89941 21.5011H10.5625C10.6951 21.5011 10.8222 21.5539 10.916 21.6476C11.0098 21.7414 11.0625 21.8685 11.0625 22.0011C11.0625 22.1337 11.0098 22.2609 10.916 22.3547C10.8222 22.4484 10.6951 22.5011 10.5625 22.5011H4.91016H4.85449C4.24047 22.4975 3.65169 22.2559 3.2124 21.8268C2.77312 21.3978 2.51764 20.8146 2.49951 20.2008H2.49805ZM10.5933 13.2663C9.51067 13.222 8.43858 13.0359 7.4043 12.7131C6.65679 12.4448 5.94353 12.0893 5.2793 11.654C5.17261 11.5842 5.09664 11.4762 5.06689 11.3522C5.03715 11.2282 5.05574 11.0976 5.11914 10.987C5.48141 10.3575 5.80675 9.7076 6.09326 9.0402C6.48882 8.11265 6.80949 7.15467 7.05225 6.17594C7.06573 5.15648 7.38982 4.16547 7.98145 3.33512C8.57307 2.50478 9.40411 1.87464 10.3633 1.52897C10.4256 1.50446 10.4921 1.49258 10.5591 1.4943C10.626 1.49602 10.692 1.51155 10.7529 1.53923C10.8139 1.5669 10.8687 1.60619 10.9141 1.65544C10.9594 1.70469 10.9945 1.76281 11.0171 1.82585C11.0397 1.88888 11.0492 1.95577 11.0454 2.02262C11.0416 2.08948 11.0247 2.15492 10.9951 2.21501C10.9656 2.2751 10.9242 2.32841 10.8735 2.37223C10.8229 2.41606 10.7639 2.44927 10.7002 2.46989C9.81047 2.79002 9.06306 3.41514 8.59033 4.23405L9.61719 4.61491C10.1955 4.82544 10.8148 4.89916 11.4263 4.82975C12.0378 4.76034 12.6247 4.5498 13.1411 4.21501L13.1685 4.19596L13.2075 4.17204C13.5673 3.92972 13.8835 3.62876 14.144 3.2819L14.3584 2.99626C14.0324 2.77045 13.6745 2.59483 13.2964 2.47526C13.2337 2.45556 13.1753 2.42368 13.125 2.38151C13.0747 2.33934 13.0333 2.28739 13.0029 2.22917C12.9726 2.17094 12.954 2.10757 12.9482 2.04216C12.9425 1.97674 12.9495 1.91046 12.9692 1.84782C12.9889 1.78518 13.0208 1.72726 13.063 1.67692C13.1052 1.62659 13.1566 1.58522 13.2148 1.55485C13.2731 1.52449 13.3369 1.50594 13.4023 1.50016C13.4678 1.49439 13.5336 1.50146 13.5962 1.52116C14.2082 1.71482 14.7771 2.02562 15.2705 2.4362C15.3015 2.45091 15.3309 2.46839 15.3584 2.48893C15.4073 2.5252 15.4491 2.57061 15.4814 2.62223C16.1903 3.28508 16.6872 4.14252 16.9102 5.08708C16.9241 5.12648 16.9336 5.16752 16.9375 5.20915C17.0076 5.54596 17.0428 5.88904 17.0425 6.23307V8.23307C17.0445 9.28774 16.7123 10.3158 16.0938 11.1701C15.4752 12.0243 14.6017 12.6607 13.5991 12.988C13.5486 13.0033 13.4962 13.011 13.4434 13.0109C13.325 13.0102 13.2104 12.9674 13.1206 12.8903C13.0308 12.8132 12.9714 12.7069 12.9526 12.59C12.9339 12.4731 12.9573 12.3534 13.0186 12.2521C13.0798 12.1508 13.1749 12.0749 13.2871 12.0373C14.0889 11.7762 14.7874 11.2678 15.2822 10.5851C15.777 9.9024 16.043 9.08015 16.0415 8.23698V6.23698C16.0415 6.16198 16.0412 6.08786 16.0352 6.01286C15.5602 6.19526 15.0397 6.22286 14.5483 6.09098C14.057 5.95911 13.6201 5.67467 13.3003 5.27897C12.5808 5.65733 11.7802 5.85548 10.9673 5.85612C10.3873 5.85751 9.81154 5.75564 9.26709 5.55583L8.19824 5.15593C8.10245 5.49611 8.05241 5.84745 8.04932 6.20085C8.05101 6.22482 8.05101 6.24914 8.04932 6.27311V8.23503C8.06478 9.10534 8.33212 9.95266 8.81934 10.674C9.30655 11.3953 9.99285 11.9597 10.7944 12.299C10.814 12.3065 10.8326 12.315 10.8511 12.3249L10.8604 12.3302H10.8691C10.9392 12.372 10.9982 12.43 11.0405 12.4997C11.0829 12.5694 11.1075 12.6487 11.1123 12.7301C11.1123 12.7301 11.1123 12.7388 11.1123 12.7438C11.1123 12.7488 11.1123 12.753 11.1123 12.758C11.1123 12.765 11.1123 12.772 11.1123 12.779C11.1072 12.9016 11.0571 13.018 10.9717 13.1061C10.8863 13.1943 10.7718 13.248 10.6494 13.257H10.6143L10.5933 13.2663ZM7.01123 9.43327C6.77423 9.98627 6.51121 10.5332 6.22021 11.0632C6.69768 11.342 7.19979 11.576 7.72021 11.7629C8.01555 11.8549 8.31545 11.9351 8.62012 12.0031C7.84857 11.2155 7.33165 10.2142 7.13623 9.12907C7.09723 9.23607 7.05521 9.3362 7.01221 9.4362L7.01123 9.43327ZM15.8115 5.01921L15.8452 5.00114C15.6859 4.51311 15.432 4.06111 15.0981 3.67106L14.9404 3.882C14.7082 4.19256 14.4393 4.47409 14.1401 4.72087C14.3474 4.94848 14.6243 5.10182 14.9272 5.15641C15.2302 5.21101 15.5427 5.16405 15.8164 5.02311L15.8115 5.01921Z" fill="#56596A"/>
</svg>
