<svg width="24" height="24" viewBox="0 0 24 24" fill="none" xmlns="http://www.w3.org/2000/svg">
<path d="M14.7417 22.4982H6.55273C5.88969 22.4982 5.254 22.2347 4.78516 21.7658C4.31632 21.297 4.05273 20.6613 4.05273 19.9982V11.9079H4.00195C3.33891 11.9079 2.70273 11.6448 2.23389 11.176C1.76505 10.7071 1.50195 10.071 1.50195 9.40791V9.29219C1.50195 8.62915 1.76505 7.99345 2.23389 7.52461C2.70273 7.05577 3.33891 6.79219 4.00195 6.79219H7.27588C6.92875 6.69048 6.60731 6.51495 6.33398 6.27803C6.06065 6.04111 5.84186 5.74831 5.69189 5.41914C5.5923 5.00543 5.57526 4.5762 5.64209 4.15596C5.70892 3.73571 5.85804 3.33282 6.08105 2.97041C6.30407 2.60801 6.59637 2.29318 6.94141 2.04414C7.28644 1.7951 7.6776 1.61677 8.0918 1.51924C9.8308 1.31924 11.4605 3.35626 12.1675 4.81026C12.8675 3.35826 14.4617 1.34096 16.1807 1.50996C16.5964 1.59778 16.991 1.7671 17.3413 2.00752C17.6917 2.24794 17.9912 2.55501 18.2227 2.91133C18.4541 3.26765 18.6127 3.66587 18.6899 4.08369C18.7672 4.50151 18.7616 4.93085 18.6729 5.34639C18.5173 5.69227 18.2891 6.00019 18.0039 6.2502C17.7187 6.5002 17.3828 6.68617 17.0195 6.79512H19.9985C20.6616 6.79512 21.2978 7.0587 21.7666 7.52754C22.2354 7.99638 22.4985 8.63208 22.4985 9.29512V9.41133C22.4995 10.0245 22.2753 10.6164 21.8682 11.0749C21.4611 11.5334 20.8995 11.8265 20.2905 11.8981V20.0051C20.2905 20.6681 20.0274 21.3043 19.5586 21.7731C19.0898 22.242 18.4536 22.5051 17.7905 22.5051L14.7417 22.4982ZM17.7949 21.4982C18.1927 21.4982 18.5742 21.3401 18.8555 21.0588C19.1368 20.7775 19.2949 20.3961 19.2949 19.9982V11.9079H14.7417V21.4982H17.7949ZM13.7427 21.4982V7.79805H10.6045V21.4982H13.7427ZM5.05273 19.9982C5.05273 20.3961 5.21088 20.7775 5.49219 21.0588C5.77349 21.3401 6.15491 21.4982 6.55273 21.4982H9.60352V11.9079H5.05273V19.9982ZM20.0029 10.9094C20.4008 10.9094 20.7822 10.7512 21.0635 10.4699C21.3448 10.1886 21.5029 9.8072 21.5029 9.40938V9.29317C21.5029 8.89534 21.3448 8.51392 21.0635 8.23262C20.7822 7.95131 20.4008 7.79317 20.0029 7.79317H14.7427V10.9094H20.0029ZM9.60254 10.9094V7.79805H4.00293C3.6051 7.79805 3.2232 7.9562 2.94189 8.2375C2.66059 8.51881 2.50293 8.90022 2.50293 9.29805V9.41426C2.50293 9.81208 2.66059 10.1935 2.94189 10.4748C3.2232 10.7561 3.6051 10.9143 4.00293 10.9143H9.60254V10.9094ZM13.481 4.50899C13.0197 5.10623 12.7489 5.82891 12.7046 6.58223C13.0276 6.58784 13.3502 6.56001 13.6675 6.49922C15.6595 6.19122 17.3737 5.9241 17.7217 5.0461C17.8245 4.48236 17.7047 3.90091 17.3877 3.42354C17.0707 2.94617 16.581 2.60997 16.0215 2.48604C15.9985 2.48604 15.9747 2.48604 15.9507 2.48604C15.2907 2.49204 14.2749 3.28729 13.4819 4.51729L13.481 4.50899ZM8.25684 2.49727C7.69983 2.63966 7.22015 2.99311 6.91943 3.48311C6.61871 3.97311 6.52025 4.56116 6.64551 5.12227C6.97051 5.92227 8.6849 6.19027 10.6709 6.49727C10.9901 6.55914 11.3146 6.58759 11.6396 6.58223C11.5933 5.82588 11.3212 5.10084 10.8579 4.50117C10.0729 3.28417 9.07866 2.49336 8.34766 2.49336C8.31766 2.49836 8.29081 2.50408 8.25781 2.50508L8.25684 2.49727Z" fill="#56596A"/>
</svg>
