<svg width="24" height="25" viewBox="0 0 24 25" fill="none" xmlns="http://www.w3.org/2000/svg">
<path d="M22.758 6.10909H17.096C17.6164 6.03549 18.1118 5.83936 18.5416 5.53685C18.9713 5.23435 19.3231 4.8341 19.568 4.36907C19.7104 3.9239 19.7494 3.45211 19.682 2.98961C19.6146 2.52711 19.4425 2.08609 19.179 1.70009C18.9372 1.25981 18.5996 0.879449 18.1911 0.587113C17.7827 0.294777 17.3137 0.0979341 16.819 0.0110939C14.819 -0.182906 12.935 2.32809 12.2 3.98009C11.465 2.32809 9.56799 -0.174906 7.58199 0.0110939C7.08723 0.0978907 6.61826 0.294603 6.20964 0.586747C5.80102 0.87889 5.46316 1.25901 5.22099 1.69908C4.95758 2.08515 4.78564 2.52619 4.71824 2.98866C4.65083 3.45114 4.68973 3.9229 4.83199 4.36809C5.07684 4.83312 5.42863 5.23334 5.85839 5.53584C6.28816 5.83835 6.78361 6.03448 7.30399 6.10808H1.24399C0.928501 6.09666 0.621222 6.21002 0.388741 6.4236C0.156259 6.63718 0.0172986 6.93375 0.00198364 7.24907V10.6421C0.0175531 10.9572 0.156623 11.2535 0.389076 11.4669C0.62153 11.6803 0.928666 11.7935 1.24399 11.7821H1.79099V22.8591C1.80756 23.1766 1.94899 23.4748 2.18445 23.6885C2.41991 23.9023 2.73031 24.0142 3.04799 24.0001H21.348C21.5055 24.0077 21.6629 23.9843 21.8113 23.9311C21.9597 23.8779 22.0962 23.796 22.2129 23.69C22.3296 23.5841 22.4243 23.4562 22.4916 23.3136C22.5589 23.171 22.5974 23.0166 22.605 22.8591V11.7831H22.755C23.0705 11.7948 23.3779 11.6817 23.6105 11.4683C23.8432 11.2549 23.9824 10.9584 23.998 10.6431V7.25209C23.9832 6.93677 23.8447 6.63999 23.6126 6.42604C23.3805 6.2121 23.0735 6.09822 22.758 6.10909V6.10909ZM13.031 4.38207C13.806 2.61607 15.486 0.80107 16.731 0.93007C17.0824 1.00504 17.4132 1.15586 17.7002 1.37193C17.9873 1.58801 18.2237 1.86415 18.393 2.18108C18.5814 2.44527 18.7078 2.74849 18.763 3.06822C18.8183 3.38796 18.8008 3.71602 18.712 4.02809C18.286 5.10309 16.274 5.41408 13.944 5.77608C13.5446 5.86311 13.1348 5.89276 12.727 5.86409C12.665 5.74209 12.642 5.26907 13.031 4.38207V4.38207ZM5.68999 4.02809C5.60145 3.71599 5.58414 3.38797 5.63936 3.06828C5.69457 2.7486 5.82089 2.4454 6.00899 2.18108C6.17836 1.86423 6.41482 1.58815 6.70187 1.37209C6.98891 1.15602 7.31965 1.00517 7.67099 0.93007C7.71199 0.93007 7.75199 0.924088 7.79399 0.924088C9.02999 0.924088 10.62 2.67307 11.369 4.38307C11.758 5.26907 11.735 5.74309 11.669 5.86409C11.2609 5.89207 10.8508 5.86243 10.451 5.77608C8.12799 5.41408 6.11599 5.10309 5.68999 4.02709V4.02809ZM1.24499 10.8601C1.05699 10.8601 0.925987 10.7451 0.925987 10.6431V7.25209C0.925987 7.15209 1.05699 7.03407 1.24499 7.03407H9.35199V10.8621H1.24499V10.8601ZM10.275 23.0781V7.03209H14.126V23.0781H10.275ZM23.075 10.6431C23.075 10.7431 22.943 10.8601 22.755 10.8601H15.049V7.03209H22.758C22.946 7.03209 23.078 7.14608 23.078 7.25008L23.075 10.6431Z" fill="#5439AC"/>
</svg>
