<svg width="24" height="24" viewBox="0 0 24 24" fill="none" xmlns="http://www.w3.org/2000/svg">
<path d="M18 18V8.00005C18 6.89548 17.1046 6.00005 16 6.00005H8M18 18C18 19.1046 17.1046 20 16 20H13.7431M18 18C19.1046 18 20 17.1046 20 16V6C20 4.89543 19.1046 4 18 4H10C8.89543 4 8 4.89548 8 6.00005M8 6.00005C6.89543 6.00005 6 6.89548 6 8.00005V12.4948M12.064 9.64018H15.064M11.064 11.6402H15.064" stroke="#5439AC" stroke-linecap="round" stroke-linejoin="round"/>
<path d="M9.64881 22.0001C9.64881 19.6748 -1.84439 16.7186 7.33418 15.1245C13.0326 14.1348 15.7679 19.3432 2 20.4059" stroke="#5439AC" stroke-linecap="round" stroke-linejoin="round"/>
<path d="M7.49997 21.4999C7.49997 21.4999 7.8087 19.9261 7.49997 18.9999C7.36189 18.5857 7.03905 18.2734 7 18C6.93825 17.5678 7.99996 17.9999 7.99996 17.9999" stroke="#5439AC" stroke-linecap="round" stroke-linejoin="round"/>
</svg>
