<svg width="48" height="48" viewBox="0 0 48 48" fill="none" xmlns="http://www.w3.org/2000/svg">
<path d="M29.4281 16.314C29.3205 16.3141 29.214 16.2929 29.1146 16.2518C29.0152 16.2106 28.925 16.1502 28.849 16.074L23.88 11.105C23.7316 10.9504 23.6497 10.7438 23.6519 10.5295C23.6541 10.3152 23.7402 10.1102 23.8917 9.95869C24.0433 9.80714 24.2482 9.72104 24.4625 9.71885C24.6768 9.71667 24.8834 9.79858 25.038 9.947L30.0071 14.916C30.1222 15.0304 30.2008 15.1765 30.2328 15.3357C30.2647 15.4949 30.2487 15.66 30.1867 15.81C30.1246 15.96 30.0194 16.0883 29.8843 16.1784C29.7492 16.2685 29.5904 16.3164 29.4281 16.316V16.314Z" fill="#56596A"/>
<path d="M15.699 30.544C15.5914 30.5442 15.4848 30.5231 15.3855 30.4819C15.2861 30.4407 15.1959 30.3803 15.12 30.304L2.93198 18.116C2.33518 17.5183 2 16.7081 2 15.8635C2 15.0188 2.33518 14.2087 2.93198 13.611L13.608 2.935C14.2057 2.33821 15.0158 2.00299 15.8605 2.00299C16.7051 2.00299 17.5153 2.33821 18.113 2.935L19.531 4.353C19.6794 4.5076 19.7613 4.71422 19.7591 4.92853C19.7569 5.14284 19.6708 5.34775 19.5193 5.4993C19.3677 5.65084 19.1628 5.73695 18.9485 5.73914C18.7342 5.74132 18.5276 5.65941 18.373 5.51099L16.955 4.09299C16.6646 3.80299 16.2709 3.64011 15.8605 3.64011C15.45 3.64011 15.0564 3.80299 14.766 4.09299L4.09 14.769C3.8 15.0594 3.63712 15.4531 3.63712 15.8635C3.63712 16.2739 3.8 16.6675 4.09 16.958L16.278 29.146C16.3932 29.2604 16.4717 29.4065 16.5037 29.5657C16.5357 29.7249 16.5196 29.8899 16.4576 30.04C16.3955 30.19 16.2903 30.3182 16.1552 30.4083C16.0201 30.4984 15.8613 30.5463 15.699 30.546V30.544Z" fill="#56596A"/>
<path d="M36.163 43.843C36.0041 43.8426 35.8487 43.7959 35.7158 43.7087C35.583 43.6214 35.4784 43.4974 35.4148 43.3517C35.3512 43.2061 35.3313 43.045 35.3576 42.8883C35.384 42.7315 35.4553 42.5859 35.563 42.469C36.663 41.269 37.693 40.095 38.684 38.959C40.264 37.148 41.898 35.276 43.908 33.237C44.0523 33.0932 44.1669 32.9223 44.245 32.7341C44.3231 32.546 44.3633 32.3442 44.3633 32.1405C44.3633 31.9367 44.3231 31.735 44.245 31.5469C44.1669 31.3587 44.0523 31.1878 43.908 31.044L42.294 29.43C42.1403 29.2764 42.054 29.0681 42.0539 28.8508C42.0538 28.6336 42.14 28.4252 42.2935 28.2715C42.4471 28.1178 42.6554 28.0314 42.8727 28.0313C43.0899 28.0312 43.2983 28.1174 43.452 28.271L45.066 29.885C45.6633 30.4825 45.9988 31.2927 45.9988 32.1375C45.9988 32.9823 45.6633 33.7925 45.066 34.39C43.095 36.39 41.478 38.242 39.914 40.035C38.914 41.178 37.883 42.362 36.765 43.577C36.6887 43.6608 36.5958 43.7277 36.4921 43.7735C36.3885 43.8193 36.2764 43.843 36.163 43.843Z" fill="#56596A"/>
<path d="M35.683 46.002H15.054C14.8429 46.0024 14.6398 45.9212 14.4873 45.7752C14.3348 45.6293 14.2447 45.4299 14.236 45.219C14.1718 43.5187 13.887 41.834 13.3889 40.207C12.8619 38.5534 12.1256 36.9739 11.1979 35.507C10.2726 34.0855 9.57801 32.5266 9.13996 30.888C8.56842 28.6255 8.57426 26.2557 9.15695 23.996C9.21381 23.7896 9.34921 23.6137 9.53418 23.5059C9.71916 23.3981 9.939 23.367 10.1466 23.4193C10.3542 23.4716 10.5331 23.6031 10.6449 23.7856C10.7568 23.9682 10.7926 24.1873 10.7449 24.396C10.2279 26.3982 10.2228 28.4983 10.73 30.503C11.1321 31.9879 11.767 33.3997 12.611 34.686C13.602 36.2624 14.3896 37.9579 14.955 39.732C15.4183 41.2422 15.7107 42.7996 15.8269 44.375H34.9139C34.991 43.4778 35.132 42.5871 35.3359 41.71C35.9842 39.2674 37.0379 36.9509 38.4529 34.857C39.2279 33.551 40.1069 32.07 41.1419 30.109C41.4149 29.5934 41.7282 29.1002 42.079 28.634C42.4088 28.2964 42.665 27.8941 42.8315 27.4524C42.9979 27.0107 43.071 26.5393 43.046 26.068C43.0047 25.7448 42.9104 25.4305 42.7669 25.138C42.6192 24.8429 42.4057 24.5857 42.1429 24.386C41.6212 24.0155 40.9753 23.8633 40.343 23.962C40.1808 23.985 40.0155 23.9593 39.868 23.8881C39.7206 23.8168 39.5977 23.7033 39.515 23.562C39.4332 23.4203 39.3961 23.2573 39.4086 23.0942C39.4211 22.9311 39.4826 22.7756 39.585 22.648C39.9393 22.2091 40.1301 21.6608 40.125 21.0968C40.1198 20.5328 39.9189 19.988 39.5566 19.5557C39.1943 19.1234 38.6931 18.8304 38.1387 18.7266C37.5843 18.6229 37.011 18.7149 36.5169 18.987C36.3824 19.0585 36.2307 19.0912 36.0786 19.0815C35.9266 19.0718 35.7803 19.0201 35.6559 18.932C35.5322 18.8447 35.4352 18.7246 35.376 18.5852C35.3168 18.4458 35.2978 18.2927 35.321 18.143C35.4092 17.6994 35.4024 17.2422 35.3011 16.8015C35.1997 16.3607 35.0061 15.9465 34.7329 15.586C33.7239 14.586 31.362 14.68 29.585 16.41L24.917 21.052C24.8027 21.167 24.6569 21.2455 24.498 21.2776C24.3391 21.3097 24.1742 21.2938 24.0243 21.2322C23.8744 21.1705 23.7462 21.0657 23.6559 20.9311C23.5655 20.7965 23.5172 20.6381 23.5169 20.476V6.76901C23.5158 6.43458 23.4416 6.10445 23.2994 5.80175C23.1572 5.49906 22.9505 5.23113 22.6938 5.01675C22.4371 4.80237 22.1367 4.64674 21.8135 4.56075C21.4903 4.47477 21.1522 4.46052 20.8229 4.51901C20.3197 4.61809 19.8623 4.87805 19.5196 5.2597C19.1769 5.64135 18.9675 6.12402 18.9229 6.635C18.7609 8.302 18.6079 10.048 18.4519 11.835C18.022 18.3369 17.1901 24.8059 15.9609 31.205C15.9144 31.4172 15.7855 31.6022 15.6025 31.7193C15.4196 31.8364 15.1976 31.876 14.9854 31.8295C14.7733 31.7829 14.5883 31.654 14.4712 31.4711C14.354 31.2882 14.3144 31.0662 14.361 30.854C15.5736 24.5239 16.3948 18.1251 16.8199 11.694C16.9759 9.90099 17.1299 8.15001 17.2929 6.47701C17.3509 5.75527 17.6067 5.06347 18.0323 4.47766C18.4578 3.89184 19.0367 3.43468 19.7051 3.15646C20.3736 2.87823 21.1059 2.78971 21.8214 2.9006C22.5369 3.01149 23.208 3.31749 23.761 3.785C24.1962 4.15097 24.5461 4.6077 24.7862 5.12316C25.0263 5.63863 25.1508 6.20036 25.1509 6.76901V18.506L28.4269 15.248C30.9269 12.813 34.2999 12.86 35.8829 14.428C36.5705 15.1578 36.9646 16.1156 36.99 17.118C37.6812 16.9953 38.3925 17.0543 39.0542 17.289C39.7158 17.5237 40.3052 17.9263 40.7647 18.4571C41.2241 18.988 41.5378 19.6291 41.6751 20.3176C41.8124 21.0061 41.7686 21.7185 41.5479 22.385C42.1208 22.494 42.6606 22.7339 43.1254 23.086C43.5901 23.4382 43.9671 23.893 44.227 24.415C44.4514 24.8719 44.5984 25.3629 44.662 25.868C44.715 26.5392 44.6307 27.2141 44.4142 27.8516C44.1978 28.4891 43.8537 29.0759 43.403 29.576C43.0992 29.9785 42.8274 30.4041 42.5899 30.849C41.5279 32.861 40.6379 34.36 39.8529 35.683C38.5248 37.6346 37.5337 39.7953 36.921 42.075C36.6806 43.1092 36.536 44.1633 36.489 45.224C36.479 45.432 36.3901 45.6283 36.2403 45.7729C36.0905 45.9175 35.8911 45.9994 35.683 46.002Z" fill="#56596A"/>
<path d="M8.30602 17.341C7.98816 17.3402 7.67766 17.2452 7.41375 17.0681C7.14984 16.8909 6.94436 16.6395 6.82326 16.3456C6.70217 16.0517 6.67092 15.7285 6.73342 15.4168C6.79592 15.1052 6.94936 14.819 7.1744 14.5945C7.39944 14.3701 7.68598 14.2173 7.99779 14.1556C8.30961 14.0939 8.6327 14.126 8.92629 14.2478C9.21988 14.3696 9.47079 14.5757 9.6473 14.8401C9.82381 15.1044 9.91802 15.4151 9.91802 15.733C9.91776 15.9444 9.87585 16.1537 9.7947 16.349C9.71355 16.5442 9.59475 16.7215 9.44506 16.8709C9.29537 17.0202 9.11773 17.1385 8.92229 17.2192C8.72686 17.2999 8.51745 17.3413 8.30602 17.341ZM8.27602 15.733C8.27602 15.741 8.27919 15.7486 8.28481 15.7542C8.29044 15.7598 8.29807 15.763 8.30602 15.763L8.27602 15.733Z" fill="#56596A"/>
<path d="M11.647 20.084C11.4842 20.084 11.3251 20.0357 11.1897 19.9453C11.0544 19.8549 10.9489 19.7263 10.8866 19.5759C10.8243 19.4255 10.808 19.2601 10.8398 19.1004C10.8715 18.9408 10.9499 18.7941 11.065 18.679C11.1801 18.564 11.3268 18.4856 11.4864 18.4538C11.646 18.422 11.8115 18.4384 11.9619 18.5006C12.1123 18.5629 12.2408 18.6684 12.3313 18.8038C12.4217 18.9391 12.47 19.0982 12.47 19.261C12.4692 19.479 12.3822 19.6879 12.228 19.8421C12.0739 19.9962 11.865 20.0832 11.647 20.084Z" fill="#56596A"/>
<path d="M29.639 25.621C29.4949 25.6202 29.3536 25.5813 29.2293 25.5083C29.105 25.4354 29.0022 25.331 28.9312 25.2056C28.8602 25.0802 28.8235 24.9383 28.8249 24.7943C28.8262 24.6502 28.8656 24.509 28.939 24.385C30.6036 21.5621 32.9578 19.2082 35.781 17.544C35.8736 17.4853 35.9772 17.4457 36.0855 17.4278C36.1938 17.4098 36.3045 17.4138 36.4112 17.4395C36.5179 17.4652 36.6184 17.5121 36.7066 17.5774C36.7948 17.6427 36.869 17.725 36.9248 17.8195C36.9806 17.914 37.0168 18.0188 37.0313 18.1276C37.0457 18.2364 37.0382 18.347 37.0091 18.4528C36.98 18.5586 36.93 18.6575 36.8619 18.7436C36.7939 18.8297 36.7092 18.9013 36.613 18.954C34.0286 20.4784 31.8734 22.6337 30.349 25.218C30.2762 25.3414 30.1724 25.4435 30.0478 25.5143C29.9232 25.585 29.7822 25.6218 29.639 25.621Z" fill="#56596A"/>
<path d="M35.316 29.687C35.1594 29.687 35.006 29.6421 34.8741 29.5576C34.7422 29.4731 34.6373 29.3526 34.5718 29.2103C34.5063 29.068 34.483 28.9099 34.5047 28.7547C34.5264 28.5996 34.592 28.4539 34.694 28.335L39.609 22.601C39.6781 22.5163 39.7633 22.4463 39.8599 22.3951C39.9564 22.3439 40.0622 22.3125 40.171 22.3028C40.2798 22.2931 40.3895 22.3053 40.4935 22.3387C40.5976 22.372 40.6939 22.4258 40.7768 22.4969C40.8598 22.5681 40.9276 22.6551 40.9764 22.7528C41.0252 22.8506 41.054 22.9571 41.061 23.0661C41.068 23.1751 41.0531 23.2845 41.0172 23.3877C40.9813 23.4909 40.9252 23.5858 40.852 23.667L35.937 29.401C35.8603 29.4906 35.765 29.5626 35.6578 29.612C35.5506 29.6613 35.434 29.6869 35.316 29.687Z" fill="#56596A"/>
</svg>
