<svg width="24" height="25" viewBox="0 0 24 25" fill="none" xmlns="http://www.w3.org/2000/svg">
<path d="M19 0.0424805H5C2.23858 0.0424805 0 2.28106 0 5.04248V19.0425C0 21.8039 2.23858 24.0425 5 24.0425H19C21.7614 24.0425 24 21.8039 24 19.0425V5.04248C24 2.28106 21.7614 0.0424805 19 0.0424805Z" fill="white"/>
<path d="M19 0.29248H5C2.37665 0.29248 0.25 2.41913 0.25 5.04248V19.0425C0.25 21.6658 2.37665 23.7925 5 23.7925H19C21.6234 23.7925 23.75 21.6658 23.75 19.0425V5.04248C23.75 2.41913 21.6234 0.29248 19 0.29248Z" stroke="#D6D6D6" stroke-width="0.5" stroke-linecap="square"/>
<path d="M8.55886 17.3605C8.76786 17.2765 8.98091 17.1935 9.19491 17.1135C9.20991 18.2265 9.19488 19.3395 9.20388 20.4505C9.20388 20.7195 9.19785 21.0775 8.89785 21.1925C8.19785 21.5215 7.4909 21.8435 6.7889 22.1705C6.48834 22.2909 6.1627 22.3352 5.8409 22.2995C5.68234 22.1939 5.55314 22.0499 5.46541 21.8808C5.37769 21.7117 5.33426 21.5231 5.33925 21.3327C5.34425 21.1423 5.39751 20.9562 5.49398 20.792C5.59045 20.6277 5.72701 20.4906 5.89089 20.3935C6.55289 20.0745 7.22587 19.7795 7.88387 19.4535C7.88387 19.6875 7.89687 19.9235 7.88387 20.1535C7.23987 20.5715 6.46585 20.7665 5.83785 21.2175C5.76285 21.5025 5.9629 21.7765 6.2679 21.6675C7.0469 21.3495 7.79885 20.9675 8.56185 20.6155C8.56285 19.5325 8.55186 18.4455 8.55886 17.3605Z" fill="#303030"/>
<path d="M11.8447 17.3655C12.0537 17.2785 12.2587 17.1855 12.4717 17.1145C12.4717 18.2765 12.4908 19.4405 12.4628 20.6025C12.2538 20.6885 12.0448 20.7825 11.8358 20.8705C11.8378 19.7015 11.8237 18.5335 11.8447 17.3655Z" fill="#303030"/>
<path d="M15.3037 17.4395C15.4957 17.2785 15.7201 17.1608 15.9618 17.0945C15.9618 18.2435 15.9618 19.3945 15.9618 20.5415C15.765 20.6915 15.5432 20.8056 15.3067 20.8785C15.2914 19.7345 15.2904 18.5882 15.3037 17.4395Z" fill="#303030"/>
<path d="M17.4219 17.2125C17.9174 17.4913 18.3704 17.8398 18.7668 18.2475C18.9838 18.4955 19.1008 18.9675 18.7798 19.1795C18.4381 19.3798 18.0863 19.5624 17.7258 19.7265C17.7258 19.8435 17.7168 19.9605 17.7128 20.0775C18.1658 19.8845 18.6018 19.6595 19.0588 19.4775C19.0686 19.7038 19.0657 19.9305 19.0498 20.1565C18.948 20.2526 18.8261 20.3251 18.6929 20.3685C17.1579 21.0685 15.6378 21.7985 14.0998 22.4905C14.0315 22.2629 14.0257 22.0211 14.0829 21.7905C15.1739 21.2315 16.3078 20.7524 17.4148 20.2234C17.4148 20.1044 17.4148 19.9855 17.4228 19.8665C17.1158 19.9665 16.6529 20.0965 16.4609 19.7425C16.4107 19.5931 16.3937 19.4346 16.4109 19.278C16.4282 19.1213 16.4794 18.9703 16.5608 18.8354C16.8139 18.4699 17.1001 18.1285 17.4158 17.8155C17.4158 17.6155 17.4158 17.4155 17.4158 17.2095L17.4219 17.2125ZM17.7159 18.3895C17.7159 18.6601 17.7159 18.9311 17.7159 19.2025C17.9289 19.0645 18.3428 18.9665 18.2908 18.6445C18.1331 18.5001 17.9327 18.4109 17.7198 18.3905L17.7159 18.3895ZM16.8199 19.3825C17.0199 19.3825 17.2168 19.3791 17.4108 19.3725C17.4108 19.1245 17.4249 18.8725 17.4189 18.6295C17.1909 18.8575 16.8858 19.0515 16.8188 19.3845L16.8199 19.3825Z" fill="#303030"/>
<path d="M9.43191 19.9665C9.38891 19.4745 9.56192 18.8175 10.1319 18.7295C10.5229 18.7307 10.8993 18.8786 11.1865 19.1439C11.4737 19.4093 11.6508 19.7728 11.6829 20.1625C11.6864 20.3157 11.6459 20.4666 11.5661 20.5975C11.4864 20.7283 11.3707 20.8335 11.2329 20.9005C10.6629 21.1715 10.0829 21.4195 9.51492 21.7005C9.41492 21.7405 9.30592 21.8215 9.18392 21.8005C9.14689 21.5696 9.16052 21.3335 9.2239 21.1085C9.8509 20.7685 10.5159 20.4955 11.1659 20.1995C11.1729 20.1385 11.1869 20.0165 11.1939 19.9555C10.779 20.2084 10.3182 20.3766 9.83792 20.4505C9.72838 20.4505 9.62332 20.407 9.54586 20.3295C9.46841 20.2521 9.42489 20.147 9.42489 20.0375C9.42487 20.0133 9.42723 19.9892 9.43191 19.9655V19.9665ZM9.81588 19.8005C10.097 19.729 10.373 19.6384 10.6419 19.5295C10.5669 19.3095 10.2919 19.3825 10.1129 19.3845C9.89088 19.3785 9.8649 19.6425 9.8179 19.7995L9.81588 19.8005Z" fill="#303030"/>
<path d="M13.5308 19.0494C14.0274 19.3268 14.4808 19.6752 14.8768 20.0834C15.0958 20.3334 15.1958 20.8144 14.8768 21.0234C14.5258 21.2324 14.1448 21.3834 13.7838 21.5744C13.4917 21.7686 13.1364 21.8435 12.7908 21.7834C12.4508 21.6224 12.4908 21.1704 12.5728 20.8654C12.8306 20.4178 13.1516 20.0096 13.5258 19.6534C13.5258 19.4534 13.5318 19.2534 13.5358 19.0534L13.5308 19.0494ZM12.9428 21.2034C13.5428 21.2844 14.0428 20.8564 14.5428 20.6034C14.4034 20.3982 14.2258 20.2217 14.0198 20.0834C13.5998 20.3754 13.0978 20.6834 12.9418 21.2024L12.9428 21.2034Z" fill="#303030"/>
<path d="M5.78585 11.0769C5.78585 11.0769 4.04808 12.1025 3.77608 12.7175C3.50408 13.3325 3.99679 13.5252 3.99679 13.5252C3.99679 13.5252 4.86401 14.3914 9.94601 13.4744C11.3276 13.206 12.6824 12.8155 13.9948 12.3074C15.4088 11.8114 16.7545 11.1395 18.0007 10.3074C18.0007 10.3074 19.5355 9.16118 18.2585 8.60718C17.8518 8.45497 17.4259 8.36074 16.9929 8.32789C16.9929 8.32789 16.0805 8.25941 16.0925 8.26441C16.2625 8.26441 16.1232 8.23125 16.1862 8.14625C16.6113 8.08804 17.0414 8.07335 17.4694 8.1023C17.993 8.11867 18.5142 8.17292 19.03 8.26441C20.688 8.51741 20.3481 9.58735 19.5651 10.3503C19.195 10.7084 18.773 11.0081 18.3132 11.24C17.7701 11.5759 17.2025 11.8691 16.614 12.117C15.708 12.5319 15.4211 12.6172 14.6921 12.8982C12.5044 13.731 10.2243 14.2963 7.90108 14.5828C6.6631 14.7763 5.4085 14.8435 4.15694 14.783C2.73094 14.643 2.48507 14.1834 2.48507 14.1834C2.39313 14.0602 2.33729 13.9137 2.32491 13.7605C2.31253 13.6073 2.34379 13.4535 2.41476 13.3171C2.64676 12.7961 3.69335 11.9599 5.72335 10.9509" fill="#54C5D0"/>
<path d="M16.0229 8.27648C16.0229 8.27648 19.4821 4.83226 19.5343 4.14222C19.5865 3.45219 19.0457 3.42475 19.0457 3.42475C19.0457 3.42475 18.0872 2.79303 13.4754 5.38031C12.2273 6.10146 11.0465 6.93342 9.94735 7.86613C8.74402 8.82157 7.66645 9.92546 6.74031 11.1515C6.74031 11.1515 5.63728 12.6894 7.06272 12.8057C8.30024 12.5519 9.51292 12.1892 10.6866 11.722C10.7141 11.7495 10.6869 11.8732 10.6869 11.8732C9.87802 12.2957 9.04584 12.6718 8.19435 12.9999C7.64744 13.1981 7.08174 13.3398 6.50603 13.423C4.63626 13.6451 4.70805 12.6403 5.21429 11.634C5.4493 11.1612 5.75618 10.7277 6.12401 10.3489C6.53431 9.83845 6.9847 9.36154 7.47088 8.92275C8.20797 8.21471 8.45613 8.035 9.06953 7.51776C10.9042 5.97748 12.9194 4.66607 15.0707 3.61241C16.1486 3.03301 17.2862 2.57249 18.4635 2.23895C19.891 1.90049 20.285 2.27591 20.285 2.27591C20.4175 2.36536 20.5221 2.49038 20.5867 2.63661C20.6513 2.78284 20.6733 2.94433 20.6503 3.10253C20.5868 3.43143 20.4634 3.74587 20.2863 4.03019C19.9869 4.54299 19.6385 5.0256 19.2462 5.4713C18.6147 6.17053 17.9346 6.82433 17.2111 7.42782C16.8647 7.72497 16.485 8.03892 16.2061 8.27685" fill="#FBA629"/>
</svg>
