<svg width="24" height="24" viewBox="0 0 24 24" fill="none" xmlns="http://www.w3.org/2000/svg">
<path d="M1.5 12C1.5 11.4883 1.53742 10.977 1.61133 10.4707C1.61909 10.4043 1.63983 10.3404 1.67285 10.2822C1.70588 10.2241 1.75064 10.173 1.80371 10.1323C1.85678 10.0916 1.9172 10.0618 1.98193 10.0449C2.04667 10.0281 2.11399 10.0245 2.18018 10.0342C2.24636 10.0439 2.31001 10.0669 2.36719 10.1016C2.42437 10.1363 2.47403 10.1821 2.51318 10.2363C2.55233 10.2906 2.58028 10.3523 2.59521 10.4175C2.61015 10.4827 2.61173 10.5499 2.6001 10.6157C2.53219 11.0739 2.49866 11.5368 2.5 12C2.5 13.8789 3.0572 15.7156 4.10107 17.2778C5.14495 18.8401 6.62885 20.0578 8.36475 20.7769C10.1006 21.4959 12.0107 21.6839 13.8535 21.3174C15.6963 20.9508 17.3892 20.0459 18.7178 18.7173C20.0464 17.3887 20.9513 15.6958 21.3179 13.853C21.6844 12.0102 21.4959 10.1002 20.7769 8.36426C20.0578 6.62836 18.8406 5.14495 17.2783 4.10107C15.7161 3.0572 13.8789 2.5 12 2.5C11.8674 2.5 11.7403 2.44728 11.6465 2.35352C11.5527 2.25975 11.5 2.13261 11.5 2C11.5 1.86739 11.5527 1.74025 11.6465 1.64648C11.7403 1.55272 11.8674 1.5 12 1.5C14.0767 1.5 16.1068 2.11578 17.8335 3.26953C19.5602 4.42329 20.9065 6.06331 21.7012 7.98193C22.4959 9.90056 22.7035 12.0115 22.2983 14.0483C21.8932 16.0851 20.8933 17.9559 19.4248 19.4243C17.9564 20.8928 16.0856 21.8932 14.0488 22.2983C12.012 22.7035 9.90056 22.4954 7.98193 21.7007C6.06331 20.906 4.42377 19.5602 3.27002 17.8335C2.11626 16.1068 1.5 14.0767 1.5 12V12ZM10 17.5C9.86739 17.5 9.74025 17.4473 9.64648 17.3535C9.55272 17.2597 9.5 17.1326 9.5 17C9.5 16.8674 9.55272 16.7403 9.64648 16.6465C9.74025 16.5527 9.86739 16.5 10 16.5H16C16.1326 16.5 16.2602 16.5527 16.354 16.6465C16.4478 16.7403 16.5 16.8674 16.5 17C16.5 17.1326 16.4478 17.2597 16.354 17.3535C16.2602 17.4473 16.1326 17.5 16 17.5H10ZM10 13.5C9.86739 13.5 9.74025 13.4473 9.64648 13.3535C9.55272 13.2597 9.5 13.1326 9.5 13C9.5 12.8674 9.55272 12.7403 9.64648 12.6465C9.74025 12.5527 9.86739 12.5 10 12.5H18C18.1326 12.5 18.2602 12.5527 18.354 12.6465C18.4478 12.7403 18.5 12.8674 18.5 13C18.5 13.1326 18.4478 13.2597 18.354 13.3535C18.2602 13.4473 18.1326 13.5 18 13.5H10ZM6.06006 13.356C5.93504 13.3452 5.81903 13.2879 5.73438 13.1953C5.64972 13.1027 5.60256 12.9814 5.60303 12.856C5.60205 12.8413 5.60205 12.8267 5.60303 12.812C5.6191 12.6007 5.62362 12.3885 5.61621 12.1768C5.61071 12.1108 5.61883 12.0446 5.64014 11.9819C5.66144 11.9192 5.69567 11.8615 5.74023 11.8125C5.7848 11.7635 5.839 11.7244 5.89941 11.6973C5.95983 11.6702 6.02509 11.6555 6.09131 11.6548C6.22362 11.6488 6.35282 11.6959 6.45068 11.7852C6.54855 11.8744 6.60706 11.9986 6.61328 12.1309C6.62559 12.3866 6.62045 12.6429 6.59814 12.8979C6.58735 13.023 6.53012 13.1395 6.4375 13.2241C6.34488 13.3088 6.22363 13.3554 6.09814 13.355L6.06006 13.356ZM5.52539 9.65576C5.34363 8.89142 4.90173 8.21405 4.27539 7.73975C3.46929 7.13429 2.87991 6.28499 2.59521 5.31787C2.48768 4.7003 2.57999 4.06458 2.8584 3.50293C3.08658 3.03233 3.41673 2.61863 3.8252 2.29199C4.23366 1.96536 4.70998 1.73385 5.21924 1.61475C5.73108 1.49557 6.26317 1.49352 6.77588 1.60889C7.28859 1.72426 7.76872 1.95431 8.18018 2.28125C8.59163 2.60819 8.92361 3.02369 9.15186 3.49707C9.3801 3.97045 9.49848 4.4896 9.49805 5.01514C9.49805 5.14774 9.44533 5.27488 9.35156 5.36865C9.25779 5.46242 9.13066 5.51514 8.99805 5.51514C8.86544 5.51514 8.7383 5.46242 8.64453 5.36865C8.55076 5.27488 8.49805 5.14774 8.49805 5.01514C8.49692 4.64065 8.41208 4.2712 8.24902 3.93408C8.08596 3.59696 7.84903 3.30075 7.55615 3.06738C7.26327 2.83402 6.92166 2.6691 6.55664 2.58545C6.19162 2.5018 5.81254 2.50145 5.44727 2.58398C5.0819 2.67063 4.74024 2.8374 4.44727 3.07227C4.15429 3.30713 3.91747 3.60413 3.75342 3.94189C3.57398 4.29928 3.5093 4.7036 3.56836 5.09912C3.80021 5.83438 4.25799 6.47772 4.87646 6.93799C5.68818 7.55264 6.26052 8.43035 6.49609 9.4209C6.52617 9.5495 6.50438 9.68495 6.43506 9.79736C6.36574 9.90978 6.25488 9.99013 6.12646 10.021C6.0885 10.0304 6.04937 10.0356 6.01025 10.0361C5.89893 10.0356 5.7911 9.99754 5.70361 9.92871C5.61612 9.85988 5.55406 9.76383 5.52734 9.65576H5.52539ZM10 9.50195C9.86739 9.50195 9.74025 9.44924 9.64648 9.35547C9.55272 9.2617 9.5 9.13456 9.5 9.00195C9.5 8.86934 9.55272 8.74221 9.64648 8.64844C9.74025 8.55467 9.86739 8.50195 10 8.50195H16C16.1326 8.50195 16.2602 8.55467 16.354 8.64844C16.4478 8.74221 16.5 8.86934 16.5 9.00195C16.5 9.13456 16.4478 9.2617 16.354 9.35547C16.2602 9.44924 16.1326 9.50195 16 9.50195H10Z" fill="#56596A"/>
</svg>
