<svg width="22" height="18" viewBox="0 0 22 18" fill="none" xmlns="http://www.w3.org/2000/svg">
<g id="hide">
<path id="Path 1529 (Stroke)" fill-rule="evenodd" clip-rule="evenodd" d="M18.4526 5.78253C18.6429 5.58238 18.9594 5.57437 19.1595 5.76462C20.076 6.63588 20.8465 7.64889 21.4413 8.76484C21.5196 8.91184 21.5196 9.0882 21.4413 9.23519C20.2813 11.4116 18.47 13.1709 16.2609 14.2673C14.0518 15.3636 11.5553 15.742 9.12048 15.3496C8.84785 15.3057 8.66246 15.0491 8.70639 14.7765C8.75033 14.5038 9.00695 14.3185 9.27958 14.3624C11.5085 14.7216 13.794 14.3751 15.8164 13.3715C17.7586 12.4076 19.3648 10.884 20.4297 9.00003C19.9046 8.07131 19.2445 7.22513 18.4705 6.48941C18.2704 6.29915 18.2624 5.98267 18.4526 5.78253Z" fill="#56596A"/>
<path id="Path 1530 (Stroke)" fill-rule="evenodd" clip-rule="evenodd" d="M15.672 4.56197C13.155 3.35644 10.2696 3.16954 7.61803 4.04027C5.0516 4.88305 2.89616 6.65361 1.57044 8.99979C2.66298 10.9296 4.32277 12.4799 6.32758 13.4379C6.57674 13.557 6.6822 13.8555 6.56314 14.1046C6.44407 14.3538 6.14557 14.4592 5.89642 14.3402C3.61829 13.2515 1.74802 11.4628 0.558921 9.2355C0.480428 9.08847 0.480356 8.912 0.558729 8.76491C1.99231 6.07434 4.40956 4.04135 7.30604 3.09019C10.2025 2.13903 13.3544 2.34319 16.104 3.66008C16.353 3.77936 16.4582 4.07795 16.3389 4.327C16.2197 4.57605 15.9211 4.68125 15.672 4.56197Z" fill="#56596A"/>
<path id="Path 1531 (Stroke)" fill-rule="evenodd" clip-rule="evenodd" d="M14.0162 9.39687C14.2803 9.47761 14.4289 9.75715 14.3481 10.0212C14.1984 10.5108 13.9434 10.9616 13.6008 11.342C13.2583 11.7224 12.8366 12.0232 12.3654 12.2233C12.1112 12.3312 11.8176 12.2126 11.7097 11.9584C11.6018 11.7042 11.7204 11.4107 11.9746 11.3028C12.3114 11.1598 12.6128 10.9448 12.8577 10.6729C13.1025 10.4009 13.2848 10.0787 13.3918 9.7288C13.4726 9.46473 13.7521 9.31612 14.0162 9.39687Z" fill="#56596A"/>
<path id="Path 1532 (Stroke)" fill-rule="evenodd" clip-rule="evenodd" d="M10.9849 6.46323C10.6529 6.46034 10.3237 6.5236 10.0165 6.6493C9.70923 6.775 9.4301 6.96064 9.19537 7.19537C8.96064 7.4301 8.775 7.70923 8.6493 8.01647C8.5236 8.32371 8.46034 8.65291 8.46323 8.98486C8.46611 9.31681 8.53508 9.64486 8.6661 9.94987C8.79712 10.2549 8.98758 10.5307 9.22636 10.7614C9.42498 10.9532 9.43048 11.2697 9.23864 11.4684C9.0468 11.667 8.73027 11.6725 8.53164 11.4806C8.19736 11.1578 7.93072 10.7716 7.74729 10.3446C7.56386 9.91755 7.46731 9.45828 7.46327 8.99355C7.45923 8.52882 7.54778 8.06794 7.72377 7.6378C7.89975 7.20767 8.15964 6.81689 8.48826 6.48826C8.81689 6.15964 9.20767 5.89975 9.6378 5.72377C10.0679 5.54778 10.5288 5.45923 10.9935 5.46327C11.4583 5.46731 11.9175 5.56386 12.3446 5.74729C12.7716 5.93072 13.1578 6.19736 13.4806 6.53164C13.6725 6.73027 13.667 7.0468 13.4684 7.23864C13.2697 7.43048 12.9532 7.42498 12.7614 7.22636C12.5307 6.98758 12.2549 6.79712 11.9499 6.6661C11.6449 6.53508 11.3168 6.46611 10.9849 6.46323Z" fill="#56596A"/>
<path id="Line 82 (Stroke)" fill-rule="evenodd" clip-rule="evenodd" d="M9.23255 10.7674C9.42782 10.9627 9.42782 11.2793 9.23255 11.4745L3.35355 17.3535C3.15829 17.5488 2.84171 17.5488 2.64645 17.3535C2.45118 17.1583 2.45118 16.8417 2.64645 16.6464L8.52545 10.7674C8.72071 10.5722 9.03729 10.5722 9.23255 10.7674Z" fill="#56596A"/>
<path id="Line 83 (Stroke)" fill-rule="evenodd" clip-rule="evenodd" d="M16.2416 3.75845C16.4368 3.95371 16.4368 4.27029 16.2416 4.46555L9.23258 11.4746C9.03732 11.6698 8.72074 11.6698 8.52547 11.4746C8.33021 11.2793 8.33021 10.9627 8.52547 10.7674L15.5345 3.75845C15.7297 3.56318 16.0463 3.56318 16.2416 3.75845Z" fill="#56596A"/>
<path id="Line 84 (Stroke)" fill-rule="evenodd" clip-rule="evenodd" d="M19.3536 0.646447C19.5488 0.841709 19.5488 1.15829 19.3536 1.35355L16.2416 4.46555C16.0463 4.66082 15.7297 4.66082 15.5344 4.46555C15.3392 4.27029 15.3392 3.95371 15.5344 3.75845L18.6464 0.646447C18.8417 0.451184 19.1583 0.451184 19.3536 0.646447Z" fill="#56596A"/>
</g>
</svg>
