<svg width="24" height="24" viewBox="0 0 24 24" fill="none" xmlns="http://www.w3.org/2000/svg">
<path d="M1.49805 12.0001C1.49805 9.92336 2.11431 7.89328 3.26807 6.16657C4.42182 4.43985 6.06136 3.0941 7.97998 2.29938C9.8986 1.50466 12.0101 1.29658 14.0469 1.70172C16.0837 2.10687 17.9544 3.10681 19.4229 4.57526C20.8913 6.04371 21.8912 7.91492 22.2964 9.95172C22.7015 11.9885 22.4939 14.0995 21.6992 16.0181C20.9045 17.9368 19.5583 19.5768 17.8315 20.7305C16.1048 21.8843 14.0748 22.5001 11.998 22.5001C9.21425 22.4969 6.54559 21.3894 4.57715 19.421C2.6087 17.4525 1.50122 14.7839 1.49805 12.0001ZM2.49805 12.0001C2.49805 13.879 3.05525 15.7156 4.09912 17.2779C5.14299 18.8402 6.62689 20.0579 8.36279 20.7769C10.0987 21.4959 12.0087 21.684 13.8516 21.3174C15.6944 20.9509 17.3872 20.0459 18.7158 18.7173C20.0444 17.3887 20.9494 15.6959 21.3159 13.8531C21.6825 12.0103 21.4939 10.1002 20.7749 8.36432C20.0559 6.62842 18.8386 5.14501 17.2764 4.10114C15.7141 3.05726 13.877 2.50006 11.998 2.50006C9.47964 2.5035 7.06585 3.50532 5.28516 5.28619C3.50446 7.06707 2.50269 9.48165 2.49951 12.0001H2.49805ZM11.498 17.5001V10.5001C11.498 10.3675 11.5508 10.2403 11.6445 10.1465C11.7383 10.0528 11.8654 10.0001 11.998 10.0001C12.1307 10.0001 12.2583 10.0528 12.3521 10.1465C12.4458 10.2403 12.498 10.3675 12.498 10.5001V17.5001C12.498 17.6327 12.4458 17.7598 12.3521 17.8536C12.2583 17.9473 12.1307 18.0001 11.998 18.0001C11.8654 18.0001 11.7383 17.9473 11.6445 17.8536C11.5508 17.7598 11.498 17.6327 11.498 17.5001ZM11.8062 7.45709C11.744 7.43587 11.689 7.39832 11.6465 7.34821C11.5949 7.30596 11.5564 7.24959 11.5361 7.1861C11.5081 7.12748 11.4943 7.06306 11.4961 6.99811C11.4953 6.9326 11.509 6.86778 11.5361 6.80817C11.5569 6.7455 11.5954 6.68987 11.6465 6.64801C11.7153 6.57762 11.8035 6.52961 11.8999 6.50983C11.9963 6.49004 12.0965 6.49955 12.1875 6.53717C12.3076 6.59118 12.4029 6.68771 12.4561 6.80817C12.4839 6.86757 12.4976 6.93254 12.4961 6.99811C12.4979 7.06373 12.4857 7.12863 12.46 7.18903C12.4342 7.24942 12.3957 7.30399 12.3472 7.34821C12.3045 7.3981 12.2496 7.4356 12.1875 7.45709C12.1284 7.48583 12.0627 7.49961 11.9971 7.49713C11.932 7.50038 11.8672 7.48756 11.8081 7.46002L11.8062 7.45709Z" fill="#56596A"/>
</svg>
