<svg width="24" height="24" viewBox="0 0 24 24" fill="none" xmlns="http://www.w3.org/2000/svg">
<path d="M6.00195 22.5C4.80921 22.4976 3.66566 22.0226 2.82227 21.1792C1.97887 20.3358 1.50433 19.1927 1.50195 18V6C1.5038 4.80709 1.97826 3.66334 2.82178 2.81982C3.66529 1.97631 4.80905 1.50185 6.00195 1.5H18.002C19.1949 1.50159 20.3386 1.97625 21.1821 2.81982C22.0257 3.66339 22.5004 4.80701 22.502 6V18C22.5001 19.1929 22.0252 20.3362 21.1816 21.1797C20.3381 22.0232 19.1949 22.4981 18.002 22.5H6.00195ZM2.50195 6V18C2.50195 18.9283 2.87048 19.8182 3.52686 20.4746C4.18323 21.131 5.0737 21.5 6.00195 21.5H18.002C18.9296 21.4982 19.8186 21.1286 20.4746 20.4727C21.1306 19.8167 21.5001 18.9277 21.502 18V6C21.5004 5.07223 21.1311 4.18289 20.4751 3.52686C19.8191 2.87082 18.9297 2.50159 18.002 2.5H6.00195C5.54224 2.49987 5.08686 2.59028 4.66211 2.76611C4.23735 2.94195 3.85148 3.19988 3.52637 3.5249C3.20126 3.84992 2.94304 4.23545 2.76709 4.66016C2.59114 5.08486 2.50098 5.54029 2.50098 6H2.50195ZM7.00195 12C7.00195 11.0111 7.29483 10.0444 7.84424 9.22217C8.39365 8.39992 9.17475 7.75881 10.0884 7.38037C11.002 7.00193 12.0071 6.90327 12.9771 7.09619C13.947 7.28912 14.8378 7.76509 15.5371 8.46436C16.2364 9.16362 16.7128 10.0545 16.9058 11.0244C17.0987 11.9943 16.9995 12.9995 16.6211 13.9131C16.2427 14.8267 15.602 15.6078 14.7798 16.1572C13.9575 16.7066 12.9909 17 12.002 17C11.3453 17.0001 10.6946 16.8708 10.0879 16.6196C9.48115 16.3684 8.92973 16 8.46533 15.5356C8.00093 15.0713 7.63268 14.5203 7.38135 13.9136C7.13001 13.3069 7.00098 12.6567 7.00098 12H7.00195ZM8.00195 12C8.00195 12.7911 8.23626 13.5644 8.67578 14.2222C9.11531 14.88 9.74029 15.3926 10.4712 15.6953C11.2021 15.9981 12.0063 16.0772 12.7822 15.9229C13.5582 15.7685 14.2707 15.3875 14.8301 14.8281C15.3895 14.2687 15.7705 13.5562 15.9248 12.7803C16.0791 12.0043 16 11.2001 15.6973 10.4692C15.3945 9.73833 14.8819 9.11335 14.2241 8.67383C13.5663 8.2343 12.7931 8 12.002 8C11.4766 7.99987 10.9561 8.10324 10.4707 8.3042C9.98529 8.50516 9.54439 8.79945 9.17285 9.1709C8.80131 9.54235 8.50626 9.98338 8.30518 10.4688C8.10409 10.9541 8.00098 11.4746 8.00098 12H8.00195ZM17.002 6C17.002 5.80222 17.0605 5.60879 17.1704 5.44434C17.2803 5.27989 17.4364 5.15186 17.6191 5.07617C17.8019 5.00048 18.0028 4.98046 18.1968 5.01904C18.3908 5.05763 18.5691 5.15312 18.709 5.29297C18.8488 5.43282 18.9438 5.61071 18.9824 5.80469C19.021 5.99867 19.0015 6.20009 18.9258 6.38281C18.8501 6.56554 18.7216 6.72166 18.5571 6.83154C18.3927 6.94142 18.1997 7 18.002 7C17.8705 7.00013 17.7401 6.97402 17.6187 6.92383C17.4972 6.87363 17.3869 6.80039 17.2939 6.70752C17.201 6.61465 17.1275 6.5042 17.0771 6.38281C17.0268 6.26142 17.001 6.13141 17.001 6H17.002ZM18.002 6V5.5V6Z" fill="#56596A"/>
</svg>
