<svg width="24" height="24" viewBox="0 0 24 24" fill="none" xmlns="http://www.w3.org/2000/svg">
<path d="M12.1033 20.6968C11.6794 20.1993 11.4648 19.5572 11.5037 18.9048V12.4048C10.3907 12.6481 9.41341 13.309 8.77274 14.251C8.72322 14.3196 8.65781 14.3753 8.58231 14.4136C8.5068 14.4519 8.42331 14.4718 8.33865 14.4712C8.25301 14.4675 8.1698 14.4417 8.09695 14.3965C8.0241 14.3513 7.96405 14.2879 7.92264 14.2129C7.62897 13.6853 7.21143 13.2367 6.70633 12.9058C6.20123 12.5748 5.62375 12.3715 5.02274 12.313C4.47039 12.3721 3.94282 12.5753 3.49344 12.9019C3.04406 13.2284 2.68854 13.6668 2.4617 14.1738C2.42212 14.2614 2.35782 14.3356 2.27713 14.3877C2.19644 14.4398 2.10269 14.4677 2.00662 14.4678C1.96454 14.4672 1.92265 14.4625 1.88162 14.4531C1.76719 14.4238 1.66688 14.3546 1.59842 14.2583C1.52996 14.162 1.49775 14.0445 1.5076 13.9268C1.5146 13.8268 2.4276 3.95189 11.5076 3.48389V2.70508C11.5076 2.57247 11.5603 2.44533 11.6541 2.35156C11.7479 2.25779 11.875 2.20508 12.0076 2.20508C12.1402 2.20508 12.2673 2.25779 12.3611 2.35156C12.4549 2.44533 12.5076 2.57247 12.5076 2.70508V3.47119C21.9226 3.69919 22.5016 13.8398 22.5076 13.9438C22.5133 14.064 22.4755 14.1823 22.4012 14.2769C22.3268 14.3714 22.2204 14.4358 22.1023 14.4585C21.9842 14.4812 21.8622 14.4606 21.7581 14.4004C21.6539 14.3402 21.5747 14.2445 21.5354 14.1309C21.3627 13.6296 21.0465 13.1904 20.6263 12.8672C20.206 12.544 19.7004 12.3512 19.1717 12.313C18.6249 12.376 18.1038 12.5807 17.6604 12.9067C17.217 13.2328 16.8664 13.6687 16.6433 14.1719C16.6065 14.2523 16.5497 14.322 16.4778 14.3735C16.4059 14.4251 16.3217 14.4568 16.2337 14.4658C16.1465 14.4717 16.0592 14.4557 15.9798 14.4194C15.9003 14.3831 15.8312 14.3275 15.7786 14.2578C15.399 13.7264 14.9117 13.2812 14.3484 12.9507C13.7852 12.6202 13.1586 12.412 12.5096 12.3398V18.9312C12.482 19.3123 12.5946 19.6904 12.8264 19.9941C12.9174 20.0735 13.0238 20.1328 13.1389 20.1689C13.2541 20.2051 13.3754 20.2173 13.4954 20.2041C13.8404 20.1694 14.1637 20.0185 14.4119 19.7764C14.66 19.5342 14.8185 19.2151 14.8616 18.8711C14.8671 18.804 14.886 18.7388 14.9173 18.6792C14.9486 18.6196 14.9916 18.567 15.0437 18.5244C15.0959 18.4818 15.1558 18.4499 15.2205 18.4312C15.2851 18.4124 15.3529 18.407 15.4197 18.415C15.4865 18.4231 15.5513 18.4449 15.6096 18.4785C15.668 18.5121 15.7191 18.5571 15.7596 18.6108C15.8 18.6646 15.8288 18.7257 15.845 18.791C15.8612 18.8564 15.864 18.9243 15.8533 18.9907C15.7807 19.5654 15.5136 20.0981 15.0965 20.5C14.6793 20.9019 14.1373 21.1491 13.5603 21.2002C13.5183 21.2002 13.4778 21.2002 13.4378 21.2002C13.1929 21.2116 12.9479 21.1724 12.7185 21.0859C12.4891 20.9994 12.2797 20.867 12.1033 20.6968V20.6968ZM8.38748 13.1182C8.86608 12.5853 9.44488 12.1516 10.0911 11.8428C10.7373 11.5339 11.4384 11.3556 12.1536 11.3179C13.6523 11.3658 15.0712 12.0032 16.1023 13.0918C16.4514 12.5917 16.9056 12.1741 17.4329 11.8677C17.9602 11.5613 18.5482 11.3735 19.1555 11.3179C19.8985 11.3654 20.6122 11.6262 21.2107 12.0688C20.5677 9.28085 18.5405 4.46875 12.1775 4.46875C5.74352 4.46875 3.55963 9.36897 2.83963 12.147C3.47412 11.6671 4.23265 11.3787 5.02567 11.3159C5.68009 11.3691 6.31652 11.5567 6.89529 11.8667C7.47407 12.1767 7.98254 12.6029 8.38943 13.1182H8.38748Z" fill="#56596A"/>
</svg>
