<svg width="24" height="24" viewBox="0 0 24 24" fill="none" xmlns="http://www.w3.org/2000/svg">
<path d="M3.30142 21.5027H3.29654C3.05797 21.5006 2.8218 21.4515 2.6022 21.3582C2.38261 21.2649 2.18392 21.1295 2.01675 20.9593C1.84959 20.789 1.71734 20.5873 1.62808 20.366C1.53882 20.1448 1.494 19.9083 1.49625 19.6697C1.48637 18.4644 1.95467 17.3043 2.798 16.4432C3.64134 15.582 4.79104 15.0898 5.99625 15.0745H10.2414C10.8397 15.0797 11.431 15.2032 11.9816 15.4373C12.5322 15.6714 13.0315 16.0119 13.4503 16.4392C13.8692 16.8665 14.1994 17.3723 14.4225 17.9275C14.6456 18.4827 14.7574 19.0763 14.7506 19.6746C14.7544 20.1547 14.5674 20.6166 14.2311 20.9593C13.8948 21.3019 13.4363 21.4974 12.9562 21.5027H3.30142ZM2.50162 19.6697C2.49786 19.8862 2.57977 20.0955 2.72965 20.2517C2.87952 20.408 3.08499 20.4985 3.30142 20.5037H12.9543C13.1694 20.5 13.3746 20.411 13.5246 20.2566C13.6745 20.1022 13.7572 19.8947 13.7545 19.6795C13.7617 19.2116 13.6761 18.7471 13.5031 18.3123C13.3301 17.8775 13.0729 17.4814 12.7462 17.1463C12.4196 16.8112 12.03 16.5437 11.5998 16.3597C11.1695 16.1756 10.7073 16.0783 10.2394 16.0735H6.00552C5.06466 16.0872 4.16747 16.4732 3.51041 17.1468C2.85334 17.8203 2.48956 18.7268 2.49918 19.6678L2.50162 19.6697ZM16.7243 18.0564C16.5917 18.0564 16.4645 18.0037 16.3708 17.9099C16.277 17.8162 16.2243 17.689 16.2243 17.5564C16.2243 17.4238 16.277 17.2967 16.3708 17.2029C16.4645 17.1091 16.5917 17.0564 16.7243 17.0564H17.3244C17.4856 17.053 17.6388 16.9866 17.7511 16.8709C17.8634 16.7552 17.9258 16.6 17.9245 16.4388C17.93 16.053 17.8594 15.6696 17.7165 15.3113C17.5736 14.953 17.3614 14.6264 17.092 14.3504C16.8225 14.0743 16.5009 13.8544 16.1461 13.7029C15.7914 13.5514 15.4103 13.4713 15.0246 13.4676H13.9445C13.8119 13.4676 13.6847 13.4149 13.591 13.3211C13.4972 13.2273 13.4445 13.1002 13.4445 12.9676C13.4445 12.835 13.4972 12.7078 13.591 12.6141C13.6847 12.5203 13.8119 12.4676 13.9445 12.4676H15.0275C15.544 12.4723 16.0542 12.5789 16.5295 12.781C17.0047 12.9832 17.4359 13.277 17.7975 13.6458C18.1591 14.0146 18.4442 14.4513 18.6369 14.9305C18.8296 15.4097 18.9261 15.9223 18.9206 16.4388C18.9227 16.8644 18.7559 17.2732 18.4572 17.5765C18.1585 17.8797 17.7519 18.0522 17.3263 18.0564H16.7243ZM20.4865 14.4637C20.3539 14.4637 20.2267 14.4109 20.133 14.3172C20.0392 14.2234 19.9865 14.0963 19.9865 13.9637C19.9865 13.8311 20.0392 13.7039 20.133 13.6101C20.2267 13.5164 20.3539 13.4637 20.4865 13.4637H21.0192C21.1488 13.4592 21.2718 13.4046 21.362 13.3113C21.4521 13.218 21.5027 13.0934 21.5026 12.9637C21.5095 12.2824 21.2458 11.6258 20.7697 11.1385C20.2936 10.6511 19.6438 10.3725 18.9626 10.3636H17.9894C17.8568 10.3636 17.7297 10.3108 17.6359 10.2171C17.5421 10.1233 17.4894 9.99617 17.4894 9.86356C17.4894 9.73095 17.5421 9.60382 17.6359 9.51005C17.7297 9.41628 17.8568 9.36356 17.9894 9.36356H18.9616C19.9072 9.37333 20.8099 9.75796 21.4723 10.4329C22.1347 11.1078 22.5023 12.018 22.4943 12.9637C22.493 13.3563 22.3379 13.733 22.0622 14.0125C21.7864 14.292 21.4118 14.4522 21.0192 14.4588L20.4865 14.4637ZM4.32144 9.8035V9.66581C4.32144 8.65533 4.72265 7.68599 5.43717 6.97147C6.15168 6.25696 7.12103 5.85575 8.1315 5.85575C9.14198 5.85575 10.1108 6.25696 10.8253 6.97147C11.5399 7.68599 11.9416 8.65533 11.9416 9.66581V9.8035C11.9416 10.814 11.5399 11.7833 10.8253 12.4978C10.1108 13.2124 9.14198 13.6136 8.1315 13.6136C7.12103 13.6136 6.15168 13.2124 5.43717 12.4978C4.72265 11.7833 4.32144 10.814 4.32144 9.8035V9.8035ZM5.32144 9.66581V9.8035C5.32144 10.5485 5.61741 11.263 6.1442 11.7898C6.67099 12.3166 7.38553 12.6126 8.13052 12.6126C8.87552 12.6126 9.59006 12.3166 10.1169 11.7898C10.6436 11.263 10.9396 10.5485 10.9396 9.8035V9.66581C10.9391 8.92106 10.6428 8.20677 10.1164 7.67997C9.58993 7.15316 8.87625 6.85681 8.1315 6.85575V6.85575C7.3864 6.85601 6.67173 7.15183 6.14468 7.6785C5.61763 8.20518 5.32126 8.91974 5.32047 9.66483L5.32144 9.66581ZM14.0627 9.9788C13.9824 9.87345 13.9469 9.7404 13.9645 9.60917C13.9821 9.47794 14.0512 9.35906 14.1564 9.2786C14.4574 9.05096 14.69 8.74481 14.8288 8.39384C14.9676 8.04286 15.0074 7.66083 14.9435 7.28886C14.8606 6.7335 14.5622 6.23319 14.1129 5.89628C13.6637 5.55937 13.1 5.4127 12.5436 5.48856C12.4121 5.50554 12.279 5.46948 12.174 5.38846C12.069 5.30745 12.0005 5.18798 11.9836 5.05643C11.9666 4.92489 12.0026 4.79231 12.0836 4.68729C12.1647 4.58227 12.2836 4.51384 12.4152 4.49686C13.2294 4.38728 14.0543 4.60132 14.7121 5.09354C15.3698 5.58576 15.8078 6.31667 15.9323 7.1287C16.0265 7.67999 15.9677 8.24635 15.7619 8.76639C15.5561 9.28644 15.2113 9.73993 14.7653 10.0774C14.6787 10.1423 14.5737 10.1775 14.4655 10.1775C14.3872 10.1782 14.3096 10.1605 14.2394 10.1258C14.1692 10.091 14.1082 10.0405 14.0612 9.97782L14.0627 9.9788ZM18.0695 7.74784C18.0264 7.69816 17.9936 7.64031 17.9728 7.57792C17.9521 7.51553 17.9437 7.44965 17.9484 7.38407C17.9531 7.31849 17.9707 7.25435 18.0002 7.19559C18.0297 7.13684 18.0705 7.08475 18.1203 7.04179C18.3902 6.80964 18.5907 6.50691 18.6989 6.16776C18.8071 5.82861 18.8191 5.46596 18.7336 5.1204C18.6179 4.598 18.3033 4.14151 17.8566 3.84696C17.4099 3.55241 16.8662 3.44332 16.3405 3.54276C16.2759 3.55504 16.2095 3.55416 16.1452 3.54081C16.0808 3.52745 16.0198 3.50159 15.9655 3.46464C15.9112 3.42768 15.8648 3.38041 15.8288 3.32548C15.7927 3.27054 15.7678 3.20936 15.7555 3.14481C15.7432 3.08027 15.7436 3.01383 15.757 2.9495C15.7703 2.88517 15.7962 2.82413 15.8332 2.76981C15.8701 2.71549 15.9174 2.66865 15.9723 2.63261C16.0273 2.59656 16.0889 2.57213 16.1535 2.55985C16.9328 2.40837 17.7406 2.56729 18.4044 3.00272C19.0683 3.43816 19.5356 4.11523 19.7072 4.89042C19.8355 5.41371 19.8167 5.96237 19.652 6.47538C19.4873 6.98839 19.1835 7.44589 18.7746 7.79667C18.6848 7.87667 18.5686 7.92083 18.4484 7.92069C18.3763 7.92082 18.305 7.90532 18.2394 7.87528C18.1738 7.84525 18.1155 7.80156 18.0685 7.74686L18.0695 7.74784Z" fill="#56596A"/>
</svg>
