<svg width="24" height="24" viewBox="0 0 24 24" fill="none" xmlns="http://www.w3.org/2000/svg">
<path d="M4 17.5C3.33696 17.5 2.70077 17.2364 2.23193 16.7676C1.76309 16.2987 1.5 15.663 1.5 15V9C1.5 8.33696 1.76309 7.70077 2.23193 7.23193C2.70077 6.76309 3.33696 6.5 4 6.5H8C8.66304 6.5 9.29874 6.76309 9.76758 7.23193C10.2364 7.70077 10.5 8.33696 10.5 9V9.76172H14.5996C14.7988 9.76232 14.996 9.80264 15.1797 9.87988C15.3633 9.95712 15.5301 10.0699 15.6699 10.2119L16.7798 11.3438C16.859 11.4244 16.9634 11.4759 17.0757 11.4897C17.1879 11.5035 17.3015 11.479 17.3979 11.4199L19.1689 10.335C19.2561 10.2814 19.3574 10.2558 19.4595 10.2617C19.5616 10.2676 19.6594 10.3044 19.7397 10.3677L21.9209 12.082C22.1654 12.2743 22.344 12.5376 22.4321 12.8359C22.5202 13.1343 22.5134 13.4528 22.4126 13.7471C22.3118 14.0414 22.1217 14.2969 21.8691 14.4785C21.6166 14.6601 21.314 14.7588 21.0029 14.7607H10.5029V15C10.5029 15.663 10.2393 16.2987 9.77051 16.7676C9.30167 17.2364 8.66597 17.5 8.00293 17.5H4ZM2.5 9V15C2.5 15.3978 2.65766 15.7792 2.93896 16.0605C3.22027 16.3419 3.60218 16.5 4 16.5H8C8.39782 16.5 8.77924 16.3419 9.06055 16.0605C9.34185 15.7792 9.5 15.3978 9.5 15V9C9.5 8.60218 9.34185 8.22076 9.06055 7.93945C8.77924 7.65815 8.39782 7.5 8 7.5H4C3.60218 7.5 3.22027 7.65815 2.93896 7.93945C2.65766 8.22076 2.5 8.60218 2.5 9V9ZM21 13.7617C21.1037 13.7604 21.2043 13.7271 21.2881 13.666C21.3719 13.6049 21.4343 13.5192 21.4673 13.4209C21.5002 13.3226 21.5017 13.2164 21.4717 13.1172C21.4417 13.0179 21.3817 12.9303 21.2998 12.8667L19.3926 11.3667L17.918 12.2671C17.6285 12.4445 17.2871 12.5182 16.9502 12.4766C16.6132 12.435 16.3006 12.2806 16.063 12.0381L14.9526 10.9038C14.9062 10.8567 14.851 10.8195 14.79 10.7939C14.7291 10.7684 14.6637 10.755 14.5977 10.7549H10.4976V13.7549L21 13.7617ZM4 12.0078C4 11.6122 4.11715 11.2259 4.33691 10.897C4.55668 10.5681 4.86892 10.3115 5.23438 10.1602C5.59983 10.0088 6.00217 9.96922 6.39014 10.0464C6.7781 10.1236 7.13436 10.314 7.41406 10.5938C7.69377 10.8735 7.88426 11.2297 7.96143 11.6177C8.0386 12.0056 7.99903 12.408 7.84766 12.7734C7.69628 13.1389 7.43974 13.4511 7.11084 13.6709C6.78194 13.8907 6.39556 14.0078 6 14.0078C5.46957 14.0078 4.96052 13.7969 4.58545 13.4219C4.21038 13.0468 4 12.5382 4 12.0078ZM5 12.0078C5 12.2056 5.05858 12.399 5.16846 12.5635C5.27834 12.7279 5.43446 12.856 5.61719 12.9316C5.79991 13.0073 6.00084 13.0274 6.19482 12.9888C6.38881 12.9502 6.56718 12.8547 6.70703 12.7148C6.84688 12.575 6.94188 12.3971 6.98047 12.2031C7.01905 12.0091 6.99952 11.8077 6.92383 11.625C6.84814 11.4423 6.71962 11.2862 6.55518 11.1763C6.39073 11.0664 6.19778 11.0078 6 11.0078C5.73478 11.0078 5.48002 11.1132 5.29248 11.3008C5.10494 11.4883 5 11.7426 5 12.0078Z" fill="#56596A"/>
</svg>
