<svg width="24" height="24" viewBox="0 0 24 24" fill="none" xmlns="http://www.w3.org/2000/svg">
<path d="M12.7998 20.5C12.1368 20.5 11.5011 20.2364 11.0322 19.7676C10.5634 19.2987 10.2998 18.663 10.2998 18V15.7998H4C3.33696 15.7998 2.70077 15.5367 2.23193 15.0679C1.76309 14.599 1.5 13.9628 1.5 13.2998V6.1001C1.5 5.43706 1.76309 4.80087 2.23193 4.33203C2.70077 3.86319 3.33696 3.6001 4 3.6001H11.1997C11.8627 3.6001 12.4989 3.86319 12.9678 4.33203C13.4366 4.80087 13.6997 5.43706 13.6997 6.1001V8.2998H20C20.663 8.2998 21.2987 8.56339 21.7676 9.03223C22.2364 9.50107 22.5 10.1368 22.5 10.7998V18C22.5 18.663 22.2364 19.2987 21.7676 19.7676C21.2987 20.2364 20.663 20.5 20 20.5H12.7998ZM11.2998 18C11.2998 18.3978 11.458 18.7792 11.7393 19.0605C12.0206 19.3419 12.402 19.5 12.7998 19.5H20C20.3978 19.5 20.7792 19.3419 21.0605 19.0605C21.3419 18.7792 21.5 18.3978 21.5 18V10.7998C21.5 10.402 21.3419 10.0206 21.0605 9.73926C20.7792 9.45795 20.3978 9.2998 20 9.2998H13.6997V13.2998C13.7002 13.9459 13.4508 14.5671 13.0034 15.0332C12.556 15.4993 11.9454 15.774 11.2998 15.7998V18ZM11.1997 14.7998C11.5975 14.7998 11.9789 14.6417 12.2603 14.3604C12.5416 14.079 12.6997 13.6976 12.6997 13.2998V6.1001C12.6997 5.70227 12.5416 5.32037 12.2603 5.03906C11.9789 4.75776 11.5975 4.6001 11.1997 4.6001H4C3.60218 4.6001 3.22027 4.75776 2.93896 5.03906C2.65766 5.32037 2.5 5.70227 2.5 6.1001V13.2998C2.5 13.6976 2.65766 14.079 2.93896 14.3604C3.22027 14.6417 3.60218 14.7998 4 14.7998H11.1997ZM7.64893 20.354C7.60236 20.3076 7.56525 20.2522 7.54004 20.1914C7.51483 20.1307 7.50195 20.0658 7.50195 20C7.50195 19.9342 7.51483 19.8689 7.54004 19.8081C7.56525 19.7474 7.60236 19.6924 7.64893 19.646L7.79395 19.501H7.00098C6.33794 19.501 5.70175 19.2374 5.23291 18.7686C4.76407 18.2997 4.50098 17.664 4.50098 17.001C4.50098 16.8684 4.5532 16.7412 4.64697 16.6475C4.74074 16.5537 4.86837 16.501 5.00098 16.501C5.13358 16.501 5.26072 16.5537 5.35449 16.6475C5.44826 16.7412 5.50098 16.8684 5.50098 17.001C5.50098 17.3988 5.65864 17.7802 5.93994 18.0615C6.22125 18.3428 6.60315 18.501 7.00098 18.501H9.00098C9.10008 18.5006 9.19675 18.5296 9.2793 18.5845C9.36184 18.6393 9.42631 18.7176 9.46436 18.8091C9.5024 18.9006 9.5125 19.0014 9.49316 19.0986C9.47383 19.1958 9.42613 19.285 9.35596 19.355L8.35596 20.355C8.30952 20.4016 8.2541 20.4386 8.19336 20.4639C8.13261 20.4891 8.06773 20.5019 8.00195 20.502C7.93617 20.5026 7.87088 20.4899 7.81006 20.4648C7.74924 20.4398 7.69413 20.4028 7.64795 20.356L7.64893 20.354ZM13.3789 17.8159C13.2463 17.8159 13.1192 17.7632 13.0254 17.6694C12.9316 17.5757 12.8789 17.4485 12.8789 17.3159C12.8789 17.1833 12.9316 17.0562 13.0254 16.9624C13.1192 16.8686 13.2463 16.8159 13.3789 16.8159H18.4248C18.5574 16.8159 18.6846 16.7632 18.7783 16.6694C18.8721 16.5757 18.9248 16.4485 18.9248 16.3159V15.3999H18.2158C17.7633 15.3991 17.3297 15.2189 17.0098 14.8989C16.6898 14.579 16.5096 14.1454 16.5088 13.6929C16.5296 13.2414 16.7237 12.8153 17.0508 12.5034C17.3779 12.1916 17.8127 12.0183 18.2646 12.019C18.7011 12.0311 19.1166 12.2098 19.4253 12.5186C19.734 12.8273 19.9127 13.2423 19.9248 13.6787V16.3169C19.9248 16.7147 19.7667 17.0961 19.4854 17.3774C19.204 17.6587 18.8226 17.8169 18.4248 17.8169L13.3789 17.8159ZM17.5088 13.708C17.5112 13.8935 17.587 14.0701 17.7197 14.1997C17.8525 14.3293 18.0313 14.4011 18.2168 14.3989H18.9258V13.6909C18.9175 13.5127 18.8418 13.3441 18.7144 13.2192C18.5869 13.0944 18.4171 13.0227 18.2388 13.0181H18.2188C18.0336 13.0185 17.8558 13.0906 17.7231 13.2197C17.5904 13.3489 17.5133 13.5249 17.5078 13.71L17.5088 13.708ZM5.50098 12.6001V8.45703C5.50098 8.05921 5.65864 7.67779 5.93994 7.39648C6.22125 7.11518 6.60315 6.95703 7.00098 6.95703H9.00098C9.13358 6.95703 9.26072 7.00975 9.35449 7.10352C9.44826 7.19728 9.50098 7.32442 9.50098 7.45703C9.50098 7.58964 9.44826 7.71678 9.35449 7.81055C9.26072 7.90432 9.13358 7.95703 9.00098 7.95703H7.00098C6.86837 7.95703 6.74074 8.00975 6.64697 8.10352C6.5532 8.19728 6.50098 8.32442 6.50098 8.45703V9.6001H9.00098C9.13358 9.6001 9.26072 9.65281 9.35449 9.74658C9.44826 9.84035 9.50098 9.96749 9.50098 10.1001C9.50098 10.2327 9.44826 10.3598 9.35449 10.4536C9.26072 10.5474 9.13358 10.6001 9.00098 10.6001H6.50098V12.6001C6.50098 12.7327 6.44826 12.8598 6.35449 12.9536C6.26072 13.0474 6.13358 13.1001 6.00098 13.1001C5.86837 13.1001 5.74074 13.0474 5.64697 12.9536C5.5532 12.8598 5.50098 12.7327 5.50098 12.6001ZM15.3105 11.96C15.2476 11.9381 15.1921 11.8999 15.1489 11.8491C15.1005 11.8049 15.0622 11.7503 15.0366 11.6899C15.0111 11.6295 14.999 11.5646 15.001 11.499C14.9994 11.4334 15.0127 11.3685 15.0405 11.3091C15.0616 11.2468 15.0997 11.1913 15.1499 11.1489C15.2434 11.0573 15.3691 11.0059 15.5 11.0059C15.6309 11.0059 15.7561 11.0573 15.8496 11.1489C15.901 11.1907 15.9398 11.2463 15.9609 11.3091C15.9908 11.385 16.0019 11.4667 15.9932 11.5479C15.9845 11.629 15.9559 11.707 15.9106 11.7749C15.8654 11.8428 15.8045 11.8988 15.7329 11.938C15.6613 11.9772 15.5816 11.9984 15.5 12C15.4345 12.0022 15.3689 11.9887 15.3096 11.9609L15.3105 11.96ZM18.501 7.00098C18.501 6.60315 18.3428 6.22173 18.0615 5.94043C17.7802 5.65913 17.3988 5.50098 17.001 5.50098H15.001C14.9021 5.50076 14.8052 5.4711 14.7231 5.41602C14.6411 5.36094 14.5772 5.2828 14.5396 5.19141C14.5019 5.10001 14.4923 4.99975 14.5117 4.90283C14.5311 4.80591 14.5789 4.71678 14.6489 4.64697L15.6489 3.64697C15.7427 3.55309 15.8698 3.50009 16.0024 3.5C16.1351 3.49991 16.2626 3.55273 16.3564 3.64648C16.4503 3.74024 16.5028 3.86732 16.5029 4C16.503 4.13268 16.4507 4.26012 16.3569 4.354L16.21 4.50098H17.002C17.665 4.50098 18.3007 4.76407 18.7695 5.23291C19.2384 5.70175 19.502 6.33794 19.502 7.00098C19.502 7.13359 19.4492 7.26072 19.3555 7.35449C19.2617 7.44826 19.1346 7.50098 19.002 7.50098C18.8693 7.50098 18.7422 7.44826 18.6484 7.35449C18.5547 7.26072 18.502 7.13359 18.502 7.00098H18.501Z" fill="#56596A"/>
</svg>
