<svg width="24" height="24" viewBox="0 0 24 24" fill="none" xmlns="http://www.w3.org/2000/svg">
<path d="M18.0016 22.499C17.8934 22.499 17.7881 22.464 17.7016 22.3991L6.46763 13.812C6.22449 13.6514 6.01741 13.442 5.8596 13.197C5.54353 12.7106 5.43329 12.1186 5.55308 11.5509C5.67287 10.9833 6.01288 10.4864 6.49858 10.1691L17.6986 1.60403C17.8047 1.52354 17.9384 1.48852 18.0704 1.50662C18.2023 1.52471 18.3216 1.5945 18.4021 1.70059C18.4826 1.80667 18.5177 1.94036 18.4996 2.07229C18.4815 2.20422 18.4117 2.32358 18.3056 2.40408L7.07158 10.99C6.93384 11.0755 6.81475 11.1879 6.7213 11.3203C6.62784 11.4528 6.56199 11.6027 6.52763 11.7611C6.49451 11.9147 6.49219 12.0733 6.52086 12.2278C6.54952 12.3823 6.6086 12.5295 6.69462 12.661C6.78452 12.7993 6.90278 12.917 7.04161 13.0061L18.3056 21.614C18.3895 21.677 18.4516 21.7648 18.4829 21.865C18.5142 21.9652 18.5131 22.0726 18.48 22.1721C18.4468 22.2717 18.3831 22.3583 18.298 22.4197C18.2128 22.4811 18.1105 22.5141 18.0056 22.5141L18.0016 22.499Z" fill="#56596A"/>
</svg>
