<svg width="24" height="24" viewBox="0 0 24 24" fill="none" xmlns="http://www.w3.org/2000/svg">
<path d="M11.4966 22V20.5C11.4966 20.3674 11.5493 20.2403 11.6431 20.1465C11.7368 20.0527 11.864 20 11.9966 20C12.1292 20 12.2563 20.0527 12.3501 20.1465C12.4439 20.2403 12.4966 20.3674 12.4966 20.5V22C12.4966 22.1326 12.4439 22.2597 12.3501 22.3535C12.2563 22.4473 12.1292 22.5 11.9966 22.5C11.864 22.5 11.7368 22.4473 11.6431 22.3535C11.5493 22.2597 11.4966 22.1326 11.4966 22ZM16.5649 20.9097L15.814 19.6099C15.7477 19.4949 15.7297 19.3582 15.7642 19.23C15.7986 19.1018 15.8821 18.9926 15.9971 18.9263C16.112 18.86 16.2488 18.8421 16.377 18.8765C16.5051 18.9109 16.6144 18.9949 16.6807 19.1099L17.4307 20.4097C17.4966 20.5245 17.5145 20.6612 17.48 20.7891C17.4455 20.9169 17.3613 21.0257 17.2466 21.0918C17.1711 21.136 17.0851 21.159 16.9976 21.1587C16.91 21.1589 16.824 21.1363 16.748 21.0928C16.6721 21.0493 16.6091 20.9868 16.5649 20.9111V20.9097ZM6.74756 21.0908C6.63299 21.0245 6.54944 20.9154 6.51514 20.7876C6.48083 20.6598 6.49896 20.5234 6.56494 20.4087L7.31592 19.1089C7.34718 19.0491 7.39019 18.9963 7.44238 18.9536C7.49458 18.9109 7.55486 18.8791 7.61963 18.8604C7.68439 18.8416 7.75239 18.8361 7.81934 18.8442C7.88628 18.8524 7.95089 18.874 8.00928 18.9077C8.06766 18.9415 8.11823 18.9866 8.15869 19.0405C8.19915 19.0945 8.22859 19.1562 8.24463 19.2217C8.26067 19.2872 8.2629 19.3553 8.25195 19.4219C8.24101 19.4884 8.21684 19.552 8.18066 19.6089L7.43164 20.9087C7.38767 20.9848 7.32473 21.0484 7.24854 21.0923C7.17234 21.1362 7.08549 21.1589 6.99756 21.1587C6.9097 21.1594 6.8233 21.1363 6.74756 21.0918V21.0908ZM4.49854 12C4.49854 10.5166 4.93858 9.06638 5.7627 7.83301C6.58681 6.59964 7.75797 5.63846 9.12842 5.0708C10.4989 4.50314 12.0071 4.35465 13.4619 4.64404C14.9168 4.93343 16.2534 5.64788 17.3022 6.69678C18.3511 7.74567 19.0651 9.08176 19.3545 10.5366C19.6439 11.9915 19.4954 13.4997 18.9277 14.8701C18.3601 16.2406 17.3989 17.4117 16.1655 18.2358C14.9322 19.06 13.4819 19.5 11.9985 19.5C10.01 19.4981 8.10388 18.7074 6.69775 17.3013C5.29163 15.8951 4.50039 13.9886 4.49854 12V12ZM5.49854 12C5.49854 13.2856 5.88001 14.5424 6.59424 15.6113C7.30847 16.6802 8.32351 17.5129 9.51123 18.0049C10.699 18.4969 12.0062 18.6258 13.2671 18.375C14.528 18.1242 15.6857 17.5052 16.5947 16.5962C17.5038 15.6872 18.1232 14.5289 18.374 13.2681C18.6248 12.0072 18.4959 10.7004 18.0039 9.5127C17.5119 8.32498 16.6788 7.30944 15.6099 6.59521C14.5409 5.88099 13.2841 5.5 11.9985 5.5C10.2755 5.50238 8.62407 6.18775 7.40576 7.40625C6.18745 8.62475 5.50212 10.2769 5.5 12H5.49854ZM20.4067 17.4341L19.1069 16.6851C19.0472 16.6538 18.9944 16.6108 18.9517 16.5586C18.909 16.5064 18.8772 16.4461 18.8584 16.3813C18.8396 16.3166 18.8342 16.2486 18.8423 16.1816C18.8504 16.1147 18.872 16.0501 18.9058 15.9917C18.9395 15.9333 18.9846 15.8823 19.0386 15.8418C19.0925 15.8013 19.1542 15.7724 19.2197 15.7563C19.2852 15.7403 19.3534 15.7376 19.4199 15.7485C19.4865 15.7595 19.55 15.7836 19.6069 15.8198L20.9067 16.5688C20.9665 16.6001 21.0193 16.6431 21.062 16.6953C21.1047 16.7475 21.1365 16.8078 21.1553 16.8726C21.1741 16.9373 21.1795 17.0053 21.1714 17.0723C21.1633 17.1392 21.1417 17.2038 21.1079 17.2622C21.0742 17.3206 21.029 17.3717 20.9751 17.4121C20.9211 17.4526 20.8594 17.4815 20.7939 17.4976C20.7284 17.5136 20.6603 17.5163 20.5938 17.5054C20.5272 17.4944 20.4636 17.4703 20.4067 17.4341ZM2.90674 17.249C2.84084 17.1342 2.82341 16.9975 2.85791 16.8696C2.89241 16.7418 2.97608 16.633 3.09082 16.5669L4.39062 15.8159C4.44753 15.7797 4.5111 15.7556 4.57764 15.7446C4.64418 15.7337 4.71233 15.7364 4.77783 15.7524C4.84333 15.7685 4.90503 15.7974 4.95898 15.8379C5.01293 15.8783 5.05805 15.9294 5.0918 15.9878C5.12554 16.0462 5.14714 16.1108 5.15527 16.1777C5.1634 16.2447 5.15795 16.3122 5.13916 16.377C5.12037 16.4417 5.08859 16.502 5.0459 16.5542C5.0032 16.6064 4.95038 16.6494 4.89062 16.6807L3.59082 17.4321C3.53386 17.4651 3.471 17.486 3.40576 17.4946C3.34052 17.5032 3.274 17.499 3.21045 17.4819C3.1469 17.4648 3.08729 17.4352 3.03516 17.395C2.98302 17.3549 2.93949 17.3051 2.90674 17.248V17.249ZM20.502 12.502C20.3693 12.502 20.2422 12.4492 20.1484 12.3555C20.0547 12.2617 20.002 12.1346 20.002 12.002C20.002 11.8693 20.0547 11.7422 20.1484 11.6484C20.2422 11.5547 20.3693 11.502 20.502 11.502H22.002C22.1346 11.502 22.2617 11.5547 22.3555 11.6484C22.4492 11.7422 22.502 11.8693 22.502 12.002C22.502 12.1346 22.4492 12.2617 22.3555 12.3555C22.2617 12.4492 22.1346 12.502 22.002 12.502H20.502ZM2.00195 12.502C1.86934 12.502 1.74221 12.4492 1.64844 12.3555C1.55467 12.2617 1.50195 12.1346 1.50195 12.002C1.50195 11.8693 1.55467 11.7422 1.64844 11.6484C1.74221 11.5547 1.86934 11.502 2.00195 11.502H3.50195C3.63456 11.502 3.7617 11.5547 3.85547 11.6484C3.94924 11.7422 4.00195 11.8693 4.00195 12.002C4.00195 12.1346 3.94924 12.2617 3.85547 12.3555C3.7617 12.4492 3.63456 12.502 3.50195 12.502H2.00195ZM18.9326 8.00195C18.8666 7.8872 18.849 7.75089 18.8833 7.62305C18.9176 7.4952 19.0012 7.38613 19.1157 7.31982L20.4155 6.56982C20.4724 6.53365 20.5365 6.50948 20.603 6.49854C20.6696 6.48759 20.7372 6.4903 20.8027 6.50635C20.8682 6.52239 20.9299 6.55134 20.9839 6.5918C21.0378 6.63225 21.083 6.68332 21.1167 6.7417C21.1504 6.80008 21.172 6.8647 21.1802 6.93164C21.1883 6.99858 21.1829 7.06658 21.1641 7.13135C21.1453 7.19611 21.1135 7.2564 21.0708 7.30859C21.0281 7.36079 20.9753 7.4038 20.9155 7.43506L19.6157 8.18506C19.5009 8.25096 19.3647 8.26838 19.2368 8.23389C19.109 8.19939 18.9997 8.11571 18.9336 8.00098L18.9326 8.00195ZM4.39062 8.18213L3.09082 7.43066C3.03107 7.39941 2.97824 7.3564 2.93555 7.3042C2.89285 7.252 2.86107 7.19172 2.84229 7.12695C2.8235 7.06219 2.81804 6.99468 2.82617 6.92773C2.8343 6.86079 2.8559 6.79618 2.88965 6.73779C2.9234 6.67941 2.96851 6.62835 3.02246 6.58789C3.07641 6.54743 3.13812 6.51848 3.20361 6.50244C3.26911 6.4864 3.33727 6.48368 3.40381 6.49463C3.47035 6.50557 3.53391 6.52974 3.59082 6.56592L4.89062 7.31689C4.95038 7.34815 5.0032 7.39116 5.0459 7.44336C5.08859 7.49556 5.12037 7.55584 5.13916 7.62061C5.15795 7.68537 5.1634 7.75337 5.15527 7.82031C5.14714 7.88725 5.12554 7.95187 5.0918 8.01025C5.05805 8.06864 5.01293 8.1197 4.95898 8.16016C4.90503 8.20061 4.84333 8.22956 4.77783 8.24561C4.71233 8.26165 4.64418 8.26436 4.57764 8.25342C4.5111 8.24247 4.44753 8.21831 4.39062 8.18213ZM16.0049 5.07275C15.8903 5.00645 15.8068 4.89738 15.7725 4.76953C15.7382 4.64169 15.7558 4.50586 15.8218 4.39111L16.5728 3.09082C16.6419 2.98199 16.7507 2.90422 16.876 2.87354C17.0012 2.84285 17.1335 2.86173 17.2451 2.92627C17.3568 2.99081 17.4392 3.09587 17.4751 3.21973C17.511 3.34358 17.4978 3.47655 17.438 3.59082L16.687 4.89111C16.6431 4.96679 16.5797 5.02955 16.5039 5.07324C16.4281 5.11694 16.3424 5.14006 16.2549 5.14014C16.1664 5.14184 16.0792 5.11859 16.0029 5.07373L16.0049 5.07275ZM7.31787 4.89014L6.56885 3.58984C6.53267 3.53293 6.5085 3.46937 6.49756 3.40283C6.48661 3.33629 6.48884 3.26813 6.50488 3.20264C6.52093 3.13714 6.55036 3.07543 6.59082 3.02148C6.63128 2.96753 6.68234 2.92242 6.74072 2.88867C6.79911 2.85492 6.86372 2.83333 6.93066 2.8252C6.99761 2.81706 7.06512 2.82252 7.12988 2.84131C7.19465 2.8601 7.25493 2.89188 7.30713 2.93457C7.35933 2.97727 7.40234 3.03009 7.43359 3.08984L8.18359 4.39014C8.24958 4.50489 8.2677 4.64071 8.2334 4.76855C8.19909 4.8964 8.11554 5.00547 8.00098 5.07178C7.9257 5.11655 7.83953 5.13962 7.75195 5.13867C7.66387 5.1394 7.57705 5.11728 7.50049 5.07373C7.42393 5.03018 7.36031 4.96719 7.31592 4.89111L7.31787 4.89014ZM11.5029 3.5V2C11.5029 1.86739 11.5556 1.74025 11.6494 1.64648C11.7432 1.55272 11.8703 1.5 12.0029 1.5C12.1355 1.5 12.2627 1.55272 12.3564 1.64648C12.4502 1.74025 12.5029 1.86739 12.5029 2V3.5C12.5029 3.63261 12.4502 3.75975 12.3564 3.85352C12.2627 3.94728 12.1355 4 12.0029 4C11.8703 4 11.7432 3.94728 11.6494 3.85352C11.5556 3.75975 11.5029 3.63261 11.5029 3.5Z" fill="#56596A"/>
</svg>
