<svg width="24" height="24" viewBox="0 0 24 24" fill="none" xmlns="http://www.w3.org/2000/svg">
<path d="M4.75879 20V17.2759H2.00195C1.86934 17.2759 1.74172 17.2232 1.64795 17.1294C1.55418 17.0356 1.50195 16.9085 1.50195 16.7759C1.50195 16.6433 1.55418 16.5161 1.64795 16.4224C1.74172 16.3286 1.86934 16.2759 2.00195 16.2759H4.75879V4C4.75879 3.86739 4.81151 3.74025 4.90527 3.64648C4.99904 3.55272 5.12618 3.5 5.25879 3.5C5.3914 3.5 5.51854 3.55272 5.6123 3.64648C5.70607 3.74025 5.75879 3.86739 5.75879 4V11.1689C6.02219 10.7546 6.37209 10.402 6.78467 10.1357C7.02178 9.98862 7.28644 9.89184 7.5625 9.85107C7.83856 9.81031 8.12013 9.82661 8.38965 9.89893C9.54265 10.1869 10.1686 11.4477 10.8306 12.7827C11.5386 14.2087 12.269 15.6831 13.584 15.7271H13.6108C14.6828 15.7271 15.4108 13.6401 16.1108 11.6191C16.9528 9.19214 17.8229 6.68296 19.6719 6.20996C19.7362 6.19126 19.8036 6.18551 19.8701 6.19336C19.9366 6.20121 20.0009 6.22221 20.0591 6.25537C20.1173 6.28853 20.1678 6.33349 20.2085 6.38672C20.2491 6.43994 20.2787 6.50057 20.2954 6.56543C20.3121 6.63029 20.3156 6.69792 20.3057 6.76416C20.2957 6.8304 20.2728 6.89405 20.2378 6.95117C20.2028 7.0083 20.157 7.05771 20.1025 7.09668C20.0481 7.13565 19.9863 7.16308 19.9209 7.17773C18.5909 7.51673 17.7766 9.86978 17.0566 11.9468C16.4316 13.7468 15.8309 15.4819 14.8569 16.2749H22.0078C22.1404 16.2749 22.2676 16.3276 22.3613 16.4214C22.4551 16.5152 22.5078 16.6423 22.5078 16.7749C22.5078 16.9075 22.4551 17.0346 22.3613 17.1284C22.2676 17.2222 22.1404 17.2749 22.0078 17.2749H5.76465V19.999C5.76465 20.1316 5.71193 20.2588 5.61816 20.3525C5.5244 20.4463 5.39726 20.499 5.26465 20.499C5.13204 20.499 5.0049 20.4463 4.91113 20.3525C4.81736 20.2588 4.76465 20.1316 4.76465 19.999L4.75879 20ZM5.75879 16.2739H12.1206C11.1453 15.4599 10.3928 14.4115 9.93359 13.2271C9.37859 12.1041 8.85297 11.0427 8.14697 10.8667C8.00499 10.8284 7.85637 10.8199 7.71094 10.8418C7.56551 10.8637 7.4262 10.9158 7.30176 10.9941C6.52354 11.6825 5.98421 12.5999 5.76172 13.6147V13.6289L5.75879 16.2739Z" fill="#56596A"/>
</svg>
