<svg width="24" height="24" viewBox="0 0 24 24" fill="none" xmlns="http://www.w3.org/2000/svg">
<path d="M15.5 14.7887C15.8186 15.1476 16 15.5605 16 16C16 17.3807 14.2091 18.5 12 18.5C9.79086 18.5 8 17.3807 8 16C8 15.5605 8.18142 15.1476 8.5 14.7887" stroke="#5439AC" stroke-linecap="round"/>
<path d="M15.5 17.2887C15.8186 17.6476 16 18.0605 16 18.5C16 19.8807 14.2091 21 12 21C9.79086 21 8 19.8807 8 18.5C8 18.0605 8.18142 17.6476 8.5 17.2887" stroke="#5439AC" stroke-linecap="round"/>
<path d="M16 13.5C16 14.8807 14.2091 16 12 16C9.79086 16 8 14.8807 8 13.5C8 12.1193 9.79086 11 12 11C14.2091 11 16 12.1193 16 13.5Z" stroke="#5439AC" stroke-linecap="round"/>
<path d="M12.5 11L16 8.5L14.5 11.5" stroke="#5439AC" stroke-linecap="round" stroke-linejoin="round"/>
<path d="M15.8536 16.5C15.5775 16.5 15.3536 16.7239 15.3536 17C15.3536 17.2761 15.5775 17.5 15.8536 17.5V16.5ZM8.14638 17.5C8.42252 17.5 8.64638 17.2761 8.64638 17C8.64638 16.7239 8.42252 16.5 8.14638 16.5V17.5ZM3.77444 15.9825L3.31582 16.1817L3.77444 15.9825ZM20.2256 15.9825L19.7669 15.7834L20.2256 15.9825ZM3.5 12.2308C3.5 7.39689 7.31744 3.5 12 3.5V2.5C6.74144 2.5 2.5 6.86862 2.5 12.2308H3.5ZM12 3.5C16.6826 3.5 20.5 7.39689 20.5 12.2308H21.5C21.5 6.86862 17.2586 2.5 12 2.5V3.5ZM20.5 12.2308C20.5 13.4971 20.2378 14.6989 19.7669 15.7834L20.6842 16.1817C21.2088 14.9735 21.5 13.6362 21.5 12.2308H20.5ZM4.23307 15.7834C3.76217 14.6989 3.5 13.4971 3.5 12.2308H2.5C2.5 13.6362 2.79116 14.9735 3.31582 16.1817L4.23307 15.7834ZM18.5646 16.5H15.8536V17.5H18.5646V16.5ZM8.14638 16.5H5.4354V17.5H8.14638V16.5ZM3.31582 16.1817C3.69079 17.0452 4.56482 17.5 5.4354 17.5V16.5C4.88987 16.5 4.42214 16.2188 4.23307 15.7834L3.31582 16.1817ZM19.7669 15.7834C19.5779 16.2188 19.1101 16.5 18.5646 16.5V17.5C19.4352 17.5 20.3092 17.0452 20.6842 16.1817L19.7669 15.7834Z" fill="#5439AC"/>
<path d="M12.4999 3.5C12.4999 3.22386 12.276 3 11.9999 3C11.7238 3 11.4999 3.22386 11.4999 3.5H12.4999ZM11.4999 4.625C11.4999 4.90114 11.7238 5.125 11.9999 5.125C12.276 5.125 12.4999 4.90114 12.4999 4.625H11.4999ZM18.7175 6.48959C18.9128 6.29433 18.9128 5.97775 18.7175 5.78249C18.5222 5.58722 18.2057 5.58722 18.0104 5.78248L18.7175 6.48959ZM17.2149 6.57798C17.0196 6.77324 17.0196 7.08982 17.2149 7.28509C17.4102 7.48035 17.7267 7.48035 17.922 7.28509L17.2149 6.57798ZM6.07791 7.285C6.27318 7.48026 6.58976 7.48026 6.78502 7.28499C6.98028 7.08973 6.98028 6.77315 6.78501 6.57789L6.07791 7.285ZM5.98951 5.78239C5.79424 5.58713 5.47766 5.58713 5.2824 5.7824C5.08714 5.97766 5.08714 6.29424 5.28241 6.4895L5.98951 5.78239ZM4.12502 13C4.40116 13 4.62502 12.7761 4.62502 12.5C4.62502 12.2239 4.40116 12 4.12502 12V13ZM3 12C2.72386 12 2.5 12.2239 2.5 12.5C2.5 12.7761 2.72386 13 3 13V12ZM21 13C21.2761 13 21.5 12.7761 21.5 12.5C21.5 12.2239 21.2761 12 21 12V13ZM19.875 12C19.5988 12 19.375 12.2239 19.375 12.5C19.375 12.7761 19.5988 13 19.875 13V12ZM11.4999 3.5V4.625H12.4999V3.5H11.4999ZM18.0104 5.78248L17.2149 6.57798L17.922 7.28509L18.7175 6.48959L18.0104 5.78248ZM6.78501 6.57789L5.98951 5.78239L5.28241 6.4895L6.07791 7.285L6.78501 6.57789ZM4.12502 12H3V13H4.12502V12ZM21 12H19.875V13H21V12Z" fill="#5439AC"/>
</svg>
