<svg width="24" height="24" viewBox="0 0 24 24" fill="none" xmlns="http://www.w3.org/2000/svg">
<path d="M2.5 20.2C2.54241 18.5709 3.21812 17.0226 4.38379 15.8836C5.54946 14.7447 7.11295 14.1051 8.74268 14.1004C8.79768 14.1004 8.84983 14.1004 8.90283 14.1004H15.1099C16.7623 14.0633 18.362 14.682 19.5596 15.8211C20.7572 16.9603 21.4554 18.5268 21.501 20.179C21.4864 20.7978 21.2311 21.3869 20.7896 21.8207C20.348 22.2544 19.7547 22.4988 19.1357 22.5023H4.88867C4.26821 22.5083 3.67045 22.2702 3.22363 21.8397C2.77682 21.4091 2.51701 20.8203 2.5 20.2V20.2ZM3.5 20.2C3.52204 20.555 3.67936 20.8883 3.93994 21.1302C4.20052 21.3722 4.54433 21.5046 4.8999 21.5003H19.0889C19.4497 21.5059 19.7985 21.371 20.0615 21.1239C20.3245 20.8767 20.4807 20.5366 20.4976 20.1761C20.4536 18.7911 19.8639 17.4801 18.8564 16.5287C17.849 15.5773 16.5058 15.0632 15.1206 15.0985H8.75391C7.38695 15.0994 6.07384 15.6324 5.09326 16.5848C4.11269 17.5372 3.54178 18.8337 3.50098 20.2H3.5ZM7 8.50034V6.50034C6.99933 5.84855 7.12675 5.20309 7.375 4.60044V4.60044C7.38033 4.58577 7.38591 4.57178 7.39258 4.55844C7.70116 3.8271 8.17968 3.17961 8.78809 2.66977C9.39649 2.15993 10.1176 1.80221 10.8916 1.62631C11.6656 1.45042 12.4703 1.46122 13.2393 1.65805C14.0082 1.85489 14.7196 2.23199 15.314 2.75815C15.3331 2.77286 15.3508 2.78875 15.3677 2.806C15.8817 3.27364 16.2924 3.84372 16.5732 4.47934C16.8541 5.11496 16.9988 5.8025 16.9985 6.49741V8.49741C16.9985 9.82349 16.4719 11.0949 15.5342 12.0326C14.5965 12.9702 13.3246 13.4974 11.9985 13.4974C10.6725 13.4974 9.40106 12.9702 8.46338 12.0326C7.5257 11.0949 6.99854 9.82349 6.99854 8.49741L7 8.50034ZM8 6.50034V8.50034C8 9.5612 8.42124 10.5783 9.17139 11.3285C9.92153 12.0786 10.9391 12.5003 12 12.5003C13.0609 12.5003 14.078 12.0786 14.8281 11.3285C15.5783 10.5783 16 9.5612 16 8.50034V6.50034C16 6.42434 15.9997 6.34829 15.9937 6.27329C15.7171 6.38175 15.423 6.43744 15.126 6.43735C14.766 6.43757 14.4105 6.35682 14.0859 6.20102C13.7614 6.04523 13.476 5.81849 13.251 5.53745C12.5317 5.91753 11.7306 6.1162 10.917 6.11704C10.337 6.11866 9.76118 6.01728 9.2168 5.81723L8.14893 5.41733C8.04976 5.76977 7.99969 6.13421 8 6.50034ZM15.7627 5.28305L15.8047 5.26206C15.6441 4.77165 15.39 4.31709 15.0566 3.92319L14.8896 4.14633C14.6572 4.45588 14.3889 4.73648 14.0898 4.98227C14.2967 5.20914 14.5724 5.3616 14.8745 5.41635C15.1766 5.4711 15.4884 5.42484 15.7617 5.28501L15.7627 5.28305ZM9.56299 4.87729C10.1406 5.08924 10.7596 5.16362 11.3711 5.09506C11.9825 5.02651 12.5696 4.81688 13.0859 4.48227L13.1138 4.46128L13.1509 4.4393C13.5113 4.19625 13.8284 3.89431 14.0889 3.54624L14.3169 3.24643C13.8633 2.92407 13.3474 2.69986 12.8022 2.58823C12.2571 2.47659 11.6947 2.47988 11.1509 2.59799C10.6071 2.71611 10.0938 2.94653 9.64404 3.27426C9.1943 3.602 8.81759 4.01983 8.53857 4.50131L9.56299 4.87729Z" fill="#56596A"/>
</svg>
