<svg width="24" height="24" viewBox="0 0 24 24" fill="none" xmlns="http://www.w3.org/2000/svg">
<path d="M4.00391 19.5C3.34135 19.4984 2.70629 19.2346 2.23779 18.7661C1.7693 18.2976 1.50549 17.6626 1.50391 17V7C1.50391 6.33696 1.767 5.70077 2.23584 5.23193C2.70468 4.76309 3.34087 4.5 4.00391 4.5H19.9985C20.6616 4.5 21.2978 4.76309 21.7666 5.23193C22.2354 5.70077 22.4985 6.33696 22.4985 7V17C22.4972 17.6626 22.2337 18.2976 21.7651 18.7661C21.2966 19.2347 20.6612 19.4987 19.9985 19.5H4.00391ZM2.50391 7V17C2.50391 17.3978 2.66157 17.7792 2.94287 18.0605C3.22418 18.3419 3.60608 18.5 4.00391 18.5H19.9985C20.396 18.4987 20.7771 18.3401 21.0581 18.0591C21.3391 17.7781 21.4972 17.3974 21.4985 17V7C21.4985 6.60218 21.3409 6.22076 21.0596 5.93945C20.7783 5.65815 20.3964 5.5 19.9985 5.5H4.00391C3.80676 5.49974 3.61142 5.53802 3.4292 5.61328C3.24698 5.68855 3.08139 5.79916 2.94189 5.93848C2.80239 6.07779 2.69172 6.24317 2.61621 6.42529C2.5407 6.60741 2.50195 6.80285 2.50195 7H2.50391ZM19.1499 16.8511L14.9995 12.7017L13.7656 13.9351C13.2969 14.4031 12.6614 14.666 11.999 14.666C11.3366 14.666 10.7016 14.4031 10.2329 13.9351L9.00293 12.7051L4.85693 16.8511C4.81049 16.8976 4.75508 16.9343 4.69434 16.9595C4.63359 16.9847 4.5687 16.9976 4.50293 16.9976C4.43716 16.9976 4.37178 16.9847 4.31104 16.9595C4.25029 16.9343 4.19537 16.8976 4.14893 16.8511C4.10236 16.8046 4.06525 16.7492 4.04004 16.6885C4.01483 16.6277 4.00195 16.5628 4.00195 16.4971C4.00195 16.4313 4.01483 16.3659 4.04004 16.3052C4.06525 16.2444 4.10236 16.1895 4.14893 16.1431L8.29492 11.9971L4.14893 7.85107C4.1025 7.80459 4.06563 7.74919 4.04053 7.68848C4.01543 7.62776 4.00239 7.56277 4.00244 7.49707C4.00249 7.43137 4.01534 7.36634 4.04053 7.30566C4.06571 7.24499 4.10293 7.18998 4.14941 7.14355C4.1959 7.09713 4.25081 7.06025 4.31152 7.03516C4.37224 7.01006 4.43723 6.99702 4.50293 6.99707C4.56863 6.99712 4.63366 7.00997 4.69434 7.03516C4.75501 7.06034 4.81051 7.09756 4.85693 7.14404L9.33691 11.625L9.35791 11.644L9.37793 11.666L10.9409 13.229C11.2231 13.5082 11.6035 13.6646 12.0005 13.6646C12.3974 13.6646 12.7784 13.5082 13.0605 13.229L19.1499 7.14404C19.2449 7.05673 19.37 7.00944 19.499 7.01221C19.628 7.01497 19.7506 7.06739 19.8418 7.15869C19.933 7.24999 19.9852 7.37296 19.9878 7.50195C19.9904 7.63095 19.9434 7.7562 19.856 7.85107L15.7075 11.9961L19.856 16.144C19.9025 16.1905 19.9391 16.2454 19.9644 16.3062C19.9896 16.3669 20.0024 16.4323 20.0024 16.498C20.0024 16.5638 19.9896 16.6287 19.9644 16.6895C19.9391 16.7502 19.9025 16.8056 19.856 16.8521C19.8101 16.8989 19.7553 16.9357 19.6948 16.9609C19.6344 16.9862 19.5694 16.9994 19.5039 16.999C19.438 16.9997 19.3726 16.9871 19.3115 16.9624C19.2504 16.9377 19.1949 16.9013 19.1479 16.855L19.1499 16.8511Z" fill="#56596A"/>
</svg>
