<svg width="24" height="24" viewBox="0 0 24 24" fill="none" xmlns="http://www.w3.org/2000/svg">
<path d="M9 22.5C8.86739 22.5 8.74025 22.4473 8.64648 22.3535C8.55272 22.2597 8.5 22.1326 8.5 22C8.5 21.8674 8.55272 21.7403 8.64648 21.6465C8.74025 21.5527 8.86739 21.5 9 21.5H11.5V18.4839C9.60222 18.3547 7.82418 17.5104 6.5249 16.1211C5.22563 14.7318 4.50194 12.9012 4.5 10.999V8.99902C4.5 8.86642 4.55272 8.73928 4.64648 8.64551C4.74025 8.55174 4.86739 8.49902 5 8.49902C5.13261 8.49902 5.26024 8.55174 5.354 8.64551C5.44777 8.73928 5.5 8.86642 5.5 8.99902V10.999C5.5 12.7229 6.18482 14.3762 7.40381 15.5952C8.6228 16.8142 10.2761 17.499 12 17.499C13.7239 17.499 15.3772 16.8142 16.5962 15.5952C17.8152 14.3762 18.5 12.7229 18.5 10.999V8.99902C18.5 8.86642 18.5527 8.73928 18.6465 8.64551C18.7403 8.55174 18.8674 8.49902 19 8.49902C19.1326 8.49902 19.2602 8.55174 19.354 8.64551C19.4478 8.73928 19.5 8.86642 19.5 8.99902V10.999C19.4976 12.9011 18.7738 14.7314 17.4746 16.1206C16.1754 17.5098 14.3976 18.3543 12.5 18.4839V21.5H15C15.1326 21.5 15.2602 21.5527 15.354 21.6465C15.4478 21.7403 15.5 21.8674 15.5 22C15.5 22.1326 15.4478 22.2597 15.354 22.3535C15.2602 22.4473 15.1326 22.5 15 22.5H9ZM7.5 11V6C7.5 4.80653 7.97445 3.66178 8.81836 2.81787C9.66227 1.97396 10.8065 1.5 12 1.5C13.1935 1.5 14.3382 1.97396 15.1821 2.81787C16.026 3.66178 16.5 4.80653 16.5 6V11C16.5 12.1935 16.026 13.3377 15.1821 14.1816C14.3382 15.0256 13.1935 15.5 12 15.5C10.8065 15.5 9.66227 15.0256 8.81836 14.1816C7.97445 13.3377 7.5 12.1935 7.5 11V11ZM8.5 6V11C8.5 11.9283 8.86901 12.8182 9.52539 13.4746C10.1818 14.131 11.0717 14.5 12 14.5C12.9283 14.5 13.8187 14.131 14.4751 13.4746C15.1315 12.8182 15.5 11.9283 15.5 11V6C15.5 5.07174 15.1315 4.18128 14.4751 3.5249C13.8187 2.86853 12.9283 2.5 12 2.5C11.0717 2.5 10.1818 2.86853 9.52539 3.5249C8.86901 4.18128 8.5 5.07174 8.5 6V6Z" fill="#56596A"/>
</svg>
