<svg width="24" height="24" viewBox="0 0 24 24" fill="none" xmlns="http://www.w3.org/2000/svg">
<path d="M1.5 12.0001C1.5 9.92336 2.11626 7.89328 3.27002 6.16657C4.42377 4.43985 6.06331 3.0941 7.98193 2.29938C9.90056 1.50466 12.012 1.29658 14.0488 1.70172C16.0856 2.10687 17.9564 3.10681 19.4248 4.57526C20.8933 6.04371 21.8932 7.91492 22.2983 9.95172C22.7035 11.9885 22.4959 14.0995 21.7012 16.0181C20.9065 17.9368 19.5602 19.5768 17.8335 20.7305C16.1068 21.8843 14.0767 22.5001 12 22.5001C9.21612 22.4971 6.54711 21.3899 4.57861 19.4214C2.61011 17.4529 1.50291 14.7839 1.5 12.0001V12.0001ZM2.5 12.0001C2.5 13.879 3.0572 15.7156 4.10107 17.2779C5.14495 18.8402 6.62885 20.0579 8.36475 20.7769C10.1006 21.4959 12.0107 21.684 13.8535 21.3174C15.6963 20.9509 17.3892 20.0459 18.7178 18.7173C20.0464 17.3887 20.9513 15.6959 21.3179 13.8531C21.6844 12.0103 21.4959 10.1002 20.7769 8.36432C20.0578 6.62842 18.8406 5.14501 17.2783 4.10114C15.7161 3.05726 13.8789 2.50006 12 2.50006C9.48151 2.50324 7.06737 3.50526 5.28662 5.28619C3.50587 7.06713 2.50438 9.48157 2.50146 12.0001H2.5ZM9.08105 19.106L8.08105 16.46C8.04221 16.3561 8.03932 16.2422 8.07227 16.1363C8.10521 16.0304 8.17226 15.9386 8.26318 15.8751C8.30443 15.8459 8.35023 15.8234 8.39844 15.8082L11.0181 14.816C11.1422 14.769 11.2799 14.7731 11.4009 14.8277C11.5218 14.8823 11.6161 14.9829 11.6631 15.107C11.71 15.2311 11.7059 15.3688 11.6514 15.4898C11.5968 15.6108 11.4962 15.7051 11.3721 15.752L9.63916 16.4068C10.3974 16.8105 11.2466 17.0137 12.1055 16.9962C12.9643 16.9786 13.8043 16.7415 14.5454 16.3072C14.602 16.2737 14.6644 16.2515 14.7295 16.2422C14.7946 16.233 14.8611 16.2366 14.9248 16.253C14.9885 16.2693 15.0485 16.298 15.1011 16.3375C15.1537 16.3769 15.198 16.4264 15.2314 16.483C15.2649 16.5396 15.2866 16.6024 15.2959 16.6675C15.3052 16.7326 15.3015 16.7987 15.2852 16.8624C15.2688 16.9261 15.2402 16.986 15.2007 17.0386C15.1612 17.0912 15.1118 17.1355 15.0552 17.169C14.2253 17.6561 13.2909 17.9376 12.3301 17.9898C11.3693 18.042 10.41 17.8631 9.53223 17.4688L10.0181 18.7559C10.0648 18.8798 10.0607 19.017 10.0063 19.1378C9.95198 19.2585 9.85178 19.3529 9.72803 19.4C9.67176 19.4212 9.6124 19.4326 9.55225 19.4332C9.45008 19.4335 9.35014 19.4024 9.26611 19.3443C9.18208 19.2862 9.11779 19.2037 9.08203 19.108L9.08105 19.106ZM16.1885 15.5938C16.1347 15.5556 16.0887 15.5072 16.0537 15.4512C16.0188 15.3953 15.9952 15.3332 15.9844 15.2681C15.9736 15.2031 15.9762 15.1365 15.9912 15.0723C16.0063 15.0081 16.0337 14.9476 16.0723 14.8941C16.1952 14.7233 16.3068 14.5444 16.4062 14.3589C16.4353 14.2976 16.4764 14.2432 16.5273 14.1983C16.5782 14.1534 16.6377 14.1193 16.7021 14.0982C16.7666 14.0771 16.8348 14.0692 16.9023 14.0753C16.9699 14.0813 17.0355 14.1007 17.0952 14.1329C17.1549 14.1651 17.2074 14.2091 17.2495 14.2623C17.2917 14.3154 17.3231 14.377 17.3408 14.4424C17.3586 14.5079 17.3625 14.576 17.353 14.6431C17.3435 14.7103 17.3204 14.7751 17.2852 14.8331C17.1658 15.0561 17.0323 15.2713 16.8853 15.4771C16.839 15.5417 16.7781 15.5941 16.7075 15.6304C16.6369 15.6668 16.5584 15.686 16.479 15.6861C16.376 15.6885 16.2753 15.6585 16.1904 15.6002L16.1885 15.5938ZM6.83545 15.0528C6.70728 14.8353 6.59217 14.6104 6.49121 14.379C6.44289 14.2583 6.44339 14.1237 6.49268 14.0035C6.54197 13.8832 6.63628 13.7869 6.75537 13.7349C6.87446 13.6829 7.00916 13.6791 7.13086 13.7247C7.25255 13.7702 7.35159 13.8616 7.40723 13.9791C7.49187 14.1727 7.58813 14.361 7.69531 14.543C7.72899 14.5995 7.75126 14.6621 7.76074 14.7271C7.77022 14.7922 7.76665 14.8582 7.75049 14.9219C7.73433 14.9857 7.70584 15.0455 7.6665 15.0982C7.62717 15.1509 7.57751 15.1955 7.521 15.2291C7.44322 15.2742 7.35505 15.2978 7.26514 15.2979C7.17882 15.298 7.09422 15.2759 7.01904 15.2335C6.94387 15.1911 6.88096 15.1297 6.83643 15.0557L6.83545 15.0528ZM17.4521 13.232C17.4322 13.234 17.412 13.234 17.3921 13.232C17.3581 13.2277 17.3245 13.2201 17.292 13.209C17.2277 13.1881 17.1686 13.154 17.1182 13.1089L14.9185 11.3829C14.8627 11.3439 14.8155 11.2942 14.7798 11.2364C14.744 11.1785 14.7204 11.1137 14.7104 11.0464C14.7005 10.9792 14.7042 10.9105 14.7217 10.8448C14.7391 10.7791 14.77 10.7176 14.812 10.6641C14.854 10.6107 14.9061 10.5667 14.9658 10.5342C15.0256 10.5018 15.0915 10.4814 15.1592 10.4752C15.2269 10.4689 15.2952 10.477 15.3599 10.4981C15.4245 10.5192 15.4841 10.5533 15.5352 10.5982L16.9893 11.7379C16.9414 10.8809 16.6747 10.0505 16.2148 9.32575C15.755 8.60102 15.1173 8.00647 14.3623 7.59821C14.2469 7.5347 14.1614 7.42812 14.124 7.30182C14.0867 7.17552 14.1003 7.03944 14.1626 6.9234C14.2249 6.80737 14.3306 6.72085 14.4565 6.68219C14.5824 6.64353 14.7188 6.65578 14.8354 6.71686C15.6824 7.17482 16.4069 7.82897 16.9492 8.62457C17.4915 9.42018 17.8355 10.3343 17.9521 11.2901L18.8042 10.2051C18.8447 10.1534 18.8949 10.11 18.9521 10.0777C19.0094 10.0454 19.0725 10.0246 19.1377 10.0167C19.2029 10.0087 19.2692 10.0137 19.3325 10.0313C19.3958 10.0489 19.4551 10.0792 19.5068 10.1197C19.5586 10.1602 19.6015 10.2104 19.6338 10.2676C19.6661 10.3249 19.6869 10.388 19.6948 10.4532C19.7028 10.5184 19.6978 10.5842 19.6802 10.6475C19.6625 10.7108 19.6328 10.7701 19.5923 10.8218L17.8452 13.0479C17.8006 13.1045 17.7444 13.1509 17.6802 13.1837C17.616 13.2165 17.5452 13.2349 17.4731 13.2379H17.4521V13.232ZM6.50537 12.732C6.37632 12.7321 6.25188 12.6821 6.15869 12.5928C6.0655 12.5036 6.01079 12.3819 6.00537 12.253C5.9673 11.2917 6.1597 10.3353 6.56641 9.46344C6.97311 8.59158 7.58222 7.82932 8.34326 7.24078L6.979 7.06403C6.91387 7.05556 6.85137 7.03428 6.79443 7.00153C6.7375 6.96877 6.68753 6.92516 6.64746 6.87311C6.60739 6.82106 6.57814 6.76172 6.56104 6.6983C6.54393 6.63488 6.53938 6.56862 6.54785 6.50348C6.55632 6.43834 6.5776 6.37536 6.61035 6.31842C6.6431 6.26148 6.68672 6.21152 6.73877 6.17145C6.79082 6.13138 6.85016 6.10212 6.91357 6.08502C6.97699 6.06792 7.04326 6.06337 7.1084 6.07184L9.8623 6.43317C9.93741 6.43528 10.0109 6.45433 10.0776 6.48883C10.1444 6.52333 10.2024 6.57233 10.2476 6.63239C10.2927 6.69244 10.3238 6.76181 10.3384 6.83551C10.353 6.90921 10.3508 6.98542 10.332 7.05817L9.97119 9.79791C9.9557 9.91794 9.8973 10.0283 9.80664 10.1085C9.71598 10.1886 9.59905 10.2332 9.47803 10.2339C9.45573 10.2356 9.43343 10.2356 9.41113 10.2339C9.3459 10.2256 9.28311 10.2042 9.22607 10.1714C9.16903 10.1387 9.11874 10.0951 9.07861 10.043C9.03848 9.99092 9.00928 9.93125 8.99219 9.86774C8.9751 9.80422 8.97044 9.73813 8.979 9.67291L9.21924 7.84381C8.50764 8.32236 7.93039 8.97525 7.54297 9.7403C7.15555 10.5053 6.97099 11.3571 7.00635 12.2139C7.0093 12.2797 6.99906 12.3454 6.97656 12.4073C6.95407 12.4691 6.9195 12.5258 6.875 12.5743C6.8305 12.6228 6.77699 12.6623 6.71729 12.69C6.65758 12.7177 6.59311 12.7332 6.52734 12.7359L6.50537 12.732ZM12.4204 7.01276C12.2092 6.99529 11.9969 6.99063 11.7852 6.99811C11.7191 7.00376 11.6526 6.99543 11.5898 6.97418C11.5271 6.95293 11.4694 6.91917 11.4204 6.87457C11.3714 6.82997 11.3322 6.77539 11.3052 6.71491C11.2781 6.65442 11.2638 6.58927 11.2632 6.52301C11.2572 6.39087 11.304 6.26147 11.3931 6.16364C11.4821 6.0658 11.6062 6.00752 11.7383 6.00104C11.9944 5.98864 12.2511 5.99441 12.5063 6.01813C12.572 6.02089 12.6362 6.03635 12.6958 6.06403C12.7554 6.0917 12.809 6.13088 12.8535 6.17926C12.898 6.22764 12.9325 6.28453 12.9551 6.34625C12.9777 6.40797 12.9881 6.47346 12.9854 6.53912C12.9826 6.60478 12.9666 6.66897 12.939 6.72858C12.9113 6.78818 12.8721 6.84181 12.8237 6.88629C12.7754 6.93077 12.7189 6.96527 12.6572 6.98785C12.5955 7.01043 12.53 7.02089 12.4644 7.01813L12.4204 7.01276Z" fill="#56596A"/>
</svg>
