<svg width="17" height="17" viewBox="0 0 17 17" fill="none" xmlns="http://www.w3.org/2000/svg">
<path d="M8.99832 16.0426C13.4166 16.0426 16.9983 12.4609 16.9983 8.0426C16.9983 3.62432 13.4166 0.0426025 8.99832 0.0426025C4.58004 0.0426025 0.998322 3.62432 0.998322 8.0426C0.998322 12.4609 4.58004 16.0426 8.99832 16.0426Z" fill="#909090"/>
<path d="M9.18973 9.72056C8.99082 9.72056 8.80005 9.64154 8.6594 9.50089C8.51875 9.36023 8.43973 9.16947 8.43973 8.97056V4.04456C8.43973 3.84564 8.51875 3.65488 8.6594 3.51423C8.80005 3.37358 8.99082 3.29456 9.18973 3.29456C9.38864 3.29456 9.57941 3.37358 9.72006 3.51423C9.86071 3.65488 9.93973 3.84564 9.93973 4.04456V8.97056C9.93973 9.16947 9.86071 9.36023 9.72006 9.50089C9.57941 9.64154 9.38864 9.72056 9.18973 9.72056Z" fill="white"/>
<path d="M9.18973 13.1308C8.99082 13.1308 8.80005 13.0517 8.6594 12.9111C8.51875 12.7704 8.43973 12.5797 8.43973 12.3808C8.43945 12.1808 8.51807 11.9889 8.65849 11.8466C8.79892 11.7043 8.98982 11.6231 9.18973 11.6208C9.28772 11.6198 9.38493 11.6383 9.47575 11.6751C9.56658 11.7119 9.64922 11.7663 9.71893 11.8352C9.78864 11.9041 9.84404 11.986 9.88194 12.0764C9.91983 12.1668 9.93947 12.2638 9.93973 12.3618V12.3828C9.9392 12.5813 9.85995 12.7716 9.71935 12.9118C9.57876 13.052 9.38829 13.1308 9.18973 13.1308Z" fill="white"/>
</svg>
