<svg width="24" height="24" viewBox="0 0 24 24" fill="none" xmlns="http://www.w3.org/2000/svg">
<path d="M1.49805 12.0001C1.49805 9.92336 2.11431 7.89328 3.26807 6.16657C4.42182 4.43985 6.06136 3.0941 7.97998 2.29938C9.8986 1.50466 12.0101 1.29658 14.0469 1.70172C16.0837 2.10687 17.9544 3.10681 19.4229 4.57526C20.8913 6.04371 21.8912 7.91492 22.2964 9.95172C22.7015 11.9885 22.4939 14.0995 21.6992 16.0181C20.9045 17.9368 19.5583 19.5768 17.8315 20.7305C16.1048 21.8843 14.0748 22.5001 11.998 22.5001C9.21425 22.4969 6.54559 21.3894 4.57715 19.421C2.6087 17.4525 1.50122 14.7839 1.49805 12.0001ZM2.49805 12.0001C2.49805 13.879 3.05525 15.7156 4.09912 17.2779C5.14299 18.8402 6.62689 20.0579 8.36279 20.7769C10.0987 21.4959 12.0087 21.684 13.8516 21.3174C15.6944 20.9509 17.3872 20.0459 18.7158 18.7173C20.0444 17.3887 20.9494 15.6959 21.3159 13.8531C21.6825 12.0103 21.4939 10.1002 20.7749 8.36432C20.0559 6.62842 18.8386 5.14501 17.2764 4.10114C15.7141 3.05726 13.877 2.50006 11.998 2.50006C9.47964 2.5035 7.06585 3.50532 5.28516 5.28619C3.50446 7.06707 2.50269 9.48165 2.49951 12.0001H2.49805ZM10.644 15.3541C10.5503 15.2603 10.498 15.1331 10.498 15.0005C10.498 14.868 10.5503 14.7408 10.644 14.647L13.29 12.001L10.644 9.35504C10.5502 9.26116 10.4976 9.13381 10.4976 9.00104C10.4976 8.86826 10.5502 8.74092 10.644 8.64703C10.7379 8.55315 10.8653 8.50055 10.998 8.50055C11.1308 8.50055 11.2582 8.55315 11.3521 8.64703L14.3521 11.647C14.3986 11.6935 14.4357 11.7484 14.4609 11.8091C14.4861 11.8699 14.499 11.9353 14.499 12.001C14.499 12.0668 14.4861 12.1317 14.4609 12.1924C14.4357 12.2532 14.3986 12.3086 14.3521 12.355L11.3521 15.355C11.3056 15.4016 11.2507 15.4382 11.1899 15.4634C11.1292 15.4886 11.0638 15.502 10.998 15.502C10.9323 15.502 10.8674 15.4886 10.8066 15.4634C10.7459 15.4382 10.6905 15.4016 10.644 15.355V15.3541Z" fill="#56596A"/>
</svg>
