<svg width="17" height="17" viewBox="0 0 17 17" fill="none" xmlns="http://www.w3.org/2000/svg">
<path d="M8.99832 16.0426C13.4166 16.0426 16.9983 12.4609 16.9983 8.0426C16.9983 3.62432 13.4166 0.0426025 8.99832 0.0426025C4.58004 0.0426025 0.998322 3.62432 0.998322 8.0426C0.998322 12.4609 4.58004 16.0426 8.99832 16.0426Z" fill="#E54660"/>
<path d="M6.29895 11.4832C6.20054 11.4834 6.10304 11.4641 6.01208 11.4266C5.92113 11.389 5.83851 11.3338 5.76895 11.2642C5.69926 11.1945 5.64397 11.1118 5.60625 11.0208C5.56853 10.9298 5.5491 10.8322 5.5491 10.7337C5.5491 10.6351 5.56853 10.5376 5.60625 10.4465C5.64397 10.3555 5.69926 10.2728 5.76895 10.2032L11.202 4.77017C11.2715 4.7005 11.3541 4.64524 11.4451 4.60753C11.536 4.56982 11.6335 4.55042 11.7319 4.55042C11.8304 4.55042 11.9279 4.56982 12.0188 4.60753C12.1098 4.64524 12.1924 4.7005 12.2619 4.77017C12.3316 4.83982 12.3869 4.92252 12.4247 5.01355C12.4624 5.10457 12.4818 5.20213 12.4818 5.30067C12.4818 5.3992 12.4624 5.49677 12.4247 5.58779C12.3869 5.67882 12.3316 5.76152 12.2619 5.83117L6.82895 11.2642C6.75939 11.3338 6.67675 11.389 6.5858 11.4266C6.49485 11.4641 6.39736 11.4834 6.29895 11.4832Z" fill="white"/>
<path d="M11.7319 11.4833C11.6335 11.4835 11.5361 11.4642 11.4451 11.4266C11.3541 11.3891 11.2715 11.3339 11.202 11.2643L5.76895 5.83126C5.69926 5.76161 5.64397 5.6789 5.60625 5.58788C5.56853 5.49685 5.5491 5.39929 5.5491 5.30075C5.5491 5.20222 5.56853 5.10466 5.60625 5.01363C5.64397 4.92261 5.69926 4.83991 5.76895 4.77026C5.8386 4.70056 5.92129 4.64527 6.01231 4.60755C6.10334 4.56983 6.20091 4.55042 6.29944 4.55042C6.39797 4.55042 6.49554 4.56983 6.58656 4.60755C6.67759 4.64527 6.76029 4.70056 6.82994 4.77026L12.2619 10.2033C12.3316 10.2729 12.3869 10.3556 12.4247 10.4466C12.4624 10.5377 12.4818 10.6352 12.4818 10.7338C12.4818 10.8323 12.4624 10.9299 12.4247 11.0209C12.3869 11.1119 12.3316 11.1946 12.2619 11.2643C12.1924 11.3339 12.1098 11.3891 12.0188 11.4266C11.9278 11.4642 11.8304 11.4835 11.7319 11.4833Z" fill="white"/>
</svg>
