<svg width="24" height="25" viewBox="0 0 24 25" fill="none" xmlns="http://www.w3.org/2000/svg">
<path d="M21.1893 15.6486C20.4419 14.9864 19.7643 14.2492 19.1673 13.4486C18.9398 12.9944 18.821 12.4936 18.8203 11.9856V8.6166C18.8203 4.4406 15.7303 1.0426 11.9333 1.0426C8.13632 1.0426 5.04632 4.4426 5.04632 8.6166V11.9666C5.04895 12.4875 4.92797 13.0016 4.69332 13.4666C4.19784 14.2716 3.57315 14.9896 2.84432 15.5916C2.45729 15.9538 2.18702 16.4232 2.06803 16.9397C1.94905 17.4563 1.98675 17.9966 2.17632 18.4916C2.33088 18.9344 2.61765 19.319 2.99787 19.5935C3.37808 19.868 3.83342 20.0192 4.30232 20.0266H8.96632V20.0716C8.96632 20.8589 9.27908 21.6139 9.83578 22.1706C10.3925 22.7274 11.1475 23.0401 11.9348 23.0401C12.7221 23.0401 13.4772 22.7274 14.0339 22.1706C14.5906 21.6139 14.9033 20.8589 14.9033 20.0716V20.0266H19.5603C20.0689 20.0266 20.5653 19.871 20.983 19.5807C21.4006 19.2904 21.7195 18.8793 21.8968 18.4026C22.0741 17.9259 22.1013 17.4064 21.9748 16.9138C21.8484 16.4211 21.5743 15.979 21.1893 15.6466V15.6486ZM12.9033 20.0736C12.9033 20.3305 12.8013 20.5768 12.6197 20.7584C12.438 20.9401 12.1917 21.0421 11.9348 21.0421C11.678 21.0421 11.4316 20.9401 11.25 20.7584C11.0684 20.5768 10.9663 20.3305 10.9663 20.0736V20.0426H12.9033V20.0736ZM19.9033 17.8886C19.8079 17.9806 19.6799 18.031 19.5473 18.0286H4.32132C4.20032 18.0286 4.10832 17.9436 4.04832 17.7836C4.00132 17.6706 3.98644 17.5469 4.00532 17.426C4.0242 17.3052 4.07611 17.1918 4.15532 17.0986C5.05532 16.3505 5.82392 15.4572 6.42932 14.4556C6.83545 13.6882 7.04729 12.8329 7.04632 11.9646V8.6166C7.04632 5.5436 9.23833 3.0426 11.9333 3.0426C14.6283 3.0426 16.8203 5.5426 16.8203 8.6166V11.9806C16.8214 12.838 17.0311 13.6823 17.4313 14.4406C17.4583 14.4889 17.488 14.5357 17.5203 14.5806C18.2133 15.5206 19.0037 16.3847 19.8783 17.1586C19.9335 17.2061 19.9777 17.265 20.0078 17.3314C20.0378 17.3977 20.053 17.4698 20.0523 17.5426C20.0516 17.6074 20.0379 17.6713 20.0122 17.7307C19.9864 17.7901 19.9491 17.8438 19.9023 17.8886H19.9033Z" fill="#5439AC"/>
</svg>
