<svg width="24" height="24" viewBox="0 0 24 24" fill="none" xmlns="http://www.w3.org/2000/svg">
<path d="M1.49805 12.0001C1.49805 9.92336 2.11431 7.89328 3.26807 6.16657C4.42182 4.43985 6.06136 3.0941 7.97998 2.29938C9.8986 1.50466 12.0101 1.29658 14.0469 1.70172C16.0837 2.10687 17.9544 3.10681 19.4229 4.57526C20.8913 6.04371 21.8912 7.91492 22.2964 9.95172C22.7015 11.9885 22.4939 14.0995 21.6992 16.0181C20.9045 17.9368 19.5583 19.5768 17.8315 20.7305C16.1048 21.8843 14.0748 22.5001 11.998 22.5001C9.21425 22.4969 6.54559 21.3894 4.57715 19.421C2.6087 17.4525 1.50122 14.7839 1.49805 12.0001ZM2.49805 12.0001C2.49805 13.879 3.05525 15.7156 4.09912 17.2779C5.14299 18.8402 6.62689 20.0579 8.36279 20.7769C10.0987 21.4959 12.0087 21.684 13.8516 21.3174C15.6944 20.9509 17.3872 20.0459 18.7158 18.7173C20.0444 17.3887 20.9494 15.6959 21.3159 13.8531C21.6825 12.0103 21.4939 10.1002 20.7749 8.36432C20.0559 6.62842 18.8386 5.14501 17.2764 4.10114C15.7141 3.05726 13.877 2.50006 11.998 2.50006C9.47964 2.5035 7.06585 3.50532 5.28516 5.28619C3.50446 7.06707 2.50269 9.48165 2.49951 12.0001H2.49805ZM14.1455 14.8531C14.0989 14.8066 14.0618 14.7512 14.0366 14.6905C14.0114 14.6297 13.9985 14.5649 13.9985 14.4991C13.9985 14.4333 14.0114 14.3679 14.0366 14.3072C14.0618 14.2464 14.0989 14.1915 14.1455 14.1451L15.79 12.5001H6.99805C6.86544 12.5001 6.7383 12.4473 6.64453 12.3536C6.55076 12.2598 6.49805 12.1327 6.49805 12.0001C6.49805 11.8675 6.55076 11.7403 6.64453 11.6465C6.7383 11.5528 6.86544 11.5001 6.99805 11.5001H15.7925L14.1455 9.85309C14.099 9.80667 14.0618 9.75166 14.0366 9.69098C14.0114 9.6303 13.9986 9.56478 13.9985 9.49908C13.9985 9.43339 14.0115 9.36839 14.0366 9.30768C14.0617 9.24696 14.0986 9.19206 14.145 9.14557C14.1914 9.09908 14.2465 9.06187 14.3071 9.03668C14.3678 9.0115 14.4328 8.99864 14.4985 8.9986C14.5642 8.99855 14.6292 9.01158 14.6899 9.03668C14.7507 9.06178 14.8056 9.09866 14.8521 9.14508L17.3521 11.6451C17.3986 11.6915 17.4357 11.7464 17.4609 11.8072C17.4861 11.8679 17.499 11.9333 17.499 11.9991C17.499 12.0649 17.4861 12.1297 17.4609 12.1905C17.4357 12.2512 17.3986 12.3066 17.3521 12.3531L14.8521 14.8531C14.8055 14.8998 14.7504 14.9367 14.6895 14.962C14.6285 14.9872 14.563 15.0002 14.4971 15.0001C14.4319 15.0004 14.3674 14.9874 14.3071 14.9625C14.2469 14.9376 14.1925 14.9013 14.1465 14.855L14.1455 14.8531Z" fill="#56596A"/>
</svg>
