<svg width="24" height="24" viewBox="0 0 24 24" fill="none" xmlns="http://www.w3.org/2000/svg">
<path d="M14.646 22.3555C14.5994 22.309 14.5623 22.2536 14.5371 22.1929C14.5119 22.1321 14.499 22.0672 14.499 22.0015C14.499 21.9357 14.5119 21.8703 14.5371 21.8096C14.5623 21.7488 14.5994 21.6939 14.646 21.6475L16.792 19.5015H4C3.33696 19.5015 2.70077 19.2379 2.23193 18.769C1.76309 18.3002 1.5 17.6645 1.5 17.0015V9.00147C1.5 8.33843 1.76309 7.70224 2.23193 7.2334C2.70077 6.76456 3.33696 6.50147 4 6.50147C4.13261 6.50147 4.25975 6.55418 4.35352 6.64795C4.44728 6.74172 4.5 6.86886 4.5 7.00147C4.5 7.13407 4.44728 7.26121 4.35352 7.35498C4.25975 7.44875 4.13261 7.50147 4 7.50147C3.60218 7.50147 3.22027 7.65961 2.93896 7.94092C2.65766 8.22222 2.5 8.60364 2.5 9.00147V17.0015C2.5 17.3993 2.65766 17.7807 2.93896 18.062C3.22027 18.3433 3.60218 18.5015 4 18.5015H16.7886L14.6406 16.3535C14.5467 16.2596 14.4941 16.1323 14.4941 15.9995C14.4941 15.8667 14.5467 15.7394 14.6406 15.6455C14.7345 15.5516 14.8619 15.4985 14.9946 15.4985C15.1274 15.4985 15.2547 15.5516 15.3486 15.6455L18.2036 18.5005H19.9956C20.3934 18.5005 20.7753 18.3423 21.0566 18.061C21.3379 17.7797 21.4956 17.3983 21.4956 17.0005V9.00049C21.4956 8.60266 21.3379 8.22125 21.0566 7.93994C20.7753 7.65864 20.3934 7.50049 19.9956 7.50049C19.863 7.50049 19.7359 7.44777 19.6421 7.35401C19.5483 7.26024 19.4956 7.1331 19.4956 7.00049C19.4956 6.86788 19.5483 6.74074 19.6421 6.64697C19.7359 6.55321 19.863 6.50049 19.9956 6.50049C20.6586 6.50049 21.2948 6.76358 21.7637 7.23242C22.2325 7.70126 22.4956 8.33745 22.4956 9.00049V17.0005C22.4956 17.6635 22.2325 18.2992 21.7637 18.7681C21.2948 19.2369 20.6586 19.5005 19.9956 19.5005H18.2017L15.3486 22.3545C15.3022 22.4011 15.2473 22.4377 15.1865 22.4629C15.1258 22.4881 15.0604 22.5015 14.9946 22.5015C14.9289 22.5015 14.864 22.4881 14.8032 22.4629C14.7425 22.4377 14.6871 22.4011 14.6406 22.3545L14.646 22.3555ZM11.564 15.3193C11.374 15.0893 6.89795 9.61934 6.89795 6.81934C6.86232 6.13377 6.96666 5.44814 7.20459 4.8042C7.44252 4.16026 7.80891 3.57143 8.28174 3.07373C8.75457 2.57604 9.32368 2.17977 9.95459 1.90918C10.5855 1.63859 11.2652 1.49953 11.9517 1.5C12.6382 1.50048 13.3172 1.64064 13.9478 1.91211C14.5783 2.18358 15.147 2.58075 15.6191 3.0791C16.0913 3.57745 16.4568 4.16677 16.6938 4.81104C16.9309 5.45531 17.0341 6.14066 16.9976 6.82617C16.9886 9.63417 12.525 15.0922 12.334 15.3262C12.2869 15.3836 12.2273 15.4298 12.1602 15.4614C12.093 15.4931 12.02 15.5095 11.9458 15.5093C11.8721 15.5077 11.7994 15.4899 11.7334 15.457C11.6674 15.4242 11.6097 15.3772 11.564 15.3193ZM7.8999 6.80127C7.8999 8.66227 10.5408 12.4082 11.9478 14.2012C13.3588 12.4012 15.9985 8.65948 15.9985 6.81348V6.79834C16.031 6.24646 15.9506 5.69389 15.7617 5.17432C15.5729 4.65474 15.2797 4.17908 14.9004 3.77686C14.5211 3.37463 14.0637 3.054 13.5562 2.83496C13.0486 2.61592 12.5016 2.50293 11.9487 2.50293C11.3959 2.50293 10.8489 2.61592 10.3413 2.83496C9.83372 3.054 9.37633 3.37463 8.99707 3.77686C8.61781 4.17908 8.3246 4.65474 8.13574 5.17432C7.94689 5.69389 7.86646 6.24646 7.89893 6.79834L7.8999 6.80127ZM9.79395 6.96533C9.79375 6.53883 9.91991 6.1218 10.1567 5.76709C10.3936 5.41239 10.73 5.13596 11.124 4.97266C11.518 4.80935 11.9518 4.76645 12.3701 4.84961C12.7884 4.93277 13.1725 5.13836 13.4741 5.43994C13.7757 5.74152 13.9813 6.12563 14.0645 6.54395C14.1476 6.96226 14.1047 7.39604 13.9414 7.79004C13.7781 8.18404 13.5017 8.5205 13.147 8.75733C12.7923 8.99415 12.3752 9.1208 11.9487 9.12061C11.6653 9.121 11.3845 9.06519 11.1226 8.95703C10.8606 8.84887 10.6225 8.69047 10.4219 8.49024C10.2213 8.29001 10.0623 8.05182 9.95361 7.79004C9.84497 7.52826 9.78871 7.24779 9.78857 6.96436L9.79395 6.96533ZM10.7939 6.96533C10.7937 7.1939 10.8614 7.41731 10.9883 7.60742C11.1152 7.79754 11.2952 7.94569 11.5063 8.0332C11.7175 8.12072 11.9501 8.14374 12.1743 8.09912C12.3985 8.05451 12.6041 7.94441 12.7656 7.78272C12.9272 7.62103 13.0371 7.41513 13.0815 7.19092C13.126 6.96671 13.1028 6.73451 13.0151 6.52344C12.9274 6.31237 12.7791 6.13209 12.5889 6.00537C12.3986 5.87866 12.1753 5.81113 11.9468 5.81152C11.6412 5.81205 11.3483 5.93376 11.1323 6.1499C10.9164 6.36605 10.7952 6.65882 10.7949 6.96436L10.7939 6.96533Z" fill="#56596A"/>
</svg>
