<svg width="24" height="24" viewBox="0 0 24 24" fill="none" xmlns="http://www.w3.org/2000/svg">
<path d="M5.83789 22.5C5.21857 22.4982 4.62524 22.2511 4.1875 21.813C3.74976 21.3749 3.50327 20.7814 3.50195 20.1621V3.83496C3.50275 3.21575 3.74907 2.62232 4.18701 2.18457C4.62495 1.74682 5.21868 1.50053 5.83789 1.5H18.0029C18.666 1.5 19.3017 1.76309 19.7705 2.23193C20.2393 2.70077 20.5029 3.33696 20.5029 4V20.1621C20.5021 20.7814 20.256 21.3748 19.8184 21.813C19.3807 22.2512 18.7868 22.4984 18.1675 22.5H5.83789ZM4.50195 3.83496V20.1621C4.50222 20.5165 4.64263 20.8561 4.89307 21.1069C5.1435 21.3577 5.48346 21.4992 5.83789 21.5H18.1636C18.5184 21.5 18.8589 21.3588 19.1099 21.1079C19.3608 20.857 19.502 20.517 19.502 20.1621V4C19.502 3.60218 19.3438 3.22076 19.0625 2.93945C18.7812 2.65815 18.3998 2.5 18.002 2.5H5.83691C5.48249 2.50053 5.14242 2.64168 4.89209 2.89258C4.64176 3.14347 4.50169 3.48347 4.50195 3.83789V3.83496ZM9.50195 20C9.36934 20 9.24172 19.9473 9.14795 19.8535C9.05418 19.7597 9.00195 19.6326 9.00195 19.5C9.00195 19.3674 9.05418 19.2403 9.14795 19.1465C9.24172 19.0527 9.36934 19 9.50195 19H14.502C14.6346 19 14.7617 19.0527 14.8555 19.1465C14.9492 19.2403 15.002 19.3674 15.002 19.5C15.002 19.6326 14.9492 19.7597 14.8555 19.8535C14.7617 19.9473 14.6346 20 14.502 20H9.50195ZM10.502 18C10.3693 18 10.2417 17.9473 10.1479 17.8535C10.0542 17.7597 10.002 17.6326 10.002 17.5C10.002 17.3674 10.0542 17.2403 10.1479 17.1465C10.2417 17.0527 10.3693 17 10.502 17H13.502C13.6346 17 13.7617 17.0527 13.8555 17.1465C13.9492 17.2403 14.002 17.3674 14.002 17.5C14.002 17.6326 13.9492 17.7597 13.8555 17.8535C13.7617 17.9473 13.6346 18 13.502 18H10.502ZM12.002 13.5C11.1119 13.5 10.2415 13.2362 9.50146 12.7417C8.76144 12.2472 8.18483 11.5444 7.84424 10.7222C7.50364 9.8999 7.41475 8.99498 7.58838 8.12207C7.76201 7.24916 8.19049 6.44721 8.81982 5.81787C9.44916 5.18853 10.2511 4.76006 11.124 4.58643C11.9969 4.41279 12.9014 4.50169 13.7236 4.84229C14.5459 5.18288 15.2487 5.75998 15.7432 6.5C16.2376 7.24002 16.502 8.10998 16.502 9C16.5004 10.193 16.0257 11.3366 15.1821 12.1802C14.3386 13.0237 13.1949 13.4984 12.002 13.5V13.5ZM12.002 12.5C12.27 12.5 12.8948 11.453 12.9888 9.5H11.0127C11.1067 11.453 11.734 12.5 12.002 12.5ZM13.4536 12.1841C13.9861 11.94 14.449 11.5664 14.8003 11.0977C15.1515 10.6289 15.3802 10.0796 15.4648 9.5H13.9907C13.9659 10.4197 13.7842 11.3284 13.4536 12.187V12.1841ZM10.5537 12.1841C10.2241 11.3263 10.0427 10.4186 10.0176 9.5H8.54053C8.62473 10.0799 8.85273 10.6293 9.20361 11.0986C9.5545 11.5679 10.0174 11.9422 10.5498 12.187L10.5537 12.1841ZM15.4697 8.49902C15.3855 7.91925 15.1574 7.36974 14.8062 6.90088C14.4549 6.43202 13.9913 6.05867 13.4585 5.81494C13.7884 6.67266 13.9698 7.5804 13.9946 8.49902H15.4697ZM12.9937 8.49902C12.8997 6.54702 12.2748 5.49902 12.0068 5.49902C11.7388 5.49902 11.1066 6.54702 11.0176 8.49902H12.9937ZM10.0186 8.49902C10.0434 7.5804 10.2248 6.67266 10.5547 5.81494C10.0218 6.05879 9.55864 6.43207 9.20703 6.90088C8.85542 7.36969 8.62639 7.91919 8.5415 8.49902H10.0186Z" fill="#56596A"/>
</svg>
