<svg width="24" height="24" viewBox="0 0 24 24" fill="none" xmlns="http://www.w3.org/2000/svg">
<path d="M7.00195 22.5005C6.33891 22.5005 5.70273 22.2369 5.23389 21.7681C4.76505 21.2992 4.50195 20.6635 4.50195 20.0005V5.00049C4.50195 4.60266 4.65961 4.22125 4.94092 3.93994C5.22222 3.65864 5.60413 3.50049 6.00195 3.50049H9.55273C9.66749 2.93534 9.9739 2.42696 10.4204 2.06201C10.8669 1.69706 11.4263 1.49805 12.0029 1.49805C12.5796 1.49805 13.1385 1.69706 13.585 2.06201C14.0315 2.42696 14.3379 2.93534 14.4526 3.50049H18.002C18.3998 3.50049 18.7812 3.65864 19.0625 3.93994C19.3438 4.22125 19.502 4.60266 19.502 5.00049V20.0005C19.502 20.6635 19.2384 21.2992 18.7695 21.7681C18.3007 22.2369 17.665 22.5005 17.002 22.5005H7.00195ZM5.50195 5.00049V20.0005C5.50195 20.3983 5.65961 20.7797 5.94092 21.061C6.22222 21.3423 6.60413 21.5005 7.00195 21.5005H17.002C17.3998 21.5005 17.7812 21.3423 18.0625 21.061C18.3438 20.7797 18.502 20.3983 18.502 20.0005V5.00049C18.502 4.86788 18.4492 4.74074 18.3555 4.64697C18.2617 4.5532 18.1346 4.50049 18.002 4.50049H17.4507C17.3355 5.065 17.0288 5.57209 16.5825 5.93652C16.1363 6.30096 15.5781 6.50038 15.002 6.50049H9.00195C8.4258 6.50038 7.86715 6.30096 7.4209 5.93652C6.97465 5.57209 6.66797 5.065 6.55273 4.50049H6.00195C5.93621 4.50036 5.87084 4.51302 5.81006 4.53809C5.74928 4.56315 5.694 4.60004 5.64746 4.64648C5.60093 4.69293 5.56425 4.74787 5.53906 4.80859C5.51387 4.86932 5.50049 4.93474 5.50049 5.00049H5.50195ZM9.00195 5.50049H15.002C15.3121 5.50044 15.6144 5.40418 15.8677 5.2251C16.1209 5.04601 16.3121 4.79291 16.4155 4.50049H14.002C13.8693 4.50049 13.7417 4.44777 13.6479 4.354C13.5542 4.26024 13.502 4.1331 13.502 4.00049C13.502 3.60266 13.3438 3.22125 13.0625 2.93994C12.7812 2.65864 12.3998 2.50049 12.002 2.50049C11.6041 2.50049 11.2222 2.65864 10.9409 2.93994C10.6596 3.22125 10.502 3.60266 10.502 4.00049C10.502 4.1331 10.4492 4.26024 10.3555 4.354C10.2617 4.44777 10.1346 4.50049 10.002 4.50049H7.59082C7.69398 4.79226 7.88477 5.04509 8.13721 5.22412C8.38964 5.40315 8.69102 5.49962 9.00049 5.50049H9.00195ZM11.002 16.2725C10.8693 16.2725 10.7417 16.2197 10.6479 16.126C10.5542 16.0322 10.502 15.9051 10.502 15.7725C10.502 15.6399 10.5542 15.5127 10.6479 15.4189C10.7417 15.3252 10.8693 15.2725 11.002 15.2725H16.002C16.1346 15.2725 16.2617 15.3252 16.3555 15.4189C16.4492 15.5127 16.502 15.6399 16.502 15.7725C16.502 15.9051 16.4492 16.0322 16.3555 16.126C16.2617 16.2197 16.1346 16.2725 16.002 16.2725H11.002ZM8.00195 13.2725C7.86934 13.2725 7.74172 13.2197 7.64795 13.126C7.55418 13.0322 7.50195 12.9051 7.50195 12.7725C7.50195 12.6399 7.55418 12.5127 7.64795 12.4189C7.74172 12.3252 7.86934 12.2725 8.00195 12.2725H16.002C16.1346 12.2725 16.2617 12.3252 16.3555 12.4189C16.4492 12.5127 16.502 12.6399 16.502 12.7725C16.502 12.9051 16.4492 13.0322 16.3555 13.126C16.2617 13.2197 16.1346 13.2725 16.002 13.2725H8.00195ZM8.00195 10.1724C7.86934 10.1724 7.74172 10.1196 7.64795 10.0259C7.55418 9.93211 7.50195 9.80497 7.50195 9.67236C7.50195 9.53976 7.55418 9.41262 7.64795 9.31885C7.74172 9.22508 7.86934 9.17236 8.00195 9.17236H16.002C16.1346 9.17236 16.2617 9.22508 16.3555 9.31885C16.4492 9.41262 16.502 9.53976 16.502 9.67236C16.502 9.80497 16.4492 9.93211 16.3555 10.0259C16.2617 10.1196 16.1346 10.1724 16.002 10.1724H8.00195Z" fill="#56596A"/>
</svg>
