<svg width="24" height="24" viewBox="0 0 24 24" fill="none" xmlns="http://www.w3.org/2000/svg">
<path d="M6.00003 22.4993C5.89509 22.4993 5.79281 22.4663 5.70767 22.4049C5.62254 22.3436 5.55885 22.2569 5.52567 22.1574C5.49248 22.0578 5.49145 21.9504 5.52274 21.8502C5.55403 21.7501 5.61603 21.6622 5.69998 21.5993L16.933 13.0124C17.084 12.9191 17.2127 12.7937 17.31 12.6453C17.4817 12.3814 17.5417 12.0602 17.4771 11.7521C17.4124 11.444 17.2283 11.174 16.965 11.0014L5.69998 2.39432C5.64745 2.35446 5.60332 2.30463 5.57004 2.24771C5.53676 2.19079 5.51503 2.12786 5.50607 2.06253C5.49711 1.9972 5.50107 1.93076 5.51779 1.86697C5.53451 1.80319 5.56363 1.74335 5.60349 1.69083C5.64334 1.6383 5.69317 1.5941 5.75009 1.56082C5.80702 1.52754 5.86995 1.50582 5.93527 1.49686C6.0006 1.48789 6.06705 1.49185 6.13083 1.50857C6.19461 1.52529 6.25445 1.55441 6.30698 1.59427L17.541 10.1803C17.8397 10.3825 18.0838 10.6554 18.2516 10.9746C18.4193 11.2939 18.5056 11.6497 18.5026 12.0104C18.4996 12.3711 18.4075 12.7253 18.2345 13.0418C18.0615 13.3583 17.813 13.6272 17.511 13.8244L6.31101 22.3893C6.22277 22.4601 6.11316 22.4989 6.00003 22.4993V22.4993Z" fill="#56596A"/>
</svg>
