<svg width="18" height="22" viewBox="0 0 18 22" fill="none" xmlns="http://www.w3.org/2000/svg">
<path d="M12.4001 9.70001C12.4001 11.74 8.90015 16 8.90015 16C8.90015 16 5.40015 11.75 5.40015 9.70001C5.37439 9.22393 5.44581 8.74758 5.61011 8.30001C5.78022 7.8553 6.03491 7.44778 6.36011 7.10001C6.68714 6.75505 7.08101 6.48031 7.5177 6.29257C7.9544 6.10482 8.42481 6.008 8.90015 6.008C9.37549 6.008 9.84584 6.10482 10.2825 6.29257C10.7192 6.48031 11.1131 6.75505 11.4401 7.10001C11.7654 7.44775 12.0201 7.85528 12.1901 8.30001C12.3544 8.74758 12.4259 9.22393 12.4001 9.70001V9.70001Z" stroke="#56596A" stroke-linecap="round" stroke-linejoin="round"/>
<path d="M8.89987 10.32C9.01554 10.3198 9.12754 10.2795 9.21683 10.206C9.30611 10.1324 9.36712 10.0302 9.3895 9.91674C9.41187 9.80326 9.39426 9.68553 9.33957 9.58361C9.28488 9.48169 9.1965 9.40188 9.08957 9.35778C8.98264 9.31368 8.86378 9.30801 8.75314 9.34175C8.64251 9.37549 8.54695 9.44654 8.48282 9.5428C8.41869 9.63906 8.38991 9.75458 8.4014 9.86968C8.41289 9.98477 8.46398 10.0923 8.54587 10.174C8.59239 10.2204 8.6476 10.2572 8.70834 10.2822C8.76909 10.3073 8.83417 10.3201 8.89987 10.32V10.32Z" stroke="#56596A" stroke-linecap="round" stroke-linejoin="round"/>
<path d="M4.5 17L6.5 19L4.5 21" stroke="#56596A" stroke-linecap="round" stroke-linejoin="round"/>
<path d="M14.5 1L12.5 3L14.5 5" stroke="#56596A" stroke-linecap="round" stroke-linejoin="round"/>
<path d="M12.5 19H15C15.5293 18.9963 16.0359 18.7844 16.4102 18.4102C16.7844 18.0359 16.9963 17.5293 17 17V5C16.9963 4.4707 16.7844 3.96412 16.4102 3.58984C16.0359 3.21556 15.5293 3.00367 15 3H12.5" stroke="#56596A" stroke-linecap="round" stroke-linejoin="round"/>
<path d="M5 3H3C2.4707 3.00367 1.96412 3.21556 1.58984 3.58984C1.21556 3.96412 1.00367 4.4707 1 5V17C1.00367 17.5293 1.21556 18.0359 1.58984 18.4102C1.96412 18.7844 2.4707 18.9963 3 19H6.5" stroke="#56596A" stroke-linecap="round" stroke-linejoin="round"/>
</svg>
