<svg width="24" height="24" viewBox="0 0 24 24" fill="none" xmlns="http://www.w3.org/2000/svg">
<path d="M1.49805 12.0001C1.49805 9.92336 2.11431 7.89328 3.26807 6.16657C4.42182 4.43985 6.06136 3.0941 7.97998 2.29938C9.8986 1.50466 12.0101 1.29658 14.0469 1.70172C16.0837 2.10687 17.9544 3.10681 19.4229 4.57526C20.8913 6.04371 21.8912 7.91492 22.2964 9.95172C22.7015 11.9885 22.4939 14.0995 21.6992 16.0181C20.9045 17.9368 19.5583 19.5768 17.8315 20.7305C16.1048 21.8843 14.0748 22.5001 11.998 22.5001C9.21425 22.4969 6.54559 21.3894 4.57715 19.421C2.6087 17.4525 1.50122 14.7839 1.49805 12.0001ZM2.49805 12.0001C2.49805 13.879 3.05525 15.7156 4.09912 17.2779C5.14299 18.8402 6.62689 20.0579 8.36279 20.7769C10.0987 21.4959 12.0087 21.684 13.8516 21.3174C15.6944 20.9509 17.3872 20.0459 18.7158 18.7173C20.0444 17.3887 20.9494 15.6959 21.3159 13.8531C21.6825 12.0103 21.4939 10.1002 20.7749 8.36432C20.0559 6.62842 18.8386 5.14501 17.2764 4.10114C15.7141 3.05726 13.877 2.50006 11.998 2.50006C9.47964 2.5035 7.06585 3.50532 5.28516 5.28619C3.50446 7.06707 2.50269 9.48165 2.49951 12.0001H2.49805ZM11.998 16.0001C11.998 15.6045 12.1157 15.2176 12.3354 14.8887C12.5552 14.5598 12.8675 14.3038 13.2329 14.1524C13.5984 14.001 14.0007 13.9615 14.3887 14.0386C14.7766 14.1158 15.1329 14.3058 15.4126 14.5855C15.6923 14.8652 15.8828 15.222 15.96 15.6099C16.0371 15.9979 15.9976 16.3997 15.8462 16.7652C15.6948 17.1306 15.4383 17.4429 15.1094 17.6627C14.7805 17.8824 14.3936 18.0001 13.998 18.0001C13.4676 18.0001 12.9591 17.7892 12.584 17.4141C12.2089 17.0391 11.998 16.5305 11.998 16.0001ZM12.998 16.0001C12.998 16.1978 13.0571 16.3913 13.167 16.5557C13.2769 16.7202 13.433 16.8482 13.6157 16.9239C13.7984 16.9996 13.9994 17.0191 14.1934 16.9805C14.3873 16.9419 14.5657 16.8469 14.7056 16.7071C14.8454 16.5672 14.9404 16.3889 14.979 16.1949C15.0176 16.0009 14.9981 15.8 14.9224 15.6172C14.8467 15.4345 14.7182 15.2784 14.5537 15.1685C14.3893 15.0586 14.1958 15.0001 13.998 15.0001C13.7328 15.0001 13.4786 15.1055 13.291 15.293C13.1035 15.4806 12.998 15.7348 12.998 16.0001ZM9.29248 17.9532C9.23265 17.9261 9.17868 17.8874 9.13379 17.8394C9.08889 17.7915 9.05389 17.7349 9.03076 17.6734C9.00764 17.6119 8.99685 17.5467 8.99902 17.481C9.00119 17.4154 9.01632 17.3509 9.04346 17.2911L14.0435 6.29108C14.0685 6.22819 14.106 6.17104 14.1538 6.12311C14.2016 6.07517 14.2585 6.03751 14.3213 6.01227C14.3841 5.98703 14.4514 5.9746 14.519 5.97614C14.5867 5.97767 14.6532 5.993 14.7148 6.02106C14.7764 6.04911 14.8319 6.08917 14.8774 6.13922C14.923 6.18927 14.9578 6.24812 14.98 6.31207C15.0022 6.37602 15.0111 6.44377 15.0063 6.51129C15.0016 6.57881 14.9831 6.64496 14.9521 6.70514L9.95215 17.7051C9.9122 17.7925 9.84795 17.8662 9.76709 17.918C9.68623 17.9698 9.59212 17.9974 9.49609 17.9971C9.42459 17.9989 9.35357 17.9849 9.28809 17.9561L9.29248 17.9532ZM7.99951 7.99908C7.99951 7.60352 8.11666 7.21666 8.33643 6.88776C8.55619 6.55886 8.86843 6.3028 9.23389 6.15143C9.59934 6.00005 10.0017 5.96 10.3896 6.03717C10.7776 6.11434 11.1339 6.30483 11.4136 6.58453C11.6933 6.86424 11.8838 7.22099 11.9609 7.60895C12.0381 7.99691 11.9985 8.39877 11.8472 8.76422C11.6958 9.12967 11.4392 9.44192 11.1104 9.66168C10.7815 9.88144 10.3951 9.99908 9.99951 9.99908C9.46925 9.99908 8.96049 9.78849 8.58545 9.41364C8.21041 9.03878 7.99978 8.53032 7.99951 8.00006V7.99908ZM8.99951 7.99908C8.99951 8.19687 9.05809 8.3903 9.16797 8.55475C9.27785 8.7192 9.43397 8.84723 9.6167 8.92291C9.79943 8.9986 10.0004 9.01814 10.1943 8.97955C10.3883 8.94097 10.5667 8.84597 10.7065 8.70612C10.8464 8.56626 10.9414 8.38789 10.98 8.19391C11.0186 7.99993 10.999 7.799 10.9233 7.61627C10.8477 7.43355 10.7191 7.27742 10.5547 7.16754C10.3902 7.05766 10.1973 6.99908 9.99951 6.99908C9.86802 6.99895 9.73772 7.02451 9.61621 7.07477C9.4947 7.12503 9.38399 7.19908 9.29102 7.29205C9.19804 7.38503 9.12448 7.49525 9.07422 7.61676C9.02396 7.73827 8.99792 7.86857 8.99805 8.00006L8.99951 7.99908Z" fill="#56596A"/>
</svg>
