<svg width="24" height="24" viewBox="0 0 24 24" fill="none" xmlns="http://www.w3.org/2000/svg">
<path d="M1.49805 12.0001C1.49805 9.92336 2.11431 7.89328 3.26807 6.16657C4.42182 4.43985 6.06136 3.0941 7.97998 2.29938C9.8986 1.50466 12.0101 1.29658 14.0469 1.70172C16.0837 2.10687 17.9544 3.10681 19.4229 4.57526C20.8913 6.04371 21.8912 7.91492 22.2964 9.95172C22.7015 11.9885 22.4939 14.0995 21.6992 16.0181C20.9045 17.9368 19.5583 19.5768 17.8315 20.7305C16.1048 21.8843 14.0748 22.5001 11.998 22.5001C9.21425 22.4969 6.54559 21.3894 4.57715 19.421C2.6087 17.4525 1.50122 14.7839 1.49805 12.0001ZM2.49805 12.0001C2.49805 13.879 3.05525 15.7156 4.09912 17.2779C5.14299 18.8402 6.62689 20.0579 8.36279 20.7769C10.0987 21.4959 12.0087 21.684 13.8516 21.3174C15.6944 20.9509 17.3872 20.0459 18.7158 18.7173C20.0444 17.3887 20.9494 15.6959 21.3159 13.8531C21.6825 12.0103 21.4939 10.1002 20.7749 8.36432C20.0559 6.62842 18.8386 5.14501 17.2764 4.10114C15.7141 3.05726 13.877 2.50006 11.998 2.50006C9.47964 2.5035 7.06585 3.50532 5.28516 5.28619C3.50446 7.06707 2.50269 9.48165 2.49951 12.0001H2.49805ZM15.2173 18.5001C12.6897 18.3435 10.3067 17.2685 8.5166 15.4771C6.72655 13.6858 5.65276 11.3017 5.49805 8.77399C5.47623 8.4784 5.519 8.18158 5.62256 7.90387C5.72612 7.62616 5.88812 7.37423 6.09814 7.1651L7.1582 6.10211C7.54491 5.71892 8.06741 5.50397 8.61182 5.50397C9.15623 5.50397 9.67872 5.71892 10.0654 6.10211L10.5034 6.53912C10.8853 6.92629 11.0991 7.44791 11.0991 7.99176C11.0991 8.53561 10.8853 9.05771 10.5034 9.44489L10.2534 9.69977C10.092 9.86433 9.98774 10.0764 9.95605 10.3047C9.92437 10.5331 9.96667 10.7655 10.0771 10.9678C10.7354 12.1847 11.7249 13.1901 12.9312 13.8677C13.168 13.9939 13.4394 14.04 13.7046 13.9991C13.9698 13.9582 14.2146 13.8328 14.4023 13.6412L14.5503 13.4942C14.9362 13.1099 15.4588 12.8936 16.0034 12.8936C16.5481 12.8936 17.0702 13.1099 17.4561 13.4942L17.8931 13.9297C18.2762 14.3163 18.4912 14.8386 18.4912 15.3829C18.4912 15.9271 18.2762 16.4495 17.8931 16.836L16.8354 17.8941C16.6438 18.0891 16.4149 18.2434 16.1626 18.3487C15.9103 18.454 15.6396 18.5078 15.3662 18.5069C15.3202 18.4999 15.2693 18.5001 15.2183 18.5001H15.2173ZM7.86328 6.81207L6.8042 7.87116C6.69614 7.97942 6.61288 8.10961 6.55957 8.25299C6.50626 8.39637 6.48404 8.54915 6.49512 8.70172C6.63241 10.9897 7.60291 13.1487 9.22314 14.7701C10.8434 16.3914 13.0011 17.3632 15.2891 17.502C15.4431 17.5146 15.5981 17.4927 15.7427 17.438C15.8873 17.3834 16.0183 17.2975 16.1255 17.1861L17.1865 16.127C17.3824 15.9275 17.4917 15.659 17.4917 15.3795C17.4917 15.0999 17.3824 14.8314 17.1865 14.6319L16.7505 14.1959C16.5516 13.9988 16.2829 13.8882 16.0029 13.8882C15.723 13.8882 15.4542 13.9988 15.2554 14.1959L15.1123 14.3399C14.7706 14.6858 14.326 14.9118 13.8452 14.9839C13.3644 15.0561 12.8734 14.9702 12.4453 14.7398C11.0737 13.9717 9.94785 12.8306 9.19824 11.4488C8.98553 11.0577 8.90407 10.6089 8.96582 10.168C9.02757 9.72713 9.22953 9.31767 9.5415 9.00006L9.78809 8.74518C9.98613 8.54611 10.0977 8.27695 10.0986 7.99616C10.0996 7.71536 9.99017 7.44556 9.79346 7.24518L9.35742 6.80914C9.15855 6.61208 8.88984 6.50153 8.60986 6.50153C8.32989 6.50153 8.06118 6.61208 7.8623 6.80914L7.86328 6.81207ZM9.90723 9.35016H9.89844H9.90723Z" fill="#56596A"/>
</svg>
