<svg width="24" height="24" viewBox="0 0 24 24" fill="none" xmlns="http://www.w3.org/2000/svg">
<path d="M11.7886 22.499C9.36848 22.4444 7.04115 21.5575 5.19828 19.9878C3.35541 18.4181 2.10987 16.2615 1.67093 13.8809C1.6629 13.8521 1.65743 13.8227 1.65482 13.793C1.41177 12.3871 1.45524 10.9467 1.78275 9.55811C1.81024 9.44399 1.87689 9.34279 1.97123 9.27295C2.06557 9.20311 2.1817 9.16876 2.29886 9.17578C2.36593 9.17916 2.43147 9.19646 2.49173 9.22607C3.32021 9.62539 4.25787 9.73754 5.15726 9.54541C6.05665 9.35328 6.86699 8.86752 7.46 8.16455C8.053 7.46158 8.3953 6.5815 8.43314 5.6626C8.47099 4.74369 8.20217 3.83822 7.66898 3.08887C7.64347 3.05299 7.62262 3.01429 7.60697 2.97314V2.96289V2.95215C7.57944 2.86764 7.5748 2.77726 7.59379 2.69043C7.61277 2.6036 7.65459 2.52332 7.71488 2.45801L7.72757 2.44385L7.73392 2.43799L7.74271 2.42969L7.75492 2.41895L7.78666 2.39307L7.81058 2.37695H7.81791H7.82279C7.84155 2.36589 7.86102 2.35609 7.88089 2.34717C8.49091 2.08802 9.12418 1.88703 9.77201 1.74707C9.87904 1.71537 9.99336 1.72027 10.0972 1.76123C10.201 1.80219 10.2882 1.87692 10.3448 1.97314C10.9726 3.04604 11.3026 4.26669 11.3008 5.50977C11.3008 5.67577 11.3007 5.84077 11.2837 6.00977H14.607C14.0891 5.48114 13.4011 5.15217 12.6646 5.08008C12.5457 5.06156 12.4376 5.00053 12.3599 4.90869C12.2822 4.81685 12.2403 4.70036 12.2417 4.58008C12.147 3.77687 11.9207 2.99479 11.5718 2.26514C11.5263 2.18925 11.5016 2.10262 11.5005 2.01416C11.4995 1.9257 11.5218 1.8382 11.5655 1.76123C11.6091 1.68426 11.6726 1.62022 11.7491 1.57568C11.8255 1.53115 11.9125 1.50779 12.001 1.50781C13.3812 1.50899 14.7473 1.78218 16.022 2.31152C17.2967 2.84087 18.4547 3.61587 19.4297 4.59277C20.4048 5.56967 21.1782 6.72919 21.7051 8.00488C22.232 9.28058 22.5025 10.6476 22.501 12.0278C22.4997 12.8751 22.3965 13.7193 22.1939 14.542C22.1669 14.6504 22.1042 14.7467 22.0161 14.8154C21.9281 14.8841 21.8197 14.9211 21.708 14.9209C21.6677 14.9206 21.6273 14.9158 21.5879 14.9067C21.5598 14.8998 21.5324 14.8906 21.5059 14.8789L21.4927 14.873L21.4707 14.8618C20.6426 14.4163 19.6877 14.266 18.7627 14.4351C17.8377 14.6041 16.9979 15.0825 16.3809 15.792C15.7638 16.5015 15.4063 17.3999 15.3672 18.3394C15.3282 19.2789 15.6095 20.2036 16.1656 20.9619C16.1782 20.9782 16.1901 20.995 16.2007 21.0127L16.209 21.0269C16.2302 21.0656 16.2462 21.107 16.2569 21.1499C16.2849 21.2666 16.27 21.3894 16.2149 21.4961C16.1598 21.6028 16.068 21.6863 15.9566 21.731C15.3373 21.9825 14.6954 22.1741 14.0396 22.3037C13.9973 22.3156 13.9537 22.3217 13.9097 22.3218C13.8321 22.3218 13.7555 22.3038 13.6861 22.269C13.6166 22.2343 13.5564 22.1842 13.5098 22.1221C13.4952 22.1028 13.4821 22.0824 13.4707 22.061C12.8345 20.9845 12.4997 19.7564 12.501 18.5059C12.501 18.3399 12.5066 18.1729 12.5186 18.0059H9.189C9.70803 18.5355 10.3968 18.8656 11.1348 18.938C11.2521 18.957 11.3586 19.0169 11.4356 19.1074C11.5125 19.1979 11.5548 19.3133 11.5547 19.4321C11.651 20.2451 11.8822 21.0361 12.2388 21.7729C12.2756 21.8429 12.2954 21.9205 12.2964 21.9995C12.2974 22.0785 12.2797 22.1567 12.2447 22.2275C12.2096 22.2984 12.1582 22.3601 12.0948 22.4072C12.0313 22.4544 11.9578 22.4858 11.8799 22.499V22.499H11.857H11.8516H11.8306H11.7979H11.7886ZM11.023 21.4497C10.8317 20.9314 10.692 20.3958 10.606 19.8501C9.03199 19.4961 8.00004 18.582 8.00004 17.501C8.00004 17.3684 8.05226 17.2412 8.14603 17.1475C8.2398 17.0537 8.36743 17.001 8.50004 17.001H13.0948H13.1548C13.2856 17.0214 13.4028 17.0929 13.481 17.1997C13.5592 17.3066 13.5919 17.4399 13.5718 17.5708C13.5246 17.8769 13.5011 18.1864 13.501 18.4961C13.4996 19.4533 13.7283 20.3968 14.168 21.2471C14.453 21.1811 14.7337 21.0998 15.0127 21.0068C14.4972 20.0836 14.2787 19.024 14.3868 17.9722C14.4948 16.9203 14.9243 15.9275 15.6167 15.1284C16.3092 14.3293 17.2311 13.7625 18.2569 13.5059C19.2826 13.2492 20.3625 13.315 21.3496 13.6938C21.4497 13.1394 21.5003 12.5775 21.5 12.0142C21.5005 11.5902 21.4731 11.1665 21.418 10.7461H17.2837L15.3286 14.002C15.2846 14.0763 15.222 14.1377 15.147 14.1807C15.072 14.2236 14.9873 14.2467 14.9009 14.2471H10.9009C10.8122 14.2474 10.7247 14.2237 10.648 14.1792C10.5713 14.1347 10.5082 14.0708 10.4644 13.9937C10.4206 13.9165 10.3978 13.8289 10.399 13.7402C10.4001 13.6515 10.425 13.5647 10.4707 13.4888L12.1177 10.7461H9.38871L7.44486 13.9839C7.4109 14.0467 7.3636 14.1014 7.30668 14.1445C7.24975 14.1877 7.18445 14.2182 7.11478 14.2339L7.07279 14.2417H2.77298C3.24003 16.1461 4.28284 17.8605 5.75931 19.1509C7.23579 20.4413 9.07412 21.2453 11.024 21.4531L11.023 21.4497ZM12.9986 9.75C13.087 9.74991 13.1741 9.77297 13.2505 9.81738C13.327 9.86179 13.3904 9.92609 13.4341 10.0029C13.4778 10.0798 13.5 10.1665 13.4991 10.2549C13.4982 10.3433 13.474 10.4299 13.4287 10.5059L11.7818 13.249H14.6167L16.5718 9.99316C16.6157 9.91878 16.6784 9.85709 16.7535 9.81445C16.8286 9.77182 16.9137 9.74956 17 9.75H21.23C20.7538 7.81233 19.6809 6.0731 18.1631 4.77783C16.6454 3.48256 14.7595 2.69642 12.771 2.53076C12.9652 3.05545 13.1068 3.59823 13.1939 4.15088C14.7639 4.50188 15.794 5.41612 15.794 6.49512C15.794 6.62773 15.7413 6.75486 15.6475 6.84863C15.5537 6.9424 15.4266 6.99512 15.294 6.99512H15.253H10.7608H10.7188C10.6933 6.99544 10.6676 6.99277 10.6426 6.98779C10.5777 6.97791 10.5157 6.95539 10.4595 6.92139C10.4033 6.88738 10.3539 6.84249 10.315 6.78955C10.2761 6.73661 10.2481 6.67659 10.2325 6.61279C10.2168 6.54899 10.2137 6.48291 10.2237 6.41797C10.2703 6.11252 10.2941 5.80411 10.294 5.49512C10.2958 4.55398 10.0751 3.62576 9.64994 2.78613C9.36694 2.85813 9.08802 2.94204 8.81302 3.04004C9.30473 3.94957 9.51089 4.98617 9.40482 6.01465C9.29875 7.04313 8.88528 8.01563 8.2183 8.80566C7.55132 9.5957 6.66169 10.1663 5.66556 10.4434C4.66944 10.7204 3.61294 10.6911 2.63382 10.3589C2.55154 10.83 2.50522 11.307 2.49564 11.7852C2.48536 12.2725 2.51249 12.7599 2.5767 13.2432H6.71195L8.66459 9.98682C8.70891 9.91284 8.77172 9.85166 8.84671 9.80908C8.92171 9.7665 9.00657 9.7443 9.09281 9.74414L12.9986 9.75ZM17.4278 20.8848H17.3946H17.3809H17.3638H17.357C17.2518 20.865 17.1559 20.8122 17.083 20.7339C16.5333 20.1422 16.2204 19.369 16.2046 18.5615C16.1889 17.754 16.4709 16.9686 16.9971 16.356C17.5233 15.7433 18.257 15.346 19.0577 15.2397C19.8583 15.1335 20.6701 15.3256 21.3379 15.7798C21.4421 15.844 21.519 15.9443 21.5542 16.0615C21.5894 16.1787 21.5804 16.305 21.5288 16.416C20.7005 18.2002 19.3892 19.717 17.7437 20.7949C17.6919 20.8327 17.6337 20.8605 17.5718 20.877H17.5577H17.5498H17.5386H17.5196H17.4278V20.8848ZM17.9336 16.814C17.5432 17.1762 17.2919 17.6633 17.2227 18.1914C17.1535 18.7195 17.2708 19.2554 17.5547 19.7061C18.7539 18.8412 19.7354 17.7089 20.4209 16.3989C20.0118 16.2145 19.557 16.1556 19.1143 16.2295C18.6716 16.3034 18.2607 16.5067 17.9336 16.814V16.814ZM2.62162 8.3291C2.51568 8.26519 2.43679 8.1645 2.39994 8.04639C2.36308 7.92827 2.37111 7.80081 2.42191 7.68799C3.22909 5.90363 4.51776 4.37994 6.14359 3.28809V3.28809L6.15482 3.28076H6.16068L6.17191 3.27393H6.17679L6.19877 3.26172H6.2056H6.2139H6.22464H6.23197L6.24564 3.25684L6.26273 3.25098C6.34711 3.22485 6.43691 3.22136 6.52298 3.24121C6.60905 3.26106 6.68855 3.30333 6.75296 3.36377V3.36377L6.76957 3.38086L6.78275 3.39502L6.78861 3.40088C7.29283 3.99385 7.57055 4.74654 7.57181 5.5249C7.57307 6.30326 7.29774 7.05677 6.79545 7.65137C6.29315 8.24596 5.59628 8.64315 4.82865 8.77197C4.06102 8.9008 3.27293 8.75302 2.60404 8.35498L2.62162 8.3291ZM5.7847 7.24609C6.18605 6.90404 6.45722 6.43382 6.55179 5.91504C6.64637 5.39626 6.55857 4.8606 6.30375 4.39893C5.14958 5.26385 4.20704 6.37975 3.54691 7.66211C3.92428 7.79499 4.32978 7.82624 4.72318 7.75342C5.11658 7.6806 5.48381 7.50622 5.78861 7.24707L5.7847 7.24609Z" fill="#56596A"/>
</svg>
