<svg width="24" height="24" viewBox="0 0 24 24" fill="none" xmlns="http://www.w3.org/2000/svg">
<path d="M15.3992 22.4941C15.3303 22.4941 15.2622 22.4798 15.1991 22.4521L11.9992 21.0521C11.9351 21.0236 11.8658 21.0089 11.7957 21.0089C11.7255 21.0089 11.6562 21.0236 11.5922 21.0521L8.54212 22.4441C8.4658 22.4782 8.38221 22.493 8.29883 22.4871C8.21545 22.4811 8.13482 22.4547 8.06409 22.4102C7.99354 22.3649 7.93558 22.3026 7.89539 22.229C7.8552 22.1554 7.83408 22.073 7.83411 21.9891V20.1361C7.83492 19.8022 7.94642 19.4779 8.15113 19.2141L9.48414 17.5051C9.55029 17.4169 9.58542 17.3093 9.58411 17.1991V15.9471C9.58423 15.8814 9.57144 15.8164 9.54639 15.7556C9.52134 15.6949 9.48452 15.6397 9.43811 15.5931C9.34449 15.5003 9.21805 15.4481 9.08619 15.4481C9.04099 15.4482 8.99594 15.4539 8.95215 15.4651L3.13013 17.0652C3.05582 17.0856 2.97786 17.0885 2.90223 17.0737C2.82659 17.059 2.75531 17.0269 2.6941 16.9801C2.632 16.9335 2.58159 16.8731 2.54688 16.8037C2.51217 16.7343 2.49415 16.6578 2.49415 16.5802V14.7091C2.49354 14.4587 2.5559 14.2123 2.67542 13.9923C2.79494 13.7723 2.96773 13.5859 3.1781 13.4502L8.69617 9.87219C8.76499 9.82887 8.82188 9.76902 8.8617 9.69812C8.90152 9.62722 8.92303 9.5475 8.9242 9.46619C8.9762 6.48919 9.41609 1.49219 11.7831 1.49219C14.0251 1.49219 14.5631 5.81812 14.6191 9.44812C14.6203 9.53166 14.6428 9.61348 14.6847 9.68579C14.7265 9.75811 14.7863 9.81858 14.8582 9.86121L20.7711 13.4441C20.9911 13.5782 21.1729 13.7665 21.2993 13.991C21.4257 14.2154 21.4925 14.4686 21.4932 14.7262V16.5791C21.4939 16.6562 21.4767 16.7325 21.443 16.8019C21.4093 16.8713 21.3602 16.9319 21.2992 16.9791C21.2385 17.0255 21.1681 17.0577 21.0933 17.0731C21.0185 17.0885 20.9413 17.0868 20.8672 17.0681L14.6191 15.4431C14.5558 15.4253 14.4894 15.4207 14.4242 15.4297C14.359 15.4386 14.2963 15.4609 14.2401 15.4951C14.1257 15.5621 14.0427 15.6719 14.0092 15.8002C13.9988 15.8414 13.9934 15.8837 13.9932 15.9261V17.1742C13.993 17.292 14.0344 17.4059 14.1101 17.4961L15.5402 19.1891C15.7682 19.4597 15.8933 19.8022 15.8932 20.1561V21.9901C15.8932 22.0731 15.8725 22.1547 15.833 22.2277C15.7936 22.3006 15.7365 22.3627 15.6671 22.4082C15.5879 22.4619 15.4949 22.4917 15.3992 22.4941V22.4941ZM11.7992 20.0101C12.0059 20.0103 12.2102 20.0536 12.3992 20.1372L14.8992 21.2291V20.1602C14.899 20.0423 14.8572 19.9282 14.7811 19.8381L13.3532 18.1451C13.1243 17.8749 12.9988 17.5322 12.9992 17.1781V15.9302C12.9989 15.8022 13.0153 15.6748 13.0481 15.5511C13.0974 15.3605 13.184 15.1816 13.3027 15.0245C13.4215 14.8675 13.5701 14.7355 13.7401 14.6361C13.91 14.536 14.0981 14.4706 14.2935 14.4436C14.4888 14.4167 14.6875 14.4287 14.8782 14.4791L20.4991 15.9412V14.7351C20.4991 14.6493 20.4771 14.565 20.4351 14.4902C20.393 14.4155 20.3324 14.3527 20.2592 14.3081L14.3472 10.7262C14.1298 10.5962 13.9494 10.4126 13.823 10.1931C13.6966 9.97361 13.6285 9.72543 13.6251 9.47217C13.5621 5.37217 12.8072 2.5011 11.7892 2.5011C10.7712 2.5011 10.0022 5.37714 9.93018 9.49414C9.92606 9.73954 9.86128 9.98006 9.74158 10.1943C9.62188 10.4086 9.45095 10.59 9.24414 10.7222L3.72815 14.2981C3.65825 14.3434 3.60074 14.4056 3.56092 14.4788C3.5211 14.5519 3.50022 14.6339 3.50013 14.7172V15.9331L8.69117 14.5042C8.8216 14.4691 8.95614 14.4517 9.09119 14.4521V14.4521C9.28748 14.4517 9.48193 14.4901 9.66333 14.5651C9.84474 14.6401 10.0095 14.7502 10.1482 14.8892C10.2882 15.0282 10.3992 15.1937 10.4747 15.376C10.5503 15.5583 10.5888 15.7538 10.5881 15.9512V17.2021C10.5879 17.536 10.4767 17.8603 10.2721 18.1241L8.93811 19.8331C8.87222 19.9218 8.83713 20.0296 8.83814 20.1401V21.2151L11.1812 20.1461C11.375 20.057 11.5858 20.0106 11.7992 20.0101V20.0101Z" fill="#56596A"/>
</svg>
