<svg width="24" height="24" viewBox="0 0 24 24" fill="none" xmlns="http://www.w3.org/2000/svg">
<path d="M11.502 22V12.5H2.00195C1.86934 12.5 1.74172 12.4473 1.64795 12.3535C1.55418 12.2597 1.50195 12.1326 1.50195 12C1.50195 11.8674 1.55418 11.7403 1.64795 11.6465C1.74172 11.5527 1.86934 11.5 2.00195 11.5H11.502V2C11.502 1.86739 11.5542 1.74025 11.6479 1.64648C11.7417 1.55272 11.8693 1.5 12.002 1.5C12.1346 1.5 12.2617 1.55272 12.3555 1.64648C12.4492 1.74025 12.502 1.86739 12.502 2V11.5H22.002C22.1346 11.5 22.2617 11.5527 22.3555 11.6465C22.4492 11.7403 22.502 11.8674 22.502 12C22.502 12.1326 22.4492 12.2597 22.3555 12.3535C22.2617 12.4473 22.1346 12.5 22.002 12.5H12.502V22C12.502 22.1326 12.4492 22.2597 12.3555 22.3535C12.2617 22.4473 12.1346 22.5 12.002 22.5C11.8693 22.5 11.7417 22.4473 11.6479 22.3535C11.5542 22.2597 11.502 22.1326 11.502 22Z" fill="#56596A"/>
</svg>
