<svg width="24" height="24" viewBox="0 0 24 24" fill="none" xmlns="http://www.w3.org/2000/svg">
<path d="M10.782 11.262C14.5247 8.84862 18.264 6.42862 22 4.00195C21.984 5.01995 21.98 6.22695 21.046 6.88795C18.007 8.93895 14.977 11.003 11.921 13.029C11.515 12.457 11.17 11.844 10.782 11.262Z" fill="#56596A"/>
<path d="M12.28 13.522C15.087 11.753 17.88 9.96097 20.696 8.20197C20.7791 9.04382 20.5766 9.88917 20.121 10.602C17.869 12.135 15.593 13.635 13.328 15.15C12.989 14.6 12.632 14.062 12.28 13.522Z" fill="#56596A"/>
<path d="M2 10.338C2.52651 9.61355 3.31665 9.1251 4.2 8.97795C4.85019 8.94197 5.50038 9.04864 6.10499 9.29048C6.7096 9.53233 7.25399 9.90349 7.7 10.378C9.811 12.202 11.062 14.709 12.533 17.007C12.7276 17.3138 12.9991 17.5643 13.3204 17.7338C13.6418 17.9032 14.0019 17.9857 14.365 17.973C14.765 18.618 15.157 19.273 15.551 19.926C14.4846 20.1401 13.3766 19.9516 12.441 19.397C11.4837 18.6809 10.6892 17.7698 10.11 16.724C8.955 15.016 7.863 13.266 6.648 11.599C6.35494 11.1538 5.96512 10.7806 5.50764 10.5072C5.05017 10.2338 4.53686 10.0672 4.006 10.02C3.43591 10.0609 2.8712 10.1577 2.32 10.309C3.13135 10.2175 3.95287 10.3154 4.72 10.595C5.58836 11.1058 6.31322 11.8283 6.827 12.695C8.2591 15.1939 9.95115 17.5345 11.875 19.678C10.8619 19.4898 9.90175 19.0837 9.061 18.488C6.096 16.295 5.335 12.156 2 10.338Z" fill="#56596A"/>
<path d="M13.776 15.7839C15.5367 14.6206 17.2963 13.4539 19.055 12.2839C19.1883 12.6649 19.2292 13.0721 19.1743 13.472C19.1194 13.8719 18.9702 14.253 18.739 14.5839C17.439 15.4839 16.075 16.2979 14.753 17.1699C14.4303 16.7053 14.1047 16.2433 13.776 15.7839Z" fill="#56596A"/>
<path d="M15.16 17.7719C15.884 17.2719 16.622 16.7829 17.351 16.2859C18.033 17.4859 18.756 18.659 19.458 19.845C18.475 19.822 17.491 19.827 16.508 19.84C16.05 19.154 15.615 18.4579 15.16 17.7719Z" fill="#56596A"/>
</svg>
