<svg width="24" height="24" viewBox="0 0 24 24" fill="none" xmlns="http://www.w3.org/2000/svg">
<path d="M1.49805 12.0001C1.49805 9.92336 2.11431 7.89328 3.26807 6.16657C4.42182 4.43985 6.06136 3.0941 7.97998 2.29938C9.8986 1.50466 12.0101 1.29658 14.0469 1.70172C16.0837 2.10687 17.9544 3.10681 19.4229 4.57526C20.8913 6.04371 21.8912 7.91492 22.2964 9.95172C22.7015 11.9885 22.4939 14.0995 21.6992 16.0181C20.9045 17.9368 19.5583 19.5768 17.8315 20.7305C16.1048 21.8843 14.0748 22.5001 11.998 22.5001C9.21425 22.4969 6.54559 21.3894 4.57715 19.421C2.6087 17.4525 1.50122 14.7839 1.49805 12.0001ZM2.49805 12.0001C2.49805 13.879 3.05525 15.7156 4.09912 17.2779C5.14299 18.8402 6.62689 20.0579 8.36279 20.7769C10.0987 21.4959 12.0087 21.684 13.8516 21.3174C15.6944 20.9509 17.3872 20.0459 18.7158 18.7173C20.0444 17.3887 20.9494 15.6959 21.3159 13.8531C21.6825 12.0103 21.4939 10.1002 20.7749 8.36432C20.0559 6.62842 18.8386 5.14501 17.2764 4.10114C15.7141 3.05726 13.877 2.50006 11.998 2.50006C9.47964 2.5035 7.06585 3.50532 5.28516 5.28619C3.50446 7.06707 2.50269 9.48165 2.49951 12.0001H2.49805ZM12.6455 15.3541L9.64551 12.3541C9.59894 12.3076 9.56183 12.2522 9.53662 12.1915C9.51141 12.1307 9.49854 12.0658 9.49854 12.0001C9.49854 11.9343 9.51141 11.8689 9.53662 11.8082C9.56183 11.7474 9.59894 11.6925 9.64551 11.6461L12.6455 8.64606C12.7394 8.5523 12.8663 8.49948 12.999 8.49957C13.1317 8.49967 13.2588 8.55266 13.3525 8.64655C13.4463 8.74043 13.4991 8.86787 13.499 9.00055C13.4989 9.13323 13.4459 9.26031 13.3521 9.35407L10.7041 12.0001L13.3521 14.6461C13.4222 14.716 13.4704 14.8052 13.4897 14.9024C13.5091 14.9996 13.499 15.1004 13.4609 15.192C13.4229 15.2835 13.3584 15.3617 13.2759 15.4166C13.1933 15.4714 13.0962 15.5004 12.9971 15.5001C12.9319 15.5004 12.8674 15.4878 12.8071 15.463C12.7469 15.4381 12.6924 15.4013 12.6465 15.355L12.6455 15.3541Z" fill="#56596A"/>
</svg>
