<svg width="24" height="25" viewBox="0 0 24 25" fill="none" xmlns="http://www.w3.org/2000/svg">
<path d="M21.35 24.0015H3.05C2.89254 24.0091 2.7351 23.9857 2.58669 23.9325C2.43829 23.8793 2.30182 23.7974 2.18508 23.6914C2.06835 23.5854 1.97364 23.4575 1.90636 23.3149C1.83909 23.1724 1.80056 23.0179 1.793 22.8605V10.8605H9.835V11.7834H2.716V22.8605C2.716 22.9605 2.859 23.0785 3.05 23.0785H21.35C21.541 23.0785 21.684 22.9645 21.684 22.8605V11.7834H14.576V10.8605H22.608V22.8605C22.6004 23.018 22.5619 23.1725 22.4946 23.3152C22.4272 23.4578 22.3324 23.5858 22.2156 23.6918C22.0987 23.7977 21.9621 23.8797 21.8136 23.9328C21.6651 23.9859 21.5076 24.0093 21.35 24.0015V24.0015Z" fill="#56596A"/>
<path d="M22.756 11.7834H14.532V10.8604H22.756C22.944 10.8604 23.076 10.7455 23.076 10.6435V7.25046C23.076 7.15046 22.944 7.03247 22.756 7.03247H1.242C1.054 7.03247 0.923004 7.14646 0.923004 7.25046V10.6435C0.923004 10.7435 1.054 10.8604 1.242 10.8604H9.873V11.7834H1.242C0.926682 11.7949 0.619546 11.6817 0.387093 11.4683C0.154639 11.2549 0.0155694 10.9586 0 10.6435V7.25046C0.0153149 6.93513 0.154275 6.63856 0.386757 6.42499C0.619239 6.21141 0.926517 6.09804 1.242 6.10947H22.756C23.0717 6.09778 23.3792 6.21102 23.6119 6.42462C23.8446 6.63822 23.9837 6.93496 23.999 7.25046V10.6435C23.9834 10.9588 23.8442 11.2553 23.6116 11.4687C23.3789 11.682 23.0715 11.7951 22.756 11.7834V11.7834Z" fill="#56596A"/>
<path d="M15.047 24.0015H9.34701V6.1095H15.047V24.0015ZM10.273 23.0785H14.128V7.0325H10.277L10.273 23.0785Z" fill="#56596A"/>
<path d="M11.455 6.79848C11.0725 6.78996 10.6911 6.75318 10.314 6.68846C7.597 6.26746 5.451 5.93546 4.83 4.36946C4.6876 3.92429 4.64863 3.45251 4.71604 2.99001C4.78344 2.5275 4.95546 2.08649 5.219 1.70049C5.46096 1.26013 5.79873 0.879725 6.20738 0.587389C6.61602 0.295053 7.08511 0.0982613 7.58 0.0114918C9.58 -0.175508 11.488 2.36049 12.213 4.01149C12.745 5.22249 12.764 6.13349 12.269 6.57549C12.0368 6.75235 11.745 6.83228 11.455 6.79848V6.79848ZM7.79201 0.925463C7.75001 0.925463 7.71001 0.925475 7.66901 0.931475C7.31767 1.00657 6.98693 1.15743 6.69988 1.37349C6.41284 1.58956 6.17638 1.86563 6.00701 2.18248C5.81891 2.4468 5.69259 2.75 5.63738 3.06969C5.58216 3.38937 5.59946 3.71736 5.68801 4.02947C6.11401 5.10447 8.126 5.41548 10.454 5.77748C10.8539 5.86384 11.2639 5.89344 11.672 5.86547C11.734 5.74447 11.756 5.27148 11.372 4.38448C10.617 2.67348 9.02801 0.924486 7.79201 0.924486V0.925463Z" fill="#56596A"/>
<path d="M12.941 6.79747C12.6511 6.83187 12.3593 6.75228 12.127 6.57548V6.57548C11.632 6.13348 11.653 5.22248 12.183 4.01048C12.909 2.35948 14.807 -0.183519 16.817 0.0104806C17.3117 0.0973209 17.7807 0.294164 18.1891 0.5865C18.5976 0.878836 18.9352 1.25919 19.177 1.69948C19.4405 2.08548 19.6126 2.52652 19.68 2.98903C19.7474 3.45153 19.7084 3.92331 19.566 4.36848C18.945 5.93448 16.8 6.26848 14.083 6.68748C13.7056 6.75221 13.3239 6.78896 12.941 6.79747V6.79747ZM12.724 5.86348C13.1318 5.89214 13.5416 5.8625 13.941 5.77546C16.271 5.41346 18.282 5.10248 18.709 4.02748C18.7978 3.71557 18.8153 3.38767 18.76 3.0681C18.7048 2.74853 18.5783 2.44548 18.39 2.18147C18.2209 1.86431 17.9845 1.58795 17.6975 1.37169C17.4104 1.15543 17.0795 1.00451 16.728 0.929487C15.486 0.801487 13.806 2.61548 13.028 4.38148C12.64 5.26948 12.663 5.74248 12.726 5.86348H12.724Z" fill="#56596A"/>
</svg>
