<svg width="24" height="25" viewBox="0 0 24 25" fill="none" xmlns="http://www.w3.org/2000/svg">
<path d="M12 0.923004C12.7648 0.927954 13.5195 1.09837 14.2122 1.42255C14.9049 1.74672 15.5192 2.21696 16.013 2.80099C18.185 5.38599 16.764 9.51501 15.713 11.337C15.2649 12.1068 14.7078 12.8077 14.059 13.418C13.9328 13.5372 13.8428 13.6896 13.7993 13.8576C13.7558 14.0256 13.7605 14.2026 13.813 14.368C14.0364 15.0807 14.3811 15.7495 14.832 16.345C15.9837 17.6988 17.5594 18.6232 19.303 18.968C20.4274 19.1773 21.4684 19.704 22.303 20.486C22.6508 20.8915 22.903 21.3699 23.041 21.886C23.0812 22.0237 23.0884 22.169 23.0622 22.31C23.036 22.451 22.977 22.5839 22.89 22.698C22.8012 22.8163 22.6859 22.912 22.5534 22.9777C22.4209 23.0433 22.2749 23.077 22.127 23.076H1.877C1.72913 23.077 1.58307 23.0433 1.45056 22.9777C1.31806 22.912 1.20279 22.8163 1.114 22.698C1.027 22.5839 0.968018 22.451 0.94179 22.31C0.915562 22.169 0.922826 22.0237 0.963 21.886C1.101 21.3699 1.35322 20.8915 1.70101 20.486C2.53561 19.704 3.57661 19.1773 4.70101 18.968C6.44461 18.6232 8.02032 17.6988 9.172 16.345C9.62286 15.7495 9.96759 15.0807 10.191 14.368C10.2441 14.2019 10.2489 14.0241 10.2048 13.8554C10.1607 13.6866 10.0696 13.5339 9.942 13.415C9.35368 12.8655 8.84088 12.2404 8.41701 11.556C7.09301 9.407 5.887 5.303 7.989 2.802C8.48248 2.21803 9.09646 1.74774 9.78881 1.4234C10.4812 1.09906 11.2355 0.928366 12 0.923004M12 0C11.1011 0.00766097 10.2143 0.208632 9.39989 0.589264C8.58548 0.969896 7.8625 1.52127 7.28 2.20599C4.819 5.13599 6.154 9.643 7.629 12.039C8.09556 12.7938 8.6609 13.4829 9.31 14.088C9.11858 14.7007 8.82292 15.2758 8.43601 15.788C6.38801 18.478 2.944 17.668 1.004 19.881C0.565942 20.3893 0.247468 20.9893 0.0720086 21.637C-0.00639844 21.9145 -0.0192482 22.2064 0.034472 22.4897C0.0881922 22.773 0.207001 23.04 0.381548 23.2695C0.556095 23.499 0.781599 23.6849 1.04026 23.8123C1.29891 23.9398 1.58364 24.0054 1.872 24.004H22.122C22.4104 24.0054 22.6951 23.9398 22.9538 23.8123C23.2124 23.6849 23.4379 23.499 23.6124 23.2695C23.787 23.04 23.9058 22.773 23.9595 22.4897C24.0133 22.2064 24.0004 21.9145 23.922 21.637C23.7465 20.9893 23.4281 20.3893 22.99 19.881C21.051 17.668 17.607 18.481 15.558 15.788C15.1711 15.2758 14.8754 14.7007 14.684 14.088C15.3974 13.4168 16.0097 12.6458 16.502 11.799C17.802 9.54601 19.165 5.12499 16.713 2.20599C16.1313 1.52211 15.4095 0.971209 14.5963 0.590607C13.7832 0.210004 12.8978 0.00859628 12 0V0Z" fill="#56596A"/>
</svg>
