<svg width="24" height="24" viewBox="0 0 24 24" fill="none" xmlns="http://www.w3.org/2000/svg">
<path d="M2.5 20.1997C2.54241 18.5705 3.21812 17.0223 4.38379 15.8833C5.54946 14.7443 7.11295 14.1048 8.74268 14.1001C8.79768 14.1001 8.84983 14.1001 8.90283 14.1001H15.1099C16.7627 14.0614 18.3636 14.6794 19.5615 15.8188C20.7595 16.9583 21.457 18.526 21.501 20.1787C21.4864 20.7975 21.2311 21.3866 20.7896 21.8203C20.348 22.254 19.7547 22.4985 19.1357 22.502H4.88867C4.26775 22.5095 3.66883 22.2722 3.22168 21.8413C2.77453 21.4104 2.51547 20.8205 2.5 20.1997ZM3.5 20.1997C3.51962 20.5555 3.67638 20.8899 3.9375 21.1323C4.19862 21.3748 4.54363 21.5068 4.8999 21.5H19.0889C19.4497 21.5056 19.7985 21.3707 20.0615 21.1235C20.3245 20.8764 20.4807 20.5363 20.4976 20.1758C20.4534 18.7909 19.8633 17.4797 18.856 16.5283C17.8486 15.577 16.5057 15.0631 15.1206 15.0981H8.75391C7.38695 15.0991 6.07384 15.6321 5.09326 16.5845C4.11269 17.5369 3.54178 18.8334 3.50098 20.1997H3.5ZM7 8.5V6.5C7 5.17392 7.52667 3.90204 8.46436 2.96436C9.40204 2.02667 10.6739 1.5 12 1.5C13.3261 1.5 14.5975 2.02667 15.5352 2.96436C16.4728 3.90204 17 5.17392 17 6.5V8.5C17 9.82608 16.4728 11.098 15.5352 12.0356C14.5975 12.9733 13.3261 13.5 12 13.5C10.6739 13.5 9.40204 12.9733 8.46436 12.0356C7.52667 11.098 7 9.82608 7 8.5ZM8 6.5V8.5C8 9.56087 8.42124 10.578 9.17139 11.3281C9.92153 12.0783 10.9391 12.5 12 12.5C13.0609 12.5 14.078 12.0783 14.8281 11.3281C15.5783 10.578 16 9.56087 16 8.5V6.5C16 5.43913 15.5783 4.42153 14.8281 3.67139C14.078 2.92124 13.0609 2.5 12 2.5C10.9391 2.5 9.92153 2.92124 9.17139 3.67139C8.42124 4.42153 8 5.43913 8 6.5Z" fill="#56596A"/>
</svg>
