<svg width="24" height="24" viewBox="0 0 24 24" fill="none" xmlns="http://www.w3.org/2000/svg">
<path d="M16 22.5C15.8674 22.5 15.7403 22.4473 15.6465 22.3535C15.5527 22.2597 15.5 22.1326 15.5 22C15.5 21.8674 15.5527 21.7403 15.6465 21.6465C15.7403 21.5527 15.8674 21.5 16 21.5H20C20.3978 21.5 20.7797 21.3419 21.061 21.0605C21.3423 20.7792 21.5 20.3978 21.5 20V16C21.5 15.8674 21.5527 15.7403 21.6465 15.6465C21.7403 15.5527 21.8674 15.5 22 15.5C22.1326 15.5 22.2602 15.5527 22.354 15.6465C22.4478 15.7403 22.5 15.8674 22.5 16V20C22.5 20.663 22.2369 21.2987 21.7681 21.7676C21.2992 22.2364 20.663 22.5 20 22.5H16ZM4 22.5C3.33696 22.5 2.70126 22.2364 2.23242 21.7676C1.76358 21.2987 1.5 20.663 1.5 20V16C1.5 15.8674 1.55272 15.7403 1.64648 15.6465C1.74025 15.5527 1.86739 15.5 2 15.5C2.13261 15.5 2.26024 15.5527 2.354 15.6465C2.44777 15.7403 2.5 15.8674 2.5 16V20C2.5 20.3978 2.65815 20.7792 2.93945 21.0605C3.22076 21.3419 3.60218 21.5 4 21.5H8C8.13261 21.5 8.26024 21.5527 8.354 21.6465C8.44777 21.7403 8.5 21.8674 8.5 22C8.5 22.1326 8.44777 22.2597 8.354 22.3535C8.26024 22.4473 8.13261 22.5 8 22.5H4ZM15 17.5C14.8674 17.5 14.7403 17.4473 14.6465 17.3535C14.5527 17.2597 14.5 17.1326 14.5 17V15C14.5 14.8674 14.5527 14.7403 14.6465 14.6465C14.7403 14.5527 14.8674 14.5 15 14.5H17C17.1326 14.5 17.2602 14.5527 17.354 14.6465C17.4478 14.7403 17.5 14.8674 17.5 15V17C17.5 17.1326 17.4478 17.2597 17.354 17.3535C17.2602 17.4473 17.1326 17.5 17 17.5H15ZM15.5 16.5H16.5V15.5H15.5V16.5ZM12.5 17V14C12.5 13.6022 12.6581 13.2208 12.9395 12.9395C13.2208 12.6581 13.6022 12.5 14 12.5H17C17.1326 12.5 17.2602 12.5527 17.354 12.6465C17.4478 12.7403 17.5 12.8674 17.5 13C17.5 13.1326 17.4478 13.2597 17.354 13.3535C17.2602 13.4473 17.1326 13.5 17 13.5H14C13.8674 13.5 13.7403 13.5527 13.6465 13.6465C13.5527 13.7403 13.5 13.8674 13.5 14V17C13.5 17.1326 13.4478 17.2597 13.354 17.3535C13.2602 17.4473 13.1326 17.5 13 17.5C12.8674 17.5 12.7403 17.4473 12.6465 17.3535C12.5527 17.2597 12.5 17.1326 12.5 17ZM8 17.5C7.60218 17.5 7.22076 17.3419 6.93945 17.0605C6.65815 16.7792 6.5 16.3978 6.5 16V14C6.5 13.6022 6.65815 13.2208 6.93945 12.9395C7.22076 12.6581 7.60218 12.5 8 12.5H10C10.3978 12.5 10.7797 12.6581 11.061 12.9395C11.3423 13.2208 11.5 13.6022 11.5 14V16C11.5 16.3978 11.3423 16.7792 11.061 17.0605C10.7797 17.3419 10.3978 17.5 10 17.5H8ZM7.5 14V16C7.5 16.1326 7.55272 16.2597 7.64648 16.3535C7.74025 16.4473 7.86739 16.5 8 16.5H10C10.1326 16.5 10.2602 16.4473 10.354 16.3535C10.4478 16.2597 10.5 16.1326 10.5 16V14C10.5 13.8674 10.4478 13.7403 10.354 13.6465C10.2602 13.5527 10.1326 13.5 10 13.5H8C7.86739 13.5 7.74025 13.5527 7.64648 13.6465C7.55272 13.7403 7.5 13.8674 7.5 14ZM14 11.5C13.6022 11.5 13.2208 11.3419 12.9395 11.0605C12.6581 10.7792 12.5 10.3978 12.5 10V8C12.5 7.60218 12.6581 7.22076 12.9395 6.93945C13.2208 6.65815 13.6022 6.5 14 6.5H16C16.3978 6.5 16.7797 6.65815 17.061 6.93945C17.3423 7.22076 17.5 7.60218 17.5 8V10C17.5 10.3978 17.3423 10.7792 17.061 11.0605C16.7797 11.3419 16.3978 11.5 16 11.5H14ZM13.5 8V10C13.5 10.1326 13.5527 10.2597 13.6465 10.3535C13.7403 10.4473 13.8674 10.5 14 10.5H16C16.1326 10.5 16.2602 10.4473 16.354 10.3535C16.4478 10.2597 16.5 10.1326 16.5 10V8C16.5 7.86739 16.4478 7.74025 16.354 7.64648C16.2602 7.55272 16.1326 7.5 16 7.5H14C13.8676 7.50026 13.741 7.55274 13.6475 7.64648C13.5539 7.74022 13.5015 7.86756 13.5015 8H13.5ZM8 11.5C7.60218 11.5 7.22076 11.3419 6.93945 11.0605C6.65815 10.7792 6.5 10.3978 6.5 10V8C6.5 7.60218 6.65815 7.22076 6.93945 6.93945C7.22076 6.65815 7.60218 6.5 8 6.5H10C10.3978 6.5 10.7797 6.65815 11.061 6.93945C11.3423 7.22076 11.5 7.60218 11.5 8V10C11.5 10.3978 11.3423 10.7792 11.061 11.0605C10.7797 11.3419 10.3978 11.5 10 11.5H8ZM7.5 8V10C7.5 10.1326 7.55272 10.2597 7.64648 10.3535C7.74025 10.4473 7.86739 10.5 8 10.5H10C10.1326 10.5 10.2602 10.4473 10.354 10.3535C10.4478 10.2597 10.5 10.1326 10.5 10V8C10.5 7.86739 10.4478 7.74025 10.354 7.64648C10.2602 7.55272 10.1326 7.5 10 7.5H8C7.86739 7.5 7.74025 7.55272 7.64648 7.64648C7.55272 7.74025 7.5 7.86739 7.5 8ZM21.5 8V4C21.5 3.60218 21.3423 3.22076 21.061 2.93945C20.7797 2.65815 20.3978 2.5 20 2.5H16C15.8674 2.5 15.7403 2.44728 15.6465 2.35352C15.5527 2.25975 15.5 2.13261 15.5 2C15.5 1.86739 15.5527 1.74025 15.6465 1.64648C15.7403 1.55272 15.8674 1.5 16 1.5H20C20.663 1.5 21.2992 1.76309 21.7681 2.23193C22.2369 2.70077 22.5 3.33696 22.5 4V8C22.5 8.13261 22.4478 8.25975 22.354 8.35352C22.2602 8.44728 22.1326 8.5 22 8.5C21.8674 8.5 21.7403 8.44728 21.6465 8.35352C21.5527 8.25975 21.5 8.13261 21.5 8ZM1.5 8V4C1.5 3.33696 1.76358 2.70077 2.23242 2.23193C2.70126 1.76309 3.33696 1.5 4 1.5H8C8.13261 1.5 8.26024 1.55272 8.354 1.64648C8.44777 1.74025 8.5 1.86739 8.5 2C8.5 2.13261 8.44777 2.25975 8.354 2.35352C8.26024 2.44728 8.13261 2.5 8 2.5H4C3.60218 2.5 3.22076 2.65815 2.93945 2.93945C2.65815 3.22076 2.5 3.60218 2.5 4V8C2.5 8.13261 2.44777 8.25975 2.354 8.35352C2.26024 8.44728 2.13261 8.5 2 8.5C1.86739 8.5 1.74025 8.44728 1.64648 8.35352C1.55272 8.25975 1.5 8.13261 1.5 8Z" fill="#56596A"/>
</svg>
