<svg width="16" height="17" viewBox="0 0 16 17" fill="none" xmlns="http://www.w3.org/2000/svg">
<path d="M8 15.5426C6.01153 15.5405 4.1051 14.7496 2.69904 13.3436C1.29297 11.9375 0.502118 10.0311 0.5 8.0426C0.502118 6.05413 1.29297 4.14771 2.69904 2.74165C4.1051 1.33558 6.01153 0.54472 8 0.542603C9.98847 0.54472 11.8949 1.33558 13.301 2.74165C14.707 4.14771 15.4979 6.05413 15.5 8.0426C15.4979 10.0311 14.707 11.9375 13.301 13.3436C11.8949 14.7496 9.98847 15.5405 8 15.5426ZM8 1.5426C6.27666 1.54446 4.62444 2.22987 3.40585 3.44846C2.18727 4.66704 1.50185 6.31926 1.5 8.0426C1.50185 9.76594 2.18727 11.4182 3.40585 12.6368C4.62444 13.8553 6.27666 14.5407 8 14.5426C9.72326 14.5405 11.3753 13.855 12.5938 12.6365C13.8124 11.4179 14.4979 9.76586 14.5 8.0426C14.4979 6.31935 13.8124 4.66728 12.5938 3.44875C11.3753 2.23023 9.72326 1.54472 8 1.5426Z" fill="#56596A"/>
<path d="M8.10164 11.946C8.03652 11.9433 7.9723 11.9298 7.91164 11.906C7.85104 11.8812 7.7965 11.8437 7.75166 11.796C7.70297 11.752 7.66528 11.6972 7.64165 11.636C7.6141 11.5765 7.60042 11.5115 7.60164 11.446C7.60061 11.3789 7.6134 11.3123 7.6392 11.2504C7.66501 11.1884 7.7033 11.1325 7.75166 11.086C7.84631 10.9967 7.9715 10.9469 8.10164 10.9469C8.23177 10.9469 8.35699 10.9967 8.45164 11.086C8.49922 11.1331 8.53698 11.1891 8.56273 11.2509C8.58848 11.3127 8.60169 11.379 8.60164 11.446C8.60286 11.5115 8.5892 11.5765 8.56166 11.636C8.53803 11.6972 8.50033 11.752 8.45164 11.796C8.40681 11.8437 8.35224 11.8812 8.29164 11.906C8.23098 11.9298 8.16676 11.9433 8.10164 11.946Z" fill="#56596A"/>
<path d="M8.00141 4.04263C7.43384 4.01823 6.87982 4.2203 6.46124 4.60437C6.04266 4.98845 5.79379 5.52307 5.76938 6.09063C5.76938 6.13263 5.76938 6.17563 5.76938 6.21863C5.7626 6.26462 5.76502 6.3115 5.77646 6.35655C5.7879 6.40161 5.80814 6.44396 5.83603 6.48115C5.86392 6.51834 5.89891 6.54964 5.93897 6.57324C5.97902 6.59683 6.02335 6.61226 6.0694 6.61863C6.10418 6.62413 6.13959 6.62413 6.17438 6.61863C6.37438 6.60363 6.49238 6.30363 6.50638 6.04463C6.59274 5.71219 6.78675 5.4177 7.05811 5.20712C7.32946 4.99655 7.6629 4.88175 8.00638 4.88063C8.1911 4.87079 8.37597 4.89743 8.55039 4.95905C8.7248 5.02068 8.88535 5.11606 9.02289 5.23976C9.16043 5.36346 9.27223 5.51305 9.35193 5.67998C9.43163 5.84691 9.47767 6.02791 9.4874 6.21263V6.22463C9.4684 7.12463 8.9274 7.83563 8.2934 7.83563C8.21776 7.83577 8.14286 7.85079 8.07303 7.87986C8.0032 7.90893 7.93978 7.95147 7.88638 8.00504C7.83299 8.05862 7.79067 8.12219 7.76184 8.19213C7.73302 8.26206 7.71825 8.33699 7.71838 8.41263V9.52863C7.71838 9.84763 7.81838 10.0486 8.13138 10.0486C8.44438 10.0486 8.58139 9.84863 8.58139 9.52863V8.59063C9.17393 8.4368 9.68114 8.05396 9.99149 7.52627C10.3018 6.99858 10.3899 6.36925 10.2364 5.77663C10.1081 5.28254 9.81964 4.84492 9.41614 4.53225C9.01263 4.21958 8.51685 4.0495 8.00638 4.04863L8.00141 4.04263Z" fill="#56596A"/>
</svg>
