<svg width="24" height="24" viewBox="0 0 24 24" fill="none" xmlns="http://www.w3.org/2000/svg">
<path d="M1.49805 12.0001C1.49805 9.92336 2.11431 7.89328 3.26807 6.16657C4.42182 4.43985 6.06136 3.0941 7.97998 2.29938C9.8986 1.50466 12.0101 1.29658 14.0469 1.70172C16.0837 2.10687 17.9544 3.10681 19.4229 4.57526C20.8913 6.04371 21.8912 7.91492 22.2964 9.95172C22.7015 11.9885 22.4939 14.0995 21.6992 16.0181C20.9045 17.9368 19.5583 19.5768 17.8315 20.7305C16.1048 21.8843 14.0748 22.5001 11.998 22.5001C9.21425 22.4969 6.54559 21.3894 4.57715 19.421C2.6087 17.4525 1.50122 14.7839 1.49805 12.0001ZM2.49805 12.0001C2.49805 13.879 3.05525 15.7156 4.09912 17.2779C5.14299 18.8402 6.62689 20.0579 8.36279 20.7769C10.0987 21.4959 12.0087 21.684 13.8516 21.3174C15.6944 20.9509 17.3872 20.0459 18.7158 18.7173C20.0444 17.3887 20.9494 15.6959 21.3159 13.8531C21.6825 12.0103 21.4939 10.1002 20.7749 8.36432C20.0559 6.62842 18.8386 5.14501 17.2764 4.10114C15.7141 3.05726 13.877 2.50006 11.998 2.50006C9.47964 2.5035 7.06585 3.50532 5.28516 5.28619C3.50446 7.06707 2.50269 9.48165 2.49951 12.0001H2.49805ZM11.8071 18.459C11.7445 18.4381 11.6894 18.4001 11.6475 18.3492C11.6 18.3041 11.5619 18.2497 11.5361 18.1895C11.5103 18.1293 11.4971 18.0646 11.4971 17.9991C11.4971 17.9336 11.5103 17.8688 11.5361 17.8087C11.5619 17.7485 11.6 17.6941 11.6475 17.649C11.7409 17.5574 11.8662 17.5059 11.9971 17.5059C12.1279 17.5059 12.2537 17.5574 12.3472 17.649C12.3976 17.6912 12.4352 17.7467 12.4561 17.8091C12.4839 17.8685 12.4977 17.9335 12.4961 17.9991C12.4933 18.1308 12.4398 18.256 12.3467 18.3492C12.2535 18.4423 12.1278 18.4963 11.9961 18.4991C11.9313 18.5012 11.867 18.4881 11.8081 18.461L11.8071 18.459ZM11.4995 14.8731C11.3199 14.1081 10.8784 13.43 10.2515 12.9561C9.44834 12.3486 8.86018 11.5 8.57324 10.5347C8.46472 9.9175 8.55708 9.28176 8.83643 8.72076C9.122 8.12892 9.56832 7.62983 10.1245 7.27985C10.6807 6.92986 11.3243 6.74312 11.9814 6.74176H11.9883C12.9145 6.74494 13.8018 7.11551 14.4556 7.77155C15.1094 8.42758 15.4761 9.31558 15.4761 10.2418C15.4761 10.3744 15.4238 10.5015 15.3301 10.5953C15.2363 10.689 15.1087 10.7418 14.9761 10.7418C14.8435 10.7418 14.7163 10.689 14.6226 10.5953C14.5288 10.5015 14.4761 10.3744 14.4761 10.2418C14.4766 9.91468 14.4128 9.591 14.2881 9.28864C14.1634 8.98627 13.9805 8.71116 13.7495 8.47955C13.5186 8.24795 13.2444 8.0641 12.9424 7.93854C12.6404 7.81298 12.3163 7.7485 11.9893 7.74811H11.9844C11.5144 7.74909 11.0539 7.88224 10.6562 8.13287C10.2586 8.38351 9.93994 8.74147 9.73633 9.1651C9.55461 9.52318 9.48923 9.92871 9.54932 10.3257C9.78427 11.0584 10.2407 11.7006 10.8555 12.1631C11.6685 12.7774 12.2411 13.6562 12.4751 14.648C12.505 14.7772 12.4827 14.9129 12.4126 15.0255C12.3425 15.138 12.2302 15.2181 12.1011 15.2481C12.0644 15.2569 12.027 15.2609 11.9893 15.2608C11.8761 15.2613 11.7661 15.2235 11.6772 15.1534C11.5884 15.0833 11.5263 14.9852 11.5005 14.8751L11.4995 14.8731Z" fill="#56596A"/>
</svg>
