<svg width="24" height="24" viewBox="0 0 24 24" fill="none" xmlns="http://www.w3.org/2000/svg">
<path d="M7.44017 21.4488C5.7444 20.6177 4.30129 19.349 3.26 17.7735C2.2187 16.198 1.61683 14.3728 1.51683 12.4869C1.41683 10.601 1.82231 8.7228 2.69115 7.046C3.55999 5.36921 4.86036 3.95469 6.45873 2.94884L2.97679 2.50303C2.91146 2.4947 2.84841 2.47373 2.79125 2.44102C2.73408 2.40832 2.68409 2.3647 2.64379 2.3126C2.60348 2.26051 2.57368 2.20086 2.55638 2.13731C2.53909 2.07376 2.53437 2.00733 2.54271 1.942C2.55105 1.87667 2.57251 1.81362 2.60521 1.75645C2.63792 1.69928 2.68154 1.64929 2.73363 1.60899C2.78572 1.56869 2.84537 1.53889 2.90892 1.52159C2.97247 1.50429 3.03841 1.49958 3.10375 1.50792L8.10375 2.15098C8.21976 2.15457 8.33143 2.19805 8.41918 2.27403C8.44482 2.29604 8.46809 2.32073 8.489 2.34727C8.56927 2.45287 8.60525 2.58525 8.5891 2.7169L7.92503 7.88682C7.90984 8.00842 7.85022 8.12053 7.75804 8.20128C7.66587 8.28202 7.54757 8.32576 7.42503 8.32481C7.40374 8.3267 7.38236 8.3267 7.36107 8.32481C7.29566 8.31667 7.2323 8.29593 7.17503 8.26329C7.11777 8.23064 7.06742 8.18701 7.02709 8.13487C6.98675 8.08273 6.95739 8.02321 6.94017 7.95958C6.92296 7.89595 6.91844 7.82963 6.92699 7.76427L7.47484 3.51182C5.93956 4.35546 4.66429 5.60303 3.78685 7.11925C2.90941 8.63546 2.46334 10.3629 2.49681 12.1144C2.53028 13.8658 3.04207 15.5747 3.97679 17.0563C4.91152 18.5378 6.23365 19.7358 7.80003 20.5201C8.92015 21.0708 10.1379 21.3948 11.3835 21.4742C12.6292 21.5536 13.8783 21.387 15.0593 20.983C16.2403 20.579 17.3298 19.9459 18.2659 19.1202C19.2019 18.2945 19.9657 17.2923 20.5139 16.171C21.6243 13.8941 21.7941 11.2717 20.9861 8.87071C20.178 6.46976 18.4572 4.48315 16.196 3.34093C16.0773 3.28125 15.9873 3.177 15.9455 3.05089C15.9038 2.92477 15.9137 2.78725 15.9734 2.66856C16.033 2.54988 16.1373 2.4598 16.2634 2.41807C16.3895 2.37635 16.5271 2.38623 16.6457 2.44591C19.1408 3.70763 21.0398 5.90012 21.9319 8.54991C22.824 11.1997 22.6377 14.0942 21.4138 16.608C20.2022 19.1034 18.0497 21.0159 15.4289 21.9249C12.8081 22.8339 9.93332 22.6653 7.43675 21.4562L7.44017 21.4488Z" fill="#56596A"/>
</svg>
