<svg width="24" height="24" viewBox="0 0 24 24" fill="none" xmlns="http://www.w3.org/2000/svg">
<path d="M5.99805 19.5C5.60022 19.5 5.2188 19.3419 4.9375 19.0605C4.6562 18.7792 4.49805 18.3978 4.49805 18V17C4.10022 17 3.7188 16.8419 3.4375 16.5605C3.1562 16.2792 2.99805 15.8978 2.99805 15.5V14.5C2.60022 14.5 2.2188 14.3419 1.9375 14.0605C1.6562 13.7792 1.49805 13.3978 1.49805 13V6C1.49805 5.60218 1.6562 5.22076 1.9375 4.93945C2.2188 4.65815 2.60022 4.5 2.99805 4.5H17.998C18.3959 4.5 18.7778 4.65815 19.0591 4.93945C19.3404 5.22076 19.498 5.60218 19.498 6V7C19.8959 7 20.2778 7.15815 20.5591 7.43945C20.8404 7.72076 20.998 8.10218 20.998 8.5V9.5C21.3959 9.5 21.7778 9.65815 22.0591 9.93945C22.3404 10.2208 22.498 10.6022 22.498 11V18C22.498 18.3978 22.3404 18.7792 22.0591 19.0605C21.7778 19.3419 21.3959 19.5 20.998 19.5H5.99805ZM5.49805 18C5.49805 18.1326 5.55076 18.2597 5.64453 18.3535C5.7383 18.4473 5.86544 18.5 5.99805 18.5H20.998C21.1307 18.5 21.2583 18.4473 21.3521 18.3535C21.4458 18.2597 21.498 18.1326 21.498 18V11C21.498 10.8674 21.4458 10.7403 21.3521 10.6465C21.2583 10.5527 21.1307 10.5 20.998 10.5V15.5C20.998 15.8978 20.8404 16.2792 20.5591 16.5605C20.2778 16.8419 19.8959 17 19.498 17H16.3335C16.3093 17.0034 16.2847 17.0049 16.2603 17.0049C16.2362 17.0051 16.2123 17.0036 16.1885 17H5.49951L5.49805 18ZM19.498 16C19.6307 16 19.7583 15.9473 19.8521 15.8535C19.9458 15.7597 19.998 15.6326 19.998 15.5V8.5C19.998 8.36739 19.9458 8.24025 19.8521 8.14648C19.7583 8.05272 19.6307 8 19.498 8V13C19.498 13.3978 19.3404 13.7792 19.0591 14.0605C18.7778 14.3419 18.3959 14.5 17.998 14.5H17.9814C17.9814 14.51 17.9713 14.5208 17.9653 14.5308L17.1265 16H19.498ZM15.9731 16L16.8301 14.5H14.8213C14.801 14.5012 14.7806 14.5012 14.7603 14.5C14.7399 14.5012 14.7195 14.5012 14.6992 14.5H3.99951V15.5C3.99951 15.6326 4.05174 15.7597 4.14551 15.8535C4.23928 15.9473 4.3669 16 4.49951 16H15.9751H15.9731ZM17.998 13.5C18.1307 13.5 18.2583 13.4473 18.3521 13.3535C18.4458 13.2597 18.498 13.1326 18.498 13V6C18.498 5.86739 18.4458 5.74025 18.3521 5.64648C18.2583 5.55272 18.1307 5.5 17.998 5.5H11.5601L9.37109 9.27783C9.33984 9.33758 9.29683 9.39041 9.24463 9.43311C9.19243 9.4758 9.13215 9.50758 9.06738 9.52637C9.00262 9.54516 8.93511 9.55061 8.86816 9.54248C8.80122 9.53435 8.73661 9.51275 8.67822 9.479C8.61984 9.44526 8.56878 9.40014 8.52832 9.34619C8.48786 9.29224 8.45843 9.23054 8.44238 9.16504C8.42634 9.09954 8.42411 9.03138 8.43506 8.96484C8.446 8.8983 8.47017 8.83474 8.50635 8.77783L10.4062 5.50195H3.00049C2.86788 5.50195 2.74025 5.55467 2.64648 5.64844C2.55272 5.74221 2.50049 5.86934 2.50049 6.00195V13.002C2.50049 13.1346 2.55272 13.2617 2.64648 13.3555C2.74025 13.4492 2.86788 13.502 3.00049 13.502H14.4771L15.6001 11.5371C15.6664 11.4219 15.7759 11.3373 15.9043 11.3027C16.0327 11.2681 16.1694 11.2862 16.2847 11.3525C16.3999 11.4188 16.484 11.5279 16.5186 11.6562C16.5532 11.7846 16.5355 11.9219 16.4692 12.0371L15.6304 13.5059L17.998 13.5ZM4.46826 10.626V10.397C4.47526 9.52297 4.4862 8.06091 3.8042 7.37891L4.51123 6.67285C5.48923 7.65085 5.47624 9.37281 5.46924 10.4038V10.625L4.46826 10.626Z" fill="#56596A"/>
</svg>
