<svg width="24" height="24" viewBox="0 0 24 24" fill="none" xmlns="http://www.w3.org/2000/svg">
<path d="M2.99805 19.5C2.60022 19.5 2.2188 19.3418 1.9375 19.0605C1.6562 18.7792 1.49805 18.3978 1.49805 18V9.99998C1.49805 9.60216 1.6562 9.22074 1.9375 8.93944C2.2188 8.65813 2.60022 8.49998 2.99805 8.49998H12.1982C12.2538 8.49027 12.3106 8.49027 12.3662 8.49998H13.9941C14.1267 8.49998 14.2539 8.5527 14.3477 8.64647C14.4414 8.74024 14.4941 8.86738 14.4941 8.99998C14.4941 9.13259 14.4414 9.25973 14.3477 9.3535C14.2539 9.44727 14.1267 9.49998 13.9941 9.49998H12.5674L10.1401 13.75C10.0964 13.8265 10.0332 13.8898 9.95703 13.9341C9.88082 13.9783 9.79419 14.0019 9.70605 14.0019C9.61886 14.0019 9.5336 13.9796 9.45752 13.937C9.40019 13.9045 9.34954 13.8611 9.30908 13.8091C9.26863 13.757 9.23906 13.6973 9.22168 13.6338C9.2043 13.5702 9.19965 13.5038 9.20801 13.4385C9.21637 13.3731 9.23769 13.3101 9.27051 13.2529L11.4165 9.49998H2.99219C2.85958 9.49998 2.73244 9.5527 2.63867 9.64647C2.5449 9.74024 2.49219 9.86738 2.49219 9.99998V18C2.49219 18.1326 2.5449 18.2597 2.63867 18.3535C2.73244 18.4473 2.85958 18.5 2.99219 18.5H16.9922L18.2642 16.292C18.2954 16.2322 18.3384 16.1794 18.3906 16.1367C18.4428 16.094 18.5031 16.0622 18.5679 16.0434C18.6326 16.0247 18.7006 16.0192 18.7676 16.0273C18.8345 16.0355 18.8991 16.0571 18.9575 16.0908C19.0159 16.1246 19.067 16.1697 19.1074 16.2236C19.1479 16.2776 19.1768 16.3393 19.1929 16.4048C19.2089 16.4703 19.2116 16.5384 19.2007 16.605C19.1897 16.6715 19.1656 16.7351 19.1294 16.792L18.144 18.5H20.9922C21.1248 18.5 21.2519 18.4473 21.3457 18.3535C21.4395 18.2597 21.4922 18.1326 21.4922 18V12.2607C21.4922 12.1281 21.5449 12.001 21.6387 11.9072C21.7324 11.8134 21.8596 11.7607 21.9922 11.7607C22.1248 11.7607 22.2519 11.8134 22.3457 11.9072C22.4395 12.001 22.4922 12.1281 22.4922 12.2607V18C22.4922 18.3978 22.334 18.7792 22.0527 19.0605C21.7714 19.3418 21.39 19.5 20.9922 19.5H2.99805ZM4.79834 15.2519V14.9961C4.80534 14.0171 4.81839 12.377 4.04639 11.604L4.75244 10.896C5.82244 11.966 5.80834 13.8671 5.79834 14.9961V15.2461L4.79834 15.2519ZM15.498 7.99998C15.498 7.30775 15.7038 6.63073 16.0884 6.05516C16.473 5.47959 17.0192 5.031 17.6587 4.7661C18.2982 4.50119 19.0022 4.43232 19.6812 4.56737C20.3601 4.70242 20.9837 5.0354 21.4731 5.52489C21.9626 6.01437 22.2961 6.63795 22.4312 7.31688C22.5662 7.99581 22.4968 8.6998 22.2319 9.33934C21.967 9.97888 21.5184 10.5256 20.9429 10.9101C20.3673 11.2947 19.6903 11.5 18.998 11.5C18.07 11.4997 17.1801 11.1309 16.5239 10.4746C15.8678 9.81825 15.4995 8.92807 15.4995 7.99998H15.498ZM16.498 7.99998C16.498 8.49444 16.6447 8.97753 16.9194 9.38866C17.1941 9.79978 17.5847 10.1203 18.0415 10.3096C18.4983 10.4988 19.0009 10.5481 19.4858 10.4516C19.9708 10.3552 20.4165 10.1172 20.7661 9.76756C21.1157 9.41793 21.3537 8.97273 21.4502 8.48778C21.5467 8.00282 21.4973 7.49977 21.3081 7.04295C21.1189 6.58614 20.7983 6.19607 20.3872 5.92137C19.9761 5.64667 19.4925 5.49998 18.998 5.49998C18.3352 5.50025 17.6996 5.76359 17.231 6.23241C16.7623 6.70122 16.4995 7.33712 16.4995 7.99998H16.498ZM17.4575 9.02684C17.384 8.91661 17.3569 8.78177 17.3828 8.65184C17.4087 8.52191 17.4851 8.40763 17.5952 8.33397L18.4951 7.73387V6.49998C18.4951 6.36738 18.5478 6.24024 18.6416 6.14647C18.7354 6.0527 18.8625 5.99998 18.9951 5.99998C19.1277 5.99998 19.2549 6.0527 19.3486 6.14647C19.4424 6.24024 19.4951 6.36738 19.4951 6.49998V7.99998C19.4952 8.08249 19.4749 8.16355 19.436 8.23631C19.3971 8.30907 19.3412 8.37127 19.2725 8.41698L18.1475 9.166C18.037 9.23931 17.9019 9.2655 17.772 9.23924C17.642 9.21299 17.5274 9.13631 17.4541 9.02586L17.4575 9.02684Z" fill="#56596A"/>
</svg>
