<svg width="22" height="22" viewBox="0 0 22 22" fill="none" xmlns="http://www.w3.org/2000/svg">
<path d="M0.5 11.0001C0.5 8.92336 1.11626 6.89328 2.27002 5.16657C3.42377 3.43985 5.06331 2.0941 6.98193 1.29938C8.90056 0.504658 11.012 0.296577 13.0488 0.701722C15.0856 1.10687 16.9564 2.10681 18.4248 3.57526C19.8933 5.04371 20.8932 6.91492 21.2983 8.95172C21.7035 10.9885 21.4959 13.0995 20.7012 15.0181C19.9065 16.9368 18.5602 18.5768 16.8335 19.7305C15.1068 20.8843 13.0767 21.5001 11 21.5001C8.2162 21.4969 5.54755 20.3894 3.5791 18.421C1.61066 16.4525 0.503176 13.7839 0.5 11.0001ZM1.5 11.0001C1.5 12.879 2.0572 14.7156 3.10107 16.2779C4.14495 17.8402 5.62885 19.0579 7.36475 19.7769C9.10064 20.4959 11.0107 20.684 12.8535 20.3174C14.6963 19.9509 16.3892 19.0459 17.7178 17.7173C19.0464 16.3887 19.9513 14.6959 20.3179 12.8531C20.6844 11.0103 20.4959 9.10022 19.7769 7.36432C19.0578 5.62842 17.8406 4.14501 16.2783 3.10114C14.7161 2.05726 12.8789 1.50006 11 1.50006C8.48159 1.5035 6.0678 2.50532 4.28711 4.28619C2.50642 6.06707 1.50464 8.48165 1.50146 11.0001H1.5ZM13.6475 14.3541L11.0015 11.7081L8.35547 14.3541C8.30891 14.4008 8.25331 14.4377 8.19238 14.463C8.13146 14.4882 8.06594 14.5012 8 14.501C7.9345 14.5011 7.87001 14.4882 7.80957 14.463C7.74913 14.4377 7.6944 14.4007 7.64844 14.3541C7.5547 14.2603 7.50195 14.1331 7.50195 14.0005C7.50195 13.868 7.5547 13.7408 7.64844 13.647L10.2944 11.001L7.64844 8.35504C7.55455 8.26116 7.50146 8.13381 7.50146 8.00104C7.50146 7.86826 7.55455 7.74092 7.64844 7.64703C7.74232 7.55315 7.86967 7.50055 8.00244 7.50055C8.13522 7.50055 8.26256 7.55315 8.35645 7.64703L11.0024 10.293L13.6484 7.64703C13.7423 7.55315 13.8697 7.50055 14.0024 7.50055C14.1352 7.50055 14.2626 7.55315 14.3564 7.64703C14.4503 7.74092 14.5029 7.86826 14.5029 8.00104C14.5029 8.13381 14.4503 8.26116 14.3564 8.35504L11.7104 11.001L14.3564 13.647C14.4266 13.717 14.4743 13.8062 14.4937 13.9034C14.513 14.0006 14.5029 14.1014 14.4648 14.1929C14.4268 14.2844 14.3623 14.3627 14.2798 14.4175C14.1972 14.4724 14.1006 14.5014 14.0015 14.501C13.936 14.5013 13.871 14.4885 13.8105 14.4634C13.7501 14.4384 13.6955 14.4015 13.6494 14.355L13.6475 14.3541Z" fill="#56596A"/>
</svg>
