<svg width="24" height="24" viewBox="0 0 24 24" fill="none" xmlns="http://www.w3.org/2000/svg">
<path d="M3.00195 19.603C2.60413 19.603 2.22222 19.4449 1.94092 19.1636C1.65961 18.8823 1.50195 18.5009 1.50195 18.103V10.103C1.50195 9.70522 1.65961 9.3238 1.94092 9.04249C2.22222 8.76119 2.60413 8.60304 3.00195 8.60304H14.3018C14.4344 8.60304 14.5615 8.65576 14.6553 8.74953C14.749 8.84329 14.8018 8.97043 14.8018 9.10304C14.8018 9.23565 14.749 9.36279 14.6553 9.45656C14.5615 9.55032 14.4344 9.60304 14.3018 9.60304H12.5786L10.1479 13.856C10.1151 13.9129 10.0712 13.9629 10.019 14.0029C9.96693 14.043 9.90771 14.0723 9.84424 14.0894C9.78077 14.1064 9.71408 14.1106 9.64893 14.1021C9.58377 14.0935 9.52128 14.0724 9.46436 14.0396C9.40743 14.0067 9.35741 13.9628 9.31738 13.9107C9.27735 13.8585 9.248 13.7993 9.23096 13.7359C9.21392 13.6724 9.20972 13.6062 9.21826 13.541C9.22681 13.4759 9.24793 13.4129 9.28076 13.356L11.4277 9.59816H3.00293C2.87032 9.59816 2.74318 9.65039 2.64941 9.74415C2.55565 9.83792 2.50293 9.96555 2.50293 10.0982V18.0982C2.50293 18.2308 2.55565 18.3579 2.64941 18.4517C2.74318 18.5454 2.87032 18.5982 3.00293 18.5982H17.0029L18.272 16.398C18.3032 16.3382 18.3462 16.2854 18.3984 16.2427C18.4506 16.2 18.5109 16.1682 18.5757 16.1494C18.6404 16.1306 18.708 16.1252 18.7749 16.1333C18.8418 16.1414 18.9065 16.163 18.9648 16.1968C19.0232 16.2305 19.0743 16.2757 19.1147 16.3296C19.1552 16.3836 19.1842 16.4453 19.2002 16.5108C19.2162 16.5763 19.219 16.6444 19.208 16.711C19.1971 16.7775 19.1729 16.8411 19.1367 16.898L18.1558 18.5982H20.9995C21.1321 18.5982 21.2597 18.5454 21.3535 18.4517C21.4473 18.3579 21.4995 18.2308 21.4995 18.0982V13.3638C21.4995 13.2312 21.5522 13.104 21.646 13.0103C21.7398 12.9165 21.8669 12.8638 21.9995 12.8638C22.1321 12.8638 22.2597 12.9165 22.3535 13.0103C22.4473 13.104 22.4995 13.2312 22.4995 13.3638V18.0982C22.4995 18.496 22.3419 18.8774 22.0605 19.1587C21.7792 19.44 21.3973 19.5982 20.9995 19.5982L3.00195 19.603ZM4.80176 15.356V15.1001C4.80876 14.1221 4.82183 12.483 4.04883 11.71L4.75488 11.0029C5.82488 12.0729 5.81073 13.972 5.80273 15.103V15.3521L4.80176 15.356ZM17.6479 9.45607C17.6011 9.40939 17.5638 9.3536 17.5386 9.29249C17.5133 9.23139 17.5007 9.16622 17.501 9.10011V9.10011V6.10011C17.501 5.9675 17.5532 5.84036 17.647 5.7466C17.7407 5.65283 17.8684 5.60011 18.001 5.60011C18.1336 5.60011 18.2607 5.65283 18.3545 5.7466C18.4483 5.84036 18.501 5.9675 18.501 6.10011V7.89992L21.6479 4.75392C21.7421 4.6627 21.8679 4.61234 21.999 4.61329C22.1301 4.61424 22.2558 4.66623 22.3486 4.7588C22.4415 4.85138 22.4943 4.97682 22.4956 5.10792C22.4969 5.23903 22.4469 5.36555 22.356 5.45997L19.2119 8.60402H21.001C21.1336 8.60402 21.2607 8.65673 21.3545 8.7505C21.4483 8.84427 21.501 8.97141 21.501 9.10402C21.501 9.23663 21.4483 9.36376 21.3545 9.45753C21.2607 9.5513 21.1336 9.60402 21.001 9.60402H18.001C17.8686 9.60479 17.7412 9.55296 17.647 9.45997L17.6479 9.45607Z" fill="#56596A"/>
</svg>
