<svg width="24" height="24" viewBox="0 0 24 24" fill="none" xmlns="http://www.w3.org/2000/svg">
<path d="M6.00195 22.5C5.33891 22.5 4.70273 22.2364 4.23389 21.7676C3.76505 21.2987 3.50195 20.663 3.50195 20V7C3.50195 6.33696 3.76505 5.70077 4.23389 5.23193C4.70273 4.76309 5.33891 4.5 6.00195 4.5H7.50195V2C7.50195 1.86739 7.55418 1.74025 7.64795 1.64648C7.74172 1.55272 7.86934 1.5 8.00195 1.5C8.13456 1.5 8.2617 1.55272 8.35547 1.64648C8.44924 1.74025 8.50195 1.86739 8.50195 2V4.5H15.502V2C15.502 1.86739 15.5542 1.74025 15.6479 1.64648C15.7417 1.55272 15.8693 1.5 16.002 1.5C16.1346 1.5 16.2617 1.55272 16.3555 1.64648C16.4492 1.74025 16.502 1.86739 16.502 2V4.5H18.002C18.665 4.5 19.3007 4.76309 19.7695 5.23193C20.2384 5.70077 20.502 6.33696 20.502 7V20C20.502 20.663 20.2384 21.2987 19.7695 21.7676C19.3007 22.2364 18.665 22.5 18.002 22.5H6.00195ZM4.50195 20C4.50195 20.3978 4.65961 20.7792 4.94092 21.0605C5.22222 21.3419 5.60413 21.5 6.00195 21.5H18.002C18.3998 21.5 18.7812 21.3419 19.0625 21.0605C19.3438 20.7792 19.502 20.3978 19.502 20V11.875H4.50195V20ZM4.50195 7V10.876H19.502V7C19.502 6.60218 19.3438 6.22076 19.0625 5.93945C18.7812 5.65815 18.3998 5.5 18.002 5.5H16.502V8C16.502 8.13261 16.4492 8.25975 16.3555 8.35352C16.2617 8.44728 16.1346 8.5 16.002 8.5C15.8693 8.5 15.7417 8.44728 15.6479 8.35352C15.5542 8.25975 15.502 8.13261 15.502 8V5.5H8.50195V8C8.50195 8.13261 8.44924 8.25975 8.35547 8.35352C8.2617 8.44728 8.13456 8.5 8.00195 8.5C7.86934 8.5 7.74172 8.44728 7.64795 8.35352C7.55418 8.25975 7.50195 8.13261 7.50195 8V5.5H6.00195C5.8048 5.49974 5.60947 5.53802 5.42725 5.61328C5.24503 5.68855 5.07944 5.79916 4.93994 5.93848C4.80044 6.07779 4.68976 6.24317 4.61426 6.42529C4.53875 6.60741 4.49951 6.80285 4.49951 7H4.50195ZM9.65088 18.853L7.6626 16.8667C7.5777 16.7877 7.52313 16.6818 7.50781 16.5669C7.50781 16.5599 7.50781 16.5529 7.50781 16.5459C7.50781 16.5389 7.50781 16.5401 7.50781 16.5371C7.50781 16.5341 7.50781 16.527 7.50781 16.522C7.50781 16.517 7.50781 16.505 7.50781 16.498C7.50781 16.491 7.50781 16.4811 7.50781 16.4731C7.50781 16.4651 7.50781 16.4659 7.50781 16.4619C7.50781 16.4579 7.50781 16.4528 7.50781 16.4478V16.4238C7.508 16.4158 7.508 16.4079 7.50781 16.3999C7.50781 16.3999 7.50781 16.3927 7.50781 16.3887V16.376C7.50805 16.3726 7.50805 16.3691 7.50781 16.3657V16.3511V16.3447C7.50781 16.3387 7.50767 16.3327 7.51367 16.3267C7.53868 16.2589 7.57849 16.1977 7.62988 16.147L9.62988 14.147C9.72418 14.0559 9.85035 14.0052 9.98145 14.0063C10.1125 14.0075 10.2379 14.0601 10.3306 14.1528C10.4233 14.2455 10.4759 14.3713 10.4771 14.5024C10.4782 14.6335 10.428 14.7597 10.3369 14.854L9.18799 16.001H12.981C13.1136 16.001 13.2407 16.0537 13.3345 16.1475C13.4282 16.2412 13.481 16.3684 13.481 16.501C13.481 16.6336 13.4282 16.7607 13.3345 16.8545C13.2407 16.9483 13.1136 17.001 12.981 17.001H9.18896L10.3359 18.147C10.4061 18.217 10.4538 18.3061 10.4731 18.4033C10.4925 18.5005 10.4824 18.6014 10.4443 18.6929C10.4063 18.7844 10.3418 18.8626 10.2593 18.9175C10.1767 18.9723 10.0801 19.0014 9.98096 19.001C9.85569 18.9966 9.73685 18.9443 9.64893 18.855L9.65088 18.853ZM15.6509 16.853C15.6006 16.8102 15.5621 16.7549 15.5396 16.6929C15.5117 16.6335 15.498 16.5685 15.4995 16.5029C15.4988 16.4374 15.5123 16.3723 15.5381 16.312C15.5639 16.2518 15.602 16.1976 15.6499 16.1528C15.7434 16.0612 15.8686 16.0098 15.9995 16.0098C16.1304 16.0098 16.2561 16.0612 16.3496 16.1528C16.3979 16.1973 16.4365 16.2517 16.4624 16.312C16.4883 16.3723 16.5006 16.4373 16.4995 16.5029C16.502 16.5686 16.4887 16.6338 16.46 16.6929C16.4058 16.8127 16.3098 16.9088 16.1899 16.9629C16.1306 16.9909 16.0651 17.0047 15.9995 17.0029C15.9337 17.0032 15.8689 16.9897 15.8086 16.9634C15.7483 16.937 15.6944 16.8985 15.6499 16.8501L15.6509 16.853Z" fill="#56596A"/>
</svg>
