<svg width="24" height="25" viewBox="0 0 24 25" fill="none" xmlns="http://www.w3.org/2000/svg">
<path d="M19 0.0424805H5C2.23858 0.0424805 0 2.28106 0 5.04248V19.0425C0 21.8039 2.23858 24.0425 5 24.0425H19C21.7614 24.0425 24 21.8039 24 19.0425V5.04248C24 2.28106 21.7614 0.0424805 19 0.0424805Z" fill="#992B6B"/>
<path d="M9.64716 16.7566C9.78833 16.6927 9.94471 16.6702 10.0982 16.6916C10.0982 17.5509 10.0982 18.4106 10.0982 19.2706C10.0993 19.4085 10.1534 19.5407 10.2492 19.6399C10.3451 19.7391 10.4754 19.7977 10.6132 19.8036C10.9132 19.8036 11.2222 19.8036 11.5262 19.8036C11.6455 19.8044 11.7617 19.7656 11.8566 19.6932C11.9515 19.6208 12.0195 19.5189 12.0502 19.4036C12.0739 19.1931 12.0786 18.9809 12.0641 18.7696C12.0672 18.6707 12.106 18.5764 12.1733 18.504C12.2406 18.4315 12.3318 18.3859 12.4302 18.3756C12.5252 18.3676 12.6211 18.3706 12.7171 18.3696C12.7171 18.6696 12.7121 18.9696 12.7171 19.2766C12.719 19.3914 12.7574 19.5027 12.8268 19.5943C12.8962 19.6858 12.993 19.7528 13.1032 19.7856C13.2366 19.8286 13.3801 19.8292 13.5138 19.7873C13.6476 19.7454 13.7651 19.663 13.8502 19.5516C14.0502 19.2416 13.7982 18.8326 14.0072 18.5306C14.1362 18.3466 14.3782 18.3656 14.5752 18.3706C14.5752 18.7016 14.5752 19.0336 14.5752 19.3646C14.5698 19.5563 14.5153 19.7434 14.4169 19.9079C14.3185 20.0725 14.1795 20.2091 14.0132 20.3046C13.7206 20.4503 13.3895 20.4997 13.0672 20.4456C12.9845 20.3457 12.8808 20.2654 12.7635 20.2103C12.6463 20.1551 12.5183 20.1265 12.3887 20.1265C12.2591 20.1265 12.1311 20.1551 12.0138 20.2103C11.8965 20.2654 11.7928 20.3457 11.7102 20.4456C11.3762 20.4626 11.0422 20.4536 10.7102 20.4586C10.5034 20.4674 10.2971 20.4333 10.1042 20.3586C10.1417 20.6757 10.0558 20.9951 9.86415 21.2506C9.7431 21.3998 9.58695 21.5168 9.40965 21.5909C9.23236 21.6651 9.03944 21.6942 8.84816 21.6756C8.49199 21.697 8.13454 21.6796 7.78215 21.6236C7.56195 21.5535 7.36884 21.4169 7.22936 21.2327C7.08987 21.0484 7.01086 20.8255 7.00316 20.5946C7.00316 20.2606 6.99616 19.9266 6.99616 19.5946C6.99587 19.4947 7.03211 19.3982 7.09805 19.3232C7.164 19.2483 7.25509 19.2 7.35416 19.1876C7.45127 19.1796 7.54873 19.1765 7.64615 19.1786C7.64615 19.6206 7.64615 20.0636 7.64615 20.5056C7.64997 20.6441 7.70692 20.7759 7.80521 20.8736C7.90349 20.9713 8.03558 21.0275 8.17415 21.0306C8.43915 21.0306 8.70415 21.0366 8.97415 21.0306C9.11357 21.0169 9.24235 20.95 9.33377 20.8439C9.4252 20.7377 9.47225 20.6005 9.46515 20.4606C9.46515 19.3606 9.46515 18.2506 9.46515 17.1456C9.45778 17.0704 9.4708 16.9946 9.50282 16.9261C9.53485 16.8577 9.5847 16.7991 9.64716 16.7566Z" fill="white"/>
<path d="M15.405 16.7105C15.5243 16.6911 15.6453 16.6844 15.766 16.6905C15.766 17.9419 15.766 19.1932 15.766 20.4445H15.116C15.11 19.3255 15.116 18.2065 15.116 17.0875C15.1188 17.0024 15.1482 16.9203 15.2 16.8526C15.2518 16.785 15.3235 16.7353 15.405 16.7105Z" fill="white"/>
<path d="M11.3601 17.2036C11.4961 17.0646 11.7021 17.0975 11.8771 17.0945C11.8771 17.3185 11.8771 17.5425 11.8771 17.7665H11.2251C11.2271 17.5745 11.1941 17.3426 11.3601 17.2036Z" fill="white"/>
<path d="M12.1883 17.2086C12.3253 17.0656 12.5353 17.0966 12.7143 17.0946V17.7676H12.0593C12.0593 17.5766 12.0303 17.3496 12.1883 17.2086Z" fill="white"/>
<path d="M16.7144 18.3745C16.8142 18.3666 16.9143 18.3643 17.0144 18.3675C17.0144 18.9555 17.0144 19.5435 17.0144 20.1315C17.029 20.3437 17.0108 20.5569 16.9604 20.7635C16.8854 20.9956 16.7482 21.2028 16.5638 21.3625C16.3794 21.5222 16.1548 21.6284 15.9144 21.6695C15.9046 21.4611 15.9103 21.2521 15.9314 21.0445C16.0134 20.9275 16.1584 20.8705 16.2314 20.7445C16.349 20.5282 16.3991 20.2816 16.3754 20.0365C16.3754 19.6115 16.3754 19.1855 16.3754 18.7615C16.3773 18.6674 16.4124 18.5771 16.4744 18.5063C16.5364 18.4355 16.6214 18.3888 16.7144 18.3745Z" fill="white"/>
<path d="M12.8541 20.9856H13.5071C13.5071 21.1736 13.5391 21.3976 13.3861 21.5406C13.2501 21.6896 13.0351 21.6646 12.8541 21.6646C12.8541 21.4386 12.8541 21.2123 12.8541 20.9856Z" fill="white"/>
<path d="M13.689 20.9866H14.346C14.346 21.1786 14.373 21.4096 14.211 21.5496C14.076 21.6926 13.867 21.6636 13.69 21.6656L13.689 20.9866Z" fill="white"/>
<path d="M11.283 1.70055C12.7839 1.53326 14.2963 1.892 15.5622 2.71557C16.828 3.53913 17.7688 4.77647 18.2241 6.21641C18.6793 7.65634 18.6207 9.20964 18.0583 10.6112C17.4959 12.0128 16.4646 13.1757 15.1403 13.9016C13.816 14.6275 12.2809 14.8713 10.7968 14.5914C9.3128 14.3116 7.97187 13.5254 7.00291 12.367C6.03395 11.2087 5.49701 9.74998 5.48371 8.23986C5.47041 6.72973 5.98156 5.26178 6.92997 4.08654C8.01059 2.74953 9.57459 1.89228 11.283 1.70055ZM10.222 3.38355C8.97139 3.59257 7.85187 4.28176 7.10206 5.30425C6.35225 6.32674 6.03144 7.60165 6.20802 8.85724C6.38459 10.1128 7.04457 11.2498 8.04731 12.0258C9.05005 12.8019 10.3162 13.1556 11.576 13.0115C12.5873 12.8945 13.5365 12.4633 14.2899 11.7786C15.0434 11.0939 15.5631 10.1901 15.776 9.19454C15.9409 8.41983 15.9141 7.61657 15.6979 6.85459C15.4817 6.0926 15.0826 5.39496 14.5354 4.82232C13.9882 4.24967 13.3094 3.81935 12.558 3.56878C11.8066 3.3182 11.0054 3.25496 10.224 3.38454L10.222 3.38355Z" fill="white"/>
<path d="M10.2861 3.51361C11.3262 3.35081 12.3909 3.54016 13.311 4.05161C14.2312 4.56305 14.9541 5.36726 15.365 6.33652C15.7758 7.30578 15.8511 8.38453 15.5788 9.40144C15.3065 10.4184 14.7022 11.3152 13.862 11.9494C13.0218 12.5837 11.9937 12.919 10.9411 12.9022C9.88849 12.8854 8.87168 12.5174 8.05213 11.8566C7.23257 11.1959 6.65727 10.2802 6.41757 9.25514C6.17788 8.23005 6.28753 7.15425 6.72913 6.19861C7.05517 5.49283 7.55045 4.87847 8.17096 4.41008C8.79147 3.94169 9.51803 3.63375 10.2861 3.51361ZM11.1561 4.62862C10.3024 4.74954 9.52068 5.1739 8.9542 5.82402C8.38771 6.47414 8.07429 7.30651 8.07132 8.16881C8.06836 9.0311 8.37605 9.86564 8.93805 10.5196C9.50005 11.1736 10.2788 11.6034 11.1317 11.7301C11.9846 11.8569 12.8547 11.6723 13.5826 11.2101C14.3106 10.7479 14.8477 10.0389 15.0957 9.21307C15.3437 8.38721 15.286 7.49965 14.9331 6.71286C14.5802 5.92607 13.9558 5.29268 13.1741 4.92862C12.5445 4.63612 11.8437 4.53193 11.1561 4.62862Z" fill="white"/>
</svg>
