<svg width="24" height="24" viewBox="0 0 24 24" fill="none" xmlns="http://www.w3.org/2000/svg">
<path d="M1.49805 12.0001C1.49805 9.92336 2.11431 7.89328 3.26807 6.16657C4.42182 4.43985 6.06136 3.0941 7.97998 2.29938C9.8986 1.50466 12.0101 1.29658 14.0469 1.70172C16.0837 2.10687 17.9544 3.10681 19.4229 4.57526C20.8913 6.04371 21.8912 7.91492 22.2964 9.95172C22.7015 11.9885 22.4939 14.0995 21.6992 16.0181C20.9045 17.9368 19.5583 19.5768 17.8315 20.7305C16.1048 21.8843 14.0748 22.5001 11.998 22.5001C9.21425 22.4969 6.54559 21.3894 4.57715 19.421C2.6087 17.4525 1.50122 14.7839 1.49805 12.0001ZM2.49805 12.0001C2.49805 13.879 3.05525 15.7156 4.09912 17.2779C5.14299 18.8402 6.62689 20.0579 8.36279 20.7769C10.0987 21.4959 12.0087 21.684 13.8516 21.3174C15.6944 20.9509 17.3872 20.0459 18.7158 18.7173C20.0444 17.3887 20.9494 15.6959 21.3159 13.8531C21.6825 12.0103 21.4939 10.1002 20.7749 8.36432C20.0559 6.62842 18.8386 5.14501 17.2764 4.10114C15.7141 3.05726 13.877 2.50006 11.998 2.50006C9.47964 2.5035 7.06585 3.50532 5.28516 5.28619C3.50446 7.06707 2.50269 9.48165 2.49951 12.0001H2.49805ZM9.14648 17.3541L6.66211 14.8702C6.61338 14.8261 6.57404 14.7728 6.5459 14.7134C6.51776 14.6541 6.50131 14.5896 6.49805 14.524C6.49805 14.518 6.49805 14.5119 6.49805 14.5049C6.49793 14.439 6.5109 14.3735 6.53613 14.3126C6.56136 14.2516 6.59881 14.1965 6.64551 14.15L9.14551 11.65C9.23994 11.559 9.36597 11.509 9.49707 11.5103C9.62817 11.5116 9.75362 11.564 9.84619 11.6568C9.93877 11.7496 9.99124 11.8753 9.99219 12.0064C9.99314 12.1375 9.9423 12.2638 9.85107 12.358L8.2041 14.0049H16.9971C17.1297 14.0049 17.2573 14.0577 17.3511 14.1514C17.4448 14.2452 17.4971 14.3723 17.4971 14.5049C17.4971 14.6376 17.4448 14.7647 17.3511 14.8585C17.2573 14.9522 17.1297 15.0049 16.9971 15.0049H8.20215L9.8501 16.6519C9.89666 16.6984 9.93378 16.7538 9.95898 16.8145C9.98419 16.8753 9.99707 16.9402 9.99707 17.0059C9.99707 17.0717 9.98419 17.1371 9.95898 17.1978C9.93378 17.2586 9.89666 17.3135 9.8501 17.3599C9.756 17.4535 9.62883 17.5063 9.49609 17.5069C9.36441 17.5045 9.23937 17.4504 9.14746 17.356L9.14648 17.3541ZM14.1465 12.3541C14.0999 12.3076 14.0628 12.2522 14.0376 12.1915C14.0124 12.1307 13.9995 12.0658 13.9995 12.0001C13.9995 11.9343 14.0124 11.8689 14.0376 11.8082C14.0628 11.7474 14.0999 11.6925 14.1465 11.6461L15.7915 10.001H6.99951C6.8669 10.001 6.73928 9.94832 6.64551 9.85455C6.55174 9.76079 6.49951 9.63365 6.49951 9.50104C6.49951 9.36843 6.55174 9.24129 6.64551 9.14752C6.73928 9.05375 6.8669 9.00104 6.99951 9.00104H15.7915L14.1455 7.35407C14.0582 7.25907 14.0109 7.13394 14.0137 7.00494C14.0164 6.87595 14.0689 6.75285 14.1602 6.66168C14.2515 6.57051 14.3744 6.51827 14.5034 6.51569C14.6324 6.51311 14.7572 6.56057 14.8521 6.64801L17.3413 9.13678C17.3547 9.14937 17.3675 9.16277 17.3794 9.17682C17.4613 9.27258 17.504 9.39565 17.499 9.52155C17.494 9.64744 17.4413 9.76706 17.3521 9.85602L14.8521 12.356C14.8055 12.4027 14.7504 12.4397 14.6895 12.4649C14.6285 12.4901 14.563 12.5031 14.4971 12.503C14.4317 12.5029 14.3669 12.4898 14.3066 12.4644C14.2464 12.439 14.1922 12.4018 14.1465 12.355V12.3541Z" fill="#56596A"/>
</svg>
