<svg width="24" height="24" viewBox="0 0 24 24" fill="none" xmlns="http://www.w3.org/2000/svg">
<path d="M21.6465 22.3552L16.6465 17.3552C16.5613 17.2599 16.516 17.1357 16.5195 17.008C16.5231 16.8803 16.5757 16.7585 16.666 16.6682C16.7564 16.5778 16.8777 16.5257 17.0054 16.5222C17.1331 16.5186 17.2573 16.564 17.3525 16.6491L22.3525 21.6491C22.4464 21.743 22.4995 21.8703 22.4995 22.0031C22.4995 22.1359 22.4464 22.2632 22.3525 22.3571C22.2587 22.451 22.1313 22.5036 21.9985 22.5036C21.8658 22.5036 21.7384 22.451 21.6445 22.3571L21.6465 22.3552ZM1.50195 10.0021C1.50195 8.32101 2.00009 6.6778 2.93408 5.27998C3.86807 3.88216 5.19585 2.79247 6.74902 2.14912C8.3022 1.50578 10.0113 1.33726 11.6602 1.66523C13.309 1.99321 14.8235 2.80315 16.0122 3.99189C17.201 5.18064 18.0104 6.69511 18.3384 8.34394C18.6664 9.99278 18.4978 11.7019 17.8545 13.2551C17.2111 14.8082 16.1219 16.1355 14.7241 17.0695C13.3263 18.0035 11.6831 18.5021 10.002 18.5021C7.74817 18.4995 5.58704 17.6029 3.99365 16.009C2.40027 14.415 1.50478 12.254 1.50293 10.0002L1.50195 10.0021ZM2.50195 10.0021C2.50195 11.4855 2.94151 12.9353 3.76562 14.1687C4.58974 15.402 5.76139 16.3637 7.13184 16.9313C8.50228 17.499 10.01 17.6475 11.4648 17.3581C12.9197 17.0687 14.2563 16.3543 15.3052 15.3054C16.3541 14.2565 17.068 12.9199 17.3574 11.465C17.6468 10.0102 17.4983 8.50248 16.9307 7.13203C16.363 5.76158 15.4018 4.59042 14.1685 3.76631C12.9351 2.9422 11.4853 2.50215 10.002 2.50215C8.01383 2.50426 6.10767 3.29476 4.70166 4.70039C3.29565 6.10602 2.5046 8.01207 2.50195 10.0002V10.0021Z" fill="#56596A"/>
</svg>
