<svg width="24" height="24" viewBox="0 0 24 24" fill="none" xmlns="http://www.w3.org/2000/svg">
<path d="M7.854 21.501C7.32142 21.5024 6.80208 21.333 6.37256 21.0181C5.94304 20.7032 5.62568 20.2593 5.4668 19.751L1.58154 7.29004L1.50684 6.82764L1.5 4.31397C1.49987 4.07597 1.54619 3.84002 1.63721 3.62012C1.72822 3.40022 1.86199 3.20051 2.03027 3.03223C2.19856 2.86394 2.39826 2.73066 2.61816 2.63965C2.83807 2.54863 3.07402 2.50182 3.31201 2.50195H3.75586C3.99376 2.50182 4.22943 2.54861 4.44922 2.63965C4.66901 2.73069 4.86849 2.86391 5.03662 3.03223C5.20475 3.20054 5.33791 3.40072 5.42871 3.62061C5.51951 3.8405 5.56631 4.07607 5.56592 4.31397V6.08594C5.56735 6.39196 5.61758 6.69569 5.71484 6.98584L7.00781 10.8398H11.1479C11.6509 10.8376 12.1426 10.9881 12.5581 11.2715C12.9736 11.5549 13.2931 11.9577 13.4746 12.4268L14.4209 14.8359H14.6919C14.966 14.8399 15.2355 14.9048 15.4814 15.0259C15.7274 15.1469 15.9435 15.3209 16.1138 15.5356L18.5967 17.9189C18.6757 17.994 18.7774 18.0411 18.8857 18.0532C18.9941 18.0653 19.1031 18.0416 19.1968 17.9858L20.8687 16.9858C21.0035 16.9052 21.1565 16.8598 21.3135 16.8535C21.4704 16.8473 21.6263 16.8805 21.7671 16.9502C21.9079 17.0198 22.0289 17.1234 22.1191 17.252C22.2094 17.3805 22.266 17.53 22.2837 17.686L22.4839 19.48C22.4889 19.54 22.4927 19.603 22.4927 19.668C22.4956 20.1489 22.3081 20.6113 21.9707 20.9541C21.6333 21.2969 21.1738 21.4923 20.6929 21.4971L7.854 21.501ZM2.73877 3.73779C2.66256 3.81288 2.60224 3.90225 2.56104 4.00098C2.51983 4.0997 2.49832 4.20601 2.49854 4.31299V6.75098L2.55371 7.06397L6.42285 19.4507C6.51758 19.7557 6.70769 20.0223 6.96533 20.2109C7.22297 20.3996 7.53466 20.5008 7.854 20.499H20.689C20.9048 20.4972 21.1107 20.4096 21.2622 20.2559C21.4137 20.1021 21.4979 19.8945 21.4966 19.6787L21.3027 17.8921L19.709 18.8418C19.4271 19.0073 19.0986 19.0769 18.7739 19.0396C18.4492 19.0022 18.1456 18.8599 17.9087 18.6348L15.3809 16.2041C15.301 16.0943 15.1973 16.004 15.0776 15.9399C14.958 15.8759 14.8256 15.8396 14.6899 15.834H8.97998C8.55888 15.8172 8.15386 15.6664 7.82422 15.4038C7.49458 15.1412 7.25748 14.7807 7.14697 14.374L6.18799 11.519C6.18799 11.505 6.17783 11.492 6.17383 11.478L4.77393 7.30176C4.64331 6.90922 4.57561 6.49865 4.57373 6.08496V4.31104C4.57386 4.20445 4.5529 4.09851 4.51221 4C4.47151 3.90149 4.41175 3.81223 4.33643 3.73682C4.2611 3.6614 4.1717 3.60137 4.07324 3.56055C3.97478 3.51973 3.86928 3.49902 3.7627 3.49902H3.31885C3.21092 3.49863 3.104 3.51947 3.00439 3.56104C2.90479 3.6026 2.81441 3.66373 2.73877 3.74072V3.73779ZM21.1387 17.416H21.1299H21.1387ZM8.09863 14.085C8.14899 14.2897 8.26338 14.4728 8.42529 14.6079C8.5872 14.743 8.78805 14.8231 8.99854 14.8359H13.3457L12.5459 12.792C12.4355 12.5108 12.2425 12.2695 11.9927 12.0996C11.7429 11.9297 11.4481 11.8391 11.146 11.8398H7.3457L8.09863 14.085ZM16.4985 11.499C15.8355 11.499 15.1998 11.2354 14.731 10.7666C14.2621 10.2978 13.9985 9.66207 13.9985 8.99902V5.49902C13.9985 5.1012 14.1567 4.71929 14.438 4.43799C14.7193 4.15668 15.1007 3.99902 15.4985 3.99902H18.4985C18.8964 3.99902 19.2783 4.15668 19.5596 4.43799C19.8409 4.71929 19.9985 5.1012 19.9985 5.49902V8.99902C19.9985 9.66207 19.7354 10.2978 19.2666 10.7666C18.7978 11.2354 18.1616 11.499 17.4985 11.499H16.4985ZM14.9985 8.99902C14.9985 9.39685 15.1567 9.77827 15.438 10.0596C15.7193 10.3409 16.1007 10.499 16.4985 10.499H17.4985C17.8964 10.499 18.2783 10.3409 18.5596 10.0596C18.8409 9.77827 18.9985 9.39685 18.9985 8.99902V7.99902H14.9985V8.99902ZM18.9985 6.99902V5.49902C18.9985 5.36642 18.9463 5.23928 18.8525 5.14551C18.7588 5.05174 18.6311 4.99902 18.4985 4.99902H15.4985C15.3659 4.99902 15.2388 5.05174 15.145 5.14551C15.0513 5.23928 14.9985 5.36642 14.9985 5.49902V6.99902H18.9985ZM16.4985 6.49902C16.3659 6.49902 16.2388 6.44631 16.145 6.35254C16.0513 6.25877 15.9985 6.13163 15.9985 5.99902C15.9985 5.86642 16.0513 5.73928 16.145 5.64551C16.2388 5.55174 16.3659 5.49902 16.4985 5.49902H17.4985C17.6311 5.49902 17.7588 5.55174 17.8525 5.64551C17.9463 5.73928 17.9985 5.86642 17.9985 5.99902C17.9985 6.13163 17.9463 6.25877 17.8525 6.35254C17.7588 6.44631 17.6311 6.49902 17.4985 6.49902H16.4985Z" fill="#56596A"/>
</svg>
