<svg width="24" height="24" viewBox="0 0 24 24" fill="none" xmlns="http://www.w3.org/2000/svg">
<path d="M3.00195 19.5004C2.60413 19.5004 2.22222 19.3423 1.94092 19.061C1.65961 18.7797 1.50195 18.3982 1.50195 18.0004V10.0004C1.50195 9.60259 1.65961 9.22117 1.94092 8.93987C2.22222 8.65857 2.60413 8.50042 3.00195 8.50042H12.2168C12.2652 8.4931 12.3144 8.4931 12.3628 8.50042H14.3008C14.4334 8.50042 14.5605 8.55313 14.6543 8.6469C14.7481 8.74067 14.8008 8.86781 14.8008 9.00042C14.8008 9.13303 14.7481 9.26016 14.6543 9.35393C14.5605 9.4477 14.4334 9.50042 14.3008 9.50042H12.5767L10.147 13.7543C10.1031 13.8303 10.0399 13.8935 9.96387 13.9374C9.88786 13.9813 9.80163 14.0043 9.71387 14.0043C9.62669 14.0042 9.54097 13.9819 9.46484 13.9394C9.34994 13.8734 9.26564 13.7645 9.23096 13.6366C9.19627 13.5088 9.21397 13.3722 9.27979 13.2573L11.4258 9.50042H3.00293C2.87032 9.50042 2.74318 9.55313 2.64941 9.6469C2.55565 9.74067 2.50293 9.86781 2.50293 10.0004V18.0004C2.50293 18.133 2.55565 18.2602 2.64941 18.3539C2.74318 18.4477 2.87032 18.5004 3.00293 18.5004H17.0029L18.2739 16.2944C18.3052 16.2346 18.3482 16.1818 18.4004 16.1391C18.4526 16.0964 18.5129 16.0646 18.5776 16.0458C18.6424 16.027 18.7099 16.0216 18.7769 16.0297C18.8438 16.0378 18.9084 16.0594 18.9668 16.0932C19.0252 16.1269 19.0762 16.1721 19.1167 16.226C19.1572 16.28 19.1866 16.3417 19.2026 16.4072C19.2187 16.4727 19.2209 16.5408 19.21 16.6074C19.199 16.6739 19.1748 16.7375 19.1387 16.7944L18.1558 18.4994H21.002C21.1346 18.4994 21.2617 18.4467 21.3555 18.353C21.4492 18.2592 21.502 18.132 21.502 17.9994V13.2612C21.502 13.1286 21.5542 13.0014 21.6479 12.9076C21.7417 12.8139 21.8693 12.7612 22.002 12.7612C22.1346 12.7612 22.2617 12.8139 22.3555 12.9076C22.4492 13.0014 22.502 13.1286 22.502 13.2612V17.9994C22.502 18.3973 22.3438 18.7787 22.0625 19.06C21.7812 19.3413 21.3998 19.4994 21.002 19.4994L3.00195 19.5004ZM4.80176 15.2504V14.9955C4.80876 14.0165 4.82183 12.3794 4.04883 11.6054L4.75488 10.8974C5.82488 11.9654 5.81073 13.8665 5.80273 14.9975V15.2465L4.80176 15.2504ZM17.6479 9.35051C17.6014 9.30407 17.5643 9.24866 17.5391 9.18792C17.5139 9.12717 17.501 9.06228 17.501 8.99651C17.501 8.93074 17.5139 8.86536 17.5391 8.80462C17.5643 8.74387 17.6014 8.68895 17.6479 8.64251L20.7949 5.49651H19.001C18.8684 5.49651 18.7407 5.44379 18.647 5.35003C18.5532 5.25626 18.501 5.12912 18.501 4.99651C18.501 4.8639 18.5532 4.73676 18.647 4.643C18.7407 4.54923 18.8684 4.49651 19.001 4.49651H21.9819C22.0509 4.4937 22.1193 4.50513 22.1836 4.5302C22.2479 4.55528 22.3066 4.59327 22.3555 4.64202C22.4043 4.69077 22.4426 4.74916 22.4678 4.81341C22.493 4.87765 22.5046 4.94659 22.502 5.01555V7.99553C22.502 8.12814 22.4492 8.25528 22.3555 8.34905C22.2617 8.44282 22.1346 8.49553 22.002 8.49553C21.8693 8.49553 21.7417 8.44282 21.6479 8.34905C21.5542 8.25528 21.502 8.12814 21.502 7.99553V6.20354L18.355 9.34954C18.3085 9.3961 18.2531 9.43273 18.1924 9.45794C18.1316 9.48314 18.0667 9.49602 18.001 9.49602C17.9352 9.49602 17.8698 9.48314 17.8091 9.45794C17.7483 9.43273 17.6934 9.3961 17.647 9.34954L17.6479 9.35051Z" fill="#56596A"/>
</svg>
