<svg width="24" height="25" viewBox="0 0 24 25" fill="none" xmlns="http://www.w3.org/2000/svg">
<path d="M22.154 13.846C22.3987 13.8462 22.6333 13.9436 22.8064 14.1166C22.9794 14.2896 23.0767 14.5243 23.077 14.769V22.154C23.0765 22.3986 22.9791 22.633 22.8061 22.806C22.6331 22.979 22.3986 23.0764 22.154 23.077H14.769C14.5244 23.0764 14.2899 22.979 14.1169 22.806C13.9439 22.633 13.8465 22.3986 13.846 22.154V14.774C13.8463 14.5292 13.9436 14.2947 14.1166 14.1216C14.2897 13.9486 14.5243 13.8512 14.769 13.851H22.154M22.154 12.928H14.769C14.2794 12.928 13.8099 13.1225 13.4637 13.4687C13.1175 13.8149 12.923 14.2844 12.923 14.774V22.159C12.923 22.6486 13.1175 23.1181 13.4637 23.4643C13.8099 23.8105 14.2794 24.005 14.769 24.005H22.154C22.6436 24.005 23.1131 23.8105 23.4593 23.4643C23.8055 23.1181 24 22.6486 24 22.159V14.774C24 14.2844 23.8055 13.8149 23.4593 13.4687C23.1131 13.1225 22.6436 12.928 22.154 12.928Z" fill="#56596A"/>
<path d="M22.154 0.923004C22.3987 0.923269 22.6333 1.0206 22.8064 1.19363C22.9794 1.36667 23.0767 1.60129 23.077 1.84601V9.23099C23.0765 9.47562 22.9791 9.71007 22.8061 9.88306C22.6331 10.056 22.3986 10.1535 22.154 10.154H14.769C14.5244 10.1535 14.2899 10.056 14.1169 9.88306C13.9439 9.71007 13.8465 9.47562 13.846 9.23099V1.85098C13.8463 1.60627 13.9436 1.37168 14.1166 1.19864C14.2897 1.0256 14.5243 0.928274 14.769 0.928009H22.154M22.154 0.00500488H14.769C14.2794 0.00500488 13.8099 0.199493 13.4637 0.545685C13.1175 0.891877 12.923 1.36139 12.923 1.85098V9.23599C12.923 9.72558 13.1175 10.1951 13.4637 10.5413C13.8099 10.8875 14.2794 11.082 14.769 11.082H22.154C22.6436 11.082 23.1131 10.8875 23.4593 10.5413C23.8055 10.1951 24 9.72558 24 9.23599V1.85098C24 1.36139 23.8055 0.891877 23.4593 0.545685C23.1131 0.199493 22.6436 0.00500488 22.154 0.00500488Z" fill="#56596A"/>
<path d="M9.231 13.846C9.47572 13.8462 9.71032 13.9436 9.88336 14.1166C10.0564 14.2896 10.1537 14.5243 10.154 14.769V22.154C10.1535 22.3986 10.0561 22.633 9.88307 22.806C9.71009 22.979 9.47564 23.0764 9.231 23.077H1.84599C1.60136 23.0764 1.36691 22.979 1.19392 22.806C1.02094 22.633 0.923533 22.3986 0.923004 22.154V14.774C0.923269 14.5292 1.0206 14.2947 1.19363 14.1216C1.36667 13.9486 1.60128 13.8512 1.84599 13.851H9.231M9.231 12.928H1.84599C1.3564 12.928 0.886872 13.1225 0.54068 13.4687C0.194488 13.8149 0 14.2844 0 14.774V22.159C0 22.6486 0.194488 23.1181 0.54068 23.4643C0.886872 23.8105 1.3564 24.005 1.84599 24.005H9.231C9.72059 24.005 10.1901 23.8105 10.5363 23.4643C10.8825 23.1181 11.077 22.6486 11.077 22.159V14.774C11.077 14.2844 10.8825 13.8149 10.5363 13.4687C10.1901 13.1225 9.72059 12.928 9.231 12.928Z" fill="#56596A"/>
<path d="M9.231 0.923004C9.47572 0.923269 9.71032 1.0206 9.88336 1.19363C10.0564 1.36667 10.1537 1.60129 10.154 1.84601V9.23099C10.1535 9.47562 10.0561 9.71007 9.88307 9.88306C9.71009 10.056 9.47564 10.1535 9.231 10.154H1.84599C1.60136 10.1535 1.36691 10.056 1.19392 9.88306C1.02094 9.71007 0.923533 9.47562 0.923004 9.23099V1.85098C0.923269 1.60627 1.0206 1.37168 1.19363 1.19864C1.36667 1.0256 1.60128 0.928274 1.84599 0.928009H9.231M9.231 0.00500488H1.84599C1.3564 0.00500488 0.886872 0.199493 0.54068 0.545685C0.194488 0.891877 0 1.36139 0 1.85098V9.23599C0 9.72558 0.194488 10.1951 0.54068 10.5413C0.886872 10.8875 1.3564 11.082 1.84599 11.082H9.231C9.72059 11.082 10.1901 10.8875 10.5363 10.5413C10.8825 10.1951 11.077 9.72558 11.077 9.23599V1.85098C11.077 1.36139 10.8825 0.891877 10.5363 0.545685C10.1901 0.199493 9.72059 0.00500488 9.231 0.00500488Z" fill="#56596A"/>
</svg>
