<svg width="25" height="24" viewBox="0 0 25 24" fill="none" xmlns="http://www.w3.org/2000/svg">
<path d="M22.001 13H15.001C13.8964 13 13.001 13.8954 13.001 15V22C13.001 23.1046 13.8964 24 15.001 24H22.001C23.1055 24 24.001 23.1046 24.001 22V15C24.001 13.8954 23.1055 13 22.001 13Z" fill="#5439AC"/>
<path d="M22.001 0H15.001C13.8964 0 13.001 0.89543 13.001 2V9C13.001 10.1046 13.8964 11 15.001 11H22.001C23.1055 11 24.001 10.1046 24.001 9V2C24.001 0.89543 23.1055 0 22.001 0Z" fill="#5439AC"/>
<path d="M9.00098 13H2.00098C0.896407 13 0.000976562 13.8954 0.000976562 15V22C0.000976562 23.1046 0.896407 24 2.00098 24H9.00098C10.1055 24 11.001 23.1046 11.001 22V15C11.001 13.8954 10.1055 13 9.00098 13Z" fill="#5439AC"/>
<path d="M9.00098 0H2.00098C0.896407 0 0.000976562 0.89543 0.000976562 2V9C0.000976562 10.1046 0.896407 11 2.00098 11H9.00098C10.1055 11 11.001 10.1046 11.001 9V2C11.001 0.89543 10.1055 0 9.00098 0Z" fill="#5439AC"/>
</svg>
