<svg width="24" height="24" viewBox="0 0 24 24" fill="none" xmlns="http://www.w3.org/2000/svg">
<path d="M14.0382 22.5H9.94639C9.54813 22.4987 9.16634 22.3403 8.88389 22.0596C8.60143 21.7788 8.44128 21.3982 8.4376 21V18.9209C8.43487 18.8095 8.39556 18.7021 8.32627 18.6147C8.25699 18.5274 8.16122 18.465 8.05332 18.437C7.9866 18.4185 7.91692 18.4136 7.84824 18.4224C7.77956 18.4311 7.71336 18.4531 7.65342 18.4878L5.81748 19.5278C5.47028 19.7271 5.05863 19.782 4.67149 19.6802C4.28434 19.5784 3.95246 19.3281 3.74815 18.9839L1.7042 15.5161C1.60233 15.3415 1.53708 15.1478 1.51182 14.9473C1.48656 14.7467 1.50184 14.5435 1.55723 14.3491C1.6106 14.1608 1.70126 13.985 1.82334 13.832C1.94542 13.679 2.0964 13.5518 2.26817 13.458L4.09531 12.4238C4.17902 12.3794 4.24857 12.3123 4.29551 12.23C4.3266 12.1738 4.34595 12.1121 4.35313 12.0483C4.3603 11.9845 4.35485 11.9196 4.33701 11.8579C4.31918 11.7962 4.28973 11.7386 4.24961 11.6885C4.20949 11.6383 4.1594 11.5968 4.10313 11.5659L2.26719 10.5278C2.09394 10.4309 1.94169 10.3004 1.81943 10.144C1.69718 9.98766 1.6075 9.80869 1.55527 9.61719C1.50305 9.42568 1.4893 9.22561 1.51524 9.02881C1.54117 8.83201 1.60609 8.64214 1.70615 8.4707L3.75059 5.00586C3.95422 4.66035 4.28564 4.40937 4.67344 4.30713C5.06124 4.20489 5.47388 4.25975 5.82139 4.45996L7.65342 5.49805C7.7351 5.54015 7.82438 5.56445 7.91611 5.56982C8.05258 5.56985 8.18392 5.51645 8.28135 5.4209C8.37877 5.32534 8.43498 5.19552 8.4376 5.05908V3C8.43899 2.80034 8.47993 2.60262 8.5582 2.41895C8.63648 2.23527 8.75011 2.06897 8.89317 1.92969C9.1817 1.65351 9.56602 1.49977 9.96543 1.5H14.0436C14.44 1.50883 14.8195 1.66137 15.1114 1.92969C15.2539 2.06828 15.3675 2.23416 15.4454 2.41699C15.5233 2.59982 15.5642 2.79637 15.5655 2.99512V5.06982C15.5684 5.15523 15.592 5.2388 15.6344 5.31299C15.7034 5.43252 15.817 5.51985 15.9503 5.55566C16.0836 5.59148 16.2257 5.57275 16.3453 5.50391L18.1822 4.46387C18.5296 4.26486 18.9415 4.21025 19.3287 4.31201C19.7159 4.41378 20.0479 4.66371 20.2525 5.00781L22.2945 8.47607L22.3165 8.5127C22.5071 8.85862 22.5525 9.26605 22.443 9.64551C22.3335 10.025 22.0781 10.3459 21.7325 10.5371L19.9054 11.5708C19.8219 11.6147 19.7524 11.6811 19.7052 11.7627C19.674 11.819 19.6543 11.8814 19.6471 11.9453C19.6399 12.0093 19.6454 12.0739 19.6632 12.1357C19.681 12.1976 19.7109 12.2554 19.7511 12.3057C19.7912 12.356 19.8412 12.3976 19.8976 12.4287L21.7306 13.4668C21.9043 13.5632 22.0567 13.6937 22.1793 13.8501C22.3019 14.0065 22.3918 14.1857 22.4439 14.3774C22.4961 14.5692 22.5096 14.7694 22.483 14.9663C22.4564 15.1632 22.3903 15.3529 22.2892 15.5239L20.2481 18.9858C20.0445 19.3318 19.7125 19.5834 19.3243 19.686C18.9362 19.7886 18.5234 19.7338 18.1754 19.5337L16.3453 18.4961C16.2669 18.4497 16.1776 18.4245 16.0865 18.4233C15.9954 18.4222 15.9058 18.4453 15.8263 18.4897C15.7467 18.5342 15.6802 18.5986 15.6334 18.6768C15.5866 18.7549 15.5608 18.844 15.5592 18.9351V20.999C15.5552 21.3979 15.3942 21.7787 15.1109 22.0596C14.8277 22.3404 14.4454 22.4985 14.0465 22.499L14.0382 22.5ZM8.31113 17.4741C8.63018 17.5599 8.91267 17.7468 9.11582 18.0073C9.31897 18.2678 9.4322 18.5876 9.4376 18.918V21.001C9.44048 21.1348 9.49567 21.262 9.59141 21.3555C9.68714 21.449 9.8155 21.5013 9.94932 21.501H14.0494C14.1849 21.5018 14.3149 21.4492 14.4117 21.3545C14.5085 21.2597 14.5644 21.1306 14.5665 20.9951V18.9268C14.5733 18.5276 14.736 18.1471 15.0201 17.8667C15.3043 17.5863 15.6873 17.4283 16.0865 17.4268H16.1134C16.3697 17.4329 16.6206 17.5017 16.8443 17.627L18.6754 18.667C18.7965 18.7353 18.9394 18.7537 19.0738 18.7183C19.2083 18.6828 19.3235 18.5962 19.3951 18.4771L21.4361 15.0161C21.4684 14.9611 21.4899 14.9001 21.4986 14.8369C21.5074 14.7738 21.5035 14.7096 21.4874 14.6479C21.4554 14.5225 21.3752 14.4149 21.2643 14.3481L19.4142 13.3027C19.1823 13.1737 18.9894 12.9852 18.8551 12.7563C18.7208 12.5275 18.65 12.2668 18.6505 12.0015C18.651 11.7361 18.7228 11.4759 18.858 11.2476C18.9932 11.0192 19.1871 10.8312 19.4195 10.7031L21.2462 9.66895C21.361 9.60709 21.4465 9.50232 21.484 9.37744C21.5215 9.25257 21.5081 9.11778 21.4464 9.00293L21.8692 8.73389L21.4396 8.98779L19.3976 5.52588C19.3264 5.40669 19.2107 5.32028 19.0763 5.28564C18.9418 5.251 18.7992 5.27087 18.6793 5.34082L16.8463 6.37695C16.497 6.57643 16.0828 6.62963 15.6944 6.5249C15.306 6.42017 14.9752 6.16593 14.7735 5.81787C14.6459 5.59367 14.5769 5.34096 14.5733 5.08301V3C14.5707 2.86601 14.5156 2.73846 14.4195 2.64502C14.3178 2.55939 14.1909 2.50856 14.0582 2.5H9.96836C9.83729 2.52124 9.7122 2.57073 9.60215 2.64502C9.5537 2.69146 9.51533 2.74692 9.48887 2.80859C9.46241 2.87027 9.4486 2.93679 9.44834 3.00391V5.06982C9.44128 5.46925 9.27779 5.84996 8.99326 6.13037C8.70873 6.41079 8.32585 6.56858 7.92637 6.56982H7.89951C7.64256 6.56586 7.39085 6.49736 7.16758 6.37012L5.33848 5.33203C5.21741 5.26346 5.07408 5.24477 4.93955 5.28027C4.80502 5.31578 4.68973 5.40259 4.61826 5.52197L2.5792 8.98096C2.51323 9.09241 2.49444 9.22559 2.52647 9.35107C2.54181 9.41366 2.56934 9.47237 2.60801 9.52393C2.64668 9.57548 2.69577 9.61862 2.75156 9.65088L4.59922 10.6958C4.83003 10.8254 5.02214 11.0142 5.15586 11.2427C5.28958 11.4711 5.36045 11.7314 5.36045 11.9961C5.36045 12.2608 5.28958 12.5206 5.15586 12.749C5.02214 12.9775 4.83003 13.1663 4.59922 13.2959L2.77256 14.332C2.71481 14.3618 2.66343 14.4029 2.62217 14.4531C2.5809 14.5033 2.55038 14.5616 2.53233 14.624C2.49708 14.7494 2.51214 14.8836 2.57432 14.998L4.62412 18.4717C4.69568 18.5899 4.81075 18.6755 4.94443 18.7104C5.07812 18.7454 5.22021 18.7268 5.34043 18.6587L7.17246 17.6221C7.40147 17.4902 7.66116 17.4211 7.92539 17.4219C8.05579 17.4239 8.18517 17.4423 8.31113 17.4761V17.4741ZM11.9112 16.5C10.7178 16.5 9.5735 16.0256 8.72959 15.1816C7.88568 14.3377 7.41123 13.1935 7.41123 12C7.41123 10.8065 7.88568 9.66179 8.72959 8.81787C9.5735 7.97396 10.7178 7.5 11.9112 7.5H12.0792C13.2727 7.5 14.4174 7.97396 15.2613 8.81787C16.1052 9.66179 16.5792 10.8065 16.5792 12C16.5792 13.1935 16.1052 14.3377 15.2613 15.1816C14.4174 16.0256 13.2727 16.5 12.0792 16.5H11.9112ZM8.41123 12C8.41255 12.9279 8.782 13.8171 9.43809 14.4731C10.0942 15.1292 10.9834 15.4987 11.9112 15.5H12.0792C13.0075 15.5 13.8979 15.131 14.5543 14.4746C15.2107 13.8182 15.5792 12.9283 15.5792 12C15.5792 11.0717 15.2107 10.1813 14.5543 9.5249C13.8979 8.86853 13.0075 8.5 12.0792 8.5H11.9112C10.9838 8.50133 10.0948 8.87062 9.43955 9.52686C8.78426 10.1831 8.41611 11.0726 8.41611 12H8.41123Z" fill="#56596A"/>
</svg>
