<svg width="24" height="24" viewBox="0 0 24 24" fill="none" xmlns="http://www.w3.org/2000/svg">
<path d="M15.502 19.0005C15.5018 18.6859 15.5441 18.3726 15.6279 18.0693L7.74267 14.1743C7.28508 14.7515 6.65725 15.1696 5.94824 15.3691C5.23923 15.5686 4.48536 15.5395 3.79394 15.2856C3.10253 15.0318 2.50864 14.566 2.09717 13.9551C1.68569 13.3442 1.47736 12.6194 1.50195 11.8833C1.52654 11.1472 1.78305 10.4375 2.23437 9.85545C2.6857 9.27339 3.30881 8.84825 4.01562 8.6411C4.72244 8.43395 5.47678 8.45528 6.1709 8.70164C6.86501 8.94801 7.46378 9.40676 7.88183 10.0132L15.7178 6.21336C15.41 5.38154 15.4285 4.46405 15.77 3.64549C16.1115 2.82694 16.7504 2.16823 17.5581 1.80174C18.3658 1.43525 19.2822 1.38836 20.123 1.6704C20.9639 1.95243 21.667 2.54239 22.0903 3.32176C22.5137 4.10114 22.6259 5.01167 22.4048 5.87059C22.1836 6.72951 21.6455 7.47313 20.8984 7.95116C20.1513 8.42918 19.251 8.60637 18.3784 8.44725C17.5059 8.28813 16.7261 7.80421 16.1958 7.09325L8.32764 10.9116C8.58515 11.6959 8.55706 12.5459 8.24853 13.3115L16.0298 17.1562C16.4757 16.4394 17.1658 15.9079 17.9727 15.6597C18.7795 15.4114 19.6487 15.463 20.4204 15.8052C21.1921 16.1474 21.8142 16.7573 22.1719 17.522C22.5296 18.2866 22.5991 19.1546 22.3672 19.9663C22.1353 20.778 21.6179 21.4787 20.9102 21.9389C20.2025 22.3992 19.3521 22.5883 18.5161 22.4712C17.6801 22.354 16.9143 21.9383 16.3603 21.3013C15.8064 20.6642 15.5018 19.8486 15.502 19.0044V19.0005ZM16.502 19.0005C16.5014 19.6094 16.723 20.1977 17.1255 20.6548C17.5279 21.1118 18.0834 21.4063 18.6875 21.4829C19.2916 21.5595 19.903 21.4125 20.4067 21.0703C20.9105 20.7281 21.2719 20.2139 21.4233 19.624C21.5747 19.0342 21.5056 18.4092 21.229 17.8667C20.9524 17.3242 20.4872 16.9016 19.9209 16.6777C19.3546 16.4539 18.7256 16.4441 18.1528 16.6509C17.58 16.8576 17.1024 17.2663 16.8096 17.8003L16.71 18.0005C16.572 18.3158 16.5012 18.6563 16.502 19.0005V19.0005ZM2.50195 12.0005C2.50263 12.5419 2.67871 13.0684 3.00439 13.501C3.33008 13.9335 3.78744 14.2486 4.30762 14.3989C4.82779 14.5492 5.38295 14.5266 5.88916 14.3345C6.39537 14.1423 6.82536 13.7911 7.11474 13.3335L7.3457 12.8662C7.56976 12.2591 7.54953 11.5892 7.28955 10.9966L7.20752 10.8271C6.94557 10.3349 6.52701 9.94451 6.01758 9.71776C5.50814 9.491 4.93707 9.44132 4.39599 9.57616C3.85492 9.71099 3.3747 10.0226 3.03125 10.4619C2.68779 10.9012 2.50079 11.4428 2.50049 12.0005H2.50195ZM19.002 7.50047C19.5363 7.50046 20.0564 7.32905 20.4863 7.0117C20.9163 6.69436 21.2332 6.24793 21.3906 5.73729C21.5481 5.22665 21.5379 4.67866 21.3613 4.1743C21.1848 3.66994 20.8512 3.23551 20.4097 2.93456C19.9681 2.6336 19.4417 2.48186 18.9077 2.50194C18.3737 2.52202 17.8601 2.71311 17.4424 3.04637C17.0247 3.37963 16.7251 3.8378 16.5869 4.35399C16.4487 4.87018 16.4794 5.41716 16.6748 5.91454L16.8418 6.25829C17.0617 6.63596 17.3765 6.94954 17.7554 7.16747C18.1342 7.38539 18.5635 7.50022 19.0005 7.50047H19.002Z" fill="#56596A"/>
</svg>
