<svg width="22" height="14" viewBox="0 0 22 14" fill="none" xmlns="http://www.w3.org/2000/svg">
<g id="show">
<path id="Path 1528 (Stroke)" fill-rule="evenodd" clip-rule="evenodd" d="M1.63817 7C1.76453 7.15396 1.93921 7.36036 2.15758 7.6031C2.65168 8.15235 3.36637 8.88428 4.24799 9.61505C6.02541 11.0884 8.41259 12.5 11 12.5C13.5875 12.5 15.9746 11.0884 17.7521 9.61505C18.6337 8.88428 19.3484 8.15235 19.8425 7.6031C20.0608 7.36036 20.2355 7.15396 20.3619 7C20.2355 6.84604 20.0608 6.63964 19.8425 6.3969C19.3484 5.84765 18.6337 5.11573 17.7521 4.38495C15.9746 2.91164 13.5875 1.5 11 1.5C8.41259 1.5 6.02541 2.91164 4.24799 4.38495C3.36637 5.11573 2.65168 5.84765 2.15758 6.3969C1.93921 6.63964 1.76453 6.84604 1.63817 7ZM21 7C21.4008 6.70098 21.4007 6.70085 21.4005 6.70068L21.3993 6.69896L21.3961 6.69476L21.3849 6.67999C21.3753 6.66735 21.3614 6.64919 21.3433 6.62587C21.307 6.57925 21.254 6.51198 21.185 6.42703C21.0471 6.25716 20.8452 6.0163 20.5859 5.7281C20.068 5.15235 19.3182 4.38427 18.3902 3.61505C16.5484 2.08836 13.9356 0.5 11 0.5C8.06446 0.5 5.45165 2.08836 3.60982 3.61505C2.68182 4.38427 1.93207 5.15235 1.41413 5.7281C1.15488 6.0163 0.952938 6.25716 0.81502 6.42703C0.746043 6.51198 0.693025 6.57925 0.656804 6.62587C0.638691 6.64919 0.624773 6.66735 0.615155 6.67999L0.603962 6.69476L0.600808 6.69896L0.599845 6.70025C0.599725 6.70041 0.599294 6.70098 1.00003 7L0.599845 6.70025C0.467493 6.87762 0.466942 7.12164 0.599294 7.29902L1.00003 7C0.599294 7.29902 0.599173 7.29885 0.599294 7.29902L0.600808 7.30104L0.603962 7.30524L0.615155 7.32001C0.624773 7.33265 0.638691 7.35081 0.656804 7.37413C0.693025 7.42075 0.746043 7.48802 0.81502 7.57297C0.952938 7.74284 1.15488 7.9837 1.41413 8.2719C1.93207 8.84765 2.68182 9.61573 3.60982 10.3849C5.45165 11.9116 8.06446 13.5 11 13.5C13.9356 13.5 16.5484 11.9116 18.3902 10.3849C19.3182 9.61573 20.068 8.84765 20.5859 8.2719C20.8452 7.9837 21.0471 7.74284 21.185 7.57297C21.254 7.48802 21.307 7.42075 21.3433 7.37413C21.3614 7.35081 21.3753 7.33265 21.3849 7.32001L21.3961 7.30524L21.3993 7.30104L21.4002 7.29975C21.4003 7.29959 21.4008 7.29902 21 7ZM21 7L21.4002 7.29975C21.5326 7.12238 21.5329 6.87806 21.4005 6.70068L21 7Z" fill="#56596A"/>
<path id="Ellipse 158 (Stroke)" fill-rule="evenodd" clip-rule="evenodd" d="M11 4.5C9.61929 4.5 8.5 5.61929 8.5 7C8.5 8.38071 9.61929 9.5 11 9.5C12.3807 9.5 13.5 8.38071 13.5 7C13.5 5.61929 12.3807 4.5 11 4.5ZM7.5 7C7.5 5.067 9.067 3.5 11 3.5C12.933 3.5 14.5 5.067 14.5 7C14.5 8.933 12.933 10.5 11 10.5C9.067 10.5 7.5 8.933 7.5 7Z" fill="#56596A"/>
</g>
</svg>
