<svg width="24" height="24" viewBox="0 0 24 24" fill="none" xmlns="http://www.w3.org/2000/svg">
<path d="M4.00195 22.5C3.33891 22.5 2.70273 22.2364 2.23389 21.7676C1.76505 21.2987 1.50195 20.663 1.50195 20V8.5C1.50195 8.10218 1.65961 7.72076 1.94092 7.43945C2.22222 7.15815 2.60413 7 3.00195 7H6.00195V6C6.00195 4.80653 6.47591 3.66178 7.31982 2.81787C8.16374 1.97396 9.30848 1.5 10.502 1.5H11.502C11.8343 1.53715 12.1697 1.53715 12.502 1.5H13.502C14.6954 1.5 15.8397 1.97396 16.6836 2.81787C17.5275 3.66178 18.002 4.80653 18.002 6V7H21.002C21.3998 7 21.7812 7.15815 22.0625 7.43945C22.3438 7.72076 22.502 8.10218 22.502 8.5V20C22.502 20.663 22.2384 21.2987 21.7695 21.7676C21.3007 22.2364 20.665 22.5 20.002 22.5H4.00195ZM2.50195 8.5V20C2.50195 20.3978 2.65961 20.7792 2.94092 21.0605C3.22222 21.3419 3.60413 21.5 4.00195 21.5H20.002C20.3998 21.5 20.7812 21.3419 21.0625 21.0605C21.3438 20.7792 21.502 20.3978 21.502 20V8.5C21.502 8.36739 21.4492 8.24025 21.3555 8.14648C21.2617 8.05272 21.1346 8 21.002 8H16.002V10.5C16.002 10.6326 15.9492 10.7597 15.8555 10.8535C15.7617 10.9473 15.6346 11 15.502 11C15.3693 11 15.2417 10.9473 15.1479 10.8535C15.0542 10.7597 15.002 10.6326 15.002 10.5V8H7.00195V10.5C7.00195 10.6326 6.94924 10.7597 6.85547 10.8535C6.7617 10.9473 6.63456 11 6.50195 11C6.36934 11 6.24172 10.9473 6.14795 10.8535C6.05418 10.7597 6.00195 10.6326 6.00195 10.5V8H3.00195C2.86934 8 2.74172 8.05272 2.64795 8.14648C2.55418 8.24025 2.50195 8.36739 2.50195 8.5ZM17.002 7V6C17.001 5.24568 16.7565 4.51166 16.3052 3.90723C15.8539 3.3028 15.2196 2.86023 14.4966 2.64502C14.9692 3.06673 15.3474 3.58338 15.606 4.16162C15.8645 4.73987 15.9975 5.36659 15.9966 6V7H17.002ZM15.002 7V6C15.0639 5.56987 15.0325 5.13136 14.9102 4.71436C14.7878 4.29735 14.5775 3.91149 14.293 3.58301C14.0084 3.25453 13.6565 2.99111 13.2612 2.81055C12.8659 2.62998 12.4365 2.53662 12.002 2.53662C11.5674 2.53662 11.1375 2.62998 10.7422 2.81055C10.3469 2.99111 9.99547 3.25453 9.71094 3.58301C9.42641 3.91149 9.21559 4.29735 9.09326 4.71436C8.97094 5.13136 8.93996 5.56987 9.00195 6V7H15.002ZM8.00195 7V6C8.00176 5.36613 8.13544 4.73942 8.39502 4.16113C8.6546 3.58285 9.03405 3.06614 9.50781 2.64502C8.78442 2.85952 8.14966 3.30215 7.69824 3.90674C7.24683 4.51133 7.00306 5.24548 7.00293 6V7H8.00195ZM5.00195 18.8701C4.86934 18.8701 4.74172 18.8174 4.64795 18.7236C4.55418 18.6299 4.50195 18.5027 4.50195 18.3701C4.50195 18.2375 4.55418 18.1099 4.64795 18.0161C4.74172 17.9223 4.86934 17.8701 5.00195 17.8701H19.002C19.1346 17.8701 19.2617 17.9223 19.3555 18.0161C19.4492 18.1099 19.502 18.2375 19.502 18.3701C19.502 18.5027 19.4492 18.6299 19.3555 18.7236C19.2617 18.8174 19.1346 18.8701 19.002 18.8701H5.00195Z" fill="#56596A"/>
</svg>
