<svg width="24" height="24" viewBox="0 0 24 24" fill="none" xmlns="http://www.w3.org/2000/svg">
<path d="M4.00195 19.5C3.33891 19.5 2.70273 19.2364 2.23389 18.7676C1.76505 18.2987 1.50195 17.663 1.50195 17V7.00001C1.50195 6.33697 1.76505 5.70078 2.23389 5.23194C2.70273 4.7631 3.33891 4.50001 4.00195 4.50001H17.3809C17.4463 4.49966 17.5108 4.51253 17.5713 4.5376C17.6317 4.56268 17.6869 4.59944 17.7329 4.646L22.3545 9.26807C22.4015 9.31421 22.4391 9.36937 22.4644 9.43018C22.4896 9.491 22.5024 9.55623 22.502 9.62208V17.001C22.502 17.664 22.2384 18.2997 21.7695 18.7686C21.3007 19.2374 20.665 19.501 20.002 19.501L4.00195 19.5ZM2.50195 7.00001V17C2.50195 17.3978 2.65961 17.7792 2.94092 18.0606C3.22222 18.3419 3.60413 18.5 4.00195 18.5H20.002C20.3998 18.5 20.7812 18.3419 21.0625 18.0606C21.3438 17.7792 21.502 17.3978 21.502 17V9.82813L17.1719 5.50001H4.00195C3.60413 5.50001 3.22222 5.65816 2.94092 5.93946C2.65961 6.22076 2.50195 6.60218 2.50195 7.00001V7.00001ZM12.002 16.5H7.00195C6.33891 16.5 5.70273 16.2364 5.23389 15.7676C4.76505 15.2987 4.50195 14.663 4.50195 14V10C4.50195 9.33697 4.76505 8.70078 5.23389 8.23194C5.70273 7.7631 6.33891 7.50001 7.00195 7.50001H13.002C13.665 7.50001 14.3007 7.7631 14.7695 8.23194C15.2384 8.70078 15.502 9.33697 15.502 10V14C15.502 14.663 15.2384 15.2987 14.7695 15.7676C14.3007 16.2364 13.665 16.5 13.002 16.5H12.002ZM13.002 15.5C13.3998 15.5 13.7812 15.3419 14.0625 15.0606C14.3438 14.7792 14.502 14.3978 14.502 14V13.5H13.002C12.8693 13.5 12.7417 13.5527 12.6479 13.6465C12.5542 13.7403 12.502 13.8674 12.502 14V15.5H13.002ZM11.502 15.5V14C11.502 13.6022 11.6596 13.2208 11.9409 12.9395C12.2222 12.6582 12.6041 12.5 13.002 12.5H14.502V10C14.502 9.60218 14.3438 9.22076 14.0625 8.93946C13.7812 8.65816 13.3998 8.50001 13.002 8.50001H12.002V10.5C12.002 10.6326 11.9492 10.7598 11.8555 10.8535C11.7617 10.9473 11.6346 11 11.502 11C11.3693 11 11.2417 10.9473 11.1479 10.8535C11.0542 10.7598 11.002 10.6326 11.002 10.5V8.50001H9.00195V10.5C9.00195 10.6326 8.94924 10.7598 8.85547 10.8535C8.7617 10.9473 8.63456 11 8.50195 11C8.36934 11 8.24172 10.9473 8.14795 10.8535C8.05418 10.7598 8.00195 10.6326 8.00195 10.5V8.50001H7.00195C6.60413 8.50001 6.22222 8.65816 5.94092 8.93946C5.65961 9.22076 5.50195 9.60218 5.50195 10V12.5H7.00195C7.39978 12.5 7.7812 12.6582 8.0625 12.9395C8.3438 13.2208 8.50195 13.6022 8.50195 14V15.5H11.502ZM7.00195 15.5H7.50195V14C7.50195 13.8674 7.44924 13.7403 7.35547 13.6465C7.2617 13.5527 7.13456 13.5 7.00195 13.5H5.50195V14C5.50195 14.3978 5.65961 14.7792 5.94092 15.0606C6.22222 15.3419 6.60413 15.5 7.00195 15.5V15.5Z" fill="#56596A"/>
</svg>
