<svg width="24" height="24" viewBox="0 0 24 24" fill="none" xmlns="http://www.w3.org/2000/svg">
<path d="M9.00049 17.5C8.86788 17.5 8.74074 17.4473 8.64697 17.3535C8.5532 17.2597 8.50049 17.1326 8.50049 17C8.50049 16.8674 8.5532 16.7403 8.64697 16.6465C8.74074 16.5527 8.86788 16.5 9.00049 16.5H15.0005C15.1331 16.5 15.2607 16.5527 15.3545 16.6465C15.4483 16.7403 15.5005 16.8674 15.5005 17C15.5005 17.1326 15.4483 17.2597 15.3545 17.3535C15.2607 17.4473 15.1331 17.5 15.0005 17.5H9.00049ZM5.25195 12.5C5.11934 12.5 4.99172 12.4473 4.89795 12.3535C4.80418 12.2597 4.75195 12.1326 4.75195 12C4.75195 11.8674 4.80418 11.7403 4.89795 11.6465C4.99172 11.5527 5.11934 11.5 5.25195 11.5H18.752C18.8846 11.5 19.0117 11.5527 19.1055 11.6465C19.1992 11.7403 19.252 11.8674 19.252 12C19.252 12.1326 19.1992 12.2597 19.1055 12.3535C19.0117 12.4473 18.8846 12.5 18.752 12.5H5.25195ZM2.00195 7.5C1.86934 7.5 1.74172 7.44728 1.64795 7.35352C1.55418 7.25975 1.50195 7.13261 1.50195 7C1.50195 6.86739 1.55418 6.74025 1.64795 6.64648C1.74172 6.55272 1.86934 6.5 2.00195 6.5H22.002C22.1346 6.5 22.2617 6.55272 22.3555 6.64648C22.4492 6.74025 22.502 6.86739 22.502 7C22.502 7.13261 22.4492 7.25975 22.3555 7.35352C22.2617 7.44728 22.1346 7.5 22.002 7.5H2.00195Z" fill="#56596A"/>
</svg>
