<svg width="21" height="21" viewBox="0 0 21 21" fill="none" xmlns="http://www.w3.org/2000/svg">
<path d="M10.9983 2.0426C9.41604 2.0426 7.86932 2.51179 6.55373 3.39085C5.23814 4.2699 4.21276 5.51933 3.60725 6.98113C3.00175 8.44294 2.84333 10.0515 3.15201 11.6033C3.46069 13.1552 4.22262 14.5806 5.34144 15.6995C6.46026 16.8183 7.88572 17.5802 9.43757 17.8889C10.9894 18.1976 12.5979 18.0391 14.0598 17.4336C15.5216 16.8281 16.771 15.8028 17.65 14.4872C18.5291 13.1716 18.9983 11.6249 18.9983 10.0426C18.9959 7.9216 18.1523 5.88815 16.6525 4.38838C15.1527 2.8886 13.1193 2.04498 10.9983 2.0426V2.0426ZM8.56229 15.5276C7.72047 15.1551 6.97582 14.5937 6.38617 13.8868C5.79651 13.1799 5.37771 12.3466 5.16229 11.4516C5.60392 11.0377 6.17181 10.7842 6.77479 10.7318C7.37777 10.6794 7.98088 10.8311 8.48729 11.1626C8.67868 11.6146 9.00439 11.9969 9.42029 12.2576C9.67888 12.8176 9.73469 13.45 9.57816 14.0466C9.42162 14.6432 9.06249 15.1667 8.56229 15.5276ZM8.97529 8.7086H5.14129C5.44582 7.38084 6.19003 6.19493 7.25318 5.34324C8.31634 4.49155 9.63608 4.02406 10.9983 4.0166C12.3578 4.03118 13.673 4.50173 14.7332 5.35286C15.7934 6.20399 16.5372 7.38641 16.8453 8.7106H13.0233C12.4485 8.25549 11.731 8.01881 10.9983 8.0426C10.2665 8.01872 9.54981 8.25465 8.97529 8.7086ZM13.4343 15.5276C12.9341 15.1667 12.5751 14.6431 12.4187 14.0465C12.2623 13.4498 12.3184 12.8174 12.5773 12.2576C12.9924 11.9967 13.3177 11.6149 13.5093 11.1636C14.0154 10.8325 14.618 10.6809 15.2206 10.7331C15.8231 10.7853 16.3907 11.0384 16.8323 11.4516C16.6171 12.3464 16.1986 13.1795 15.6093 13.8864C15.02 14.5933 14.2757 15.1549 13.4343 15.5276Z" fill="#E4E0F4"/>
</svg>
