<svg width="24" height="24" viewBox="0 0 24 24" fill="none" xmlns="http://www.w3.org/2000/svg">
<path d="M11.9995 21.5C11.8669 21.5 11.7398 21.4473 11.646 21.3535C11.5522 21.2597 11.4995 21.1326 11.4995 21C11.4995 20.8674 11.5522 20.7403 11.646 20.6465C11.7398 20.5527 11.8669 20.5 11.9995 20.5H14.2529C15.1812 20.5 16.0712 20.131 16.7275 19.4746C17.3839 18.8182 17.7529 17.9283 17.7529 17V15.541C17.7529 15.528 17.7529 15.514 17.7529 15.5V10.2998C17.7529 9.29198 17.3523 8.32543 16.6396 7.61279C15.927 6.90015 14.9605 6.5 13.9526 6.5H10.0527C9.04491 6.5 8.07836 6.90015 7.36572 7.61279C6.65308 8.32543 6.25293 9.29198 6.25293 10.2998V15.5C6.25293 15.6326 6.20021 15.7597 6.10645 15.8535C6.01268 15.9473 5.88554 16 5.75293 16H4.00391C3.34087 16 2.70468 15.7364 2.23584 15.2676C1.767 14.7987 1.50391 14.163 1.50391 13.5V11.2471C1.50391 10.584 1.767 9.94784 2.23584 9.479C2.70468 9.01016 3.34087 8.74707 4.00391 8.74707H5.25391V7C5.25391 5.80653 5.72786 4.66178 6.57178 3.81787C7.41569 2.97396 8.56043 2.5 9.75391 2.5H14.2539C15.4474 2.5 16.5916 2.97396 17.4355 3.81787C18.2795 4.66178 18.7539 5.80653 18.7539 7V8.75H20.0049C20.6679 8.75 21.3036 9.01309 21.7725 9.48193C22.2413 9.95077 22.5049 10.587 22.5049 11.25V13.499C22.5049 14.1621 22.2413 14.7978 21.7725 15.2666C21.3036 15.7354 20.6679 15.999 20.0049 15.999H18.7568V16.999C18.7568 18.1925 18.2829 19.3368 17.439 20.1807C16.5951 21.0246 15.4503 21.499 14.2568 21.499L11.9995 21.5ZM19.9995 15C20.3973 15 20.7792 14.8419 21.0605 14.5605C21.3419 14.2792 21.4995 13.8978 21.4995 13.5V11.251C21.4995 10.8532 21.3419 10.4717 21.0605 10.1904C20.7792 9.90913 20.3973 9.75098 19.9995 9.75098H18.7485V14.9399C18.7498 14.9599 18.7498 14.98 18.7485 15H19.9995ZM2.49951 11.2471V13.5C2.49951 13.8978 2.65766 14.2792 2.93896 14.5605C3.22027 14.8419 3.60169 15 3.99951 15H5.24951V9.74902H3.99951C3.60186 9.74929 3.22103 9.9072 2.93994 10.1885C2.65885 10.4698 2.50098 10.8514 2.50098 11.249L2.49951 11.2471ZM6.24854 6.99902V7.37207C6.69662 6.79032 7.27236 6.319 7.93115 5.99463C8.58994 5.67026 9.31451 5.5014 10.0488 5.50098H13.9487C14.683 5.50071 15.4076 5.66911 16.0664 5.99316C16.7253 6.31721 17.3006 6.78839 17.7485 7.37012V6.99902C17.7485 6.07077 17.38 5.1803 16.7236 4.52393C16.0673 3.86755 15.1768 3.49902 14.2485 3.49902H9.74854C9.28891 3.49915 8.83426 3.58961 8.40967 3.76562C7.98508 3.94164 7.59884 4.1998 7.27393 4.5249C6.94901 4.85 6.6914 5.23595 6.51562 5.66064C6.33985 6.08533 6.24938 6.54037 6.24951 7L6.24854 6.99902ZM10.9995 17.499C10.8669 17.499 10.7398 17.4463 10.646 17.3525C10.5522 17.2588 10.4995 17.1316 10.4995 16.999C10.4995 16.8664 10.5522 16.7393 10.646 16.6455C10.7398 16.5517 10.8669 16.499 10.9995 16.499H12.9995C13.1321 16.499 13.2597 16.5517 13.3535 16.6455C13.4473 16.7393 13.4995 16.8664 13.4995 16.999C13.4995 17.1316 13.4473 17.2588 13.3535 17.3525C13.2597 17.4463 13.1321 17.499 12.9995 17.499H10.9995ZM14.8086 12.458C14.7478 12.4332 14.6935 12.395 14.6489 12.3467C14.6 12.3027 14.5612 12.2489 14.5352 12.1885C14.5091 12.1281 14.496 12.0628 14.4976 11.9971C14.4967 11.9314 14.5101 11.866 14.5361 11.8057C14.5622 11.7454 14.6006 11.6914 14.6489 11.647C14.7441 11.5553 14.8712 11.5039 15.0034 11.5039C15.1356 11.5039 15.2627 11.5553 15.3579 11.647C15.4025 11.6924 15.4362 11.7472 15.4575 11.8071C15.4853 11.8665 15.4991 11.9315 15.4976 11.9971C15.499 12.0618 15.4874 12.1259 15.4634 12.186C15.4393 12.2462 15.4036 12.3008 15.3579 12.3467C15.3097 12.3943 15.2527 12.4324 15.1899 12.458C15.1305 12.4856 15.0651 12.4993 14.9995 12.498C14.9342 12.4996 14.8695 12.4869 14.8096 12.4609L14.8086 12.458ZM8.80859 12.458C8.74777 12.4332 8.69348 12.395 8.64893 12.3467C8.60028 12.3025 8.56153 12.2484 8.53564 12.188C8.50976 12.1276 8.49697 12.0628 8.49854 11.9971C8.49779 11.9316 8.51148 11.8668 8.53857 11.8071C8.55932 11.7444 8.59782 11.6888 8.64893 11.647C8.74239 11.5554 8.86766 11.5039 8.99854 11.5039C9.12941 11.5039 9.25517 11.5554 9.34863 11.647C9.39664 11.6916 9.43478 11.7459 9.46045 11.8062C9.48612 11.8665 9.49867 11.9315 9.49756 11.9971C9.49938 12.0627 9.48714 12.1276 9.46143 12.188C9.43571 12.2484 9.3972 12.3025 9.34863 12.3467C9.30578 12.3969 9.25099 12.4355 9.18896 12.458C9.12885 12.4841 9.06359 12.4976 8.99805 12.4976C8.9325 12.4976 8.86773 12.4841 8.80762 12.458H8.80859Z" fill="#56596A"/>
</svg>
