<svg xmlns="http://www.w3.org/2000/svg" width="24" height="24">
    <g id="switch_location" data-name="switch location" transform="translate(-274 -191.603)">
        <g id="replace">
            <g id="Path_1590" data-name="Path 1590">
                <path id="Path_3540" data-name="Path 3540" class="cls-2" d="M285.9 209.1a.5.5 0 0 1-.385-.183c-.37-.449-3.615-4.452-3.615-6.618a4 4 0 1 1 8 .007c-.006 2.163-3.244 6.162-3.614 6.611a.5.5 0 0 1-.386.183zm-.014-10a3.105 3.105 0 0 0-2.986 3.186c0 1.365 1.906 4.1 3 5.511 1.094-1.41 3-4.148 3-5.5v-.013a3.109 3.109 0 0 0-3.014-3.184z"/>
            </g>
            <g id="Ellipse_171" data-name="Ellipse 171">
                <path id="Path_3541" data-name="Path 3541" class="cls-2" d="M285.9 203.421a1 1 0 1 1 1-1 1 1 0 0 1-1 1zm0-1.5v.5z"/>
            </g>
            <g id="Path_1591" data-name="Path 1591">
                <path id="Path_3542" data-name="Path 3542" class="cls-2" d="M281.5 214.1a.5.5 0 0 1-.354-.854l1.647-1.646-1.647-1.647a.5.5 0 1 1 .708-.707l2 2a.5.5 0 0 1 0 .707l-2 2a.5.5 0 0 1-.354.147z"/>
            </g>
            <g id="Path_1592" data-name="Path 1592">
                <path id="Path_3543" data-name="Path 3543" class="cls-2" d="M291.5 198.1a.5.5 0 0 1-.354-.147l-2-2a.5.5 0 0 1 0-.707l2-2a.5.5 0 1 1 .708.707l-1.647 1.647 1.647 1.646a.5.5 0 0 1-.354.854z"/>
            </g>
            <g id="Path_1593" data-name="Path 1593">
                <path id="Path_3544" data-name="Path 3544" class="cls-2" d="M292 212.1h-2.5a.5.5 0 0 1 0-1h2.5a1.5 1.5 0 0 0 1.5-1.5v-12a1.5 1.5 0 0 0-1.5-1.5h-2.5a.5.5 0 0 1 0-1h2.5a2.5 2.5 0 0 1 2.5 2.5v12a2.5 2.5 0 0 1-2.5 2.5z"/>
            </g>
            <g id="Path_1594" data-name="Path 1594">
                <path id="Path_3545" data-name="Path 3545" class="cls-2" d="M283.5 212.1H280a2.5 2.5 0 0 1-2.5-2.5v-12a2.5 2.5 0 0 1 2.5-2.5h2a.5.5 0 0 1 0 1h-2a1.5 1.5 0 0 0-1.5 1.5v12a1.5 1.5 0 0 0 1.5 1.5h3.5a.5.5 0 0 1 0 1z"/>
            </g>
        </g>
    </g>
</svg>
