<svg width="30" height="34" viewBox="0 0 30 34" fill="none" xmlns="http://www.w3.org/2000/svg">
<path d="M8.391 1H21.609C22.5166 0.999927 23.4014 1.28494 24.1383 1.81479C24.8752 2.34465 25.4271 3.09258 25.716 3.953L28 10.753H2L4.284 3.953C4.57293 3.09258 5.1248 2.34465 5.86172 1.81479C6.59864 1.28494 7.48337 0.999927 8.391 1V1Z" stroke="#56596A" stroke-width="2" stroke-linejoin="round"/>
<path d="M13.48 4.35498H16.521" stroke="#56596A" stroke-width="2" stroke-linecap="round"/>
<path d="M15 4.35498V7.396" stroke="#56596A" stroke-width="2" stroke-linecap="round"/>
<path d="M27.001 21.999L29.001 23.999L27.001 25.999" stroke="#56596A" stroke-width="2" stroke-linecap="round" stroke-linejoin="round"/>
<path d="M2.00098 25.6189L4.00098 27.6189L2.00098 29.6189" stroke="#56596A" stroke-width="2" stroke-linecap="round" stroke-linejoin="round"/>
<path d="M14.9867 28.9585C14.9867 28.9585 12.0009 25.9487 12.0009 23.9487C11.9868 23.5526 12.0541 23.1574 12.1991 22.7885C12.3441 22.4197 12.5636 22.0846 12.8436 21.8042C13.1237 21.5237 13.4583 21.3051 13.827 21.1596C14.1957 21.0141 14.5906 20.9449 14.9867 20.9585C15.3843 20.9441 15.7807 21.0109 16.1512 21.1557C16.5218 21.3006 16.859 21.52 17.1415 21.8003C17.424 22.0805 17.6455 22.4172 17.7933 22.7866C17.9412 23.156 18.0121 23.551 18.0009 23.9487C17.9959 25.9487 14.9867 28.9585 14.9867 28.9585Z" stroke="#56596A" stroke-linecap="round" stroke-linejoin="round"/>
<path d="M15.001 24.877C15.5533 24.877 16.001 24.4292 16.001 23.877C16.001 23.3247 15.5533 22.877 15.001 22.877C14.4487 22.877 14.001 23.3247 14.001 23.877C14.001 24.4292 14.4487 24.877 15.001 24.877Z" stroke="#56596A"/>
<path d="M7.00098 24.9141V18.9961C7.00098 18.4657 7.21169 17.957 7.58676 17.5819C7.96183 17.2068 8.47054 16.9961 9.00098 16.9961H21.001C21.5314 16.9961 22.0401 17.2068 22.4152 17.5819C22.7903 17.957 23.001 18.4657 23.001 18.9961V20.0961" stroke="#56596A" stroke-width="2" stroke-linecap="round"/>
<path d="M23.001 27.6201V30.9991C23.001 31.5295 22.7903 32.0383 22.4152 32.4133C22.0401 32.7884 21.5314 32.9991 21.001 32.9991H9.00098C8.47054 32.9991 7.96183 32.7884 7.58676 32.4133C7.21169 32.0383 7.00098 31.5295 7.00098 30.9991" stroke="#56596A" stroke-width="2" stroke-linecap="round"/>
<path d="M23.001 28.938V26C23.001 25.4696 23.2117 24.9609 23.5868 24.5858C23.9618 24.2107 24.4705 24 25.001 24H29.001" stroke="#56596A" stroke-width="2" stroke-linecap="round"/>
<path d="M7.00098 22.6809V25.6189C7.00098 26.1493 6.79026 26.658 6.41519 27.0331C6.04012 27.4082 5.53141 27.6189 5.00098 27.6189H1.00098" stroke="#56596A" stroke-width="2" stroke-linecap="round"/>
</svg>
