<svg width="24" height="24" viewBox="0 0 24 24" fill="none" xmlns="http://www.w3.org/2000/svg">
<path d="M1.5 12.0001C1.5 9.92336 2.11626 7.89328 3.27002 6.16657C4.42377 4.43985 6.06331 3.0941 7.98193 2.29938C9.90056 1.50466 12.012 1.29658 14.0488 1.70172C16.0856 2.10687 17.9564 3.10681 19.4248 4.57526C20.8933 6.04371 21.8932 7.91492 22.2983 9.95172C22.7035 11.9885 22.4959 14.0995 21.7012 16.0181C20.9065 17.9368 19.5602 19.5768 17.8335 20.7305C16.1068 21.8843 14.0767 22.5001 12 22.5001C9.21612 22.4971 6.54711 21.3899 4.57861 19.4214C2.61011 17.4529 1.50291 14.7839 1.5 12.0001V12.0001ZM2.5 12.0001C2.5 13.879 3.0572 15.7156 4.10107 17.2779C5.14495 18.8402 6.62885 20.0579 8.36475 20.7769C10.1006 21.4959 12.0107 21.684 13.8535 21.3174C15.6963 20.9509 17.3892 20.0459 18.7178 18.7173C20.0464 17.3887 20.9513 15.6959 21.3179 13.8531C21.6844 12.0103 21.4959 10.1002 20.7769 8.36432C20.0578 6.62842 18.8406 5.14501 17.2783 4.10114C15.7161 3.05726 13.8789 2.50006 12 2.50006C9.48151 2.50324 7.06737 3.50526 5.28662 5.28619C3.50587 7.06713 2.50438 9.48157 2.50146 12.0001H2.5ZM13.7461 17.3218L11.1011 14.19C11.0255 14.1011 10.9837 13.9883 10.9824 13.8716C10.9811 13.7549 11.0206 13.6414 11.0942 13.5508L12.6123 11.6841C12.6524 11.6294 12.7033 11.5829 12.7617 11.5484C12.8202 11.5139 12.8848 11.4916 12.9521 11.483C13.0195 11.4743 13.0881 11.4795 13.1533 11.4981C13.2186 11.5167 13.2789 11.5485 13.3315 11.5914C13.3842 11.6343 13.4276 11.6874 13.459 11.7476C13.4904 11.8078 13.5096 11.8738 13.5146 11.9415C13.5197 12.0091 13.5108 12.0775 13.4888 12.1417C13.4667 12.2059 13.4318 12.2647 13.3862 12.315L12.1333 13.8599L13.9141 15.9708L16.0581 8.83014L7.1792 12.2662L9.06201 12.503C9.12724 12.5111 9.19043 12.532 9.24756 12.5645C9.30468 12.597 9.35471 12.6405 9.39502 12.6924C9.43533 12.7444 9.46508 12.8038 9.48242 12.8672C9.49977 12.9306 9.50436 12.9969 9.49609 13.0621C9.47742 13.1927 9.40854 13.3108 9.3042 13.3917C9.19986 13.4725 9.06818 13.5098 8.93701 13.4952L5.09131 13.0069C4.98154 12.9921 4.87954 12.9412 4.80176 12.8624C4.72397 12.7835 4.67489 12.6813 4.66162 12.5714C4.64835 12.4614 4.67172 12.35 4.72852 12.2549C4.78531 12.1599 4.87199 12.0864 4.9751 12.046L15.9204 7.83795C16.1027 7.76901 16.3025 7.76197 16.4893 7.81793C16.5995 7.85078 16.7019 7.90531 16.791 7.97809C16.8801 8.05087 16.9541 8.14028 17.0083 8.24176C17.0636 8.34384 17.098 8.45585 17.1099 8.57135C17.1217 8.68686 17.1106 8.80392 17.0771 8.9151L14.6055 17.1431C14.5795 17.2292 14.5307 17.3065 14.4644 17.3672C14.398 17.428 14.3161 17.4696 14.228 17.4879C14.1954 17.4964 14.1622 17.5009 14.1284 17.501C14.0558 17.5008 13.9838 17.4849 13.918 17.4542C13.8522 17.4234 13.7938 17.3784 13.7471 17.3228L13.7461 17.3218Z" fill="#56596A"/>
</svg>
