<svg xmlns="http://www.w3.org/2000/svg" width="28.344" height="24" viewBox="0 0 28.344 24">
  <g id="Group_8262" data-name="Group 8262" transform="translate(-174.656 -390)">
    <path id="Path_3670" data-name="Path 3670" d="M-6.961-2.344H-11.07L-11.852,0h-2.492l4.234-11.375h2.172L-3.68,0H-6.172Zm-3.477-1.9h2.844L-9.023-8.5Zm7.32-.047A5.094,5.094,0,0,1-2.23-7.437,2.877,2.877,0,0,1,.2-8.609a2.589,2.589,0,0,1,2.039.922V-12H4.5V0H2.461L2.352-.9A2.657,2.657,0,0,1,.18.156,2.869,2.869,0,0,1-2.215-1.02,5.258,5.258,0,0,1-3.117-4.289Zm2.258.164A3.328,3.328,0,0,0-.445-2.3a1.349,1.349,0,0,0,1.2.633,1.511,1.511,0,0,0,1.477-.883V-5.891A1.489,1.489,0,0,0,.773-6.773Q-.859-6.773-.859-4.125ZM5.9-4.289a5.094,5.094,0,0,1,.887-3.148A2.877,2.877,0,0,1,9.211-8.609a2.589,2.589,0,0,1,2.039.922V-12h2.266V0H11.477l-.109-.9A2.657,2.657,0,0,1,9.2.156,2.869,2.869,0,0,1,6.8-1.02,5.258,5.258,0,0,1,5.9-4.289Zm2.258.164A3.328,3.328,0,0,0,8.57-2.3a1.349,1.349,0,0,0,1.2.633,1.511,1.511,0,0,0,1.477-.883V-5.891a1.489,1.489,0,0,0-1.461-.883Q8.156-6.773,8.156-4.125Z" transform="translate(189 408)" fill="#3889fa"/>
    <rect id="Rectangle_3595" data-name="Rectangle 3595" width="28" height="24" transform="translate(175 390)" fill="none"/>
  </g>
</svg>
