<svg width="24" height="24" viewBox="0 0 24 24" fill="none" xmlns="http://www.w3.org/2000/svg">
<path d="M9.97204 22.4933C8.68079 22.4248 7.41947 22.0775 6.27526 21.4752C5.13105 20.8729 4.13099 20.0302 3.34362 19.0045C2.55625 17.9788 2.00038 16.7948 1.71423 15.5338C1.42807 14.2728 1.41837 12.9644 1.68591 11.6993C1.97886 10.3082 2.59841 9.00693 3.49352 7.90243C4.38864 6.79794 5.53356 5.92204 6.83385 5.34726C8.13415 4.77248 9.5527 4.51535 10.972 4.59677C12.3914 4.67819 13.7709 5.09582 14.9969 5.81552C15.4363 5.35688 15.9003 4.92308 16.3876 4.51572C18.0157 3.20696 19.8616 2.19492 21.8407 1.52646C21.9307 1.49601 22.0277 1.4917 22.12 1.51425C22.2122 1.5368 22.2959 1.58539 22.3617 1.6539C22.4275 1.7224 22.4723 1.80836 22.4911 1.90146C22.5099 1.99455 22.5017 2.09064 22.4676 2.17929C21.6162 4.36483 20.298 6.33834 18.6049 7.96152C18.3842 8.17685 18.157 8.38456 17.9237 8.58456C18.7909 9.89088 19.3002 11.4017 19.4007 12.9664C19.4083 13.141 19.3954 13.3158 19.3627 13.4874C19.251 14.0539 18.9194 14.5533 18.4403 14.8756C17.9612 15.1978 17.3738 15.3168 16.807 15.2066L12.8236 14.4845C12.6748 14.4574 12.5227 14.4574 12.3739 14.4845C12.2204 14.5156 12.0745 14.5766 11.9447 14.6642C11.8149 14.7517 11.7034 14.8641 11.6171 14.9947C11.5307 15.1253 11.471 15.2717 11.4413 15.4254C11.4115 15.5791 11.4123 15.7373 11.4437 15.8907L12.2528 19.8536C12.3177 20.1729 12.3109 20.5026 12.2328 20.8189C12.1547 21.1352 12.0071 21.4303 11.8011 21.6827C11.5951 21.9351 11.3356 22.1385 11.0414 22.2784C10.7471 22.4183 10.4258 22.4909 10.1 22.4913C10.058 22.5003 10.014 22.5003 9.97204 22.4933ZM2.66393 11.9117C2.23197 13.9757 2.63567 16.1265 3.78698 17.8932C4.93828 19.6599 6.74336 20.8982 8.80602 21.3365C9.20835 21.4209 9.61625 21.4745 10.0267 21.4967C10.3442 21.5119 10.6554 21.4042 10.8959 21.1964C11.0144 21.0923 11.1109 20.9654 11.1796 20.8233C11.2483 20.6813 11.2878 20.5273 11.2958 20.3697C11.3011 20.2669 11.2937 20.1636 11.2738 20.0626L10.4628 16.0997C10.3919 15.7488 10.408 15.3858 10.5096 15.0426C10.6113 14.6994 10.7957 14.3861 11.0463 14.1305C11.2968 13.8748 11.6061 13.6844 11.9471 13.5758C12.2882 13.4672 12.6506 13.4437 13.0028 13.5074L16.993 14.2315C17.1679 14.2674 17.3485 14.2628 17.5214 14.2184C17.6942 14.174 17.8547 14.0908 17.9906 13.9752C18.1265 13.8595 18.2341 13.7144 18.3055 13.5509C18.377 13.3873 18.4101 13.2096 18.4027 13.0313C18.3157 11.6751 17.8814 10.3644 17.141 9.2247C16.4314 9.75427 15.6747 10.2176 14.8807 10.6095C14.6095 11.3097 14.1324 11.9115 13.5126 12.3355C12.8978 12.7317 12.1824 12.9424 11.451 12.9425C11.1636 12.9409 10.8771 12.9072 10.597 12.8424C10.4967 12.8189 10.4058 12.7651 10.3373 12.6881C10.2687 12.6111 10.2255 12.5151 10.2137 12.4127C10.1508 11.8708 10.2052 11.3215 10.3729 10.8023C10.5406 10.2832 10.8178 9.80606 11.1859 9.40341C11.6705 8.90819 12.2861 8.56131 12.9608 8.40341C13.3716 7.76818 13.8236 7.1607 14.3138 6.58456C13.163 5.93741 11.8642 5.59918 10.5438 5.60263C8.71016 5.60705 6.93225 6.23345 5.50085 7.37949C4.06944 8.52552 3.06937 10.1234 2.66393 11.9117V11.9117ZM11.9076 10.0885C11.7115 10.0942 11.521 10.1536 11.3563 10.2603C11.1917 10.3671 11.0593 10.5173 10.974 10.6939C10.8886 10.8706 10.8537 11.067 10.8724 11.2623C10.8912 11.4576 10.963 11.6441 11.0804 11.8014C11.1978 11.9586 11.356 12.0805 11.538 12.1539C11.7199 12.2273 11.9185 12.2495 12.1122 12.2179C12.3058 12.1862 12.487 12.1023 12.6361 11.9747C12.7852 11.8471 12.8967 11.6811 12.9579 11.4947C13.3761 11.2077 13.7045 10.808 13.9056 10.3424L13.0819 9.39657C12.6362 9.51929 12.2308 9.75798 11.9076 10.0885V10.0885ZM14.6078 9.6207C15.4089 9.21058 16.1675 8.72186 16.8719 8.16171C16.8952 8.13559 16.9207 8.11152 16.9486 8.09042C16.9668 8.07683 16.9859 8.06436 17.0057 8.05331C17.3184 7.79798 17.621 7.52872 17.913 7.24472C19.2197 5.99251 20.2914 4.51578 21.077 2.88534C19.6199 3.49251 18.2557 4.3031 17.0257 5.29257C15.8161 6.3003 14.7605 7.47943 13.892 8.79257L14.057 8.98154L14.6078 9.6207ZM6.60778 18.1314C6.60778 17.8652 6.68693 17.6052 6.83483 17.3839C6.98273 17.1625 7.19289 16.9897 7.43883 16.8878C7.68478 16.7859 7.95508 16.7592 8.21618 16.8111C8.47728 16.8631 8.71739 16.9915 8.90563 17.1798C9.09387 17.368 9.22186 17.6076 9.2738 17.8687C9.32573 18.1298 9.29901 18.4006 9.19714 18.6466C9.09526 18.8925 8.92288 19.1027 8.70153 19.2506C8.48018 19.3985 8.22019 19.4776 7.95397 19.4776C7.77678 19.4782 7.60125 19.4434 7.43737 19.3761C7.27349 19.3087 7.12446 19.2096 6.99889 19.0846C6.87332 18.9595 6.77355 18.8111 6.70544 18.6476C6.63733 18.484 6.60218 18.3086 6.60192 18.1314H6.60778ZM7.60778 18.1314C7.60798 18.1998 7.62823 18.2666 7.66637 18.3233C7.70451 18.3801 7.7589 18.4243 7.82214 18.4503C7.88538 18.4763 7.95479 18.4833 8.02184 18.4698C8.08889 18.4564 8.15031 18.423 8.1986 18.3746C8.24689 18.3262 8.28006 18.2649 8.29333 18.1978C8.3066 18.1308 8.29952 18.0608 8.27331 17.9976C8.24709 17.9345 8.20274 17.8808 8.14587 17.8429C8.08899 17.8049 8.02236 17.7843 7.95397 17.7843C7.90802 17.7837 7.86231 17.7925 7.81969 17.8097C7.77708 17.8268 7.73816 17.8526 7.70544 17.8849C7.67271 17.9171 7.64657 17.9553 7.62878 17.9976C7.61098 18.04 7.60205 18.0855 7.60192 18.1314H7.60778ZM3.97497 15.1646C3.97497 14.8984 4.05363 14.6379 4.20153 14.4166C4.34943 14.1952 4.55958 14.0229 4.80553 13.921C5.05148 13.8191 5.32227 13.7924 5.58337 13.8443C5.84446 13.8963 6.08409 14.0243 6.27233 14.2125C6.46057 14.4007 6.58905 14.6408 6.64098 14.9019C6.69292 15.163 6.6662 15.4338 6.56432 15.6798C6.46245 15.9257 6.29007 16.1359 6.06872 16.2838C5.84737 16.4317 5.58688 16.5103 5.32067 16.5103C5.1434 16.511 4.96806 16.4766 4.80407 16.4093C4.64008 16.3419 4.49078 16.2433 4.3651 16.1183C4.23943 15.9932 4.13982 15.8444 4.07165 15.6808C4.00347 15.5171 3.96791 15.3419 3.96764 15.1646H3.97497ZM4.97497 15.1646C4.97517 15.233 4.99542 15.2998 5.03356 15.3565C5.0717 15.4133 5.12608 15.4575 5.18932 15.4835C5.25256 15.5095 5.32198 15.516 5.38903 15.5025C5.45608 15.4891 5.5175 15.4562 5.56579 15.4078C5.61408 15.3594 5.64676 15.2976 5.66003 15.2306C5.6733 15.1635 5.66671 15.094 5.64049 15.0309C5.61428 14.9677 5.56993 14.9136 5.51305 14.8756C5.45618 14.8376 5.38906 14.8175 5.32067 14.8175C5.27456 14.8165 5.22876 14.8249 5.18591 14.8419C5.14305 14.8589 5.10405 14.8843 5.07116 14.9166C5.03827 14.9489 5.01226 14.9878 4.9945 15.0304C4.97673 15.0729 4.9675 15.1185 4.96764 15.1646H4.97497ZM3.97497 11.3985C3.97497 11.1323 4.05363 10.8718 4.20153 10.6505C4.34943 10.4291 4.55958 10.2568 4.80553 10.1549C5.05148 10.053 5.32227 10.0263 5.58337 10.0782C5.84446 10.1302 6.08409 10.2586 6.27233 10.4469C6.46057 10.6351 6.58905 10.8747 6.64098 11.1358C6.69292 11.3969 6.6662 11.6677 6.56432 11.9137C6.46245 12.1596 6.29007 12.3698 6.06872 12.5177C5.84737 12.6656 5.58688 12.7447 5.32067 12.7447C5.14356 12.7454 4.96842 12.7108 4.80456 12.6436C4.64069 12.5764 4.49124 12.4774 4.36559 12.3526C4.23994 12.2278 4.14043 12.0795 4.07214 11.9161C4.00384 11.7527 3.96817 11.5776 3.96764 11.4005L3.97497 11.3985ZM4.97497 11.3985C4.97517 11.4669 4.99542 11.5337 5.03356 11.5904C5.0717 11.6472 5.12608 11.6913 5.18932 11.7174C5.25256 11.7434 5.32198 11.7504 5.38903 11.7369C5.45608 11.7234 5.5175 11.6901 5.56579 11.6417C5.61408 11.5933 5.64676 11.5315 5.66003 11.4644C5.6733 11.3974 5.66671 11.3279 5.64049 11.2647C5.61428 11.2016 5.56993 11.1479 5.51305 11.11C5.45618 11.072 5.38906 11.0514 5.32067 11.0514C5.27439 11.0504 5.22841 11.0591 5.18542 11.0763C5.14243 11.0934 5.10359 11.1189 5.07067 11.1515C5.03776 11.184 5.01166 11.2229 4.99401 11.2657C4.97637 11.3085 4.96723 11.3542 4.96764 11.4005L4.97497 11.3985ZM6.22497 8.60654C6.22497 8.34032 6.30363 8.07984 6.45153 7.85849C6.59943 7.63714 6.80958 7.46476 7.05553 7.36288C7.30148 7.26101 7.57227 7.23429 7.83337 7.28622C8.09446 7.33816 8.33409 7.46663 8.52233 7.65488C8.71057 7.84312 8.83905 8.08274 8.89098 8.34384C8.94292 8.60494 8.9162 8.87572 8.81432 9.12167C8.71245 9.36762 8.54007 9.57778 8.31872 9.72568C8.09737 9.87358 7.83688 9.95224 7.57067 9.95224C7.39331 9.95303 7.21769 9.91892 7.05358 9.85165C6.88947 9.78439 6.7404 9.68568 6.61462 9.56064C6.48883 9.4356 6.38891 9.28685 6.32067 9.12314C6.25243 8.95943 6.21693 8.7839 6.21667 8.60654H6.22497ZM7.22497 8.60654C7.22517 8.67464 7.24513 8.74089 7.28307 8.79745C7.32101 8.85401 7.37492 8.89839 7.43786 8.92441C7.5008 8.95042 7.57027 8.9572 7.63708 8.94394C7.70388 8.93067 7.76512 8.89779 7.81335 8.8497C7.86157 8.80161 7.89462 8.74019 7.90807 8.67343C7.92153 8.60667 7.91487 8.53772 7.88903 8.4747C7.86319 8.41168 7.8195 8.35753 7.76305 8.31943C7.7066 8.28132 7.63975 8.26074 7.57165 8.26034C7.52542 8.259 7.47948 8.26698 7.43639 8.28378C7.39331 8.30058 7.35428 8.32621 7.32116 8.35849C7.28804 8.39077 7.26142 8.42913 7.24352 8.47177C7.22562 8.51441 7.21651 8.56029 7.21667 8.60654H7.22497Z" fill="#56596A"/>
</svg>
