<svg xmlns="http://www.w3.org/2000/svg" width="40" height="40" viewBox="0 0 40 40">
  <g id="ThirdPartyInsurance-light" transform="translate(5598 12076)">
    <rect id="Rectangle_8665" data-name="Rectangle 8665" width="40" height="40" transform="translate(-5598 -12076)" fill="#fff" opacity="0"/>
    <g id="ThirdPartyInsurance-light-2" data-name="ThirdPartyInsurance-light" transform="translate(-5598 -12076)">
      <path id="Path_20827" data-name="Path 20827" d="M25.067,30.921h4.266v3.048a2.134,2.134,0,0,1-4.266,0Z" fill="none" stroke="#fff" stroke-linecap="round" stroke-linejoin="round" stroke-width="2"/>
      <path id="Path_20828" data-name="Path 20828" d="M36,17.751H27.353L25.181,19.06A4.373,4.373,0,0,0,24,22.053v6.532a2.15,2.15,0,0,0,2.133,2.167H36" fill="none" stroke="#fff" stroke-linecap="round" stroke-linejoin="round" stroke-width="2"/>
      <path id="Path_20829" data-name="Path 20829" d="M27.2,17.753l2.249-7.8A4.272,4.272,0,0,1,33.493,7H35" fill="none" stroke="#fff" stroke-linecap="round" stroke-linejoin="round" stroke-width="2"/>
      <path id="Path_20830" data-name="Path 20830" d="M35.133,26.418A2.151,2.151,0,0,0,33,28.585v2.167" fill="none" stroke="#fff" stroke-linecap="round" stroke-linejoin="round" stroke-width="2"/>
      <path id="Path_20831" data-name="Path 20831" d="M28.8,21.085h1.067a1.613,1.613,0,0,1,1.6,1.625h0a1.613,1.613,0,0,1-1.6,1.625H28.8a1.613,1.613,0,0,1-1.6-1.625h0a1.612,1.612,0,0,1,1.6-1.625Z" fill="none" stroke="#fff" stroke-linecap="round" stroke-linejoin="round" stroke-width="2"/>
      <path id="Path_20832" data-name="Path 20832" d="M27.2,17.751H25.067A1.075,1.075,0,0,1,24,16.668V15.584A1.075,1.075,0,0,1,25.067,14.5h2.666" fill="none" stroke="#fff" stroke-linecap="round" stroke-linejoin="round" stroke-width="2"/>
      <path id="Path_20833" data-name="Path 20833" d="M14.933,30.921H10.667v3.048a2.134,2.134,0,0,0,4.266,0Z" fill="none" stroke="#fff" stroke-linecap="round" stroke-linejoin="round" stroke-width="2"/>
      <path id="Path_20834" data-name="Path 20834" d="M4,16.751c3.216,0,6.025,0,9.045,2.322C15.2,20.732,16,23.536,16,26.258v2.327a2.15,2.15,0,0,1-2.133,2.167H4" fill="none" stroke="#fff" stroke-linecap="round" stroke-linejoin="round" stroke-width="2"/>
      <path id="Path_20835" data-name="Path 20835" d="M13,19c-1.49-5.167-2-8.5-8-12" fill="none" stroke="#fff" stroke-linecap="round" stroke-linejoin="round" stroke-width="2"/>
      <path id="Path_20836" data-name="Path 20836" d="M12.8,17.751h2.133A1.075,1.075,0,0,0,16,16.668V15.584A1.075,1.075,0,0,0,14.933,14.5H12.267" fill="none" stroke="#fff" stroke-linecap="round" stroke-linejoin="round" stroke-width="2"/>
      <path id="Path_20837" data-name="Path 20837" d="M11,23c-.2,3.272-1.946,4-3.33,4H6V26a3,3,0,0,1,3-3h2" fill="none" stroke="#fff" stroke-linecap="round" stroke-linejoin="round" stroke-width="2"/>
      <path id="Path_20838" data-name="Path 20838" d="M21.556,4,18,8h4l-3.556,4" fill="none" stroke="#fff" stroke-linecap="round" stroke-linejoin="round" stroke-width="2"/>
    </g>
  </g>
</svg>
