<svg width="22" height="20" viewBox="0 0 22 20" fill="none" xmlns="http://www.w3.org/2000/svg">
<g id="TIcket Download-2">
<g id="Path 1586">
<path id="Path 3491" d="M13 19.496H2C1.60218 19.496 1.22065 19.3379 0.939346 19.0566C0.658042 18.7753 0.5 18.3938 0.5 17.996V5.99597C0.5 5.59815 0.658042 5.21661 0.939346 4.9353C1.22065 4.654 1.60218 4.49597 2 4.49597H10.356C10.4886 4.49597 10.6158 4.54864 10.7095 4.64241C10.8033 4.73618 10.856 4.86336 10.856 4.99597C10.856 5.12858 10.8033 5.25575 10.7095 5.34952C10.6158 5.44329 10.4886 5.49597 10.356 5.49597H2C1.86739 5.49597 1.74022 5.54864 1.64645 5.64241C1.55269 5.73618 1.5 5.86336 1.5 5.99597V17.996C1.5 18.1286 1.55269 18.2557 1.64645 18.3495C1.74022 18.4433 1.86739 18.496 2 18.496H13C13.1326 18.496 13.2598 18.5487 13.3535 18.6424C13.4473 18.7362 13.5 18.8634 13.5 18.996C13.5 19.1286 13.4473 19.2557 13.3535 19.3495C13.2598 19.4433 13.1326 19.496 13 19.496Z" fill="white"/>
</g>
<g id="Path 1587">
<path id="Path 3492" d="M20 19.496H17C16.8674 19.496 16.7402 19.4433 16.6465 19.3495C16.5527 19.2558 16.5 19.1286 16.5 18.996C16.5 18.8634 16.5527 18.7362 16.6465 18.6424C16.7402 18.5487 16.8674 18.496 17 18.496H20C20.1326 18.496 20.2598 18.4433 20.3535 18.3495C20.4473 18.2558 20.5 18.1286 20.5 17.996V13.48C20.5 13.3474 20.5527 13.2202 20.6465 13.1264C20.7402 13.0327 20.8674 12.98 21 12.98C21.1326 12.98 21.2598 13.0327 21.3535 13.1264C21.4473 13.2202 21.5 13.3474 21.5 13.48V17.996C21.5 18.3938 21.342 18.7754 21.0607 19.0567C20.7793 19.338 20.3978 19.496 20 19.496Z" fill="white"/>
</g>
<g id="Line 128">
<path id="Path 3493" d="M15 17.496C14.8674 17.496 14.7402 17.4433 14.6465 17.3495C14.5527 17.2557 14.5 17.1286 14.5 16.996V15.996C14.5 15.8634 14.5527 15.7362 14.6465 15.6424C14.7402 15.5486 14.8674 15.496 15 15.496C15.1326 15.496 15.2598 15.5486 15.3535 15.6424C15.4473 15.7362 15.5 15.8634 15.5 15.996V16.996C15.5 17.1286 15.4473 17.2557 15.3535 17.3495C15.2598 17.4433 15.1326 17.496 15 17.496ZM15 14.496C14.8674 14.496 14.7402 14.4433 14.6465 14.3495C14.5527 14.2557 14.5 14.1286 14.5 13.996V12.996C14.5 12.8634 14.5527 12.7362 14.6465 12.6424C14.7402 12.5486 14.8674 12.496 15 12.496C15.1326 12.496 15.2598 12.5486 15.3535 12.6424C15.4473 12.7362 15.5 12.8634 15.5 12.996V13.996C15.5 14.1286 15.4473 14.2557 15.3535 14.3495C15.2598 14.4433 15.1326 14.496 15 14.496Z" fill="white"/>
</g>
<g id="Line 129">
<path id="Path 3494" d="M9.5 9.49597H4.5C4.36739 9.49597 4.24022 9.44329 4.14645 9.34952C4.05269 9.25575 4 9.12858 4 8.99597C4 8.86336 4.05269 8.73618 4.14645 8.64241C4.24022 8.54864 4.36739 8.49597 4.5 8.49597H9.5C9.63261 8.49597 9.75978 8.54864 9.85355 8.64241C9.94731 8.73618 10 8.86336 10 8.99597C10 9.12858 9.94731 9.25575 9.85355 9.34952C9.75978 9.44329 9.63261 9.49597 9.5 9.49597Z" fill="white"/>
</g>
<g id="Line 130">
<path id="Path 3495" d="M10.5 12.496H4.5C4.36739 12.496 4.24022 12.4433 4.14645 12.3495C4.05269 12.2557 4 12.1286 4 11.996C4 11.8634 4.05269 11.7362 4.14645 11.6424C4.24022 11.5486 4.36739 11.496 4.5 11.496H10.5C10.6326 11.496 10.7598 11.5486 10.8535 11.6424C10.9473 11.7362 11 11.8634 11 11.996C11 12.1286 10.9473 12.2557 10.8535 12.3495C10.7598 12.4433 10.6326 12.496 10.5 12.496Z" fill="white"/>
</g>
<g id="Line 131">
<path id="Path 3496" d="M10.5 15.496H7.5C7.36739 15.496 7.24022 15.4433 7.14645 15.3495C7.05269 15.2557 7 15.1286 7 14.996C7 14.8634 7.05269 14.7362 7.14645 14.6424C7.24022 14.5486 7.36739 14.496 7.5 14.496H10.5C10.6326 14.496 10.7598 14.5486 10.8535 14.6424C10.9473 14.7362 11 14.8634 11 14.996C11 15.1286 10.9473 15.2557 10.8535 15.3495C10.7598 15.4433 10.6326 15.496 10.5 15.496Z" fill="white"/>
</g>
<g id="Line 132">
<path id="Path 3497" d="M17 7.99597C16.8674 7.99597 16.7402 7.94329 16.6465 7.84952C16.5527 7.75575 16.5 7.62858 16.5 7.49597V0.995972C16.5 0.863363 16.5527 0.736178 16.6465 0.64241C16.7402 0.548642 16.8674 0.495972 17 0.495972C17.1326 0.495972 17.2598 0.548642 17.3535 0.64241C17.4473 0.736178 17.5 0.863363 17.5 0.995972V7.49597C17.5 7.62858 17.4473 7.75575 17.3535 7.84952C17.2598 7.94329 17.1326 7.99597 17 7.99597Z" fill="white"/>
</g>
<g id="Path 1588">
<path id="Path 3498" d="M16.9998 7.99602C16.934 7.996 16.8689 7.983 16.8081 7.95778C16.7474 7.93255 16.6922 7.8956 16.6458 7.84901L14.6458 5.84901C14.552 5.75513 14.4994 5.62785 14.4995 5.49516C14.4996 5.36248 14.5524 5.23526 14.6463 5.14151C14.7402 5.04776 14.8675 4.99515 15.0001 4.99524C15.1328 4.99533 15.26 5.04813 15.3538 5.14201L16.9998 6.79601L18.6458 5.15001C18.7395 5.05612 18.8668 5.00333 18.9994 5.00323C19.1321 5.00314 19.2594 5.05575 19.3533 5.14951C19.4472 5.24326 19.5 5.37048 19.5001 5.50316C19.5002 5.63584 19.4475 5.76312 19.3538 5.85701L17.3538 7.85701C17.2587 7.94816 17.1315 7.99812 16.9998 7.99602Z" fill="white"/>
</g>
<g id="Path 1589">
<path id="Path 3499" d="M20 10.496H14C13.6022 10.496 13.2207 10.3379 12.9393 10.0566C12.658 9.77532 12.5 9.3938 12.5 8.99597V6.99597C12.5 6.86336 12.5527 6.73618 12.6465 6.64241C12.7402 6.54864 12.8674 6.49597 13 6.49597C13.1326 6.49597 13.2598 6.54864 13.3535 6.64241C13.4473 6.73618 13.5 6.86336 13.5 6.99597V8.99597C13.5 9.12858 13.5527 9.25575 13.6465 9.34952C13.7402 9.44329 13.8674 9.49597 14 9.49597H20C20.1326 9.49597 20.2598 9.44329 20.3535 9.34952C20.4473 9.25575 20.5 9.12858 20.5 8.99597V6.99597C20.5 6.86336 20.5527 6.73618 20.6465 6.64241C20.7402 6.54864 20.8674 6.49597 21 6.49597C21.1326 6.49597 21.2598 6.54864 21.3535 6.64241C21.4473 6.73618 21.5 6.86336 21.5 6.99597V8.99597C21.5 9.3938 21.342 9.77532 21.0607 10.0566C20.7793 10.3379 20.3978 10.496 20 10.496Z" fill="white"/>
</g>
</g>
</svg>
