<svg width="24" height="24" viewBox="0 0 24 24" fill="none" xmlns="http://www.w3.org/2000/svg">
<path d="M18 19.5C17.8674 19.5 17.7398 19.4473 17.646 19.3535C17.5522 19.2597 17.5 19.1326 17.5 19C17.5 18.7348 17.3946 18.4805 17.207 18.293C17.0195 18.1054 16.7652 18 16.5 18H14.5C14.2348 18 13.98 18.1054 13.7925 18.293C13.6049 18.4805 13.5 18.7348 13.5 19C13.5 19.1326 13.4473 19.2597 13.3535 19.3535C13.2597 19.4473 13.1326 19.5 13 19.5H4C3.33696 19.5 2.70077 19.2364 2.23193 18.7676C1.76309 18.2987 1.5 17.663 1.5 17V7C1.5 6.33696 1.76309 5.70078 2.23193 5.23193C2.70077 4.76309 3.33696 4.5 4 4.5H13C13.0659 4.49988 13.131 4.51286 13.1919 4.53809C13.2528 4.56332 13.3084 4.60027 13.355 4.64697C13.4019 4.69312 13.4388 4.74826 13.4639 4.80908C13.489 4.86991 13.5017 4.93518 13.501 5.00098C13.5007 5.13102 13.5259 5.25974 13.5757 5.37988C13.6255 5.50003 13.6984 5.60893 13.7905 5.70068C13.9792 5.89106 14.2359 5.99923 14.5039 6.00098H16.5039C16.7691 6.00098 17.0234 5.89555 17.2109 5.70801C17.3985 5.52047 17.5039 5.26619 17.5039 5.00098C17.5039 4.86837 17.5566 4.74123 17.6504 4.64746C17.7442 4.55369 17.8713 4.50098 18.0039 4.50098H20.0039C20.6669 4.50098 21.3026 4.76407 21.7715 5.23291C22.2403 5.70175 22.5039 6.33794 22.5039 7.00098V17.001C22.5039 17.664 22.2403 18.2997 21.7715 18.7686C21.3026 19.2374 20.6669 19.501 20.0039 19.501L18 19.5ZM16.5 17C16.9435 16.9999 17.374 17.1469 17.7246 17.4185C18.0752 17.69 18.3261 18.0706 18.437 18.5H20C20.3978 18.5 20.7792 18.3419 21.0605 18.0605C21.3419 17.7792 21.5 17.3978 21.5 17V7C21.5 6.60218 21.3419 6.22076 21.0605 5.93945C20.7792 5.65815 20.3978 5.5 20 5.5H18.437C18.3261 5.9294 18.0752 6.30953 17.7246 6.58106C17.374 6.85258 16.9435 7.00011 16.5 7H16V9C16 9.13261 15.9473 9.25975 15.8535 9.35352C15.7597 9.44728 15.6326 9.5 15.5 9.5C15.3674 9.5 15.2398 9.44728 15.146 9.35352C15.0522 9.25975 15 9.13261 15 9V7H14.5C13.9678 6.99579 13.4587 6.7818 13.083 6.40479C12.8314 6.15558 12.652 5.84303 12.564 5.5H4.00098C3.60315 5.5 3.22125 5.65815 2.93994 5.93945C2.65864 6.22076 2.50098 6.60218 2.50098 7V17C2.50098 17.3978 2.65864 17.7792 2.93994 18.0605C3.22125 18.3419 3.60315 18.5 4.00098 18.5H12.564C12.6747 18.0709 12.9247 17.6909 13.2749 17.4194C13.6251 17.1479 14.0554 17.0003 14.4985 17H14.9985V15C14.9985 14.8674 15.0513 14.7403 15.145 14.6465C15.2388 14.5527 15.3659 14.5 15.4985 14.5C15.6311 14.5 15.7588 14.5527 15.8525 14.6465C15.9463 14.7403 15.9985 14.8674 15.9985 15V17H16.5ZM5.23584 17C4.83802 17 4.4566 16.8419 4.17529 16.5605C3.89399 16.2792 3.73584 15.8978 3.73584 15.5V14.5C3.73584 14.3674 3.78856 14.2403 3.88232 14.1465C3.97609 14.0527 4.10323 14 4.23584 14C4.36845 14 4.49559 14.0527 4.58936 14.1465C4.68312 14.2403 4.73584 14.3674 4.73584 14.5V15.5C4.73584 15.6326 4.78856 15.7597 4.88232 15.8535C4.97609 15.9473 5.10323 16 5.23584 16H10.2358C10.3684 16 10.4956 15.9473 10.5894 15.8535C10.6831 15.7597 10.7358 15.6326 10.7358 15.5V14.5C10.7358 14.3674 10.7886 14.2403 10.8823 14.1465C10.9761 14.0527 11.1032 14 11.2358 14C11.3684 14 11.4956 14.0527 11.5894 14.1465C11.6831 14.2403 11.7358 14.3674 11.7358 14.5V15.5C11.7358 15.8978 11.5777 16.2792 11.2964 16.5605C11.0151 16.8419 10.6337 17 10.2358 17H5.23584ZM7.38281 14.354L5.38281 12.354C5.28893 12.2601 5.23633 12.1328 5.23633 12C5.23633 11.8672 5.28893 11.7399 5.38281 11.646C5.4767 11.5521 5.60404 11.4995 5.73682 11.4995C5.86959 11.4995 5.99693 11.5521 6.09082 11.646L7.23682 12.792V7.5C7.23682 7.36739 7.28953 7.24025 7.3833 7.14649C7.47707 7.05272 7.60421 7 7.73682 7C7.86942 7 7.99656 7.05272 8.09033 7.14649C8.1841 7.24025 8.23682 7.36739 8.23682 7.5V12.7949L9.38477 11.647C9.47919 11.556 9.60571 11.5055 9.73682 11.5068C9.86792 11.5082 9.99287 11.561 10.0854 11.6538C10.178 11.7466 10.2305 11.8723 10.2314 12.0034C10.2324 12.1345 10.182 12.2608 10.0908 12.355L8.09082 14.355C8.04437 14.4015 7.98897 14.4382 7.92822 14.4634C7.86748 14.4886 7.80258 14.502 7.73682 14.502C7.67105 14.502 7.60567 14.4886 7.54492 14.4634C7.48418 14.4382 7.42926 14.4015 7.38281 14.355V14.354ZM15 13.001V11.001C15 10.8684 15.0522 10.7412 15.146 10.6475C15.2398 10.5537 15.3674 10.501 15.5 10.501C15.6326 10.501 15.7597 10.5537 15.8535 10.6475C15.9473 10.7412 16 10.8684 16 11.001V13.001C16 13.1336 15.9473 13.2607 15.8535 13.3545C15.7597 13.4483 15.6326 13.501 15.5 13.501C15.3674 13.501 15.2398 13.4483 15.146 13.3545C15.0522 13.2607 15 13.1336 15 13.001Z" fill="#56596A"/>
</svg>
