<svg width="24" height="24" viewBox="0 0 24 24" fill="none" xmlns="http://www.w3.org/2000/svg">
<path d="M17.9995 19.5C17.8669 19.5 17.7393 19.4473 17.6455 19.3535C17.5517 19.2597 17.4995 19.1326 17.4995 19C17.4995 18.7348 17.3941 18.4805 17.2065 18.293C17.019 18.1054 16.7647 18 16.4995 18H14.4995C14.2343 18 13.9795 18.1054 13.792 18.293C13.6045 18.4805 13.4995 18.7348 13.4995 19C13.4995 19.1326 13.4468 19.2597 13.353 19.3535C13.2593 19.4473 13.1321 19.5 12.9995 19.5H3.99951C3.33647 19.5 2.70029 19.2364 2.23145 18.7676C1.7626 18.2987 1.49951 17.663 1.49951 17V15.5C1.49951 15.3674 1.55174 15.2403 1.64551 15.1465C1.73928 15.0527 1.8669 15 1.99951 15C2.13212 15 2.25926 15.0527 2.35303 15.1465C2.4468 15.2403 2.49951 15.3674 2.49951 15.5V17C2.49951 17.3978 2.65717 17.7792 2.93848 18.0605C3.21978 18.3419 3.60169 18.5 3.99951 18.5H12.5625C12.6733 18.0709 12.9232 17.6909 13.2734 17.4194C13.6237 17.1479 14.0539 17.0003 14.4971 17H14.9971V15C14.9971 14.8674 15.0498 14.7403 15.1436 14.6465C15.2373 14.5527 15.3645 14.5 15.4971 14.5C15.6297 14.5 15.7573 14.5527 15.8511 14.6465C15.9448 14.7403 15.9971 14.8674 15.9971 15V17H16.4971C16.9405 16.9999 17.3715 17.1469 17.7222 17.4185C18.0728 17.69 18.3232 18.0706 18.4341 18.5H19.9971C20.3949 18.5 20.7768 18.3419 21.0581 18.0605C21.3394 17.7792 21.4971 17.3978 21.4971 17V7C21.4971 6.60218 21.3394 6.22076 21.0581 5.93945C20.7768 5.65815 20.3949 5.5 19.9971 5.5H18.4341C18.3232 5.9294 18.0728 6.30953 17.7222 6.58106C17.3715 6.85258 16.9405 7.00011 16.4971 7H15.9971V9C15.9971 9.13261 15.9448 9.25975 15.8511 9.35352C15.7573 9.44728 15.6297 9.5 15.4971 9.5C15.3645 9.5 15.2373 9.44728 15.1436 9.35352C15.0498 9.25975 14.9971 9.13261 14.9971 9V7H14.4971C13.9649 6.99579 13.4558 6.7818 13.0801 6.40479C12.8285 6.15558 12.6495 5.84303 12.5615 5.5H3.99805C3.60022 5.5 3.2188 5.65815 2.9375 5.93945C2.6562 6.22076 2.49805 6.60218 2.49805 7V8.5C2.49805 8.63261 2.44582 8.75975 2.35205 8.85352C2.25828 8.94728 2.13066 9 1.99805 9C1.86544 9 1.7383 8.94728 1.64453 8.85352C1.55076 8.75975 1.49805 8.63261 1.49805 8.5V7C1.49805 6.33696 1.76163 5.70078 2.23047 5.23193C2.69931 4.76309 3.33501 4.5 3.99805 4.5H12.998C13.064 4.49988 13.1295 4.51286 13.1904 4.53809C13.2514 4.56332 13.307 4.60027 13.3535 4.64697C13.4004 4.69312 13.4373 4.74826 13.4624 4.80908C13.4875 4.86991 13.5002 4.93518 13.4995 5.00098C13.4992 5.13102 13.5244 5.25974 13.5742 5.37988C13.624 5.50003 13.6969 5.60893 13.7891 5.70068C13.9777 5.89106 14.2344 5.99923 14.5024 6.00098H16.5024C16.7677 6.00098 17.0219 5.89555 17.2095 5.70801C17.397 5.52047 17.5024 5.26619 17.5024 5.00098C17.5024 4.86837 17.5552 4.74123 17.6489 4.64746C17.7427 4.55369 17.8698 4.50098 18.0024 4.50098H20.0024C20.6655 4.50098 21.3012 4.76407 21.77 5.23291C22.2389 5.70175 22.5024 6.33794 22.5024 7.00098V17.001C22.5024 17.664 22.2389 18.2997 21.77 18.7686C21.3012 19.2374 20.6655 19.501 20.0024 19.501L17.9995 19.5ZM7.49951 15.5C7.49947 15.3503 7.51604 15.2007 7.54932 15.0547L4.85645 13.4688C4.5709 13.7328 4.21454 13.908 3.83105 13.9727C3.44757 14.0373 3.05357 13.9888 2.69727 13.833C2.34096 13.6772 2.03759 13.4207 1.82471 13.0952C1.61183 12.7698 1.49854 12.3894 1.49854 12.0005C1.49854 11.6116 1.61183 11.2312 1.82471 10.9058C2.03759 10.5803 2.34096 10.3238 2.69727 10.168C3.05357 10.0121 3.44757 9.96369 3.83105 10.0283C4.21454 10.093 4.5709 10.2677 4.85645 10.5317L7.55029 8.9458C7.44154 8.47138 7.50972 7.97378 7.7417 7.5459C7.97368 7.11801 8.35364 6.78933 8.81055 6.62158C9.26745 6.45384 9.7699 6.45863 10.2236 6.63477C10.6774 6.8109 11.0513 7.14604 11.2754 7.57813C11.4995 8.01021 11.5579 8.5096 11.4404 8.98193C11.323 9.45427 11.0376 9.86725 10.6372 10.144C10.2369 10.4208 9.74901 10.5423 9.26562 10.4854C8.78224 10.4284 8.33633 10.1972 8.01123 9.83496L5.39941 11.3721C5.53429 11.7799 5.53429 12.2201 5.39941 12.6279L8.01123 14.166C8.32355 13.8183 8.74793 13.591 9.21045 13.5234C9.67296 13.4559 10.1443 13.5524 10.543 13.7964C10.9417 14.0403 11.2427 14.4163 11.3931 14.8589C11.5435 15.3014 11.5342 15.7824 11.3667 16.2188C11.1992 16.6551 10.884 17.0193 10.4761 17.2476C10.0682 17.4758 9.59333 17.5542 9.13379 17.4688C8.67425 17.3833 8.25902 17.1394 7.96045 16.7798C7.66188 16.4202 7.49896 15.9674 7.49951 15.5V15.5ZM8.49951 15.5C8.49935 15.7437 8.58789 15.9788 8.74902 16.1616C8.91015 16.3444 9.13273 16.4622 9.37451 16.4927C9.61629 16.5231 9.86058 16.4643 10.062 16.3271C10.2634 16.19 10.408 15.9842 10.4683 15.748C10.5285 15.5119 10.5002 15.2618 10.3892 15.0449C10.2781 14.828 10.092 14.659 9.86523 14.5698C9.63844 14.4807 9.38675 14.4773 9.15771 14.5605C8.92868 14.6438 8.73774 14.808 8.62109 15.022C8.61168 15.0447 8.60094 15.0667 8.58838 15.0879V15.0879C8.52989 15.2173 8.49998 15.358 8.50049 15.5H8.49951ZM2.49951 12C2.49951 12.1978 2.55809 12.3912 2.66797 12.5557C2.77785 12.7201 2.93397 12.8481 3.1167 12.9238C3.29943 12.9995 3.50035 13.0191 3.69434 12.9805C3.88832 12.9419 4.06669 12.8469 4.20654 12.707C4.3464 12.5672 4.4414 12.3888 4.47998 12.1948C4.51857 12.0008 4.49903 11.7999 4.42334 11.6172C4.34765 11.4345 4.21914 11.2783 4.05469 11.1685C3.89024 11.0586 3.69729 11 3.49951 11C3.2343 11 2.97953 11.1054 2.79199 11.293C2.60446 11.4805 2.49951 11.7348 2.49951 12ZM9.49951 9.5C9.71529 9.50012 9.92523 9.43035 10.0981 9.30127C10.2711 9.17219 10.3973 8.9906 10.4585 8.78369C10.5197 8.57678 10.5128 8.35572 10.438 8.15332C10.3632 7.95092 10.2245 7.77799 10.0435 7.66065C9.86237 7.5433 9.64841 7.48755 9.43311 7.50195C9.2178 7.51636 9.01296 7.6003 8.84912 7.74072C8.68528 7.88115 8.57111 8.07069 8.52393 8.28125C8.47675 8.49181 8.49915 8.71178 8.5874 8.90869C8.59997 8.93057 8.61071 8.95365 8.62012 8.97705C8.70599 9.13528 8.83308 9.26732 8.98779 9.35938C9.1425 9.45143 9.31949 9.50002 9.49951 9.5ZM14.9995 13V11C14.9995 10.8674 15.0517 10.7403 15.1455 10.6465C15.2393 10.5527 15.3669 10.5 15.4995 10.5C15.6321 10.5 15.7593 10.5527 15.853 10.6465C15.9468 10.7403 15.9995 10.8674 15.9995 11V13C15.9995 13.1326 15.9468 13.2597 15.853 13.3535C15.7593 13.4473 15.6321 13.5 15.4995 13.5C15.3669 13.5 15.2393 13.4473 15.1455 13.3535C15.0517 13.2597 14.9995 13.1326 14.9995 13Z" fill="#56596A"/>
</svg>
