<svg width="24" height="24" viewBox="0 0 24 24" fill="none" xmlns="http://www.w3.org/2000/svg">
<path d="M17 19.5C16.8674 19.5 16.7398 19.4473 16.646 19.3535C16.5522 19.2597 16.5 19.1326 16.5 19C16.5 18.7348 16.3946 18.4805 16.207 18.293C16.0195 18.1054 15.7652 18 15.5 18H13.5C13.2348 18 12.98 18.1054 12.7925 18.293C12.6049 18.4805 12.5 18.7348 12.5 19C12.5 19.1326 12.4473 19.2597 12.3535 19.3535C12.2597 19.4473 12.1326 19.5 12 19.5H4C3.33696 19.5 2.70077 19.2364 2.23193 18.7676C1.76309 18.2987 1.5 17.663 1.5 17V7C1.5 6.33696 1.76309 5.70078 2.23193 5.23193C2.70077 4.76309 3.33696 4.5 4 4.5H12C12.0659 4.49988 12.131 4.51286 12.1919 4.53809C12.2528 4.56332 12.3084 4.60027 12.355 4.64697C12.4014 4.69349 12.4378 4.74883 12.4629 4.80957C12.4879 4.87031 12.5011 4.93527 12.501 5.00098C12.5005 5.13105 12.5259 5.25972 12.5757 5.37988C12.6255 5.50005 12.6982 5.60903 12.7905 5.70068C12.8835 5.79494 12.9942 5.8704 13.1162 5.92188C13.2382 5.97335 13.3695 6.00012 13.502 6.00098H15.502C15.7672 6.00098 16.0214 5.89555 16.209 5.70801C16.3965 5.52047 16.502 5.26619 16.502 5.00098C16.502 4.86837 16.5547 4.74123 16.6484 4.64746C16.7422 4.55369 16.8693 4.50098 17.002 4.50098H20.002C20.665 4.50098 21.3007 4.76407 21.7695 5.23291C22.2384 5.70175 22.502 6.33794 22.502 7.00098V17.001C22.502 17.664 22.2384 18.2997 21.7695 18.7686C21.3007 19.2374 20.665 19.501 20.002 19.501L17 19.5ZM15.5 17C15.9435 16.9999 16.374 17.1469 16.7246 17.4185C17.0752 17.69 17.3261 18.0706 17.437 18.5H20C20.3978 18.5 20.7792 18.3419 21.0605 18.0605C21.3419 17.7792 21.5 17.3978 21.5 17V7C21.5 6.60218 21.3419 6.22076 21.0605 5.93945C20.7792 5.65815 20.3978 5.5 20 5.5H17.437C17.3252 5.92889 17.0741 6.30871 16.7236 6.58008C16.3732 6.85145 15.9432 6.99909 15.5 7H15V9C15 9.13261 14.9473 9.25975 14.8535 9.35352C14.7597 9.44728 14.6326 9.5 14.5 9.5C14.3674 9.5 14.2398 9.44728 14.146 9.35352C14.0522 9.25975 14 9.13261 14 9V7H13.5C12.9672 6.99747 12.4567 6.78324 12.0815 6.40479C11.8314 6.15473 11.6533 5.84244 11.5649 5.5H4.00098C3.60315 5.5 3.22125 5.65815 2.93994 5.93945C2.65864 6.22076 2.50098 6.60218 2.50098 7V17C2.50098 17.3978 2.65864 17.7792 2.93994 18.0605C3.22125 18.3419 3.60315 18.5 4.00098 18.5H11.5649C11.6758 18.0708 11.9259 17.6905 12.2764 17.4189C12.6268 17.1474 13.0577 17.0001 13.501 17H14.001V15C14.001 14.8674 14.0532 14.7403 14.147 14.6465C14.2407 14.5527 14.3684 14.5 14.501 14.5C14.6336 14.5 14.7607 14.5527 14.8545 14.6465C14.9483 14.7403 15.001 14.8674 15.001 15V17H15.5ZM14 13V11C14 10.8674 14.0522 10.7403 14.146 10.6465C14.2398 10.5527 14.3674 10.5 14.5 10.5C14.6326 10.5 14.7597 10.5527 14.8535 10.6465C14.9473 10.7403 15 10.8674 15 11V13C15 13.1326 14.9473 13.2597 14.8535 13.3535C14.7597 13.4473 14.6326 13.5 14.5 13.5C14.3674 13.5 14.2398 13.4473 14.146 13.3535C14.0522 13.2597 14 13.1326 14 13Z" fill="#56596A"/>
</svg>
