<svg width="24" height="24" viewBox="0 0 24 24" fill="none" xmlns="http://www.w3.org/2000/svg">
<path d="M2 18.5C1.86739 18.5 1.73976 18.4473 1.646 18.3535C1.55223 18.2598 1.5 18.1326 1.5 18C1.5 17.8674 1.55223 17.7403 1.646 17.6465C1.73976 17.5527 1.86739 17.5 2 17.5H22C22.1326 17.5 22.2597 17.5527 22.3535 17.6465C22.4473 17.7403 22.5 17.8674 22.5 18C22.5 18.1326 22.4473 18.2598 22.3535 18.3535C22.2597 18.4473 22.1326 18.5 22 18.5H2ZM20.7998 15.1929L8.09961 13.6348C7.51698 13.5435 6.95835 13.3373 6.45605 13.0283C5.95376 12.7193 5.51802 12.3139 5.17383 11.835L2.20898 7.53469C2.15267 7.45414 2.12107 7.35902 2.11865 7.26076C2.11623 7.16251 2.14303 7.06567 2.19531 6.98244C2.2476 6.89922 2.32303 6.83346 2.4126 6.79299C2.50216 6.75252 2.60172 6.73914 2.69873 6.75491L5.79883 7.2427C5.90615 7.26044 6.00488 7.31152 6.08154 7.38869L8.39258 9.79397L10.6836 9.95901L8.43262 6.251C8.38654 6.1749 8.36158 6.08799 8.36035 5.99905C8.35912 5.9101 8.38183 5.82248 8.42578 5.74514C8.46824 5.66554 8.53243 5.59931 8.61084 5.55471C8.68925 5.51011 8.77854 5.48851 8.86865 5.4927L10.2686 5.51174C10.594 5.51638 10.9155 5.58503 11.2144 5.71389C11.5133 5.84275 11.7839 6.02927 12.0107 6.26272L15.2607 10.3438L18.7539 10.8208C19.3497 10.9512 19.8766 11.2967 20.2339 11.791L21.6938 13.8257C21.805 13.9626 21.872 14.1304 21.8862 14.3062C21.9005 14.482 21.8615 14.658 21.7739 14.8111C21.6881 14.938 21.571 15.0407 21.4341 15.1094C21.2971 15.178 21.1447 15.2104 20.9917 15.2031C20.9281 15.2076 20.8642 15.2062 20.8008 15.1997L20.7998 15.1929ZM5.98877 11.2652C6.25334 11.6326 6.58816 11.9436 6.97363 12.1812C7.35911 12.4187 7.7877 12.5778 8.23486 12.6489L20.6997 14.1758L19.417 12.3819C19.2115 12.0951 18.9092 11.8925 18.5659 11.8111L14.9219 11.3111C14.7944 11.2933 14.6785 11.2269 14.5986 11.126L11.2559 6.9258C10.9877 6.66526 10.6297 6.51764 10.2559 6.51369L9.75586 6.50686L12.042 10.273C12.0899 10.3514 12.1152 10.4413 12.1152 10.5332C12.1152 10.6251 12.0899 10.7155 12.042 10.794C11.9952 10.8728 11.9267 10.9366 11.8452 10.9785C11.7637 11.0205 11.6719 11.0386 11.5806 11.0308L8.13086 10.7837C8.00647 10.775 7.88969 10.7202 7.80371 10.6299L5.47656 8.20705L3.69385 7.9258L5.98877 11.2652Z" fill="#56596A"/>
</svg>
