<svg width="24" height="24" viewBox="0 0 24 24" fill="none" xmlns="http://www.w3.org/2000/svg">
<path d="M18 19.501C17.8674 19.501 17.7398 19.4483 17.646 19.3545C17.5522 19.2607 17.5 19.1336 17.5 19.001C17.5 18.7358 17.3946 18.4815 17.207 18.2939C17.0195 18.1064 16.7652 18.001 16.5 18.001H14.5C14.2348 18.001 13.98 18.1064 13.7925 18.2939C13.6049 18.4815 13.5 18.7358 13.5 19.001C13.5 19.1336 13.4473 19.2607 13.3535 19.3545C13.2597 19.4483 13.1326 19.501 13 19.501H4C3.33696 19.501 2.70077 19.2374 2.23193 18.7686C1.76309 18.2997 1.5 17.664 1.5 17.001V7.00098C1.5 6.33794 1.76309 5.70175 2.23193 5.23291C2.70077 4.76407 3.33696 4.50098 4 4.50098H5.97656C6.10917 4.50098 6.2368 4.55369 6.33057 4.64746C6.42433 4.74123 6.47656 4.86837 6.47656 5.00098C6.47656 5.13358 6.42433 5.26072 6.33057 5.35449C6.2368 5.44826 6.10917 5.50098 5.97656 5.50098H4C3.60218 5.50098 3.22027 5.65913 2.93896 5.94043C2.65766 6.22173 2.5 6.60315 2.5 7.00098V17.001C2.5 17.3988 2.65766 17.7802 2.93896 18.0615C3.22027 18.3428 3.60218 18.501 4 18.501H12.563C12.6738 18.0719 12.9237 17.6919 13.2739 17.4204C13.6242 17.1489 14.0544 17.0013 14.4976 17.001H14.9976V15.001C14.9976 14.8684 15.0503 14.7412 15.144 14.6475C15.2378 14.5537 15.365 14.501 15.4976 14.501C15.6302 14.501 15.7578 14.5537 15.8516 14.6475C15.9453 14.7412 15.9976 14.8684 15.9976 15.001V17.001H16.4976C16.941 17.0009 17.372 17.1479 17.7227 17.4194C18.0733 17.691 18.3237 18.0716 18.4346 18.501H19.9976C20.3954 18.501 20.7773 18.3428 21.0586 18.0615C21.3399 17.7802 21.4976 17.3988 21.4976 17.001V7.00098C21.4976 6.60315 21.3399 6.22173 21.0586 5.94043C20.7773 5.65913 20.3954 5.50098 19.9976 5.50098H18.4346C18.3237 5.93037 18.0733 6.3105 17.7227 6.58203C17.372 6.85356 16.941 7.00109 16.4976 7.00098H15.9976V9.00098C15.9976 9.13358 15.9453 9.26072 15.8516 9.35449C15.7578 9.44826 15.6302 9.50098 15.4976 9.50098C15.365 9.50098 15.2378 9.44826 15.144 9.35449C15.0503 9.26072 14.9976 9.13358 14.9976 9.00098V7.00098H14.4976C13.9658 6.99654 13.457 6.78335 13.0806 6.40771C12.8293 6.15746 12.6504 5.84442 12.562 5.50098H11.0977C10.965 5.50098 10.8379 5.44826 10.7441 5.35449C10.6504 5.26072 10.5977 5.13358 10.5977 5.00098C10.5977 4.86837 10.6504 4.74123 10.7441 4.64746C10.8379 4.55369 10.965 4.50098 11.0977 4.50098H12.9976C13.1302 4.50098 13.2578 4.55369 13.3516 4.64746C13.4453 4.74123 13.4976 4.86837 13.4976 5.00098C13.4978 5.26349 13.6021 5.51491 13.7876 5.70068C13.9766 5.89051 14.2331 5.99858 14.501 6.00098H16.501C16.7662 6.00098 17.0205 5.89554 17.208 5.70801C17.3955 5.52047 17.501 5.26619 17.501 5.00098C17.501 4.86837 17.5532 4.74123 17.647 4.64746C17.7407 4.55369 17.8684 4.50098 18.001 4.50098H20.001C20.664 4.50098 21.2997 4.76407 21.7686 5.23291C22.2374 5.70175 22.501 6.33794 22.501 7.00098V17.001C22.501 17.664 22.2374 18.2997 21.7686 18.7686C21.2997 19.2374 20.664 19.501 20.001 19.501H18ZM5.5 16.8711C5.10218 16.8711 4.72027 16.7129 4.43896 16.4316C4.15766 16.1503 4 15.7689 4 15.3711V13.2827C4 13.1501 4.05223 13.023 4.146 12.9292C4.23976 12.8354 4.36739 12.7827 4.5 12.7827C4.63261 12.7827 4.75975 12.8354 4.85352 12.9292C4.94728 13.023 5 13.1501 5 13.2827V15.3711C5 15.5037 5.05223 15.6308 5.146 15.7246C5.23976 15.8184 5.36739 15.8711 5.5 15.8711H7.5C7.63261 15.8711 7.75975 15.8184 7.85352 15.7246C7.94728 15.6308 8 15.5037 8 15.3711V6.20898L6.46191 7.74707C6.36803 7.84096 6.24069 7.89355 6.10791 7.89355C5.97513 7.89355 5.84779 7.84096 5.75391 7.74707C5.66002 7.65318 5.60693 7.52584 5.60693 7.39307C5.60693 7.26029 5.66002 7.13295 5.75391 7.03906L8.14697 4.64697C8.19342 4.60041 8.24834 4.56329 8.30908 4.53809C8.36983 4.51288 8.43521 4.5 8.50098 4.5C8.56674 4.5 8.63164 4.51288 8.69238 4.53809C8.75313 4.56329 8.80853 4.60041 8.85498 4.64697L11.2476 7.03906C11.3414 7.13295 11.3945 7.26029 11.3945 7.39307C11.3945 7.52584 11.3414 7.65318 11.2476 7.74707C11.1537 7.84096 11.0263 7.89355 10.8936 7.89355C10.7608 7.89355 10.6334 7.84096 10.5396 7.74707L9 6.20703V15.3711C9 15.7689 8.84185 16.1503 8.56055 16.4316C8.27924 16.7129 7.89782 16.8711 7.5 16.8711H5.5ZM15 13.002V11.002C15 10.8693 15.0522 10.7422 15.146 10.6484C15.2398 10.5547 15.3674 10.502 15.5 10.502C15.6326 10.502 15.7597 10.5547 15.8535 10.6484C15.9473 10.7422 16 10.8693 16 11.002V13.002C16 13.1346 15.9473 13.2617 15.8535 13.3555C15.7597 13.4492 15.6326 13.502 15.5 13.502C15.3674 13.502 15.2398 13.4492 15.146 13.3555C15.0522 13.2617 15 13.1346 15 13.002Z" fill="#56596A"/>
</svg>
