<svg width="24" height="24" viewBox="0 0 24 24" fill="none" xmlns="http://www.w3.org/2000/svg">
<path d="M7.77834 22.501C7.1153 22.501 6.47911 22.2374 6.01027 21.7686C5.54143 21.2997 5.27834 20.664 5.27834 20.001V14.334C5.27834 14.2014 5.33106 14.0742 5.42482 13.9805C5.51859 13.8867 5.64573 13.834 5.77834 13.834C5.91095 13.834 6.03809 13.8867 6.13185 13.9805C6.22562 14.0742 6.27834 14.2014 6.27834 14.334V20.001C6.27834 20.3988 6.43649 20.7802 6.71779 21.0615C6.9991 21.3428 7.38051 21.501 7.77834 21.501H19.0015C19.3993 21.501 19.7807 21.3428 20.062 21.0615C20.3433 20.7802 20.5015 20.3988 20.5015 20.001V4.00098C20.5015 3.60315 20.3433 3.22173 20.062 2.94043C19.7807 2.65913 19.3993 2.50098 19.0015 2.50098H7.77834C7.38051 2.50098 6.9991 2.65913 6.71779 2.94043C6.43649 3.22173 6.27834 3.60315 6.27834 4.00098V9.95996L8.20412 8.03564C8.24952 7.985 8.30499 7.94457 8.36672 7.91602C8.42845 7.88746 8.4955 7.87143 8.5635 7.86963C8.63149 7.86782 8.69907 7.88004 8.76223 7.90527C8.82539 7.93051 8.88266 7.96844 8.93068 8.0166C8.97871 8.06476 9.01647 8.12232 9.04152 8.18555C9.06658 8.24878 9.07819 8.31629 9.07619 8.38428C9.07419 8.45226 9.05853 8.5194 9.0298 8.58105C9.00108 8.6427 8.95997 8.69742 8.9092 8.74268L6.13332 11.521C6.11347 11.5407 6.0921 11.5584 6.06935 11.5747C5.99144 11.6306 5.89899 11.6631 5.80324 11.668H5.77834C5.70857 11.6678 5.63943 11.6529 5.5757 11.6245C5.51198 11.5961 5.45497 11.5547 5.40822 11.5029L2.64846 8.7417C2.55738 8.6474 2.50669 8.52124 2.50783 8.39014C2.50897 8.25904 2.56161 8.13372 2.65432 8.04102C2.74702 7.94831 2.87234 7.89567 3.00344 7.89453C3.13454 7.89339 3.26119 7.94359 3.35549 8.03467L5.27932 9.95996V4C5.27932 3.33696 5.54241 2.70077 6.01125 2.23193C6.48009 1.76309 7.11627 1.5 7.77932 1.5H19.0025C19.6655 1.5 20.3012 1.76309 20.77 2.23193C21.2389 2.70077 21.5025 3.33696 21.5025 4V20C21.5025 20.663 21.2389 21.2987 20.77 21.7676C20.3012 22.2364 19.6655 22.5 19.0025 22.5L7.77834 22.501ZM14.0025 15.001C13.8699 15.001 13.7422 14.9483 13.6485 14.8545C13.5547 14.7607 13.5025 14.6336 13.5025 14.501C13.5025 14.3684 13.5547 14.2412 13.6485 14.1475C13.7422 14.0537 13.8699 14.001 14.0025 14.001H18.0025C18.1351 14.001 18.2622 14.0537 18.356 14.1475C18.4497 14.2412 18.5025 14.3684 18.5025 14.501C18.5025 14.6336 18.4497 14.7607 18.356 14.8545C18.2622 14.9483 18.1351 15.001 18.0025 15.001H14.0025ZM12.0025 12.001C11.8699 12.001 11.7422 11.9483 11.6485 11.8545C11.5547 11.7607 11.5025 11.6336 11.5025 11.501C11.5025 11.3684 11.5547 11.2412 11.6485 11.1475C11.7422 11.0537 11.8699 11.001 12.0025 11.001H18.0025C18.1351 11.001 18.2622 11.0537 18.356 11.1475C18.4497 11.2412 18.5025 11.3684 18.5025 11.501C18.5025 11.6336 18.4497 11.7607 18.356 11.8545C18.2622 11.9483 18.1351 12.001 18.0025 12.001H12.0025ZM12.0025 9.00098C11.8699 9.00098 11.7422 8.94826 11.6485 8.85449C11.5547 8.76072 11.5025 8.63358 11.5025 8.50098C11.5025 8.36837 11.5547 8.24123 11.6485 8.14746C11.7422 8.05369 11.8699 8.00098 12.0025 8.00098H18.0025C18.1351 8.00098 18.2622 8.05369 18.356 8.14746C18.4497 8.24123 18.5025 8.36837 18.5025 8.50098C18.5025 8.63358 18.4497 8.76072 18.356 8.85449C18.2622 8.94826 18.1351 9.00098 18.0025 9.00098H12.0025ZM12.0025 6.00098C11.8699 6.00098 11.7422 5.94826 11.6485 5.85449C11.5547 5.76072 11.5025 5.63358 11.5025 5.50098C11.5025 5.36837 11.5547 5.24123 11.6485 5.14746C11.7422 5.05369 11.8699 5.00098 12.0025 5.00098H18.0025C18.1351 5.00098 18.2622 5.05369 18.356 5.14746C18.4497 5.24123 18.5025 5.36837 18.5025 5.50098C18.5025 5.63358 18.4497 5.76072 18.356 5.85449C18.2622 5.94826 18.1351 6.00098 18.0025 6.00098H12.0025Z" fill="#56596A"/>
</svg>
