<svg width="24" height="24" viewBox="0 0 24 24" fill="none" xmlns="http://www.w3.org/2000/svg">
<path d="M17.3242 22.2881L15.8433 20.165H8.18848L6.66748 22.293C6.62096 22.3576 6.55925 22.4101 6.48828 22.4463C6.41731 22.4825 6.33894 22.5013 6.25928 22.501C6.15536 22.5004 6.05409 22.4677 5.96924 22.4077C5.91563 22.3694 5.87022 22.3211 5.83545 22.2651C5.80068 22.2091 5.7772 22.1466 5.7666 22.0815C5.75601 22.0165 5.75823 21.9499 5.77344 21.8857C5.78864 21.8216 5.8168 21.7614 5.85547 21.708L7.03516 20.0571C6.03378 19.8362 5.13746 19.2805 4.49414 18.4819C3.85082 17.6834 3.49883 16.6895 3.49609 15.6641V6C3.49848 4.80535 3.97503 3.66061 4.8208 2.8169C5.66658 1.97318 6.81267 1.49947 8.00732 1.5H15.9883C17.1826 1.50052 18.3278 1.97439 19.1733 2.81787C20.0189 3.66136 20.4961 4.80568 20.4995 6V15.666C20.4955 16.6866 20.146 17.6758 19.5083 18.4727C18.8706 19.2695 17.9822 19.8269 16.9873 20.0547L18.1465 21.7158C18.1846 21.7699 18.2112 21.831 18.2256 21.8955C18.2399 21.9601 18.2416 22.0267 18.23 22.0918C18.2184 22.1569 18.194 22.2193 18.1582 22.2749C18.1224 22.3305 18.076 22.3785 18.0215 22.416C17.9384 22.4755 17.8385 22.5072 17.7363 22.5068C17.655 22.5066 17.5747 22.4864 17.5029 22.4482C17.4311 22.4101 17.3699 22.3553 17.3242 22.2881ZM4.49805 15.665C4.50149 16.5943 4.87302 17.4842 5.53125 18.1401C6.18948 18.7961 7.08097 19.1648 8.01025 19.165H15.9883C16.9176 19.1653 17.8091 18.7967 18.4673 18.1406C19.1255 17.4845 19.4969 16.5944 19.4995 15.665V13.3101C17.1592 14.4718 14.608 15.1475 11.9995 15.2969C9.39007 15.1566 6.83728 14.4818 4.49951 13.314L4.49805 15.665ZM11.998 14.2939C14.6205 14.1363 17.1784 13.4165 19.498 12.1831V6.32813C17.0205 5.69938 14.4798 5.35418 11.9243 5.29981C9.41765 5.34701 6.92555 5.69034 4.49951 6.32275V12.1807C6.81524 13.426 9.37547 14.1494 12.0005 14.2998L11.998 14.2939ZM19.4204 5.27881C19.2534 4.49248 18.821 3.78761 18.1963 3.28174C17.5715 2.77586 16.7922 2.49987 15.9883 2.5H8.01025C7.20737 2.49943 6.42847 2.77404 5.80371 3.27832C5.17895 3.78261 4.74601 4.48607 4.57715 5.271C6.98172 4.67115 9.4465 4.34461 11.9243 4.29785C14.452 4.3509 16.9663 4.68012 19.4224 5.27979L19.4204 5.27881ZM15.4971 16.501C15.4971 16.2043 15.5852 15.9142 15.75 15.6675C15.9148 15.4208 16.1493 15.2288 16.4233 15.1152C16.6974 15.0017 16.9991 14.9719 17.29 15.0298C17.581 15.0877 17.8483 15.2307 18.0581 15.4404C18.2679 15.6502 18.4104 15.9175 18.4683 16.2085C18.5261 16.4995 18.4968 16.8006 18.3833 17.0747C18.2698 17.3488 18.0772 17.5832 17.8306 17.748C17.5839 17.9129 17.2937 18.001 16.9971 18.001C16.5994 18.0004 16.2184 17.842 15.9375 17.5605C15.6566 17.2791 15.4992 16.8977 15.4995 16.5L15.4971 16.501ZM16.4971 16.501C16.4971 16.5999 16.5266 16.6966 16.5815 16.7788C16.6365 16.861 16.7148 16.925 16.8062 16.9629C16.8975 17.0007 16.9977 17.0105 17.0947 16.9912C17.1917 16.9719 17.2811 16.9244 17.3511 16.8545C17.421 16.7846 17.4685 16.6956 17.4878 16.5986C17.5071 16.5016 17.4968 16.4009 17.459 16.3096C17.4211 16.2182 17.3571 16.1399 17.2749 16.085C17.1927 16.03 17.096 16.001 16.9971 16.001C16.865 16.0015 16.7388 16.054 16.6455 16.1475C16.5522 16.241 16.4998 16.3679 16.4995 16.5L16.4971 16.501ZM5.49707 16.501C5.49707 16.2043 5.58518 15.9142 5.75 15.6675C5.91482 15.4208 6.14925 15.2288 6.42334 15.1152C6.69743 15.0017 6.99907 14.9719 7.29004 15.0298C7.58101 15.0877 7.84833 15.2307 8.05811 15.4404C8.26788 15.6502 8.41038 15.9175 8.46826 16.2085C8.52614 16.4995 8.49683 16.8006 8.3833 17.0747C8.26977 17.3488 8.07724 17.5832 7.83057 17.748C7.58389 17.9129 7.29374 18.001 6.99707 18.001C6.59942 18.0004 6.2184 17.842 5.9375 17.5605C5.6566 17.2791 5.49925 16.8977 5.49951 16.5L5.49707 16.501ZM6.49707 16.501C6.49707 16.5999 6.5266 16.6966 6.58154 16.7788C6.63648 16.861 6.71479 16.925 6.80615 16.9629C6.89752 17.0007 6.99774 17.0105 7.09473 16.9912C7.19172 16.9719 7.28115 16.9244 7.35107 16.8545C7.421 16.7846 7.4685 16.6956 7.48779 16.5986C7.50709 16.5016 7.49683 16.4009 7.45898 16.3096C7.42114 16.2182 7.35713 16.1399 7.2749 16.085C7.19268 16.03 7.09596 16.001 6.99707 16.001C6.86516 16.0018 6.73909 16.0545 6.646 16.1479C6.5529 16.2414 6.50075 16.3681 6.50049 16.5L6.49707 16.501Z" fill="#56596A"/>
</svg>
