<svg width="16" height="17" viewBox="0 0 16 17" fill="none" xmlns="http://www.w3.org/2000/svg">
<path d="M11.8672 15.0422H4.11328C3.46451 15.0366 2.8441 14.7755 2.38639 14.3156C1.92869 13.8558 1.67057 13.2343 1.66797 12.5855V4.18543C1.66797 4.09702 1.70279 4.01226 1.7653 3.94975C1.82781 3.88724 1.9129 3.85209 2.0013 3.85209H6.0013C6.01573 3.85111 6.03017 3.85111 6.0446 3.85209C6.22979 3.171 6.59816 2.55392 7.1097 2.06759C7.62124 1.58126 8.25639 1.2442 8.94596 1.09363C9.63554 0.943061 10.3531 0.984577 11.0208 1.21342C11.6885 1.44227 12.2805 1.8499 12.7327 2.39181C13.185 2.93372 13.4799 3.58912 13.5856 4.28699C13.6913 4.98486 13.6036 5.69831 13.332 6.34981C13.0605 7.00132 12.6156 7.56605 12.0456 7.9823C11.4756 8.39855 10.8025 8.65049 10.0993 8.71082V10.4875H14.002C14.0904 10.4875 14.1751 10.5227 14.2376 10.5852C14.3001 10.6477 14.3353 10.7324 14.3353 10.8208V12.5774C14.3339 13.2276 14.0763 13.8513 13.6185 14.313C13.1607 14.7747 12.5395 15.0373 11.8893 15.0442H11.8838L11.8672 15.0422ZM11.8672 14.3755C12.3433 14.3755 12.8 14.1868 13.1374 13.8508C13.4747 13.5148 13.6654 13.059 13.6673 12.5829V11.1542H10.0986V12.6496C10.1004 13.04 10.2288 13.4191 10.4645 13.7303C10.7002 14.0416 11.0306 14.268 11.4059 14.3755H11.8672ZM2.33398 12.5754C2.33522 13.0524 2.52501 13.5096 2.8623 13.8469C3.1996 14.1842 3.65678 14.3743 4.13379 14.3755H10.1426C9.68899 13.9154 9.43409 13.2957 9.43262 12.6496V8.70886C8.4721 8.62783 7.57664 8.18962 6.92318 7.481C6.26972 6.77238 5.90543 5.84466 5.90234 4.88074C5.90234 4.75674 5.90859 4.63422 5.91992 4.51355H2.33398V12.5754ZM6.56999 4.88074C6.56576 5.5138 6.74932 6.13391 7.09798 6.66231C7.44664 7.19072 7.94463 7.6037 8.52832 7.84884C9.11201 8.09397 9.75523 8.16027 10.3766 8.03927C10.998 7.91826 11.5695 7.61539 12.0186 7.16915C12.4676 6.72291 12.7742 6.15338 12.8991 5.53276C13.024 4.91213 12.9615 4.26836 12.7201 3.68315C12.4786 3.09793 12.0689 2.59762 11.5426 2.24565C11.0164 1.89367 10.3977 1.70601 9.76465 1.70626C8.91977 1.70467 8.10875 2.03846 7.50977 2.63432C6.91078 3.23018 6.57281 4.03912 6.56999 4.88399V4.88074ZM4.0791 11.9869C3.9907 11.9869 3.90594 11.9517 3.84342 11.8892C3.78091 11.8267 3.74577 11.7419 3.74577 11.6535C3.74577 11.5651 3.78091 11.4804 3.84342 11.4178C3.90594 11.3553 3.9907 11.3202 4.0791 11.3202H7.33398C7.42239 11.3202 7.50715 11.3553 7.56966 11.4178C7.63217 11.4804 7.66732 11.5651 7.66732 11.6535C7.66732 11.7419 7.63217 11.8267 7.56966 11.8892C7.50715 11.9517 7.42239 11.9869 7.33398 11.9869H4.0791ZM4.0791 9.98686C3.9907 9.98686 3.90594 9.95171 3.84342 9.8892C3.78091 9.82669 3.74577 9.74193 3.74577 9.65353C3.74577 9.56512 3.78091 9.48036 3.84342 9.41785C3.90594 9.35534 3.9907 9.32019 4.0791 9.32019H6.19596C6.28437 9.32019 6.36913 9.35534 6.43164 9.41785C6.49415 9.48036 6.5293 9.56512 6.5293 9.65353C6.5293 9.74193 6.49415 9.82669 6.43164 9.8892C6.36913 9.95171 6.28437 9.98686 6.19596 9.98686H4.0791ZM8.41243 6.25346C8.35679 6.18563 8.3301 6.09864 8.33822 6.01127C8.34633 5.92391 8.38854 5.84309 8.45573 5.78666L9.66797 4.77332V3.37358C9.66797 3.28517 9.70279 3.20041 9.7653 3.1379C9.82781 3.07539 9.9129 3.04024 10.0013 3.04024C10.0897 3.04024 10.1745 3.07539 10.237 3.1379C10.2995 3.20041 10.3346 3.28517 10.3346 3.37358V4.92827C10.3346 4.97696 10.3237 5.02478 10.3031 5.06889C10.2824 5.113 10.2525 5.15221 10.2152 5.18347L8.88184 6.29545C8.84822 6.3237 8.80946 6.3451 8.76758 6.35828C8.72569 6.37146 8.68143 6.37618 8.63769 6.37228C8.59396 6.36837 8.55158 6.35588 8.51269 6.33549C8.47381 6.3151 8.43922 6.28721 8.41113 6.25346H8.41243Z" fill="#56596A"/>
</svg>
