<svg width="24" height="24" viewBox="0 0 24 24" fill="none" xmlns="http://www.w3.org/2000/svg">
<path d="M17.8008 22.4994H6.16992C5.19677 22.491 4.26615 22.0993 3.57959 21.4096C2.89303 20.7198 2.50586 19.7875 2.50195 18.8144V6.21427C2.50195 6.08166 2.55418 5.95452 2.64795 5.86075C2.74172 5.76698 2.86934 5.71427 3.00195 5.71427H9.00195C9.02359 5.71279 9.04525 5.71279 9.06689 5.71427C9.34469 4.69263 9.89725 3.767 10.6646 3.03751C11.4319 2.30802 12.3846 1.80242 13.4189 1.57657C14.4533 1.35072 15.5297 1.41299 16.5312 1.75626C17.5328 2.09952 18.4208 2.71097 19.0991 3.52384C19.7775 4.3367 20.2199 5.31981 20.3784 6.36661C20.5369 7.41341 20.4054 8.4836 19.998 9.46085C19.5907 10.4381 18.9234 11.2852 18.0684 11.9096C17.2133 12.534 16.2038 12.9119 15.1489 13.0024V15.6674H21.0029C21.1355 15.6674 21.2627 15.7201 21.3564 15.8139C21.4502 15.9076 21.5029 16.0348 21.5029 16.1674V18.8022C21.5009 19.7775 21.1145 20.7131 20.4277 21.4057C19.741 22.0982 18.8092 22.4921 17.834 22.5024H17.8257L17.8008 22.4994ZM17.8008 21.4994C18.515 21.4994 19.2 21.2163 19.7061 20.7123C20.2121 20.2083 20.4981 19.5246 20.501 18.8105V16.6674H15.1479V18.9106C15.1506 19.4962 15.3432 20.0648 15.6968 20.5316C16.0504 20.9985 16.5459 21.3382 17.1089 21.4994H17.8008ZM3.50098 18.7992C3.50282 19.5147 3.78751 20.2005 4.29346 20.7065C4.79941 21.2124 5.48517 21.4976 6.20068 21.4994H15.2139C14.5335 20.8092 14.1511 19.8797 14.1489 18.9106V12.9994C12.7082 12.8779 11.365 12.2206 10.3848 11.1576C9.40458 10.0947 8.85815 8.70312 8.85352 7.25724C8.85352 7.07124 8.86288 6.88745 8.87988 6.70645H3.50098V18.7992ZM9.85498 7.25724C9.84864 8.20682 10.124 9.13699 10.647 9.9296C11.17 10.7222 11.917 11.3417 12.7925 11.7094C13.668 12.0771 14.6328 12.1765 15.5649 11.995C16.497 11.8135 17.3543 11.3592 18.0278 10.6899C18.7014 10.0205 19.1613 9.1662 19.3486 8.23526C19.536 7.30432 19.4423 6.33867 19.0801 5.46085C18.7179 4.58303 18.1033 3.83256 17.314 3.3046C16.5247 2.77664 15.5966 2.49514 14.647 2.49552C13.3797 2.49312 12.1631 2.99382 11.2646 3.88761C10.3662 4.78139 9.85922 5.9948 9.85498 7.26212V7.25724ZM6.11865 17.9164C5.98604 17.9164 5.8589 17.8637 5.76514 17.7699C5.67137 17.6762 5.61865 17.549 5.61865 17.4164C5.61865 17.2838 5.67137 17.1567 5.76514 17.0629C5.8589 16.9691 5.98604 16.9164 6.11865 16.9164H11.001C11.1336 16.9164 11.2607 16.9691 11.3545 17.0629C11.4483 17.1567 11.501 17.2838 11.501 17.4164C11.501 17.549 11.4483 17.6762 11.3545 17.7699C11.2607 17.8637 11.1336 17.9164 11.001 17.9164H6.11865ZM6.11865 14.9164C5.98604 14.9164 5.8589 14.8637 5.76514 14.7699C5.67137 14.6762 5.61865 14.549 5.61865 14.4164C5.61865 14.2838 5.67137 14.1567 5.76514 14.0629C5.8589 13.9691 5.98604 13.9164 6.11865 13.9164H9.29395C9.42655 13.9164 9.55369 13.9691 9.64746 14.0629C9.74123 14.1567 9.79395 14.2838 9.79395 14.4164C9.79395 14.549 9.74123 14.6762 9.64746 14.7699C9.55369 14.8637 9.42655 14.9164 9.29395 14.9164H6.11865ZM12.6187 9.31632C12.5352 9.21457 12.4952 9.08408 12.5073 8.95304C12.5195 8.82199 12.5828 8.70076 12.6836 8.61612L14.502 7.0961V4.99649C14.502 4.86388 14.5542 4.73675 14.6479 4.64298C14.7417 4.54921 14.8693 4.49649 15.002 4.49649C15.1346 4.49649 15.2617 4.54921 15.3555 4.64298C15.4492 4.73675 15.502 4.86388 15.502 4.99649V7.32852C15.5019 7.40156 15.4855 7.47329 15.4546 7.53946C15.4237 7.60563 15.3788 7.66445 15.3228 7.71134L13.3228 9.37931C13.2723 9.42168 13.2142 9.45377 13.1514 9.47354C13.0885 9.49332 13.0221 9.50039 12.9565 9.49454C12.8909 9.48869 12.8274 9.46995 12.769 9.43936C12.7107 9.40878 12.6588 9.36695 12.6167 9.31632H12.6187Z" fill="#56596A"/>
</svg>
