<svg width="24" height="24" viewBox="0 0 24 24" fill="none" xmlns="http://www.w3.org/2000/svg">
<path d="M6.00196 22.5C5.33891 22.5 4.70273 22.2364 4.23389 21.7676C3.76505 21.2987 3.50196 20.663 3.50196 20V12C3.50107 11.359 3.74614 10.7421 4.18701 10.2769C4.62789 9.8116 5.23053 9.53359 5.87061 9.5V6C5.87193 4.80693 6.34681 3.66296 7.19043 2.81934C8.03406 1.97571 9.17754 1.50132 10.3706 1.5H13.6289C14.8224 1.5 15.9666 1.97396 16.8105 2.81787C17.6545 3.66178 18.1289 4.80653 18.1289 6C18.1289 6.13261 18.0762 6.25975 17.9824 6.35352C17.8887 6.44728 17.7615 6.5 17.6289 6.5C17.4963 6.5 17.3692 6.44728 17.2754 6.35352C17.1816 6.25975 17.1289 6.13261 17.1289 6C17.1289 5.07174 16.7599 4.18128 16.1035 3.5249C15.4471 2.86853 14.5572 2.5 13.6289 2.5H10.3706C9.44235 2.5 8.55238 2.86853 7.896 3.5249C7.23962 4.18128 6.87061 5.07174 6.87061 6V9.5H17.9995C18.6626 9.5 19.2987 9.76309 19.7676 10.2319C20.2364 10.7008 20.4995 11.337 20.4995 12V20C20.4995 20.663 20.2364 21.2987 19.7676 21.7676C19.2987 22.2364 18.6626 22.5 17.9995 22.5H6.00196ZM4.50196 12V20C4.50196 20.3978 4.65962 20.7792 4.94092 21.0605C5.22222 21.3419 5.60413 21.5 6.00196 21.5H18.002C18.3998 21.5 18.7812 21.3419 19.0625 21.0605C19.3438 20.7792 19.502 20.3978 19.502 20V12C19.502 11.6022 19.3438 11.2208 19.0625 10.9395C18.7812 10.6581 18.3998 10.5 18.002 10.5H6.00196C5.8048 10.4997 5.60947 10.538 5.42725 10.6133C5.24503 10.6885 5.07944 10.7992 4.93994 10.9385C4.80044 11.0778 4.68977 11.2432 4.61426 11.4253C4.53875 11.6074 4.49951 11.8028 4.49951 12H4.50196ZM11.502 18.5V15.5C11.502 15.3674 11.5542 15.2403 11.648 15.1465C11.7417 15.0527 11.8693 15 12.002 15C12.1346 15 12.2617 15.0527 12.3555 15.1465C12.4492 15.2403 12.502 15.3674 12.502 15.5V18.5C12.502 18.6326 12.4492 18.7597 12.3555 18.8535C12.2617 18.9473 12.1346 19 12.002 19C11.8693 19 11.7417 18.9473 11.648 18.8535C11.5542 18.7597 11.502 18.6326 11.502 18.5Z" fill="#56596A"/>
</svg>
