<svg width="24" height="24" viewBox="0 0 24 24" fill="none" xmlns="http://www.w3.org/2000/svg">
<path d="M1.5 12.0001C1.5 9.92336 2.11626 7.89328 3.27002 6.16657C4.42377 4.43985 6.06331 3.0941 7.98193 2.29938C9.90056 1.50466 12.012 1.29658 14.0488 1.70172C16.0856 2.10687 17.9564 3.10681 19.4248 4.57526C20.8933 6.04371 21.8932 7.91492 22.2983 9.95172C22.7035 11.9885 22.4959 14.0995 21.7012 16.0181C20.9065 17.9368 19.5602 19.5768 17.8335 20.7305C16.1068 21.8843 14.0767 22.5001 12 22.5001C9.21612 22.4971 6.54711 21.3899 4.57861 19.4214C2.61011 17.4529 1.50291 14.7839 1.5 12.0001V12.0001ZM2.5 12.0001C2.5 13.879 3.0572 15.7156 4.10107 17.2779C5.14495 18.8402 6.62885 20.0579 8.36475 20.7769C10.1006 21.4959 12.0107 21.684 13.8535 21.3174C15.6963 20.9509 17.3892 20.0459 18.7178 18.7173C20.0464 17.3887 20.9513 15.6959 21.3179 13.8531C21.6844 12.0103 21.4959 10.1002 20.7769 8.36432C20.0578 6.62842 18.8406 5.14501 17.2783 4.10114C15.7161 3.05726 13.8789 2.50006 12 2.50006C9.48151 2.50324 7.06737 3.50526 5.28662 5.28619C3.50587 7.06713 2.50438 9.48157 2.50146 12.0001H2.5ZM10.0674 18.2071C9.06409 17.8898 8.15101 17.3372 7.4043 16.5958C7.3163 16.5088 7.23141 16.4187 7.14941 16.3267L7.18115 17.3702C7.18519 17.5026 7.13665 17.631 7.0459 17.7276C6.95515 17.8242 6.82972 17.8806 6.69727 17.8848H6.68115C6.55127 17.8849 6.42633 17.8345 6.33301 17.7442C6.23969 17.6539 6.18531 17.5308 6.18115 17.4009L6.11035 15.1011C6.10576 14.9687 6.15376 14.8397 6.24414 14.7427C6.33452 14.6458 6.45983 14.5887 6.59229 14.584L8.89209 14.5128H8.90723C8.97289 14.5116 9.03803 14.5238 9.09912 14.5479C9.16021 14.572 9.21597 14.6077 9.26318 14.6534C9.3104 14.699 9.34835 14.7533 9.37451 14.8135C9.40067 14.8738 9.41441 14.9388 9.41553 15.0045C9.41664 15.0701 9.40496 15.1353 9.38086 15.1964C9.35676 15.2574 9.32103 15.3132 9.27539 15.3604C9.22975 15.4076 9.17498 15.4456 9.11475 15.4717C9.05451 15.4979 8.98998 15.5116 8.92432 15.5128L7.79736 15.5479C7.89736 15.6649 7.99745 15.7768 8.10645 15.8848C8.73933 16.5128 9.51252 16.9813 10.3623 17.251C11.1856 17.5072 12.0574 17.5663 12.9077 17.4234C13.758 17.2805 14.563 16.9395 15.2573 16.4283C15.9517 15.917 16.5159 15.2496 16.9048 14.48C17.2937 13.7105 17.4963 12.8604 17.4961 11.9981C17.4961 11.8655 17.5488 11.7384 17.6426 11.6446C17.7363 11.5508 17.8635 11.4981 17.9961 11.4981C18.1287 11.4981 18.2558 11.5508 18.3496 11.6446C18.4434 11.7384 18.4961 11.8655 18.4961 11.9981C18.4963 13.0173 18.2567 14.0222 17.7969 14.9317C17.3371 15.8412 16.6699 16.6298 15.8491 17.2339C15.0283 17.8381 14.0774 18.2406 13.0723 18.4092C12.0672 18.5779 11.0365 18.5082 10.0635 18.2051L10.0674 18.2071ZM5.5 12.0001C5.49993 10.9811 5.73953 9.97629 6.19922 9.06696C6.65891 8.15762 7.32595 7.36929 8.14648 6.7652C8.96702 6.16111 9.91802 5.75828 10.9229 5.58942C11.9277 5.42055 12.9582 5.49033 13.9312 5.79303C14.9339 6.1105 15.8468 6.66191 16.5942 7.40192C16.6812 7.48792 16.7661 7.57798 16.8481 7.66998L16.8154 6.62799C16.8134 6.56224 16.8243 6.49661 16.8477 6.43512C16.871 6.37363 16.906 6.31743 16.9512 6.26959C16.9963 6.22175 17.0508 6.18319 17.1108 6.15631C17.1709 6.12943 17.2355 6.11467 17.3013 6.11285H17.3154C17.4453 6.11279 17.5698 6.16314 17.6631 6.25348C17.7564 6.34381 17.8113 6.46693 17.8154 6.59674L17.8862 8.89703C17.8885 8.96279 17.8776 9.02831 17.8545 9.08991C17.8314 9.1515 17.7964 9.20789 17.7515 9.25592C17.7065 9.30395 17.6527 9.34257 17.5928 9.36969C17.5328 9.39681 17.4681 9.41206 17.4023 9.41412L15.1021 9.48492H15.0884C15.0227 9.48604 14.9576 9.47435 14.8965 9.45026C14.8354 9.42616 14.7796 9.38994 14.7324 9.3443C14.6852 9.29866 14.6473 9.24438 14.6211 9.18414C14.5949 9.12391 14.5807 9.05889 14.5796 8.99323C14.5785 8.92756 14.5907 8.86242 14.6147 8.80133C14.6388 8.74024 14.6746 8.68449 14.7202 8.63727C14.7659 8.59005 14.8201 8.55259 14.8804 8.52643C14.9406 8.50027 15.0056 8.48604 15.0713 8.48492L16.1982 8.45075C16.0982 8.33375 15.9982 8.22085 15.8872 8.11285C15.2543 7.48585 14.4815 7.01856 13.6323 6.74908C12.809 6.49292 11.9368 6.4338 11.0864 6.57672C10.2361 6.71965 9.43164 7.06058 8.7373 7.57184C8.04297 8.0831 7.47827 8.75052 7.08936 9.52008C6.70045 10.2896 6.49784 11.1398 6.49805 12.002C6.49805 12.1346 6.44533 12.2618 6.35156 12.3555C6.25779 12.4493 6.13066 12.502 5.99805 12.502C5.86544 12.502 5.7383 12.4493 5.64453 12.3555C5.55076 12.2618 5.49805 12.1346 5.49805 12.002L5.5 12.0001Z" fill="#56596A"/>
</svg>
