<svg width="24" height="24" viewBox="0 0 24 24" fill="none" xmlns="http://www.w3.org/2000/svg">
<path d="M11.4995 22.0045V21.0045C11.4995 20.8719 11.5522 20.7448 11.646 20.651C11.7398 20.5572 11.8669 20.5045 11.9995 20.5045C12.1321 20.5045 12.2593 20.5572 12.353 20.651C12.4468 20.7448 12.4995 20.8719 12.4995 21.0045V22.0045C12.4995 22.1371 12.4468 22.2642 12.353 22.358C12.2593 22.4518 12.1321 22.5045 11.9995 22.5045C11.8669 22.5045 11.7398 22.4518 11.646 22.358C11.5522 22.2642 11.4995 22.1371 11.4995 22.0045ZM11.4995 19.0045V14.2042L9.17335 16.5314C9.07933 16.6252 8.95173 16.6779 8.81886 16.6778C8.68599 16.6777 8.55874 16.6249 8.46485 16.5309C8.37097 16.4368 8.31828 16.3092 8.31837 16.1764C8.31846 16.0435 8.37132 15.9163 8.46534 15.8224L11.6323 12.6573C11.7113 12.5724 11.8172 12.5179 11.9321 12.5025V12.5025H11.9531H12.0532H12.0742C12.1874 12.519 12.2914 12.5735 12.3692 12.6573L15.5361 15.8224C15.5827 15.8688 15.6198 15.9238 15.645 15.9845C15.6703 16.0452 15.6835 16.1106 15.6836 16.1764C15.6837 16.2421 15.6706 16.307 15.6455 16.3678C15.6204 16.4286 15.5835 16.4838 15.5371 16.5304C15.4907 16.5769 15.4357 16.614 15.375 16.6393C15.3143 16.6645 15.2493 16.6773 15.1836 16.6774C15.1179 16.6774 15.0525 16.6648 14.9917 16.6398C14.9309 16.6147 14.8762 16.5778 14.8296 16.5314L12.5025 14.2042V18.9986C12.5025 19.1313 12.4497 19.2584 12.356 19.3522C12.2622 19.4459 12.1351 19.4986 12.0025 19.4986C11.8698 19.4986 11.7427 19.4459 11.6489 19.3522C11.5552 19.2584 11.5025 19.1313 11.5025 18.9986L11.4995 19.0045ZM6.99952 11.2145H6.99415C6.47844 11.2145 5.97574 11.055 5.55421 10.7579C5.13268 10.4608 4.81302 10.0405 4.63966 9.55479C4.4663 9.06909 4.44733 8.5419 4.58546 8.04503C4.72359 7.54816 5.01198 7.10594 5.41114 6.7794C5.30578 5.96131 5.50817 5.13342 5.97901 4.45616C6.44986 3.7789 7.15592 3.30055 7.95948 3.11436C8.41036 3.01078 8.8775 3.00194 9.33204 3.088C9.78659 3.17405 10.2188 3.35313 10.6006 3.61436C11.1239 2.73637 11.9419 2.07305 12.9092 1.74278C13.8765 1.41252 14.9299 1.43702 15.8809 1.81163C16.8319 2.18624 17.6189 2.88646 18.1011 3.7877C18.5833 4.68895 18.7292 5.73251 18.5132 6.73155C18.9282 7.04887 19.2338 7.48822 19.3862 7.9879C19.5387 8.48758 19.5304 9.02223 19.3633 9.5172C19.1961 10.0122 18.8783 10.4422 18.4541 10.7472C18.0299 11.0521 17.521 11.2167 16.9985 11.2174L6.99952 11.2145ZM8.18653 4.08946C7.88836 4.15894 7.60677 4.2866 7.35792 4.46495C7.10908 4.6433 6.89745 4.86898 6.73585 5.12901C6.57426 5.38905 6.46574 5.67799 6.41603 5.98009C6.36631 6.28218 6.37656 6.59116 6.4463 6.88927C6.47024 6.99232 6.46077 7.10047 6.41944 7.19786C6.37811 7.29525 6.30707 7.37687 6.21632 7.43126C5.93565 7.60077 5.71852 7.8579 5.59767 8.1627C5.47681 8.46751 5.45913 8.80346 5.54737 9.11925C5.63562 9.43504 5.82459 9.71325 6.08595 9.91124C6.34731 10.1092 6.66626 10.216 6.99415 10.2154H16.9942C17.2651 10.2145 17.5309 10.1405 17.7632 10.0011C17.9955 9.86169 18.1861 9.66205 18.3145 9.42345C18.4077 9.24968 18.4658 9.05912 18.4854 8.8629C18.5049 8.66668 18.4854 8.46862 18.4282 8.27989C18.3711 8.09116 18.2774 7.91575 18.1524 7.76329C18.0273 7.61083 17.8731 7.48414 17.6992 7.39122C17.5965 7.33623 17.5162 7.24718 17.4722 7.13927C17.4282 7.03136 17.4235 6.91156 17.4585 6.8004C17.7103 5.98448 17.6369 5.10262 17.2539 4.33946C16.8709 3.5763 16.2075 2.99088 15.4028 2.70519C14.5982 2.41949 13.7146 2.45599 12.936 2.80675C12.1575 3.1575 11.5447 3.7955 11.2256 4.58751C11.1948 4.66545 11.1445 4.7341 11.0801 4.7877C11.0157 4.84131 10.9387 4.87802 10.8565 4.89415C10.7742 4.91028 10.6893 4.90528 10.6094 4.87999C10.5295 4.8547 10.4574 4.81014 10.3994 4.74962C10.1812 4.52144 9.91918 4.33969 9.62892 4.21544C9.33866 4.09119 9.0262 4.02686 8.71046 4.02647C8.53367 4.02615 8.35756 4.04666 8.18556 4.08751L8.18653 4.08946Z" fill="#56596A"/>
</svg>
