<svg width="24" height="24" viewBox="0 0 24 24" fill="none" xmlns="http://www.w3.org/2000/svg">
<path d="M3.99805 20.4997C3.33501 20.4997 2.69931 20.2362 2.23047 19.7673C1.76163 19.2985 1.49805 18.6628 1.49805 17.9997V11.7996C1.49805 11.1365 1.76163 10.5008 2.23047 10.032C2.69931 9.56313 3.33501 9.29955 3.99805 9.29955H4.30615C3.95316 8.9533 3.68036 8.53405 3.50684 8.07104C3.33332 7.60802 3.26327 7.11282 3.30176 6.61986C3.34025 6.12691 3.48621 5.64799 3.72949 5.21752C3.97277 4.78705 4.30751 4.41543 4.70996 4.12817C5.11241 3.8409 5.57292 3.64512 6.05908 3.55492C6.54524 3.46473 7.04521 3.48192 7.52393 3.6057C8.00264 3.72949 8.44858 3.95667 8.83008 4.27123C9.21158 4.58579 9.51967 4.98016 9.73242 5.42651C10.118 4.94879 10.6428 4.60312 11.2339 4.43725C11.825 4.27138 12.4529 4.29386 13.0308 4.50121C13.6086 4.70856 14.1077 5.09063 14.4585 5.59447C14.8093 6.09832 14.9944 6.69884 14.9883 7.31274C14.9893 8.0445 14.7218 8.75104 14.2363 9.29858H14.8193C15.4824 9.29858 16.1181 9.56216 16.5869 10.031C17.0558 10.4998 17.3193 11.1355 17.3193 11.7986V12.1565L18.5962 11.2507C19.1333 10.873 19.7984 10.7242 20.4453 10.8367C21.0922 10.9492 21.6683 11.3139 22.0464 11.8508C22.3501 12.2755 22.5083 12.7868 22.498 13.3088V16.5027C22.5016 16.8274 22.4411 17.1497 22.3198 17.4509C22.1986 17.7522 22.019 18.0263 21.7915 18.258C21.564 18.4898 21.2931 18.6743 20.9941 18.801C20.6951 18.9277 20.3741 18.9945 20.0493 18.9968H20.0225C19.5148 18.9979 19.0194 18.8411 18.6045 18.5486L17.3203 17.6409V18.0027C17.3203 18.6657 17.0567 19.3014 16.5879 19.7703C16.119 20.2391 15.4834 20.5027 14.8203 20.5027L3.99805 20.4997ZM2.49805 11.7996V17.9997C2.49805 18.3976 2.6562 18.779 2.9375 19.0603C3.2188 19.3416 3.60022 19.4997 3.99805 19.4997H14.8193C15.2172 19.4997 15.5986 19.3416 15.8799 19.0603C16.1612 18.779 16.3193 18.3976 16.3193 17.9997V11.7996C16.3193 11.4017 16.1612 11.0203 15.8799 10.739C15.5986 10.4577 15.2172 10.2996 14.8193 10.2996H3.99805C3.60022 10.2996 3.2188 10.4577 2.9375 10.739C2.6562 11.0203 2.49805 11.4017 2.49805 11.7996V11.7996ZM19.1782 17.7288C19.4354 17.8956 19.7336 17.9881 20.04 17.9958C20.2337 17.9938 20.4254 17.9533 20.6035 17.8772C20.7816 17.8011 20.9427 17.6909 21.0781 17.5525C21.2135 17.414 21.3205 17.2498 21.3926 17.0701C21.4646 16.8903 21.5003 16.6983 21.498 16.5046V13.2996C21.5034 13.0271 21.4331 12.7585 21.2949 12.5237C21.1567 12.2888 20.9561 12.097 20.7153 11.9695C20.4745 11.842 20.2031 11.7838 19.9312 11.8015C19.6592 11.8192 19.3976 11.912 19.1753 12.0696L17.3193 13.3835V16.4138L19.1782 17.7288ZM10.0654 7.31371C10.0698 7.70084 10.1885 8.07793 10.4067 8.3977C10.625 8.71746 10.9331 8.96549 11.292 9.11059C11.6509 9.25569 12.0447 9.29138 12.4238 9.21313C12.803 9.13488 13.1502 8.94599 13.4224 8.67065C13.6945 8.3953 13.8793 8.04581 13.9531 7.66576C14.027 7.28572 13.9867 6.89211 13.8374 6.5349C13.6881 6.17769 13.4365 5.87295 13.1143 5.65844C12.792 5.44393 12.4135 5.32965 12.0264 5.32983C11.5033 5.33405 11.0031 5.54544 10.6357 5.91772C10.2683 6.28999 10.0637 6.79263 10.0664 7.31567L10.0654 7.31371ZM9.81641 9.29955C9.68629 9.15241 9.57054 8.99292 9.47119 8.82348C9.35475 8.99362 9.22315 9.15301 9.07812 9.29955H9.81641ZM4.31641 6.89965C4.32173 7.3678 4.46553 7.82402 4.72949 8.21069C4.99346 8.59735 5.36575 8.89703 5.7998 9.0725C6.23386 9.24798 6.70993 9.29111 7.16846 9.19653C7.62698 9.10194 8.04729 8.87417 8.37646 8.54125C8.70564 8.20833 8.92916 7.78548 9.01855 7.32592C9.10795 6.86635 9.05928 6.39028 8.87891 5.95824C8.69853 5.52621 8.39451 5.15727 8.00488 4.8977C7.61525 4.63812 7.15763 4.49978 6.68945 4.49975C6.05732 4.50503 5.45297 4.76039 5.00879 5.2102C4.56461 5.66 4.31667 6.2675 4.31934 6.89965H4.31641Z" fill="#56596A"/>
</svg>
