<svg width="24" height="24" viewBox="0 0 24 24" fill="none" xmlns="http://www.w3.org/2000/svg">
<path d="M24.001 5.33994C23.9712 4.7562 23.7119 4.20791 23.2796 3.81454C22.8472 3.42118 22.2769 3.21463 21.693 3.23993H18.334L17.515 1.00293L11.374 3.23993H2.308C1.72405 3.21463 1.15376 3.42118 0.721436 3.81454C0.289111 4.20791 0.0297986 4.7562 0 5.33994V7.86194V21.3179C0.0228127 21.7854 0.229843 22.2248 0.57579 22.54C0.921738 22.8552 1.37843 23.0206 1.84599 22.9999H22.154C22.6216 23.0206 23.0783 22.8552 23.4242 22.54C23.7702 22.2248 23.9772 21.7854 24 21.3179V11.9319L24.001 5.33994ZM19.386 12.0679H23.078V17.1139H19.386C19.0349 17.1467 18.6808 17.1059 18.3463 16.994C18.0119 16.8822 17.7045 16.7017 17.4438 16.4643C17.183 16.2268 16.9748 15.9375 16.8323 15.6149C16.6897 15.2924 16.6161 14.9436 16.6161 14.5909C16.6161 14.2383 16.6897 13.8895 16.8323 13.5669C16.9748 13.2443 17.183 12.9551 17.4438 12.7176C17.7045 12.4801 18.0119 12.2997 18.3463 12.1878C18.6808 12.0759 19.0349 12.0351 19.386 12.0679ZM21.694 4.07895C22.0448 4.06346 22.3875 4.18754 22.647 4.42404C22.9066 4.66055 23.0619 4.99022 23.079 5.34094V6.41592C22.7953 6.26316 22.4782 6.18281 22.156 6.18195H19.412L18.643 4.08194L21.694 4.07895ZM16.949 2.11295L18.438 6.18195H5.782L11.634 4.04993L16.949 2.11295ZM0.923996 6.41293V5.33893C0.941364 4.98829 1.09677 4.65878 1.35626 4.42233C1.61576 4.18588 1.95827 4.06171 2.30901 4.07693H9.06799L3.299 6.17694H1.849C1.52591 6.17901 1.20827 6.26039 0.923996 6.41394V6.41293Z" fill="#5439AC"/>
<path d="M19.385 16.3819C19.7474 16.3798 20.1011 16.2703 20.4014 16.0674C20.7018 15.8644 20.9352 15.5771 21.0724 15.2416C21.2097 14.9061 21.2444 14.5375 21.1724 14.1823C21.1003 13.827 20.9247 13.5011 20.6676 13.2456C20.4106 12.9901 20.0836 12.8164 19.728 12.7464C19.3723 12.6765 19.0039 12.7135 18.6693 12.8527C18.3346 12.9919 18.0487 13.2271 17.8475 13.5286C17.6464 13.8302 17.539 14.1845 17.539 14.5469C17.5396 14.7887 17.5879 15.0279 17.6811 15.251C17.7742 15.474 17.9104 15.6765 18.0818 15.8469C18.2532 16.0173 18.4566 16.1523 18.6802 16.2441C18.9038 16.3359 19.1433 16.3827 19.385 16.3819ZM19.385 13.6289C19.5663 13.6299 19.7433 13.6846 19.8936 13.7861C20.0439 13.8876 20.1608 14.0313 20.2295 14.1991C20.2983 14.3669 20.3157 14.5513 20.2797 14.7291C20.2438 14.9068 20.1559 15.0699 20.0274 15.1978C19.8988 15.3257 19.7352 15.4127 19.5573 15.4477C19.3793 15.4827 19.195 15.4642 19.0275 15.3946C18.8601 15.3249 18.717 15.2073 18.6164 15.0564C18.5157 14.9056 18.462 14.7283 18.462 14.5469C18.463 14.303 18.5608 14.0695 18.7339 13.8976C18.9069 13.7257 19.1411 13.6294 19.385 13.63V13.6289Z" fill="#5439AC"/>
</svg>
