<svg width="25" height="23" viewBox="0 0 25 23" fill="none" xmlns="http://www.w3.org/2000/svg">
<path d="M24.6255 4.34244C24.5957 3.7587 24.3364 3.21041 23.9041 2.81705C23.4717 2.42368 22.9015 2.21713 22.3175 2.24243H18.9585L18.1395 0.00543213L11.9985 2.24243H2.93251C2.34856 2.21713 1.77827 2.42368 1.34595 2.81705C0.913623 3.21041 0.65431 3.7587 0.624512 4.34244V6.86444V20.3204C0.647324 20.7879 0.854355 21.2273 1.2003 21.5425C1.54625 21.8577 2.00294 22.0231 2.4705 22.0024H22.7785C23.2461 22.0231 23.7028 21.8577 24.0487 21.5425C24.3947 21.2273 24.6017 20.7879 24.6245 20.3204V10.9344L24.6255 4.34244ZM20.0105 11.0704H23.7025V16.1164H20.0105C19.6594 16.1492 19.3053 16.1084 18.9708 15.9966C18.6364 15.8847 18.329 15.7042 18.0683 15.4668C17.8076 15.2293 17.5993 14.94 17.4568 14.6174C17.3143 14.2949 17.2407 13.9461 17.2407 13.5934C17.2407 13.2408 17.3143 12.892 17.4568 12.5694C17.5993 12.2469 17.8076 11.9576 18.0683 11.7201C18.329 11.4826 18.6364 11.3022 18.9708 11.1903C19.3053 11.0784 19.6594 11.0376 20.0105 11.0704ZM22.3185 3.08145C22.6693 3.06596 23.012 3.19004 23.2715 3.42654C23.5311 3.66305 23.6864 3.99272 23.7035 4.34344V5.41843C23.4198 5.26566 23.1028 5.18531 22.7805 5.18445H20.0365L19.2675 3.08444L22.3185 3.08145ZM17.5735 1.11545L19.0625 5.18445H6.40651L12.2585 3.05243L17.5735 1.11545ZM1.54851 5.41544V4.34143C1.56588 3.9908 1.72128 3.66128 1.98077 3.42484C2.24027 3.18839 2.58278 3.06421 2.93352 3.07944H9.6925L3.92351 5.17944H2.47351C2.15042 5.18151 1.83278 5.2629 1.54851 5.41644V5.41544Z" fill="#5439AC"/>
</svg>
