<svg width="24" height="24" viewBox="0 0 24 24" fill="none" xmlns="http://www.w3.org/2000/svg">
<g clip-path="url(#clip0_1_10147)">
<path d="M24 11.926H23.077V4.73399C23.0754 4.36798 22.9287 4.01756 22.669 3.7596C22.4094 3.50163 22.058 3.35722 21.692 3.35802H18V2.44002H21.692C21.9942 2.43896 22.2937 2.49746 22.5732 2.6122C22.8528 2.72694 23.1071 2.89567 23.3214 3.10872C23.5357 3.32176 23.706 3.57496 23.8224 3.85383C23.9389 4.13271 23.9992 4.43178 24 4.73399V11.926Z" fill="#56596A"/>
<path d="M0.922997 12.074H-7.62939e-06V4.735C0.000778914 4.43279 0.0611204 4.13369 0.177559 3.85481C0.293997 3.57593 0.464252 3.32274 0.678596 3.10969C0.892941 2.89665 1.14717 2.72794 1.42675 2.6132C1.70633 2.49846 2.0058 2.43994 2.30801 2.44099H11.462V3.35899H2.30801C1.94199 3.35819 1.59061 3.50264 1.33096 3.7606C1.0713 4.01857 0.924585 4.36899 0.922997 4.735V12.074Z" fill="#56596A"/>
<path d="M22.153 6.46903C22.3835 6.45588 22.6099 6.53438 22.7828 6.68741C22.9557 6.84045 23.0611 7.05561 23.076 7.28602V20.364C23.0611 20.5945 22.9557 20.8098 22.7828 20.963C22.61 21.1162 22.3836 21.1949 22.153 21.182H1.846C1.61538 21.1949 1.38901 21.1162 1.21615 20.963C1.04329 20.8098 0.93793 20.5945 0.922997 20.364V7.28602C0.938182 7.0557 1.04365 6.8407 1.21648 6.68772C1.38932 6.53473 1.61555 6.45615 1.846 6.46903H22.153ZM22.153 5.65104H1.846C1.38496 5.62474 0.932217 5.78173 0.586433 6.0878C0.24065 6.39388 0.0298527 6.82419 -7.62939e-06 7.28501V20.363C0.0298564 20.8239 0.240621 21.2544 0.586372 21.5606C0.932124 21.8668 1.38487 22.024 1.846 21.998H22.153C22.6142 22.0243 23.0671 21.8672 23.4129 21.5609C23.7587 21.2546 23.9694 20.824 23.999 20.363V7.28602C23.9691 6.8252 23.7583 6.39485 23.4126 6.08878C23.0668 5.78271 22.614 5.62571 22.153 5.65201V5.65104Z" fill="#56596A"/>
<path d="M23.076 11.073V16.573H19.384C19.014 16.5872 18.645 16.5265 18.2991 16.3946C17.9531 16.2628 17.6373 16.0625 17.3706 15.8057C17.1039 15.549 16.8917 15.2411 16.7467 14.9004C16.6018 14.5597 16.5271 14.1933 16.5271 13.823C16.5271 13.4528 16.6018 13.0864 16.7467 12.7457C16.8917 12.405 17.1039 12.0971 17.3706 11.8403C17.6373 11.5836 17.9531 11.3833 18.2991 11.2514C18.645 11.1196 19.014 11.0589 19.384 11.073H23.076ZM23.999 10.155H19.384C18.897 10.147 18.4133 10.236 17.9611 10.4168C17.5088 10.5976 17.0971 10.8666 16.7499 11.2081C16.4026 11.5497 16.1268 11.9569 15.9386 12.4061C15.7504 12.8553 15.6534 13.3375 15.6534 13.8245C15.6534 14.3116 15.7504 14.7938 15.9386 15.243C16.1268 15.6922 16.4026 16.0994 16.7499 16.441C17.0971 16.7825 17.5088 17.0515 17.9611 17.2323C18.4133 17.4131 18.897 17.5021 19.384 17.494H23.999V10.155Z" fill="#56596A"/>
<path d="M19.384 12.908C19.5654 12.909 19.7423 12.9637 19.8926 13.0651C20.043 13.1666 20.1598 13.3103 20.2286 13.4782C20.2973 13.646 20.3147 13.8304 20.2788 14.0081C20.2428 14.1859 20.155 14.349 20.0264 14.4769C19.8978 14.6048 19.7342 14.6917 19.5563 14.7267C19.3783 14.7617 19.194 14.7432 19.0266 14.6736C18.8591 14.604 18.716 14.4863 18.6154 14.3355C18.5147 14.1846 18.461 14.0073 18.461 13.826C18.4618 13.5819 18.5595 13.3481 18.7325 13.176C18.9056 13.0038 19.1399 12.9075 19.384 12.908V12.908ZM19.384 11.99C19.0216 11.9922 18.6679 12.1016 18.3675 12.3046C18.0672 12.5075 17.8338 12.7949 17.6966 13.1303C17.5594 13.4658 17.5246 13.8344 17.5966 14.1897C17.6687 14.5449 17.8443 14.8709 18.1014 15.1264C18.3584 15.3819 18.6854 15.5556 19.041 15.6255C19.3967 15.6954 19.7651 15.6584 20.0998 15.5192C20.4344 15.38 20.7203 15.1448 20.9215 14.8433C21.1227 14.5418 21.23 14.1874 21.23 13.825C21.2284 13.3369 21.0331 12.8694 20.6869 12.5253C20.3407 12.1812 19.8721 11.9887 19.384 11.99Z" fill="#56596A"/>
<path d="M18.639 6.25101L16.947 1.20801L11.632 3.32098L11.289 2.46899L17.512 -0.00500488L19.512 5.961L18.639 6.25101Z" fill="#56596A"/>
<path d="M3.55699 6.53699L3.21399 5.685L11.291 2.474L11.634 3.32599L3.55699 6.53699Z" fill="#56596A"/>
</g>
<defs>
<clipPath id="clip0_1_10147">
<rect width="24" height="24" fill="white"/>
</clipPath>
</defs>
</svg>
