<svg width="24" height="24" viewBox="0 0 24 24" fill="none" xmlns="http://www.w3.org/2000/svg">
<path d="M7.11968 21.2955C4.94769 20.1548 3.24397 18.2895 2.30377 16.0235C1.36357 13.7575 1.24628 11.2335 1.97271 8.89023C2.01249 8.76346 2.10103 8.6578 2.21881 8.59628C2.33658 8.53477 2.47387 8.52281 2.60064 8.56259C2.72742 8.60238 2.83356 8.69091 2.89508 8.80869C2.95659 8.92646 2.96855 9.06375 2.92877 9.19052C2.48776 10.6126 2.38735 12.1184 2.63531 13.5865C2.88327 15.0546 3.47291 16.4438 4.3565 17.6422C5.24009 18.8405 6.39256 19.8146 7.72174 20.4854C9.05092 21.1563 10.5195 21.5054 12.0084 21.5045C13.4972 21.5036 14.9651 21.1526 16.2935 20.4801C17.6219 19.8076 18.7732 18.8323 19.6553 17.6329C20.5375 16.4335 21.1255 15.0437 21.3716 13.5753C21.6178 12.1069 21.5155 10.6008 21.0728 9.17929C21.033 9.05252 21.045 8.91523 21.1065 8.79746C21.168 8.67968 21.2742 8.59115 21.4009 8.55136C21.5277 8.51158 21.665 8.52403 21.7828 8.58554C21.9005 8.64705 21.9891 8.75271 22.0289 8.87949C22.6461 10.8624 22.6613 12.984 22.0728 14.9757C21.4843 16.9674 20.3186 18.7399 18.7227 20.0689C17.1268 21.398 15.1728 22.2236 13.1075 22.442C11.0422 22.6603 8.9582 22.2614 7.11968 21.2955V21.2955ZM10.8067 19.9293L10.7066 19.9166C10.2535 19.8501 9.80672 19.7464 9.37066 19.6065L9.34576 19.5982C8.28114 19.2527 7.29711 18.6962 6.45269 17.9615C6.31536 17.8422 6.18212 17.7184 6.05279 17.5904C6.03652 17.5764 6.02126 17.5615 6.00689 17.5455C5.22543 16.7651 4.59499 15.847 4.14703 14.8375C4.09842 14.7267 4.09163 14.6019 4.12799 14.4864V14.4776C4.15525 14.3973 4.20239 14.3252 4.26519 14.2682C4.328 14.2111 4.40429 14.1709 4.48687 14.1515L4.68658 14.1026C6.47537 13.5394 8.05764 12.459 9.23297 10.9977C10.2571 9.71354 11.6237 8.74556 13.1749 8.20566C14.1869 7.94443 15.2487 7.94443 16.2608 8.20566C16.3678 8.23328 16.4625 8.29522 16.5303 8.38242C16.5982 8.46962 16.6353 8.57711 16.6358 8.68759C16.6379 9.64243 16.9352 10.5733 17.4869 11.3526C18.034 12.1156 18.8148 12.6797 19.711 12.9596L19.733 12.9644C19.8609 12.9991 19.9697 13.0834 20.0357 13.1983C20.1017 13.3133 20.1196 13.4493 20.085 13.5772C19.7946 14.6343 19.313 15.6294 18.6646 16.5133C18.6415 16.5572 18.612 16.5975 18.5767 16.6324C18.4314 16.8238 18.2787 17.0092 18.1187 17.1886L18.0499 17.2623C17.2087 18.1816 16.1775 18.9067 15.0279 19.3873C13.6933 19.9356 12.2381 20.1252 10.8077 19.9366L10.8067 19.9293ZM10.8516 18.9293C12.1349 19.1127 13.4439 18.9507 14.6436 18.4596C14.7106 18.4316 14.7778 18.4027 14.8438 18.3727C14.2718 17.8857 13.7199 17.3726 13.1959 16.8326C12.3849 17.5576 11.5409 18.2505 10.6749 18.9015L10.8516 18.9293ZM9.42681 18.5724C10.6345 17.7094 11.7878 16.7729 12.8799 15.7677C12.9766 15.6793 13.104 15.6321 13.2349 15.6368C13.3658 15.6415 13.4895 15.6975 13.5796 15.7926C14.2713 16.5274 15.0088 17.2177 15.7877 17.8595C16.3478 17.5027 16.8591 17.0745 17.3086 16.5855C17.3476 16.5425 17.3849 16.4996 17.4219 16.4566C16.0045 15.7366 14.8165 14.6343 13.9927 13.2745C13.8467 13.0305 13.7133 12.7792 13.5928 12.5216C12.7036 13.3978 11.7617 14.2187 10.772 14.9796C9.64893 15.8428 8.46522 16.6241 7.23004 17.3175C7.88396 17.8594 8.62722 18.2831 9.42681 18.5694V18.5724ZM6.47467 16.5953C7.76576 15.8879 9.00105 15.0829 10.169 14.1866C11.3197 13.3005 12.4036 12.3308 13.4127 11.2862C13.4719 11.2255 13.5455 11.1805 13.6265 11.1554C13.7076 11.1302 13.7938 11.1261 13.877 11.1427C13.9603 11.1606 14.0376 11.1993 14.1016 11.2555C14.1657 11.3116 14.2141 11.3832 14.2427 11.4635C14.4048 11.915 14.6089 12.3501 14.8526 12.7633C15.6118 14.0143 16.7198 15.0166 18.0406 15.6466C18.4367 15.0604 18.7535 14.4241 18.982 13.7545C18.0545 13.375 17.2533 12.7409 16.671 11.9254C16.0784 11.0916 15.7254 10.1115 15.65 9.0914C14.9128 8.95448 14.1545 8.98123 13.4288 9.16953C12.058 9.66937 10.8536 10.5414 9.95074 11.6876C8.72499 13.1732 7.12371 14.3031 5.31304 14.9596C5.6299 15.5508 6.01996 16.0993 6.47467 16.5924V16.5953ZM19.9747 6.8375C19.1914 5.63737 18.1506 4.62687 16.9278 3.87949C16.8696 3.84636 16.8186 3.80182 16.7779 3.74863C16.7372 3.69544 16.7077 3.63475 16.691 3.56992C16.6742 3.50508 16.6709 3.43741 16.6807 3.37119C16.6906 3.30496 16.7137 3.24132 16.7486 3.18418C16.7835 3.12703 16.8294 3.07769 16.8838 3.03867C16.9383 2.99965 16.9997 2.97185 17.065 2.95712C17.1303 2.9424 17.1983 2.94083 17.2642 2.95273C17.3301 2.96463 17.3927 2.98981 17.4488 3.02646C18.8008 3.8504 19.9509 4.96722 20.814 6.29453C20.8854 6.40553 20.9099 6.53997 20.8824 6.66904C20.8548 6.79811 20.777 6.91129 20.6666 6.98349C20.5855 7.03609 20.4912 7.06456 20.3946 7.06552C20.3108 7.06528 20.2287 7.04387 20.1553 7.00351C20.0819 6.96315 20.0197 6.90517 19.9747 6.83457V6.8375ZM3.33502 6.98349C3.22454 6.91129 3.14673 6.79811 3.1192 6.66904C3.09166 6.53997 3.11666 6.40553 3.18804 6.29453C4.05238 4.96761 5.20215 3.85067 6.55377 3.02548C6.60984 2.99127 6.67197 2.96825 6.73687 2.9581C6.80177 2.94795 6.86834 2.95094 6.93218 2.9664C6.99602 2.98186 7.05588 3.00972 7.10894 3.04843C7.16201 3.08715 7.20706 3.13591 7.24127 3.19199C7.27548 3.24806 7.2985 3.3102 7.30865 3.37509C7.3188 3.43999 7.31581 3.50657 7.30035 3.57041C7.28489 3.63425 7.25703 3.6941 7.21832 3.74716C7.1796 3.80023 7.13084 3.84528 7.07476 3.87949C5.85117 4.62622 4.80997 5.63683 4.02691 6.8375C3.95453 6.94836 3.84102 7.02595 3.71148 7.05332C3.58194 7.08069 3.44703 7.0556 3.33599 6.98349H3.33502ZM15.129 3.03037C13.1024 2.33207 10.9001 2.33207 8.87359 3.03037C8.8108 3.05587 8.74359 3.0683 8.67584 3.06699C8.60808 3.06567 8.5413 3.05096 8.47955 3.02304C8.4178 2.99512 8.36269 2.95488 8.31695 2.90488C8.27121 2.85487 8.23576 2.79601 8.21343 2.73203C8.19111 2.66804 8.18236 2.59993 8.18707 2.53232C8.19178 2.46471 8.2098 2.39875 8.24078 2.33847C8.27176 2.2782 8.31501 2.22491 8.36724 2.18173C8.41948 2.13855 8.47995 2.10659 8.54498 2.0875C10.7835 1.31458 13.2162 1.31458 15.4546 2.0875C15.5646 2.12737 15.6574 2.20425 15.7164 2.30527C15.7753 2.40629 15.7968 2.52488 15.7774 2.64023C15.758 2.75558 15.6987 2.86041 15.6099 2.93662C15.5212 3.01282 15.4085 3.05548 15.2916 3.05722C15.2362 3.05571 15.1819 3.04548 15.1299 3.02646L15.129 3.03037Z" fill="#56596A"/>
</svg>
