<svg width="17" height="17" viewBox="0 0 17 17" fill="none" xmlns="http://www.w3.org/2000/svg">
<path d="M8.99832 16.0426C13.4166 16.0426 16.9983 12.4609 16.9983 8.0426C16.9983 3.62432 13.4166 0.0426025 8.99832 0.0426025C4.58004 0.0426025 0.998322 3.62432 0.998322 8.0426C0.998322 12.4609 4.58004 16.0426 8.99832 16.0426Z" fill="#39AC65"/>
<path d="M7.92831 11.6089H7.9203C7.8131 11.6079 7.70737 11.5839 7.61024 11.5385C7.51311 11.4931 7.42686 11.4274 7.35731 11.3459L5.4353 9.09187C5.30633 8.94053 5.24274 8.74418 5.25849 8.54598C5.27424 8.34777 5.36806 8.16393 5.51931 8.03487C5.59419 7.97088 5.68095 7.9223 5.77462 7.89188C5.8683 7.86147 5.96705 7.84983 6.06523 7.85764C6.16341 7.86544 6.25908 7.89252 6.34678 7.93735C6.43448 7.98217 6.51247 8.04386 6.5763 8.11887L7.93931 9.71886L12.5513 4.51886C12.6168 4.44525 12.6961 4.38524 12.7847 4.34229C12.8734 4.29933 12.9696 4.27425 13.068 4.26849C13.1663 4.26274 13.2648 4.27641 13.3579 4.30873C13.4509 4.34105 13.5367 4.39139 13.6103 4.45686C13.7589 4.58906 13.849 4.7748 13.8608 4.97334C13.8726 5.17187 13.8052 5.36698 13.6733 5.51586L8.4893 11.3559C8.41904 11.4354 8.3327 11.499 8.23599 11.5426C8.13927 11.5863 8.0344 11.6088 7.92831 11.6089Z" fill="white"/>
</svg>
